<svg height="24" viewBox="0 0 24 24" width="24" xmlns="http://www.w3.org/2000/svg"><path d="m0 0h24v24h-24z" fill="none"/><path d="m100 12.946v-.951a6.6 6.6 0 0 1 .595-2.616 6.272 6.272 0 0 1 1.189-1.665 3.72 3.72 0 0 1 1.189-.595c.238 0 .476-.119.713-.119h.595a4.6 4.6 0 0 1 2.5.951 18.321 18.321 0 0 1 1.546 1.665 4.2 4.2 0 0 0 1.07 1.308 2.431 2.431 0 0 0 1.07.595.437.437 0 0 1 .357.119h.357c.119 0 .119 0 .238-.119a3.278 3.278 0 0 0 1.07-.832 11 11 0 0 0 1.308-1.9 1.279 1.279 0 0 0 .476-.595v.948a6.6 6.6 0 0 1 -.595 2.616 6.272 6.272 0 0 1 -1.189 1.665c-.119.119-.357.238-.476.357a1.69 1.69 0 0 1 -.713.238h-1.07a4.225 4.225 0 0 1 -2.378-.951 18.32 18.32 0 0 1 -1.552-1.665 4.2 4.2 0 0 0 -1.07-1.308 2.431 2.431 0 0 0 -1.07-.595.587.587 0 0 1 -.357-.119h-.238a.715.715 0 0 0 -.476.119 3.278 3.278 0 0 0 -1.07.832 11 11 0 0 0 -1.308 1.9 1.565 1.565 0 0 0 -.711.717z" fill="#54657d" transform="translate(-95.135 1.432)"/></svg>