<svg height="32" viewBox="0 0 32 32" width="32" xmlns="http://www.w3.org/2000/svg"><path d="m0 0h32v32h-32z" fill="none"/><path d="m7.977 0 .107 2.258h-.268a2.671 2.671 0 0 0 -.214-.85 1.427 1.427 0 0 0 -.59-.608 2.059 2.059 0 0 0 -.964-.2h-1.355v7.361a1.962 1.962 0 0 0 .191 1.11 1.078 1.078 0 0 0 .834.3h.329v.26h-4.08v-.261h.344a.977.977 0 0 0 .866-.37 2.227 2.227 0 0 0 .153-1.031v-7.369h-1.156a3.094 3.094 0 0 0 -.957.1 1.323 1.323 0 0 0 -.635.521 2.143 2.143 0 0 0 -.314 1.037h-.268l.115-2.258z" fill="#54657d" transform="translate(12 10.87)"/><g fill="none" stroke="#54657d"><path d="m3.109.9h-3.109v15.135h3.109" transform="translate(8.5 7.063)"/><path d="m8.5 16-5 5" stroke-dasharray="2"/></g></svg>