<svg height="55.597" viewBox="0 0 69.82 55.597" width="69.82" xmlns="http://www.w3.org/2000/svg"><path d="m5 0h59.82a5 5 0 0 1 5 5v45.6a5 5 0 0 1 -5 5h-59.82a5 5 0 0 1 -5-5v-45.6a5 5 0 0 1 5-5z" fill="#e9ebee"/><path d="m13.859 0 .186 3.924h-.465a4.641 4.641 0 0 0 -.372-1.476 2.479 2.479 0 0 0 -1.024-1.064 3.577 3.577 0 0 0 -1.676-.333h-2.355v12.781a3.408 3.408 0 0 0 .333 1.929 1.873 1.873 0 0 0 1.45.519h.572v.452h-7.09v-.452h.6a1.7 1.7 0 0 0 1.5-.638 3.869 3.869 0 0 0 .266-1.8v-12.791h-2.007a5.376 5.376 0 0 0 -1.663.173 2.3 2.3 0 0 0 -1.1.9 3.723 3.723 0 0 0 -.545 1.8h-.469l.2-3.924z" fill="#54657d" transform="translate(29.849 18.885)"/><g fill="none" stroke="#54657d"><path d="m5.732.568h-6v27h6" transform="translate(23.768 12.933)"/><path d="m23.768 27.799-8.687 8.687" stroke-dasharray="2"/></g></svg>