<svg height="31" viewBox="0 0 31 31" width="31" xmlns="http://www.w3.org/2000/svg"><g fill="#fff" stroke="#fff" stroke-miterlimit="10" stroke-width="1.1"><circle cx="15.5" cy="15.5" r="15.5" stroke="none"/><circle cx="15.5" cy="15.5" fill="none" r="14.95"/></g><g fill="none" transform="translate(-689 -4298)"><path d="m0 0h31v31h-31z" transform="matrix(0 1 -1 0 720 4298)"/><g stroke="#ff9800" stroke-miterlimit="10" stroke-width="1.1"><circle cx="704.5" cy="4313.5" r="14.5" stroke="none"/><circle cx="704.5" cy="4313.5" fill="none" r="14.95"/></g><g stroke="#ff9800" stroke-miterlimit="10" stroke-width="1.1"><circle cx="704.5" cy="4313.5" r="12.5" stroke="none"/><circle cx="704.5" cy="4313.5" fill="none" r="12.95"/></g><g transform="translate(355 3978)"><g><path d="m349 339.5-6-4 6-4z"/><path d="m348 337.63146973v-4.26293946l-3.19723511 2.13146973zm1 1.86853027-6-4 6-4z" fill="#ff9800"/></g><g><path d="m355 339.5-6-4 6-4z"/><path d="m354 337.63146973v-4.26293946l-3.19723511 2.13146973zm1 1.86853027-6-4 6-4z" fill="#ff9800"/></g></g></g></svg>
