<svg height="31" viewBox="0 0 31 31" width="31" xmlns="http://www.w3.org/2000/svg"><g transform="translate(-482 -4658)"><g fill="#fff" stroke="#fff" stroke-miterlimit="10" stroke-width="1.1"><circle cx="497.5" cy="4673.5" r="15.5" stroke="none"/><circle cx="497.5" cy="4673.5" fill="none" r="14.95"/></g><path d="m0 0h31v31h-31z" fill="none" transform="matrix(0 1 -1 0 513 4658)"/><g stroke="#ff9800" stroke-miterlimit="10"><g fill="#fff" stroke-dasharray="6 2" stroke-width="1.1"><circle cx="497.5" cy="4673.5" r="14.5" stroke="none"/><circle cx="497.5" cy="4673.5" fill="none" r="14.95"/></g><g fill="none"><g stroke-dasharray="6 4" stroke-width="1.1"><circle cx="497.5" cy="4673.5" r="12.5" stroke="none"/><circle cx="497.5" cy="4673.5" fill="none" r="12.95"/></g><path d="m354.5 65.5h-10a.945.945 0 0 1 -1-1v-6a.945.945 0 0 1 1-1h10a.945.945 0 0 1 1 1v6a.945.945 0 0 1 -1 1" transform="translate(148 4612)"/><path d="m343.9 57.9 5.6 3.6 5.6-3.6" transform="translate(148 4612)"/></g></g></g></svg>
