<svg height="24" viewBox="0 0 24 24" width="24" xmlns="http://www.w3.org/2000/svg"><g fill="none"><path d="m0 0h24v24h-24z" transform="matrix(0 1 -1 0 24 0)"/><g stroke-miterlimit="10"><circle cx="12" cy="12" r="6.5" stroke="#54657d" stroke-dasharray="4 2"/><circle cx="12" cy="12" r="8.5" stroke="#54657d" stroke-dasharray="4 2"/><g transform="translate(-1402 -1378)"><path d="m1418 1388h-2v-2h-4v2h-2v4h2v2h4v-2h2z"/><path d="m1413 1387v1 1h-1-1v2h1 1v1 1h2v-1-1h1 1v-2h-1-1v-1-1zm-1-1h4v2h2v4h-2v2h-4v-2h-2v-4h2z" fill="#54657d"/></g></g></g></svg>