<svg height="31" viewBox="0 0 31 31" width="31" xmlns="http://www.w3.org/2000/svg"><g fill="#fff" stroke="#fff" stroke-miterlimit="10" stroke-width="1.1"><circle cx="15.5" cy="15.5" r="15.5" stroke="none"/><circle cx="15.5" cy="15.5" fill="none" r="14.95"/></g><g fill="none" transform="translate(-689 -4976)"><path d="m0 0h31v31h-31z" transform="matrix(0 1 -1 0 720 4976)"/><g stroke-miterlimit="10"><g stroke="#ff9800" stroke-width="1.1"><circle cx="704.5" cy="4991.5" r="14.5" stroke="none"/><circle cx="704.5" cy="4991.5" fill="none" r="14.95"/></g><g stroke="#ff9800" stroke-width="1.1"><circle cx="704.5" cy="4991.5" r="12.5" stroke="none"/><circle cx="704.5" cy="4991.5" fill="none" r="12.95"/></g><g transform="translate(-939 3529)"><path d="m1651 1460h-5v-5h-5v5h-5v5h5v5h5v-5h5z"/><path d="m1642 1456v4 1h-1-4v3h4 1v1 4h3v-4-1h1 4v-3h-4-1v-1-4zm-1-1h5v5h5v5h-5v5h-5v-5h-5v-5h5z" fill="#ff9800"/></g></g></g></svg>
