<svg height="55.597" viewBox="0 0 69.82 55.597" width="69.82" xmlns="http://www.w3.org/2000/svg"><path d="m5 0h59.82a5 5 0 0 1 5 5v45.6a5 5 0 0 1 -5 5h-59.82a5 5 0 0 1 -5-5v-45.6a5 5 0 0 1 5-5z" fill="#ff9800"/><g transform="translate(-466 -431)"><g fill="#fff" stroke="#fff" stroke-miterlimit="10" stroke-width="1.1"><circle cx="500.5" cy="459.5" r="15.5" stroke="none"/><circle cx="500.5" cy="459.5" fill="none" r="14.95"/></g><g fill="none"><path d="m0 0h31v31h-31z" transform="matrix(0 1 -1 0 516 444)"/><g stroke="#ff9800" stroke-miterlimit="10" stroke-width="1.1"><circle cx="500.5" cy="459.5" r="14.5" stroke="none"/><circle cx="500.5" cy="459.5" fill="none" r="13.95"/></g><g stroke="#ff9800" stroke-miterlimit="10" stroke-width="1.1"><circle cx="500.5" cy="459.5" r="12.5" stroke="none"/><circle cx="500.5" cy="459.5" fill="none" r="11.95"/></g><path d="m344 183 5.5-12 5.5 12-5.5-3.4z" stroke="#ff9800" transform="translate(151 282)"/></g></g></svg>