<svg height="55.597" viewBox="0 0 69.82 55.597" width="69.82" xmlns="http://www.w3.org/2000/svg"><path d="m5 0h59.82a5 5 0 0 1 5 5v45.6a5 5 0 0 1 -5 5h-59.82a5 5 0 0 1 -5-5v-45.6a5 5 0 0 1 5-5z" fill="#ff9800"/><g transform="translate(-429 -790)"><g fill="#fff" transform="translate(448 802)"><path d="m15.5 30.45000076c-3.99328995 0-7.74756002-1.55507087-10.57124996-4.37874984-2.82367993-2.82368088-4.37875003-6.57796097-4.37875003-10.57125092s1.5550701-7.74756002 4.37875003-10.57124996c2.82368994-2.82367993 6.57796001-4.37875003 10.57124996-4.37875003s7.74757004 1.5550701 10.57125092 4.37875003c2.82367897 2.82368994 4.37874984 6.57796001 4.37874984 10.57124996s-1.55507087 7.74757004-4.37874984 10.57125092c-2.82368088 2.82367897-6.57796097 4.37874984-10.57125092 4.37874984z"/><path d="m15.5 1.10000038c-3.84638023 0-7.46253014 1.49785996-10.18234062 4.217659-2.71979904 2.71981048-4.217659 6.33596039-4.217659 10.18234062s1.49785996 7.46253014 4.217659 10.18234062c2.71981048 2.71979904 6.33596039 4.217659 10.18234062 4.217659s7.46253014-1.49785996 10.18234062-4.217659c2.71979904-2.71981048 4.217659-6.33596039 4.217659-10.18234062s-1.49785996-7.46253014-4.217659-10.18234062c-2.71981048-2.71979904-6.33596039-4.217659-10.18234062-4.217659m0-1.10000038c8.56040955 0 15.5 6.93959045 15.5 15.5s-6.93959045 15.5-15.5 15.5-15.5-6.93959045-15.5-15.5 6.93959045-15.5 15.5-15.5z" fill="#fff"/></g><g fill="none"><g transform="translate(449 803)"><path d="m14.5 0a14.5 14.5 0 1 1 -14.5 14.5 14.5 14.5 0 0 1 14.5-14.5z"/><path d="m14.5 1.10000038c-3.57926941 0-6.94430923 1.39383888-9.47522926 3.92477036-2.53093148 2.53092003-3.92477036 5.89595985-3.92477036 9.47522926s1.39383888 6.94430923 3.92477036 9.47523117c2.53092003 2.53092957 5.89595985 3.92476845 9.47522926 3.92476845s6.94430923-1.39383888 9.47523117-3.92476845c2.53092957-2.53092194 3.92476845-5.89596176 3.92476845-9.47523117s-1.39383888-6.94430923-3.92476845-9.47522926c-2.53092194-2.53093148-5.89596176-3.92477036-9.47523117-3.92477036m0-1.10000038c8.00812912 0 14.5 6.49187088 14.5 14.5s-6.49187088 14.5-14.5 14.5-14.5-6.49187088-14.5-14.5 6.49187088-14.5 14.5-14.5z" fill="#ff9800"/></g><g stroke="#ff9800" stroke-miterlimit="10" stroke-width="1.1"><circle cx="463.5" cy="817.5" r="12.5" stroke="none"/><circle cx="463.5" cy="817.5" fill="none" r="11.95"/></g><path d="m1643.5 1414.5 6.834 4.966-2.61 8.034h-8.448l-2.61-8.034z" stroke="#ff9800" stroke-miterlimit="10" stroke-width="1.1" transform="translate(-1180 -604)"/></g></g></svg>