<svg height="55.597" viewBox="0 0 69.82 55.597" width="69.82" xmlns="http://www.w3.org/2000/svg"><path d="m5 0h59.82a5 5 0 0 1 5 5v45.6a5 5 0 0 1 -5 5h-59.82a5 5 0 0 1 -5-5v-45.6a5 5 0 0 1 5-5z" fill="#ff9800"/><g transform="translate(-463 -4724)"><g fill="#fff" stroke="#fff" stroke-miterlimit="10" stroke-width="1.1"><circle cx="497.5" cy="4751.5" r="15.5" stroke="none"/><circle cx="497.5" cy="4751.5" fill="none" r="14.95"/></g><g fill="none"><path d="m0 0h31v31h-31z" transform="matrix(0 1 -1 0 513 4736)"/><g stroke="#ff9800" stroke-dasharray="6 4" stroke-miterlimit="10" stroke-width="1.1"><circle cx="497.5" cy="4751.5" r="12.5" stroke="none"/><circle cx="497.5" cy="4751.5" fill="none" r="11.95"/></g><circle cx="497.5" cy="4751.5" r="6" stroke="#ff9800" stroke-miterlimit="10" stroke-width="1.1"/><path d="m352 135-2 4 2 1" stroke="#ff9800" stroke-miterlimit="10" stroke-width="1.1" transform="translate(147.5 4612.5)"/><g stroke="#ff9800" stroke-dasharray="6 2" stroke-miterlimit="10" stroke-width="1.1"><circle cx="497.5" cy="4751.5" r="14.5" stroke="none"/><circle cx="497.5" cy="4751.5" fill="none" r="13.95"/></g></g></g></svg>