<svg height="55" viewBox="0 0 69 55" width="69" xmlns="http://www.w3.org/2000/svg"><g transform="translate(-581 -344)"><path d="m650 394a5.015 5.015 0 0 1 -5 5h-59a5.015 5.015 0 0 1 -5-5v-45a5.015 5.015 0 0 1 5-5h59a5.015 5.015 0 0 1 5 5z" fill="#e76092"/><path d="m627 366h-23v-1a2.006 2.006 0 0 1 2-2h19a2.006 2.006 0 0 1 2 2z" fill="#fff"/><path d="m604.5 365.5h22v12.5a1.538 1.538 0 0 1 -1.5 1.5h-19a1.538 1.538 0 0 1 -1.5-1.5z" fill="none" stroke="#fff" stroke-miterlimit="10"/></g><path d="m24 28h21v1h-21z" fill="#fff"/><path d="m28 21h1v15h-1z" fill="#fff"/></svg>