<svg height="24" viewBox="0 0 24 24" width="24" xmlns="http://www.w3.org/2000/svg"><path d="m0 0h24v24h-24z" fill="none" transform="matrix(0 1 -1 0 24 0)"/><path d="m126 171.5h-12a.472.472 0 0 1 -.5-.5v-7.5h13v7.5a.472.472 0 0 1 -.5.5z" fill="none" stroke="#54657d" stroke-miterlimit="10" transform="translate(-108 -155)"/><path d="m114 161h12a.945.945 0 0 1 1 1v2h-14v-2a.945.945 0 0 1 1-1z" fill="#54657d" transform="translate(-108 -155)"/><g fill="none" stroke="#54657d" stroke-miterlimit="10"><path d="m10.5 9v7"/><path d="m6 12.5h12"/></g></svg>