<svg xmlns="http://www.w3.org/2000/svg" width="24" height="24" viewBox="0 0 24 24"><defs><style>.a,.c{fill:none;}.b{clip-path:url(#a);}.c{stroke:#54657d;stroke-miterlimit:10;stroke-width:2px;}.d{fill:#54657d;}.e{stroke:#54657d;stroke-miterlimit:10;fill:none}</style><clipPath id="a"><rect class="a" width="24" height="24"/></clipPath></defs><g class="b"><path class="c" d="M125.5,255h-10a1.538,1.538,0,0,1-1.5-1.5v-7a1.538,1.538,0,0,1,1.5-1.5h10a1.538,1.538,0,0,1,1.5,1.5v7A1.538,1.538,0,0,1,125.5,255Z" transform="translate(-108 -238)"/><rect xmlns="http://www.w3.org/2000/svg" class="a" width="24" height="24"/><path xmlns="http://www.w3.org/2000/svg" class="e" d="M122.5,283.5h-4a.945.945,0,0,1-1-1v-4a.945.945,0,0,1,1-1h4a.945.945,0,0,1,1,1v4A.945.945,0,0,1,122.5,283.5Z" transform="translate(-108 -267)"/><rect xmlns="http://www.w3.org/2000/svg" class="d" width="1" height="3" transform="translate(12 12)"/><rect xmlns="http://www.w3.org/2000/svg" class="d" width="3" height="1" transform="translate(11 13)"/></g></svg>
