<svg height="55.597" viewBox="0 0 69.82 55.597" width="69.82" xmlns="http://www.w3.org/2000/svg"><path d="m5 0h59.82a5 5 0 0 1 5 5v45.6a5 5 0 0 1 -5 5h-59.82a5 5 0 0 1 -5-5v-45.6a5 5 0 0 1 5-5z" fill="#e9ebee"/><g fill="none"><path d="m7.534 15c3.837-3.875 14.978-14.976 14.978-14.976" stroke="#54657d" transform="translate(23.697 17.269)"/><path d="m38.5 21.001 8-4" stroke="#54657d"/><path d="m42.5 25.001 4-8" stroke="#54657d"/><g transform="translate(25.025 32.247)"><path d="m-.058.192 7.111-1.015-1.016 7.111-7.111 1.012z"/><path d="m5.87471008.35502577-5.04911422.72130203-.72130204 5.04911423 5.04911423-.72130203zm1.17851162-1.1785121-1.0159297 7.11151028-7.11151027 1.01593017 1.01593017-7.11151027z" fill="#54657d"/></g></g></svg>