<svg height="24" viewBox="0 0 24 24" width="24" xmlns="http://www.w3.org/2000/svg"><path d="m0 0h24v24h-24z" fill="none"/><g fill="none" stroke-miterlimit="10" transform="translate(-1476.459 -1941.074)"><path d="m1494.459 1960.074h-12v-16h8.276l3.724 4.1z"/><path d="m1493.45922852 1959.07385254v-10.51147461l-3.16699219-3.48852539h-6.83300781v14zm1 1h-12v-16h8.27575683l3.72424317 4.10229492z" fill="#54657d"/></g><g fill="#fff" transform="translate(8 8.601)"><path d="m3.65521979 7.14815283.20491028-1.68883276.0679698-.56022024h-.56432986-2.86377004v-2.99959982h2.89161995.56958008l-.07379007-.56477999-.22301198-1.70690275 4.30339456 3.68746484z"/><path d="m4.31073856 5.896626 2.89666224-2.5744567-2.87831879-2.46635526.05410815.41413599.14757966 1.12954986h-1.1391499-2.39161992v1.99959994h2.36377001 1.12866974l-.13594961 1.12045002zm-1.31103849 2.50307416.36406994-3.00060033h-3.36377003v-3.99959982h3.39161994l-.39191985-2.99970007 5.72849989 4.90859998z" fill="#54657d"/></g><path d="m0 0v4h4" fill="none" stroke="#54657d" transform="translate(13.5 3.5)"/></svg>