<svg height="41" viewBox="0 0 31 41" width="31" xmlns="http://www.w3.org/2000/svg"><g fill="none"><path d="m0 0h31v41h-31z"/><g stroke-miterlimit="10"><g transform="translate(-1482.959 -1944.573)"><path d="m1513.959 1985.573h-31v-41h21.379l9.621 10.513z"/><path d="m1512.95910645 1984.57348633v-29.09851074l-9.06103516-9.90148926h-19.93896484v39zm1 1h-31v-41h21.37939453l9.62060547 10.51293945z" fill="#54657d"/></g><path d="m1511.434 1944.073v10h10" stroke="#54657d" transform="translate(-1490.934 -1943.573)"/></g></g><g fill="#54657d" transform="translate(3.561 5.612)"><path d="m5.9766078 9.401968.0760026-1.99573755.01976013-.51903009h-.51940012-4.61377001v-2.99960018h4.63297987.52274037l-.02323008-.52222991-.09095955-2.04413366 6.07420063 3.83354378z"/><path d="m6.51451492 8.41614342 4.63715744-3.24018288-4.62892198-2.92140102.04843998 1.08859086.04648018 1.04445004h-1.04549027-4.13297987v1.99959994h4.11377001 1.03881025l-.03953027 1.03804969zm-1.07581472 1.9716568.11427021-3.00059986h-5.11376998v-3.99960018h5.13297984l-.13348007-2.99969989 7.51950025 4.74569994z" fill="#54657d"/></g></svg>