<svg height="55.597" viewBox="0 0 69.82 55.597" width="69.82" xmlns="http://www.w3.org/2000/svg"><path d="m5 0h59.82a5 5 0 0 1 5 5v45.6a5 5 0 0 1 -5 5h-59.82a5 5 0 0 1 -5-5v-45.6a5 5 0 0 1 5-5z" fill="#e9ebee"/><path d="m19 7h31v41h-31z" fill="none"/><g fill="none" stroke-miterlimit="10" transform="translate(-1459.959 -1932.573)"><path d="m1506.45922852 1976.07324219h-23v-31h15.29284668l7.70715332 7.70715332z"/><path d="m1505.95922852 1975.57324219v-22.58581543l-7.41418457-7.41418457h-14.58581543v30zm1 1h-24v-32h16l8 8z" fill="#54657d"/></g><g fill="#54657d"><g transform="translate(26.099 16.649)"><path d="m4.4113636 6.76146364.05278635-1.39110374.01969004-.51896h-.51933003-3.56351006v-2.00059986h3.57682002.52265978l-.02314997-.52215004-.06186533-1.39544398 4.38054848 2.76448971z"/><path d="m4.94912672 5.77574492 2.94361734-2.05684877-2.93541574-1.8524909.0195117.44010472.04629993 1.04429007h-1.04532003-3.07682002v1.00059986h3.06351006 1.03867007l-.03939009 1.03792zm-1.07552671 1.97145509.09090995-2.39580011h-4.06351004v-3.00059986h4.07682l-.10421991-2.35080003 5.8256998 3.67650007z" fill="#54657d"/></g><g transform="translate(38.27 12)"><path d="m7.31541824 8.02246094h-6.81541389v-6.81536651z"/><path d="m1.00000429 2.4141984v5.10826206h5.10829783zm-.99999952-2.4141984 8.52251911 8.52246094h-8.52251911z" fill="#54657d"/></g></g></svg>