<svg height="41" viewBox="0 0 31 41" width="31" xmlns="http://www.w3.org/2000/svg"><g fill="none"><g transform="translate(1.591 .5)"><path d="m14.50000763 8.5c-3.67537975 0-7.64651012-.60048008-10.89514995-1.64747-3.22633007-1.03980016-4.69580006-2.20756006-4.69580006-2.85253 0-.6484201 1.35699001-1.70350003 4.38858008-2.59890997 3.01468968-.89041001 6.8823998-1.40109003 10.61141992-1.40109003 3.72901916 0 7.59672928.51068002 10.61141967 1.40109003 3.03158951.89540994 4.38858033 1.95048987 4.38858033 2.59890997 0 .68985987-1.27383995 1.84099007-4.11967087 2.85757017-2.92201996 1.04378986-6.67234993 1.64242983-10.28937912 1.64242983z"/><path d="m13.90905762.5c-3.63504029 0-7.41469002.49253988-10.36981964 1.3513298-3.30280495.959826-4.10137749 1.94038964-4.12963295 2.1437335.01230049.0418377.14381599.4024582 1.09950256.98457671.84114075.51235008 2.03594971 1.01807022 3.4552803 1.46249008 3.16186905.99004984 7.00194931 1.55786991 10.53561974 1.55786991 3.5619812 0 7.25099945-.58801985 10.12117958-1.61328983 1.25844002-.44954014 2.2920208-.96022034 2.98899078-1.47684002.65535927-.48579025.79887963-.8215003.79891014-.90882015-.01564025-.19292021-.79976081-1.18185997-4.13021087-2.1497202-2.95512963-.85878992-6.73477936-1.3513298-10.36981964-1.3513298m0-1c8.00812912 0 15.5 2.29086018 15.5 4.5s-6.90092087 5-14.90904999 5c-8.00814056 0-16.09095001-2.79086018-16.09095001-5s7.49187088-4.5 15.5-4.5z" fill="#54657d"/></g><g stroke="#54657d" stroke-miterlimit="10"><path d="m2 2v31.5c0 2.152 8.262 5 16 5s14-2.848 14-5v-31.5" transform="translate(-1.5 2)"/><path d="m32 9.955c0 2.213-6.521 4-14.536 4s-15.464-1.787-15.464-4" transform="translate(-1.5 16.545)"/><path d="m32 9.955c0 2.213-7.521 4-15.536 4s-14.464-1.787-14.464-4" transform="translate(-1.5 5.545)"/></g><path d="m0 0h31v41h-31z"/></g></svg>