<svg height="55.597" viewBox="0 0 69.82 55.597" width="69.82" xmlns="http://www.w3.org/2000/svg"><path d="m5 0h59.82a5 5 0 0 1 5 5v45.6a5 5 0 0 1 -5 5h-59.82a5 5 0 0 1 -5-5v-45.6a5 5 0 0 1 5-5z" fill="#e9ebee"/><path d="m2.137 2.251v23c0 1.6 5.255 4 11 4s11-2.4 11-4v-23" fill="#e9ebee" stroke="#54657d" stroke-miterlimit="10" transform="translate(21.363 14.249)"/><path d="m24.137 9.5c0 1.643-5.05 3-11 3s-11-1.357-11-3" fill="none" stroke="#54657d" stroke-miterlimit="10" transform="translate(21.363 23)"/><g fill="#e9ebee" transform="translate(24.583 13.78)"><path d="m10.41723633 5.72021484c-2.86336994 0-5.82017994-.31745004-8.11227989-.87095022-2.77911011-.67110967-3.38772011-1.40347981-3.38772011-1.62904978 0-.22556996.60861-.9579401 3.38772011-1.62905001 2.29209995-.55349994 5.24890995-.87094999 8.11227989-.87094999 2.7990303 0 5.56861973.31616998 7.59860992.86745 2.29030991.62196994 2.90139008 1.31884003 2.90139008 1.63255 0 .31370998-.61108017 1.01058007-2.90139008 1.63254977-2.02999019.55128002-4.79957962.86745023-7.59860992.86745023z"/><path d="m10.41723633 1.22021484c-2.58170033 0-5.30714989.26925993-7.47751999.73872996-2.18865967.47342348-3.13496018.99500084-3.44019508 1.26127004.3052349.26626921 1.25153541.78784657 3.44019508 1.26127005 2.1703701.46947002 4.89581966.73872995 7.47751999.73872995 2.58979988 0 5.09799957-.26478004 7.06257057-.74556017 1.98135185-.48489832 2.73705292-1.03184652 2.91114998-1.25443983-.17409706-.2225933-.92979813-.7695415-2.91114998-1.25443983-1.964571-.48078012-4.47277069-.74556017-7.06257057-.74556017m0-1c5.94572067 0 11 1.35979987 11 3 0 1.64020014-5.05427933 3-11 3-5.94573021 0-12-1.35979986-12-3 0-1.64020013 6.05426979-3 12-3z" fill="#54657d"/></g><g fill="none"><path d="m24.137 9.667c0 1.643-5.05 3-11 3s-11-1.357-11-3" stroke="#54657d" stroke-miterlimit="10" transform="translate(21.363 14.833)"/><path d="m23 13h23v31h-23z"/></g></svg>