<svg height="32" viewBox="0 0 32 32" width="32" xmlns="http://www.w3.org/2000/svg"><g fill="none"><g transform="translate(7 7)"><path d="m9.5 0a9.5 9.5 0 1 1 -9.5 9.5 9.5 9.5 0 0 1 9.5-9.5z"/><path d="m9.5 2c-4.13551044 0-7.5 3.36452961-7.5 7.50009918 0 4.13557053 3.36448956 7.50009918 7.5 7.50009918 4.13550949 0 7.5-3.36452865 7.5-7.50009918 0-4.13556957-3.36449051-7.50009918-7.5-7.50009918m0-2c5.24670982 0 9.5 4.25333881 9.5 9.50009918 0 5.24675942-4.25329018 9.50009918-9.5 9.50009918s-9.5-4.25333976-9.5-9.50009918c0-5.24676037 4.25329018-9.50009918 9.5-9.50009918z" fill="#ee2d2d"/></g><path d="m0 0h32v32h-32z"/></g></svg>