<svg height="55.597" viewBox="0 0 69.82 55.597" width="69.82" xmlns="http://www.w3.org/2000/svg"><path d="m5 0h59.82a5 5 0 0 1 5 5v45.6a5 5 0 0 1 -5 5h-59.82a5 5 0 0 1 -5-5v-45.6a5 5 0 0 1 5-5z" fill="#ff7043"/><g fill="#fff" transform="translate(19 12)"><path d="m15.5 30.45000076c-3.99328995 0-7.74756002-1.55507087-10.57124996-4.37874984-2.82367993-2.82369042-4.37875003-6.57796097-4.37875003-10.57125092s1.5550701-7.74756002 4.37875003-10.57124996c2.82368994-2.82367993 6.57796001-4.37875003 10.57124996-4.37875003s7.7475605 1.5550701 10.57125092 4.37875003c2.82367897 2.82368994 4.37874984 6.57796001 4.37874984 10.57124996s-1.55507087 7.7475605-4.37874984 10.57125092c-2.82369042 2.82367897-6.57796097 4.37874984-10.57125092 4.37874984z"/><path d="m15.5 1.10000038c-3.84638023 0-7.46253014 1.49785996-10.18234062 4.217659-2.71979904 2.71981048-4.217659 6.33596039-4.217659 10.18234062s1.49785996 7.46253014 4.217659 10.18234062c2.71981048 2.71979904 6.33596039 4.217659 10.18234062 4.217659s7.46253014-1.49785996 10.18234062-4.217659c2.71979904-2.71981048 4.217659-6.33596039 4.217659-10.18234062s-1.49785996-7.46253014-4.217659-10.18234062c-2.71981048-2.71979904-6.33596039-4.217659-10.18234062-4.217659m0-1.10000038c8.56040955 0 15.5 6.93959045 15.5 15.5s-6.93959045 15.5-15.5 15.5-15.5-6.93959045-15.5-15.5 6.93959045-15.5 15.5-15.5z" fill="#fff"/></g><g fill="#fff" transform="translate(20 13)"><path d="m14.5 27.5c-3.47243023 0-6.73701-1.35223961-9.19238997-3.80760956-2.45536994-2.45538139-3.80761003-5.71996116-3.80761003-9.19239044 0-3.47243023 1.35224009-6.73701 3.80761003-9.19238997 2.45537997-2.45536994 5.71995974-3.80761003 9.19238997-3.80761003 3.47242928 0 6.73700905 1.35224009 9.19239044 3.80761003 2.45536995 2.45537997 3.80760956 5.71995974 3.80760956 9.19238997 0 3.47242928-1.35223961 6.73700905-3.80760956 9.19239044-2.45538139 2.45536995-5.71996116 3.80760956-9.19239044 3.80760956z"/><path d="m14.5 3c-3.07176018 0-5.95966911 1.19621086-8.13172913 3.36827087-2.17206001 2.17206002-3.36827087 5.05996895-3.36827087 8.13172913s1.19621086 5.95967102 3.36827087 8.13172913c2.17206002 2.17206192 5.05996895 3.36827087 8.13172913 3.36827087s5.95967102-1.19620895 8.13172913-3.36827087c2.17206192-2.17205811 3.36827087-5.05996895 3.36827087-8.13172913s-1.19620895-5.95966911-3.36827087-8.13172913c-2.17205811-2.17206001-5.05996895-3.36827087-8.13172913-3.36827087m0-3c8.00812912 0 14.5 6.49187088 14.5 14.5s-6.49187088 14.5-14.5 14.5-14.5-6.49187088-14.5-14.5 6.49187088-14.5 14.5-14.5z" fill="#ff7043"/></g><path d="m405.5 144 3.8-11 4.4 6.1 3.8-6.1-3.8 11-4.4-6.1z" fill="#ff7043" transform="translate(-377.5 -111)"/><path d="m0 0h31v31h-31z" fill="none" transform="matrix(0 1 -1 0 50 12)"/></svg>