<svg height="31" width="31" xmlns="http://www.w3.org/2000/svg"><g fill="#fff"><path d="M15.5 30.45a14.852 14.852 0 01-10.571-4.379C2.105 23.248.55 19.493.55 15.5S2.105 7.752 4.929 4.929C7.752 2.105 11.507.55 15.5.55s7.748 1.555 10.571 4.379c2.824 2.823 4.379 6.578 4.379 10.571s-1.555 7.748-4.379 10.571A14.852 14.852 0 0115.5 30.45z"/><path d="M15.5 1.1A14.306 14.306 0 005.318 5.318C2.598 8.038 1.1 11.654 1.1 15.5s1.498 7.463 4.218 10.182c2.72 2.72 6.336 4.218 10.182 4.218s7.463-1.498 10.182-4.218c2.72-2.72 4.218-6.336 4.218-10.182s-1.498-7.463-4.218-10.182A14.306 14.306 0 0015.5 1.1m0-1.1C24.06 0 31 6.94 31 15.5S24.06 31 15.5 31 0 24.06 0 15.5 6.94 0 15.5 0z"/></g><g stroke-miterlimit="10"><g fill="none" stroke="#ff7043" stroke-width="3" transform="translate(-656 -635)"><circle cx="671.5" cy="650.5" r="14.5" stroke="none"/><circle cx="671.5" cy="650.5" r="13.95"/></g><g fill="#ff7043"><path d="M11.965 21.864l-2.829-2.829 3.182-3.182.354-.353-.354-.354-3.182-3.182 2.829-2.828 3.182 3.182.353.353.354-.353 3.182-3.182 2.828 2.828-3.182 3.182-.353.354.353.353 3.182 3.182-2.828 2.829-3.182-3.182-.354-.354-.353.354z"/><path d="M19.036 9.843l-2.829 2.828-.707.707-.707-.707-2.828-2.828-2.122 2.121 2.829 2.829.707.707-.707.707-2.829 2.828 2.122 2.122 2.828-2.829.707-.707.707.707 2.829 2.829 2.121-2.122-2.828-2.828-.707-.707.707-.707 2.828-2.829zm0-1.414l3.535 3.535-3.535 3.536 3.535 3.535-3.535 3.536-3.536-3.536-3.535 3.536-3.536-3.536 3.536-3.535-3.536-3.536 3.536-3.535 3.535 3.535z"/></g></g></svg>
