<svg xmlns="http://www.w3.org/2000/svg" width="69" height="55" viewBox="0 0 69 55"><defs><style>.a{fill:rgba(255,255,255,0);stroke:#2459c4;stroke-dasharray:2;}.b{fill:#5c6bc0;}.c,.d,.e{fill:none;}.c{stroke-miterlimit:10;}.d{stroke:#fff;stroke-linecap:round;}.f,.g{stroke:none;}.g{fill:#fff;}</style></defs><g transform="translate(-941 -5157)"><g class="a" transform="translate(941 5157)"><rect class="f" width="69" height="55" rx="4"/><rect class="e" x="0.5" y="0.5" width="68" height="54" rx="3.5"/></g><rect class="b" width="59" height="45" rx="1" transform="translate(946 5162)"/></g><g transform="translate(28 30)"><g class="c" transform="translate(-27.5 -647.5)"><path class="f" d="M38.583,659.5H29.417a.965.965,0,0,1-.917-.917v-9.167a.965.965,0,0,1,.917-.917h9.167a.965.965,0,0,1,.917.917v9.167A.965.965,0,0,1,38.583,659.5Z"/><path class="g" d="M 38.5 658.5001220703125 L 38.5 649.5001220703125 L 29.5 649.5001220703125 L 29.5 658.5001220703125 L 38.5 658.5001220703125 M 38.58333969116211 659.5001220703125 L 29.41666984558105 659.5001220703125 C 28.94524002075195 659.5001220703125 28.5 659.0548095703125 28.5 658.5833740234375 L 28.5 649.416748046875 C 28.5 648.9453125 28.94524002075195 648.5001220703125 29.41666984558105 648.5001220703125 L 38.58333969116211 648.5001220703125 C 39.05475997924805 648.5001220703125 39.5 648.9453125 39.5 649.416748046875 L 39.5 658.5833740234375 C 39.5 659.0548095703125 39.05475997924805 659.5001220703125 38.58333969116211 659.5001220703125 Z"/></g><path class="d" d="M7,0H1" transform="translate(2.5 6.5)"/><rect class="e" width="13" height="13"/></g></svg>