<svg xmlns="http://www.w3.org/2000/svg" width="24" height="24" viewBox="0 0 24 24"><defs><style>.a,.c{fill:none;}.b{fill:rgba(255,152,0,0.29);}.d,.e{stroke:none;}.e{fill:#ff9800;}</style></defs><g transform="translate(-738 -428)"><rect class="a" width="24" height="24" transform="translate(738 428)"/><g class="b" transform="translate(742 431.999)"><path class="d" d="M 7.999916553497314 15.5 C 3.864446640014648 15.5 0.499996542930603 12.13551044464111 0.499996542930603 8 C 0.499996542930603 3.864490032196045 3.864446640014648 0.5 7.999916553497314 0.5 C 12.13538646697998 0.5 15.49983692169189 3.864490032196045 15.49983692169189 8 C 15.49983692169189 12.13551044464111 12.13538646697998 15.5 7.999916553497314 15.5 Z"/><path class="e" d="M 7.999916553497314 1 C 4.140146255493164 1 0.9999961853027344 4.140190124511719 0.9999961853027344 8 C 0.9999961853027344 11.85980987548828 4.140146255493164 15 7.999916553497314 15 C 11.85968589782715 15 14.99983692169189 11.85980987548828 14.99983692169189 8 C 14.99983692169189 4.140190124511719 11.85968589782715 1 7.999916553497314 1 M 7.999916553497314 0 C 12.41814613342285 0 15.99983692169189 3.581720352172852 15.99983692169189 8 C 15.99983692169189 12.41827964782715 12.41814613342285 16 7.999916553497314 16 C 3.581686973571777 16 -3.814697265625e-06 12.41827964782715 -3.814697265625e-06 8 C -3.814697265625e-06 3.581720352172852 3.581686973571777 0 7.999916553497314 0 Z"/></g><g class="c" transform="translate(743.941 433.939)"><path class="d" d="M6,0A6,6,0,1,1,0,6,6,6,0,0,1,6,0Z"/><path class="e" d="M 6 1.000002861022949 C 3.242989540100098 1.000002861022949 1 3.243022918701172 1 6.000062465667725 C 1 8.757102966308594 3.242989540100098 11.0001220703125 6 11.0001220703125 C 8.757009506225586 11.0001220703125 11 8.757102966308594 11 6.000062465667725 C 11 3.243022918701172 8.757009506225586 1.000002861022949 6 1.000002861022949 M 6 2.86102294921875e-06 C 9.31371021270752 2.86102294921875e-06 12 2.686322212219238 12 6.000062465667725 C 12 9.313802719116211 9.31371021270752 12.0001220703125 6 12.0001220703125 C 2.68628978729248 12.0001220703125 0 9.313802719116211 0 6.000062465667725 C 0 2.686322212219238 2.68628978729248 2.86102294921875e-06 6 2.86102294921875e-06 Z"/></g></g></svg>