<svg xmlns="http://www.w3.org/2000/svg" width="24" height="24"><defs><style>.b{fill:none}.c,.d{stroke:none}.d{fill:#ff9800}</style></defs><path fill="none" d="M0 0h24v24H0z"/><g class="b"><path class="c" d="M12 3.999a8 8 0 11-8 8 8 8 0 018-8z"/><path class="d" d="M12 4.999c-3.86 0-7 3.14-7 7s3.14 7 7 7 7-3.14 7-7-3.14-7-7-7m0-1a8 8 0 110 16 8 8 0 010-16z"/></g><g class="b"><path class="c" d="M11.941 5.939a6 6 0 11-6 6 6 6 0 016-6z"/><path class="d" d="M11.941 6.939c-2.757 0-5 2.243-5 5s2.243 5 5 5 5-2.243 5-5-2.243-5-5-5m0-1a6 6 0 110 12 6 6 0 010-12z"/></g></svg>