<svg xmlns="http://www.w3.org/2000/svg" width="24" height="24" viewBox="0 0 24 24"><defs><style>.a,.c,.d{fill:none;}.b{fill:#54657d;}.c,.d{stroke:#54657d;}.d{stroke-dasharray:2;}</style></defs><g transform="translate(-817.281 -226.5)"><rect class="a" width="24" height="24" transform="translate(817.281 226.5)"/><path class="b" d="M7.977,0l.107,2.258H7.816a2.671,2.671,0,0,0-.214-.85A1.427,1.427,0,0,0,7.012.8,2.059,2.059,0,0,0,6.048.6H4.693V7.961a1.962,1.962,0,0,0,.191,1.11,1.078,1.078,0,0,0,.834.3h.329v.26H1.967V9.37h.344A.977.977,0,0,0,3.177,9,2.227,2.227,0,0,0,3.33,7.969V.6H2.174a3.094,3.094,0,0,0-.957.1,1.323,1.323,0,0,0-.635.521A2.143,2.143,0,0,0,.268,2.258H0L.115,0Z" transform="translate(827.281 233.37)"/><path class="c" d="M3.109.9H0V16.035H3.109" transform="translate(823.781 229.563)"/><line class="d" x1="5" y2="5" transform="translate(818.781 238.5)"/></g></svg>