<svg xmlns="http://www.w3.org/2000/svg" width="24" height="24" viewBox="0 0 24 24"><defs><style>.a,.b{fill:none;}.b{stroke:#54657d;stroke-miterlimit:10;}</style></defs><g transform="translate(-612 -534)"><rect class="a" width="24" height="24" transform="translate(612 534)"/><g transform="translate(354.5 538.5)"><path class="b" d="M274.3,9.5h2.2v-3h-2.2a4.283,4.283,0,0,0-.63-1.33l1.6-1.6-1.84-1.84-1.6,1.6a4.283,4.283,0,0,0-1.33-.63V.5h-3V2.7a4.283,4.283,0,0,0-1.33.63l-1.6-1.6-1.84,1.84,1.6,1.6a4.283,4.283,0,0,0-.63,1.33h-2.2v3h2.2a4.283,4.283,0,0,0,.63,1.33l-1.6,1.6,1.84,1.84,1.6-1.6a4.283,4.283,0,0,0,1.33.63v2.2h3V13.3a4.283,4.283,0,0,0,1.33-.63l1.6,1.6,1.84-1.84-1.6-1.6A4.282,4.282,0,0,0,274.3,9.5Z"/><circle class="b" cx="2.76" cy="2.76" r="2.76" transform="translate(266.24 5.24)"/></g></g></svg>
