<svg xmlns="http://www.w3.org/2000/svg" width="24" height="24"><path fill="none" d="M0 0h24v24H0z"/><g fill="none"><path d="M8.704 4h6.59a4.706 4.706 0 014.71 4.706v6.588A4.706 4.706 0 0115.294 20h-6.59a4.706 4.706 0 01-4.7-4.706V8.706A4.706 4.706 0 018.704 4z"/><path d="M8.706 5A3.71 3.71 0 005 8.706v6.588A3.71 3.71 0 008.706 19h6.588A3.71 3.71 0 0019 15.294V8.706A3.71 3.71 0 0015.294 5H8.706m0-1h6.588A4.706 4.706 0 0120 8.706v6.588A4.706 4.706 0 0115.294 20H8.706A4.706 4.706 0 014 15.294V8.706A4.706 4.706 0 018.706 4z" fill="#006ce0"/></g></svg>