<svg height="24" viewBox="0 0 24 24" width="24" xmlns="http://www.w3.org/2000/svg"><path d="m0 0h24v24h-24z" fill="none"/><g fill="#3fc84c" fill-opacity="0.56" transform="translate(4.404 4)"><path d="m10.88982296 15.5h-6.58823967c-2.31913018 0-4.20588016-1.88675022-4.20588016-4.20588017v-6.58823966c0-2.31913019 1.88674998-4.20588017 4.20588016-4.20588017h6.58823967c2.31912994 0 4.20588017 1.88674998 4.20588017 4.20588017v6.58823966c0 2.31912995-1.88675023 4.20588017-4.20588017 4.20588017z"/><path d="m4.30158329 1c-2.04343033 0-3.70588016 1.66244984-3.70588016 3.70588017v6.58823966c0 2.04343033 1.66244983 3.70588017 3.70588016 3.70588017h6.58823967c2.04343033 0 3.70588017-1.66244984 3.70588017-3.70588017v-6.58823966c0-2.04343033-1.66244984-3.70588017-3.70588017-3.70588017zm0-1h6.58823967c2.59899044 0 4.70588017 2.10690022 4.70588017 4.70588017v6.58823966c0 2.59899045-2.10688973 4.70588017-4.70588017 4.70588017h-6.58823967c-2.59897995 0-4.70588017-2.10688972-4.70588017-4.70588017v-6.58823966c0-2.59897995 2.10690022-4.70588017 4.70588017-4.70588017z" fill="#3fc84c"/></g></svg>
