<svg height="31" viewBox="0 0 31 31" width="31" xmlns="http://www.w3.org/2000/svg"><g fill="#fff" stroke="#fff" stroke-miterlimit="10" stroke-width="1.1"><circle cx="15.5" cy="15.5" r="14.95" stroke="none"/><circle cx="15.5" cy="15.5" fill="none" r="14.95"/></g><g fill="none" transform="translate(-689 -4062)"><path d="m0 0h31v31h-31z" transform="matrix(0 1 -1 0 720 4062)"/><g stroke="#ff9800" stroke-miterlimit="10"><g stroke-width="1.1"><circle cx="704.5" cy="4077.5" r="14.5" stroke="none"/><circle cx="704.5" cy="4077.5" fill="none" r="14.95"/></g><g><circle cx="704.5" cy="4077.5" r="13.5" stroke="none"/><circle cx="704.5" cy="4077.5" fill="none" r="13"/></g></g></g><g transform="translate(-334 -84)"><path d="m354.9 95h-10.8l5.4 3.8z" fill="#f06c00"/><path d="m349.5 100.2-6.5-4.5v7.2a.945.945 0 0 0 1 1h11a.945.945 0 0 0 1-1v-7.2z" fill="#f06c00"/><g fill="#ff9800"><path d="m354.9 95h-10.8l5.4 3.8z"/><path d="m349.5 100.2-6.5-4.5v7.2a.945.945 0 0 0 1 1h11a.945.945 0 0 0 1-1v-7.2z"/></g></g></svg>