<svg height="55.597" viewBox="0 0 69.82 55.597" width="69.82" xmlns="http://www.w3.org/2000/svg" xmlns:xlink="http://www.w3.org/1999/xlink"><filter id="a" filterUnits="userSpaceOnUse" height="20" width="18" x="25.5" y="19.5"><feOffset dy="2"/><feGaussianBlur result="b" stdDeviation="1.5"/><feFlood flood-opacity=".161"/><feComposite in2="b" operator="in"/><feComposite in="SourceGraphic"/></filter><path d="m5 0h59.82a5 5 0 0 1 5 5v45.6a5 5 0 0 1 -5 5h-59.82a5 5 0 0 1 -5-5v-45.6a5 5 0 0 1 5-5z" fill="#ff9800"/><g transform="translate(-670 -4167)"><g fill="#fff" stroke="#fff" stroke-miterlimit="10" stroke-width="1.1"><circle cx="704.5" cy="4194.5" r="15.5" stroke="none"/><circle cx="704.5" cy="4194.5" fill="none" r="14.95"/></g><g filter="url(#a)" transform="translate(670 4167)"><path d="m0 0h8v10h-8z" fill="none" stroke="#ff9800" stroke-miterlimit="10" transform="translate(30.5 22.5)"/></g><g fill="none"><path d="m702 4191.5h5" stroke="#ff9800" stroke-miterlimit="10"/><path d="m702 4193.5h5" stroke="#ff9800" stroke-miterlimit="10"/><path d="m702 4195.5h5" stroke="#ff9800" stroke-miterlimit="10"/><path d="m702 4197.5h5" stroke="#ff9800" stroke-miterlimit="10"/><path d="m0 0h31v31h-31z" transform="matrix(0 1 -1 0 720 4179)"/><g stroke="#ff9800" stroke-miterlimit="10" stroke-width="1.1"><circle cx="704.5" cy="4194.5" r="14.5" stroke="none"/><circle cx="704.5" cy="4194.5" fill="none" r="13.95"/></g><g stroke="#ff9800" stroke-miterlimit="10" stroke-width="1.1"><circle cx="704.5" cy="4194.5" r="12.5" stroke="none"/><circle cx="704.5" cy="4194.5" fill="none" r="11.95"/></g></g></g></svg>