<svg height="24" viewBox="0 0 24 24" width="24" xmlns="http://www.w3.org/2000/svg"><g fill="none"><path d="m0 0h24v24h-24z" transform="matrix(0 1 -1 0 24 0)"/><g stroke-miterlimit="10"><circle cx="12" cy="12" r="6.5" stroke="#54657d"/><circle cx="12" cy="12" r="8.5" stroke="#54657d"/><g transform="translate(-1627.97 -1446.97)"><path d="m1643.931 1457.266h-2.266v-2.266h-3.4v2.266h-2.265v3.4h2.266v2.266h3.4v-2.266h2.266z"/><path d="m1638.96594238 1455.69995117v1.56604004.69995117h-.69995117-1.56591797v1.99890137h1.56591797.69995117v.69995117 1.56591797h1.99902344v-1.56591797-.69995117h.69995117 1.56591797v-1.99890137h-1.56591797-.69995117v-.69995117-1.56604004zm-.69995117-.69995117h3.39892578v2.26599121h2.26586914v3.39880371h-2.26586914v2.26586914h-3.39892578v-2.26586914h-2.26586914v-3.39880371h2.26586914z" fill="#54657d"/></g></g></g></svg>