<svg height="32" viewBox="0 0 32 32" width="32" xmlns="http://www.w3.org/2000/svg"><g fill="none"><path d="m0 0h32v32h-32z"/><g transform="translate(7 7.001)"><path d="m9.5 0a9.5 9.5 0 1 1 -9.5 9.5 9.5 9.5 0 0 1 9.5-9.5z"/><path d="m9.50000095 1c-4.68692016 0-8.49999904 3.81313038-8.49999904 8.50010014 0 4.68697071 3.81307888 8.50010013 8.49999904 8.50010013 4.68692017 0 8.49999905-3.81312942 8.49999905-8.50010013 0-4.68696976-3.81307888-8.50010014-8.49999905-8.50010014m0-1c5.24669934 0 9.49999905 4.25333977 9.49999905 9.50010014 0 5.24676036-4.25329971 9.50010013-9.49999905 9.50010013-5.24670982 0-9.49999904-4.25333977-9.49999904-9.50010013 0-5.24676037 4.25328922-9.50010014 9.49999904-9.50010014z" fill="#ff9800"/></g><g transform="translate(9 9)"><path d="m7.5 0a7.5 7.5 0 1 1 -7.5 7.5 7.5 7.5 0 0 1 7.5-7.5z"/><path d="m7.5 1c-3.58411026 0-6.5 2.91588974-6.5 6.5s2.91588974 6.5 6.5 6.5 6.5-2.91588974 6.5-6.5-2.91588974-6.5-6.5-6.5m0-1c4.14213943 0 7.5 3.35785961 7.5 7.5 0 4.14213943-3.35786057 7.5-7.5 7.5-4.14214039 0-7.5-3.35786057-7.5-7.5 0-4.14214039 3.35785961-7.5 7.5-7.5z" fill="#ff9800"/></g></g></svg>