<svg height="55.597" viewBox="0 0 69.82 55.597" width="69.82" xmlns="http://www.w3.org/2000/svg"><g transform="translate(-933 -6766)"><path d="m5 0h59.82a5 5 0 0 1 5 5v45.6a5 5 0 0 1 -5 5h-59.82a5 5 0 0 1 -5-5v-45.6a5 5 0 0 1 5-5z" fill="#e9ebee" transform="translate(933 6766)"/><g fill="none"><g transform="translate(952.162 6784.243)"><path d="m-.162-.243h5v21h-5z"/><path d="m.83825684.75732422v19h3v-19zm-1-1h5v21h-5z" fill="#54657d"/></g><g stroke="#54657d"><path d="m956 6784h27v21h-27z" stroke="none"/><path d="m956.5 6784.5h26v20h-26z" fill="none"/></g></g></g></svg>