<svg height="24" viewBox="0 0 24 24" width="24" xmlns="http://www.w3.org/2000/svg"><g fill="none"><g stroke="#54657d" stroke-linecap="round" stroke-miterlimit="10" transform="translate(-108 -124)"><path d="m125.3 136.5h1.2a.945.945 0 0 1 1 1 .945.945 0 0 1 -1 1h-6.5"/><path d="m125.5 138.5a.945.945 0 0 1 1 1 .945.945 0 0 1 -1 1h-5.5"/><path d="m123.5 140.5a.945.945 0 0 1 1 1 .945.945 0 0 1 -1 1h-5"/><path d="m120.5 142.5h-4.6a3.372 3.372 0 0 1 -3.4-3.4v-2.7a4.671 4.671 0 0 1 2-3.2l4.4-2.8c1-.7 1.8.4 1 1.3l-1.6 1.8a.634.634 0 0 0 .5 1h6.8a.945.945 0 0 1 1 1 .945.945 0 0 1 -1 1h-5.6"/></g><path d="m0 0h24v24h-24z" transform="matrix(0 1 -1 0 24 0)"/></g></svg>