<svg height="55" viewBox="0 0 69 55" width="69" xmlns="http://www.w3.org/2000/svg"><g transform="translate(-581 -275)"><path d="m650 325a5.015 5.015 0 0 1 -5 5h-59a5.015 5.015 0 0 1 -5-5v-45a5.015 5.015 0 0 1 5-5h59a5.015 5.015 0 0 1 5 5z" fill="#b567ca"/><path d="m623.9 302.5h1.9a1.655 1.655 0 0 1 1.7 1.5 1.59 1.59 0 0 1 -1.7 1.5h-9.8" fill="none" stroke="#fff" stroke-linecap="round" stroke-miterlimit="10" stroke-width="1.1"/><path d="m623.9 305.5a1.561 1.561 0 0 1 1.6 1.5 1.561 1.561 0 0 1 -1.6 1.5h-7.9" fill="none" stroke="#fff" stroke-linecap="round" stroke-miterlimit="10" stroke-width="1.1"/><path d="m620.8 308.5a1.687 1.687 0 0 1 1.8 1.5v.1a1.687 1.687 0 0 1 -1.8 1.5h-8.8" fill="none" stroke="#fff" stroke-linecap="round" stroke-miterlimit="10" stroke-width="1.1"/><path d="m615.9 311.6h-6.8c-3.1 0-5.7-1.4-5.7-4.6v-4.6c0-2.1 1.7-3 3.4-4.3l6.4-4.7c1.7-1.1 3 .7 1.7 2.1l-2.8 3c-.5.6-.1 1 .8 1h11a1.5 1.5 0 0 1 1.6 1.5 1.5 1.5 0 0 1 -1.6 1.5h-7.9" fill="none" stroke="#fff" stroke-linecap="round" stroke-miterlimit="10" stroke-width="1.1"/></g><path d="m22 18h25v19h-25z" fill="none"/></svg>