<svg height="12" viewBox="0 0 12 12" width="12" xmlns="http://www.w3.org/2000/svg"><g fill="none"><g stroke-miterlimit="10" transform="translate(-28.5 -648.5)"><path d="m38.583 659.5h-9.166a.965.965 0 0 1 -.917-.917v-9.167a.965.965 0 0 1 .917-.917h9.167a.965.965 0 0 1 .917.917v9.167a.965.965 0 0 1 -.918.917z"/><path d="m38.5 658.50012207v-9h-9v9zm.08333969 1h-9.16666984c-.47142983 0-.91666985-.4453125-.91666985-.91674805v-9.16662597c0-.47143555.44524002-.91662598.91666985-.91662598h9.16666984c.47142029 0 .91666031.44519043.91666031.91662598v9.16662597c0 .47143555-.44524002.91674805-.91666031.91674805z" fill="#fff"/></g><path d="m0 0v6" stroke="#fff" stroke-linecap="round" transform="translate(5.5 2.5)"/><path d="m7 0h-6" stroke="#fff" stroke-linecap="round" transform="translate(1.5 5.5)"/><path d="m0 0h12v12h-12z"/></g></svg>