<svg height="55" viewBox="0 0 69 55" width="69" xmlns="http://www.w3.org/2000/svg"><g transform="translate(-581 -70)"><path d="m645 125h-59a5.015 5.015 0 0 1 -5-5v-45a5.015 5.015 0 0 1 5-5h59a5.015 5.015 0 0 1 5 5v45a4.951 4.951 0 0 1 -5 5z" fill="#f8b200"/><g fill="none" stroke="#fff" stroke-miterlimit="10"><path d="m624.5 105.5h-18a2.006 2.006 0 0 1 -2-2v-12a2.006 2.006 0 0 1 2-2h18a2.006 2.006 0 0 1 2 2v12a2.006 2.006 0 0 1 -2 2z" stroke-linecap="round"/><path d="m605 89.9 9.5 7.5a1.389 1.389 0 0 0 1.9 0l9.5-7.5" stroke-width="1.2"/></g></g></svg>