<svg height="55" viewBox="0 0 69 55" width="69" xmlns="http://www.w3.org/2000/svg"><path d="m645 534h-59a5.015 5.015 0 0 1 -5-5v-45a5.015 5.015 0 0 1 5-5h59a5.015 5.015 0 0 1 5 5v45a4.951 4.951 0 0 1 -5 5z" fill="#3fc84c" transform="translate(-581 -479)"/><g fill="none" stroke="#fff" stroke-miterlimit="10"><path d="m621.3 510.5h5.3v2.8a3.222 3.222 0 0 1 -3.2 3.2h-14.5a3.222 3.222 0 0 1 -3.2-3.2c0-3.2 2.6-7.1 3.9-11.1" stroke-width="1.3" transform="translate(-581 -479)"/><path d="m623.3 516.5a2.975 2.975 0 0 1 -2.9-3.2c0-3.2 6.1-10.1 6.1-14.7a3.1 3.1 0 1 0 -6.2 0 2.768 2.768 0 0 0 2.6 2.9h-14.3a2.979 2.979 0 0 1 -3.2-2.9 3.2 3.2 0 0 1 3.2-3.1h14.7" stroke-width="1.3" transform="translate(-581 -479)"/><path d="m31 26.5h7" stroke-linecap="round"/><path d="m30 29.5h4" stroke-linecap="round"/><path d="m35 29.5h2" stroke-linecap="round"/></g></svg>