<svg height="55" viewBox="0 0 69 55" width="69" xmlns="http://www.w3.org/2000/svg"><g transform="translate(-581 -139)"><path d="m645 194h-59a5.015 5.015 0 0 1 -5-5v-45a5.015 5.015 0 0 1 5-5h59a5.015 5.015 0 0 1 5 5v45a4.951 4.951 0 0 1 -5 5z" fill="#f79000"/><g fill="#fff"><path d="m615 165.9a1.079 1.079 0 0 0 1.1 0l9.5-7.8a1.268 1.268 0 0 0 -.6-.1h-19a1.268 1.268 0 0 0 -.6.1z"/><path d="m616.9 167a2.21 2.21 0 0 1 -2.8 0l-9.8-8a1.929 1.929 0 0 0 -.3 1v13a2.006 2.006 0 0 0 2 2h19a2.006 2.006 0 0 0 2-2v-13a1.689 1.689 0 0 0 -.3-1z"/></g></g></svg>