<svg height="24" viewBox="0 0 24 24" width="24" xmlns="http://www.w3.org/2000/svg"><g fill="none"><path d="m0 0h24v24h-24z"/><g stroke="#54657d" stroke-miterlimit="10"><path d="m117 190.8v-.3a1.538 1.538 0 0 1 1.5-1.5 1.613 1.613 0 0 1 .9.3" transform="translate(-108 -181)"/><circle cx="13.5" cy="14.5" r="1.5"/><g transform="translate(-108 -181)"><path d="m122.4 189.5h-.5a3.923 3.923 0 0 0 -.8-1.4l.6-1a.527.527 0 0 0 -.2-.7l-.9-.5a.527.527 0 0 0 -.7.2l-.6 1a3.25 3.25 0 0 0 -1.6 0l-.6-1a.574.574 0 0 0 -.7-.2l-.9.5a.574.574 0 0 0 -.2.7l.6 1a3.924 3.924 0 0 0 -.8 1.4h-1.1a.472.472 0 0 0 -.5.5v1a.472.472 0 0 0 .5.5h1.2a3.923 3.923 0 0 0 .8 1.4l-.3.5"/><path d="m126 194.5h-1.2a3.923 3.923 0 0 0 -.8-1.4l.6-1a.527.527 0 0 0 -.2-.7l-.9-.5a.527.527 0 0 0 -.7.2l-.6 1a3.25 3.25 0 0 0 -1.6 0l-.6-1a.574.574 0 0 0 -.7-.2l-.9.5a.574.574 0 0 0 -.2.7l.6 1a3.924 3.924 0 0 0 -.8 1.4h-1a.472.472 0 0 0 -.5.5v1a.472.472 0 0 0 .5.5h1.2a3.923 3.923 0 0 0 .8 1.4l-.6 1a.527.527 0 0 0 .2.7l.9.5a.527.527 0 0 0 .7-.2l.6-1a3.25 3.25 0 0 0 1.6 0l.6 1a.574.574 0 0 0 .7.2l.9-.5a.574.574 0 0 0 .2-.7l-.6-1a3.924 3.924 0 0 0 .8-1.4h1.2a.472.472 0 0 0 .5-.5v-1c-.2-.3-.4-.5-.7-.5z"/></g></g></g></svg>