<svg height="55" viewBox="0 0 69 55" width="69" xmlns="http://www.w3.org/2000/svg"><path d="m650 462a5.015 5.015 0 0 1 -5 5h-59a5.015 5.015 0 0 1 -5-5v-45a5.015 5.015 0 0 1 5-5h59a5.015 5.015 0 0 1 5 5z" fill="#3ebfa5" transform="translate(-581 -412)"/><g fill="none" stroke="#fff" stroke-miterlimit="10" stroke-width="1.2"><path d="m627.5 439.5h-1.2a6.392 6.392 0 0 0 -.8-1.9l.8-.8a.967.967 0 0 0 0-1.4l-.7-.7a.967.967 0 0 0 -1.4 0l-.8.8a6.39 6.39 0 0 0 -1.9-.8v-1.2a.945.945 0 0 0 -1-1h-1a.945.945 0 0 0 -1 1v1.2a6.392 6.392 0 0 0 -1.9.8l-.8-.8a.967.967 0 0 0 -1.4 0l-.7.7a.967.967 0 0 0 0 1.4l.8.8a6.391 6.391 0 0 0 -.8 1.9h-1.2a.945.945 0 0 0 -1 1v1a.945.945 0 0 0 1 1h1.2a6.392 6.392 0 0 0 .8 1.9l-.8.8a.967.967 0 0 0 0 1.4l.7.7a.967.967 0 0 0 1.4 0l.8-.8a6.39 6.39 0 0 0 1.9.8v1.2a.945.945 0 0 0 1 1h1a.945.945 0 0 0 1-1v-1.2a6.392 6.392 0 0 0 1.9-.8l.8.8a.967.967 0 0 0 1.4 0l.7-.7a.967.967 0 0 0 0-1.4l-.8-.8a6.391 6.391 0 0 0 .8-1.9h1.2a.945.945 0 0 0 1-1v-1a.945.945 0 0 0 -1-1z" transform="translate(-581 -412)"/><circle cx="39" cy="29" r="2.5"/><path d="m615.7 432.5a.967.967 0 0 0 0-1.4l-.7-.7a.967.967 0 0 0 -1.4 0l-.9.9a6.117 6.117 0 0 0 -1.2-.5v-1.2a.945.945 0 0 0 -1-1h-1a.945.945 0 0 0 -1 1v1.2a6.117 6.117 0 0 0 -1.2.5l-.9-.9a.967.967 0 0 0 -1.4 0l-.7.7a.967.967 0 0 0 0 1.4l.9.9a6.114 6.114 0 0 0 -.5 1.2h-1.2a.945.945 0 0 0 -1 1v1a.945.945 0 0 0 1 1h1.2a6.116 6.116 0 0 0 .5 1.2l-.9.9a.967.967 0 0 0 0 1.4l.7.7a.967.967 0 0 0 1.4 0l.9-.9a6.117 6.117 0 0 0 1.2.5v1.2a.945.945 0 0 0 1 1h1" transform="translate(-581 -412)"/><path d="m611.9 434.4a2.647 2.647 0 0 0 -1.9-.9 2.5 2.5 0 0 0 0 5h.3" transform="translate(-581 -412)"/></g></svg>