<svg height="32" viewBox="0 0 32 32" width="32" xmlns="http://www.w3.org/2000/svg"><g fill="none" transform="translate(8 7.5)"><path d="m5 1h7a5 5 0 0 1 5 5v7a5 5 0 0 1 -5 5h-7a5 5 0 0 1 -5-5v-7a5 5 0 0 1 5-5z"/><path d="m5 2c-2.20561028 0-4 1.79438972-4 4v7c0 2.20561028 1.79438972 4 4 4h7c2.20561028 0 4-1.79438972 4-4v-7c0-2.20561028-1.79438972-4-4-4zm0-1h7c2.76142025 0 5 2.23857975 5 5v7c0 2.76142025-2.23857975 5-5 5h-7c-2.76142025 0-5-2.23857975-5-5v-7c0-2.76142025 2.23857975-5 5-5z" fill="#3fc84c"/></g></svg>
