<svg height="31" viewBox="0 0 31 31" width="31" xmlns="http://www.w3.org/2000/svg"><g transform="translate(-338 -372)"><g fill="#fff" stroke="#fff" stroke-miterlimit="10" stroke-width="1.1"><circle cx="353.5" cy="387.5" r="15.5" stroke="none"/><circle cx="353.5" cy="387.5" fill="none" r="14.95"/></g><path d="m0 0h31v31h-31z" fill="none" transform="matrix(0 1 -1 0 369 372)"/><g stroke="#55c041" stroke-miterlimit="10"><g fill="#fff" stroke-dasharray="6 0" stroke-width="1.1"><circle cx="353.5" cy="387.5" r="14.5" stroke="none"/><circle cx="353.5" cy="387.5" fill="none" r="14.95"/></g><g fill="none" transform="translate(63 325)"><path d="m296.5 67.5h-12a.945.945 0 0 1 -1-1v-8a.945.945 0 0 1 1-1h12a.945.945 0 0 1 1 1v8a.945.945 0 0 1 -1 1z"/><path d="m284 58 6.5 4.5 6.5-4.5"/></g></g></g></svg>
