<svg xmlns="http://www.w3.org/2000/svg" xmlns:xlink="http://www.w3.org/1999/xlink" width="69.82" height="55.597" viewBox="0 0 69.82 55.597"><defs><style>.a,.f{fill:none;}.b{fill:#55c041;}.c{clip-path:url(#a);}.d,.e{fill:#fff;stroke-width:1.1px;}.d{stroke:#fff;}.d,.e,.f{stroke-miterlimit:10;}.e,.f{stroke:#55c041;}.e{stroke-dasharray:6 2;}.g{stroke:none;}</style><clipPath id="a"><rect class="a" width="31" height="31"/></clipPath></defs><g transform="translate(-188 -6441)"><path class="b" d="M5,0H64.82a5,5,0,0,1,5,5V50.6a5,5,0,0,1-5,5H5a5,5,0,0,1-5-5V5A5,5,0,0,1,5,0Z" transform="translate(188 6441)"/><g class="c" transform="translate(207 6453)"><g class="d"><circle class="g" cx="15.5" cy="15.5" r="15.5"/><circle class="a" cx="15.5" cy="15.5" r="14.95"/></g><rect class="a" width="31" height="31" transform="translate(31) rotate(90)"/><g class="e" transform="translate(1 1)"><circle class="g" cx="14.5" cy="14.5" r="14.5"/><circle class="a" cx="14.5" cy="14.5" r="13.95"/></g><path class="f" d="M296.5,67.5h-12a.945.945,0,0,1-1-1v-8a.945.945,0,0,1,1-1h12a.945.945,0,0,1,1,1v8A.945.945,0,0,1,296.5,67.5Z" transform="translate(-275 -47)"/><path class="f" d="M284,58l6.5,4.5L297,58" transform="translate(-275 -47)"/></g></g></svg>