<svg xmlns="http://www.w3.org/2000/svg" xmlns:xlink="http://www.w3.org/1999/xlink" width="24" height="24" viewBox="0 0 24 24"><defs><style>.a,.c,.d{fill:none;}.b{clip-path:url(#a);}.c{stroke:#54657d;stroke-dasharray:4 2;}.c,.d{stroke-miterlimit:10;}.e,.f{stroke:none;}.f{fill:#54657d;}</style><clipPath id="a"><rect class="a" width="24" height="24"/></clipPath></defs><g class="b"><rect class="a" width="24" height="24" transform="translate(24) rotate(90)"/><circle class="c" cx="7.5" cy="7.5" r="7.5" transform="translate(19.5 19.5) rotate(180)"/><g class="d" transform="translate(-1402 -1378)"><path class="e" d="M1418,1388h-2v-2h-4v2h-2v4h2v2h4v-2h2Z"/><path class="f" d="M 1413 1387 L 1413 1388 L 1413 1389 L 1412 1389 L 1411 1389 L 1411 1391 L 1412 1391 L 1413 1391 L 1413 1392 L 1413 1393 L 1415 1393 L 1415 1392 L 1415 1391 L 1416 1391 L 1417 1391 L 1417 1389 L 1416 1389 L 1415 1389 L 1415 1388 L 1415 1387 L 1413 1387 M 1412 1386 L 1416 1386 L 1416 1388 L 1418 1388 L 1418 1392 L 1416 1392 L 1416 1394 L 1412 1394 L 1412 1392 L 1410 1392 L 1410 1388 L 1412 1388 L 1412 1386 Z"/></g></g></svg>