<svg height="55.597" viewBox="0 0 69.82 55.597" width="69.82" xmlns="http://www.w3.org/2000/svg"><path d="m5 0h59.82a5 5 0 0 1 5 5v45.6a5 5 0 0 1 -5 5h-59.82a5 5 0 0 1 -5-5v-45.6a5 5 0 0 1 5-5z" fill="#55c041"/><circle cx="34.5" cy="27.5" fill="#fff" r="15.5"/><g fill="none" transform="translate(-611 -4051)"><path d="m0 0h31v31h-31z" transform="matrix(0 1 -1 0 661 4063)"/><g stroke="#55c041" stroke-miterlimit="10" stroke-width="1.1"><g><circle cx="645.5" cy="4078.5" r="14.5" stroke="none"/><circle cx="645.5" cy="4078.5" fill="none" r="13.95"/></g><g transform="translate(-.5 -.5)"><g><circle cx="646" cy="4079" r="8.5" stroke="none"/><circle cx="646" cy="4079" fill="none" r="7.95"/></g><path d="m290.147 95.942v6l3 2" transform="translate(355.853 3977.058)"/></g></g></g></svg>