<svg height="31" width="31" xmlns="http://www.w3.org/2000/svg"><g fill="#fff"><path d="M15.5 30.45a14.852 14.852 0 01-10.571-4.379C2.105 23.248.55 19.493.55 15.5S2.105 7.752 4.929 4.929C7.752 2.105 11.507.55 15.5.55s7.748 1.555 10.571 4.379c2.824 2.823 4.379 6.578 4.379 10.571s-1.555 7.748-4.379 10.571A14.852 14.852 0 0115.5 30.45z"/><path d="M15.5 1.1A14.306 14.306 0 005.318 5.318C2.598 8.038 1.1 11.654 1.1 15.5s1.498 7.463 4.218 10.182c2.72 2.72 6.336 4.218 10.182 4.218s7.463-1.498 10.182-4.218c2.72-2.72 4.218-6.336 4.218-10.182s-1.498-7.463-4.218-10.182A14.306 14.306 0 0015.5 1.1m0-1.1C24.06 0 31 6.94 31 15.5S24.06 31 15.5 31 0 24.06 0 15.5 6.94 0 15.5 0z"/></g><g fill="none"><path d="M31 0v31H0V0z"/><g stroke="#55c041" stroke-miterlimit="10" stroke-width="1.1" transform="translate(-630 -4141)"><circle cx="645.5" cy="4156.5" r="14.5" stroke="none"/><circle cx="645.5" cy="4156.5" r="14.95"/><path d="M639.5 4160.5l6-10 6 10z"/></g></g></svg>
