<svg xmlns="http://www.w3.org/2000/svg" xmlns:xlink="http://www.w3.org/1999/xlink" width="31" height="31" viewBox="0 0 31 31"><defs><style>.a,.e{fill:none;}.b{clip-path:url(#a);}.c,.d{fill:#fff;stroke-width:1.1px;}.c{stroke:#fff;}.c,.d,.e{stroke-miterlimit:10;}.d,.e{stroke:#55c041;}.d{stroke-dasharray:6 2;}.f{stroke:none;}</style><clipPath id="a"><rect class="a" width="31" height="31"/></clipPath></defs><g class="b"><g class="c"><circle class="f" cx="15.5" cy="15.5" r="15.5"/><circle class="a" cx="15.5" cy="15.5" r="14.95"/></g><rect class="a" width="31" height="31" transform="translate(31) rotate(90)"/><g class="d" transform="translate(1 1)"><circle class="f" cx="14.5" cy="14.5" r="14.5"/><circle class="a" cx="14.5" cy="14.5" r="14.95"/></g><path class="e" d="M296.5,67.5h-12a.945.945,0,0,1-1-1v-8a.945.945,0,0,1,1-1h12a.945.945,0,0,1,1,1v8A.945.945,0,0,1,296.5,67.5Z" transform="translate(-275 -47)"/><path class="e" d="M284,58l6.5,4.5L297,58" transform="translate(-275 -47)"/></g></svg>
