<svg xmlns="http://www.w3.org/2000/svg" xmlns:xlink="http://www.w3.org/1999/xlink" width="69.82" height="55.597" viewBox="0 0 69.82 55.597"><defs><style>.a,.f{fill:none;}.b{fill:#55c041;}.c{clip-path:url(#a);}.d,.e{fill:#fff;}.e,.f{stroke:#55c041;stroke-miterlimit:10;stroke-width:1.1px;}.e{stroke-dasharray:6 2;}.g{stroke:none;}</style><clipPath id="a"><rect class="a" width="31" height="31"/></clipPath></defs><g transform="translate(-280 -6512)"><path class="b" d="M5,0H64.82a5,5,0,0,1,5,5V50.6a5,5,0,0,1-5,5H5a5,5,0,0,1-5-5V5A5,5,0,0,1,5,0Z" transform="translate(280 6512)"/><g class="c" transform="translate(299 6524)"><circle class="d" cx="15.5" cy="15.5" r="15.5"/><g transform="translate(-630 -4063)"><rect class="a" width="31" height="31" transform="translate(661 4063) rotate(90)"/><g class="e" transform="translate(631 4064)"><circle class="g" cx="14.5" cy="14.5" r="14.5"/><circle class="a" cx="14.5" cy="14.5" r="13.95"/></g><g transform="translate(-0.5 -0.5)"><g class="f" transform="translate(637.5 4070.5)"><circle class="g" cx="8.5" cy="8.5" r="8.5"/><circle class="a" cx="8.5" cy="8.5" r="7.95"/></g><path class="f" d="M290.147,95.942v6l3,2" transform="translate(355.853 3977.058)"/></g></g></g></g></svg>