<svg height="55.597" viewBox="0 0 69.82 55.597" width="69.82" xmlns="http://www.w3.org/2000/svg"><path d="m5 0h59.82a5 5 0 0 1 5 5v45.6a5 5 0 0 1 -5 5h-59.82a5 5 0 0 1 -5-5v-45.6a5 5 0 0 1 5-5z" fill="#55c041"/><g transform="translate(-319 -360)"><g fill="#fff" stroke="#fff" stroke-miterlimit="10" stroke-width="1.1"><circle cx="353.5" cy="387.5" r="15.5" stroke="none"/><circle cx="353.5" cy="387.5" fill="none" r="14.95"/></g><path d="m0 0h31v31h-31z" fill="none" transform="matrix(0 1 -1 0 369 372)"/><g stroke="#55c041" stroke-miterlimit="10"><g fill="#fff" stroke-dasharray="6 0" stroke-width="1.1"><circle cx="353.5" cy="387.5" r="14.5" stroke="none"/><circle cx="353.5" cy="387.5" fill="none" r="13.95"/></g><path d="m296.5 67.5h-12a.945.945 0 0 1 -1-1v-8a.945.945 0 0 1 1-1h12a.945.945 0 0 1 1 1v8a.945.945 0 0 1 -1 1z" fill="none" transform="translate(63 325)"/><path d="m284 58 6.5 4.5 6.5-4.5" fill="none" transform="translate(63 325)"/></g></g></svg>