<svg xmlns="http://www.w3.org/2000/svg" xmlns:xlink="http://www.w3.org/1999/xlink" width="31" height="31" viewBox="0 0 31 31"><defs><style>.a,.d,.e{fill:none;}.b{clip-path:url(#a);}.c{fill:#fff;stroke:#fff;}.c,.d{stroke-miterlimit:10;stroke-width:1.1px;}.d{stroke:#58c044;}.f,.g{stroke:none;}.g{fill:#58c044;}</style><clipPath id="a"><rect class="a" width="31" height="31"/></clipPath></defs><g class="b"><g class="c"><circle class="f" cx="15.5" cy="15.5" r="15.5"/><circle class="a" cx="15.5" cy="15.5" r="14.95"/></g><g class="d" transform="translate(1 1)"><circle class="f" cx="14.5" cy="14.5" r="14.5"/><circle class="a" cx="14.5" cy="14.5" r="14.95"/></g><g class="e" transform="translate(-334 -320)"><path class="f" d="M349,339.5l-6-4,6-4Z"/><path class="g" d="M 348 337.6314697265625 L 348 333.3685302734375 L 344.8027648925781 335.5 L 348 337.6314697265625 M 349 339.5 L 343 335.5 L 349 331.5 L 349 339.5 Z"/></g><g class="e" transform="translate(-334 -320)"><path class="f" d="M355,339.5l-6-4,6-4Z"/><path class="g" d="M 354 337.6314697265625 L 354 333.3685302734375 L 350.8027648925781 335.5 L 354 337.6314697265625 M 355 339.5 L 349 335.5 L 355 331.5 L 355 339.5 Z"/></g></g></svg>
