<svg height="31" viewBox="0 0 31 31" width="31" xmlns="http://www.w3.org/2000/svg"><g fill="#fff"><path d="m15.5 30.45000076c-3.99328995 0-7.74756002-1.55507087-10.57124996-4.37874984-2.82367993-2.82369042-4.37875003-6.57796097-4.37875003-10.57125092s1.5550701-7.74756002 4.37875003-10.57124996c2.82368994-2.82367993 6.57796001-4.37875003 10.57124996-4.37875003s7.7475605 1.5550701 10.57125092 4.37875003c2.82367897 2.82368994 4.37874984 6.57796001 4.37874984 10.57124996s-1.55507087 7.7475605-4.37874984 10.57125092c-2.82369042 2.82367897-6.57796097 4.37874984-10.57125092 4.37874984z"/><path d="m15.5 1.10000038c-3.84638023 0-7.46253014 1.49785996-10.18234062 4.217659-2.71979904 2.71981048-4.217659 6.33596039-4.217659 10.18234062s1.49785996 7.46253014 4.217659 10.18234062c2.71981048 2.71979904 6.33596039 4.217659 10.18234062 4.217659s7.46253014-1.49785996 10.18234062-4.217659c2.71979904-2.71981048 4.217659-6.33596039 4.217659-10.18234062s-1.49785996-7.46253014-4.217659-10.18234062c-2.71981048-2.71979904-6.33596039-4.217659-10.18234062-4.217659m0-1.10000038c8.56040955 0 15.5 6.93959045 15.5 15.5s-6.93959045 15.5-15.5 15.5-15.5-6.93959045-15.5-15.5 6.93959045-15.5 15.5-15.5z" fill="#fff"/></g><g fill="none" transform="translate(-630 -4697)"><path d="m0 0h31v31h-31z" transform="matrix(0 1 -1 0 661 4697)"/><g stroke-miterlimit="10"><g stroke="#55c041" stroke-width="1.1"><circle cx="645.5" cy="4712.5" r="14.5" stroke="none"/><circle cx="645.5" cy="4712.5" fill="none" r="14.95"/></g><g transform="translate(-998 3250)"><path d="m1651 1460h-5v-5h-5v5h-5v5h5v5h5v-5h5z"/><path d="m1642 1456v4 1h-1-4v3h4 1v1 4h3v-4-1h1 4v-3h-4-1v-1-4zm-1-1h5v5h5v5h-5v5h-5v-5h-5v-5h5z" fill="#55c041"/></g></g></g></svg>
