<svg height="56.227" viewBox="0 0 69.82 56.227" width="69.82" xmlns="http://www.w3.org/2000/svg"><path d="m5 0h59.82a5 5 0 0 1 5 5v45.6a5 5 0 0 1 -5 5h-59.82a5 5 0 0 1 -5-5v-45.6a5 5 0 0 1 5-5z" fill="#55c041" transform="translate(0 .227)"/><path d="m0 0h69.82v56.227h-69.82z" fill="none"/><g transform="translate(-335 -282.773)"><g fill="#fff" stroke="#fff" stroke-miterlimit="10" stroke-width="1.1"><circle cx="369.5" cy="310.5" r="15.5" stroke="none"/><circle cx="369.5" cy="310.5" fill="none" r="14.95"/></g><g fill="none"><path d="m0 0h31v31h-31z" transform="matrix(0 1 -1 0 385 295)"/><g stroke="#55c041" stroke-miterlimit="10" stroke-width="1.1"><circle cx="369.5" cy="310.5" r="14.5" stroke="none"/><circle cx="369.5" cy="310.5" fill="none" r="13.95"/></g></g></g></svg>
