<svg xmlns="http://www.w3.org/2000/svg" xmlns:xlink="http://www.w3.org/1999/xlink" width="69.82" height="55.597" viewBox="0 0 69.82 55.597"><defs><style>.a,.e,.f{fill:none;}.b{fill:#55c041;}.c{clip-path:url(#a);}.d,.h{fill:#fff;}.e,.f{stroke:#55c041;stroke-miterlimit:10;stroke-width:1.1px;}.e{stroke-dasharray:6 2;}.g,.h{stroke:none;}</style><clipPath id="a"><rect class="a" width="31" height="31"/></clipPath></defs><g transform="translate(-280 -7116)"><path class="b" d="M5,0H64.82a5,5,0,0,1,5,5V50.6a5,5,0,0,1-5,5H5a5,5,0,0,1-5-5V5A5,5,0,0,1,5,0Z" transform="translate(280 7116)"/><g class="c" transform="translate(299 7128)"><g class="d"><path class="g" d="M 15.5 30.45000076293945 C 11.50671005249023 30.45000076293945 7.752439975738525 28.89492988586426 4.928750038146973 26.07125091552734 C 2.105070114135742 23.24756050109863 0.550000011920929 19.49328994750977 0.550000011920929 15.5 C 0.550000011920929 11.50671005249023 2.105070114135742 7.752439975738525 4.928750038146973 4.928750038146973 C 7.752439975738525 2.105070114135742 11.50671005249023 0.550000011920929 15.5 0.550000011920929 C 19.49328994750977 0.550000011920929 23.24756050109863 2.105070114135742 26.07125091552734 4.928750038146973 C 28.89492988586426 7.752439975738525 30.45000076293945 11.50671005249023 30.45000076293945 15.5 C 30.45000076293945 19.49328994750977 28.89492988586426 23.24756050109863 26.07125091552734 26.07125091552734 C 23.24756050109863 28.89492988586426 19.49328994750977 30.45000076293945 15.5 30.45000076293945 Z"/><path class="h" d="M 15.5 1.100000381469727 C 11.65361976623535 1.100000381469727 8.037469863891602 2.597860336303711 5.317659378051758 5.317659378051758 C 2.597860336303711 8.037469863891602 1.100000381469727 11.65361976623535 1.100000381469727 15.5 C 1.100000381469727 19.34638023376465 2.597860336303711 22.9625301361084 5.317659378051758 25.68234062194824 C 8.037469863891602 28.40213966369629 11.65361976623535 29.89999961853027 15.5 29.89999961853027 C 19.34638023376465 29.89999961853027 22.9625301361084 28.40213966369629 25.68234062194824 25.68234062194824 C 28.40213966369629 22.9625301361084 29.89999961853027 19.34638023376465 29.89999961853027 15.5 C 29.89999961853027 11.65361976623535 28.40213966369629 8.037469863891602 25.68234062194824 5.317659378051758 C 22.9625301361084 2.597860336303711 19.34638023376465 1.100000381469727 15.5 1.100000381469727 M 15.5 0 C 24.06040954589844 0 31 6.939590454101563 31 15.5 C 31 24.06040954589844 24.06040954589844 31 15.5 31 C 6.939590454101563 31 0 24.06040954589844 0 15.5 C 0 6.939590454101563 6.939590454101563 0 15.5 0 Z"/></g><g transform="translate(-630 -4141)"><rect class="a" width="31" height="31" transform="translate(661 4141) rotate(90)"/><g class="e" transform="translate(631 4142)"><circle class="g" cx="14.5" cy="14.5" r="14.5"/><circle class="a" cx="14.5" cy="14.5" r="13.95"/></g><path class="f" d="M284.5,182.5l6-10,6,10Z" transform="translate(355 3978)"/></g></g></g></svg>