<svg xmlns="http://www.w3.org/2000/svg" width="31" height="31"><defs><clipPath id="a"><path class="a" d="M0 0h31v31H0z"/></clipPath><style>.a,.e{fill:none}.e{stroke:#55c041;stroke-miterlimit:10}.f{stroke:none}</style></defs><g clip-path="url(#a)"><g fill="#fff"><path class="f" d="M15.5 30.45a14.852 14.852 0 01-10.571-4.379A14.852 14.852 0 01.55 15.5c0-3.993 1.555-7.748 4.379-10.571A14.852 14.852 0 0115.5.55c3.993 0 7.748 1.555 10.571 4.379A14.852 14.852 0 0130.45 15.5c0 3.993-1.555 7.748-4.379 10.571A14.852 14.852 0 0115.5 30.45z"/><path d="M15.5 1.1A14.306 14.306 0 005.318 5.318 14.306 14.306 0 001.1 15.5c0 3.846 1.498 7.463 4.218 10.182A14.306 14.306 0 0015.5 29.9c3.846 0 7.463-1.498 10.182-4.218A14.306 14.306 0 0029.9 15.5c0-3.846-1.498-7.463-4.218-10.182A14.306 14.306 0 0015.5 1.1m0-1.1C24.06 0 31 6.94 31 15.5 31 24.06 24.06 31 15.5 31 6.94 31 0 24.06 0 15.5 0 6.94 6.94 0 15.5 0z"/></g><path class="a" d="M31 0v31H0V0z"/><g transform="translate(1 1)" stroke-width="1.1" stroke-dasharray="6 2" stroke="#55c041" stroke-miterlimit="10" fill="none"><circle class="f" cx="14.5" cy="14.5" r="14.5"/><circle class="a" cx="14.5" cy="14.5" r="14.95"/></g><path class="e" d="M10.5 9.5h10v12h-10zM12 12.5h7M12 14.5h7M12 16.5h7M12 18.5h7"/></g></svg>
