<svg xmlns="http://www.w3.org/2000/svg" xmlns:xlink="http://www.w3.org/1999/xlink" width="69.82" height="55.597" viewBox="0 0 69.82 55.597"><defs><style>.a,.e,.f{fill:none;}.b{fill:#55c041;}.c{clip-path:url(#a);}.d{fill:#fff;stroke:#fff;}.d,.e{stroke-miterlimit:10;stroke-width:1.1px;}.e{stroke:#58c044;}.g,.h{stroke:none;}.h{fill:#58c044;}</style><clipPath id="a"><rect class="a" width="31" height="31"/></clipPath></defs><g transform="translate(-188 -7031)"><path class="b" d="M5,0H64.82a5,5,0,0,1,5,5V50.6a5,5,0,0,1-5,5H5a5,5,0,0,1-5-5V5A5,5,0,0,1,5,0Z" transform="translate(188 7031)"/><g class="c" transform="translate(207 7043)"><g class="d"><circle class="g" cx="15.5" cy="15.5" r="15.5"/><circle class="a" cx="15.5" cy="15.5" r="14.95"/></g><g class="e" transform="translate(1 1)"><circle class="g" cx="14.5" cy="14.5" r="14.5"/><circle class="a" cx="14.5" cy="14.5" r="13.95"/></g><g class="f" transform="translate(-334 -320)"><path class="g" d="M349,339.5l-6-4,6-4Z"/><path class="h" d="M 348 337.6314697265625 L 348 333.3685302734375 L 344.8027648925781 335.5 L 348 337.6314697265625 M 349 339.5 L 343 335.5 L 349 331.5 L 349 339.5 Z"/></g><g class="f" transform="translate(-334 -320)"><path class="g" d="M355,339.5l-6-4,6-4Z"/><path class="h" d="M 354 337.6314697265625 L 354 333.3685302734375 L 350.8027648925781 335.5 L 354 337.6314697265625 M 355 339.5 L 349 335.5 L 355 331.5 L 355 339.5 Z"/></g></g></g></svg>