<svg height="24" viewBox="0 0 24 24" width="24" xmlns="http://www.w3.org/2000/svg"><g fill="none"><path d="m126.5 283.5h-12a.945.945 0 0 1 -1-1v-9a.945.945 0 0 1 1-1h12a.945.945 0 0 1 1 1v9a.945.945 0 0 1 -1 1z" stroke="#54657d" stroke-miterlimit="10" transform="translate(-108 -266)"/><path d="m0 0h24v24h-24z"/><path d="m122.5 283.5h-4a.945.945 0 0 1 -1-1v-4a.945.945 0 0 1 1-1h4a.945.945 0 0 1 1 1v4a.945.945 0 0 1 -1 1z" stroke="#54657d" stroke-miterlimit="10" transform="translate(-108 -266)"/></g><g fill="#54657d"><path d="m11 14h3v1h-3z"/></g></svg>