<svg height="55" viewBox="0 0 69 55" width="69" xmlns="http://www.w3.org/2000/svg"><g transform="translate(-581 -207)"><path d="m650 257a5.015 5.015 0 0 1 -5 5h-59a5.015 5.015 0 0 1 -5-5v-45a5.015 5.015 0 0 1 5-5h59a5.015 5.015 0 0 1 5 5z" fill="#3f97f6"/><g fill="none"><g stroke="#fff" stroke-miterlimit="10"><path d="m618.9 235.4a6.28 6.28 0 0 1 -6.8 0 6.478 6.478 0 0 0 -4.036 1.554 10.726 10.726 0 0 0 -3.564 6.346 1.817 1.817 0 0 0 1.8 2.1h18.4a1.817 1.817 0 0 0 1.8-2.1c-.7-3.9-3.7-7.9-7.6-7.9z" stroke-width="1.2"/><path d="m620.1 227.6c0 3.1-2 5.7-4.6 5.7s-4.6-2.5-4.6-5.7" stroke-width="1.2"/><path d="m610.3 241a7.84 7.84 0 0 0 -1.1 4.1" stroke-linecap="round" stroke-width="1.2"/><path d="m620.6 241a7.84 7.84 0 0 1 1.1 4.1" stroke-linecap="round" stroke-width="1.2"/><path d="m611.2 228.3c-2.3-5.3 2.4-9.8 6.6-7.5 2.1-.2 3.7 3.8 2.1 7.3a16.4 16.4 0 0 0 -2.3-4.6c-1.1.7-5.9.6-6.4 4.8z" stroke-linecap="round" stroke-width="1.2"/><path d="m615.5 235.9v9.2" stroke-width="1.3"/></g><path d="m604 219h23v27h-23z"/></g></g></svg>