<svg height="24" viewBox="0 0 24 24" width="24" xmlns="http://www.w3.org/2000/svg"><path d="m0 0h24v24h-24z" fill="none"/><g stroke="#54657d" stroke-miterlimit="10"><g fill="none" transform="translate(-108 -94)"><path d="m122.5 102.5a2.542 2.542 0 1 1 -5 0"/><path d="m117.3 103.2c-1.2-1.9.2-5.4 3.4-4.6 2.1-.1 2.6 2.2 1.8 4.3-.2-1.5-1.5-1.9-1.9-2.4-.7.4-2.6-.1-3.3 2.7z"/><path d="m126.5 112c-.5-2.4-1.4-5.2-4.2-5.2a3.891 3.891 0 0 1 -2.3.7 4.756 4.756 0 0 1 -2.3-.7c-2.8 0-3.7 2.8-4.2 5.2-.1.7.3 1.5 1 1.5h11a1.238 1.238 0 0 0 1-1.5z"/></g><g fill="#fff" stroke-linecap="round"><path d="m8.5 19v-2"/><path d="m15.5 19v-2"/></g></g></svg>