<svg xmlns="http://www.w3.org/2000/svg" viewBox="0 0 16.01 16.01">
	<path fill="none" d="M0 0h16v16H0z"/>
	<g fill="#8095b3">
		<path d="M7.94 14.9h-.3a.42.42 0 0 1-.36-.17.56.56 0 0 1-.13-.34v-1.6l-.4-.09-.6-.16a2.04 2.04 0 0 1-.5-.23l-.4-.21-1.33 1.19a.26.26 0 0 1-.26.16.5.5 0 0 1-.35-.16l-.69-.68a.33.33 0 0 1-.1-.16.83.83 0 0 1-.01-.15.96.96 0 0 1 0-.15.25.25 0 0 1 .11-.15l1.2-1.1-.2-.4a2.22 2.22 0 0 0-.2-.55 2.3 2.3 0 0 1-.2-.55l-.1-.4h-1.6a.51.51 0 0 1-.35-.18.48.48 0 0 1-.18-.32v-1a.48.48 0 0 1 .18-.32.5.5 0 0 1 .34-.18h1.6l.2-.3.17-.58a1.7 1.7 0 0 1 .25-.52l.19-.5L2.72 4a.3.3 0 0 1-.17-.27.42.42 0 0 1 .16-.33l.8-.7a.27.27 0 0 1 .26-.15.53.53 0 0 1 .35.14l1.11 1.2.29-.28a4.21 4.21 0 0 0 .55-.21 2.65 2.65 0 0 1 .56-.2l.4-.1V1.5a.49.49 0 0 1 .17-.32.5.5 0 0 1 .34-.17h1a.5.5 0 0 1 .34.17.47.47 0 0 1 .17.32v1.6l.5.11.6.16a1.75 1.75 0 0 1 .51.24l.4.19 1.12-1.2a.26.26 0 0 1 .25-.14.54.54 0 0 1 .36.14l.68.7a.26.26 0 0 1 .17.26.42.42 0 0 1-.17.33l-1.2 1.21.2.4a2.8 2.8 0 0 0 .2.54 2.5 2.5 0 0 1 .2.57l.1.4h1.6a.45.45 0 0 1 .38.17.52.52 0 0 1 .14.32v.42h.92V7.5a1.49 1.49 0 0 0-.4-1.06A1.43 1.43 0 0 0 14.5 6h-.8a.51.51 0 0 0-.06-.25 3.98 3.98 0 0 0-.15-.24l.6-.61a1.5 1.5 0 0 0 .44-1.1 1.5 1.5 0 0 0-.44-1.1l-.71-.7a1.5 1.5 0 0 0-1.1-.45 1.51 1.51 0 0 0-1.11.45l-.6.51a.4.4 0 0 0-.22-.11 1.5 1.5 0 0 1-.3-.1v-.8A1.46 1.46 0 0 0 9.65.41a1.48 1.48 0 0 0-1.1-.4h-1a1.48 1.48 0 0 0-1.1.4 1.47 1.47 0 0 0-.4 1.1v.8l-.3.11a.45.45 0 0 0-.22.19L4.93 2a1.5 1.5 0 0 0-1.1-.45 1.5 1.5 0 0 0-1.1.45l-.7.7a1.72 1.72 0 0 0-.37.51 1.38 1.38 0 0 0-.14.59 1.39 1.39 0 0 0 .14.58 1.76 1.76 0 0 0 .36.52l.5.6a.37.37 0 0 0-.1.22 1.03 1.03 0 0 1-.1.28h-.8a1.48 1.48 0 0 0-1.1.4 1.46 1.46 0 0 0-.4 1.1v1a1.46 1.46 0 0 0 .4 1.08 1.47 1.47 0 0 0 1.1.43h.9a.47.47 0 0 0 .06.24l.16.25-.62.6a1.5 1.5 0 0 0-.36.52 1.47 1.47 0 0 0-.13.6 1.42 1.42 0 0 0 .13.57 1.5 1.5 0 0 0 .37.5l.7.7a1.48 1.48 0 0 0 1.1.47 1.48 1.48 0 0 0 1.12-.47l.59-.5a.54.54 0 0 0 .22.1.97.97 0 0 1 .3.12v.8a1.51 1.51 0 0 0 .41 1.04 1.41 1.41 0 0 0 1.1.46h.39Z"/>
		<path d="M8 5a2.88 2.88 0 0 0-2.1.9A2.89 2.89 0 0 0 5 8a2.93 2.93 0 0 0 .87 2.11 2.86 2.86 0 0 0 2.07.89V10a1.91 1.91 0 0 1-1.34-.58A1.96 1.96 0 0 1 6 8.01 1.92 1.92 0 0 1 6.6 6.6 1.92 1.92 0 0 1 8 6.01a1.92 1.92 0 0 1 1.4.58 1.92 1.92 0 0 1 .58 1.32H11a2.87 2.87 0 0 0-.89-2A2.88 2.88 0 0 0 8 5Z"/>
	</g>
	<g stroke="#8095b3">
		<path fill="none" d="M10 10.5h6"/>
		<path fill="none" d="M10 12.5h6"/>
		<path fill="none" d="M10 14.5h4"/>
	</g>
</svg>
