<svg width="16" height="16" viewBox="0 0 16 16" fill="none" xmlns="http://www.w3.org/2000/svg">
<path d="M12 4V6.112H11.732C11.7075 5.83541 11.6365 5.56494 11.522 5.312C11.3902 5.0689 11.188 4.87127 10.942 4.745C10.643 4.61142 10.3172 4.54879 9.98999 4.562H8.64697V11.438C8.60319 11.7946 8.66949 12.1561 8.83698 12.474C8.94798 12.5737 9.07811 12.6497 9.21942 12.6975C9.36073 12.7453 9.51029 12.7638 9.659 12.752H9.98999V12.997H5.94897V12.752H6.28699C6.44717 12.7684 6.60896 12.7457 6.75842 12.6858C6.90788 12.6259 7.0405 12.5305 7.14496 12.408C7.27744 12.1029 7.3298 11.769 7.297 11.438V4.562H6.151C5.83219 4.54791 5.513 4.57923 5.203 4.655C4.94879 4.74677 4.72978 4.91606 4.57697 5.13899C4.3865 5.42772 4.27925 5.76333 4.26697 6.10899H4V4H12Z" fill="#8095B3"/>
<rect x="0.5" y="0.5" width="15" height="15" rx="1.5" stroke="#8095B3"/>
</svg>
