<svg xmlns="http://www.w3.org/2000/svg" width="16" height="16" viewBox="0 0 16 16"><defs><style>.a{fill:#8095b3;}.b,.c{fill:none;}.c{stroke:#8095b3;stroke-linecap:square;stroke-miterlimit:10;}</style></defs><g transform="translate(-588.211 199.425)"><path class="a" d="M597.676-197.9v2.112h-.268a2.466,2.466,0,0,0-.21-.8,1.373,1.373,0,0,0-.58-.567,2.124,2.124,0,0,0-.952-.183h-1.343v6.876a1.762,1.762,0,0,0,.19,1.036,1.1,1.1,0,0,0,.822.278h.331v.245h-4.041v-.245h.338a.994.994,0,0,0,.858-.344,1.952,1.952,0,0,0,.152-.97v-6.876h-1.146a3.367,3.367,0,0,0-.948.093,1.29,1.29,0,0,0-.626.484,1.883,1.883,0,0,0-.31.97h-.267V-197.9Z" transform="translate(-0.465 -0.522)"/></g><rect class="b" width="16" height="16"/><path class="c" d="M601.422-187.808a1.75,1.75,0,0,1,1.75,1.749,1.749,1.749,0,0,1-1.75,1.751,1.75,1.75,0,0,1-1.75-1.751,1.75,1.75,0,0,0-1.75-1.749,1.751,1.751,0,0,0-1.75,1.749,1.75,1.75,0,0,0,1.75,1.751" transform="translate(-588.671 198.308)"/></svg>