<svg xmlns="http://www.w3.org/2000/svg" width="16" height="16" viewBox="0 0 16 16"><defs><style>.a{fill:#8095b3;}.b{fill:none;}</style></defs><g transform="translate(2212.813 -42.785)"><path class="a" d="M-2210.728,47.87h-.024l-1.355.732-.2-.8,1.7-.911h.9v7.795h-1.019Z" transform="translate(1)"/><path class="a" d="M-2207.943,54.682v-.647l.828-.8c1.99-1.9,2.891-2.9,2.9-4.077a1.391,1.391,0,0,0-1.547-1.524,2.659,2.659,0,0,0-1.656.66l-.336-.744a3.431,3.431,0,0,1,2.207-.791,2.193,2.193,0,0,1,2.387,2.266c0,1.44-1.043,2.6-2.686,4.186l-.624.576v.024h3.5v.875Z" transform="translate(4 0.03)"/><rect class="a" width="1" height="1" transform="translate(-2206.813 53.785)"/></g><rect class="b" width="16" height="16"/></svg>