<svg xmlns="http://www.w3.org/2000/svg" width="16" height="16.024" viewBox="0 0 16 16.024"><defs><style>.a{fill:none;}.b{fill:#8095b3;}</style></defs><rect class="a" width="16" height="16" transform="translate(0 0)"/><path class="b" d="M881.587-85.337c0,2.3-.838,3.573-2.306,3.573-1.3,0-2.173-1.24-2.194-3.479,0-2.272.959-3.521,2.307-3.521C880.791-88.764,881.587-87.493,881.587-85.337Zm-3.6.1c0,1.761.531,2.761,1.347,2.761.918,0,1.357-1.093,1.357-2.822,0-1.667-.419-2.761-1.347-2.761C878.557-88.055,877.985-87.077,877.985-85.233Z" transform="translate(-871.087 88.764)"/><path class="b" d="M881.587-85.337c0,2.3-.838,3.573-2.306,3.573-1.3,0-2.173-1.24-2.194-3.479,0-2.272.959-3.521,2.307-3.521C880.791-88.764,881.587-87.493,881.587-85.337Zm-3.6.1c0,1.761.531,2.761,1.347,2.761.918,0,1.357-1.093,1.357-2.822,0-1.667-.419-2.761-1.347-2.761C878.557-88.055,877.985-87.077,877.985-85.233Z" transform="translate(-876.087 97.764)"/><path class="b" d="M874.186-87.884h-.023l-1.355.657-.2-.718,1.7-.819h.9v7h-1.019Z" transform="translate(-871.607 88.764)"/><path class="b" d="M884.332-87.884h-.024l-1.355.657-.2-.718,1.7-.819h.9v7h-1.019Z" transform="translate(-870.753 88.764)"/><path class="b" d="M884.332-87.884h-.024l-1.355.657-.2-.718,1.7-.819h.9v7h-1.019Z" transform="translate(-875.753 97.764)"/><path class="b" d="M884.332-79.907h-.024l-1.355.657-.2-.718,1.7-.819h.9v7h-1.019Z" transform="translate(-870.753 89.811)"/></svg>