<svg xmlns="http://www.w3.org/2000/svg" width="16" height="16" viewBox="0 0 16 16"><defs><style>.a{fill:#8095b3;}.b{fill:none;}</style></defs><g transform="translate(2212.813 -5.3)"><path class="a" d="M-2199.672,7.3l.139,2.951h-.354a3.592,3.592,0,0,0-.277-1.114,1.871,1.871,0,0,0-.766-.793,2.672,2.672,0,0,0-1.258-.255h-1.771V17.7a2.586,2.586,0,0,0,.25,1.448,1.4,1.4,0,0,0,1.086.389h.435v.343h-5.334v-.343h.446a1.277,1.277,0,0,0,1.132-.482,2.832,2.832,0,0,0,.2-1.355V8.089h-1.512a4.188,4.188,0,0,0-1.252.13,1.717,1.717,0,0,0-.826.677,2.739,2.739,0,0,0-.409,1.355h-.353l.148-2.951Z"/></g><rect class="b" width="16" height="16"/></svg>