<svg xmlns="http://www.w3.org/2000/svg" width="16" height="16" viewBox="0 0 16 16"><defs><style>.a,.b,.c{fill:none;}.b{stroke:#8095b3;}.b,.c{stroke-miterlimit:10;}.d,.e{stroke:none;}.e{fill:#8095b3;}</style></defs><rect class="a" width="16" height="16"/><path class="b" d="M1894.668,259h-3.284v-8h10v1.834" transform="translate(-1888.884 -247.5)"/><line class="b" x2="4" transform="translate(2.5 6.5)"/><g transform="translate(-1888.884 -248)"><line class="b" y2="3" transform="translate(1894.384 249.5)"/><line class="b" y2="3" transform="translate(1898.384 249.5)"/></g><g class="c" transform="translate(-1888.764 -247.583)"><path class="d" d="M1904.764,258.084a4.5,4.5,0,1,1-4.5-4.5A4.5,4.5,0,0,1,1904.764,258.084Z"/><path class="e" d="M 1900.262817382813 261.5840148925781 C 1902.193359375 261.5840148925781 1903.764038085938 260.013916015625 1903.764038085938 258.0840148925781 C 1903.764038085938 256.1535339355469 1902.193359375 254.5829772949219 1900.262817382813 254.5829772949219 C 1898.333618164063 254.5829772949219 1896.764038085938 256.1535339355469 1896.764038085938 258.0840148925781 C 1896.764038085938 260.013916015625 1898.333618164063 261.5840148925781 1900.262817382813 261.5840148925781 M 1900.262817382813 262.5840148925781 C 1897.776733398438 262.5840148925781 1895.764038085938 260.5692443847656 1895.764038085938 258.0840148925781 C 1895.764038085938 255.5977478027344 1897.776733398438 253.5829772949219 1900.262817382813 253.5829772949219 C 1902.748168945313 253.5829772949219 1904.764038085938 255.5977478027344 1904.764038085938 258.0840148925781 C 1904.764038085938 260.5692443847656 1902.748168945313 262.5840148925781 1900.262817382813 262.5840148925781 Z"/></g><path class="b" d="M1900.1,254.25v4h2" transform="translate(-1888.597 -247.75)"/></svg>