<svg xmlns="http://www.w3.org/2000/svg" width="16" height="16" viewBox="0 0 16 16"><defs><style>.a{fill:none;}.b{fill:#8095b3;}</style></defs><rect class="a" width="16" height="16" transform="translate(0)"/><path class="b" d="M4.252-2.767h-2v1h1V-.5c-.016.018.177,0-.252,0A1.724,1.724,0,0,1,1.172-2.253,1.727,1.727,0,0,1,3-4.03a3.445,3.445,0,0,1,1.252.216l.013-.729A3.252,3.252,0,0,0,3-4.767,2.5,2.5,0,0,0,.252-2.253,2.45,2.45,0,0,0,.96-.439,2.675,2.675,0,0,0,2.857.2,4.082,4.082,0,0,0,4.252,0Zm1-2v2.919A1.86,1.86,0,0,0,7.232.233a1.869,1.869,0,0,0,2.02-2.081V-4.767h-1v2.919C8.252-.771,7.685-.5,7.232-.5c-.358,0-.98-.253-.98-1.344V-4.767Zm5,0v5h1v-5Zm2,4.964c.016.02.559,0,1.026,0a3.21,3.21,0,0,0,2.244-.7,2.518,2.518,0,0,0,.73-1.893,2.2,2.2,0,0,0-.715-1.749,2.987,2.987,0,0,0-2.056-.607c-.52,0-1.229-.032-1.229-.015Zm1-4.227c.173-.036-.11,0,.229,0,1.385,0,1.871.8,1.871,1.633A1.773,1.773,0,0,1,13.393-.5c-.256,0,.025.029-.141,0Z" transform="translate(-0.252 9.767)"/></svg>