<svg width="17" height="17" viewBox="0 0 17 17" fill="none" xmlns="http://www.w3.org/2000/svg">
<path fill-rule="evenodd" clip-rule="evenodd" d="M9.06999 3.11408C9.83379 2.79771 10.6742 2.71493 11.4851 2.87622C12.2959 3.0375 13.0407 3.43561 13.6253 4.02019C14.2099 4.60478 14.608 5.34958 14.7693 6.16042C14.9306 6.97126 14.8478 7.81172 14.5314 8.57552C14.2151 9.33931 13.6793 9.99214 12.9919 10.4514C12.3045 10.9107 11.4963 11.1559 10.6696 11.1559L10.6677 11.1559C10.1359 11.1579 9.60883 11.0556 9.11634 10.8549C8.93002 10.7789 8.71633 10.8221 8.57405 10.9643L7.8625 11.6759H6.50961C6.23347 11.6759 6.00961 11.8998 6.00961 12.1759V13.2359H4.94961C4.67347 13.2359 4.44961 13.4598 4.44961 13.7359V14.7959H2.84961V12.903L6.68116 9.07145C6.82344 8.92918 6.86657 8.71549 6.79062 8.52917C6.58987 8.03668 6.48761 7.50961 6.48961 6.97778L6.48961 6.9759C6.48961 6.14917 6.73476 5.34101 7.19407 4.65362C7.65337 3.96622 8.3062 3.43046 9.06999 3.11408ZM11.6802 1.89543C10.6754 1.69556 9.63383 1.79814 8.68731 2.1902C7.74079 2.58227 6.93178 3.2462 6.3626 4.09805C5.79358 4.94963 5.48979 5.95078 5.48961 6.97496C5.48764 7.52466 5.5751 8.07026 5.74785 8.59055L1.99606 12.3423C1.90229 12.4361 1.84961 12.5633 1.84961 12.6959V15.2959C1.84961 15.572 2.07347 15.7959 2.34961 15.7959H4.94961C5.22575 15.7959 5.44961 15.572 5.44961 15.2959V14.2359H6.50961C6.78575 14.2359 7.00961 14.012 7.00961 13.7359V12.6759H8.06961C8.20222 12.6759 8.32939 12.6232 8.42316 12.5295L9.05496 11.8977C9.57522 12.0704 10.1208 12.1579 10.6705 12.1559C11.6947 12.1557 12.6959 11.8519 13.5475 11.2829C14.3993 10.7137 15.0632 9.90472 15.4553 8.9582C15.8474 8.01168 15.9499 6.97015 15.7501 5.96533C15.5502 4.96051 15.0569 4.03752 14.3324 3.31309C13.608 2.58865 12.685 2.0953 11.6802 1.89543ZM10.6705 12.1559L10.6715 12.1559L10.6696 11.6559V12.1559H10.6705ZM5.48961 6.97496V6.9759H5.98961L5.48961 6.97402L5.48961 6.97496ZM13.3329 6.01887C13.3329 6.91381 12.6074 7.6393 11.7125 7.6393C10.8175 7.6393 10.092 6.91381 10.092 6.01887C10.092 5.12393 10.8175 4.39844 11.7125 4.39844C12.6074 4.39844 13.3329 5.12393 13.3329 6.01887Z" fill="#8697A7"/>
</svg>
