<svg xmlns="http://www.w3.org/2000/svg" width="16" height="16" viewBox="0 0 16 16"><defs><style>.a{fill:#8095b3;}.b{fill:none;}</style></defs><g transform="translate(-41.333)"><g transform="translate(42.666)"><path class="a" d="M49.334,0C45.6,0,42.667,1.318,42.667,3S45.6,6,49.334,6,56,4.682,56,3,53.072,0,49.334,0Zm0,5.333c-3.536,0-6-1.23-6-2.333S45.8.667,49.334.667s6,1.23,6,2.333S52.87,5.333,49.334,5.333Z" transform="translate(-42.667)"/></g><g transform="translate(42.666 6)"><path class="a" d="M55.666,192a.333.333,0,0,0-.333.333c0,1.1-2.464,2.333-6,2.333s-6-1.23-6-2.333a.333.333,0,1,0-.667,0c0,1.682,2.929,3,6.667,3s6.667-1.318,6.667-3A.333.333,0,0,0,55.666,192Z" transform="translate(-42.666 -192)"/></g><g transform="translate(42.666 9.333)"><path class="a" d="M55.666,298.666a.333.333,0,0,0-.333.333c0,1.1-2.464,2.333-6,2.333s-6-1.23-6-2.333a.333.333,0,0,0-.667,0c0,1.682,2.929,3,6.667,3S56,300.681,56,299A.333.333,0,0,0,55.666,298.666Z" transform="translate(-42.666 -298.666)"/></g><g transform="translate(42.666 2.667)"><path class="a" d="M55.667,85.333a.333.333,0,0,0-.333.333v10c0,1.1-2.464,2.333-6,2.333s-6-1.23-6-2.333v-10a.333.333,0,1,0-.667,0v10c0,1.682,2.929,3,6.667,3S56,97.348,56,95.666v-10A.333.333,0,0,0,55.667,85.333Z" transform="translate(-42.667 -85.333)"/></g></g><rect class="b" width="16" height="16"/></svg>