<svg xmlns="http://www.w3.org/2000/svg" width="16" height="16" viewBox="0 0 16 16"><defs><style>.a{fill:#8095b3;}.b{fill:none;}</style></defs><g transform="translate(2212.813 -42.785)"><path class="a" d="M-2210.728,47.87h-.024l-1.355.732-.2-.8,1.7-.911h.9v7.795h-1.019Z"/><path class="a" d="M-2207.943,54.682v-.647l.828-.8c1.99-1.9,2.891-2.9,2.9-4.077a1.391,1.391,0,0,0-1.547-1.524,2.659,2.659,0,0,0-1.656.66l-.336-.744a3.431,3.431,0,0,1,2.207-.791,2.193,2.193,0,0,1,2.387,2.266c0,1.44-1.043,2.6-2.686,4.186l-.624.576v.024h3.5v.875Z"/><path class="a" d="M-2201.9,53.471a3.526,3.526,0,0,0,1.727.492c1.356,0,1.775-.864,1.763-1.512-.013-1.091-.995-1.559-2.015-1.559h-.588V50.1h.588c.768,0,1.739-.4,1.739-1.319,0-.624-.4-1.176-1.368-1.176a2.86,2.86,0,0,0-1.558.516l-.276-.768a3.715,3.715,0,0,1,2.039-.6c1.535,0,2.231.911,2.231,1.859a1.938,1.938,0,0,1-1.439,1.835v.024a2.031,2.031,0,0,1,1.738,2c0,1.248-.971,2.339-2.842,2.339a3.964,3.964,0,0,1-2.027-.528Z"/></g><rect class="b" width="16" height="16"/></svg>