<svg xmlns="http://www.w3.org/2000/svg" width="16.004" height="16.004" viewBox="0 0 16.004 16.004"><defs><style>.a,.b{fill:none;}.a{stroke:#8095b3;stroke-miterlimit:10;}.c{fill:#8095b3;}</style></defs><g transform="translate(0.004 0.004)"><g transform="translate(-669.745 60.667)"><g transform="translate(670.245 -60.167)"><path class="a" d="M672.944-49.975c-.621.621-1.367.224-1.989-.4h0c-.621-.621-1.02-1.368-.4-1.989l1.989-1.989c.621-.621,1.367-.224,1.988.4h0c.622.621,1.02,1.367.4,1.989Z" transform="translate(-670.245 59.663)"/><path class="a" d="M678.447-55.479c-.622.621-1.367.224-1.989-.4h0c-.622-.621-1.019-1.367-.4-1.988l1.988-1.989c.622-.621,1.368-.224,1.989.4h0c.622.621,1.019,1.367.4,1.989Z" transform="translate(-670.748 60.167)"/><line class="a" y1="4.234" x2="4.233" transform="translate(3 3)"/></g></g><rect class="b" width="16" height="16"/><g transform="translate(-669.405 60.667)"><path class="a" d="M681.5-56.167h3.745v11h-12V-47.5" transform="translate(-0.34)"/><path class="c" d="M672.905-47.486l4.6-4.662,3.754,5.994h1.034l-1.523-3.505h2.049l2.088,4.012h-12Z" transform="translate(0 -0.019)"/><path class="c" d="M682.692-52.977a1.244,1.244,0,0,1-1.244,1.244,1.243,1.243,0,0,1-1.243-1.244,1.243,1.243,0,0,1,1.243-1.244A1.244,1.244,0,0,1,682.692-52.977Z"/></g></g></svg>