<svg id="Component_5489_30" data-name="Component 5489 – 30" xmlns="http://www.w3.org/2000/svg" width="16" height="16" viewBox="0 0 16 16">
  <rect id="Rectangle_6422" data-name="Rectangle 6422" width="16" height="16" fill="none"/>
  <g id="Group_6901" data-name="Group 6901" transform="translate(-588.211 199.425)">
    <g id="Group_6900" data-name="Group 6900">
      <path id="Path_6230" data-name="Path 6230" d="M597.676-197.9v2.112h-.268a2.466,2.466,0,0,0-.21-.8,1.373,1.373,0,0,0-.58-.567,2.124,2.124,0,0,0-.952-.183h-1.343v6.876a1.762,1.762,0,0,0,.19,1.036,1.1,1.1,0,0,0,.822.278h.331v.245h-4.041v-.245h.338a.994.994,0,0,0,.858-.344,1.952,1.952,0,0,0,.152-.97v-6.876h-1.146a3.367,3.367,0,0,0-.948.093,1.29,1.29,0,0,0-.626.484,1.883,1.883,0,0,0-.31.97h-.267V-197.9Z" transform="translate(-0.465 -0.522)" fill="#8095b3"/>
    </g>
  </g>
  <path id="Path_12045" data-name="Path 12045" d="M-423.964,723.414c-.726.586.107,1.329.428,1.711.243.286.743.772,2.884-.4a10.781,10.781,0,0,0,2.116-1.59h0c.014-.015.075-.077.09-.093h0a10.817,10.817,0,0,0,1.59-2.118c1.176-2.143.642-2.594.355-2.836-.381-.326-1.145-1.145-1.75-.436-1.008,1.185-1.3,1.671-.933,1.96a3.081,3.081,0,0,1,.364.374c.392.391.3,1.066-.636,2l-.164.2c-.7.7-1.614,1.07-2.006.677-.128-.129-.217-.27-.393-.446C-422.359,722.066-422.527,722.254-423.964,723.414Z" transform="translate(431.253 -710.366)" fill="none" stroke="#8095b3" stroke-miterlimit="10" stroke-width="1"/>
</svg>
