<svg id="Component_102_1" data-name="Component 102 – 1" xmlns="http://www.w3.org/2000/svg" width="16" height="16" viewBox="0 0 16 16">
  <rect id="Rectangle_6425" data-name="Rectangle 6425" width="16" height="16" fill="none"/>
  <g id="Group_7351" data-name="Group 7351" transform="translate(2211.813 -42.785)">
    <g id="Group_6907" data-name="Group 6907">
      <path id="Path_6235" data-name="Path 6235" d="M-2210.728,47.87h-.024l-1.355.732-.2-.8,1.7-.911h.9v7.795h-1.019Z" transform="translate(2 -0.102)" fill="#8095b3"/>
      <rect id="Rectangle_6460" data-name="Rectangle 6460" width="1" height="1" transform="translate(-2205.813 53.785)" fill="#8095b3"/>
      <path id="Path_6309" data-name="Path 6309" d="M775.39-155.491a2.03,2.03,0,0,0-1.738-2v-.024a1.937,1.937,0,0,0,1.439-1.835c0-.948-.7-1.859-2.23-1.859-.081,0-.4,0-.482,0-1.534,0-2.23.911-2.23,1.859a1.937,1.937,0,0,0,1.439,1.835v.024a2.03,2.03,0,0,0-1.738,2,2.261,2.261,0,0,0,1.831,2.2,3.535,3.535,0,0,0,.867.141c.026,0,.048-.005.074-.005h0C774.442-153.187,775.39-154.261,775.39-155.491Zm-4.173-3.689a1.082,1.082,0,0,1,.7-1.052c.072-.021.145-.039.218-.055a1.9,1.9,0,0,1,.311-.048c.059-.006.117-.016.176-.017s.117.011.176.017a1.9,1.9,0,0,1,.311.048c.074.016.146.034.218.055a1.082,1.082,0,0,1,.7,1.052c0,.788-.715,1.193-1.4,1.292C771.932-157.987,771.217-158.392,771.217-159.18Zm1.4,5.175a1.51,1.51,0,0,1-1.679-1.5c.011-.97.79-1.446,1.679-1.54.889.094,1.668.57,1.679,1.54A1.51,1.51,0,0,1,772.62-154.005Z" transform="translate(-2973.663 207.964)" fill="#8095b3"/>
    </g>
  </g>
</svg>
