<svg xmlns="http://www.w3.org/2000/svg" width="16.006" height="16" viewBox="0 0 16.006 16"><defs><style>.a{fill:none;}.b{fill:#8095b3;}</style></defs><rect class="a" width="16" height="16" transform="translate(0.006)"/><path class="b" d="M5.288-.656a5.214,5.214,0,0,1-1.471.222,1.963,1.963,0,0,1-2-2.231A1.952,1.952,0,0,1,3.807-4.9a4.549,4.549,0,0,1,1.481.252V-5.863a3.461,3.461,0,0,0-1.546-.3,3.24,3.24,0,0,0-3.427,3.5A3.19,3.19,0,0,0,3.6.835,4.2,4.2,0,0,0,5.288.543ZM6.145.835H7.551v-2.77H7.98c.577.01.847.242,1.015,1.088A8.242,8.242,0,0,0,9.535.835h1.4c-.121-.262-.371-1.249-.567-2.014a1.707,1.707,0,0,0-.838-1.269v-.03a1.792,1.792,0,0,0,1.108-1.672,1.786,1.786,0,0,0-.577-1.42A3.021,3.021,0,0,0,8.036-6.1a11.551,11.551,0,0,0-1.891.141ZM7.551-4.916a3.283,3.283,0,0,1,.643-.05c.652.01,1.043.322,1.043.947,0,.594-.419.977-1.127.977H7.551Zm8.764,4.26a5.214,5.214,0,0,1-1.471.222,1.982,1.982,0,0,1-2.029-2.231A1.97,1.97,0,0,1,14.834-4.9a4.549,4.549,0,0,1,1.481.252V-5.863a3.461,3.461,0,0,0-1.546-.3,3.26,3.26,0,0,0-3.454,3.5,3.21,3.21,0,0,0,3.314,3.5A4.2,4.2,0,0,0,16.315.543Z" transform="translate(-0.315 10.165)"/></svg>