<svg xmlns="http://www.w3.org/2000/svg" width="16" height="16" viewBox="0 0 16 16"><defs><style>.a,.b,.c{fill:none;}.b,.c{stroke:#8095b3;stroke-linecap:round;}.b{stroke-miterlimit:10;}.c{stroke-linejoin:round;}</style></defs><g transform="translate(0)"><g transform="translate(-8.25 -31)"><rect class="a" width="16" height="16" transform="translate(8.25 31)"/><path class="b" d="M8.5,33.5v-2h2" transform="translate(0.25)"/><path class="b" d="M20,31.5h2v2" transform="translate(1.75)"/><path class="b" d="M22,43v2H20" transform="translate(1.75 1.5)"/><path class="b" d="M10.5,45h-2V43" transform="translate(0.25 1.5)"/></g><g transform="translate(-30.548 -37.5)"><path class="b" d="M38.043,46.823c0-.015.005-.645.005-.657A2.572,2.572,0,0,0,35.3,43.827a2.572,2.572,0,0,0-2.751,2.339c0,.012,0,.642.005.657Z" transform="translate(-0.2 0.177)"/><line class="b" y2="2.5" transform="translate(35.048 47)"/><path class="c" d="M32.5,44.5v-4h4v4" transform="translate(0.548)"/></g><g transform="translate(-23.548 -35.5)"><path class="b" d="M38.043,46.823c0-.015.005-.645.005-.657A2.572,2.572,0,0,0,35.3,43.827a2.572,2.572,0,0,0-2.751,2.339c0,.012,0,.642.005.657Z" transform="translate(-0.2 0.177)"/><line class="b" y2="2.5" transform="translate(35.048 47)"/><path class="c" d="M32.5,44.5v-4h4v4" transform="translate(0.548)"/></g></g></svg>