<svg xmlns="http://www.w3.org/2000/svg" width="16" height="16" viewBox="0 0 16 16"><defs><style>.a,.b,.c{fill:none;}.a{stroke:#444;}.a,.b{stroke-miterlimit:10;}.b{stroke:#006ce0;}</style></defs><g transform="translate(424.093 -675.153)"><path class="a" d="M-419.093,680.953v-.3a1.538,1.538,0,0,1,1.5-1.5,1.609,1.609,0,0,1,.9.3"/><circle class="b" cx="1.5" cy="1.5" r="1.5" transform="translate(-416.093 684.153)"/><path class="a" d="M-413.693,679.653h-.5a3.919,3.919,0,0,0-.8-1.4l.6-1a.527.527,0,0,0-.2-.7l-.9-.5a.527.527,0,0,0-.7.2l-.6,1a3.235,3.235,0,0,0-1.6,0l-.6-1a.574.574,0,0,0-.7-.2l-.9.5a.574.574,0,0,0-.2.7l.6,1a3.92,3.92,0,0,0-.8,1.4h-1.1a.472.472,0,0,0-.5.442.558.558,0,0,0,0,.058v1a.472.472,0,0,0,.442.5h1.258a3.919,3.919,0,0,0,.8,1.4l-.3.5"/><path class="b" d="M-410.093,684.653h-1.2a3.919,3.919,0,0,0-.8-1.4l.6-1a.527.527,0,0,0-.2-.7l-.9-.5a.527.527,0,0,0-.7.2l-.6,1a3.235,3.235,0,0,0-1.6,0l-.6-1a.574.574,0,0,0-.7-.2l-.9.5a.574.574,0,0,0-.2.7l.6,1a3.919,3.919,0,0,0-.8,1.4h-1a.472.472,0,0,0-.5.442.558.558,0,0,0,0,.058v1a.472.472,0,0,0,.442.5h1.258a3.919,3.919,0,0,0,.8,1.4l-.6,1a.527.527,0,0,0,.2.7l.9.5a.527.527,0,0,0,.7-.2l.6-1a3.258,3.258,0,0,0,1.6,0l.6,1a.574.574,0,0,0,.7.2l.9-.5a.574.574,0,0,0,.2-.7l-.6-1a3.92,3.92,0,0,0,.8-1.4h1.2a.472.472,0,0,0,.5-.442.557.557,0,0,0,0-.058v-1C-409.593,684.853-409.793,684.653-410.093,684.653Z"/></g><rect class="c" width="16" height="16"/></svg>