<svg xmlns="http://www.w3.org/2000/svg" width="16.012" height="16.006" viewBox="0 0 16.012 16.006"><defs><style>.a{fill:#fff;}.b{fill:#006ce0;}.c{fill:none;stroke:#006ce0;stroke-miterlimit:10;}</style></defs><rect class="a" width="16" height="15.994" transform="translate(0.001 0.006)"/><path class="b" d="M1603.125,174.362h-.3a.424.424,0,0,1-.365-.176.571.571,0,0,1-.129-.339v-1.593l-.4-.1q-.3-.07-.6-.163a2.058,2.058,0,0,1-.5-.234l-.4-.211-1.326,1.194a.258.258,0,0,1-.259.164.5.5,0,0,1-.356-.164l-.683-.68a.33.33,0,0,1-.107-.164.828.828,0,0,1-.011-.141,1.283,1.283,0,0,1,.011-.152.245.245,0,0,1,.107-.152l1.2-1.1-.213-.4a2.223,2.223,0,0,0-.2-.551,2.312,2.312,0,0,1-.2-.55l-.1-.4h-1.6a.513.513,0,0,1-.342-.181.49.49,0,0,1-.178-.316v-1.008a.484.484,0,0,1,.178-.316.5.5,0,0,1,.342-.176h1.607l.187-.3c.065-.2.123-.4.178-.586a1.735,1.735,0,0,1,.248-.516l.188-.492-1.207-1.1a.3.3,0,0,1-.166-.281.416.416,0,0,1,.166-.328l.8-.7a.263.263,0,0,1,.257-.15.534.534,0,0,1,.354.141l1.107,1.2.283-.281a4.222,4.222,0,0,0,.555-.211,2.65,2.65,0,0,1,.555-.188l.4-.117v-1.593a.487.487,0,0,1,.177-.316.5.5,0,0,1,.342-.176h.992a.5.5,0,0,1,.342.176.477.477,0,0,1,.176.316v1.6l.5.117c.2.047.4.1.59.152a1.743,1.743,0,0,1,.519.246l.4.187,1.113-1.2a.261.261,0,0,1,.259-.141.538.538,0,0,1,.355.141l.684.7a.255.255,0,0,1,.165.258.417.417,0,0,1-.165.328l-1.208,1.219.212.4a2.794,2.794,0,0,0,.2.539,2.5,2.5,0,0,1,.2.562l.093.4h1.6a.458.458,0,0,1,.377.176.514.514,0,0,1,.142.316v.42h.925v-.42a1.489,1.489,0,0,0-.411-1.055,1.426,1.426,0,0,0-1.1-.445h-.805a.509.509,0,0,0-.057-.245c-.039-.07-.09-.152-.152-.246l.612-.609a1.587,1.587,0,0,0-.012-2.2l-.7-.7a1.6,1.6,0,0,0-2.214,0l-.591.516a.4.4,0,0,0-.223-.117,1.483,1.483,0,0,1-.3-.094v-.8a1.458,1.458,0,0,0-.413-1.09,1.483,1.483,0,0,0-1.1-.41h-.992a1.484,1.484,0,0,0-1.1.41,1.463,1.463,0,0,0-.413,1.09v.8c-.111.046-.208.085-.294.117a.454.454,0,0,0-.225.187l-.591-.609a1.6,1.6,0,0,0-2.214,0l-.7.7a1.766,1.766,0,0,0-.365.512,1.386,1.386,0,0,0,0,1.172,1.779,1.779,0,0,0,.365.516l.5.608a.367.367,0,0,0-.093.211,1.036,1.036,0,0,1-.1.281h-.8a1.484,1.484,0,0,0-1.1.41,1.459,1.459,0,0,0-.412,1.09v1.008a1.431,1.431,0,0,0,1.511,1.5h.9a.489.489,0,0,0,.056.246c.039.069.091.151.154.246l-.614.609a1.543,1.543,0,0,0-.489,1.109,1.421,1.421,0,0,0,.129.574,1.486,1.486,0,0,0,.367.5l.7.7a1.54,1.54,0,0,0,2.215,0l.59-.491a.535.535,0,0,0,.225.091.973.973,0,0,1,.3.117v.8a1.508,1.508,0,0,0,.412,1.043,1.408,1.408,0,0,0,1.1.457h.387Z" transform="translate(-1595.186 -159.458)"/><path class="b" d="M1603.19,164.464a3.076,3.076,0,0,0-3,3,2.927,2.927,0,0,0,.868,2.107,2.857,2.857,0,0,0,2.067.887v-.989a1.92,1.92,0,0,1-1.34-.575,1.951,1.951,0,0,1-.587-1.43,2,2,0,0,1,1.992-1.991l0,0a1.98,1.98,0,0,1,1.984,1.9h1.01a3.065,3.065,0,0,0-2.992-2.911Z" transform="translate(-1595.186 -159.458)"/><g transform="translate(-1595.464 -159.921)"><line class="c" x1="4.5" transform="translate(1605.465 169.461)"/><path class="b" d="M1608.189,171.461v-4l3,2.141Z"/></g><g transform="translate(-1595.186 -159.458)"><line class="c" x2="4.5" transform="translate(1605.688 172.958)"/><path class="b" d="M1607.466,175.461v-4l-3,2.141Z" transform="translate(0 -0.503)"/></g></svg>