<svg xmlns="http://www.w3.org/2000/svg" width="16" height="16" viewBox="0 0 16 16"><defs><style>.a,.b{fill:none;}.c,.f{fill:#9600e0;}.d{fill:#f2f5ff;font-size:6px;font-family:SegoeUI-Bold, Segoe UI;font-weight:700;letter-spacing:0.07em;}.e,.f{stroke:none;}</style></defs><rect class="a" width="16" height="16"/><g transform="translate(1)"><g class="b" transform="translate(1)"><path class="e" d="M0,0H8V4h4V16H0Z"/><path class="f" d="M 1 1 L 1 15 L 11 15 L 11 5 L 7.999989986419678 5 L 6.999989986419678 5 L 6.999989986419678 4 L 6.999989986419678 1 L 1 1 M 0 0 L 7.999989986419678 0 L 7.999989986419678 4 L 12 4 L 12 16 L 0 16 L 0 0 Z"/></g><path class="c" d="M0,0,4,4H0Z" transform="translate(9)"/><rect class="c" width="14" height="6" rx="1" transform="translate(0 6)"/><text class="d" transform="translate(7 11)"><tspan x="-5.91" y="0">SQL</tspan></text></g></svg>