<svg xmlns="http://www.w3.org/2000/svg" width="16" height="16" viewBox="0 0 16 16"><defs><style>.a{fill:#8095b3;}.b,.c{fill:none;}.b{stroke:#8095b3;stroke-miterlimit:10;}</style></defs><g transform="translate(923.304 499.747)"><path class="a" d="M-908.8-498.747h-13a1,1,0,0,0-1,1v12a1,1,0,0,0,1,1h13a1,1,0,0,0,1-1v-12A1,1,0,0,0-908.8-498.747Zm0,13h-13v-9h13Zm0-10h-13v-2h13Z" transform="translate(0.5)"/><path class="b" d="M-916.8-487.747l-2.5-2.5,2.5-2.5" transform="translate(0.5)"/><path class="b" d="M-913.8-487.747l2.5-2.5-2.5-2.5" transform="translate(0.5)"/></g><rect class="c" width="16" height="16"/></svg>