<svg xmlns="http://www.w3.org/2000/svg" width="16" height="16" viewBox="0 0 16 16"><defs><style>.a{fill:#8095b3;}.b{fill:none;}</style></defs><path class="a" d="M11.6-5.391h-.211a7.57,7.57,0,0,1-2.156-.3A7.233,7.233,0,0,1,7.3-6.539,7.729,7.729,0,0,1,5.672-7.9,7.8,7.8,0,0,1,4.406-9.7l-.117-.187.117-.211a7.523,7.523,0,0,1,1.266-1.758,8.127,8.127,0,0,1,1.664-1.359,8.045,8.045,0,0,1,1.945-.867,7.406,7.406,0,0,1,2.109-.3h0a7.814,7.814,0,0,1,2.18.3,7.944,7.944,0,0,1,1.969.867,7.6,7.6,0,0,1,1.641,1.359A7.352,7.352,0,0,1,18.4-10.1l.094.211L18.4-9.7a6.939,6.939,0,0,1-1.1,1.781A7.7,7.7,0,0,1,15.7-6.586a8.288,8.288,0,0,1-1.922.891A7.814,7.814,0,0,1,11.6-5.391Zm0-1.008h0a6.854,6.854,0,0,0,3.527-.926A6.513,6.513,0,0,0,17.6-9.891a6.6,6.6,0,0,0-1.1-1.453,7.06,7.06,0,0,0-1.406-1.09,7.181,7.181,0,0,0-1.664-.715,6.542,6.542,0,0,0-1.828-.258,6.912,6.912,0,0,0-3.492.926A6.4,6.4,0,0,0,5.6-9.891,5.733,5.733,0,0,0,8.074-7.359,7.968,7.968,0,0,0,11.6-6.4Zm0-7.008a3.247,3.247,0,0,0-1.184.223,2.783,2.783,0,0,0-1.02.691h.211a1.078,1.078,0,0,1,.773.316,1.047,1.047,0,0,1,.328.785,1.058,1.058,0,0,1-.328.773,1.058,1.058,0,0,1-.773.328,1.214,1.214,0,0,1-.586-.152A.962.962,0,0,1,8.6-10.9v.492a2.976,2.976,0,0,0,.844,2.1,2.716,2.716,0,0,0,2.063.9H11.6a2.976,2.976,0,0,0,2.1-.844,2.69,2.69,0,0,0,.9-2.039v-.117a2.955,2.955,0,0,0-.855-2.1,2.727,2.727,0,0,0-2.051-.9H11.6Z" transform="translate(-3 18)"/><rect class="b" width="16" height="16"/></svg>