<svg width="16" height="17" viewBox="0 0 16 17" fill="none" xmlns="http://www.w3.org/2000/svg">
<path d="M5.263 9.97467C6.91675 9.97467 8.26218 8.62933 8.26218 6.97565C8.26218 5.32141 6.91675 3.97559 5.263 3.97559C3.60834 3.97559 2.26218 5.32141 2.26218 6.97565C2.26218 8.62933 3.60834 9.97467 5.263 9.97467ZM5.263 10.9747C3.05374 10.9747 1.26218 9.18396 1.26218 6.97565C1.26218 4.76721 3.05374 2.97559 5.263 2.97559C7.47144 2.97559 9.26218 4.76721 9.26218 6.97565C9.26218 9.18396 7.47144 10.9747 5.263 10.9747Z" fill="#8095b3"/>
<path fill-rule="evenodd" clip-rule="evenodd" d="M4.84518 4.79102H5.84518V6.51355L7.12792 7.6696L6.45845 8.41243L4.84518 6.9585V4.79102Z" fill="#8095b3"/>
<path d="M11.8 5.552H14.8V6.552H11.8V5.552Z" fill="#8095b3"/>
<path d="M10.8 9.552H14.8V10.552H10.8V9.552Z" fill="#8095b3"/>
<path d="M4.79999 13.552H14.8V14.552H4.79999V13.552Z" fill="#8095b3"/>
</svg>
