<svg xmlns="http://www.w3.org/2000/svg" width="16" height="16" viewBox="0 0 16 16"><defs><style>.a{fill:#fff;}.b{fill:#006ce0;}</style></defs><rect class="a" width="16" height="15.994"/><path class="b" d="M-451.458,691.288h-.991a1.411,1.411,0,0,1-1.1-.457,1.511,1.511,0,0,1-.412-1.043v-.8a.962.962,0,0,0-.295-.117.541.541,0,0,1-.225-.091l-.59.492a1.476,1.476,0,0,1-1.107.469,1.473,1.473,0,0,1-1.107-.469l-.7-.7a1.48,1.48,0,0,1-.366-.5,1.408,1.408,0,0,1-.129-.574,1.457,1.457,0,0,1,.129-.6,1.462,1.462,0,0,1,.36-.509l.613-.609q-.094-.141-.153-.246a.492.492,0,0,1-.057-.246h-.9a1.469,1.469,0,0,1-1.1-.422,1.476,1.476,0,0,1-.412-1.078v-1.008a1.466,1.466,0,0,1,.412-1.09,1.489,1.489,0,0,1,1.1-.41h.8a1.034,1.034,0,0,0,.1-.281.37.37,0,0,1,.094-.211l-.5-.608a1.781,1.781,0,0,1-.366-.516,1.381,1.381,0,0,1-.129-.586,1.375,1.375,0,0,1,.129-.586,1.769,1.769,0,0,1,.366-.512l.705-.7a1.511,1.511,0,0,1,1.107-.445,1.512,1.512,0,0,1,1.107.445l.59.609a.454.454,0,0,1,.225-.187q.129-.048.294-.117v-.8a1.466,1.466,0,0,1,.413-1.09,1.488,1.488,0,0,1,1.1-.41h.991a1.485,1.485,0,0,1,1.1.41,1.463,1.463,0,0,1,.413,1.09v.8a1.433,1.433,0,0,0,.3.094.41.41,0,0,1,.224.117l.59-.516a1.515,1.515,0,0,1,1.108-.445,1.512,1.512,0,0,1,1.107.445l.705.7a1.494,1.494,0,0,1,.448,1.1,1.5,1.5,0,0,1-.436,1.1l-.613.609q.094.141.153.246a.508.508,0,0,1,.057.245h.805a1.425,1.425,0,0,1,1.1.445,1.488,1.488,0,0,1,.412,1.055v1.008a1.414,1.414,0,0,1-.448,1.078,1.5,1.5,0,0,1-1.062.422h-.805a.991.991,0,0,0-.1.281.315.315,0,0,1-.117.211l.615.609a1.478,1.478,0,0,1,.448,1.09,1.481,1.481,0,0,1-.448,1.09l-.705.7a1.476,1.476,0,0,1-1.107.469,1.476,1.476,0,0,1-1.108-.469l-.59-.586a1.828,1.828,0,0,0-.259.129.5.5,0,0,1-.26.059v.8a1.646,1.646,0,0,1-.413,1.184A1.445,1.445,0,0,1-451.458,691.288Zm-3.3-3.912.4.211a2.059,2.059,0,0,0,.5.234q.3.093.6.164l.4.094v1.593a.575.575,0,0,0,.13.34.428.428,0,0,0,.365.176h1.015a.539.539,0,0,0,.318-.141.455.455,0,0,0,.177-.375v-1.59l.4-.094a2.323,2.323,0,0,0,.554-.2,2.333,2.333,0,0,1,.555-.2l.4-.211,1.107,1.2a.429.429,0,0,0,.33.164.3.3,0,0,0,.283-.164l.685-.68a.5.5,0,0,0,.165-.352.256.256,0,0,0-.168-.263l-1.2-1.1.212-.4a2.641,2.641,0,0,0,.236-.516q.095-.282.165-.586l.091-.4h1.605a.56.56,0,0,0,.342-.141.432.432,0,0,0,.177-.352v-1.007a.523.523,0,0,0-.142-.316.457.457,0,0,0-.377-.176h-1.605l-.094-.4a2.481,2.481,0,0,0-.2-.562,2.666,2.666,0,0,1-.2-.539l-.212-.4,1.208-1.219a.424.424,0,0,0,.165-.328.256.256,0,0,0-.165-.258l-.685-.7a.536.536,0,0,0-.354-.141.262.262,0,0,0-.26.141l-1.112,1.2-.4-.187a1.755,1.755,0,0,0-.519-.246q-.283-.082-.59-.152l-.5-.117v-1.6a.478.478,0,0,0-.177-.316.5.5,0,0,0-.342-.176h-.991a.5.5,0,0,0-.342.176.482.482,0,0,0-.177.316v1.593l-.4.117a2.637,2.637,0,0,0-.554.188,4.222,4.222,0,0,1-.555.211l-.283.281-1.107-1.2a.536.536,0,0,0-.354-.141.263.263,0,0,0-.257.15l-.8.7a.419.419,0,0,0-.166.328.3.3,0,0,0,.166.281l1.207,1.1-.188.492a1.728,1.728,0,0,0-.247.516c-.055.187-.114.382-.178.586l-.188.3h-1.606a.5.5,0,0,0-.343.176.482.482,0,0,0-.177.316v1.008a.484.484,0,0,0,.177.316.51.51,0,0,0,.343.181h1.6l.1.4a2.318,2.318,0,0,0,.2.551,2.246,2.246,0,0,1,.2.551l.213.4-1.2,1.1a.241.241,0,0,0-.106.152,1.269,1.269,0,0,0-.012.152.839.839,0,0,0,.012.141.333.333,0,0,0,.106.164l.684.68a.5.5,0,0,0,.355.164.259.259,0,0,0,.26-.164Zm2.761-1.088a2.862,2.862,0,0,1-2.133-.892,2.923,2.923,0,0,1-.867-2.107,2.875,2.875,0,0,1,.9-2.1,2.877,2.877,0,0,1,2.1-.9,2.877,2.877,0,0,1,2.1.9,2.875,2.875,0,0,1,.9,2.1,2.923,2.923,0,0,1-.867,2.107A2.862,2.862,0,0,1-452,686.288Zm0-4.99a1.92,1.92,0,0,0-1.406.586,1.917,1.917,0,0,0-.586,1.405,1.947,1.947,0,0,0,.586,1.429A1.92,1.92,0,0,0-452,685.3a1.92,1.92,0,0,0,1.406-.586,1.947,1.947,0,0,0,.586-1.429,1.917,1.917,0,0,0-.586-1.405A1.92,1.92,0,0,0-452,681.3Z" transform="translate(460 -675.289)"/></svg>