<svg xmlns="http://www.w3.org/2000/svg" width="210" height="61" viewBox="0 0 210 61"><defs><style>.a{fill:#ff4013;}.b{fill:#0d2e4e;}.c{fill:#1a4580;}</style></defs><g transform="translate(0 14.434)"><path class="a" d="M364.691,174.495a17.394,17.394,0,0,1-.885-24.762,17.833,17.833,0,0,1,25.02-.875h7.443c-.075-.116-.153-.231-.229-.345a23.581,23.581,0,0,0-38.9,0,22.985,22.985,0,0,0-2.164,22.017,23.567,23.567,0,0,0,41.066,3.945c.138-.2.278-.415.416-.633H389.5A17.832,17.832,0,0,1,364.691,174.495Z" transform="translate(-353.122 -138.27)"/><path class="a" d="M512.855,156.838a18.343,18.343,0,0,0-31.963-3.07,17.885,17.885,0,0,0-1.684,17.137,18.173,18.173,0,0,0,6.616,7.951,18.358,18.358,0,0,0,25.348-4.881A17.881,17.881,0,0,0,512.855,156.838Zm-16.864,19.593a12.6,12.6,0,1,1,12.731-12.6A12.682,12.682,0,0,1,495.991,176.431Z" transform="translate(-304.298 -135.507)"/><path class="a" d="M416.615,145.807a17.5,17.5,0,0,0-18.008,16.961q-.015.564.008,1.128c0,10.585,7.716,18.155,19.293,18.155a18.1,18.1,0,0,0,14.147-5.763l-3.581-4.153a13.46,13.46,0,0,1-10.356,4.288c-7.109,0-12.186-4.153-13-10.383h29.1c.068-.6.137-1.408.137-1.944C434.357,153.176,426.977,145.807,416.615,145.807Zm-11.5,15.609a11.591,11.591,0,0,1,23.011,0Z" transform="translate(-335.31 -135.506)"/><path class="a" d="M404.61,145.806c-6.294,0-10.761,2.143-13.062,6.3v-5.96H385.32v35.505h6.5V163.96c0-7.771,4.334-11.991,11.3-11.991a11.53,11.53,0,0,1,1.489.067Z" transform="translate(-340.541 -135.505)"/><path class="a" d="M468.788,179.327c-3.581,0-4.721-2.143-4.721-5.96V154.139h10.288v-5.291h-10.3V138.432h-6.5v10.416h-2.233v5.291h2.233v19.492c0,7.169,3.24,11.116,10.483,11.116a9.953,9.953,0,0,0,6.961-2.48l-2.03-4.615A5.894,5.894,0,0,1,468.788,179.327Z" transform="translate(-313.184 -138.21)"/><rect class="a" width="6.498" height="35.504" transform="translate(164.291 10.633)"/><path class="a" d="M457.117,151.087a18.346,18.346,0,0,0-28.031,2.68A17.881,17.881,0,0,0,427.4,170.9a18.161,18.161,0,0,0,6.614,7.951,18.336,18.336,0,0,0,23.1-2.2v4.989h5.607V146.139h-5.607Zm-12.931,25.344a12.6,12.6,0,1,1,12.731-12.6A12.681,12.681,0,0,1,444.185,176.431Z" transform="translate(-324.59 -135.507)"/></g><path class="b" d="M497.616,142.1l-25.144,5.774,7.487-5.774-30.68-14.392Z" transform="translate(-315.155 -127.71)"/><path class="c" d="M497.616,142.1h-17.66L449.277,127.71Z" transform="translate(-315.155 -127.71)"/></svg>