<svg width="16" height="17" viewBox="0 0 16 17" fill="none" xmlns="http://www.w3.org/2000/svg">
<path fill-rule="evenodd" clip-rule="evenodd" d="M5.80664 2.39844C4.80148 2.39844 3.98664 3.21328 3.98664 4.21844V5.21844C3.98664 5.27992 3.98969 5.34069 3.99564 5.40061H3.2C2.54 5.40061 2 5.90686 2 6.52561V6.77553C2 7.01044 2.21898 7.18374 2.42363 7.29907L7.75385 10.3028C7.90623 10.3886 8.09241 10.3886 8.24479 10.3028L13.575 7.29907C13.7802 7.18345 14 7.0098 14 6.7743V6.52561C14 5.90686 13.46 5.40061 12.8 5.40061H12.0044C12.0103 5.34069 12.0134 5.27992 12.0134 5.21844V4.21844C12.0134 3.21328 11.1985 2.39844 10.1934 2.39844H5.80664ZM5.62664 4.21844C5.62664 4.11903 5.70723 4.03844 5.80664 4.03844H10.1934C10.2928 4.03844 10.3734 4.11903 10.3734 4.21844V5.21844C10.3734 5.31785 10.2928 5.39844 10.1934 5.39844H5.80664C5.70723 5.39844 5.62664 5.31785 5.62664 5.21844V4.21844Z" fill="currentColor"/>
<path d="M13.2545 8.67474C13.5878 8.48691 14 8.72775 14 9.11034V13.2756C14 13.8944 13.46 14.4006 12.8 14.4006H3.2C2.54 14.4006 2 13.8944 2 13.2756V9.1111C2 8.72852 2.41216 8.48768 2.74547 8.67551L7.65061 11.4397C7.85998 11.5577 8.13866 11.5577 8.34803 11.4397L13.2545 8.67474Z" fill="currentColor"/>
</svg>
