<svg width="16" height="17" viewBox="0 0 16 17" fill="none" xmlns="http://www.w3.org/2000/svg">
<path d="M0.996094 3.39844C0.996094 2.84615 1.44381 2.39844 1.99609 2.39844H8.95611C9.5084 2.39844 9.95611 2.84615 9.95611 3.39844V4.40532H7.03998C5.85576 4.40532 4.89577 5.38148 4.89577 6.58563V10.2707L3.63428 11.5658C3.44646 11.7586 3.11938 11.6256 3.11938 11.3565V9.81562H1.99609C1.44381 9.81562 0.996094 9.3679 0.996094 8.81562V3.39844Z" fill="currentColor"/>
<path d="M13.9961 5.45024C14.5484 5.45024 14.9961 5.89796 14.9961 6.45024V11.6275C14.9961 12.1798 14.5484 12.6275 13.9961 12.6275H12.8728V14.0979C12.8728 14.3641 12.5519 14.4984 12.3622 14.3116L10.6531 12.6275H7.03607C6.48379 12.6275 6.03607 12.1798 6.03607 11.6275V6.45024C6.03607 5.89796 6.48379 5.45024 7.03607 5.45024H13.9961Z" fill="currentColor"/>
</svg>
