<svg width="16" height="17" viewBox="0 0 16 17" fill="none" xmlns="http://www.w3.org/2000/svg">
<path d="M13.0227 11.7667C13.0227 10.8758 11.9434 10.4296 11.3121 11.0596L10.3117 12.058C9.41171 12.9561 7.95263 12.9562 7.05252 12.0582L4.77926 9.79044C3.99646 9.00952 3.99625 7.74319 4.77878 6.96201C5.56131 6.18083 6.83026 6.18062 7.61305 6.96153L7.97317 7.32078C8.36452 7.7112 8.99891 7.71114 9.39019 7.32066L12.1051 4.61134C12.4583 4.25887 12.5001 3.65655 12.0303 3.48722C11.8709 3.42976 11.6989 3.39844 11.5196 3.39844H3.5031C2.67296 3.39844 2 4.07001 2 4.89844V12.8984C2 13.7269 2.67296 14.3984 3.5031 14.3984H11.5196C12.3498 14.3984 13.0227 13.7269 13.0227 12.8984V11.7667Z" fill="currentColor"/>
<path fill-rule="evenodd" clip-rule="evenodd" d="M14.7065 4.84379C15.0978 5.23432 15.0978 5.86749 14.7065 6.258L9.60307 11.3506C9.09439 11.8582 8.26972 11.8582 7.76097 11.3507L5.48771 9.08287C5.09631 8.69241 5.0962 8.05925 5.48747 7.66866C5.87873 7.27807 6.51321 7.27796 6.90461 7.66842L8.68189 9.44144L13.2894 4.84374C13.6807 4.45323 14.3152 4.45325 14.7065 4.84379Z" fill="currentColor"/>
</svg>
