<svg width="16" height="16" viewBox="0 0 16 16" fill="none" xmlns="http://www.w3.org/2000/svg">
<path fill-rule="evenodd" clip-rule="evenodd" d="M3.28501 3.28501C3.66502 2.905 4.28114 2.905 4.66115 3.28501L8 6.62385L11.3388 3.28501C11.7189 2.905 12.335 2.905 12.715 3.28501C13.095 3.66502 13.095 4.28114 12.715 4.66115L9.37615 8L12.715 11.3388C13.095 11.7189 13.095 12.335 12.715 12.715C12.335 13.095 11.7189 13.095 11.3388 12.715L8 9.37615L4.66115 12.715C4.28114 13.095 3.66502 13.095 3.28501 12.715C2.905 12.335 2.905 11.7189 3.28501 11.3388L6.62385 8L3.28501 4.66115C2.905 4.28114 2.905 3.66502 3.28501 3.28501Z" fill="currentColor"/>
</svg>
