<svg width="16" height="17" viewBox="0 0 16 17" fill="none" xmlns="http://www.w3.org/2000/svg">
<path fill-rule="evenodd" clip-rule="evenodd" d="M4.57143 2.4043C4.15466 2.4043 3.75496 2.56601 3.46026 2.85385C3.16556 3.1417 3 3.5321 3 3.93918V12.8694C3 13.2765 3.16556 13.6669 3.46026 13.9547C3.75496 14.2426 4.15466 14.4043 4.57143 14.4043H11.4286C11.8453 14.4043 12.245 14.2426 12.5397 13.9547C12.8344 13.6669 13 13.2765 13 12.8694V6.72988C13 6.61886 12.9548 6.51238 12.8745 6.43388L8.87447 2.5269C8.7941 2.4484 8.68509 2.4043 8.57143 2.4043H4.57143ZM11.4924 6.26797L9 3.8335V6.30488L11.4924 6.26797ZM4.96637 6.55814C4.96637 6.21658 5.23907 5.93968 5.57546 5.93968H6.78758C7.12397 5.93968 7.39667 6.21658 7.39667 6.55814C7.39667 6.89971 7.12397 7.1766 6.78758 7.1766H5.57546C5.23907 7.1766 4.96637 6.89971 4.96637 6.55814ZM5.57546 8.40062C5.23907 8.40062 4.96637 8.67751 4.96637 9.01908C4.96637 9.36065 5.23907 9.63754 5.57546 9.63754H10.4239C10.7603 9.63754 11.033 9.36065 11.033 9.01908C11.033 8.67751 10.7603 8.40062 10.4239 8.40062H5.57546ZM5.57546 10.8634C5.23907 10.8634 4.96637 11.1403 4.96637 11.4818C4.96637 11.8234 5.23907 12.1003 5.57546 12.1003H10.4239C10.7603 12.1003 11.033 11.8234 11.033 11.4818C11.033 11.1403 10.7603 10.8634 10.4239 10.8634H5.57546Z" fill="currentColor"/>
</svg>
