<svg width="17" height="16" viewBox="0 0 17 16" fill="none" xmlns="http://www.w3.org/2000/svg">
<path d="M10.7803 2C11.0564 2 11.2803 2.2149 11.2803 2.48V3.44H12.2799C13.0163 3.44 13.6133 3.96532 13.6133 4.61333V5.6H2.61328V4.61333C2.61328 3.96532 3.21023 3.44 3.94661 3.44H4.94629V2.48C4.94629 2.2149 5.17015 2 5.44629 2C5.72243 2 5.94629 2.2149 5.94629 2.48V3.44H10.2803V2.48C10.2803 2.2149 10.5041 2 10.7803 2Z" fill="currentColor"/>
<path fill-rule="evenodd" clip-rule="evenodd" d="M2.61328 6.56H13.6133V12.8267C13.6133 13.4747 13.0163 14 12.2799 14H3.94661C3.21023 14 2.61328 13.4747 2.61328 12.8267V6.56ZM4.11328 8.48C4.11328 8.2149 4.33714 8 4.61328 8H5.61328C5.88942 8 6.11328 8.2149 6.11328 8.48V9.1232C6.11328 9.3883 5.88942 9.6032 5.61328 9.6032H4.61328C4.33714 9.6032 4.11328 9.3883 4.11328 9.1232V8.48ZM4.11328 11.0432C4.11328 10.7781 4.33714 10.5632 4.61328 10.5632H5.61328C5.88942 10.5632 6.11328 10.7781 6.11328 11.0432V11.6864C6.11328 11.9515 5.88942 12.1664 5.61328 12.1664H4.61328C4.33714 12.1664 4.11328 11.9515 4.11328 11.6864V11.0432ZM7.61328 8C7.33714 8 7.11328 8.2149 7.11328 8.48V9.1232C7.11328 9.3883 7.33714 9.6032 7.61328 9.6032H8.61328C8.88942 9.6032 9.11328 9.3883 9.11328 9.1232V8.48C9.11328 8.2149 8.88942 8 8.61328 8H7.61328ZM7.11328 11.0432C7.11328 10.7781 7.33714 10.5632 7.61328 10.5632H8.61328C8.88942 10.5632 9.11328 10.7781 9.11328 11.0432V11.6864C9.11328 11.9515 8.88942 12.1664 8.61328 12.1664H7.61328C7.33714 12.1664 7.11328 11.9515 7.11328 11.6864V11.0432ZM10.6133 8C10.3371 8 10.1133 8.2149 10.1133 8.48V9.1232C10.1133 9.3883 10.3371 9.6032 10.6133 9.6032H11.6133C11.8894 9.6032 12.1133 9.3883 12.1133 9.1232V8.48C12.1133 8.2149 11.8894 8 11.6133 8H10.6133Z" fill="currentColor"/>
</svg>
