<svg width="17" height="16" viewBox="0 0 17 16" fill="none" xmlns="http://www.w3.org/2000/svg">
<path d="M10.6136 2.46154C10.6136 2.20664 10.4069 2 10.152 2C9.89714 2 9.6905 2.20664 9.6905 2.46154V3.38462H5.6899V2.46154C5.6899 2.20664 5.48327 2 5.22837 2C4.97346 2 4.76683 2.20664 4.76683 2.46154V3.38462H3.84405C3.16432 3.38462 2.61328 3.88973 2.61328 4.51282V5.46154H12.7671V4.51282C12.7671 3.88973 12.2161 3.38462 11.5364 3.38462H10.6136V2.46154Z" fill="currentColor"/>
<path d="M2.61328 6.38462H8.26924C6.98422 7.29013 6.14478 8.78557 6.14478 10.4771C6.14478 11.6303 6.53495 12.6923 7.19047 13.5385H3.84405C3.16432 13.5385 2.61328 13.0333 2.61328 12.4103V6.38462Z" fill="currentColor"/>
<path fill-rule="evenodd" clip-rule="evenodd" d="M10.921 14C12.9602 14 14.6133 12.3469 14.6133 10.3077C14.6133 8.26849 12.9602 6.61538 10.921 6.61538C8.88177 6.61538 7.22867 8.26849 7.22867 10.3077C7.22867 12.3469 8.88177 14 10.921 14ZM10.9211 8.20142C11.3353 8.20142 11.6711 8.53721 11.6711 8.95142V10.4158L12.5002 11.2448C12.7931 11.5377 12.7931 12.0126 12.5002 12.3055C12.2073 12.5984 11.7324 12.5984 11.4395 12.3055L10.3908 11.2568C10.2501 11.1161 10.1711 10.9253 10.1711 10.7264V8.95142C10.1711 8.53721 10.5069 8.20142 10.9211 8.20142Z" fill="currentColor"/>
</svg>
