<svg width="16" height="17" viewBox="0 0 16 17" fill="none" xmlns="http://www.w3.org/2000/svg">
<path fill-rule="evenodd" clip-rule="evenodd" d="M12.8878 5.48618C13.4711 5.48618 13.9439 5.94527 13.9439 6.51159V14.373C13.9439 14.9393 13.4711 15.3984 12.8878 15.3984C12.3046 15.3984 11.8317 14.9393 11.8317 14.373V6.51159C11.8317 5.94527 12.3046 5.48618 12.8878 5.48618ZM8.66348 8.5624C9.24674 8.5624 9.71957 9.02149 9.71957 9.5878V14.373C9.71957 14.9393 9.24674 15.3984 8.66348 15.3984C8.08022 15.3984 7.60739 14.9393 7.60739 14.373V9.5878C7.60739 9.02149 8.08022 8.5624 8.66348 8.5624ZM4.43912 11.6386C5.02238 11.6386 5.49521 12.0977 5.49521 12.664V14.373C5.49521 14.9393 5.02238 15.3984 4.43912 15.3984C3.85586 15.3984 3.38303 14.9393 3.38303 14.373V12.664C3.38303 12.0977 3.85586 11.6386 4.43912 11.6386Z" fill="currentColor"/>
<path fill-rule="evenodd" clip-rule="evenodd" d="M11.056 1.77071C11.2567 1.53495 11.5552 1.39844 11.8702 1.39844L13.9439 1.39844C14.5272 1.39844 15 1.85753 15 2.42384C15 2.99016 14.5272 3.44925 13.9439 3.44925H12.3675L9.45759 6.86883C9.38593 6.95303 9.30088 7.02558 9.20565 7.08372L3.61843 10.4952C3.12469 10.7967 2.47272 10.6525 2.16222 10.1731C1.85172 9.69365 2.00028 9.06062 2.49402 8.75915L7.93748 5.43544L11.056 1.77071Z" fill="currentColor"/>
</svg>
