<svg width="16" height="16" viewBox="0 0 16 16" fill="none" xmlns="http://www.w3.org/2000/svg">
<path d="M3.50303 6.88424C4.20981 7.26975 5.1166 7.52398 6.11131 7.60142C7.06019 6.16963 8.686 5.22552 10.5323 5.22552C10.8688 5.22552 11.1979 5.25687 11.5169 5.3168V4.81321C11.5169 3.9112 10.8532 3.2 10.0139 2.74218C9.1564 2.27447 8.00455 2 6.75845 2C5.51235 2 4.36049 2.27447 3.50303 2.74218C2.66368 3.2 2 3.9112 2 4.81321V9.4818C2 10.3836 2.66374 11.0948 3.50303 11.5526C4.06255 11.8579 4.74744 12.0809 5.50207 12.199C5.39366 11.8729 5.31606 11.5329 5.27271 11.1822C4.77005 11.0725 4.32498 10.9099 3.96174 10.7118C3.25213 10.3247 2.95784 9.86871 2.95784 9.4818V8.86304C3.12633 8.99435 3.31004 9.11302 3.50303 9.21831C4.00668 9.49306 4.61191 9.70117 5.27815 9.82613C5.32054 9.50447 5.39179 9.1919 5.4892 8.89111C4.89747 8.78339 4.37631 8.60361 3.96174 8.37745C3.25213 7.99034 2.95784 7.53438 2.95784 7.14746V6.529C3.12633 6.6603 3.31003 6.77897 3.50303 6.88424Z" fill="currentColor"/>
<path fill-rule="evenodd" clip-rule="evenodd" d="M10.6874 15.0014C13.0679 15.0014 14.9976 13.0716 14.9976 10.6911C14.9976 8.31063 13.0679 6.38086 10.6874 6.38086C8.30688 6.38086 6.37711 8.31063 6.37711 10.6911C6.37711 13.0716 8.30688 15.0014 10.6874 15.0014ZM10.2181 9.57502C10.1335 9.57502 10.0522 9.60866 9.99237 9.66854C9.93249 9.72841 9.89885 9.80962 9.89885 9.8943C9.89885 9.97898 9.93249 10.0602 9.99237 10.1201C10.0522 10.1799 10.1335 10.2136 10.2181 10.2136H11.176C11.5147 10.2136 11.8395 10.3481 12.079 10.5876C12.3185 10.8271 12.4531 11.152 12.4531 11.4907C12.4531 11.8294 12.3185 12.1542 12.079 12.3938C11.8395 12.6333 11.5147 12.7678 11.176 12.7678H9.73921C9.47471 12.7678 9.26029 12.5534 9.26029 12.2889C9.26029 12.0244 9.47471 11.81 9.73921 11.81H11.176C11.2606 11.81 11.3419 11.7763 11.4017 11.7165C11.4616 11.6566 11.4952 11.5754 11.4952 11.4907C11.4952 11.406 11.4616 11.3248 11.4017 11.2649C11.3419 11.2051 11.2606 11.1714 11.176 11.1714H10.2181C9.87942 11.1714 9.55458 11.0369 9.31507 10.7974C9.07557 10.5579 8.94102 10.233 8.94102 9.8943C8.94102 9.55559 9.07557 9.23075 9.31507 8.99125C9.55458 8.75174 9.87942 8.61719 10.2181 8.61719H11.6549C11.9194 8.61719 12.1338 8.83161 12.1338 9.09611C12.1338 9.3606 11.9194 9.57502 11.6549 9.57502H10.2181Z" fill="currentColor"/>
</svg>
