<svg width="16" height="17" viewBox="0 0 16 17" fill="none" xmlns="http://www.w3.org/2000/svg">
<path fill-rule="evenodd" clip-rule="evenodd" d="M3.46026 2.85385C3.75496 2.56601 4.15466 2.4043 4.57143 2.4043H8.57143C8.68509 2.4043 8.7941 2.4484 8.87447 2.5269L12.8745 6.43388C12.9548 6.51238 13 6.61886 13 6.72988V12.8694C13 13.2765 12.8344 13.6669 12.5397 13.9547C12.245 14.2426 11.8453 14.4043 11.4286 14.4043H4.57143C4.15466 14.4043 3.75496 14.2426 3.46026 13.9547C3.16556 13.6669 3 13.2765 3 12.8694V3.93918C3 3.5321 3.16556 3.1417 3.46026 2.85385ZM4.57143 3.24151C4.38199 3.24151 4.20031 3.31501 4.06635 3.44585C3.9324 3.57669 3.85714 3.75415 3.85714 3.93918V12.8694C3.85714 13.0544 3.9324 13.2319 4.06635 13.3627C4.20031 13.4936 4.38199 13.5671 4.57143 13.5671H11.4286C11.618 13.5671 11.7997 13.4936 11.9336 13.3627C12.0676 13.2319 12.1429 13.0544 12.1429 12.8694V7.09564L8.57793 7.14843C8.46315 7.15013 8.35247 7.10679 8.27069 7.02811C8.18891 6.94943 8.14286 6.842 8.14286 6.72988V3.24151H4.57143ZM9 3.8335L11.4924 6.26797L9 6.30488V3.8335Z" fill="currentColor"/>
<path d="M4.06635 3.44585C4.20031 3.31501 4.38199 3.24151 4.57143 3.24151H8.14286V6.72988C8.14286 6.842 8.18891 6.94943 8.27069 7.02811C8.35247 7.10679 8.46315 7.15013 8.57793 7.14843L12.1429 7.09564V12.8694C12.1429 13.0544 12.0676 13.2319 11.9336 13.3627C11.7997 13.4936 11.618 13.5671 11.4286 13.5671H4.57143C4.38199 13.5671 4.20031 13.4936 4.06635 13.3627C3.9324 13.2319 3.85714 13.0544 3.85714 12.8694V3.93918C3.85714 3.75415 3.9324 3.57669 4.06635 3.44585Z" fill="currentColor"/>
</svg>
