<svg width="16" height="17" viewBox="0 0 16 17" fill="none" xmlns="http://www.w3.org/2000/svg">
<path fill-rule="evenodd" clip-rule="evenodd" d="M4.50701 2.4043C4.10733 2.4043 3.72401 2.5636 3.44139 2.84717C3.15877 3.13073 3 3.51533 3 3.91635V12.7137C3 13.1148 3.15877 13.4994 3.44139 13.7829C3.72401 14.0665 4.10733 14.2258 4.50701 14.2258H6.86991C6.8753 14.1834 6.88344 14.1412 6.8944 14.0993L7.36098 12.3148C7.40316 12.1535 7.48496 12.0065 7.5983 11.8883L11.7976 7.5083C11.9648 7.33387 12.1633 7.19551 12.3818 7.10112C12.4499 7.07172 12.5194 7.04677 12.5901 7.02634V6.66554C12.5901 6.55617 12.5468 6.45128 12.4697 6.37394L8.63368 2.52508C8.5566 2.44774 8.45206 2.4043 8.34305 2.4043H4.50701ZM11.1443 6.2105L8.75406 3.81224V6.24686L11.1443 6.2105Z" fill="currentColor"/>
<path d="M12.5784 8.56946C12.6557 8.4888 12.7475 8.42482 12.8486 8.38117C12.9496 8.33752 13.0579 8.31505 13.1672 8.31505C13.2766 8.31505 13.3849 8.33752 13.4859 8.38117C13.587 8.42482 13.6788 8.4888 13.7561 8.56946C13.8334 8.65011 13.8948 8.74587 13.9366 8.85125C13.9785 8.95663 14 9.06958 14 9.18365C14 9.29772 13.9785 9.41067 13.9366 9.51605C13.8948 9.62143 13.8334 9.71719 13.7561 9.79784L9.78134 13.9437L8.162 14.4043L8.60364 12.7153L12.5784 8.56946Z" fill="currentColor"/>
</svg>
