<svg width="16" height="16" viewBox="0 0 16 16" fill="none" xmlns="http://www.w3.org/2000/svg">
<path d="M2.79459 6.26801C2.46417 6.02708 2 6.26308 2 6.67201V11.75C2 12.4375 2.54 13 3.2 13H12.8C13.46 13 14 12.4375 14 11.75V6.67069C14 6.26176 13.5358 6.02576 13.2054 6.26668L8.43005 9.74872C8.17129 9.9374 7.82689 9.9374 7.56814 9.74872L2.79459 6.26801Z" fill="currentColor"/>
<path d="M13.63 4.04604C13.8077 3.91643 13.8877 3.67879 13.7588 3.50054C13.5393 3.19709 13.1907 3 12.8 3H3.2C2.80882 3 2.45979 3.1976 2.24037 3.50171C2.11175 3.67998 2.19179 3.91738 2.36941 4.04689L7.70451 7.93707C7.88004 8.06506 8.11814 8.06506 8.29368 7.93707L13.63 4.04604Z" fill="currentColor"/>
</svg>
