<svg width="16" height="16" viewBox="0 0 16 16" fill="none" xmlns="http://www.w3.org/2000/svg">
<path fill-rule="evenodd" clip-rule="evenodd" d="M3 3C2.44772 3 2 3.44772 2 4V12C2 12.5523 2.44772 13 3 13H13C13.5523 13 14 12.5523 14 12V4C14 3.44772 13.5523 3 13 3H3ZM6.20761 7.70212C6.46298 7.4351 6.60645 7.07294 6.60645 6.69531C6.60645 6.31769 6.46298 5.95558 6.20761 5.68856C5.95224 5.42154 5.60589 5.27148 5.24475 5.27148C4.8836 5.27148 4.53725 5.42154 4.28188 5.68856C4.02651 5.95558 3.88304 6.31769 3.88304 6.69531C3.88304 7.07294 4.02651 7.4351 4.28188 7.70212C4.53725 7.96914 4.8836 8.11914 5.24475 8.11914C5.60589 8.11914 5.95224 7.96914 6.20761 7.70212ZM3.55238 9.05712C3.31882 9.35017 3.15102 9.68957 3.0564 10.0507C2.92418 10.5553 3.37751 10.9668 3.8992 10.9668H6.59023C7.11193 10.9668 7.56525 10.5553 7.43303 10.0507C7.33842 9.68957 7.17061 9.35017 6.93706 9.05712C6.53463 8.55218 5.96758 8.22319 5.34753 8.13202C5.27937 8.122 5.21006 8.122 5.1419 8.13202C4.52185 8.22319 3.9548 8.55218 3.55238 9.05712ZM12.0703 5.5H9.4668C9.19065 5.5 8.9668 5.72386 8.9668 6C8.9668 6.27614 9.19065 6.5 9.4668 6.5H12.0703C12.3465 6.5 12.5703 6.27614 12.5703 6C12.5703 5.72386 12.3465 5.5 12.0703 5.5ZM9.4668 7.5H12.0703C12.3465 7.5 12.5703 7.72386 12.5703 8C12.5703 8.27614 12.3465 8.5 12.0703 8.5H9.4668C9.19065 8.5 8.9668 8.27614 8.9668 8C8.9668 7.72386 9.19065 7.5 9.4668 7.5ZM10.4487 9.5H9.4668C9.19065 9.5 8.9668 9.72386 8.9668 10C8.9668 10.2761 9.19065 10.5 9.4668 10.5H10.4487C10.7249 10.5 10.9487 10.2761 10.9487 10C10.9487 9.72386 10.7249 9.5 10.4487 9.5Z" fill="currentColor"/>
</svg>
