<svg width="16" height="16" viewBox="0 0 16 16" fill="none" xmlns="http://www.w3.org/2000/svg">
<path d="M4.95278 7.23096C4.93773 7.38804 4.80738 7.51038 4.64958 7.51038H2.32548C2.15017 7.51038 2.01154 7.36033 2.03552 7.18667C2.35022 4.90772 3.98462 3.04105 6.15721 2.35497C6.4163 2.27315 6.60985 2.56791 6.46531 2.79796C5.62387 4.13714 5.1039 5.65365 4.95278 7.23096Z" fill="#22AC14"/>
<path d="M4.95278 7.23096C4.93773 7.38804 4.80738 7.51038 4.64958 7.51038H2.32548C2.15017 7.51038 2.01154 7.36033 2.03552 7.18667C2.35022 4.90772 3.98462 3.04105 6.15721 2.35497C6.4163 2.27315 6.60985 2.56791 6.46531 2.79796C5.62387 4.13714 5.1039 5.65365 4.95278 7.23096Z" fill="black" fill-opacity="0.5"/>
<path d="M6.23175 7.51038C6.05724 7.51038 5.91917 7.36205 5.93794 7.18855C6.12106 5.49585 6.75639 3.65663 7.77596 2.28596C7.88843 2.13476 8.11157 2.13476 8.22404 2.28596C9.24361 3.65663 9.87894 5.49585 10.0621 7.18855C10.0808 7.36205 9.94276 7.51038 9.76824 7.51038H6.23175Z" fill="#22AC14"/>
<path d="M6.23175 7.51038C6.05724 7.51038 5.91917 7.36205 5.93794 7.18855C6.12106 5.49585 6.75639 3.65663 7.77596 2.28596C7.88843 2.13476 8.11157 2.13476 8.22404 2.28596C9.24361 3.65663 9.87894 5.49585 10.0621 7.18855C10.0808 7.36205 9.94276 7.51038 9.76824 7.51038H6.23175Z" fill="black" fill-opacity="0.5"/>
<path d="M13.9645 7.18667C13.9885 7.36033 13.8498 7.51038 13.6745 7.51038H11.3504C11.1926 7.51038 11.0623 7.38804 11.0472 7.23096C10.8961 5.65365 10.3761 4.13714 9.53469 2.79796C9.39015 2.5679 9.5837 2.27315 9.84279 2.35497C12.0154 3.04105 13.6498 4.90772 13.9645 7.18667Z" fill="#22AC14"/>
<path d="M13.9645 7.18667C13.9885 7.36033 13.8498 7.51038 13.6745 7.51038H11.3504C11.1926 7.51038 11.0623 7.38804 11.0472 7.23096C10.8961 5.65365 10.3761 4.13714 9.53469 2.79796C9.39015 2.5679 9.5837 2.27315 9.84279 2.35497C12.0154 3.04105 13.6498 4.90772 13.9645 7.18667Z" fill="black" fill-opacity="0.5"/>
<path d="M9.84279 13.6254C9.5837 13.7072 9.39015 13.4125 9.53469 13.1824C10.3761 11.8432 10.8961 10.3267 11.0472 8.74942C11.0623 8.59234 11.1926 8.47 11.3504 8.47H13.6745C13.8498 8.47 13.9885 8.62005 13.9645 8.79371C13.6498 11.0727 12.0154 12.9393 9.84279 13.6254Z" fill="#22AC14"/>
<path d="M9.84279 13.6254C9.5837 13.7072 9.39015 13.4125 9.53469 13.1824C10.3761 11.8432 10.8961 10.3267 11.0472 8.74942C11.0623 8.59234 11.1926 8.47 11.3504 8.47H13.6745C13.8498 8.47 13.9885 8.62005 13.9645 8.79371C13.6498 11.0727 12.0154 12.9393 9.84279 13.6254Z" fill="black" fill-opacity="0.5"/>
<path d="M9.76824 8.47C9.94276 8.47 10.0808 8.61832 10.0621 8.79182C9.87898 10.4865 9.2436 12.3412 8.22393 13.714C8.11157 13.8652 7.88843 13.8652 7.77607 13.714C6.7564 12.3412 6.12102 10.4865 5.93792 8.79182C5.91917 8.61832 6.05724 8.47 6.23175 8.47H9.76824Z" fill="#22AC14"/>
<path d="M9.76824 8.47C9.94276 8.47 10.0808 8.61832 10.0621 8.79182C9.87898 10.4865 9.2436 12.3412 8.22393 13.714C8.11157 13.8652 7.88843 13.8652 7.77607 13.714C6.7564 12.3412 6.12102 10.4865 5.93792 8.79182C5.91917 8.61832 6.05724 8.47 6.23175 8.47H9.76824Z" fill="black" fill-opacity="0.5"/>
<path d="M2.03552 8.79371C2.01154 8.62005 2.15017 8.47 2.32548 8.47H4.64958C4.80738 8.47 4.93773 8.59234 4.95278 8.74942C5.1039 10.3267 5.62387 11.8432 6.4653 13.1824C6.60985 13.4125 6.4163 13.7072 6.15721 13.6254C3.98462 12.9393 2.35022 11.0727 2.03552 8.79371Z" fill="#22AC14"/>
<path d="M2.03552 8.79371C2.01154 8.62005 2.15017 8.47 2.32548 8.47H4.64958C4.80738 8.47 4.93773 8.59234 4.95278 8.74942C5.1039 10.3267 5.62387 11.8432 6.4653 13.1824C6.60985 13.4125 6.4163 13.7072 6.15721 13.6254C3.98462 12.9393 2.35022 11.0727 2.03552 8.79371Z" fill="black" fill-opacity="0.5"/>
</svg>
