<svg width="16" height="16" viewBox="0 0 16 16" fill="none" xmlns="http://www.w3.org/2000/svg">
<path fill-rule="evenodd" clip-rule="evenodd" d="M2.75 1H13.25C13.714 1.00049 14.1588 1.18503 14.4869 1.51311C14.815 1.84119 14.9995 2.28602 15 2.75V13.25C14.9995 13.714 14.815 14.1588 14.4869 14.4869C14.1588 14.815 13.714 14.9995 13.25 15H2.75C2.28602 14.9995 1.84119 14.815 1.51311 14.4869C1.18503 14.1588 1.00049 13.714 1 13.25V2.75C1.00025 2.28595 1.1847 1.84097 1.51284 1.51284C1.84097 1.1847 2.28595 1.00025 2.75 1ZM10.6255 6.28547V8.02893H12.802L11.9312 10.2055H10.6245V14.9981H8.01121V10.2055H6.26868V8.02893H8.01214V6.28547C8.01214 5.59237 8.28748 4.92766 8.77757 4.43756C9.26767 3.94747 9.93238 3.67213 10.6255 3.67213H12.3689V5.8496H11.4972C11.4586 5.8496 11.4207 5.84931 11.3834 5.84903C10.9556 5.8458 10.6255 5.8433 10.6255 6.28547Z" fill="currentColor"/>
</svg>
