<svg width="15" height="13" viewBox="0 0 15 13" fill="none" xmlns="http://www.w3.org/2000/svg">
<path d="M0.0859375 1.31641C0.0859375 0.764122 0.533653 0.316406 1.08594 0.316406H8.04596C8.59824 0.316406 9.04596 0.764122 9.04596 1.31641V2.32328H6.12982C4.94561 2.32328 3.98561 3.29945 3.98561 4.5036V8.1887L2.72412 9.48375C2.5363 9.67657 2.20923 9.54359 2.20923 9.27442V7.73359H1.08594C0.533653 7.73359 0.0859375 7.28587 0.0859375 6.73359V1.31641Z" fill="currentColor"/>
<path d="M13.0859 3.36821C13.6382 3.36821 14.0859 3.81593 14.0859 4.36821V9.54545C14.0859 10.0977 13.6382 10.5454 13.0859 10.5454H11.9626V12.0159C11.9626 12.2821 11.6417 12.4164 11.4521 12.2296L9.74295 10.5454H6.12592C5.57363 10.5454 5.12592 10.0977 5.12592 9.54545V4.36821C5.12592 3.81593 5.57363 3.36821 6.12592 3.36821H13.0859Z" fill="currentColor"/>
</svg>
