<svg width="16" height="16" viewBox="0 0 16 16" fill="none" xmlns="http://www.w3.org/2000/svg">
<path d="M10.454 3.64573C11.0037 2.99575 10.5417 2 9.69046 2H3.00107C2.14984 2 1.68784 2.99575 2.2375 3.64573L5.00933 6.92342C5.162 7.10395 5.24576 7.33272 5.24576 7.56915V10.182C5.24576 10.5607 5.45977 10.907 5.79855 11.0764L5.99855 11.1764C6.06856 11.2114 6.13987 11.2374 6.21143 11.2549C6.18558 11.1397 6.17194 11.0198 6.17194 10.8967V10.2891C6.17194 9.7067 6.4774 9.19566 6.93686 8.90745C6.81579 8.37883 6.96113 7.80154 7.37289 7.38978L7.49105 7.27162C7.53054 7.14489 7.59518 7.02632 7.68219 6.92342L10.454 3.64573Z" fill="currentColor"/>
<path fill-rule="evenodd" clip-rule="evenodd" d="M9.50435 8.09964C9.4017 8.14223 9.2826 8.1238 9.20402 8.04522L9.02878 7.86998C8.794 7.6352 8.41335 7.6352 8.17857 7.86998L7.86913 8.17943C7.63435 8.41421 7.63435 8.79486 7.86913 9.02964L8.04437 9.20488C8.12295 9.28346 8.14137 9.40255 8.09879 9.5052C8.05622 9.6078 7.95861 9.68 7.84754 9.68H7.60007C7.26819 9.68 6.99915 9.94904 6.99915 10.2809V10.7191C6.99915 11.051 7.26819 11.32 7.60007 11.32H7.84754C7.95861 11.32 8.05622 11.3922 8.09879 11.4948C8.14137 11.5974 8.12295 11.7165 8.04437 11.7951L7.86913 11.9704C7.63435 12.2051 7.63435 12.5858 7.86913 12.8206L8.17857 13.13C8.41335 13.3648 8.794 13.3648 9.02878 13.13L9.20402 12.9548C9.2826 12.8762 9.4017 12.8578 9.50435 12.9004C9.60695 12.9429 9.67915 13.0405 9.67915 13.1516V13.3991C9.67915 13.731 9.94819 14 10.2801 14H10.7182C11.0501 14 11.3191 13.731 11.3191 13.3991V13.1509C11.3191 13.0403 11.3911 12.943 11.4933 12.9006C11.5956 12.8582 11.7142 12.8766 11.7924 12.9549L11.9684 13.1308C12.2034 13.3659 12.5845 13.3659 12.8195 13.1308L13.1286 12.8217C13.3633 12.587 13.3633 12.2065 13.1286 11.9718L12.9538 11.797C12.8749 11.7181 12.8565 11.5985 12.8992 11.4954C12.942 11.3925 13.0399 11.32 13.1514 11.32H13.3982C13.7301 11.32 13.9991 11.051 13.9991 10.7191V10.2809C13.9991 9.94904 13.7301 9.68 13.3982 9.68H13.1508C13.0397 9.68 12.9421 9.6078 12.8995 9.5052C12.8569 9.40255 12.8753 9.28346 12.9539 9.20488L13.1289 9.02993C13.3634 8.79537 13.3634 8.41507 13.1289 8.18051L12.8186 7.87027C12.5841 7.63571 12.2038 7.63571 11.9692 7.87027L11.7943 8.04522C11.7157 8.1238 11.5966 8.14223 11.4939 8.09964C11.3913 8.05707 11.3191 7.95947 11.3191 7.84839V7.60092C11.3191 7.26904 11.0501 7 10.7182 7H10.2801C9.94819 7 9.67915 7.26904 9.67915 7.60092V7.84839C9.67915 7.95947 9.60695 8.05707 9.50435 8.09964ZM9.62415 10.5C9.62415 10.2683 9.71618 10.0447 9.88 9.88086C10.0438 9.71704 10.2664 9.625 10.4981 9.625C10.7302 9.625 10.9534 9.7173 11.1175 9.88147C11.2818 10.0457 11.3741 10.2694 11.3741 10.5017C11.3741 10.7331 11.2822 10.9558 11.1186 11.1194C10.9549 11.2831 10.7311 11.375 10.4996 11.375C10.268 11.375 10.0438 11.283 9.88 11.1191C9.71618 10.9553 9.62415 10.7317 9.62415 10.5Z" fill="currentColor"/>
</svg>
