<svg width="16" height="17" viewBox="0 0 16 17" fill="none" xmlns="http://www.w3.org/2000/svg">
<path fill-rule="evenodd" clip-rule="evenodd" d="M7.02921 2.7822C7.5546 2.27312 8.40643 2.27312 8.93183 2.7822L10.8393 4.63043C10.8749 4.66493 10.9081 4.70088 10.9388 4.73808H11.0695C12.3691 4.73808 13.4227 5.7589 13.4227 7.01814V9.71411H13.6546C14.3977 9.71411 15 10.2977 15 11.0177V13.0968C15 13.8168 14.3977 14.4004 13.6546 14.4004H11.5089C10.7659 14.4004 10.1636 13.8168 10.1636 13.0968V11.0177C10.1636 10.2978 10.7659 9.71411 11.5089 9.71411H11.7397V7.01814C11.7397 6.65951 11.4397 6.36879 11.0695 6.36879H10.9368C10.9066 6.40512 10.8741 6.44025 10.8393 6.47399L8.93183 8.32222C8.40644 8.8313 7.55461 8.8313 7.02921 8.32222L5.12176 6.47399C5.08694 6.44025 5.05443 6.40512 5.02423 6.36879H4.9297C4.55958 6.36879 4.25954 6.65951 4.25954 7.01814V9.85982C5.1803 10.1909 5.83642 11.0498 5.83642 12.0573C5.83642 13.3513 4.75375 14.4004 3.41821 14.4004C2.08267 14.4004 1 13.3513 1 12.0573C1 11.05 1.65598 10.1911 2.57659 9.85992V7.01814C2.57659 5.7589 3.63011 4.73808 4.9297 4.73808H5.0222C5.05297 4.70088 5.08616 4.66493 5.12176 4.63043L7.02921 2.7822ZM7.98052 4.16659L6.55051 5.55221L7.98052 6.93783L9.41053 5.55221L7.98052 4.16659ZM3.41821 11.3448C3.01214 11.3448 2.68295 11.6638 2.68295 12.0573C2.68295 12.4507 3.01214 12.7697 3.41821 12.7697C3.82428 12.7697 4.15347 12.4507 4.15347 12.0573C4.15347 11.6638 3.82428 11.3448 3.41821 11.3448ZM11.8465 11.3448V12.7697H13.317V11.3448H11.8465Z" fill="currentColor"/>
<path d="M6.55051 5.55221L7.98052 4.16659L9.41053 5.55221L7.98052 6.93783L6.55051 5.55221Z" fill="currentColor"/>
<path d="M2.68295 12.0573C2.68295 11.6638 3.01214 11.3448 3.41821 11.3448C3.82428 11.3448 4.15347 11.6638 4.15347 12.0573C4.15347 12.4507 3.82428 12.7697 3.41821 12.7697C3.01214 12.7697 2.68295 12.4507 2.68295 12.0573Z" fill="currentColor"/>
<path d="M11.8465 12.7697V11.3448H13.317V12.7697H11.8465Z" fill="currentColor"/>
</svg>
