<svg width="16" height="16" viewBox="0 0 16 16" fill="none" xmlns="http://www.w3.org/2000/svg">
<path d="M10.5058 12.0618C10.3108 12.3995 9.8554 12.5015 9.48854 12.2896L6.7226 10.6927L5.11428 13.4784C4.97607 13.7178 4.65315 13.7901 4.39303 13.6399C4.13291 13.4898 4.03409 13.174 4.1723 12.9346L5.78062 10.1489L3.02291 8.55672C2.65601 8.34488 2.51662 7.89942 2.71157 7.56176C2.78123 7.4411 2.88812 7.34554 3.01878 7.28711L5.64682 6.11172C5.83209 6.02886 5.98365 5.89337 6.08242 5.72229L7.54162 3.19489C7.66872 2.97475 7.57765 2.68422 7.33845 2.54612C7.09945 2.40813 7.00846 2.11786 7.13545 1.8979C7.26244 1.67794 7.55914 1.61149 7.79814 1.74948L12.995 4.74991C13.234 4.8879 13.3248 5.17807 13.1978 5.39802C13.0708 5.61798 12.774 5.68432 12.535 5.54633C12.2958 5.40823 11.9986 5.47463 11.8715 5.69477L10.4124 8.22204C10.3136 8.39319 10.272 8.5923 10.293 8.79428L10.59 11.6583C10.6047 11.8007 10.5754 11.9411 10.5058 12.0618Z" fill="currentColor"/>
</svg>
