<svg width="16" height="17" viewBox="0 0 16 17" fill="none" xmlns="http://www.w3.org/2000/svg">
<path d="M13.7783 8.38998C14.2331 8.80145 13.9413 9.55577 13.3273 9.55577H12.6446V13.7307C12.6446 14.1006 12.344 14.4004 11.9732 14.4004H9.74512C9.55974 14.4004 9.40945 14.2505 9.40945 14.0655V11.2354C9.40945 11.0505 9.25917 10.9005 9.07379 10.9005H6.9464C6.76102 10.9005 6.61074 11.0505 6.61074 11.2354V14.0655C6.61074 14.2505 6.46045 14.4004 6.27507 14.4004H4.10549C3.73472 14.4004 3.43415 14.1006 3.43415 13.7307V9.55577H2.67268C2.05845 9.55577 1.76676 8.80103 2.22203 8.38971L7.55262 3.57371C7.80852 3.34251 8.19848 3.34263 8.45423 3.57398L13.7783 8.38998Z" fill="currentColor"/>
</svg>
