<svg width="16" height="16" viewBox="0 0 16 16" fill="none" xmlns="http://www.w3.org/2000/svg">
<path fill-rule="evenodd" clip-rule="evenodd" d="M12.5695 2.00959C12.8072 1.97907 13.0486 2.01655 13.2658 2.11768C13.483 2.21882 13.667 2.37946 13.7966 2.58098C13.9262 2.7825 13.996 3.01662 13.9979 3.2562L13.9979 11.2643L13.9979 11.2711C13.996 11.5107 13.9262 11.7448 13.7966 11.9463C13.667 12.1479 13.483 12.3085 13.2658 12.4096C13.0486 12.5108 12.8072 12.5483 12.5695 12.5177C12.3319 12.4872 12.1078 12.3899 11.9232 12.2372L11.9192 12.2339C10.6854 11.2002 9.42936 10.6852 8.48513 10.4283C8.40021 10.4053 8.31789 10.3843 8.23841 10.3652V12.1744L8.23014 12.4019C8.20895 12.586 8.14739 12.7638 8.04915 12.9223C7.92519 13.1223 7.74775 13.2837 7.5369 13.3882L7.53562 13.3888L6.57972 13.8642C6.41124 13.9497 6.22569 13.9962 6.03678 14.0003C5.84538 14.0045 5.65555 13.9651 5.48164 13.8851C5.30773 13.805 5.15431 13.6865 5.033 13.5384C4.9131 13.392 4.82768 13.2206 4.783 13.0368L4.05038 10.045C3.60343 9.90606 3.19229 9.66015 2.85525 9.32311C2.30905 8.77691 2.0022 8.03611 2.0022 7.26366C2.0022 6.49122 2.30905 5.75042 2.85525 5.20422C3.40145 4.65802 4.14225 4.35117 4.91469 4.35117H6.96883L6.98148 4.3509C6.99501 4.35055 7.01851 4.34976 7.05129 4.34799C7.11688 4.34446 7.21938 4.33705 7.35325 4.32156C7.62132 4.29054 8.01312 4.22736 8.48513 4.09898C9.42936 3.84215 10.6854 3.32709 11.9192 2.29345L11.9232 2.29013C12.1078 2.13739 12.3319 2.04012 12.5695 2.00959ZM5.84349 10.1762H6.52723L6.52723 11.9792L6.3093 12.0876L5.84349 10.1762ZM6.52723 8.46498H4.91469C4.59609 8.46498 4.29053 8.33841 4.06524 8.11312C3.83995 7.88783 3.71338 7.58227 3.71338 7.26366C3.71338 6.94506 3.83995 6.6395 4.06524 6.41421C4.29053 6.18892 4.59609 6.06235 4.91469 6.06235H6.52723L6.52723 8.46498Z" fill="currentColor"/>
</svg>
