<svg width="16" height="16" viewBox="0 0 16 16" fill="none" xmlns="http://www.w3.org/2000/svg">
    <path fill-rule="evenodd" clip-rule="evenodd" d="M13.1592 7.99998C13.1592 5.15064 10.8494 2.84079 8.00004 2.84079C5.1507 2.84079 2.84085 5.15064 2.84085 7.99998C2.84085 10.8493 5.1507 13.1592 8.00004 13.1592C10.8494 13.1592 13.1592 10.8493 13.1592 7.99998ZM8.00004 1.50079C11.5894 1.50079 14.4992 4.41058 14.4992 7.99998C14.4992 11.5894 11.5894 14.4992 8.00004 14.4992C4.41064 14.4992 1.50085 11.5894 1.50085 7.99998C1.50085 4.41058 4.41064 1.50079 8.00004 1.50079ZM7.16167 5.39671C7.16167 4.93555 7.53551 4.56171 7.99667 4.56171H8.00333C8.46449 4.56171 8.83833 4.93555 8.83833 5.39671C8.83833 5.85786 8.46449 6.23171 8.00333 6.23171H7.99667C7.53551 6.23171 7.16167 5.85786 7.16167 5.39671ZM7.99979 6.95437C8.46095 6.95477 8.83447 7.32893 8.83407 7.79009L8.83163 10.6063C8.83123 11.0674 8.45706 11.4409 7.9959 11.4405C7.53475 11.4401 7.16123 11.066 7.16163 10.6048L7.16407 7.78864C7.16447 7.32749 7.53864 6.95397 7.99979 6.95437Z" fill="currentColor"/>
</svg>
