<svg width="17" height="16" viewBox="0 0 17 16" fill="none" xmlns="http://www.w3.org/2000/svg">
<path d="M15.4607 5.11369C15.4271 4.36829 15.3067 3.85829 15.1358 3.41273C14.9566 2.95316 14.7185 2.56085 14.3293 2.17414C13.94 1.78743 13.5507 1.54363 13.0914 1.36709C12.6461 1.19335 12.1364 1.07566 11.3915 1.04203C10.6437 1.00841 10.4057 1 8.5069 1C6.60532 1 6.36727 1.00841 5.62232 1.04203C4.87737 1.07566 4.36767 1.19616 3.92238 1.36709C3.46029 1.54644 3.06821 1.78463 2.68174 2.17414C2.29526 2.56365 2.05161 2.95316 1.87517 3.41273C1.70434 3.85829 1.58392 4.36829 1.55031 5.11369C1.5167 5.86189 1.5083 6.10008 1.5083 8C1.5083 9.90272 1.5167 10.1409 1.55031 10.8863C1.58392 11.6317 1.70434 12.1417 1.87517 12.5873C2.05441 13.0468 2.29246 13.4392 2.68174 13.8259C3.06821 14.2154 3.46029 14.4564 3.91958 14.6329C4.36487 14.8066 4.87457 14.9243 5.61952 14.958C6.36727 14.9916 6.60532 15 8.5041 15C10.4057 15 10.6437 14.9916 11.3887 14.958C12.1336 14.9243 12.6433 14.8038 13.0886 14.6329C13.5479 14.4536 13.94 14.2154 14.3265 13.8259C14.7129 13.4363 14.9566 13.0468 15.133 12.5873C15.3067 12.1417 15.4243 11.6317 15.4579 10.8863C15.4915 10.1381 15.4999 9.89992 15.4999 8C15.4999 6.10008 15.4943 5.85909 15.4607 5.11369ZM14.2032 10.8303C14.1724 11.514 14.0576 11.8867 13.9624 12.1305C13.8364 12.4556 13.6823 12.691 13.4359 12.9376C13.1894 13.1841 12.957 13.3327 12.6293 13.4644C12.3829 13.5596 12.0104 13.6745 11.3299 13.7054C10.5933 13.739 10.3721 13.7474 8.5013 13.7474C6.63052 13.7474 6.40928 13.739 5.67273 13.7054C4.9894 13.6745 4.61692 13.5596 4.37327 13.4644C4.04841 13.3383 3.81316 13.1841 3.56671 12.9376C3.32026 12.691 3.17183 12.4584 3.04021 12.1305C2.94499 11.8839 2.83017 11.5112 2.79936 10.8303C2.76575 10.0933 2.75735 9.8719 2.75735 8C2.75735 6.1281 2.76575 5.90673 2.79936 5.16974C2.83017 4.48599 2.94499 4.11329 3.04021 3.8695C3.16623 3.54444 3.32026 3.30905 3.56671 3.06245C3.81316 2.81585 4.04561 2.66733 4.37327 2.53563C4.61972 2.44035 4.9922 2.32546 5.67273 2.29464C6.40928 2.26101 6.63052 2.2526 8.5013 2.2526C10.3721 2.2526 10.5933 2.26101 11.3299 2.29464C12.0132 2.32546 12.3857 2.44035 12.6293 2.53563C12.9542 2.66173 13.1894 2.81585 13.4359 3.06245C13.6823 3.30905 13.8308 3.54163 13.9624 3.8695C14.0576 4.11609 14.1724 4.48879 14.2032 5.16974C14.2368 5.90673 14.2452 6.1281 14.2452 8C14.2452 9.8719 14.234 10.0933 14.2032 10.8303Z" fill="url(#paint0_linear_14146_4443)"/>
<path d="M8.50119 4.40192C6.51279 4.40192 4.90527 6.01321 4.90527 7.99999C4.90527 9.98959 6.5156 11.5981 8.50119 11.5981C10.4868 11.5981 12.0971 9.98398 12.0971 7.99999C12.0971 6.0104 10.4896 4.40192 8.50119 4.40192ZM8.50119 10.3343C7.21293 10.3343 6.16833 9.28903 6.16833 7.99999C6.16833 6.71096 7.21293 5.66573 8.50119 5.66573C9.78945 5.66573 10.8341 6.71096 10.8341 7.99999C10.8341 9.28903 9.78945 10.3343 8.50119 10.3343Z" fill="url(#paint1_linear_14146_4443)"/>
<path d="M12.2371 5.10249C12.7012 5.10249 13.0773 4.72611 13.0773 4.26182C13.0773 3.79752 12.7012 3.42114 12.2371 3.42114C11.7731 3.42114 11.397 3.79752 11.397 4.26182C11.397 4.72611 11.7731 5.10249 12.2371 5.10249Z" fill="#BC30A0"/>
<path d="M1.5 8C1.5 9.90272 1.50841 10.1409 1.54203 10.8863C1.57566 11.6317 1.69616 12.1417 1.86709 12.5873C2.04644 13.0468 2.28463 13.4392 2.67414 13.8259C3.06085 14.2126 3.45316 14.4564 3.91273 14.6329C4.35829 14.8066 4.86829 14.9243 5.61369 14.958C6.36189 14.9916 6.60008 15 8.5 15C10.4027 15 10.6409 14.9916 11.3863 14.958C12.1317 14.9243 12.6417 14.8038 13.0873 14.6329C13.5468 14.4536 13.9392 14.2154 14.3259 13.8259C14.7126 13.4392 14.9564 13.0468 15.1329 12.5873C15.3066 12.1417 15.4243 11.6317 15.458 10.8863C15.4916 10.1381 15.5 9.89992 15.5 8C15.5 6.09728 15.4916 5.85909 15.458 5.11369C15.4243 4.36829 15.3038 3.85829 15.1329 3.41273C14.9536 2.95316 14.7154 2.56085 14.3259 2.17414C13.942 1.78463 13.5496 1.54363 13.0901 1.36709C12.6445 1.19335 12.1345 1.07566 11.3891 1.04203C10.6409 1.00841 10.4027 1 8.5028 1C6.60008 1 6.36189 1.00841 5.61649 1.04203C4.8711 1.07566 4.36109 1.19616 3.91553 1.36709C3.45596 1.54644 3.06365 1.78463 2.67694 2.17414C2.29023 2.56365 2.04644 2.95316 1.8699 3.41273C1.69616 3.85829 1.57566 4.36829 1.54203 5.11369C1.50841 5.85909 1.5 6.09728 1.5 8ZM2.76381 8C2.76381 6.13091 2.77222 5.90673 2.80584 5.16974C2.83667 4.48599 2.95156 4.11329 3.04684 3.8695C3.17294 3.54444 3.32706 3.30905 3.57366 3.06245C3.82026 2.81585 4.05284 2.66733 4.3807 2.53563C4.6273 2.44035 5 2.32546 5.68094 2.29464C6.41793 2.26101 6.63931 2.2526 8.51121 2.2526C10.3831 2.2526 10.6045 2.26101 11.3415 2.29464C12.0252 2.32546 12.3979 2.44035 12.6417 2.53563C12.9668 2.66173 13.2022 2.81585 13.4488 3.06245C13.6954 3.30905 13.8439 3.54163 13.9756 3.8695C14.0709 4.11609 14.1857 4.48879 14.2166 5.16974C14.2502 5.90673 14.2586 6.1281 14.2586 8C14.2586 9.8719 14.2502 10.0933 14.2166 10.8303C14.1857 11.514 14.0709 11.8867 13.9756 12.1305C13.8495 12.4556 13.6954 12.691 13.4488 12.9376C13.2022 13.1841 12.9696 13.3327 12.6417 13.4644C12.3951 13.5596 12.0224 13.6745 11.3415 13.7054C10.6045 13.739 10.3831 13.7474 8.51121 13.7474C6.63931 13.7474 6.41793 13.739 5.68094 13.7054C4.9972 13.6745 4.6245 13.5596 4.3807 13.4644C4.05564 13.3383 3.82026 13.1841 3.57366 12.9376C3.32706 12.691 3.17854 12.4584 3.04684 12.1305C2.95156 11.8839 2.83667 11.5112 2.80584 10.8303C2.76942 10.0933 2.76381 9.8691 2.76381 8Z" fill="url(#paint2_linear_14146_4443)"/>
<defs>
<linearGradient id="paint0_linear_14146_4443" x1="13.3389" y1="2.07053" x2="3.21084" y2="14.4794" gradientUnits="userSpaceOnUse">
<stop stop-color="#AE3DAE"/>
<stop offset="0.0468721" stop-color="#B23BA6"/>
<stop offset="0.1216" stop-color="#BD368E"/>
<stop offset="0.2148" stop-color="#CE2E69"/>
<stop offset="0.3216" stop-color="#E62335"/>
<stop offset="0.418" stop-color="#FF1800"/>
</linearGradient>
<linearGradient id="paint1_linear_14146_4443" x1="10.2161" y1="5.11416" x2="6.53681" y2="11.2966" gradientUnits="userSpaceOnUse">
<stop stop-color="#E12F6A"/>
<stop offset="0.1705" stop-color="#EA3751"/>
<stop offset="0.3563" stop-color="#F13D3E"/>
<stop offset="0.5467" stop-color="#F64133"/>
<stop offset="0.7469" stop-color="#F7422F"/>
<stop offset="0.7946" stop-color="#F74C2F"/>
<stop offset="0.8743" stop-color="#F7652F"/>
<stop offset="0.9757" stop-color="#F78F2E"/>
<stop offset="1" stop-color="#F79A2E"/>
</linearGradient>
<linearGradient id="paint2_linear_14146_4443" x1="11.6783" y1="0.423649" x2="5.48348" y2="15.1988" gradientUnits="userSpaceOnUse">
<stop offset="0.2341" stop-color="#9E35A5" stop-opacity="0"/>
<stop offset="0.4512" stop-color="#D42F7F" stop-opacity="0.5"/>
<stop offset="0.7524" stop-color="#F7772E"/>
<stop offset="0.9624" stop-color="#FEF780"/>
</linearGradient>
</defs>
</svg>
