<svg width="7" height="8" viewBox="0 0 7 8" fill="none" xmlns="http://www.w3.org/2000/svg">
<path fill-rule="evenodd" clip-rule="evenodd" d="M0.223316 1.03972C0.52107 0.741968 1.00383 0.741968 1.30158 1.03972L3.5 3.23814L5.69842 1.03972C5.99617 0.741968 6.47893 0.741968 6.77668 1.03972C7.07444 1.33748 7.07444 1.82023 6.77668 2.11799L4.57826 4.31641L6.77668 6.51483C7.07444 6.81258 7.07444 7.29534 6.77668 7.59309C6.47893 7.89084 5.99617 7.89084 5.69842 7.59309L3.5 5.39467L1.30158 7.59309C1.00383 7.89084 0.52107 7.89084 0.223316 7.59309C-0.0744386 7.29534 -0.0744386 6.81258 0.223316 6.51483L2.42174 4.31641L0.223316 2.11799C-0.0744386 1.82023 -0.0744386 1.33748 0.223316 1.03972Z" fill="currentColor"/>
</svg>
