<svg width="17" height="16" viewBox="0 0 17 16" fill="none" xmlns="http://www.w3.org/2000/svg">
<path d="M8.0625 9.37953C10.3579 9.37953 12.2187 7.50371 12.2187 5.18976C12.2187 2.87582 10.3579 1 8.0625 1C5.76707 1 3.90625 2.87582 3.90625 5.18976C3.90625 7.50371 5.76707 9.37953 8.0625 9.37953Z" fill="#036C70"/>
<path d="M11.9453 12.4668C13.9085 12.4668 15.5 10.8624 15.5 8.8834C15.5 6.90437 13.9085 5.30005 11.9453 5.30005C9.98211 5.30005 8.39062 6.90437 8.39062 8.8834C8.39062 10.8624 9.98211 12.4668 11.9453 12.4668Z" fill="#1A9BA1"/>
<path d="M8.5 15.1129C10.0706 15.1129 11.3437 13.8294 11.3437 12.2462C11.3437 10.663 10.0706 9.37952 8.5 9.37952C6.92944 9.37952 5.65625 10.663 5.65625 12.2462C5.65625 13.8294 6.92944 15.1129 8.5 15.1129Z" fill="#37C6D0"/>
<path opacity="0.1" d="M8.79181 4.08722H4.05194C3.88429 4.70879 3.86098 5.36095 3.98382 5.99308C4.10665 6.6252 4.37233 7.22029 4.76023 7.73216C5.14813 8.24404 5.64782 8.65892 6.22051 8.94462C6.79321 9.23032 7.42351 9.37915 8.0625 9.37955C8.18368 9.37955 8.30356 9.37382 8.42256 9.36368L8.42475 9.38044C7.68381 9.40021 6.9798 9.71082 6.46269 10.2461C5.94557 10.7814 5.65622 11.4991 5.65625 12.2462C5.65625 12.3203 5.65902 12.3938 5.66456 12.4667H8.79181C8.94634 12.4663 9.0944 12.4042 9.20367 12.294C9.31294 12.1839 9.37453 12.0346 9.37499 11.8789V4.67511C9.37453 4.51933 9.31294 4.37007 9.20367 4.25992C9.0944 4.14977 8.94634 4.08768 8.79181 4.08722Z" fill="black"/>
<path opacity="0.2" d="M8.35439 4.5282H3.95752C3.86295 5.12678 3.89827 5.73891 4.06105 6.32241C4.22383 6.9059 4.5102 7.44686 4.90041 7.90801C5.29062 8.36916 5.7754 8.73951 6.32131 8.99355C6.86723 9.24759 7.4613 9.37927 8.06258 9.37951C8.18377 9.3795 8.30364 9.37377 8.42264 9.36363L8.42483 9.38039C8.00215 9.39197 7.58734 9.49835 7.21056 9.6918C6.83378 9.88525 6.5045 10.1609 6.24665 10.4987C5.98879 10.8365 5.80886 11.228 5.71991 11.6447C5.63097 12.0614 5.63525 12.4929 5.73246 12.9077H8.35439C8.50892 12.9073 8.65699 12.8452 8.76626 12.735C8.87553 12.6249 8.93712 12.4756 8.93758 12.3198V5.11609C8.93712 4.96031 8.87553 4.81105 8.76626 4.7009C8.65699 4.59075 8.50892 4.52866 8.35439 4.5282Z" fill="black"/>
<path opacity="0.2" d="M8.35439 4.5282H3.95752C3.86295 5.12678 3.89827 5.73891 4.06105 6.32241C4.22383 6.9059 4.5102 7.44686 4.90041 7.90801C5.29062 8.36916 5.7754 8.73951 6.32131 8.99355C6.86723 9.24759 7.4613 9.37927 8.06258 9.37951C8.18377 9.3795 8.30364 9.37377 8.42264 9.36363L8.42483 9.38039C7.7216 9.39902 7.05018 9.67974 6.54031 10.1683C6.03043 10.6569 5.71829 11.3186 5.66421 12.0257H8.35439C8.50892 12.0252 8.65699 11.9631 8.76626 11.853C8.87553 11.7428 8.93712 11.5936 8.93758 11.4378V5.11609C8.93712 4.96031 8.87553 4.81105 8.76626 4.7009C8.65699 4.59075 8.50892 4.52866 8.35439 4.5282Z" fill="black"/>
<path opacity="0.2" d="M7.91689 4.5282H3.95752C3.86295 5.12678 3.89827 5.73891 4.06105 6.32241C4.22383 6.9059 4.5102 7.44686 4.90041 7.90801C5.29062 8.36916 5.7754 8.73951 6.32131 8.99355C6.86723 9.24759 7.4613 9.37927 8.06258 9.37951C8.18377 9.3795 8.30364 9.37377 8.42264 9.36363L8.42483 9.38039C7.7216 9.39902 7.05018 9.67974 6.54031 10.1683C6.03043 10.6569 5.71829 11.3186 5.66421 12.0257H7.91689C8.07142 12.0252 8.21949 11.9631 8.32876 11.853C8.43803 11.7428 8.49962 11.5936 8.50008 11.4378V5.11609C8.49962 4.96031 8.43803 4.81105 8.32876 4.7009C8.21949 4.59075 8.07142 4.52866 7.91689 4.5282Z" fill="black"/>
<path d="M2.08319 4.5282H7.91681C8.07148 4.5282 8.21981 4.59014 8.32918 4.70039C8.43855 4.81064 8.49999 4.96017 8.49999 5.11609V10.9968C8.49999 11.1527 8.43855 11.3022 8.32918 11.4125C8.21981 11.5227 8.07148 11.5846 7.91681 11.5846H2.08319C1.92852 11.5846 1.78018 11.5227 1.67081 11.4125C1.56144 11.3022 1.5 11.1527 1.5 10.9968V5.11609C1.5 4.96017 1.56144 4.81064 1.67081 4.70039C1.78018 4.59014 1.92852 4.5282 2.08319 4.5282Z" fill="#03787C"/>
<path d="M3.98079 7.97927C3.8334 7.88075 3.71038 7.7495 3.62116 7.59558C3.53426 7.43481 3.49095 7.25378 3.4956 7.07075C3.48798 6.82304 3.57097 6.58116 3.72879 6.39113C3.89447 6.20078 4.10873 6.05984 4.34829 5.98362C4.62135 5.89294 4.90737 5.84824 5.19485 5.85131C5.57287 5.8373 5.95038 5.8906 6.31003 6.00876V6.80261C6.15372 6.70715 5.9835 6.63705 5.8056 6.59488C5.61248 6.54699 5.41429 6.523 5.21541 6.52344C5.00584 6.51579 4.79761 6.56017 4.60904 6.65266C4.53786 6.68367 4.47722 6.73495 4.43455 6.80021C4.39188 6.86547 4.36905 6.94187 4.36885 7.02004C4.36797 7.11683 4.40454 7.21017 4.47079 7.28024C4.54949 7.36243 4.64246 7.42939 4.7451 7.47782C4.86001 7.53545 5.03151 7.6119 5.2596 7.70716C5.28493 7.71516 5.30964 7.72503 5.33354 7.73671C5.55853 7.8255 5.77559 7.9335 5.98235 8.05954C6.13905 8.15686 6.27056 8.29034 6.36603 8.44897C6.46436 8.62844 6.5123 8.83153 6.50472 9.03642C6.5159 9.29079 6.4387 9.54112 6.28641 9.74426C6.13442 9.93092 5.93129 10.0684 5.70235 10.1394C5.4332 10.2246 5.15228 10.2658 4.87022 10.2616C4.61778 10.2626 4.36572 10.2417 4.11685 10.199C3.90617 10.1653 3.70045 10.1054 3.50435 10.0208V9.18195C3.69197 9.31698 3.90165 9.41774 4.12385 9.47965C4.34464 9.54916 4.5742 9.58629 4.80547 9.5899C5.01966 9.60367 5.23349 9.5579 5.42366 9.4576C5.48852 9.42004 5.54209 9.36549 5.57868 9.29972C5.61527 9.23395 5.63351 9.15942 5.63147 9.08405C5.63191 9.031 5.62184 8.9784 5.60186 8.92933C5.58188 8.88026 5.55238 8.8357 5.5151 8.79826C5.42111 8.70549 5.31243 8.62918 5.19354 8.57245C5.05674 8.50307 4.85462 8.41192 4.58716 8.29902C4.37499 8.21302 4.17186 8.10591 3.98079 7.97927Z" fill="white"/>
</svg>
