<svg width="20" height="20" viewBox="0 0 20 24" fill="none" xmlns="http://www.w3.org/2000/svg">
<rect x="0.00390625" y="0.523438" width="20" height="20" rx="10" fill="url(#paint0_linear_1881_205303)"/>
<path d="M6.09985 9.22444C5.85203 9.04375 5.50391 9.22075 5.50391 9.52744V13.3359C5.50391 13.8516 5.90891 14.2734 6.40391 14.2734H13.6039C14.0989 14.2734 14.5039 13.8516 14.5039 13.3359V9.52645C14.5039 9.21976 14.1558 9.04275 13.908 9.22345L10.3264 11.835C10.1324 11.9765 9.87408 11.9765 9.68001 11.835L6.09985 9.22444Z" fill="white"/>
<path d="M14.2264 7.55796C14.3597 7.46076 14.4197 7.28253 14.323 7.14884C14.1584 6.92126 13.8969 6.77344 13.6039 6.77344H6.40391C6.11052 6.77344 5.84875 6.92164 5.68418 7.14972C5.58771 7.28342 5.64775 7.46147 5.78096 7.55861L9.78229 10.4762C9.91394 10.5722 10.0925 10.5722 10.2242 10.4762L14.2264 7.55796Z" fill="white"/>
<defs>
<linearGradient id="paint0_linear_1881_205303" x1="20.0039" y1="0.523439" x2="1.60391" y2="20.5234" gradientUnits="userSpaceOnUse">
<stop stop-color="#FFAC07"/>
<stop offset="1" stop-color="#FF7700"/>
</linearGradient>
</defs>
</svg>
