<svg width="16" height="16" viewBox="0 0 16 16" fill="none" xmlns="http://www.w3.org/2000/svg">
<path fill-rule="evenodd" clip-rule="evenodd" d="M8.67553 3.30182C8.67553 2.85899 9.03452 2.5 9.47735 2.5H12.6017C13.0975 2.5 13.4995 2.90198 13.4995 3.39784V6.52217C13.4995 6.965 13.1405 7.32398 12.6977 7.32398C12.2549 7.32398 11.8959 6.965 11.8959 6.52217V5.23993L7.61104 9.53408C7.29825 9.84755 6.79057 9.8481 6.4771 9.53531C6.16363 9.22252 6.16308 8.71484 6.47587 8.40137L10.7643 4.10363H9.47735C9.03452 4.10363 8.67553 3.74465 8.67553 3.30182ZM5.22234 4.10363C4.60449 4.10363 4.10363 4.60449 4.10363 5.22234V10.7776C4.10363 11.3954 4.60449 11.8963 5.22234 11.8963H10.7776C11.3954 11.8963 11.8963 11.3954 11.8963 10.7776V9.78139C11.8963 9.33856 12.2553 8.97958 12.6981 8.97958C13.1409 8.97958 13.4999 9.33856 13.4999 9.78139V10.7776C13.4999 12.2811 12.2811 13.4999 10.7776 13.4999H5.22234C3.71883 13.4999 2.5 12.2811 2.5 10.7776V5.22234C2.5 3.71883 3.71883 2.5 5.22234 2.5H6.18746C6.63029 2.5 6.98928 2.85899 6.98928 3.30182C6.98928 3.74465 6.63029 4.10363 6.18746 4.10363H5.22234Z" fill="currentColor"/>
</svg>
