<svg width="16" height="17" viewBox="0 0 16 17" fill="none" xmlns="http://www.w3.org/2000/svg">
<path d="M10.6477 3.7921C10.0849 3.98314 9.4883 4.26947 8.94174 4.69091C8.89082 4.73017 8.85784 4.78936 8.85784 4.85366V14.2763C8.85784 14.3201 8.90952 14.3396 8.93467 14.3038C9.31132 13.7685 10.03 13.3802 10.9124 13.1213C11.774 12.8685 12.6597 12.7776 13.1956 12.7466C13.6472 12.7204 14 12.3491 14 11.8998V4.25019C14 3.79737 13.6424 3.42414 13.187 3.40169L13.1839 3.40154L13.1785 3.40131L13.1631 3.40071C13.1509 3.40028 13.1346 3.39979 13.1146 3.39938C13.0747 3.39856 13.0196 3.39803 12.9514 3.39884C12.815 3.40044 12.6247 3.40734 12.3953 3.428C11.9394 3.46907 11.3143 3.56581 10.6477 3.7921Z" fill="currentColor"/>
<path d="M7.06679 14.3046C7.09196 14.3403 7.14355 14.3208 7.14355 14.2771V4.85559C7.14355 4.79051 7.11013 4.73061 7.05859 4.69087C6.51205 4.26945 5.91539 3.98312 5.35259 3.7921C4.6859 3.5658 4.06074 3.46906 3.60478 3.428C3.37541 3.40734 3.18503 3.40044 3.04866 3.39884C2.98038 3.39803 2.92533 3.39856 2.88537 3.39938C2.86539 3.39979 2.84915 3.40028 2.83688 3.40071L2.82148 3.40131L2.81607 3.40154L2.81394 3.40164L2.8122 3.40173C2.35727 3.42415 2 3.79701 2 4.24937V11.8999C2 12.3484 2.35168 12.7194 2.80252 12.7464C3.3393 12.7786 4.22567 12.8705 5.08792 13.1237C5.97123 13.383 6.69031 13.7709 7.06679 14.3046Z" fill="currentColor"/>
</svg>
