<svg width="16" height="17" viewBox="0 0 16 17" fill="none" xmlns="http://www.w3.org/2000/svg">
<path fill-rule="evenodd" clip-rule="evenodd" d="M12.7899 4.72458C13.07 4.44444 13.07 3.99025 12.7899 3.71011C12.5098 3.42996 12.0556 3.42996 11.7754 3.71011L8 7.48552L4.22458 3.71011C3.94444 3.42996 3.49025 3.42996 3.21011 3.71011C2.92996 3.99025 2.92996 4.44444 3.21011 4.72458L6.98552 8.5L3.21011 12.2754C2.92996 12.5556 2.92996 13.0098 3.21011 13.2899C3.49025 13.57 3.94444 13.57 4.22458 13.2899L8 9.51448L11.7754 13.2899C12.0556 13.57 12.5098 13.57 12.7899 13.2899C13.07 13.0098 13.07 12.5556 12.7899 12.2754L9.01448 8.5L12.7899 4.72458Z" fill="white"/>
</svg>
