<svg width="17" height="17" viewBox="0 0 17 17" fill="none" xmlns="http://www.w3.org/2000/svg">
<path fill-rule="evenodd" clip-rule="evenodd" d="M2.99567 2.99567C3.31303 2.6783 3.74348 2.5 4.19231 2.5H10.9615C11.0839 2.5 11.2013 2.54863 11.2879 2.63518L14.3648 5.7121C14.4514 5.79866 14.5 5.91605 14.5 6.03846V7.33067C14.3227 7.35434 14.1489 7.40099 13.9829 7.46974C13.7323 7.57354 13.5046 7.7257 13.3128 7.91751L11.3611 9.86919C11.1777 9.64688 10.9 9.50517 10.5893 9.50517H6.40994C5.85766 9.50517 5.40994 9.95288 5.40994 10.5052V13.0857H8.26351C8.24807 13.1239 8.23484 13.1632 8.22392 13.2032L7.87025 14.5H4.19231C3.74348 14.5 3.31303 14.3217 2.99567 14.0043C2.6783 13.687 2.5 13.2565 2.5 12.8077V4.19231C2.5 3.74348 2.6783 3.31303 2.99567 2.99567ZM5.42314 3.68278C5.8843 3.68267 6.25823 4.05642 6.25834 4.51758L6.25851 5.20513H10.3468C10.8079 5.20513 11.1818 5.57897 11.1818 6.04013C11.1818 6.50128 10.8079 6.87513 10.3468 6.87513H5.42371C4.96263 6.87513 4.58882 6.50141 4.58871 6.04033L4.58834 4.51798C4.58823 4.05682 4.96198 3.68289 5.42314 3.68278Z" fill="currentColor"/>
<path d="M14.2074 9.08446C14.2961 8.99576 14.4014 8.9254 14.5173 8.8774C14.6332 8.82939 14.7574 8.80469 14.8828 8.80469C15.0083 8.80469 15.1325 8.82939 15.2484 8.8774C15.3642 8.9254 15.4695 8.99576 15.5582 9.08446C15.6469 9.17315 15.7173 9.27845 15.7653 9.39434C15.8133 9.51023 15.838 9.63444 15.838 9.75988C15.838 9.88532 15.8133 10.0095 15.7653 10.1254C15.7173 10.2413 15.6469 10.3466 15.5582 10.4353L10.9991 14.9944L9.14172 15.501L9.64829 13.6436L14.2074 9.08446Z" fill="currentColor"/>
</svg>
