<svg width="17" height="17" viewBox="0 0 17 17" fill="none" xmlns="http://www.w3.org/2000/svg">
<path d="M14.4639 8.05444L5.238 2.93685C5.08428 2.84799 4.90726 2.80672 4.72969 2.81832C4.55213 2.82993 4.38211 2.89388 4.24149 3.00197C4.09787 3.11428 3.9936 3.26857 3.94348 3.44295C3.89335 3.61733 3.89992 3.80292 3.96225 3.97339L5.50082 8.23353C5.51638 8.27601 5.54463 8.31278 5.58179 8.33896C5.61896 8.36513 5.66329 8.37947 5.70888 8.38006H9.66207C9.77574 8.37828 9.88585 8.41929 9.9702 8.49484C10.0545 8.57038 10.1068 8.67482 10.1165 8.78708C10.1203 8.84634 10.1117 8.90572 10.0914 8.96157C10.0711 9.01742 10.0394 9.06854 9.99833 9.11177C9.95727 9.155 9.90771 9.18943 9.8527 9.21293C9.79769 9.23642 9.7384 9.24849 9.6785 9.24837H5.70888C5.66329 9.24896 5.61896 9.2633 5.58179 9.28947C5.54463 9.31565 5.51638 9.35242 5.50082 9.3949L3.96225 13.655C3.91608 13.7863 3.90217 13.9265 3.92167 14.0642C3.94117 14.2018 3.99352 14.3329 4.07436 14.4464C4.15521 14.56 4.26222 14.6528 4.38652 14.7171C4.51081 14.7815 4.6488 14.8155 4.78902 14.8164C4.93824 14.8157 5.08497 14.7785 5.2161 14.7079L14.4639 9.57399C14.5994 9.49773 14.7121 9.38724 14.7905 9.25378C14.8689 9.12031 14.9102 8.96864 14.9102 8.81422C14.9102 8.65979 14.8689 8.50812 14.7905 8.37465C14.7121 8.24119 14.5994 8.1307 14.4639 8.05444Z" fill="currentColor"/>
</svg>