<svg width="16" height="16" viewBox="0 0 16 16" fill="none" xmlns="http://www.w3.org/2000/svg">
<path d="M11.67 2.84119C11.67 2.37661 11.2962 2 10.835 2C10.3738 2 10 2.37661 10 2.84119V5.18847C10 5.65305 10.3738 6.02967 10.835 6.02967C11.2962 6.02967 11.67 5.65305 11.67 5.18847V4.85705H13.165C13.6262 4.85705 14 4.48043 14 4.01586C14 3.55128 13.6262 3.17466 13.165 3.17466H11.67V2.84119Z" fill="currentColor"/>
<path d="M9 4.01782C9 4.4824 8.62616 4.85902 8.165 4.85902H2.835C2.37384 4.85902 2 4.4824 2 4.01782C2 3.55325 2.37384 3.17663 2.835 3.17663H8.165C8.62616 3.17663 9 3.55325 9 4.01782Z" fill="currentColor"/>
<path d="M2.835 7.82601C2.37384 7.82601 2 8.20263 2 8.66721C2 9.13179 2.37384 9.5084 2.835 9.5084H7.33V9.84187C7.33 10.3064 7.70384 10.6831 8.165 10.6831C8.62616 10.6831 9 10.3064 9 9.84187V7.49459C9 7.03001 8.62616 6.6534 8.165 6.6534C7.70384 6.6534 7.33 7.03001 7.33 7.49459V7.82601H2.835Z" fill="currentColor"/>
<path d="M2 12.9841C2 12.5196 2.37384 12.143 2.835 12.143H4.33V11.8115C4.33 11.3469 4.70384 10.9703 5.165 10.9703C5.62616 10.9703 6 11.3469 6 11.8115V14.1588C6 14.6234 5.62616 15 5.165 15C4.70384 15 4.33 14.6234 4.33 14.1588V13.8253H2.835C2.37384 13.8253 2 13.4487 2 12.9841Z" fill="currentColor"/>
<path d="M7.835 12.143C7.37384 12.143 7 12.5196 7 12.9841C7 13.4487 7.37384 13.8253 7.835 13.8253H13.165C13.6262 13.8253 14 13.4487 14 12.9841C14 12.5196 13.6262 12.143 13.165 12.143H7.835Z" fill="currentColor"/>
<path d="M10 8.66721C10 8.20263 10.3738 7.82601 10.835 7.82601H13.165C13.6262 7.82601 14 8.20263 14 8.66721C14 9.13179 13.6262 9.5084 13.165 9.5084H10.835C10.3738 9.5084 10 9.13179 10 8.66721Z" fill="currentColor"/>
</svg>
