<svg width="17" height="16" viewBox="0 0 17 16" fill="none" xmlns="http://www.w3.org/2000/svg">
<g clip-path="url(#clip0_14146_6507)">
<path opacity="0.5" d="M12.9998 3.99999C12.6119 3.99206 12.23 4.09623 11.8998 4.29999C11.8998 4.49999 11.9998 4.79999 11.9998 4.99999C11.9818 5.75426 11.738 6.48578 11.2998 7.09999C11.4823 7.38314 11.7345 7.61462 12.0322 7.77223C12.3298 7.92983 12.6631 8.00827 12.9998 7.99999C13.5302 7.99999 14.0389 7.78928 14.414 7.41421C14.7891 7.03913 14.9998 6.53043 14.9998 5.99999C14.9998 5.46956 14.7891 4.96085 14.414 4.58578C14.0389 4.21071 13.5302 3.99999 12.9998 3.99999Z" fill="#0D2E4E"/>
<path opacity="0.5" d="M12.4 9.8C13.199 10.498 13.7295 11.4529 13.9 12.5H16C16 10.7 14.6 9.5 12.6 9.5H12C12.1 9.6 12.3 9.7 12.4 9.8Z" fill="#0D2E4E"/>
<path d="M8.5 2.5C8.00555 2.5 7.5222 2.64662 7.11108 2.92132C6.69995 3.19603 6.37952 3.58647 6.1903 4.04329C6.00108 4.5001 5.95157 5.00277 6.04804 5.48772C6.1445 5.97267 6.3826 6.41813 6.73223 6.76776C7.08187 7.11739 7.52732 7.3555 8.01228 7.45196C8.49723 7.54842 8.9999 7.49891 9.45671 7.30969C9.91353 7.12048 10.304 6.80004 10.5787 6.38892C10.8534 5.9778 11 5.49445 11 5C11.0032 4.6708 10.9407 4.34427 10.8162 4.03951C10.6917 3.73474 10.5077 3.45787 10.2749 3.22508C10.0421 2.99229 9.76525 2.80827 9.46049 2.68376C9.15573 2.55926 8.8292 2.49679 8.5 2.5Z" fill="#0D2E4E"/>
<path opacity="0.5" d="M4 3.99999C4.3879 3.99206 4.76984 4.09623 5.1 4.29999C5.1 4.49999 5 4.79999 5 4.99999C5.018 5.75426 5.26184 6.48578 5.7 7.09999C5.51754 7.38314 5.26535 7.61462 4.96765 7.77223C4.66996 7.92983 4.33674 8.00827 4 7.99999C3.46957 7.99999 2.96086 7.78928 2.58579 7.41421C2.21071 7.03913 2 6.53043 2 5.99999C2 5.46956 2.21071 4.96085 2.58579 4.58578C2.96086 4.21071 3.46957 3.99999 4 3.99999Z" fill="#0D2E4E"/>
<path d="M13 13.5C13 11.1 11.2 9.5 8.5 9.5C5.8 9.5 4 11.1 4 13.5H13Z" fill="#0D2E4E"/>
<path opacity="0.5" d="M4.6 9.8C3.80101 10.498 3.27053 11.4529 3.1 12.5H1C1 10.7 2.4 9.5 4.4 9.5H5C4.9 9.6 4.7 9.7 4.6 9.8Z" fill="#0D2E4E"/>
</g>
<defs>
<clipPath id="clip0_14146_6507">
<rect width="16" height="16" fill="white" transform="translate(0.5)"/>
</clipPath>
</defs>
</svg>
