<svg width="17" height="17" viewBox="0 0 17 17" fill="none" xmlns="http://www.w3.org/2000/svg">
<path fill-rule="evenodd" clip-rule="evenodd" d="M14.4691 8.86866C14.457 12.1831 11.7604 14.8601 8.44597 14.8481C5.13156 14.836 2.45448 12.1394 2.46654 8.82499C2.4786 5.51059 5.17523 2.83351 8.48963 2.84556C11.804 2.85762 14.4811 5.55425 14.4691 8.86866ZM9.31655 5.24898C9.31823 4.78782 8.94575 4.41262 8.48459 4.41095C8.02344 4.40927 7.64824 4.78175 7.64656 5.2429L7.63346 8.84366C7.63231 9.15993 7.80995 9.44971 8.09232 9.59218L10.4885 10.8012C10.9002 11.0089 11.4023 10.8435 11.6101 10.4318C11.8178 10.0201 11.6524 9.51793 11.2407 9.3102L9.30533 8.33368L9.31655 5.24898Z" fill="currentColor"/>
</svg>
