<svg width="16" height="16" viewBox="0 0 16 16" fill="none" xmlns="http://www.w3.org/2000/svg">
<path d="M8 1.5C4.4164 1.5 1.5 4.4164 1.5 8C1.5 11.5836 4.4164 14.5 8 14.5C11.5836 14.5 14.5 11.5836 14.5 8C14.5 4.4164 11.5836 1.5 8 1.5ZM2.15344 8C2.15344 7.15397 2.33228 6.34921 2.66243 5.62011L5.44815 13.255C3.50159 12.3127 2.15344 10.3111 2.15344 8ZM8 13.8466C7.4291 13.8466 6.87196 13.764 6.34921 13.6058L8.10317 8.50899L9.89841 13.427C9.91217 13.4545 9.92593 13.482 9.93968 13.5095C9.33439 13.7296 8.68095 13.8466 8 13.8466ZM8.80476 5.26243C9.15556 5.2418 9.47196 5.20741 9.47196 5.20741C9.78836 5.17302 9.74709 4.70529 9.43757 4.72593C9.43757 4.72593 8.48836 4.80159 7.88307 4.80159C7.31217 4.80159 6.34233 4.72593 6.34233 4.72593C6.02593 4.70529 5.99153 5.18677 6.30794 5.20741C6.30794 5.20741 6.6037 5.2418 6.92011 5.26243L7.82804 7.75926L6.54868 11.5974L4.42328 5.26931C4.77407 5.24868 5.09048 5.21429 5.09048 5.21429C5.40688 5.17989 5.36561 4.71217 5.05608 4.7328C5.05608 4.7328 4.10688 4.80847 3.50159 4.80847C3.39153 4.80847 3.26085 4.80847 3.12328 4.80159C4.16878 3.2127 5.96402 2.1672 8.00688 2.1672C9.52698 2.1672 10.9164 2.75185 11.955 3.70106C11.9275 3.70106 11.9069 3.69418 11.8794 3.69418C11.3085 3.69418 10.8958 4.1963 10.8958 4.7328C10.8958 5.21429 11.1709 5.62011 11.4667 6.10159C11.6868 6.49365 11.9481 6.98889 11.9481 7.71111C11.9481 8.21323 11.7556 8.791 11.5011 9.60264L10.9164 11.5492L8.80476 5.26243ZM13.1312 5.19365C13.5852 6.02593 13.8466 6.98201 13.8466 8C13.8466 10.1529 12.6772 12.0376 10.9439 13.0487L12.7323 7.88995C13.0624 7.05767 13.1794 6.39048 13.1794 5.79894C13.1656 5.58571 13.1519 5.38624 13.1312 5.19365Z" fill="#0D2E4E" stroke="#0D2E4E" stroke-width="0.4"/>
</svg>
