<svg width="17" height="16" viewBox="0 0 17 16" fill="none" xmlns="http://www.w3.org/2000/svg">
<path d="M15.3488 4.56511C15.1841 3.95319 14.7016 3.47071 14.0897 3.30596C12.9717 3 8.49997 3 8.49997 3C8.49997 3 4.02822 3 2.91028 3.29419C2.31012 3.45894 1.81588 3.95319 1.65113 4.56511C1.35693 5.68305 1.35693 8.0013 1.35693 8.0013C1.35693 8.0013 1.35693 10.3313 1.65113 11.4375C1.81588 12.0494 2.29836 12.5319 2.91028 12.6966C4.03999 13.0026 8.49997 13.0026 8.49997 13.0026C8.49997 13.0026 12.9717 13.0026 14.0897 12.7084C14.7016 12.5437 15.1841 12.0612 15.3488 11.4493C15.643 10.3313 15.643 8.01307 15.643 8.01307C15.643 8.01307 15.6548 5.68305 15.3488 4.56511Z" fill="#FF0000"/>
<path d="M7.07617 10.143L10.7948 8.00129L7.07617 5.85956V10.143Z" fill="white"/>
</svg>
