<svg xmlns="http://www.w3.org/2000/svg" width="16" height="16" viewBox="0 0 16 16"><defs><style>.a{fill:#999;}</style></defs><path class="a" d="M11.062,1.875A1.877,1.877,0,0,0,9.187,0H1.875A1.877,1.877,0,0,0,0,1.875V9.187a1.877,1.877,0,0,0,1.875,1.875h3v1.25h1.25v-1.25H9.187a1.877,1.877,0,0,0,1.875-1.875v-3h1.219V4.937H11.062ZM9.812,9.187a.626.626,0,0,1-.625.625H1.875a.626.626,0,0,1-.625-.625V1.875a.626.626,0,0,1,.625-.625H9.187a.626.626,0,0,1,.625.625ZM14.75,13.5H16v1.25A1.25,1.25,0,0,1,14.75,16H13.531V14.75H14.75ZM8.531,14.75h1.25V16H8.531Zm2.5,0h1.25V16h-1.25ZM16,6.188v1.25H14.75V6.188H13.531V4.937H14.75A1.25,1.25,0,0,1,16,6.188ZM14.75,8.625H16v1.25H14.75Zm0,2.437H16v1.25H14.75ZM6.125,14.75H7.344V16H6.125a1.25,1.25,0,0,1-1.25-1.25V13.5h1.25ZM7.281,4.812h1.25v3.75H4.781V7.312H6.4l-2.23-2.23L5.051,4.2l2.23,2.23Zm0,0" transform="translate(0 16) rotate(-90)"/></svg>