<svg xmlns="http://www.w3.org/2000/svg" viewBox="0 0 16 16" enable-background="new 0 0 16 16"><path fill="#757575" d="m16 15h-16v-2h1v1h14v-12h-14v2h-1v-3h16z"/><g fill="#999"><path d="m15 6h-8v1h8v-1"/><path d="m8 3h-1v3h1v-3"/><path d="m8 11h-1v3h1v-3"/><path d="m12 3h-1v11h1v-11"/></g><path fill="#757575" d="m15 2h-14v1h14v-1"/><path fill="#999" d="m15 10h-8v1h8v-1"/><path fill="#ccc" d="m7 7h8v3h-8z"/><g fill="none" stroke="#ff7043" stroke-width="1.5" stroke-miterlimit="10"><path d="m.8 10.8l4.4-4.5"/><path d="m.8 6.3l4.5 4.5"/></g></svg>