<svg xmlns="http://www.w3.org/2000/svg" viewBox="0 0 16 16" enable-background="new 0 0 16 16"><g fill="#999"><path d="m15 6h-8v1h8v-1"/><path d="m12 3h-1v11h1v-11"/><path d="m8 3h-1v4h1v-4"/><path d="m8 10h-1v4h1v-4"/></g><path fill="#757575" d="m16 1h-9v1 1h8v11h-8v1h9v-14"/><path fill="#999" d="m15 10h-8v1h8v-1"/><g fill="#6b7889"><path transform="matrix(-1 0 0-1 9 29)" d="m4 14h1v1h-1z"/><path transform="matrix(-1 0 0-1 5 29)" d="m2 14h1v1h-1z"/><path transform="matrix(-1 0 0-1 1 29)" d="m0 14h1v1h-1z"/><path transform="matrix(-1 0 0-1 1 25)" d="m0 12h1v1h-1z"/><path transform="matrix(-1 0 0-1 1 21)" d="m0 10h1v1h-1z"/><path transform="matrix(-1 0 0-1 1 13)" d="m0 6h1v1h-1z"/><path transform="matrix(-1 0 0-1 1 17)" d="m0 8h1v1h-1z"/><path transform="matrix(-1 0 0-1 1 9)" d="m0 4h1v1h-1z"/><path transform="matrix(-1 0 0-1 1 4)" d="m0 1h1v2h-1z"/><path transform="matrix(-1 0 0-1 5 4)" d="m2 1h1v2h-1z"/><path transform="matrix(-1 0 0-1 9 4)" d="m4 1h1v2h-1z"/><path transform="matrix(-1 0 0-1 13 29)" d="m6 14h1v1h-1z"/><path transform="matrix(-1 0 0-1 13 4)" d="m6 1h1v2h-1z"/><path transform="matrix(-1 0 0-1 13 17)" d="m5 8h3v1h-3z"/><path d="m5 11v-5l-3 2.5z"/></g></svg>