<svg xmlns="http://www.w3.org/2000/svg" viewBox="0 0 16 16" enable-background="new 0 0 16 16"><path fill="none" stroke="#757575" stroke-miterlimit="10" d="m14.5 9v5.5h-14v-5.5"/><g fill="#999"><path d="m5 9h-1v5h1v-5"/><path d="m11 9h-1v5h1v-5"/></g><path fill="#757575" d="m15 1h-15v2h15v-2"/><path fill="#999" d="m15 11h-14v1h14v-1"/><g fill="#6b7889"><path transform="matrix(-1 0 0-1 1 13)" d="m0 6h1v1h-1z"/><path transform="matrix(-1 0 0-1 1 17)" d="m0 8h1v1h-1z"/><path transform="matrix(-1 0 0-1 5 17)" d="m2 8h1v1h-1z"/><path transform="matrix(-1 0 0-1 9 17)" d="m4 8h1v1h-1z"/><path transform="matrix(-1 0 0-1 21 17)" d="m10 8h1v1h-1z"/><path transform="matrix(-1 0 0-1 25 17)" d="m12 8h1v1h-1z"/><path transform="matrix(-1 0 0-1 29 17)" d="m14 8h1v1h-1z"/><path transform="matrix(-1 0 0-1 29 13)" d="m14 6h1v1h-1z"/><path transform="matrix(-1 0 0-1 1 9)" d="m0 4h1v1h-1z"/><path transform="matrix(-1 0 0-1 29 9)" d="m14 4h1v1h-1z"/><path transform="matrix(0-1 1 0 0 15)" d="m6 7h3v1h-3z"/><path d="m5 6h5l-2.5-3z"/></g></svg>