<svg xmlns="http://www.w3.org/2000/svg" viewBox="0 0 16 16" enable-background="new 0 0 16 16"><g fill="#999"><path d="m9 6h-8v1h8v-1"/><path d="m5 3h-1v11h1v-11"/><path d="m9 3h-1v4h1v-4"/><path d="m9 10h-1v4h1v-4"/></g><path fill="#757575" d="m9 1h-9v14h9v-1h-8v-11h8v-1-1"/><path fill="#999" d="m9 10h-8v1h8v-1"/><g fill="#6b7889"><path d="m11 14h1v1h-1z"/><path d="m13 14h1v1h-1z"/><path d="m15 14h1v1h-1z"/><path d="m15 12h1v1h-1z"/><path d="m15 10h1v1h-1z"/><path d="m15 6h1v1h-1z"/><path d="m15 8h1v1h-1z"/><path d="m15 4h1v1h-1z"/><path d="m15 1h1v2h-1z"/><path d="m13 1h1v2h-1z"/><path d="m11 1h1v2h-1z"/><path d="m9 14h1v1h-1z"/><path d="m9 1h1v2h-1z"/><path d="m8 8h3v1h-3z"/><path d="m11 11v-5l3 2.5z"/></g></svg>