<svg xmlns="http://www.w3.org/2000/svg" viewBox="0 0 16 16" enable-background="new 0 0 16 16"><g fill="#6b7889"><path transform="matrix(-1 0 0-1 19 27)" d="m9 13h1v1h-1z"/><path transform="matrix(-1 0 0-1 15 27)" d="m7 13h1v1h-1z"/><path transform="matrix(-1 0 0-1 7 27)" d="m3 13h1v1h-1z"/><path transform="matrix(-1 0 0-1 7 23)" d="m3 11h1v1h-1z"/><path transform="matrix(-1 0 0-1 7 19)" d="m3 9h1v1h-1z"/><path transform="matrix(-1 0 0-1 7 7)" d="m3 3h1v1h-1z"/><path transform="matrix(-1 0 0-1 7 11)" d="m3 5h1v1h-1z"/><path transform="matrix(-1 0 0-1 11 27)" d="m5 13h1v1h-1z"/><path transform="matrix(-1 0 0-1 23 27)" d="m11 13h1v1h-1z"/><path d="m0 7h8v1h-8z"/><path d="m8 4v7l5-3.5z"/><path d="m13 13h1v1h-1z"/><path transform="matrix(-1 0 0-1 7 3)" d="m3 1h1v1h-1z"/><path transform="matrix(-1 0 0-1 15 3)" d="m7 1h1v1h-1z"/><path transform="matrix(-1 0 0-1 11 3)" d="m5 1h1v1h-1z"/><path transform="matrix(-1 0 0-1 19 3)" d="m9 1h1v1h-1z"/><path transform="matrix(-1 0 0-1 23 3)" d="m11 1h1v1h-1z"/><path transform="matrix(-1 0 0-1 27 3)" d="m13 1h1v1h-1z"/><path transform="matrix(-1 0 0-1 31 3)" d="m15 1h1v1h-1z"/><path d="m15 13h1v1h-1z"/><path d="m15 9h1v1h-1z"/><path d="m15 7h1v1h-1z"/><path d="m15 5h1v1h-1z"/><path d="m15 3h1v1h-1z"/><path d="m15 11h1v1h-1z"/></g></svg>