<svg xmlns="http://www.w3.org/2000/svg" viewBox="0 0 16 16" enable-background="new 0 0 16 16"><g fill="#999"><path d="m14 5h-13v1h13v-1"/><path d="m5 3h-1v6h1v-6"/><path d="m11 3h-1v6h1v-6"/></g><path fill="#757575" d="m15 1h-15v8h1v-6h13v6h1v-8"/><g fill="#999"><path d="m6 8h-5v1h5v-1"/><path d="m14 8h-5v1h5v-1"/></g><g fill="#6b7889"><path transform="matrix(-1 0 0-1 1 25)" d="m0 12h1v1h-1z"/><path transform="matrix(-1 0 0-1 1 29)" d="m0 14h1v1h-1z"/><path transform="matrix(-1 0 0-1 5 29)" d="m2 14h1v1h-1z"/><path transform="matrix(-1 0 0-1 9 29)" d="m4 14h1v1h-1z"/><path transform="matrix(-1 0 0-1 13 29)" d="m6 14h1v1h-1z"/><path transform="matrix(-1 0 0-1 21 29)" d="m10 14h1v1h-1z"/><path transform="matrix(-1 0 0-1 17 29)" d="m8 14h1v1h-1z"/><path transform="matrix(-1 0 0-1 25 29)" d="m12 14h1v1h-1z"/><path transform="matrix(-1 0 0-1 29 29)" d="m14 14h1v1h-1z"/><path transform="matrix(-1 0 0-1 29 25)" d="m14 12h1v1h-1z"/><path transform="matrix(-1 0 0-1 1 21)" d="m0 10h1v1h-1z"/><path transform="matrix(-1 0 0-1 29 21)" d="m14 10h1v1h-1z"/><path transform="matrix(0 1-1 0 17 2)" d="m6 9h3v1h-3z"/><path d="m10 11h-5l2.5 3z"/></g></svg>