<?xml version="1.0" encoding="utf-8"?>
<!-- Generator: Adobe Illustrator 20.0.0, SVG Export Plug-In . SVG Version: 6.00 Build 0)  -->
<svg version="1.1" id="Layer_1" xmlns="http://www.w3.org/2000/svg" xmlns:xlink="http://www.w3.org/1999/xlink" x="0px" y="0px"
	 viewBox="0 0 96 96" style="enable-background:new 0 0 96 96;" xml:space="preserve">
<style type="text/css">
	.st0{fill:#F2FAEB;}
	.st1{fill:#8ECB60;}
	.st2{fill:none;stroke:#8ECB60;stroke-width:2;stroke-miterlimit:10;}
</style>
<g>
	<path class="st0" d="M48,95C22.1,95,1,73.9,1,48S22.1,1,48,1s47,21.1,47,47S73.9,95,48,95z"/>
	<g>
		<path class="st1" d="M48,2c25.4,0,46,20.6,46,46S73.4,94,48,94S2,73.4,2,48S22.6,2,48,2 M48,0C21.5,0,0,21.5,0,48s21.5,48,48,48
			s48-21.5,48-48S74.5,0,48,0L48,0z"/>
	</g>
</g>
<polyline class="st2" points="68.4,33.9 42.2,60 30.8,48.6 "/>
</svg>
