<?xml version="1.0" encoding="utf-8"?>
<!-- Generator: Adobe Illustrator 20.0.0, SVG Export Plug-In . SVG Version: 6.00 Build 0)  -->
<svg version="1.1" id="Layer_1" xmlns="http://www.w3.org/2000/svg" xmlns:xlink="http://www.w3.org/1999/xlink" x="0px" y="0px"
	 viewBox="0 0 134 139" style="enable-background:new 0 0 134 139;" xml:space="preserve">
<style type="text/css">
	.st0{opacity:0.1;fill:#8ECB60;}
	.st1{fill:#8ECB60;}
	.st2{fill:none;stroke:#8ECB60;stroke-width:2;stroke-miterlimit:10;}
</style>
<g>
	<path class="st0" d="M4,138.3c11.1-7.3,16.9-23.9,17.1-24.7l0.2-0.6l-0.4-0.4C9,100.3,2.4,84,2.4,66.9c0-36.2,29.3-65.6,65.3-65.6
		c36,0,65.3,29.4,65.3,65.6c0,36.2-29.3,65.6-65.3,65.6c-7.7,0-15.3-1.4-22.5-4l-0.6-0.2l-0.4,0.4c-0.5,0.4-0.9,0.8-1.5,1.1
		C29.6,137.6,19.5,138.2,4,138.3z"/>
	<path class="st1" d="M67.7,2.3c35.4,0,64.3,29,64.3,64.6c0,35.6-28.8,64.6-64.3,64.6c-7.6,0-15.1-1.3-22.2-4l-1.1-0.4l-0.9,0.8
		c-0.4,0.4-0.8,0.7-1.3,1c-12,7.2-21.5,8.2-35.2,8.4c9.8-8.1,14.8-22.6,15-23.4l0.4-1.2l-0.8-0.9C9.9,99.7,3.4,83.8,3.4,66.9
		C3.4,31.3,32.3,2.3,67.7,2.3 M67.7,0.3C31.1,0.3,1.4,30.1,1.4,66.9c0,18,7.1,34.4,18.7,46.4c-0.1,0.4-7.1,20.5-20.2,26
		c17.8,0,28.8,0,43.2-8.7c0.7-0.4,1.2-0.8,1.6-1.2c7.1,2.6,14.8,4.1,22.9,4.1c36.6,0,66.3-29.8,66.3-66.6
		C134,30.1,104.3,0.3,67.7,0.3L67.7,0.3z"/>
</g>
<g>
	<path class="st2" d="M70.9,93l-28-3.7c-0.5-0.1-0.9-0.5-0.9-1V49c0-0.5,0.4-0.9,0.9-1l28-3.7c0.6-0.1,1.1,0.4,1.1,1V92
		C72,92.6,71.5,93.1,70.9,93z"/>
	<path class="st2" d="M92,88.3H73c-0.6,0-1-0.4-1-1v-36c0-0.6,0.4-1,1-1h19c0.6,0,1,0.4,1,1v36C93,87.8,92.6,88.3,92,88.3z"/>
	<line class="st2" x1="73" y1="57.3" x2="78" y2="57.3"/>
	<line class="st2" x1="80" y1="57.3" x2="88" y2="57.3"/>
	<line class="st2" x1="73" y1="63.3" x2="78" y2="63.3"/>
	<line class="st2" x1="80" y1="63.3" x2="88" y2="63.3"/>
	<line class="st2" x1="73" y1="69.3" x2="78" y2="69.3"/>
	<line class="st2" x1="80" y1="69.3" x2="88" y2="69.3"/>
	<line class="st2" x1="73" y1="75.3" x2="78" y2="75.3"/>
	<line class="st2" x1="80" y1="75.3" x2="88" y2="75.3"/>
	<line class="st2" x1="73" y1="81.3" x2="78" y2="81.3"/>
	<line class="st2" x1="80" y1="81.3" x2="88" y2="81.3"/>
</g>
</svg>
