<?xml version="1.0" standalone="no"?>
<!DOCTYPE svg PUBLIC "-//W3C//DTD SVG 1.1//EN" "http://www.w3.org/Graphics/SVG/1.1/DTD/svg11.dtd" >
<svg xmlns="http://www.w3.org/2000/svg" xmlns:xlink="http://www.w3.org/1999/xlink" version="1.1">
<metadata>
Created by FontForge 20161116 at Tue Jul 11 10:21:07 2017
 By Jimmy Wärting
Copyright 2015 The Rubik Project Authors
</metadata>
<defs>
<font id="BpmonlineRubik-Light" horiz-adv-x="0" >
  <font-face 
    font-family="Bpm'online Rubik Light"
    font-weight="300"
    font-stretch="normal"
    units-per-em="1000"
    panose-1="0 0 4 0 0 0 0 0 0 0"
    ascent="800"
    descent="-200"
    x-height="483"
    cap-height="650"
    bbox="-445 -245 995 841"
    underline-thickness="46"
    underline-position="-116"
    unicode-range="U+000D-FB4B"
  />
<missing-glyph horiz-adv-x="269" 
 />
    <glyph glyph-name="fi" unicode="fi" horiz-adv-x="460" 
d="M121 20v409h-83q-9 0 -14.5 5.5t-5.5 15.5v13q0 9 5.5 14.5t14.5 5.5h83v53q0 71 30.5 111t109.5 40h103q9 0 15 -5.5t6 -14.5v-13q0 -9 -6 -14.5t-15 -5.5h-103q-47 0 -65.5 -25t-18.5 -78v-48h187q9 0 15 -5.5t6 -14.5v-443q0 -9 -6 -14.5t-15 -5.5h-16q-9 0 -14.5 5.5
t-5.5 14.5v409h-151v-409q0 -9 -5.5 -14.5t-14.5 -5.5h-16q-9 0 -14.5 5.5t-5.5 14.5z" />
    <glyph glyph-name="fl" unicode="fl" horiz-adv-x="516" 
d="M121 20v409h-83q-9 0 -14.5 5.5t-5.5 15.5v13q0 9 5.5 14.5t14.5 5.5h83v53q0 71 30.5 111t109.5 40h48q10 0 15.5 -5.5t5.5 -14.5v-13q0 -9 -5.5 -14.5t-15.5 -5.5h-48q-47 0 -65.5 -25t-18.5 -78v-48h206v184q0 9 5.5 14.5t14.5 5.5h16q9 0 14.5 -5.5t5.5 -14.5v-647
q0 -9 -5.5 -14.5t-14.5 -5.5h-16q-9 0 -14.5 5.5t-5.5 14.5v409h-206v-409q0 -9 -5.5 -14.5t-14.5 -5.5h-16q-9 0 -14.5 5.5t-5.5 14.5z" />
    <glyph glyph-name="f_f" unicode="ff" horiz-adv-x="596" 
d="M121 20v409h-83q-9 0 -14.5 5.5t-5.5 15.5v13q0 9 5.5 14.5t14.5 5.5h83v53q0 71 30.5 111t109.5 40h48q10 0 15.5 -5.5t5.5 -14.5v-13q0 -9 -5.5 -14.5t-15.5 -5.5h-48q-47 0 -65.5 -25t-18.5 -78v-48h206v53q0 71 30.5 111t109.5 40h48q10 0 15.5 -5.5t5.5 -14.5v-13
q0 -9 -5.5 -14.5t-15.5 -5.5h-48q-47 0 -65.5 -25t-18.5 -78v-48h123q9 0 14.5 -5.5t5.5 -14.5v-13q0 -10 -5.5 -15.5t-14.5 -5.5h-123v-409q0 -9 -5.5 -14.5t-14.5 -5.5h-16q-9 0 -14.5 5.5t-5.5 14.5v409h-206v-409q0 -9 -5.5 -14.5t-14.5 -5.5h-16q-9 0 -14.5 5.5
t-5.5 14.5z" />
    <glyph glyph-name="f_f_i" unicode="ffi" horiz-adv-x="722" 
d="M121 20v409h-83q-9 0 -14.5 5.5t-5.5 15.5v13q0 9 5.5 14.5t14.5 5.5h83v53q0 71 30.5 111t109.5 40h48q10 0 15.5 -5.5t5.5 -14.5v-13q0 -9 -5.5 -14.5t-15.5 -5.5h-48q-47 0 -65.5 -25t-18.5 -78v-48h206v53q0 71 30.5 111t109.5 40h103q9 0 15 -5.5t6 -14.5v-13
q0 -9 -6 -14.5t-15 -5.5h-103q-47 0 -65.5 -25t-18.5 -78v-48h187q9 0 15 -5.5t6 -14.5v-443q0 -9 -6 -14.5t-15 -5.5h-16q-9 0 -14.5 5.5t-5.5 14.5v409h-151v-409q0 -9 -5.5 -14.5t-14.5 -5.5h-16q-9 0 -14.5 5.5t-5.5 14.5v409h-206v-409q0 -9 -5.5 -14.5t-14.5 -5.5h-16
q-9 0 -14.5 5.5t-5.5 14.5z" />
    <glyph glyph-name="f_f_l" unicode="ffl" horiz-adv-x="778" 
d="M121 20v409h-83q-9 0 -14.5 5.5t-5.5 15.5v13q0 9 5.5 14.5t14.5 5.5h83v53q0 71 30.5 111t109.5 40h48q10 0 15.5 -5.5t5.5 -14.5v-13q0 -9 -5.5 -14.5t-15.5 -5.5h-48q-47 0 -65.5 -25t-18.5 -78v-48h206v53q0 71 30.5 111t109.5 40h48q10 0 15.5 -5.5t5.5 -14.5v-13
q0 -9 -5.5 -14.5t-15.5 -5.5h-48q-47 0 -65.5 -25t-18.5 -78v-48h206v184q0 9 5.5 14.5t14.5 5.5h16q9 0 14.5 -5.5t5.5 -14.5v-647q0 -9 -5.5 -14.5t-14.5 -5.5h-16q-9 0 -14.5 5.5t-5.5 14.5v409h-206v-409q0 -9 -5.5 -14.5t-14.5 -5.5h-16q-9 0 -14.5 5.5t-5.5 14.5v409
h-206v-409q0 -9 -5.5 -14.5t-14.5 -5.5h-16q-9 0 -14.5 5.5t-5.5 14.5z" />
    <glyph glyph-name=".notdef" horiz-adv-x="269" 
 />
    <glyph glyph-name="glyph1" 
 />
    <glyph glyph-name="nonmarkingreturn" unicode="&#xd;" horiz-adv-x="240" 
 />
    <glyph glyph-name="NULL" 
 />
    <glyph glyph-name="NULL" 
 />
    <glyph glyph-name="space" unicode=" " horiz-adv-x="240" 
 />
    <glyph glyph-name="exclam" unicode="!" horiz-adv-x="209" 
d="M76 153v477q0 9 5.5 14.5t15.5 5.5h15q10 0 15.5 -5.5t5.5 -14.5v-477q0 -9 -5.5 -14.5t-15.5 -5.5h-15q-10 0 -15.5 5.5t-5.5 14.5zM66 20v36q0 9 5.5 15t14.5 6h36q9 0 15 -6t6 -15v-36q0 -9 -6 -14.5t-15 -5.5h-36q-9 0 -14.5 5.5t-5.5 14.5z" />
    <glyph glyph-name="quotedbl" unicode="&#x22;" horiz-adv-x="316" 
d="M72 490l-14 151v2q0 7 5 12t12 5h42q8 0 13.5 -5.5t4.5 -13.5l-14 -151q-2 -18 -16 -18h-18q-14 0 -15 18zM195 490l-14 151v2q0 7 5 12t13 5h42q8 0 13 -5.5t4 -13.5l-14 -151q-2 -18 -15 -18h-18q-14 0 -16 18z" />
    <glyph glyph-name="numbersign" unicode="#" horiz-adv-x="651" 
d="M153 56l19 121h-103q-10 0 -15.5 6t-5.5 15v13q0 9 5.5 14.5t15.5 5.5h110l27 182h-113q-9 0 -15 6t-6 15v13q0 9 6 14.5t15 5.5h122l18 122q2 8 7 13.5t14 5.5h16q9 0 14.5 -5.5t4.5 -13.5l-19 -122h155l19 122q2 8 7 13.5t13 5.5h17q9 0 14.5 -5.5t4.5 -13.5l-19 -122
h101q10 0 15.5 -5.5t5.5 -14.5v-13q0 -9 -5.5 -15t-15.5 -6h-108l-27 -182h111q10 0 15.5 -5.5t5.5 -14.5v-13q0 -9 -5.5 -15t-15.5 -6h-120l-17 -121q-2 -9 -7.5 -14.5t-14.5 -5.5h-16q-9 0 -14.5 5.5t-4.5 14.5l19 121h-155l-18 -121q-2 -9 -7.5 -14.5t-13.5 -5.5h-17
q-8 0 -14 5.5t-5 14.5zM236 231h154l27 182h-154z" />
    <glyph glyph-name="dollar" unicode="$" horiz-adv-x="554" 
d="M248 -72v65q-63 4 -109.5 28.5t-71 60t-26.5 76.5q0 7 5.5 13t13.5 6h19q17 0 20 -19q7 -45 51.5 -78.5t128.5 -33.5q88 0 131 32.5t43 89.5q0 35 -20.5 58t-60.5 40t-121 43q-72 24 -112.5 46t-60 54.5t-19.5 82.5q0 68 50 114t139 53v64q0 9 5.5 14.5t14.5 5.5h18
q9 0 15 -5.5t6 -14.5v-65q58 -6 100 -31t63 -60t23 -70q0 -7 -5 -13t-14 -6h-19q-6 0 -12.5 4.5t-7.5 14.5q-6 46 -50 76.5t-111 30.5q-71 0 -113.5 -28t-42.5 -84q0 -36 19 -59.5t57 -41t113 -41.5q76 -24 118.5 -46.5t64.5 -54t22 -81.5q0 -78 -54.5 -124t-150.5 -52v-64
q0 -10 -6 -15.5t-15 -5.5h-18q-9 0 -14.5 5.5t-5.5 15.5z" />
    <glyph glyph-name="percent" unicode="%" horiz-adv-x="688" 
d="M50 446q-1 16 -1 40q0 26 1 43q3 58 35.5 92t94.5 34t94.5 -34t35.5 -92q2 -34 2 -43q0 -8 -2 -40q-3 -57 -36.5 -89t-93.5 -32q-59 0 -93 32t-37 89zM82 19q0 5 3 10l458 604q8 10 14 13.5t17 3.5h16q8 0 13 -5t5 -13q0 -6 -3 -10l-458 -604q-8 -10 -14 -14t-17 -4h-16
q-8 0 -13 5t-5 14zM256 449q2 35 2 39q0 6 -2 38q-1 32 -19.5 54.5t-56.5 22.5t-56 -22.5t-20 -54.5q-1 -16 -1 -38t1 -39q3 -32 20.5 -54t55.5 -22t56 22t20 54zM378 120q-1 16 -1 40q0 26 1 43q3 58 35.5 92t94.5 34t94.5 -34t35.5 -92q2 -34 2 -43t-2 -40
q-3 -58 -36.5 -92t-93.5 -34q-59 0 -93 34t-37 92zM584 123q2 35 2 39q0 6 -2 38t-20 54.5t-56 22.5t-56 -22.5t-20 -54.5q-1 -16 -1 -38t1 -39q3 -32 20.5 -54.5t55.5 -22.5t56 22.5t20 54.5z" />
    <glyph glyph-name="ampersand" unicode="&#x26;" horiz-adv-x="626" 
d="M57 171q0 59 35 99.5t98 77.5q-48 51 -67 86.5t-19 76.5q0 40 21 74.5t58 54.5t83 20t83 -19.5t57.5 -53.5t20.5 -76q0 -41 -19.5 -72t-49.5 -53.5t-77 -48.5l178 -173q41 68 51 156q1 9 6 14.5t14 5.5h18q9 0 15 -5.5t6 -14.5q-4 -104 -67 -198l91 -89q8 -9 8 -15
q0 -18 -19 -18h-20q-17 0 -26 9l-69 69q-82 -87 -206 -87q-59 0 -105.5 23t-72.5 64.5t-26 92.5zM369 511q0 42 -29.5 67.5t-73.5 25.5q-43 0 -73 -25.5t-30 -67.5q0 -29 16 -57t63 -76q64 35 95.5 63.5t31.5 69.5zM425 120l-196 188q-55 -31 -84.5 -62t-29.5 -75
q0 -58 43 -91.5t103 -33.5q44 0 86 19t78 55z" />
    <glyph glyph-name="quotesingle" unicode="'" horiz-adv-x="192" 
d="M72 490l-14 151v2q0 7 5 12t12 5h42q8 0 13.5 -5.5t4.5 -13.5l-14 -151q-2 -18 -16 -18h-18q-14 0 -15 18z" />
    <glyph glyph-name="parenleft" unicode="(" horiz-adv-x="296" 
d="M59 287q0 159 16.5 251.5t58.5 137.5t119 45q8 0 14 -6t6 -15v-13q0 -8 -5.5 -14t-12.5 -6q-53 0 -83.5 -34t-44 -115.5t-13.5 -230.5t13.5 -230.5t44 -116t83.5 -34.5q7 0 12.5 -6t5.5 -14v-13q0 -9 -6 -15t-14 -6q-77 0 -119 45.5t-58.5 138t-16.5 251.5z" />
    <glyph glyph-name="parenright" unicode=")" horiz-adv-x="296" 
d="M23 -127v13q0 8 5.5 14t12.5 6q54 0 84 34.5t43.5 116t13.5 230.5t-13.5 230.5t-43.5 115.5t-84 34q-7 0 -12.5 6t-5.5 14v13q0 9 6 15t15 6q77 0 118.5 -45t58 -137.5t16.5 -251.5t-16.5 -251.5t-58 -138t-118.5 -45.5q-9 0 -15 6t-6 15z" />
    <glyph glyph-name="asterisk" unicode="*" horiz-adv-x="414" 
d="M102 415q-8 6 -8 17q0 6 4 11q0 1 5 7l71 67l-97 12l-7 1q-8 2 -11.5 10t-1.5 16l12 36q2 7 9.5 11t15.5 2l7 -4l86 -46l-18 95l-1 8q0 7 6 13.5t15 6.5h37q8 0 14 -6.5t6 -13.5l-1 -8l-18 -96l86 47l8 4q1 1 4 1q8 0 14 -4t7 -10l12 -36l1 -5q0 -7 -4.5 -13t-9.5 -8
l-8 -1l-97 -13l71 -66q6 -6 6 -7q4 -5 4 -11q0 -11 -9 -17l-30 -22q-5 -3 -12 -3q-12 0 -16 8q0 1 -1 1.5t-3 4.5l-43 89l-43 -89q-1 -4 -2 -4.5t-1 -1.5q-5 -8 -17 -8q-7 0 -12 3z" />
    <glyph glyph-name="plus" unicode="+" horiz-adv-x="583" 
d="M264 51v204h-202q-9 0 -14.5 5.5t-5.5 14.5v13q0 9 5.5 14.5t14.5 5.5h202v198q0 10 5.5 15.5t14.5 5.5h14q9 0 15 -5.5t6 -15.5v-198h202q9 0 15 -5.5t6 -14.5v-13q0 -9 -6 -14.5t-15 -5.5h-202v-204q0 -9 -6 -14.5t-15 -5.5h-14q-9 0 -14.5 5.5t-5.5 14.5z" />
    <glyph glyph-name="comma" unicode="," horiz-adv-x="220" 
d="M55 -50l17 111q3 25 24 25h41q7 0 10.5 -4.5t3.5 -9.5q0 -9 -3 -17l-40 -105q-5 -10 -10 -15t-14 -5h-16q-8 0 -11.5 5.5t-1.5 14.5z" />
    <glyph glyph-name="hyphen" unicode="-" horiz-adv-x="452" 
d="M69 272v13q0 9 5.5 15t14.5 6h274q10 0 15.5 -6t5.5 -15v-13q0 -9 -5.5 -14.5t-15.5 -5.5h-274q-9 0 -14.5 5.5t-5.5 14.5z" />
    <glyph glyph-name="period" unicode="." horiz-adv-x="221" 
d="M68 20v45q0 9 5.5 15t14.5 6h45q9 0 15 -6t6 -15v-45q0 -9 -6 -14.5t-15 -5.5h-45q-9 0 -14.5 5.5t-5.5 14.5z" />
    <glyph glyph-name="slash" unicode="/" horiz-adv-x="426" 
d="M25 -59q0 3 3 11l319 764q2 5 7.5 9.5t13.5 4.5h16q7 0 12.5 -5.5t5.5 -12.5q0 -4 -3 -12l-319 -764q-2 -5 -7 -9.5t-14 -4.5h-15q-8 0 -13.5 5.5t-5.5 13.5z" />
    <glyph glyph-name="zero" unicode="0" horiz-adv-x="572" 
d="M63 247l-1 77l1 79q3 115 54.5 186t168.5 71t168.5 -71t54.5 -186q1 -26 1 -79q0 -52 -1 -77q-3 -115 -54.5 -185.5t-168.5 -70.5t-168.5 70.5t-54.5 185.5zM451 252v74v73q-2 96 -43.5 150.5t-121.5 54.5t-121 -54.5t-43 -150.5l-1 -73l1 -74q2 -99 43 -152.5t121 -53.5
t121.5 53.5t43.5 152.5z" />
    <glyph glyph-name="one" unicode="1" horiz-adv-x="370" 
d="M236 20v554l-166 -128q-8 -5 -13 -5q-10 0 -16 9l-10 13q-5 6 -5 13q0 9 8 15l198 153q10 6 24 6h18q9 0 14.5 -5.5t5.5 -14.5v-610q0 -9 -5.5 -14.5t-14.5 -5.5h-18q-9 0 -14.5 5.5t-5.5 14.5z" />
    <glyph glyph-name="two" unicode="2" horiz-adv-x="520" 
d="M48 20v14q0 19 24 39l240 241q51 47 69 79.5t18 77.5q0 62 -36 97.5t-102 35.5q-62 0 -99.5 -36.5t-44.5 -97.5q-1 -10 -8 -15.5t-13 -5.5h-19q-9 0 -14 5t-5 12q1 46 23.5 90.5t68 74t111.5 29.5q99 0 147.5 -54t48.5 -135q0 -56 -24 -100.5t-77 -93.5l-218 -221h312
q10 0 15.5 -5.5t5.5 -16.5v-14q0 -9 -6 -14.5t-15 -5.5h-381q-10 0 -15.5 5.5t-5.5 14.5z" />
    <glyph glyph-name="three" unicode="3" horiz-adv-x="535" 
d="M44 150q0 8 5.5 12.5t13.5 4.5h13q9 0 15.5 -4t9.5 -17q13 -55 59 -77.5t106 -22.5q74 0 118.5 35.5t44.5 102.5q0 128 -154 128h-82q-9 0 -14.5 5.5t-5.5 15.5v14q0 10 8 22l192 226h-281q-9 0 -14.5 5.5t-5.5 14.5v14q0 9 5.5 15t14.5 6h346q11 0 16.5 -5.5t5.5 -15.5
v-14q0 -8 -8 -18l-196 -229h19q98 0 155.5 -46.5t57.5 -137.5q0 -60 -29 -104t-79 -66.5t-114 -22.5q-67 0 -117 22t-76.5 58.5t-28.5 78.5z" />
    <glyph glyph-name="four" unicode="4" horiz-adv-x="553" 
d="M357 20v147h-307q-9 0 -14.5 5.5t-5.5 15.5v15q0 13 10 27l282 405q5 7 14.5 11t20.5 4h38q9 0 14.5 -5.5t5.5 -14.5v-407h85q9 0 14.5 -5.5t5.5 -14.5v-15q0 -10 -5.5 -15.5t-14.5 -5.5h-85v-147q0 -9 -5.5 -14.5t-14.5 -5.5h-18q-9 0 -14.5 5.5t-5.5 14.5zM103 223h254
v361z" />
    <glyph glyph-name="five" unicode="5" horiz-adv-x="531" 
d="M46 163v1q0 8 5.5 12t13.5 4h18q9 0 14.5 -4t8.5 -17q14 -57 56.5 -85t97.5 -28q72 0 118.5 43t46.5 119q0 47 -21.5 81t-59.5 52.5t-84 18.5q-37 0 -60 -9.5t-46 -26.5q-14 -10 -22.5 -14.5t-19.5 -4.5h-16q-9 0 -15.5 6t-5.5 14l28 304q1 10 6 15.5t15 5.5h302
q10 0 15.5 -5.5t5.5 -14.5v-15q0 -9 -5.5 -14.5t-15.5 -5.5h-266l-20 -210q50 31 120 31q63 0 114 -24t80.5 -71t29.5 -113q0 -70 -29.5 -119t-80.5 -73.5t-114 -24.5q-65 0 -113 24.5t-73.5 63.5t-27.5 84z" />
    <glyph glyph-name="six" unicode="6" horiz-adv-x="541" 
d="M51 210q0 81 59 164l183 258q1 2 5 7t10 8t13 3h18q8 0 13.5 -6t5.5 -14q0 -5 -5 -12l-139 -197q28 7 63 7q71 0 122.5 -30t77.5 -80t26 -108t-26 -108t-77.5 -80.5t-122.5 -30.5q-72 0 -123 30.5t-77 80.5t-26 108zM444 210q0 51 -23 87.5t-61.5 56t-82.5 19.5
q-45 0 -83 -19.5t-61 -56t-23 -87.5t23 -88t61 -56.5t83 -19.5q44 0 82.5 19.5t61.5 56.5t23 88z" />
    <glyph glyph-name="seven" unicode="7" horiz-adv-x="452" 
d="M124 20l1 9l239 566h-317q-9 0 -14.5 5.5t-5.5 14.5v14q0 9 5.5 15t14.5 6h359q10 0 15.5 -5.5t5.5 -15.5v-14q0 -18 -6 -34l-235 -558q-5 -11 -10 -17t-14 -6h-20q-8 0 -13 6t-5 14z" />
    <glyph glyph-name="eight" unicode="8" horiz-adv-x="574" 
d="M56 183q0 58 27.5 99.5t77.5 64.5q-39 22 -60.5 57.5t-21.5 84.5q0 80 59 125.5t149 45.5t149 -45.5t59 -125.5q0 -49 -22 -84.5t-60 -57.5q50 -23 77.5 -64.5t27.5 -99.5q0 -60 -30.5 -104t-83 -66t-117.5 -22t-117.5 22t-83 66t-30.5 104zM437 489q0 53 -43 84t-107 31
t-107 -31t-43 -84t43 -84t107 -31q63 2 106.5 33t43.5 82zM460 183q0 61 -49.5 98.5t-123.5 37.5t-123.5 -37.5t-49.5 -98.5q0 -62 50 -99.5t123 -37.5t123 37.5t50 99.5z" />
    <glyph glyph-name="nine" unicode="9" horiz-adv-x="531" 
d="M168 20q0 6 5 13l147 206q-28 -8 -61 -8q-70 0 -120 31t-75 80t-25 103t25 103t75 80.5t120 31.5q71 0 121 -31.5t75 -80.5t25 -103q0 -48 -15.5 -85.5t-39.5 -70.5l-191 -270q-1 -2 -5 -7t-10 -8.5t-14 -3.5h-18q-9 0 -14 6t-5 14zM422 445q0 47 -22.5 83.5t-59.5 56
t-81 19.5q-43 0 -80.5 -19.5t-59 -56t-21.5 -83.5t21.5 -83t59 -55.5t80.5 -19.5q44 0 81 19.5t59.5 56t22.5 82.5z" />
    <glyph glyph-name="colon" unicode=":" horiz-adv-x="224" 
d="M69 346v44q0 9 5.5 15.5t14.5 6.5h45q9 0 15 -6.5t6 -15.5v-44q0 -10 -6 -15.5t-15 -5.5h-45q-9 0 -14.5 5.5t-5.5 15.5zM69 20v45q0 9 5.5 15t14.5 6h45q9 0 15 -6t6 -15v-45q0 -9 -6 -14.5t-15 -5.5h-45q-9 0 -14.5 5.5t-5.5 14.5z" />
    <glyph glyph-name="semicolon" unicode=";" horiz-adv-x="241" 
d="M80 346v44q0 9 5.5 15.5t14.5 6.5h45q9 0 15 -6.5t6 -15.5v-44q0 -10 -6 -15.5t-15 -5.5h-45q-9 0 -14.5 5.5t-5.5 15.5zM69 -50l17 111q3 25 24 25h41q6 0 10 -4.5t4 -9.5q0 -9 -3 -17l-40 -105q-5 -10 -10 -15t-14 -5h-16q-8 0 -11.5 5.5t-1.5 14.5z" />
    <glyph glyph-name="less" unicode="&#x3c;" horiz-adv-x="447" 
d="M337 89l-274 190q-15 10 -21 19.5t-6 22.5v12q0 13 6 22.5t21 19.5l274 190q17 11 25 11q9 0 14 -5t5 -14v-15q0 -10 -4 -16t-16 -13l-268 -186l268 -186q12 -7 16 -13t4 -16v-15q0 -9 -5 -14t-14 -5q-8 0 -25 11z" />
    <glyph glyph-name="equal" unicode="=" horiz-adv-x="530" 
d="M71 388v13q0 10 5.5 15.5t14.5 5.5h348q10 0 15.5 -5.5t5.5 -15.5v-13q0 -9 -5.5 -14.5t-15.5 -5.5h-348q-9 0 -14.5 5.5t-5.5 14.5zM71 156v13q0 9 5.5 15t14.5 6h348q10 0 15.5 -6t5.5 -15v-13q0 -9 -5.5 -14.5t-15.5 -5.5h-348q-9 0 -14.5 5.5t-5.5 14.5z" />
    <glyph glyph-name="greater" unicode="&#x3e;" horiz-adv-x="446" 
d="M66 97v15q0 10 4 16t15 13l269 186l-269 186q-11 7 -15 13t-4 16v15q0 9 5 14t14 5q8 0 25 -11l274 -190q15 -10 21 -19.5t6 -22.5v-12q0 -13 -6 -22.5t-21 -19.5l-274 -190q-17 -11 -25 -11q-9 0 -14 5t-5 14z" />
    <glyph glyph-name="question" unicode="?" horiz-adv-x="467" 
d="M209 153v45q0 38 13 68.5t31.5 53.5t49.5 54q38 40 55 65.5t17 58.5q0 49 -41.5 78.5t-96.5 29.5q-59 0 -98 -31t-50 -98q-4 -21 -22 -21h-15q-8 0 -13.5 5t-5.5 14q0 51 27 93t73 67t104 25q62 0 106 -22.5t66 -59.5t22 -80q0 -48 -22.5 -83.5t-65.5 -80.5
q-39 -41 -58 -70t-19 -66v-45q0 -9 -5.5 -14.5t-15.5 -5.5h-16q-9 0 -14.5 5.5t-5.5 14.5zM198 20v36q0 9 5.5 15t14.5 6h36q9 0 15 -6t6 -15v-36q0 -9 -6 -14.5t-15 -5.5h-36q-9 0 -14.5 5.5t-5.5 14.5z" />
    <glyph glyph-name="at" unicode="@" horiz-adv-x="767" 
d="M59 174q-2 27 -2 81t2 78q16 133 97 207t218 74q158 0 240.5 -72t88.5 -209q2 -39 2 -60q0 -45 -2 -64q-8 -136 -120 -136q-39 0 -62.5 18t-35.5 37q-38 -64 -116 -64q-71 0 -112 50t-41 140t41.5 140t111.5 50q35 0 57.5 -13t37.5 -32v17q0 9 6 15t15 6h16q9 0 14.5 -6
t5.5 -15v-202q0 -42 17.5 -64.5t44.5 -22.5q37 0 50 27.5t14 60.5q1 18 1 59q0 35 -1 54q-9 115 -73.5 173.5t-199.5 58.5q-112 0 -178.5 -60.5t-79.5 -171.5q-3 -23 -3 -73t3 -77q12 -109 78.5 -169t179.5 -60q64 0 105 11t55.5 20.5t46.5 33.5q1 1 7 6t15 5h24
q8 0 14 -5.5t6 -13.5q0 -7 -5 -13q-44 -45 -106 -71.5t-162 -26.5q-139 0 -219.5 71.5t-95.5 207.5zM464 254q0 64 -21.5 100t-73.5 36q-50 0 -73 -36.5t-23 -99.5q0 -59 23.5 -97.5t72.5 -38.5q52 0 73.5 36t21.5 100z" />
    <glyph glyph-name="A" unicode="A" horiz-adv-x="604" 
d="M22 19l2 10l235 603q8 18 27 18h32q19 0 27 -18l235 -603l2 -10q0 -8 -6 -13.5t-13 -5.5h-19q-8 0 -13 4.5t-7 9.5l-58 149h-329l-57 -149q-2 -5 -7 -9.5t-14 -4.5h-18q-8 0 -13.5 5.5t-5.5 13.5zM160 218h284l-142 366z" />
    <glyph glyph-name="B" unicode="B" horiz-adv-x="607" 
d="M87 20v609q0 9 5.5 15t15.5 6h242q92 0 139.5 -47t47.5 -119q0 -55 -24 -90t-58 -51q40 -21 67.5 -62.5t27.5 -96.5q0 -48 -23 -90.5t-66.5 -68t-103.5 -25.5h-249q-10 0 -15.5 5.5t-5.5 14.5zM338 368q69 0 104.5 30t35.5 86q0 55 -35.5 83t-104.5 28h-192v-227h192z
M347 56q68 0 106 35.5t38 92.5q0 58 -38 93t-106 35h-201v-256h201z" />
    <glyph glyph-name="C" unicode="C" horiz-adv-x="605" 
d="M61 242q-1 26 -1 82q0 58 1 84q5 115 65.5 183.5t180.5 68.5q83 0 138 -30.5t81.5 -76.5t29.5 -94v-2q0 -7 -6 -12t-14 -5h-19q-16 0 -20 20q-18 79 -64.5 111.5t-125.5 32.5q-87 0 -135 -49.5t-52 -151.5q-1 -25 -1 -77t1 -79q4 -102 52 -151.5t135 -49.5
q79 0 125.5 32.5t64.5 111.5q4 20 20 20h19q8 0 14 -5t6 -14q-3 -48 -29.5 -94t-81.5 -76t-138 -30q-120 0 -180.5 68t-65.5 183z" />
    <glyph glyph-name="D" unicode="D" horiz-adv-x="629" 
d="M87 20v609q0 9 5.5 15t15.5 6h198q96 0 152.5 -28t80 -83t25.5 -140q1 -27 1 -73t-1 -74q-2 -89 -25.5 -143.5t-78.5 -81.5t-150 -27h-202q-10 0 -15.5 5.5t-5.5 14.5zM306 56q74 0 116.5 20t62 63t20.5 117q1 28 1 70q0 41 -1 69q-1 104 -48 152t-156 48h-155v-539h160z
" />
    <glyph glyph-name="E" unicode="E" horiz-adv-x="550" 
d="M87 20v609q0 9 5.5 15t15.5 6h362q10 0 15.5 -5.5t5.5 -15.5v-14q0 -9 -6 -14.5t-15 -5.5h-324v-237h304q10 0 15.5 -5.5t5.5 -16.5v-14q0 -9 -6 -14.5t-15 -5.5h-304v-246h332q10 0 15.5 -5.5t5.5 -16.5v-14q0 -9 -6 -14.5t-15 -5.5h-370q-10 0 -15.5 5.5t-5.5 14.5z
" />
    <glyph glyph-name="F" unicode="F" horiz-adv-x="530" 
d="M87 20v609q0 9 5.5 15t15.5 6h358q11 0 16.5 -5.5t5.5 -15.5v-14q0 -9 -6 -14.5t-16 -5.5h-320v-250h302q10 0 15.5 -5.5t5.5 -16.5v-14q0 -9 -6 -14.5t-15 -5.5h-302v-269q0 -9 -6 -14.5t-16 -5.5h-16q-10 0 -15.5 5.5t-5.5 14.5z" />
    <glyph glyph-name="G" unicode="G" horiz-adv-x="617" 
d="M62 237q-1 28 -1 88q0 61 1 88q4 113 68 180t180 67q79 0 133 -30t80.5 -70.5t28.5 -71.5v-2q0 -8 -5.5 -12.5t-14.5 -4.5h-20q-8 0 -12 4t-8 15q-15 49 -60.5 82.5t-121.5 33.5q-86 0 -136 -47.5t-53 -147.5q-1 -28 -1 -84t1 -83q3 -101 53 -148.5t136 -47.5
q87 0 140 49.5t53 146.5v47h-162q-9 0 -14.5 6t-5.5 15v13q0 10 5.5 16t14.5 6h199q10 0 15.5 -5.5t5.5 -16.5v-81q0 -75 -29.5 -131.5t-86.5 -88t-135 -31.5q-116 0 -180 66.5t-68 179.5z" />
    <glyph glyph-name="H" unicode="H" horiz-adv-x="650" 
d="M87 20v609q0 9 5.5 15t15.5 6h16q11 0 16.5 -5.5t5.5 -15.5v-271h358v271q0 9 6 15t15 6h17q10 0 15.5 -5.5t5.5 -15.5v-609q0 -9 -6 -14.5t-15 -5.5h-17q-9 0 -15 5.5t-6 14.5v282h-358v-282q0 -9 -6 -14.5t-16 -5.5h-16q-10 0 -15.5 5.5t-5.5 14.5z" />
    <glyph glyph-name="I" unicode="I" horiz-adv-x="233" 
d="M87 20v610q0 9 5.5 14.5t15.5 5.5h17q10 0 15.5 -5.5t5.5 -14.5v-610q0 -9 -5.5 -14.5t-15.5 -5.5h-17q-10 0 -15.5 5.5t-5.5 14.5z" />
    <glyph glyph-name="J" unicode="J" horiz-adv-x="574" 
d="M42 180q0 10 5 15.5t14 5.5h19q9 0 14 -5.5t6 -14.5q6 -69 52 -102t116 -33q79 0 122.5 52.5t43.5 139.5v357h-343q-9 0 -14.5 5.5t-5.5 14.5v15q0 9 5.5 14.5t14.5 5.5h380q10 0 15.5 -5.5t5.5 -15.5v-392q0 -112 -59 -179t-165 -67q-97 0 -159.5 47.5t-66.5 141.5z" />
    <glyph glyph-name="K" unicode="K" horiz-adv-x="534" 
d="M87 20v609q0 9 5.5 15t15.5 6h16q11 0 16.5 -5.5t5.5 -15.5v-242l281 249q8 6 16 10t20 4h15q7 0 12.5 -5.5t5.5 -12.5q0 -8 -5 -12l-314 -281l334 -307q6 -6 6 -13q0 -8 -6 -13.5t-13 -5.5h-16q-12 0 -20 4t-15 10l-301 275v-269q0 -9 -6 -14.5t-16 -5.5h-16
q-10 0 -15.5 5.5t-5.5 14.5z" />
    <glyph glyph-name="L" unicode="L" horiz-adv-x="509" 
d="M87 20v610q0 9 5.5 14.5t15.5 5.5h17q10 0 15.5 -5.5t5.5 -14.5v-574h320q11 0 16.5 -5.5t5.5 -16.5v-14q0 -9 -6 -14.5t-16 -5.5h-358q-10 0 -15.5 5.5t-5.5 14.5z" />
    <glyph glyph-name="M" unicode="M" horiz-adv-x="725" 
d="M87 20v609q0 10 6 15.5t16 5.5h23q14 0 19 -12l211 -410l212 410q7 12 20 12h22q10 0 15.5 -5.5t5.5 -15.5v-609q0 -9 -6 -14.5t-15 -5.5h-17q-9 0 -14.5 5.5t-5.5 14.5v504l-178 -349q-8 -19 -28 -19h-21q-20 0 -29 19l-177 349v-504q0 -9 -5.5 -14.5t-15.5 -5.5h-16
q-10 0 -16 5.5t-6 14.5z" />
    <glyph glyph-name="N" unicode="N" horiz-adv-x="635" 
d="M87 20v609q0 9 5.5 15t15.5 6h19q12 0 20 -11l343 -524v514q0 9 5.5 15t14.5 6h17q10 0 15.5 -5.5t5.5 -15.5v-608q0 -9 -5.5 -15t-14.5 -6h-21q-12 0 -19 11l-342 522v-513q0 -9 -6 -14.5t-16 -5.5h-16q-10 0 -15.5 5.5t-5.5 14.5z" />
    <glyph glyph-name="O" unicode="O" horiz-adv-x="615" 
d="M62 247q-1 28 -1 78t1 78q4 127 69 192t176 65q112 0 177 -65t69 -192q2 -56 2 -78t-2 -78q-7 -256 -246 -256q-238 0 -245 256zM494 252q2 55 2 73t-2 74q-3 104 -53.5 154.5t-133.5 50.5q-82 0 -132.5 -50.5t-53.5 -154.5q-1 -28 -1 -74q0 -45 1 -73q3 -104 53 -155
t133 -51q84 0 134 51t53 155z" />
    <glyph glyph-name="P" unicode="P" horiz-adv-x="583" 
d="M87 20v609q0 9 5.5 15t15.5 6h226q99 0 156 -49.5t57 -142.5t-57 -142.5t-156 -49.5h-188v-246q0 -9 -6 -14.5t-16 -5.5h-16q-10 0 -15.5 5.5t-5.5 14.5zM329 321q80 0 120 35t40 102t-40 102t-120 35h-183v-274h183z" />
    <glyph glyph-name="Q" unicode="Q" horiz-adv-x="615" 
d="M478 -39l-40 57q-56 -27 -131 -27q-238 0 -245 256q-1 28 -1 78t1 78q4 127 69 192t176 65q112 0 177 -65t69 -192q2 -56 2 -78t-2 -78q-5 -133 -68 -195l59 -84q3 -5 3 -10q0 -7 -5.5 -12.5t-12.5 -5.5h-21q-14 0 -30 21zM494 252q2 55 2 73t-2 74q-3 104 -53.5 154.5
t-133.5 50.5q-82 0 -132.5 -50.5t-53.5 -154.5q-1 -28 -1 -74q0 -45 1 -73q3 -104 53 -155t133 -51q84 0 134 51t53 155z" />
    <glyph glyph-name="R" unicode="R" horiz-adv-x="595" 
d="M87 20v609q0 9 5.5 15t15.5 6h216q101 0 157.5 -47t56.5 -140q0 -74 -36.5 -119t-103.5 -61l149 -254q3 -6 3 -10q0 -8 -5.5 -13.5t-13.5 -5.5h-11q-14 0 -21 6t-14 19l-148 250h-191v-255q0 -9 -6 -14.5t-16 -5.5h-16q-10 0 -15.5 5.5t-5.5 14.5zM320 331q80 0 119.5 33
t39.5 99t-39.5 99t-119.5 33h-174v-264h174z" />
    <glyph glyph-name="S" unicode="S" horiz-adv-x="562" 
d="M45 158q0 7 5.5 13t13.5 6h19q16 0 20 -19q7 -45 51.5 -78.5t127.5 -33.5q89 0 132 32.5t43 89.5q0 35 -21 58t-61 40t-120 43q-72 24 -112.5 46t-60 54.5t-19.5 82.5q0 48 25.5 86t74 60t115.5 22q69 0 118 -25t74 -62.5t27 -75.5q0 -7 -5 -13t-14 -6h-19
q-7 0 -13.5 4.5t-7.5 14.5q-5 46 -49 76.5t-111 30.5q-72 0 -114 -28t-42 -84q0 -36 19 -59.5t57 -41t112 -41.5q76 -24 119 -46.5t65 -54t22 -81.5q0 -83 -62.5 -130t-171.5 -47q-72 0 -125.5 23.5t-82 61.5t-29.5 82z" />
    <glyph glyph-name="T" unicode="T" horiz-adv-x="517" 
d="M229 20v575h-183q-10 0 -15.5 5.5t-5.5 14.5v14q0 9 5.5 15t15.5 6h425q10 0 15.5 -5.5t5.5 -15.5v-14q0 -9 -6 -14.5t-15 -5.5h-183v-575q0 -9 -6 -14.5t-15 -5.5h-17q-9 0 -15 5.5t-6 14.5z" />
    <glyph glyph-name="U" unicode="U" horiz-adv-x="642" 
d="M82 252v377q0 9 5.5 15t14.5 6h17q10 0 15.5 -5.5t5.5 -15.5v-380q0 -102 47.5 -152.5t133.5 -50.5t133.5 50.5t47.5 152.5v380q0 10 6 15.5t15 5.5h17q9 0 14.5 -6t5.5 -15v-377q0 -133 -61 -197t-178 -64q-116 0 -177.5 64.5t-61.5 196.5z" />
    <glyph glyph-name="V" unicode="V" horiz-adv-x="593" 
d="M252 22l-216 600l-2 10q0 7 6 12.5t13 5.5h19q9 0 14 -4.5t7 -9.5l203 -568l204 568q2 5 7 9.5t13 4.5h20q7 0 12.5 -5.5t5.5 -12.5l-2 -10l-215 -600q-8 -22 -32 -22h-26q-23 0 -31 22z" />
    <glyph glyph-name="W" unicode="W" horiz-adv-x="732" 
d="M174 22l-128 599l-1 11q0 7 5.5 12.5t12.5 5.5h20q17 0 20 -14l109 -529l115 378q7 21 29 21h20q22 0 29 -21l115 -378l109 529q3 14 20 14h20q7 0 12.5 -5.5t5.5 -12.5l-1 -11l-128 -599q-2 -12 -8.5 -17t-17.5 -5h-14q-21 0 -28 22l-124 392l-124 -392q-6 -22 -28 -22
h-14q-11 0 -17 5t-9 17z" />
    <glyph glyph-name="X" unicode="X" horiz-adv-x="566" 
d="M28 19q0 6 4 12l216 300l-208 289q-4 5 -4 12t5.5 12.5t13.5 5.5h22q12 0 21 -14l187 -260l183 260q10 14 22 14h20q7 0 13 -5.5t6 -12.5t-4 -12l-205 -291l215 -298q4 -6 4 -12q0 -8 -5.5 -13.5t-13.5 -5.5h-22q-11 0 -21 14l-195 268l-194 -268q-9 -14 -21 -14h-21
q-7 0 -12.5 5.5t-5.5 13.5z" />
    <glyph glyph-name="Y" unicode="Y" horiz-adv-x="587" 
d="M264 20v228l-227 372q-4 7 -4 12q0 7 6 12.5t13 5.5h19q13 0 21 -14l202 -328l201 328q9 14 22 14h18q8 0 13.5 -5.5t5.5 -12.5q0 -5 -4 -12l-227 -372v-228q0 -9 -6 -14.5t-15 -5.5h-18q-9 0 -14.5 5.5t-5.5 14.5z" />
    <glyph glyph-name="Z" unicode="Z" horiz-adv-x="538" 
d="M39 21v19q0 16 6.5 25t7.5 10l366 520h-351q-9 0 -15 5.5t-6 14.5v14q0 9 6 15t15 6h400q10 0 16 -5.5t6 -15.5v-19q0 -10 -3.5 -17t-8.5 -16l-365 -521h365q10 0 15.5 -5.5t5.5 -16.5v-14q0 -9 -6 -14.5t-15 -5.5h-419q-9 0 -14.5 6t-5.5 15z" />
    <glyph glyph-name="bracketleft" unicode="[" horiz-adv-x="280" 
d="M72 -127v827q0 10 6 15.5t15 5.5h140q9 0 15 -5.5t6 -15.5v-13q0 -9 -6 -14.5t-15 -5.5h-104v-761h104q9 0 15 -5.5t6 -14.5v-13q0 -10 -6 -15.5t-15 -5.5h-140q-9 0 -15 5.5t-6 15.5z" />
    <glyph glyph-name="backslash" unicode="\" horiz-adv-x="426" 
d="M347 -64l-320 764q-3 8 -3 12q0 7 5.5 12.5t13.5 5.5h16q8 0 13 -4.5t7 -9.5l320 -764q2 -8 2 -11q0 -8 -5.5 -13.5t-12.5 -5.5h-16q-8 0 -13.5 4.5t-6.5 9.5z" />
    <glyph glyph-name="bracketright" unicode="]" horiz-adv-x="280" 
d="M26 -127v13q0 9 5.5 14.5t14.5 5.5h104v761h-104q-9 0 -14.5 5.5t-5.5 14.5v13q0 10 5.5 15.5t14.5 5.5h141q9 0 14.5 -5.5t5.5 -15.5v-827q0 -10 -5.5 -15.5t-14.5 -5.5h-141q-9 0 -14.5 5.5t-5.5 15.5z" />
    <glyph glyph-name="asciicircum" unicode="^" horiz-adv-x="388" 
d="M68 544q0 8 11 19l81 79q8 8 14.5 10.5t15.5 2.5h9q9 0 15 -2.5t15 -10.5l80 -79q12 -11 12 -19q0 -10 -14 -10h-15q-7 0 -13.5 2t-10.5 5l-74 55l-74 -55q-4 -3 -10.5 -5t-12.5 -2h-16q-13 0 -13 10z" />
    <glyph glyph-name="underscore" unicode="_" horiz-adv-x="700" 
d="M62 -6v13q0 10 5.5 15.5t15.5 5.5h534q9 0 14.5 -5.5t5.5 -15.5v-13q0 -9 -5.5 -14.5t-14.5 -5.5h-534q-10 0 -15.5 5.5t-5.5 14.5z" />
    <glyph glyph-name="grave" unicode="`" horiz-adv-x="289" 
d="M171 562l-101 83q-5 4 -5 11q0 18 18 18h38q13 0 19.5 -3.5t14.5 -13.5l64 -77q5 -5 5 -12q0 -15 -15 -15h-9q-10 0 -16 1.5t-13 7.5z" />
    <glyph glyph-name="a" unicode="a" horiz-adv-x="498" 
d="M39 129q0 61 49.5 100t134.5 51l147 20v33q0 51 -31.5 78t-95.5 27q-47 0 -77 -18.5t-39 -44.5q-3 -11 -8.5 -15t-13.5 -4h-13q-8 0 -14 6t-6 14q0 21 18.5 48t57.5 47.5t95 20.5q100 0 141.5 -47t41.5 -115v-310q0 -9 -5.5 -14.5t-14.5 -5.5h-16q-9 0 -14.5 5.5
t-5.5 14.5v44q-21 -31 -60.5 -52t-104.5 -21q-44 0 -82 18.5t-61 50t-23 69.5zM370 217v32l-120 -17q-76 -10 -115 -35t-39 -63q0 -43 35.5 -66t83.5 -23q67 0 111 44.5t44 127.5z" />
    <glyph glyph-name="b" unicode="b" horiz-adv-x="539" 
d="M133 64v-44q0 -9 -5.5 -14.5t-15.5 -5.5h-15q-10 0 -15.5 5.5t-5.5 14.5v619q0 9 5.5 15t15.5 6h15q10 0 15.5 -6t5.5 -15v-220q55 73 156 73q100 0 148 -65.5t51 -158.5q1 -10 1 -26q0 -17 -1 -26q-3 -94 -51 -159.5t-148 -65.5q-102 0 -156 73zM431 216q1 9 1 26
q0 86 -33.5 141t-115.5 55q-49 0 -82.5 -23t-50 -58.5t-17.5 -75.5l-1 -37l1 -36q3 -66 40 -114.5t110 -48.5q76 0 110.5 47.5t37.5 123.5z" />
    <glyph glyph-name="c" unicode="c" horiz-adv-x="498" 
d="M53 204l-1 38l1 37q3 101 56 157t149 56q62 0 105 -21.5t64.5 -55.5t23.5 -70q0 -9 -6.5 -15t-14.5 -6h-13q-9 0 -13.5 4.5t-8.5 15.5q-19 51 -52.5 72.5t-84.5 21.5q-67 0 -106.5 -40t-41.5 -124l-1 -32l1 -33q2 -84 41.5 -124t106.5 -40q51 0 84.5 21.5t52.5 72.5
q4 11 8.5 15.5t13.5 4.5h13q8 0 14.5 -6t6.5 -15q-2 -36 -23.5 -70t-64.5 -55.5t-105 -21.5q-96 0 -149 56t-56 157z" />
    <glyph glyph-name="d" unicode="d" horiz-adv-x="539" 
d="M51 216l-1 26l1 26q3 93 51 158.5t148 65.5q101 0 156 -73v220q0 9 5.5 15t14.5 6h16q9 0 15 -6t6 -15v-619q0 -9 -6 -14.5t-15 -5.5h-16q-9 0 -14.5 5.5t-5.5 14.5v44q-54 -73 -156 -73q-100 0 -148 65.5t-51 159.5zM406 208q1 9 1 36t-1 37q-1 40 -17.5 75.5t-50 58.5
t-83.5 23q-75 0 -109.5 -47.5t-37.5 -122.5l-1 -26q0 -87 33.5 -142t114.5 -55q74 0 111 48.5t40 114.5z" />
    <glyph glyph-name="e" unicode="e" horiz-adv-x="507" 
d="M51 204l-1 38l1 37q8 96 61 154.5t143 58.5q96 0 150.5 -64t54.5 -175v-14q0 -10 -6 -15.5t-16 -5.5h-330v-9q2 -44 20 -81.5t50.5 -60t76.5 -22.5q51 0 83 20t46 40q8 11 12 14t16 3h14q9 0 14.5 -5t5.5 -12q0 -20 -24.5 -47t-68.5 -47t-98 -20q-89 0 -142.5 58
t-61.5 155zM403 270v4q0 72 -40.5 118t-107.5 46q-68 0 -107.5 -46t-39.5 -118v-4h295z" />
    <glyph glyph-name="f" unicode="f" horiz-adv-x="334" 
d="M121 20v409h-83q-9 0 -14.5 5.5t-5.5 15.5v13q0 9 5.5 14.5t14.5 5.5h83v53q0 71 30.5 111t109.5 40h48q10 0 15.5 -5.5t5.5 -14.5v-13q0 -9 -5.5 -14.5t-15.5 -5.5h-48q-47 0 -65.5 -25t-18.5 -78v-48h123q9 0 15 -5.5t6 -14.5v-13q0 -10 -6 -15.5t-15 -5.5h-123v-409
q0 -9 -5.5 -14.5t-14.5 -5.5h-16q-9 0 -14.5 5.5t-5.5 14.5z" />
    <glyph glyph-name="g" unicode="g" horiz-adv-x="540" 
d="M61 -66q0 8 6 14t15 6h13q8 0 13 -4.5t9 -15.5q29 -84 134 -84q80 0 118 32.5t38 117.5v64q-54 -73 -156 -73q-101 0 -148.5 65.5t-50.5 159.5l-1 26l1 26q3 93 50.5 158.5t148.5 65.5t156 -73v43q0 9 5.5 15t14.5 6h15q9 0 15.5 -6t6.5 -15v-453q0 -99 -46.5 -156
t-162.5 -57q-72 0 -115.5 25t-61 57t-17.5 56zM407 208q1 9 1 34q0 24 -1 33q-3 66 -40 114.5t-111 48.5q-75 0 -110 -47.5t-37 -122.5l-1 -26l1 -26q2 -76 37 -123.5t110 -47.5q74 0 111 48.5t40 114.5z" />
    <glyph glyph-name="h" unicode="h" horiz-adv-x="549" 
d="M76 20v619q0 9 5.5 15t15.5 6h15q10 0 15.5 -6t5.5 -15v-220q28 36 63.5 54.5t92.5 18.5q91 0 140 -58t49 -150v-264q0 -9 -5.5 -14.5t-14.5 -5.5h-16q-9 0 -14.5 5.5t-5.5 14.5v260q0 75 -37 116.5t-105 41.5q-67 0 -107 -42t-40 -116v-260q0 -9 -5.5 -14.5t-15.5 -5.5
h-15q-10 0 -15.5 5.5t-5.5 14.5z" />
    <glyph glyph-name="i" unicode="i" horiz-adv-x="207" 
d="M65 603v35q0 10 5.5 16t14.5 6h36q9 0 15 -6t6 -16v-35q0 -9 -6 -15t-15 -6h-36q-9 0 -14.5 6t-5.5 15zM75 20v443q0 9 5.5 14.5t15.5 5.5h15q10 0 15.5 -5.5t5.5 -14.5v-443q0 -9 -5.5 -14.5t-15.5 -5.5h-15q-10 0 -15.5 5.5t-5.5 14.5z" />
    <glyph glyph-name="j" unicode="j" horiz-adv-x="216" 
d="M73 603v35q0 10 6 16t15 6h35q9 0 15 -6t6 -16v-35q0 -9 -6 -15t-15 -6h-35q-9 0 -15 6t-6 15zM-24 -156v13q0 9 5.5 14.5t14.5 5.5h4q51 0 67.5 26t16.5 77v483q0 9 5.5 14.5t14.5 5.5h16q9 0 14.5 -5.5t5.5 -14.5v-483q0 -74 -30.5 -115.5t-109.5 -41.5h-4
q-9 0 -14.5 6t-5.5 15z" />
    <glyph glyph-name="k" unicode="k" horiz-adv-x="452" 
d="M76 20v619q0 9 5.5 15t15.5 6h15q10 0 15.5 -6t5.5 -15v-329l207 157q15 11 20.5 13.5t18.5 2.5h18q8 0 13 -5t5 -14q0 -10 -12 -18l-235 -178l258 -231q12 -11 12 -18q0 -9 -5 -14t-13 -5h-15q-14 0 -20.5 2.5t-18.5 13.5l-233 207v-203q0 -9 -5.5 -14.5t-15.5 -5.5h-15
q-10 0 -15.5 5.5t-5.5 14.5z" />
    <glyph glyph-name="l" unicode="l" horiz-adv-x="209" 
d="M76 20v619q0 9 5.5 15t15.5 6h15q10 0 15.5 -6t5.5 -15v-619q0 -9 -5.5 -14.5t-15.5 -5.5h-15q-10 0 -15.5 5.5t-5.5 14.5z" />
    <glyph glyph-name="m" unicode="m" horiz-adv-x="816" 
d="M75 20v443q0 9 5.5 14.5t15.5 5.5h15q10 0 15.5 -5.5t5.5 -14.5v-33q24 31 56 46.5t77 15.5q104 0 148 -87q23 40 64 63.5t94 23.5q77 0 125.5 -52.5t48.5 -148.5v-271q0 -9 -5.5 -14.5t-14.5 -5.5h-16q-9 0 -15 5.5t-6 14.5v261q0 85 -34.5 121t-91.5 36
q-50 0 -87 -36.5t-37 -120.5v-261q0 -9 -5.5 -14.5t-14.5 -5.5h-16q-9 0 -14.5 5.5t-5.5 14.5v261q0 84 -36.5 120.5t-90.5 36.5q-50 0 -86.5 -36.5t-36.5 -119.5v-262q0 -9 -5.5 -14.5t-15.5 -5.5h-15q-10 0 -15.5 5.5t-5.5 14.5z" />
    <glyph glyph-name="n" unicode="n" horiz-adv-x="548" 
d="M75 20v443q0 9 5.5 14.5t15.5 5.5h15q10 0 15.5 -5.5t5.5 -14.5v-44q28 36 63.5 54.5t92.5 18.5q91 0 140.5 -58t49.5 -150v-264q0 -9 -6 -14.5t-15 -5.5h-16q-9 0 -14.5 5.5t-5.5 14.5v260q0 75 -37 116.5t-105 41.5q-67 0 -107 -42t-40 -116v-260q0 -9 -5.5 -14.5
t-15.5 -5.5h-15q-10 0 -15.5 5.5t-5.5 14.5z" />
    <glyph glyph-name="o" unicode="o" horiz-adv-x="518" 
d="M53 203l-1 39l1 39q3 93 56.5 152t149.5 59q97 0 150.5 -59t55.5 -152q1 -10 1 -39q0 -30 -1 -39q-2 -94 -55.5 -153t-150.5 -59q-96 0 -149.5 59t-56.5 153zM409 207q1 9 1 35q0 25 -1 34q-3 78 -43.5 120t-106.5 42t-106.5 -42t-42.5 -120l-1 -34l1 -35
q2 -78 42.5 -120t106.5 -42t106.5 42t43.5 120z" />
    <glyph glyph-name="p" unicode="p" horiz-adv-x="540" 
d="M76 -156v619q0 9 5.5 14.5t15.5 5.5h15q10 0 15.5 -5.5t5.5 -14.5v-44q54 73 156 73q100 0 148 -63.5t51 -156.5q1 -9 1 -30q0 -22 -1 -31q-3 -93 -51 -156.5t-148 -63.5q-101 0 -156 73v-220q0 -9 -5.5 -15t-15.5 -6h-15q-10 0 -15.5 6t-5.5 15zM431 216q1 9 1 26
q0 86 -33.5 141t-115.5 55q-73 0 -110 -48.5t-40 -114.5l-1 -36l1 -36q1 -40 17.5 -76t50 -59t82.5 -23q76 0 110.5 47.5t37.5 123.5z" />
    <glyph glyph-name="q" unicode="q" horiz-adv-x="540" 
d="M407 -156v220q-55 -73 -156 -73t-148.5 63.5t-50.5 156.5l-1 31l1 30q3 93 50.5 156.5t148.5 63.5q102 0 156 -73v44q0 9 5.5 14.5t14.5 5.5h16q9 0 15 -5.5t6 -14.5v-619q0 -9 -6 -15t-15 -6h-16q-9 0 -14.5 6t-5.5 15zM407 203q1 9 1 36t-1 36q-3 66 -40 114.5
t-111 48.5q-75 0 -110 -47.5t-37 -122.5l-1 -26q0 -87 33.5 -142t114.5 -55q50 0 83.5 23t50 59t17.5 76z" />
    <glyph glyph-name="r" unicode="r" horiz-adv-x="323" 
d="M75 20v442q0 9 5.5 15t15.5 6h15q9 0 15 -6t6 -15v-43q33 64 126 64h35q9 0 14.5 -5.5t5.5 -14.5v-13q0 -10 -5.5 -15.5t-14.5 -5.5h-40q-56 0 -88.5 -32.5t-32.5 -88.5v-288q0 -9 -6 -14.5t-15 -5.5h-15q-10 0 -15.5 5.5t-5.5 14.5z" />
    <glyph glyph-name="s" unicode="s" horiz-adv-x="457" 
d="M44 99q0 9 6.5 14t13.5 5h14q7 0 11 -2.5t9 -9.5q21 -29 50 -45t81 -16q57 0 92.5 21.5t35.5 62.5q0 25 -14.5 41t-46.5 27.5t-95 26.5q-83 18 -113 50.5t-30 83.5q0 34 19 64.5t56.5 50t90.5 19.5q56 0 94.5 -19t57.5 -44t19 -41q0 -8 -6 -13t-15 -5h-14q-13 0 -20 12
q-19 28 -42.5 42t-73.5 14q-54 0 -82 -22t-28 -58q0 -23 11.5 -37.5t42 -27t88.5 -25.5q87 -20 122 -52.5t35 -86.5q0 -38 -21 -69.5t-63 -50t-100 -18.5q-61 0 -102.5 20.5t-62 46.5t-20.5 41z" />
    <glyph glyph-name="t" unicode="t" horiz-adv-x="334" 
d="M111 155v274h-72q-9 0 -14.5 5.5t-5.5 15.5v13q0 9 5.5 14.5t14.5 5.5h72v156q0 9 6 15t15 6h16q9 0 14.5 -6t5.5 -15v-156h115q10 0 15.5 -5.5t5.5 -14.5v-13q0 -10 -5.5 -15.5t-15.5 -5.5h-115v-270q0 -52 17.5 -78.5t56.5 -26.5h51q9 0 14.5 -5.5t5.5 -15.5v-13
q0 -9 -5.5 -14.5t-14.5 -5.5h-55q-69 0 -98 41.5t-29 113.5z" />
    <glyph glyph-name="u" unicode="u" horiz-adv-x="543" 
d="M71 199v264q0 9 5.5 14.5t14.5 5.5h16q9 0 14.5 -5.5t5.5 -14.5v-260q0 -158 139 -158q67 0 106.5 42t39.5 116v260q0 9 5.5 14.5t14.5 5.5h16q9 0 14.5 -5.5t5.5 -14.5v-443q0 -9 -5.5 -14.5t-14.5 -5.5h-16q-9 0 -14.5 5.5t-5.5 14.5v44q-28 -36 -64 -54.5t-92 -18.5
q-91 0 -138 57.5t-47 150.5z" />
    <glyph glyph-name="v" unicode="v" horiz-adv-x="498" 
d="M206 23l-171 431l-2 10q0 8 6 13.5t13 5.5h20q8 0 13 -4.5t7 -9.5l157 -401l157 401q2 5 7 9.5t13 4.5h20q7 0 12.5 -5.5t5.5 -13.5l-1 -10l-171 -431q-10 -23 -36 -23h-14q-26 0 -36 23z" />
    <glyph glyph-name="w" unicode="w" horiz-adv-x="730" 
d="M171 23l-131 431l-2 10q0 8 5.5 13.5t13.5 5.5h17q9 0 14.5 -4.5t6.5 -9.5l114 -386l122 381q2 8 8.5 13.5t16.5 5.5h18q11 0 17.5 -5.5t7.5 -13.5l122 -381l114 386q1 5 7 9.5t14 4.5h18q7 0 12.5 -5.5t5.5 -13.5l-2 -10l-131 -431q-4 -12 -10.5 -17.5t-18.5 -5.5h-16
q-25 0 -32 23l-117 366l-117 -366q-6 -23 -32 -23h-15q-12 0 -18.5 5.5t-11.5 17.5z" />
    <glyph glyph-name="x" unicode="x" horiz-adv-x="481" 
d="M33 19q0 9 7 18l163 210l-155 199q-7 9 -7 18q0 8 5.5 13.5t12.5 5.5h20q8 0 12.5 -3t10.5 -11l140 -179l139 178q1 1 4.5 5.5t8.5 7t10 2.5h19q7 0 12.5 -5.5t5.5 -13.5q0 -9 -7 -18l-157 -202l163 -207q8 -9 8 -18q0 -8 -5.5 -13.5t-13.5 -5.5h-19q-13 0 -24 14
l-146 188l-147 -188q-7 -7 -11 -10.5t-12 -3.5h-19q-7 0 -12.5 5.5t-5.5 13.5z" />
    <glyph glyph-name="y" unicode="y" horiz-adv-x="494" 
d="M138 -158q0 5 6 19l72 167l-178 418q-5 14 -5 18q0 8 5.5 13.5t12.5 5.5h20q14 0 21 -14l156 -368l160 368q7 14 21 14h19q7 0 12.5 -5.5t5.5 -13.5q0 -4 -5 -18l-264 -609q-7 -14 -21 -14h-19q-7 0 -13 6t-6 13z" />
    <glyph glyph-name="z" unicode="z" horiz-adv-x="455" 
d="M39 20v16q0 10 13 29l273 364h-256q-10 0 -15.5 5.5t-5.5 15.5v13q0 9 5.5 14.5t15.5 5.5h312q9 0 14.5 -5.5t5.5 -14.5v-16q0 -10 -13 -29l-271 -364h282q10 0 15.5 -5.5t5.5 -15.5v-13q0 -9 -5.5 -14.5t-15.5 -5.5h-340q-9 0 -14.5 5.5t-5.5 14.5z" />
    <glyph glyph-name="braceleft" unicode="{" horiz-adv-x="320" 
d="M113 122q0 50 -12 76.5t-40 45.5l-4 3q-13 8 -18 15.5t-5 18.5v12q0 11 5 18.5t18 15.5l5 4q27 19 39 45t12 76q0 99 9.5 154t43.5 85t103 30h5q9 0 14.5 -5.5t5.5 -15.5v-13q0 -9 -5.5 -14.5t-14.5 -5.5h-5q-46 0 -67 -23t-26.5 -68.5t-5.5 -142.5q0 -54 -16.5 -89.5
t-53.5 -56.5q37 -21 53.5 -56.5t16.5 -89.5q0 -96 5.5 -142t26.5 -69.5t67 -23.5h5q9 0 14.5 -5.5t5.5 -14.5v-13q0 -10 -5.5 -15.5t-14.5 -5.5h-5q-69 0 -103 31t-43.5 85t-9.5 154z" />
    <glyph glyph-name="bar" unicode="|" horiz-adv-x="203" 
d="M73 -173v985q0 9 6 14.5t15 5.5h16q9 0 14.5 -5.5t5.5 -14.5v-985q0 -9 -5.5 -14.5t-14.5 -5.5h-16q-9 0 -15 5.5t-6 14.5z" />
    <glyph glyph-name="braceright" unicode="}" horiz-adv-x="320" 
d="M206 451q0 -50 12 -76.5t40 -45.5l5 -3q13 -8 17.5 -15.5t4.5 -18.5v-11q0 -12 -4.5 -19t-17.5 -16l-6 -4q-27 -19 -39 -45t-12 -76q0 -99 -9 -153.5t-43 -85t-104 -30.5h-4q-10 0 -15.5 5.5t-5.5 15.5v13q0 9 5.5 14.5t15.5 5.5h4q47 0 67.5 23.5t26.5 69t6 141.5
q0 54 16.5 89.5t52.5 56.5q-36 21 -52.5 56.5t-16.5 89.5q0 97 -6 143t-26.5 69t-67.5 23h-4q-10 0 -15.5 5.5t-5.5 14.5v13q0 10 5.5 15.5t15.5 5.5h4q70 0 104 -30.5t43 -85t9 -154.5z" />
    <glyph glyph-name="asciitilde" unicode="~" horiz-adv-x="523" 
d="M72 250v21q0 11 14.5 23.5t38.5 20t49 7.5q28 0 49 -4.5t46 -12.5q26 -8 43.5 -11.5t38.5 -3.5q20 0 34 6t24.5 13t15.5 10q9 3 12 3q7 0 11 -4t4 -11v-22q0 -11 -14.5 -23t-38.5 -20t-49 -8t-45 4t-47 13q-24 7 -43 11.5t-42 4.5q-20 0 -34.5 -6t-24.5 -13t-15 -10
q-9 -4 -12 -4q-6 0 -10.5 4.5t-4.5 11.5z" />
    <glyph glyph-name="uni00A0" unicode="&#xa0;" horiz-adv-x="240" 
 />
    <glyph glyph-name="exclamdown" unicode="&#xa1;" horiz-adv-x="202" 
d="M139 462v-36q0 -9 -5.5 -15t-14.5 -6h-35q-10 0 -16 6t-6 15v36q0 9 6 14.5t16 5.5h35q9 0 14.5 -5.5t5.5 -14.5zM129 329v-477q0 -9 -5.5 -14.5t-14.5 -5.5h-16q-9 0 -15 5.5t-6 14.5v477q0 9 6 14.5t15 5.5h16q9 0 14.5 -5.5t5.5 -14.5z" />
    <glyph glyph-name="cent" unicode="&#xa2;" horiz-adv-x="505" 
d="M227 -72v65q-79 8 -123.5 63.5t-46.5 147.5l-1 38l1 37q2 92 46.5 147.5t123.5 64.5v55q0 10 5.5 15.5t14.5 5.5h15q9 0 14.5 -5.5t5.5 -15.5v-55q59 -5 97.5 -30.5t56 -57.5t18.5 -58q1 -9 -5.5 -15t-14.5 -6h-13q-9 0 -13.5 4.5t-8.5 15.5q-36 94 -144 94
q-61 0 -100 -40.5t-42 -123.5l-1 -32l1 -33q3 -83 42 -123.5t100 -40.5q108 0 144 94q4 11 8.5 15.5t13.5 4.5h13q8 0 14.5 -6t5.5 -15q-1 -27 -18.5 -59t-56 -57t-97.5 -30v-64q0 -10 -5.5 -15.5t-14.5 -5.5h-15q-9 0 -14.5 5.5t-5.5 15.5z" />
    <glyph glyph-name="sterling" unicode="&#xa3;" horiz-adv-x="611" 
d="M278 58q-27 24 -47.5 35.5t-44.5 11.5q-40 0 -56.5 -21.5t-22.5 -63.5q-3 -20 -20 -20h-21q-8 0 -13 5t-5 13q2 63 32.5 97.5t77.5 43.5q-1 27 -12 96l-6 38h-71q-10 0 -15.5 5.5t-5.5 14.5v15q0 9 5.5 14.5t15.5 5.5h65q-3 36 -3 76q0 65 23 118.5t69.5 86t116.5 32.5
q67 0 114 -28t71 -73.5t26 -99.5q0 -9 -5.5 -15t-14.5 -6h-16q-8 0 -14.5 6t-7.5 14q-25 146 -154 146q-72 0 -110.5 -50t-38.5 -132q0 -44 3 -75h196q10 0 15.5 -5.5t5.5 -14.5v-15q0 -9 -5.5 -14.5t-15.5 -5.5h-187l2 -22q12 -74 13 -114q30 -6 52 -19.5t52 -38.5
t50 -36.5t46 -11.5q40 0 57 22.5t23 64.5q1 6 6 12t12 6h23q8 0 13 -5t5 -13q-1 -67 -39.5 -105t-99.5 -38q-44 0 -73.5 16t-65.5 47z" />
    <glyph glyph-name="currency" unicode="&#xa4;" horiz-adv-x="537" 
d="M72 94q-6 8 -6 15t6 14l40 39q-39 50 -39 117t39 117l-40 39q-6 8 -6 15t6 14l12 11q6 6 14 6q9 0 14 -6l39 -40q53 39 117 39q65 0 118 -39l39 40q6 6 14 6q9 0 14 -6l11 -11q7 -6 7 -14q0 -9 -7 -15l-39 -39q39 -53 39 -117t-39 -117l39 -39q7 -6 7 -14q0 -9 -7 -15
l-11 -11q-6 -7 -14 -7q-6 0 -14 7l-39 40q-51 -39 -118 -39q-66 0 -117 39l-39 -40q-6 -7 -14 -7q-6 0 -14 7zM408 279q0 38 -18.5 70t-50.5 50.5t-71 18.5q-38 0 -70 -18.5t-50.5 -50.5t-18.5 -70t18.5 -70t50.5 -51t70 -19q39 0 71 19t50.5 51t18.5 70z" />
    <glyph glyph-name="yen" unicode="&#xa5;" horiz-adv-x="544" 
d="M507 620l-200 -339h132q10 0 15.5 -5.5t5.5 -14.5v-15q0 -9 -5.5 -14.5t-15.5 -5.5h-137v-56h137q10 0 15.5 -5.5t5.5 -14.5v-15q0 -10 -5.5 -15.5t-15.5 -5.5h-137v-94q0 -9 -6 -14.5t-15 -5.5h-18q-9 0 -15 5.5t-6 14.5v94h-137q-9 0 -14.5 5.5t-5.5 15.5v15
q0 9 5.5 14.5t14.5 5.5h137v56h-137q-9 0 -14.5 5.5t-5.5 14.5v15q0 9 5.5 14.5t14.5 5.5h133l-201 339q-4 7 -4 12q0 7 6 12.5t13 5.5h20q13 0 22 -14l178 -301l179 301q8 14 21 14h20q8 0 13.5 -5.5t5.5 -12.5q0 -5 -4 -12z" />
    <glyph glyph-name="brokenbar" unicode="&#xa6;" horiz-adv-x="209" 
d="M76 462v288q0 9 5.5 14.5t15.5 5.5h15q10 0 15.5 -5.5t5.5 -14.5v-288q0 -10 -5.5 -15.5t-15.5 -5.5h-15q-10 0 -15.5 5.5t-5.5 15.5zM76 20v288q0 10 5.5 15.5t15.5 5.5h15q10 0 15.5 -5.5t5.5 -15.5v-288q0 -9 -5.5 -14.5t-15.5 -5.5h-15q-10 0 -15.5 5.5t-5.5 14.5z
" />
    <glyph glyph-name="section" unicode="&#xa7;" horiz-adv-x="514" 
d="M71 -6v2q0 8 5.5 12.5t13.5 4.5h17q8 0 13 -4t9 -15q11 -31 37.5 -50.5t86.5 -19.5q55 0 84 27t29 69q0 29 -10.5 46t-36.5 28.5t-81 28.5q-73 22 -114.5 45.5t-61 56t-19.5 82.5q0 66 72 120q-24 29 -24 82q0 38 19.5 72.5t58 56.5t92.5 22q60 0 100 -19t60 -48t22 -58
v-2q0 -7 -5.5 -11.5t-13.5 -4.5h-17q-8 0 -13.5 4t-8.5 14q-12 32 -38 51.5t-86 19.5q-56 0 -84.5 -27t-28.5 -70q0 -29 10.5 -45.5t36.5 -28t81 -28.5q72 -22 114 -46t61.5 -56.5t19.5 -81.5q0 -67 -72 -121q24 -29 24 -82q0 -38 -19.5 -72t-58 -56t-92.5 -22
q-60 0 -100.5 19t-60.5 48t-21 57zM414 224q0 30 -12.5 51.5t-47 41t-101.5 39.5q-60 17 -94 37q-31 -20 -45.5 -39.5t-14.5 -47.5q0 -30 12.5 -52t47.5 -41.5t102 -38.5q60 -18 94 -37q31 20 45 39.5t14 47.5z" />
    <glyph glyph-name="dieresis" unicode="&#xa8;" horiz-adv-x="349" 
d="M65 603v35q0 10 5.5 16t14.5 6h36q9 0 15 -6t6 -16v-35q0 -9 -6 -15t-15 -6h-36q-9 0 -14.5 6t-5.5 15zM207 603v35q0 10 5.5 16t15.5 6h35q9 0 15 -6t6 -16v-35q0 -9 -6 -15t-15 -6h-35q-10 0 -15.5 6t-5.5 15z" />
    <glyph glyph-name="copyright" unicode="&#xa9;" horiz-adv-x="775" 
d="M53 325q0 91 45 167.5t121.5 122t167.5 45.5t168 -45.5t122 -122t45 -167.5t-45 -167.5t-122 -121.5t-168 -45t-167.5 45t-121.5 121.5t-45 167.5zM666 325q0 76 -37.5 141t-101.5 103.5t-140 38.5q-75 0 -139 -38.5t-101.5 -103.5t-37.5 -141t37.5 -141t101.5 -103.5
t139 -38.5q76 0 140 38.5t101.5 103.5t37.5 141zM237 294l-1 32l1 32q2 63 42.5 105t107.5 42q47 0 80.5 -15t50 -38t16.5 -46q0 -9 -5.5 -14.5t-14.5 -5.5h-16q-8 0 -13 4.5t-8 12.5q-10 23 -31 35.5t-59 12.5q-50 0 -71 -28t-22 -65l-1 -32l1 -32q1 -37 22 -65t71 -28
q38 0 59 12.5t31 35.5q3 8 8 13t13 5h16q9 0 14.5 -6t5.5 -15q0 -23 -16.5 -46t-50 -38t-80.5 -15q-67 0 -107.5 42t-42.5 105z" />
    <glyph glyph-name="ordfeminine" unicode="&#xaa;" horiz-adv-x="341" 
d="M54 469q0 36 28 59.5t77 30.5l58 9q0 10 -8.5 21.5t-37.5 11.5q-16 0 -25.5 -3t-19.5 -9q-11 -7 -20 -7h-16q-20 0 -20 14q0 10 14 24.5t37.5 24.5t52.5 10q45 0 72.5 -28t27.5 -71v-132q0 -10 -5.5 -15.5t-14.5 -5.5h-16q-9 0 -15 5.5t-6 15.5v6q-7 -13 -29.5 -22
t-47.5 -9q-39 0 -62.5 20t-23.5 50zM217 519l-43 -6q-37 -6 -50 -16t-13 -26q0 -10 11 -16t27 -6q35 0 51.5 20t16.5 50z" />
    <glyph glyph-name="guillemotleft" unicode="&#xab;" horiz-adv-x="560" 
d="M234 97l-175 169q-13 14 -15 32v15q2 19 15 33l175 169q13 11 22 11t14 -5t5 -14v-16q0 -10 -3.5 -17t-13.5 -16l-157 -152l157 -153q10 -9 13.5 -16t3.5 -17v-16q0 -8 -5 -13.5t-14 -5.5t-22 12zM465 97l-174 169q-14 14 -16 32v15q2 19 16 33l174 169q13 11 23 11
q8 0 13 -5t5 -14v-16q0 -10 -3.5 -17t-12.5 -16l-157 -152l157 -153q9 -9 12.5 -16t3.5 -17v-16q0 -8 -5 -13.5t-13 -5.5q-10 0 -23 12z" />
    <glyph glyph-name="logicalnot" unicode="&#xac;" horiz-adv-x="540" 
d="M412 178v93h-321q-9 0 -14.5 5.5t-5.5 15.5v13q0 9 5.5 14.5t14.5 5.5h358q9 0 14.5 -5.5t5.5 -14.5v-127q0 -9 -5.5 -14.5t-14.5 -5.5h-17q-9 0 -14.5 5.5t-5.5 14.5z" />
    <glyph glyph-name="uni00AD" unicode="&#xad;" horiz-adv-x="232" 
 />
    <glyph glyph-name="registered" unicode="&#xae;" horiz-adv-x="775" 
d="M53 325q0 91 45 167.5t121.5 122t167.5 45.5t168 -45.5t122 -122t45 -167.5t-45 -167.5t-122 -121.5t-168 -45t-167.5 45t-121.5 121.5t-45 167.5zM666 325q0 76 -37.5 141t-101.5 103.5t-140 38.5q-75 0 -139 -38.5t-101.5 -103.5t-37.5 -141t37.5 -141t101.5 -103.5
t139 -38.5q76 0 140 38.5t101.5 103.5t37.5 141zM262 177v299q0 9 5.5 14.5t14.5 5.5h119q58 0 92.5 -25.5t34.5 -82.5q0 -36 -18 -61t-49 -36l64 -101q4 -6 4 -13q0 -9 -5.5 -15t-15.5 -6h-13q-17 0 -27 18l-67 107h-82v-104q0 -10 -6 -15.5t-15 -5.5h-16q-9 0 -14.5 5.5
t-5.5 15.5zM399 334q72 0 72 54t-72 54h-80v-108h80z" />
    <glyph glyph-name="macron" unicode="&#xaf;" horiz-adv-x="356" 
d="M65 598v13q0 10 5.5 15.5t14.5 5.5h185q10 0 15.5 -5.5t5.5 -15.5v-13q0 -9 -5.5 -14.5t-15.5 -5.5h-185q-9 0 -14.5 5.5t-5.5 14.5z" />
    <glyph glyph-name="degree" unicode="&#xb0;" horiz-adv-x="351" 
d="M49 538q0 52 37 87t90 35t89.5 -35t36.5 -87t-36.5 -87t-89.5 -35t-90 35t-37 87zM246 538q0 31 -19.5 50.5t-50.5 19.5q-32 0 -51.5 -19.5t-19.5 -50.5q0 -32 19.5 -51.5t51.5 -19.5q31 0 50.5 19.5t19.5 51.5z" />
    <glyph glyph-name="plusminus" unicode="&#xb1;" horiz-adv-x="517" 
d="M230 200v147h-145q-10 0 -15.5 5.5t-5.5 14.5v13q0 9 5.5 14.5t15.5 5.5h145v143q0 10 6 15.5t15 5.5h15q9 0 14.5 -5.5t5.5 -15.5v-143h146q9 0 14.5 -5.5t5.5 -14.5v-13q0 -9 -5.5 -14.5t-14.5 -5.5h-146v-147q0 -10 -5.5 -15.5t-14.5 -5.5h-15q-9 0 -15 5.5t-6 15.5z
M73 20v13q0 10 6 15.5t15 5.5h329q9 0 14.5 -5.5t5.5 -15.5v-13q0 -9 -5.5 -14.5t-14.5 -5.5h-329q-9 0 -15 5.5t-6 14.5z" />
    <glyph glyph-name="uni00B2" unicode="&#xb2;" horiz-adv-x="311" 
d="M29 346v15q0 8 4.5 15t17.5 16l46 33q51 37 72.5 54t33.5 34t12 39q0 23 -18 37.5t-43 14.5q-29 0 -41.5 -10.5t-16.5 -19t-5 -10.5q-6 -10 -10.5 -13.5t-11.5 -3.5h-14q-17 0 -17 16q0 21 16 43t43 35.5t57 13.5q51 0 82.5 -30.5t31.5 -72.5q0 -34 -14 -59.5
t-43.5 -49.5t-89.5 -66h141q9 0 14.5 -5.5t5.5 -14.5v-11q0 -10 -5.5 -15.5t-14.5 -5.5h-213q-9 0 -14.5 5.5t-5.5 15.5z" />
    <glyph glyph-name="uni00B3" unicode="&#xb3;" horiz-adv-x="312" 
d="M27 395v2q0 6 5.5 10.5t10.5 4.5h18q11 0 21 -13t22.5 -19.5t46.5 -6.5q32 0 52.5 12.5t20.5 33.5q0 25 -17 35.5t-50 10.5h-37q-9 0 -15 6t-6 15v16q0 10 12 21l82 75h-132q-9 0 -14.5 5.5t-5.5 15.5v11q0 9 5.5 14.5t14.5 5.5h184q10 0 15.5 -5.5t5.5 -14.5v-11
q0 -11 -3 -19t-12 -18l-71 -65q50 -2 74 -29t24 -69q0 -46 -33 -72t-94 -26q-57 0 -89.5 21t-34.5 53z" />
    <glyph glyph-name="acute" unicode="&#xb4;" horiz-adv-x="289" 
d="M65 568q0 7 5 12l64 77q8 10 14.5 13.5t19.5 3.5h38q18 0 18 -18q0 -7 -5 -11l-101 -83q-7 -6 -13 -7.5t-16 -1.5h-9q-15 0 -15 15z" />
    <glyph glyph-name="uni00B5" unicode="&#xb5;" horiz-adv-x="544" 
d="M71 -165v628q0 9 5.5 14.5t14.5 5.5h16q9 0 14.5 -5.5t5.5 -14.5v-260q0 -47 21 -83t55 -55.5t69 -19.5t69 19.5t55 55.5t21 83v260q0 9 5.5 14.5t15.5 5.5h15q10 0 15.5 -5.5t5.5 -14.5v-443q0 -9 -5.5 -14.5t-15.5 -5.5h-15q-10 0 -15.5 5.5t-5.5 14.5v44
q-27 -35 -61 -54t-84 -19t-84 19t-61 54v-229q0 -10 -5.5 -15.5t-14.5 -5.5h-16q-9 0 -14.5 5.5t-5.5 15.5z" />
    <glyph glyph-name="paragraph" unicode="&#xb6;" horiz-adv-x="456" 
d="M194 -72v393q-44 0 -82 22.5t-60 60t-22 82.5q0 44 22 82t60 60t82 22h166q10 0 15.5 -5.5t5.5 -14.5v-702q0 -10 -5.5 -15.5t-15.5 -5.5h-15q-10 0 -15.5 5.5t-5.5 15.5v668h-73v-668q0 -10 -5.5 -15.5t-15.5 -5.5h-15q-10 0 -15.5 5.5t-5.5 15.5z" />
    <glyph glyph-name="periodcentered" unicode="&#xb7;" horiz-adv-x="307" 
d="M60 279q0 38 27.5 65.5t65.5 27.5t65.5 -27.5t27.5 -65.5t-27.5 -65.5t-65.5 -27.5t-65.5 27.5t-27.5 65.5z" />
    <glyph glyph-name="cedilla" unicode="&#xb8;" horiz-adv-x="297" 
d="M66 -164q0 4 3 7l13 12q3 4 8 4q4 0 13 -6t18 -10.5t24 -4.5q17 0 28.5 10.5t11.5 27.5q0 15 -11.5 25t-28.5 10q-13 0 -26.5 -4.5t-17.5 -4.5q-7 0 -12 5l-15 16q-2 3 -2 7q0 5 3 11.5t4 9.5l32 74h54l-39 -79q12 8 36 8q30 0 50 -21.5t20 -55.5q0 -35 -22 -58t-63 -23
q-23 0 -41.5 6.5t-29 15.5t-10.5 18z" />
    <glyph glyph-name="uni00B9" unicode="&#xb9;" horiz-adv-x="215" 
d="M115 346v233l-58 -44q-5 -4 -12 -4q-10 0 -17 9l-7 9q-4 7 -4 13q0 9 8 16l89 66q10 6 22 6h13q9 0 14.5 -5.5t5.5 -14.5v-284q0 -10 -5.5 -15.5t-14.5 -5.5h-13q-10 0 -15.5 5.5t-5.5 15.5z" />
    <glyph glyph-name="ordmasculine" unicode="&#xba;" horiz-adv-x="335" 
d="M57 502l-1 25l1 25q2 50 33.5 76.5t77.5 26.5q47 0 78 -26.5t34 -76.5q1 -5 1 -25q0 -21 -1 -25q-3 -51 -33 -77t-79 -26t-79 26t-32 77zM223 506q1 5 1 21t-1 20q-2 25 -16 39.5t-39 14.5t-39 -14.5t-16 -39.5l-1 -20l1 -21q3 -54 55 -54t55 54z" />
    <glyph glyph-name="guillemotright" unicode="&#xbb;" horiz-adv-x="560" 
d="M54 104v16q0 10 3.5 17t13.5 16l157 153l-157 152q-10 9 -13.5 16t-3.5 17v16q0 9 5 14t13 5q10 0 23 -11l174 -169q14 -14 16 -33v-15q-2 -18 -16 -32l-174 -169q-13 -12 -23 -12q-8 0 -13 5.5t-5 13.5zM285 104v16q0 10 4 17t13 16l157 153l-157 152q-9 9 -13 16t-4 17
v16q0 9 5 14t14 5t22 -11l175 -169q14 -14 16 -33v-15q-2 -18 -16 -32l-175 -169q-13 -12 -22 -12t-14 5.5t-5 13.5z" />
    <glyph glyph-name="onequarter" unicode="&#xbc;" horiz-adv-x="666" 
d="M115 346v233l-58 -44q-5 -4 -12 -4q-10 0 -17 9l-7 9q-4 7 -4 13q0 9 8 16l89 66q10 6 22 6h13q9 0 14.5 -5.5t5.5 -14.5v-284q0 -10 -5.5 -15.5t-14.5 -5.5h-13q-10 0 -15.5 5.5t-5.5 15.5zM25 19q0 5 4 10l458 604q8 10 14 13.5t17 3.5h16q8 0 13 -5t5 -13q0 -6 -3 -10
l-458 -604q-8 -11 -14 -14.5t-17 -3.5h-16q-8 0 -13.5 5t-5.5 14zM503 19v49h-136q-9 0 -15 5.5t-6 14.5v12q0 13 12 28l127 178q12 17 28 17h24q9 0 14.5 -5.5t5.5 -14.5v-183h33q9 0 14.5 -5.5t5.5 -15.5v-11q0 -9 -5.5 -14.5t-14.5 -5.5h-33v-49q0 -10 -5.5 -15.5
t-14.5 -5.5h-13q-9 0 -15 5.5t-6 15.5zM416 120h87v125z" />
    <glyph glyph-name="onehalf" unicode="&#xbd;" horiz-adv-x="674" 
d="M115 346v233l-58 -44q-5 -4 -12 -4q-10 0 -17 9l-7 9q-4 7 -4 13q0 9 8 16l89 66q10 6 22 6h13q9 0 14.5 -5.5t5.5 -14.5v-284q0 -10 -5.5 -15.5t-14.5 -5.5h-13q-10 0 -15.5 5.5t-5.5 15.5zM25 19q0 5 4 10l458 604q8 10 14 13.5t17 3.5h16q8 0 13 -5t5 -13q0 -6 -3 -10
l-458 -604q-8 -11 -14 -14.5t-17 -3.5h-16q-8 0 -13.5 5t-5.5 14zM357 21v15q0 8 4.5 15t17.5 16l46 32q51 38 72.5 55t33.5 34t12 39q0 23 -18 37.5t-43 14.5q-29 0 -41.5 -10.5t-16.5 -19t-5 -10.5q-6 -10 -10.5 -13.5t-11.5 -3.5h-14q-17 0 -17 16q0 21 16 43t43 35.5
t57 13.5q51 0 82.5 -30.5t31.5 -72.5q0 -34 -14 -59.5t-43.5 -49.5t-89.5 -66h141q9 0 14.5 -5.5t5.5 -14.5v-11q0 -10 -5.5 -15.5t-14.5 -5.5h-213q-9 0 -14.5 5.5t-5.5 15.5z" />
    <glyph glyph-name="threequarters" unicode="&#xbe;" horiz-adv-x="750" 
d="M27 395v2q0 6 5.5 10.5t10.5 4.5h18q11 0 21 -13t22.5 -19.5t46.5 -6.5q32 0 52.5 12.5t20.5 33.5q0 25 -17 35.5t-50 10.5h-37q-9 0 -15 6t-6 15v16q0 10 12 21l82 75h-132q-9 0 -14.5 5.5t-5.5 15.5v11q0 9 5.5 14.5t14.5 5.5h184q10 0 15.5 -5.5t5.5 -14.5v-11
q0 -11 -3 -19t-12 -18l-71 -65q50 -2 74 -29t24 -69q0 -46 -33 -72t-94 -26q-57 0 -89.5 21t-34.5 53zM122 19q0 5 4 10l458 604q8 10 14 13.5t17 3.5h16q8 0 13 -5t5 -13q0 -6 -3 -10l-458 -604q-8 -11 -14 -14.5t-17 -3.5h-16q-8 0 -13.5 5t-5.5 14zM602 19v49h-136
q-9 0 -15 5.5t-6 14.5v12q0 13 12 28l127 178q12 17 28 17h24q9 0 14.5 -5.5t5.5 -14.5v-183h33q9 0 14.5 -5.5t5.5 -15.5v-11q0 -9 -5.5 -14.5t-14.5 -5.5h-33v-49q0 -10 -5.5 -15.5t-14.5 -5.5h-13q-9 0 -15 5.5t-6 15.5zM515 120h87v125z" />
    <glyph glyph-name="questiondown" unicode="&#xbf;" horiz-adv-x="461" 
d="M267 463v-36q0 -9 -6 -15t-15 -6h-35q-9 0 -15 6t-6 15v36q0 9 6 14.5t15 5.5h35q9 0 15 -5.5t6 -14.5zM255 330v-45q0 -38 -13 -68.5t-31.5 -53.5t-48.5 -54q-38 -40 -55.5 -65.5t-17.5 -58.5q0 -49 42 -78.5t97 -29.5q58 0 97 31t50 99q4 20 23 20h14q9 0 14.5 -5
t5.5 -14q-1 -51 -28 -93t-73 -67t-103 -25q-63 0 -107 22.5t-66 59.5t-22 80q0 48 22.5 83.5t66.5 81.5q39 40 58 69t19 66v45q0 9 5.5 14.5t14.5 5.5h16q9 0 14.5 -5.5t5.5 -14.5z" />
    <glyph glyph-name="Agrave" unicode="&#xc0;" horiz-adv-x="604" 
d="M22 19l2 10l235 603q8 18 27 18h32q19 0 27 -18l235 -603l2 -10q0 -8 -6 -13.5t-13 -5.5h-19q-8 0 -13 4.5t-7 9.5l-58 149h-329l-57 -149q-2 -5 -7 -9.5t-14 -4.5h-18q-8 0 -13.5 5.5t-5.5 13.5zM160 218h284l-142 366zM280 706l-102 83q-4 4 -4 11q0 18 17 18h43
q13 0 19.5 -3.5t14.5 -13.5l64 -77q5 -5 5 -12q0 -15 -15 -15h-14q-10 0 -15.5 1.5t-12.5 7.5z" />
    <glyph glyph-name="Aacute" unicode="&#xc1;" horiz-adv-x="604" 
d="M22 19l2 10l235 603q8 18 27 18h32q19 0 27 -18l235 -603l2 -10q0 -8 -6 -13.5t-13 -5.5h-19q-8 0 -13 4.5t-7 9.5l-58 149h-329l-57 -149q-2 -5 -7 -9.5t-14 -4.5h-18q-8 0 -13.5 5.5t-5.5 13.5zM160 218h284l-142 366zM276 712q0 7 4 12l64 77q9 10 15.5 13.5t19.5 3.5
h42q18 0 18 -18q0 -7 -5 -11l-101 -83q-7 -6 -12.5 -7.5t-16.5 -1.5h-14q-14 0 -14 15z" />
    <glyph glyph-name="Acircumflex" unicode="&#xc2;" horiz-adv-x="604" 
d="M22 19l2 10l235 603q8 18 27 18h32q19 0 27 -18l235 -603l2 -10q0 -8 -6 -13.5t-13 -5.5h-19q-8 0 -13 4.5t-7 9.5l-58 149h-329l-57 -149q-2 -5 -7 -9.5t-14 -4.5h-18q-8 0 -13.5 5.5t-5.5 13.5zM160 218h284l-142 366zM175 707q0 7 11 19l81 79q9 8 15.5 10.5t14.5 2.5
h9q10 0 16 -2.5t14 -10.5l81 -79q11 -12 11 -19q0 -10 -13 -10h-16q-6 0 -12.5 1.5t-10.5 4.5l-74 56l-75 -56q-3 -3 -9.5 -4.5t-13.5 -1.5h-16q-13 0 -13 10z" />
    <glyph glyph-name="Atilde" unicode="&#xc3;" horiz-adv-x="604" 
d="M22 19l2 10l235 603q8 18 27 18h32q19 0 27 -18l235 -603l2 -10q0 -8 -6 -13.5t-13 -5.5h-19q-8 0 -13 4.5t-7 9.5l-58 149h-329l-57 -149q-2 -5 -7 -9.5t-14 -4.5h-18q-8 0 -13.5 5.5t-5.5 13.5zM160 218h284l-142 366zM291 711q-23 13 -34 13q-7 0 -11.5 -3.5
t-8.5 -10.5q-8 -13 -18 -13h-18q-7 0 -11 4.5t-4 10.5q0 27 20.5 49.5t47.5 22.5q16 0 28.5 -4.5t28.5 -14.5q2 0 13 -6.5t21 -6.5q8 0 12 3.5t9 10.5q4 8 7.5 11t10.5 3h18q7 0 11 -4.5t4 -10.5q0 -26 -21.5 -49.5t-48.5 -23.5q-15 0 -26.5 4t-29.5 15z" />
    <glyph glyph-name="Adieresis" unicode="&#xc4;" horiz-adv-x="604" 
d="M22 19l2 10l235 603q8 18 27 18h32q19 0 27 -18l235 -603l2 -10q0 -8 -6 -13.5t-13 -5.5h-19q-8 0 -13 4.5t-7 9.5l-58 149h-329l-57 -149q-2 -5 -7 -9.5t-14 -4.5h-18q-8 0 -13.5 5.5t-5.5 13.5zM160 218h284l-142 366zM179 717v35q0 10 5.5 16t14.5 6h36q9 0 15 -6
t6 -16v-35q0 -9 -6 -14.5t-15 -5.5h-36q-9 0 -14.5 5.5t-5.5 14.5zM349 717v35q0 10 5.5 16t14.5 6h36q9 0 15 -6t6 -16v-35q0 -9 -6 -14.5t-15 -5.5h-36q-9 0 -14.5 5.5t-5.5 14.5z" />
    <glyph glyph-name="Aring" unicode="&#xc5;" horiz-adv-x="604" 
d="M22 19l2 10l235 603q8 18 27 18h32q19 0 27 -18l235 -603l2 -10q0 -8 -6 -13.5t-13 -5.5h-19q-8 0 -13 4.5t-7 9.5l-58 149h-329l-57 -149q-2 -5 -7 -9.5t-14 -4.5h-18q-8 0 -13.5 5.5t-5.5 13.5zM160 218h284l-142 366zM227 757q0 31 21.5 50.5t53.5 19.5
q31 0 52.5 -19.5t21.5 -50.5t-21.5 -50.5t-52.5 -19.5q-32 0 -53.5 19.5t-21.5 50.5zM330 757q0 12 -8 20t-20 8t-20 -8t-8 -20t8 -20t20 -8t20 8t8 20z" />
    <glyph glyph-name="AE" unicode="&#xc6;" horiz-adv-x="855" 
d="M5 19q0 5 3 13l340 601q10 17 25 17h402q10 0 15.5 -5.5t5.5 -15.5v-14q0 -9 -6 -14.5t-15 -5.5h-324v-237h303q11 0 16.5 -5.5t5.5 -16.5v-14q0 -9 -6 -14.5t-16 -5.5h-303v-246h331q10 0 16 -5.5t6 -16.5v-14q0 -9 -6 -14.5t-16 -5.5h-370q-9 0 -14.5 5.5t-5.5 14.5
v143h-243l-84 -149q-7 -14 -20 -14h-22q-7 0 -12.5 5.5t-5.5 13.5zM180 218h212v370h-1z" />
    <glyph glyph-name="Ccedilla" unicode="&#xc7;" horiz-adv-x="605" 
d="M226 -164q0 4 3 7l13 12q3 4 8 4q4 0 13 -6t18 -10.5t24 -4.5q16 0 28 10.5t12 27.5q0 15 -12 25t-28 10q-13 0 -26.5 -4.5t-17.5 -4.5q-7 0 -12 5l-15 16q-3 3 -3 7q0 5 3.5 11.5t4.5 9.5l18 43q-96 14 -144 79.5t-52 168.5q-1 26 -1 82q0 58 1 84q5 115 65.5 183.5
t180.5 68.5q83 0 138 -30.5t81.5 -76.5t29.5 -94v-2q0 -7 -6 -12t-14 -5h-19q-16 0 -20 20q-18 79 -64.5 111.5t-125.5 32.5q-87 0 -135 -49.5t-52 -151.5q-1 -25 -1 -77t1 -79q4 -102 52 -151.5t135 -49.5q79 0 125.5 32.5t64.5 111.5q4 20 20 20h19q8 0 14 -5t6 -14
q-3 -48 -29.5 -94t-81.5 -76t-138 -30l-21 -45q12 8 35 8q31 0 51 -21.5t20 -55.5q0 -35 -22.5 -58t-62.5 -23q-23 0 -41.5 6.5t-29 15.5t-10.5 18z" />
    <glyph glyph-name="Egrave" unicode="&#xc8;" horiz-adv-x="550" 
d="M87 20v609q0 9 5.5 15t15.5 6h362q10 0 15.5 -5.5t5.5 -15.5v-14q0 -9 -6 -14.5t-15 -5.5h-324v-237h304q10 0 15.5 -5.5t5.5 -16.5v-14q0 -9 -6 -14.5t-15 -5.5h-304v-246h332q10 0 15.5 -5.5t5.5 -16.5v-14q0 -9 -6 -14.5t-15 -5.5h-370q-10 0 -15.5 5.5t-5.5 14.5z
M253 706l-102 83q-4 4 -4 11q0 18 17 18h43q13 0 19.5 -3.5t14.5 -13.5l64 -77q5 -5 5 -12q0 -15 -15 -15h-14q-10 0 -15.5 1.5t-12.5 7.5z" />
    <glyph glyph-name="Eacute" unicode="&#xc9;" horiz-adv-x="550" 
d="M87 20v609q0 9 5.5 15t15.5 6h362q10 0 15.5 -5.5t5.5 -15.5v-14q0 -9 -6 -14.5t-15 -5.5h-324v-237h304q10 0 15.5 -5.5t5.5 -16.5v-14q0 -9 -6 -14.5t-15 -5.5h-304v-246h332q10 0 15.5 -5.5t5.5 -16.5v-14q0 -9 -6 -14.5t-15 -5.5h-370q-10 0 -15.5 5.5t-5.5 14.5z
M249 712q0 7 4 12l64 77q9 10 15.5 13.5t19.5 3.5h42q18 0 18 -18q0 -7 -5 -11l-101 -83q-7 -6 -12.5 -7.5t-16.5 -1.5h-14q-14 0 -14 15z" />
    <glyph glyph-name="Ecircumflex" unicode="&#xca;" horiz-adv-x="550" 
d="M87 20v609q0 9 5.5 15t15.5 6h362q10 0 15.5 -5.5t5.5 -15.5v-14q0 -9 -6 -14.5t-15 -5.5h-324v-237h304q10 0 15.5 -5.5t5.5 -16.5v-14q0 -9 -6 -14.5t-15 -5.5h-304v-246h332q10 0 15.5 -5.5t5.5 -16.5v-14q0 -9 -6 -14.5t-15 -5.5h-370q-10 0 -15.5 5.5t-5.5 14.5z
M148 707q0 7 11 19l81 79q9 8 15.5 10.5t14.5 2.5h9q10 0 16 -2.5t14 -10.5l81 -79q11 -12 11 -19q0 -10 -13 -10h-16q-6 0 -12.5 1.5t-10.5 4.5l-74 56l-75 -56q-3 -3 -9.5 -4.5t-13.5 -1.5h-16q-13 0 -13 10z" />
    <glyph glyph-name="Edieresis" unicode="&#xcb;" horiz-adv-x="550" 
d="M87 20v609q0 9 5.5 15t15.5 6h362q10 0 15.5 -5.5t5.5 -15.5v-14q0 -9 -6 -14.5t-15 -5.5h-324v-237h304q10 0 15.5 -5.5t5.5 -16.5v-14q0 -9 -6 -14.5t-15 -5.5h-304v-246h332q10 0 15.5 -5.5t5.5 -16.5v-14q0 -9 -6 -14.5t-15 -5.5h-370q-10 0 -15.5 5.5t-5.5 14.5z
M152 717v35q0 10 5.5 16t14.5 6h36q9 0 15 -6t6 -16v-35q0 -9 -6 -14.5t-15 -5.5h-36q-9 0 -14.5 5.5t-5.5 14.5zM322 717v35q0 10 5.5 16t14.5 6h36q9 0 15 -6t6 -16v-35q0 -9 -6 -14.5t-15 -5.5h-36q-9 0 -14.5 5.5t-5.5 14.5z" />
    <glyph glyph-name="Igrave" unicode="&#xcc;" horiz-adv-x="233" 
d="M87 20v610q0 9 5.5 14.5t15.5 5.5h17q10 0 15.5 -5.5t5.5 -14.5v-610q0 -9 -5.5 -14.5t-15.5 -5.5h-17q-10 0 -15.5 5.5t-5.5 14.5zM95 706l-102 83q-4 4 -4 11q0 18 17 18h43q13 0 19.5 -3.5t14.5 -13.5l64 -77q5 -5 5 -12q0 -15 -15 -15h-14q-10 0 -15.5 1.5t-12.5 7.5
z" />
    <glyph glyph-name="Iacute" unicode="&#xcd;" horiz-adv-x="233" 
d="M87 20v610q0 9 5.5 14.5t15.5 5.5h17q10 0 15.5 -5.5t5.5 -14.5v-610q0 -9 -5.5 -14.5t-15.5 -5.5h-17q-10 0 -15.5 5.5t-5.5 14.5zM91 712q0 7 4 12l64 77q9 10 15.5 13.5t19.5 3.5h42q18 0 18 -18q0 -7 -5 -11l-101 -83q-7 -6 -12.5 -7.5t-16.5 -1.5h-14q-14 0 -14 15z
" />
    <glyph glyph-name="Icircumflex" unicode="&#xce;" horiz-adv-x="233" 
d="M87 20v610q0 9 5.5 14.5t15.5 5.5h17q10 0 15.5 -5.5t5.5 -14.5v-610q0 -9 -5.5 -14.5t-15.5 -5.5h-17q-10 0 -15.5 5.5t-5.5 14.5zM-10 707q0 7 11 19l81 79q9 8 15.5 10.5t14.5 2.5h9q10 0 16 -2.5t14 -10.5l81 -79q11 -12 11 -19q0 -10 -13 -10h-16q-6 0 -12.5 1.5
t-10.5 4.5l-74 56l-75 -56q-3 -3 -9.5 -4.5t-13.5 -1.5h-16q-13 0 -13 10z" />
    <glyph glyph-name="Idieresis" unicode="&#xcf;" horiz-adv-x="233" 
d="M87 20v610q0 9 5.5 14.5t15.5 5.5h17q10 0 15.5 -5.5t5.5 -14.5v-610q0 -9 -5.5 -14.5t-15.5 -5.5h-17q-10 0 -15.5 5.5t-5.5 14.5zM-6 717v35q0 10 5.5 16t14.5 6h36q9 0 15 -6t6 -16v-35q0 -9 -6 -14.5t-15 -5.5h-36q-9 0 -14.5 5.5t-5.5 14.5zM164 717v35q0 10 5.5 16
t14.5 6h36q9 0 15 -6t6 -16v-35q0 -9 -6 -14.5t-15 -5.5h-36q-9 0 -14.5 5.5t-5.5 14.5z" />
    <glyph glyph-name="Eth" unicode="&#xd0;" horiz-adv-x="635" 
d="M93 20v279h-59q-9 0 -14.5 5.5t-5.5 15.5v14q0 10 5.5 15.5t14.5 5.5h59v274q0 9 5.5 15t14.5 6h198q97 0 153 -28t80 -83t25 -140q1 -27 1 -73t-1 -74q-1 -89 -25 -143.5t-78.5 -81.5t-149.5 -27h-203q-9 0 -14.5 5.5t-5.5 14.5zM311 56q75 0 117.5 20t61.5 63t21 117
q1 28 1 70q0 41 -1 69q-2 104 -49 152t-155 48h-156v-240h140q9 0 14.5 -5.5t5.5 -15.5v-14q0 -10 -5.5 -15.5t-14.5 -5.5h-140v-243h160z" />
    <glyph glyph-name="Ntilde" unicode="&#xd1;" horiz-adv-x="635" 
d="M87 20v609q0 9 5.5 15t15.5 6h19q12 0 20 -11l343 -524v514q0 9 5.5 15t14.5 6h17q10 0 15.5 -5.5t5.5 -15.5v-608q0 -9 -5.5 -15t-14.5 -6h-21q-12 0 -19 11l-342 522v-513q0 -9 -6 -14.5t-16 -5.5h-16q-10 0 -15.5 5.5t-5.5 14.5zM307 711q-23 13 -34 13
q-7 0 -11.5 -3.5t-8.5 -10.5q-8 -13 -18 -13h-18q-7 0 -11 4.5t-4 10.5q0 27 20.5 49.5t47.5 22.5q16 0 28.5 -4.5t28.5 -14.5q2 0 13 -6.5t21 -6.5q8 0 12 3.5t9 10.5q4 8 7.5 11t10.5 3h18q7 0 11 -4.5t4 -10.5q0 -26 -21.5 -49.5t-48.5 -23.5q-15 0 -26.5 4t-29.5 15z
" />
    <glyph glyph-name="Ograve" unicode="&#xd2;" horiz-adv-x="615" 
d="M62 247q-1 28 -1 78t1 78q4 127 69 192t176 65q112 0 177 -65t69 -192q2 -56 2 -78t-2 -78q-7 -256 -246 -256q-238 0 -245 256zM494 252q2 55 2 73t-2 74q-3 104 -53.5 154.5t-133.5 50.5q-82 0 -132.5 -50.5t-53.5 -154.5q-1 -28 -1 -74q0 -45 1 -73q3 -104 53 -155
t133 -51q84 0 134 51t53 155zM286 706l-102 83q-4 4 -4 11q0 18 17 18h43q13 0 19.5 -3.5t14.5 -13.5l64 -77q5 -5 5 -12q0 -15 -15 -15h-14q-10 0 -15.5 1.5t-12.5 7.5z" />
    <glyph glyph-name="Oacute" unicode="&#xd3;" horiz-adv-x="615" 
d="M62 247q-1 28 -1 78t1 78q4 127 69 192t176 65q112 0 177 -65t69 -192q2 -56 2 -78t-2 -78q-7 -256 -246 -256q-238 0 -245 256zM494 252q2 55 2 73t-2 74q-3 104 -53.5 154.5t-133.5 50.5q-82 0 -132.5 -50.5t-53.5 -154.5q-1 -28 -1 -74q0 -45 1 -73q3 -104 53 -155
t133 -51q84 0 134 51t53 155zM282 712q0 7 4 12l64 77q9 10 15.5 13.5t19.5 3.5h42q18 0 18 -18q0 -7 -5 -11l-101 -83q-7 -6 -12.5 -7.5t-16.5 -1.5h-14q-14 0 -14 15z" />
    <glyph glyph-name="Ocircumflex" unicode="&#xd4;" horiz-adv-x="615" 
d="M62 247q-1 28 -1 78t1 78q4 127 69 192t176 65q112 0 177 -65t69 -192q2 -56 2 -78t-2 -78q-7 -256 -246 -256q-238 0 -245 256zM494 252q2 55 2 73t-2 74q-3 104 -53.5 154.5t-133.5 50.5q-82 0 -132.5 -50.5t-53.5 -154.5q-1 -28 -1 -74q0 -45 1 -73q3 -104 53 -155
t133 -51q84 0 134 51t53 155zM181 707q0 7 11 19l81 79q9 8 15.5 10.5t14.5 2.5h9q10 0 16 -2.5t14 -10.5l81 -79q11 -12 11 -19q0 -10 -13 -10h-16q-6 0 -12.5 1.5t-10.5 4.5l-74 56l-75 -56q-3 -3 -9.5 -4.5t-13.5 -1.5h-16q-13 0 -13 10z" />
    <glyph glyph-name="Otilde" unicode="&#xd5;" horiz-adv-x="615" 
d="M62 247q-1 28 -1 78t1 78q4 127 69 192t176 65q112 0 177 -65t69 -192q2 -56 2 -78t-2 -78q-7 -256 -246 -256q-238 0 -245 256zM494 252q2 55 2 73t-2 74q-3 104 -53.5 154.5t-133.5 50.5q-82 0 -132.5 -50.5t-53.5 -154.5q-1 -28 -1 -74q0 -45 1 -73q3 -104 53 -155
t133 -51q84 0 134 51t53 155zM297 711q-23 13 -34 13q-7 0 -11.5 -3.5t-8.5 -10.5q-8 -13 -18 -13h-18q-7 0 -11 4.5t-4 10.5q0 27 20.5 49.5t47.5 22.5q16 0 28.5 -4.5t28.5 -14.5q2 0 13 -6.5t21 -6.5q8 0 12 3.5t9 10.5q4 8 7.5 11t10.5 3h18q7 0 11 -4.5t4 -10.5
q0 -26 -21.5 -49.5t-48.5 -23.5q-15 0 -26.5 4t-29.5 15z" />
    <glyph glyph-name="Odieresis" unicode="&#xd6;" horiz-adv-x="615" 
d="M62 247q-1 28 -1 78t1 78q4 127 69 192t176 65q112 0 177 -65t69 -192q2 -56 2 -78t-2 -78q-7 -256 -246 -256q-238 0 -245 256zM494 252q2 55 2 73t-2 74q-3 104 -53.5 154.5t-133.5 50.5q-82 0 -132.5 -50.5t-53.5 -154.5q-1 -28 -1 -74q0 -45 1 -73q3 -104 53 -155
t133 -51q84 0 134 51t53 155zM184 717v35q0 10 5.5 16t14.5 6h36q9 0 15 -6t6 -16v-35q0 -9 -6 -14.5t-15 -5.5h-36q-9 0 -14.5 5.5t-5.5 14.5zM354 717v35q0 10 5.5 16t14.5 6h36q9 0 15 -6t6 -16v-35q0 -9 -6 -14.5t-15 -5.5h-36q-9 0 -14.5 5.5t-5.5 14.5z" />
    <glyph glyph-name="multiply" unicode="&#xd7;" horiz-adv-x="503" 
d="M69 137q-7 9 -7 15q0 8 7 14l142 142l-142 143q-7 9 -7 15q0 8 7 14l11 11q6 7 15 7q8 0 14 -7l142 -143l143 143q6 7 15 7q8 0 14 -7l11 -11q6 -5 6 -14q0 -8 -6 -15l-143 -143l143 -142q6 -5 6 -14q0 -8 -6 -15l-11 -11q-7 -6 -14 -6t-15 6l-143 142l-142 -142
q-7 -6 -14 -6t-15 6z" />
    <glyph glyph-name="Oslash" unicode="&#xd8;" horiz-adv-x="634" 
d="M75 206l-35 -13q-7 -3 -12 -3q-8 0 -13 4.5t-5 12.5v18q0 10 4.5 14t16.5 9l41 16q-1 18 -1 53q0 25 1 86q4 127 69 192t177 65q99 0 162 -52t78 -155l35 13q6 3 12 3q8 0 12.5 -4t4.5 -13v-17q0 -10 -4 -14.5t-16 -8.5l-39 -15q2 -52 2 -75q0 -21 -2 -75
q-7 -256 -245 -256q-220 0 -243 215zM502 431q-11 88 -59.5 130.5t-124.5 42.5q-83 0 -133 -50.5t-54 -154.5q-2 -64 -2 -83v-29zM504 252q1 33 1 87v35l-373 -145q8 -93 57.5 -138t128.5 -45q83 0 133 51t53 155z" />
    <glyph glyph-name="Ugrave" unicode="&#xd9;" horiz-adv-x="642" 
d="M82 252v377q0 9 5.5 15t14.5 6h17q10 0 15.5 -5.5t5.5 -15.5v-380q0 -102 47.5 -152.5t133.5 -50.5t133.5 50.5t47.5 152.5v380q0 10 6 15.5t15 5.5h17q9 0 14.5 -6t5.5 -15v-377q0 -133 -61 -197t-178 -64q-116 0 -177.5 64.5t-61.5 196.5zM300 706l-102 83q-4 4 -4 11
q0 18 17 18h43q13 0 19.5 -3.5t14.5 -13.5l64 -77q5 -5 5 -12q0 -15 -15 -15h-14q-10 0 -15.5 1.5t-12.5 7.5z" />
    <glyph glyph-name="Uacute" unicode="&#xda;" horiz-adv-x="642" 
d="M82 252v377q0 9 5.5 15t14.5 6h17q10 0 15.5 -5.5t5.5 -15.5v-380q0 -102 47.5 -152.5t133.5 -50.5t133.5 50.5t47.5 152.5v380q0 10 6 15.5t15 5.5h17q9 0 14.5 -6t5.5 -15v-377q0 -133 -61 -197t-178 -64q-116 0 -177.5 64.5t-61.5 196.5zM296 712q0 7 4 12l64 77
q9 10 15.5 13.5t19.5 3.5h42q18 0 18 -18q0 -7 -5 -11l-101 -83q-7 -6 -12.5 -7.5t-16.5 -1.5h-14q-14 0 -14 15z" />
    <glyph glyph-name="Ucircumflex" unicode="&#xdb;" horiz-adv-x="642" 
d="M82 252v377q0 9 5.5 15t14.5 6h17q10 0 15.5 -5.5t5.5 -15.5v-380q0 -102 47.5 -152.5t133.5 -50.5t133.5 50.5t47.5 152.5v380q0 10 6 15.5t15 5.5h17q9 0 14.5 -6t5.5 -15v-377q0 -133 -61 -197t-178 -64q-116 0 -177.5 64.5t-61.5 196.5zM195 707q0 7 11 19l81 79
q9 8 15.5 10.5t14.5 2.5h9q10 0 16 -2.5t14 -10.5l81 -79q11 -12 11 -19q0 -10 -13 -10h-16q-6 0 -12.5 1.5t-10.5 4.5l-74 56l-75 -56q-3 -3 -9.5 -4.5t-13.5 -1.5h-16q-13 0 -13 10z" />
    <glyph glyph-name="Udieresis" unicode="&#xdc;" horiz-adv-x="642" 
d="M82 252v377q0 9 5.5 15t14.5 6h17q10 0 15.5 -5.5t5.5 -15.5v-380q0 -102 47.5 -152.5t133.5 -50.5t133.5 50.5t47.5 152.5v380q0 10 6 15.5t15 5.5h17q9 0 14.5 -6t5.5 -15v-377q0 -133 -61 -197t-178 -64q-116 0 -177.5 64.5t-61.5 196.5zM198 717v35q0 10 5.5 16
t14.5 6h36q9 0 15 -6t6 -16v-35q0 -9 -6 -14.5t-15 -5.5h-36q-9 0 -14.5 5.5t-5.5 14.5zM368 717v35q0 10 5.5 16t14.5 6h36q9 0 15 -6t6 -16v-35q0 -9 -6 -14.5t-15 -5.5h-36q-9 0 -14.5 5.5t-5.5 14.5z" />
    <glyph glyph-name="Yacute" unicode="&#xdd;" horiz-adv-x="587" 
d="M264 20v228l-227 372q-4 7 -4 12q0 7 6 12.5t13 5.5h19q13 0 21 -14l202 -328l201 328q9 14 22 14h18q8 0 13.5 -5.5t5.5 -12.5q0 -5 -4 -12l-227 -372v-228q0 -9 -6 -14.5t-15 -5.5h-18q-9 0 -14.5 5.5t-5.5 14.5zM268 712q0 7 4 12l64 77q9 10 15.5 13.5t19.5 3.5h42
q18 0 18 -18q0 -7 -5 -11l-101 -83q-7 -6 -12.5 -7.5t-16.5 -1.5h-14q-14 0 -14 15z" />
    <glyph glyph-name="Thorn" unicode="&#xde;" horiz-adv-x="588" 
d="M87 20v610q0 9 5.5 14.5t15.5 5.5h17q10 0 15.5 -5.5t5.5 -14.5v-113h188q99 0 156 -49.5t57 -142.5t-57 -142.5t-156 -49.5h-188v-113q0 -9 -6 -14.5t-16 -5.5h-16q-10 0 -15.5 5.5t-5.5 14.5zM329 189q80 0 120 34.5t40 101.5t-40 102t-120 35h-183v-273h183z" />
    <glyph glyph-name="germandbls" unicode="&#xdf;" horiz-adv-x="528" 
d="M76 20v446q0 84 46.5 139t141.5 55q63 0 105.5 -25t62.5 -63.5t20 -80.5q0 -55 -25 -90.5t-58 -50.5q110 -35 110 -162q0 -45 -20.5 -88t-66 -71.5t-113.5 -28.5h-70q-9 0 -14.5 5.5t-5.5 14.5v13q0 10 5.5 15.5t14.5 5.5h60q74 0 114 37.5t40 96.5t-40 96.5t-114 37.5
h-60q-9 0 -14.5 6t-5.5 15v13q0 9 5.5 14.5t14.5 5.5h51q136 1 136 115q0 50 -37 82.5t-95 32.5q-61 0 -96 -37t-35 -107v-442q0 -9 -5.5 -14.5t-15.5 -5.5h-15q-10 0 -15.5 5.5t-5.5 14.5z" />
    <glyph glyph-name="agrave" unicode="&#xe0;" horiz-adv-x="498" 
d="M39 129q0 61 49.5 100t134.5 51l147 20v33q0 51 -31.5 78t-95.5 27q-47 0 -77 -18.5t-39 -44.5q-3 -11 -8.5 -15t-13.5 -4h-13q-8 0 -14 6t-6 14q0 21 18.5 48t57.5 47.5t95 20.5q100 0 141.5 -47t41.5 -115v-310q0 -9 -5.5 -14.5t-14.5 -5.5h-16q-9 0 -14.5 5.5
t-5.5 14.5v44q-21 -31 -60.5 -52t-104.5 -21q-44 0 -82 18.5t-61 50t-23 69.5zM370 217v32l-120 -17q-76 -10 -115 -35t-39 -63q0 -43 35.5 -66t83.5 -23q67 0 111 44.5t44 127.5zM225 562l-101 83q-5 4 -5 11q0 18 18 18h38q13 0 19.5 -3.5t14.5 -13.5l64 -77q5 -5 5 -12
q0 -15 -15 -15h-9q-10 0 -16 1.5t-13 7.5z" />
    <glyph glyph-name="aacute" unicode="&#xe1;" horiz-adv-x="498" 
d="M39 129q0 61 49.5 100t134.5 51l147 20v33q0 51 -31.5 78t-95.5 27q-47 0 -77 -18.5t-39 -44.5q-3 -11 -8.5 -15t-13.5 -4h-13q-8 0 -14 6t-6 14q0 21 18.5 48t57.5 47.5t95 20.5q100 0 141.5 -47t41.5 -115v-310q0 -9 -5.5 -14.5t-14.5 -5.5h-16q-9 0 -14.5 5.5
t-5.5 14.5v44q-21 -31 -60.5 -52t-104.5 -21q-44 0 -82 18.5t-61 50t-23 69.5zM370 217v32l-120 -17q-76 -10 -115 -35t-39 -63q0 -43 35.5 -66t83.5 -23q67 0 111 44.5t44 127.5zM198 568q0 7 5 12l64 77q8 10 14.5 13.5t19.5 3.5h38q18 0 18 -18q0 -7 -5 -11l-101 -83
q-7 -6 -13 -7.5t-16 -1.5h-9q-15 0 -15 15z" />
    <glyph glyph-name="acircumflex" unicode="&#xe2;" horiz-adv-x="498" 
d="M39 129q0 61 49.5 100t134.5 51l147 20v33q0 51 -31.5 78t-95.5 27q-47 0 -77 -18.5t-39 -44.5q-3 -11 -8.5 -15t-13.5 -4h-13q-8 0 -14 6t-6 14q0 21 18.5 48t57.5 47.5t95 20.5q100 0 141.5 -47t41.5 -115v-310q0 -9 -5.5 -14.5t-14.5 -5.5h-16q-9 0 -14.5 5.5
t-5.5 14.5v44q-21 -31 -60.5 -52t-104.5 -21q-44 0 -82 18.5t-61 50t-23 69.5zM370 217v32l-120 -17q-76 -10 -115 -35t-39 -63q0 -43 35.5 -66t83.5 -23q67 0 111 44.5t44 127.5zM115 563q0 7 11 19l81 79q8 8 14 10.5t16 2.5h9q8 0 14.5 -2.5t15.5 -10.5l81 -79
q11 -12 11 -19q0 -10 -13 -10h-16q-7 0 -13.5 1.5t-9.5 4.5l-75 56l-74 -56q-4 -3 -10.5 -4.5t-12.5 -1.5h-16q-13 0 -13 10z" />
    <glyph glyph-name="atilde" unicode="&#xe3;" horiz-adv-x="498" 
d="M39 129q0 61 49.5 100t134.5 51l147 20v33q0 51 -31.5 78t-95.5 27q-47 0 -77 -18.5t-39 -44.5q-3 -11 -8.5 -15t-13.5 -4h-13q-8 0 -14 6t-6 14q0 21 18.5 48t57.5 47.5t95 20.5q100 0 141.5 -47t41.5 -115v-310q0 -9 -5.5 -14.5t-14.5 -5.5h-16q-9 0 -14.5 5.5
t-5.5 14.5v44q-21 -31 -60.5 -52t-104.5 -21q-44 0 -82 18.5t-61 50t-23 69.5zM370 217v32l-120 -17q-76 -10 -115 -35t-39 -63q0 -43 35.5 -66t83.5 -23q67 0 111 44.5t44 127.5zM233 567q-7 4 -15 8.5t-15 4.5q-8 0 -12 -3.5t-9 -10.5q-7 -13 -18 -13h-18q-7 0 -11 4.5
t-4 10.5q0 27 19 47t47 20q16 0 27.5 -4.5t25.5 -13.5q7 -5 15 -9t17 -4q7 0 11 3t9 11q4 7 7.5 10.5t10.5 3.5h18q7 0 11 -5t4 -10q0 -27 -20 -48t-47 -21q-16 0 -26.5 4.5t-26.5 14.5z" />
    <glyph glyph-name="adieresis" unicode="&#xe4;" horiz-adv-x="498" 
d="M39 129q0 61 49.5 100t134.5 51l147 20v33q0 51 -31.5 78t-95.5 27q-47 0 -77 -18.5t-39 -44.5q-3 -11 -8.5 -15t-13.5 -4h-13q-8 0 -14 6t-6 14q0 21 18.5 48t57.5 47.5t95 20.5q100 0 141.5 -47t41.5 -115v-310q0 -9 -5.5 -14.5t-14.5 -5.5h-16q-9 0 -14.5 5.5
t-5.5 14.5v44q-21 -31 -60.5 -52t-104.5 -21q-44 0 -82 18.5t-61 50t-23 69.5zM370 217v32l-120 -17q-76 -10 -115 -35t-39 -63q0 -43 35.5 -66t83.5 -23q67 0 111 44.5t44 127.5zM137 603v35q0 10 5.5 16t14.5 6h36q9 0 15 -6t6 -16v-35q0 -9 -6 -15t-15 -6h-36
q-9 0 -14.5 6t-5.5 15zM279 603v35q0 10 5.5 16t15.5 6h35q9 0 15 -6t6 -16v-35q0 -9 -6 -15t-15 -6h-35q-10 0 -15.5 6t-5.5 15z" />
    <glyph glyph-name="aring" unicode="&#xe5;" horiz-adv-x="498" 
d="M39 129q0 61 49.5 100t134.5 51l147 20v33q0 51 -31.5 78t-95.5 27q-47 0 -77 -18.5t-39 -44.5q-3 -11 -8.5 -15t-13.5 -4h-13q-8 0 -14 6t-6 14q0 21 18.5 48t57.5 47.5t95 20.5q100 0 141.5 -47t41.5 -115v-310q0 -9 -5.5 -14.5t-14.5 -5.5h-16q-9 0 -14.5 5.5
t-5.5 14.5v44q-21 -31 -60.5 -52t-104.5 -21q-44 0 -82 18.5t-61 50t-23 69.5zM370 217v32l-120 -17q-76 -10 -115 -35t-39 -63q0 -43 35.5 -66t83.5 -23q67 0 111 44.5t44 127.5zM167 618q0 30 21.5 49.5t52.5 19.5q32 0 53.5 -19.5t21.5 -49.5q0 -31 -21.5 -50.5
t-53.5 -19.5q-31 0 -52.5 19.5t-21.5 50.5zM269 618q0 12 -8 20t-20 8t-20 -8t-8 -20t8 -20t20 -8t20 8t8 20z" />
    <glyph glyph-name="ae" unicode="&#xe6;" horiz-adv-x="818" 
d="M40 129q0 61 50 101.5t134 51.5l147 21v30q0 51 -31.5 78t-95.5 27q-48 0 -78 -18.5t-39 -44.5q-3 -11 -8.5 -15t-13.5 -4h-13q-8 0 -14 6t-6 14q0 21 19 48t58 47.5t95 20.5q66 0 106.5 -22t59.5 -59q54 81 161 81q116 0 158 -72t42 -167v-14q0 -10 -6 -15.5t-15 -5.5
h-322v-9q2 -57 23 -94t53 -53.5t66 -16.5q39 0 73.5 14.5t56.5 45.5q7 11 12 14t15 3h12q8 0 13.5 -5.5t5.5 -13.5q0 -17 -22.5 -43.5t-65 -47.5t-100.5 -21q-124 0 -173 102q-54 -102 -191 -102q-48 0 -86 18t-59 49.5t-21 70.5zM714 270v4q0 73 -36 118.5t-107 45.5
q-37 0 -68.5 -18t-52 -55t-22.5 -91v-4h286zM371 217v32l-120 -17q-76 -10 -115 -35t-39 -63q0 -43 35.5 -66t83.5 -23q67 0 111 44.5t44 127.5z" />
    <glyph glyph-name="ccedilla" unicode="&#xe7;" horiz-adv-x="498" 
d="M177 -164q0 4 2 7l13 12q4 4 9 4q3 0 12.5 -6t18.5 -10.5t23 -4.5q17 0 28.5 10.5t11.5 27.5q0 15 -11.5 25t-28.5 10q-13 0 -26 -4.5t-17 -4.5q-8 0 -12 5l-15 16q-3 3 -3 7q0 5 3.5 11.5t4.5 9.5l19 44q-74 13 -114 67.5t-42 141.5l-1 38l1 37q3 101 56 157t149 56
q62 0 105 -21.5t64.5 -55.5t23.5 -70q0 -9 -6.5 -15t-14.5 -6h-13q-9 0 -13.5 4.5t-8.5 15.5q-19 51 -52.5 72.5t-84.5 21.5q-67 0 -106.5 -40t-41.5 -124l-1 -32l1 -33q2 -84 41.5 -124t106.5 -40q51 0 84.5 21.5t52.5 72.5q4 11 8.5 15.5t13.5 4.5h13q8 0 14.5 -6t6.5 -15
q-2 -36 -23.5 -70t-64.5 -55.5t-105 -21.5l-21 -45q12 8 35 8q31 0 51 -21.5t20 -55.5q0 -35 -22.5 -58t-63.5 -23q-22 0 -40.5 6.5t-29 15.5t-10.5 18z" />
    <glyph glyph-name="egrave" unicode="&#xe8;" horiz-adv-x="507" 
d="M51 204l-1 38l1 37q8 96 61 154.5t143 58.5q96 0 150.5 -64t54.5 -175v-14q0 -10 -6 -15.5t-16 -5.5h-330v-9q2 -44 20 -81.5t50.5 -60t76.5 -22.5q51 0 83 20t46 40q8 11 12 14t16 3h14q9 0 14.5 -5t5.5 -12q0 -20 -24.5 -47t-68.5 -47t-98 -20q-89 0 -142.5 58
t-61.5 155zM403 270v4q0 72 -40.5 118t-107.5 46q-68 0 -107.5 -46t-39.5 -118v-4h295zM232 562l-101 83q-5 4 -5 11q0 18 18 18h38q13 0 19.5 -3.5t14.5 -13.5l64 -77q5 -5 5 -12q0 -15 -15 -15h-9q-10 0 -16 1.5t-13 7.5z" />
    <glyph glyph-name="eacute" unicode="&#xe9;" horiz-adv-x="507" 
d="M51 204l-1 38l1 37q8 96 61 154.5t143 58.5q96 0 150.5 -64t54.5 -175v-14q0 -10 -6 -15.5t-16 -5.5h-330v-9q2 -44 20 -81.5t50.5 -60t76.5 -22.5q51 0 83 20t46 40q8 11 12 14t16 3h14q9 0 14.5 -5t5.5 -12q0 -20 -24.5 -47t-68.5 -47t-98 -20q-89 0 -142.5 58
t-61.5 155zM403 270v4q0 72 -40.5 118t-107.5 46q-68 0 -107.5 -46t-39.5 -118v-4h295zM226 568q0 7 5 12l64 77q8 10 14.5 13.5t19.5 3.5h38q18 0 18 -18q0 -7 -5 -11l-101 -83q-7 -6 -13 -7.5t-16 -1.5h-9q-15 0 -15 15z" />
    <glyph glyph-name="ecircumflex" unicode="&#xea;" horiz-adv-x="507" 
d="M51 204l-1 38l1 37q8 96 61 154.5t143 58.5q96 0 150.5 -64t54.5 -175v-14q0 -10 -6 -15.5t-16 -5.5h-330v-9q2 -44 20 -81.5t50.5 -60t76.5 -22.5q51 0 83 20t46 40q8 11 12 14t16 3h14q9 0 14.5 -5t5.5 -12q0 -20 -24.5 -47t-68.5 -47t-98 -20q-89 0 -142.5 58
t-61.5 155zM403 270v4q0 72 -40.5 118t-107.5 46q-68 0 -107.5 -46t-39.5 -118v-4h295zM128 563q0 7 11 19l81 79q8 8 14 10.5t16 2.5h9q8 0 14.5 -2.5t15.5 -10.5l81 -79q11 -12 11 -19q0 -10 -13 -10h-16q-7 0 -13.5 1.5t-9.5 4.5l-75 56l-74 -56q-4 -3 -10.5 -4.5
t-12.5 -1.5h-16q-13 0 -13 10z" />
    <glyph glyph-name="edieresis" unicode="&#xeb;" horiz-adv-x="507" 
d="M51 204l-1 38l1 37q8 96 61 154.5t143 58.5q96 0 150.5 -64t54.5 -175v-14q0 -10 -6 -15.5t-16 -5.5h-330v-9q2 -44 20 -81.5t50.5 -60t76.5 -22.5q51 0 83 20t46 40q8 11 12 14t16 3h14q9 0 14.5 -5t5.5 -12q0 -20 -24.5 -47t-68.5 -47t-98 -20q-89 0 -142.5 58
t-61.5 155zM403 270v4q0 72 -40.5 118t-107.5 46q-68 0 -107.5 -46t-39.5 -118v-4h295zM145 603v35q0 10 5.5 16t14.5 6h36q9 0 15 -6t6 -16v-35q0 -9 -6 -15t-15 -6h-36q-9 0 -14.5 6t-5.5 15zM287 603v35q0 10 5.5 16t15.5 6h35q9 0 15 -6t6 -16v-35q0 -9 -6 -15t-15 -6
h-35q-10 0 -15.5 6t-5.5 15z" />
    <glyph glyph-name="igrave" unicode="&#xec;" horiz-adv-x="207" 
d="M75 20v443q0 9 5.5 14.5t15.5 5.5h15q10 0 15.5 -5.5t5.5 -14.5v-443q0 -9 -5.5 -14.5t-15.5 -5.5h-15q-10 0 -15.5 5.5t-5.5 14.5zM82 562l-101 83q-5 4 -5 11q0 18 18 18h38q13 0 19.5 -3.5t14.5 -13.5l64 -77q5 -5 5 -12q0 -15 -15 -15h-9q-10 0 -16 1.5t-13 7.5z" />
    <glyph glyph-name="iacute" unicode="&#xed;" horiz-adv-x="207" 
d="M75 20v443q0 9 5.5 14.5t15.5 5.5h15q10 0 15.5 -5.5t5.5 -14.5v-443q0 -9 -5.5 -14.5t-15.5 -5.5h-15q-10 0 -15.5 5.5t-5.5 14.5zM73 568q0 7 5 12l64 77q8 10 14.5 13.5t19.5 3.5h38q18 0 18 -18q0 -7 -5 -11l-101 -83q-7 -6 -13 -7.5t-16 -1.5h-9q-15 0 -15 15z" />
    <glyph glyph-name="icircumflex" unicode="&#xee;" horiz-adv-x="207" 
d="M75 20v443q0 9 5.5 14.5t15.5 5.5h15q10 0 15.5 -5.5t5.5 -14.5v-443q0 -9 -5.5 -14.5t-15.5 -5.5h-15q-10 0 -15.5 5.5t-5.5 14.5zM-22 563q0 7 11 19l81 79q8 8 14 10.5t16 2.5h9q8 0 14.5 -2.5t15.5 -10.5l81 -79q11 -12 11 -19q0 -10 -13 -10h-16q-7 0 -13.5 1.5
t-9.5 4.5l-75 56l-74 -56q-4 -3 -10.5 -4.5t-12.5 -1.5h-16q-13 0 -13 10z" />
    <glyph glyph-name="idieresis" unicode="&#xef;" horiz-adv-x="207" 
d="M75 20v443q0 9 5.5 14.5t15.5 5.5h15q10 0 15.5 -5.5t5.5 -14.5v-443q0 -9 -5.5 -14.5t-15.5 -5.5h-15q-10 0 -15.5 5.5t-5.5 14.5zM-6 603v35q0 10 5.5 16t14.5 6h36q9 0 15 -6t6 -16v-35q0 -9 -6 -15t-15 -6h-36q-9 0 -14.5 6t-5.5 15zM136 603v35q0 10 5.5 16t15.5 6
h35q9 0 15 -6t6 -16v-35q0 -9 -6 -15t-15 -6h-35q-10 0 -15.5 6t-5.5 15z" />
    <glyph glyph-name="eth" unicode="&#xf0;" horiz-adv-x="511" 
d="M50 212q0 100 53 162.5t151 62.5q73 0 122 -37q-21 65 -60 114l-89 -35q-7 -2 -12 -2q-9 0 -13.5 4t-4.5 12v18q0 10 4 14.5t16 8.5l58 22q-25 25 -62 55q-16 12 -16 21q0 8 5 13t14 5h18q19 0 34 -12q39 -35 64 -60l86 33q7 3 12 3q8 0 13 -4t5 -13v-17q0 -11 -4.5 -15
t-16.5 -9l-57 -22q42 -55 64 -130t23 -188v-3q0 -99 -53.5 -160.5t-149.5 -61.5q-65 0 -110.5 28.5t-69.5 79t-24 113.5zM400 212v4q0 73 -38 120t-108 47q-71 0 -109 -47t-38 -120v-6q2 -73 40 -119t107 -46t107 46.5t39 120.5z" />
    <glyph glyph-name="ntilde" unicode="&#xf1;" horiz-adv-x="548" 
d="M75 20v443q0 9 5.5 14.5t15.5 5.5h15q10 0 15.5 -5.5t5.5 -14.5v-44q28 36 63.5 54.5t92.5 18.5q91 0 140.5 -58t49.5 -150v-264q0 -9 -6 -14.5t-15 -5.5h-16q-9 0 -14.5 5.5t-5.5 14.5v260q0 75 -37 116.5t-105 41.5q-67 0 -107 -42t-40 -116v-260q0 -9 -5.5 -14.5
t-15.5 -5.5h-15q-10 0 -15.5 5.5t-5.5 14.5zM267 567q-7 4 -15 8.5t-15 4.5q-8 0 -12 -3.5t-9 -10.5q-7 -13 -18 -13h-18q-7 0 -11 4.5t-4 10.5q0 27 19 47t47 20q16 0 27.5 -4.5t25.5 -13.5q7 -5 15 -9t17 -4q7 0 11 3t9 11q4 7 7.5 10.5t10.5 3.5h18q7 0 11 -5t4 -10
q0 -27 -20 -48t-47 -21q-16 0 -26.5 4.5t-26.5 14.5z" />
    <glyph glyph-name="ograve" unicode="&#xf2;" horiz-adv-x="518" 
d="M53 203l-1 39l1 39q3 93 56.5 152t149.5 59q97 0 150.5 -59t55.5 -152q1 -10 1 -39q0 -30 -1 -39q-2 -94 -55.5 -153t-150.5 -59q-96 0 -149.5 59t-56.5 153zM409 207q1 9 1 35q0 25 -1 34q-3 78 -43.5 120t-106.5 42t-106.5 -42t-42.5 -120l-1 -34l1 -35
q2 -78 42.5 -120t106.5 -42t106.5 42t43.5 120zM237 562l-101 83q-5 4 -5 11q0 18 18 18h38q13 0 19.5 -3.5t14.5 -13.5l64 -77q5 -5 5 -12q0 -15 -15 -15h-9q-10 0 -16 1.5t-13 7.5z" />
    <glyph glyph-name="oacute" unicode="&#xf3;" horiz-adv-x="518" 
d="M53 203l-1 39l1 39q3 93 56.5 152t149.5 59q97 0 150.5 -59t55.5 -152q1 -10 1 -39q0 -30 -1 -39q-2 -94 -55.5 -153t-150.5 -59q-96 0 -149.5 59t-56.5 153zM409 207q1 9 1 35q0 25 -1 34q-3 78 -43.5 120t-106.5 42t-106.5 -42t-42.5 -120l-1 -34l1 -35
q2 -78 42.5 -120t106.5 -42t106.5 42t43.5 120zM229 568q0 7 5 12l64 77q8 10 14.5 13.5t19.5 3.5h38q18 0 18 -18q0 -7 -5 -11l-101 -83q-7 -6 -13 -7.5t-16 -1.5h-9q-15 0 -15 15z" />
    <glyph glyph-name="ocircumflex" unicode="&#xf4;" horiz-adv-x="518" 
d="M53 203l-1 39l1 39q3 93 56.5 152t149.5 59q97 0 150.5 -59t55.5 -152q1 -10 1 -39q0 -30 -1 -39q-2 -94 -55.5 -153t-150.5 -59q-96 0 -149.5 59t-56.5 153zM409 207q1 9 1 35q0 25 -1 34q-3 78 -43.5 120t-106.5 42t-106.5 -42t-42.5 -120l-1 -34l1 -35
q2 -78 42.5 -120t106.5 -42t106.5 42t43.5 120zM133 563q0 7 11 19l81 79q8 8 14 10.5t16 2.5h9q8 0 14.5 -2.5t15.5 -10.5l81 -79q11 -12 11 -19q0 -10 -13 -10h-16q-7 0 -13.5 1.5t-9.5 4.5l-75 56l-74 -56q-4 -3 -10.5 -4.5t-12.5 -1.5h-16q-13 0 -13 10z" />
    <glyph glyph-name="otilde" unicode="&#xf5;" horiz-adv-x="518" 
d="M53 203l-1 39l1 39q3 93 56.5 152t149.5 59q97 0 150.5 -59t55.5 -152q1 -10 1 -39q0 -30 -1 -39q-2 -94 -55.5 -153t-150.5 -59q-96 0 -149.5 59t-56.5 153zM409 207q1 9 1 35q0 25 -1 34q-3 78 -43.5 120t-106.5 42t-106.5 -42t-42.5 -120l-1 -34l1 -35
q2 -78 42.5 -120t106.5 -42t106.5 42t43.5 120zM251 567q-7 4 -15 8.5t-15 4.5q-8 0 -12 -3.5t-9 -10.5q-7 -13 -18 -13h-18q-7 0 -11 4.5t-4 10.5q0 27 19 47t47 20q16 0 27.5 -4.5t25.5 -13.5q7 -5 15 -9t17 -4q7 0 11 3t9 11q4 7 7.5 10.5t10.5 3.5h18q7 0 11 -5t4 -10
q0 -27 -20 -48t-47 -21q-16 0 -26.5 4.5t-26.5 14.5z" />
    <glyph glyph-name="odieresis" unicode="&#xf6;" horiz-adv-x="518" 
d="M53 203l-1 39l1 39q3 93 56.5 152t149.5 59q97 0 150.5 -59t55.5 -152q1 -10 1 -39q0 -30 -1 -39q-2 -94 -55.5 -153t-150.5 -59q-96 0 -149.5 59t-56.5 153zM409 207q1 9 1 35q0 25 -1 34q-3 78 -43.5 120t-106.5 42t-106.5 -42t-42.5 -120l-1 -34l1 -35
q2 -78 42.5 -120t106.5 -42t106.5 42t43.5 120zM150 603v35q0 10 5.5 16t14.5 6h36q9 0 15 -6t6 -16v-35q0 -9 -6 -15t-15 -6h-36q-9 0 -14.5 6t-5.5 15zM292 603v35q0 10 5.5 16t15.5 6h35q9 0 15 -6t6 -16v-35q0 -9 -6 -15t-15 -6h-35q-10 0 -15.5 6t-5.5 15z" />
    <glyph glyph-name="divide" unicode="&#xf7;" horiz-adv-x="525" 
d="M219 420v44q0 10 5.5 16t15.5 6h44q10 0 16 -6t6 -16v-44q0 -9 -6 -15t-16 -6h-44q-10 0 -15.5 6t-5.5 15zM68 273v13q0 9 5.5 15t14.5 6h349q9 0 14.5 -6t5.5 -15v-13q0 -9 -5.5 -14.5t-14.5 -5.5h-349q-9 0 -14.5 5.5t-5.5 14.5zM219 95v44q0 10 5.5 16t15.5 6h44
q10 0 16 -6t6 -16v-44q0 -10 -6 -15.5t-16 -5.5h-44q-10 0 -15.5 5.5t-5.5 15.5z" />
    <glyph glyph-name="oslash" unicode="&#xf8;" horiz-adv-x="552" 
d="M79 134l-35 -14q-8 -3 -12 -3q-9 0 -13.5 4t-4.5 13v17q0 11 4 15t16 9l37 14q-2 17 -2 52q0 27 1 40q2 88 51.5 149.5t154.5 61.5q84 0 132 -40.5t65 -106.5l35 14q8 2 12 2q9 0 13.5 -4t4.5 -12v-18q0 -10 -4 -14.5t-17 -8.5l-36 -14q2 -24 2 -52l-1 -35
q-3 -89 -52 -150.5t-154 -61.5q-83 0 -131 39.5t-66 103.5zM420 324q-12 59 -51 86.5t-93 27.5q-63 0 -105 -38.5t-45 -118.5l-1 -34l1 -37zM425 203q1 7 1 30q0 25 -1 35l-293 -114q14 -56 52.5 -82.5t91.5 -26.5q63 0 105 38.5t44 119.5z" />
    <glyph glyph-name="ugrave" unicode="&#xf9;" horiz-adv-x="543" 
d="M71 199v264q0 9 5.5 14.5t14.5 5.5h16q9 0 14.5 -5.5t5.5 -14.5v-260q0 -158 139 -158q67 0 106.5 42t39.5 116v260q0 9 5.5 14.5t14.5 5.5h16q9 0 14.5 -5.5t5.5 -14.5v-443q0 -9 -5.5 -14.5t-14.5 -5.5h-16q-9 0 -14.5 5.5t-5.5 14.5v44q-28 -36 -64 -54.5t-92 -18.5
q-91 0 -138 57.5t-47 150.5zM248 562l-101 83q-5 4 -5 11q0 18 18 18h38q13 0 19.5 -3.5t14.5 -13.5l64 -77q5 -5 5 -12q0 -15 -15 -15h-9q-10 0 -16 1.5t-13 7.5z" />
    <glyph glyph-name="uacute" unicode="&#xfa;" horiz-adv-x="543" 
d="M71 199v264q0 9 5.5 14.5t14.5 5.5h16q9 0 14.5 -5.5t5.5 -14.5v-260q0 -158 139 -158q67 0 106.5 42t39.5 116v260q0 9 5.5 14.5t14.5 5.5h16q9 0 14.5 -5.5t5.5 -14.5v-443q0 -9 -5.5 -14.5t-14.5 -5.5h-16q-9 0 -14.5 5.5t-5.5 14.5v44q-28 -36 -64 -54.5t-92 -18.5
q-91 0 -138 57.5t-47 150.5zM237 568q0 7 5 12l64 77q8 10 14.5 13.5t19.5 3.5h38q18 0 18 -18q0 -7 -5 -11l-101 -83q-7 -6 -13 -7.5t-16 -1.5h-9q-15 0 -15 15z" />
    <glyph glyph-name="ucircumflex" unicode="&#xfb;" horiz-adv-x="543" 
d="M71 199v264q0 9 5.5 14.5t14.5 5.5h16q9 0 14.5 -5.5t5.5 -14.5v-260q0 -158 139 -158q67 0 106.5 42t39.5 116v260q0 9 5.5 14.5t14.5 5.5h16q9 0 14.5 -5.5t5.5 -14.5v-443q0 -9 -5.5 -14.5t-14.5 -5.5h-16q-9 0 -14.5 5.5t-5.5 14.5v44q-28 -36 -64 -54.5t-92 -18.5
q-91 0 -138 57.5t-47 150.5zM143 563q0 7 11 19l81 79q8 8 14 10.5t16 2.5h9q8 0 14.5 -2.5t15.5 -10.5l81 -79q11 -12 11 -19q0 -10 -13 -10h-16q-7 0 -13.5 1.5t-9.5 4.5l-75 56l-74 -56q-4 -3 -10.5 -4.5t-12.5 -1.5h-16q-13 0 -13 10z" />
    <glyph glyph-name="udieresis" unicode="&#xfc;" horiz-adv-x="543" 
d="M71 199v264q0 9 5.5 14.5t14.5 5.5h16q9 0 14.5 -5.5t5.5 -14.5v-260q0 -158 139 -158q67 0 106.5 42t39.5 116v260q0 9 5.5 14.5t14.5 5.5h16q9 0 14.5 -5.5t5.5 -14.5v-443q0 -9 -5.5 -14.5t-14.5 -5.5h-16q-9 0 -14.5 5.5t-5.5 14.5v44q-28 -36 -64 -54.5t-92 -18.5
q-91 0 -138 57.5t-47 150.5zM160 603v35q0 10 5.5 16t14.5 6h36q9 0 15 -6t6 -16v-35q0 -9 -6 -15t-15 -6h-36q-9 0 -14.5 6t-5.5 15zM302 603v35q0 10 5.5 16t15.5 6h35q9 0 15 -6t6 -16v-35q0 -9 -6 -15t-15 -6h-35q-10 0 -15.5 6t-5.5 15z" />
    <glyph glyph-name="yacute" unicode="&#xfd;" horiz-adv-x="494" 
d="M138 -158q0 5 6 19l72 167l-178 418q-5 14 -5 18q0 8 5.5 13.5t12.5 5.5h20q14 0 21 -14l156 -368l160 368q7 14 21 14h19q7 0 12.5 -5.5t5.5 -13.5q0 -4 -5 -18l-264 -609q-7 -14 -21 -14h-19q-7 0 -13 6t-6 13zM216 568q0 7 5 12l64 77q8 10 14.5 13.5t19.5 3.5h38
q18 0 18 -18q0 -7 -5 -11l-101 -83q-7 -6 -13 -7.5t-16 -1.5h-9q-15 0 -15 15z" />
    <glyph glyph-name="thorn" unicode="&#xfe;" horiz-adv-x="540" 
d="M76 -156v795q0 9 5.5 15t15.5 6h15q10 0 15.5 -6t5.5 -15v-220q54 73 156 73q100 0 148 -63.5t51 -156.5q1 -9 1 -30q0 -22 -1 -31q-3 -93 -51 -156.5t-148 -63.5q-101 0 -156 73v-220q0 -9 -5.5 -15t-15.5 -6h-15q-10 0 -15.5 6t-5.5 15zM431 216q1 9 1 26
q0 86 -33.5 141t-115.5 55q-73 0 -110 -48.5t-40 -114.5l-1 -36l1 -36q1 -40 17.5 -76t50 -59t82.5 -23q76 0 110.5 47.5t37.5 123.5z" />
    <glyph glyph-name="ydieresis" unicode="&#xff;" horiz-adv-x="494" 
d="M138 -158q0 5 6 19l72 167l-178 418q-5 14 -5 18q0 8 5.5 13.5t12.5 5.5h20q14 0 21 -14l156 -368l160 368q7 14 21 14h19q7 0 12.5 -5.5t5.5 -13.5q0 -4 -5 -18l-264 -609q-7 -14 -21 -14h-19q-7 0 -13 6t-6 13zM138 603v35q0 10 5.5 16t14.5 6h36q9 0 15 -6t6 -16v-35
q0 -9 -6 -15t-15 -6h-36q-9 0 -14.5 6t-5.5 15zM280 603v35q0 10 5.5 16t15.5 6h35q9 0 15 -6t6 -16v-35q0 -9 -6 -15t-15 -6h-35q-10 0 -15.5 6t-5.5 15z" />
    <glyph glyph-name="Amacron" unicode="&#x100;" horiz-adv-x="604" 
d="M22 19l2 10l235 603q8 18 27 18h32q19 0 27 -18l235 -603l2 -10q0 -8 -6 -13.5t-13 -5.5h-19q-8 0 -13 4.5t-7 9.5l-58 149h-329l-57 -149q-2 -5 -7 -9.5t-14 -4.5h-18q-8 0 -13.5 5.5t-5.5 13.5zM160 218h284l-142 366zM188 717v21q0 9 5.5 14.5t15.5 5.5h185
q9 0 14.5 -5.5t5.5 -14.5v-21q0 -9 -5.5 -14.5t-14.5 -5.5h-185q-10 0 -15.5 5.5t-5.5 14.5z" />
    <glyph glyph-name="amacron" unicode="&#x101;" horiz-adv-x="498" 
d="M39 129q0 61 49.5 100t134.5 51l147 20v33q0 51 -31.5 78t-95.5 27q-47 0 -77 -18.5t-39 -44.5q-3 -11 -8.5 -15t-13.5 -4h-13q-8 0 -14 6t-6 14q0 21 18.5 48t57.5 47.5t95 20.5q100 0 141.5 -47t41.5 -115v-310q0 -9 -5.5 -14.5t-14.5 -5.5h-16q-9 0 -14.5 5.5
t-5.5 14.5v44q-21 -31 -60.5 -52t-104.5 -21q-44 0 -82 18.5t-61 50t-23 69.5zM370 217v32l-120 -17q-76 -10 -115 -35t-39 -63q0 -43 35.5 -66t83.5 -23q67 0 111 44.5t44 127.5zM129 598v13q0 10 5.5 15.5t14.5 5.5h185q10 0 15.5 -5.5t5.5 -15.5v-13q0 -9 -5.5 -14.5
t-15.5 -5.5h-185q-9 0 -14.5 5.5t-5.5 14.5z" />
    <glyph glyph-name="Abreve" unicode="&#x102;" horiz-adv-x="604" 
d="M22 19l2 10l235 603q8 18 27 18h32q19 0 27 -18l235 -603l2 -10q0 -8 -6 -13.5t-13 -5.5h-19q-8 0 -13 4.5t-7 9.5l-58 149h-329l-57 -149q-2 -5 -7 -9.5t-14 -4.5h-18q-8 0 -13.5 5.5t-5.5 13.5zM160 218h284l-142 366zM195 795q0 8 5 13t13 5h14q8 0 13 -5t5 -13
q0 -26 13 -43.5t44 -17.5q32 0 45 17.5t13 43.5q0 8 4.5 13t12.5 5h14q9 0 13.5 -5t4.5 -13q0 -46 -24 -77t-83 -31q-58 0 -82.5 31t-24.5 77z" />
    <glyph glyph-name="abreve" unicode="&#x103;" horiz-adv-x="498" 
d="M39 129q0 61 49.5 100t134.5 51l147 20v33q0 51 -31.5 78t-95.5 27q-47 0 -77 -18.5t-39 -44.5q-3 -11 -8.5 -15t-13.5 -4h-13q-8 0 -14 6t-6 14q0 21 18.5 48t57.5 47.5t95 20.5q100 0 141.5 -47t41.5 -115v-310q0 -9 -5.5 -14.5t-14.5 -5.5h-16q-9 0 -14.5 5.5
t-5.5 14.5v44q-21 -31 -60.5 -52t-104.5 -21q-44 0 -82 18.5t-61 50t-23 69.5zM370 217v32l-120 -17q-76 -10 -115 -35t-39 -63q0 -43 35.5 -66t83.5 -23q67 0 111 44.5t44 127.5zM141 656q0 7 4.5 12.5t12.5 5.5h14q9 0 13.5 -5.5t4.5 -12.5q0 -61 53 -61t53 61
q0 7 4.5 12.5t12.5 5.5h14q9 0 13.5 -5.5t4.5 -12.5q0 -47 -23 -77.5t-79 -30.5t-79 30.5t-23 77.5z" />
    <glyph glyph-name="Aogonek" unicode="&#x104;" horiz-adv-x="604" 
d="M410 -76q0 53 26.5 86.5t72.5 40.5l-3 8l-40 104h-329l-57 -149q-2 -5 -7 -9.5t-14 -4.5h-18q-8 0 -13.5 5.5t-5.5 13.5l2 10l235 603q8 18 27 18h32q19 0 27 -18l235 -603l2 -10q0 -8 -6 -13.5t-13 -5.5h-27q-32 0 -51.5 -20.5t-19.5 -55.5t19.5 -55t51.5 -20h14
q9 0 14.5 -6t5.5 -15v-12q0 -9 -5.5 -14.5t-14.5 -5.5h-18q-56 0 -89 34t-33 94zM160 218h284l-142 366z" />
    <glyph glyph-name="aogonek" unicode="&#x105;" horiz-adv-x="498" 
d="M294 -84q0 41 23 72t53 45v2v29q-21 -31 -60.5 -52t-104.5 -21q-44 0 -82 18.5t-61 50t-23 69.5q0 61 49.5 100t134.5 51l147 20v33q0 51 -31.5 78t-95.5 27q-47 0 -77 -18.5t-39 -44.5q-3 -11 -8.5 -15t-13.5 -4h-13q-8 0 -14 6t-6 14q0 21 18.5 48t57.5 47.5t95 20.5
q100 0 141.5 -47t41.5 -115v-310q0 -12 -13 -19l-1 -1q-33 -15 -48 -34t-15 -50q0 -34 14 -50.5t38 -16.5h5q9 0 14.5 -6t5.5 -15v-12q0 -9 -5.5 -14.5t-14.5 -5.5h-8q-45 0 -74.5 32t-29.5 88zM370 217v32l-120 -17q-76 -10 -115 -35t-39 -63q0 -43 35.5 -66t83.5 -23
q67 0 111 44.5t44 127.5z" />
    <glyph glyph-name="Cacute" unicode="&#x106;" horiz-adv-x="605" 
d="M61 242q-1 26 -1 82q0 58 1 84q5 115 65.5 183.5t180.5 68.5q83 0 138 -30.5t81.5 -76.5t29.5 -94v-2q0 -7 -6 -12t-14 -5h-19q-16 0 -20 20q-18 79 -64.5 111.5t-125.5 32.5q-87 0 -135 -49.5t-52 -151.5q-1 -25 -1 -77t1 -79q4 -102 52 -151.5t135 -49.5
q79 0 125.5 32.5t64.5 111.5q4 20 20 20h19q8 0 14 -5t6 -14q-3 -48 -29.5 -94t-81.5 -76t-138 -30q-120 0 -180.5 68t-65.5 183zM277 712q0 7 4 12l64 77q9 10 15.5 13.5t19.5 3.5h42q18 0 18 -18q0 -7 -5 -11l-101 -83q-7 -6 -12.5 -7.5t-16.5 -1.5h-14q-14 0 -14 15z" />
    <glyph glyph-name="cacute" unicode="&#x107;" horiz-adv-x="498" 
d="M53 204l-1 38l1 37q3 101 56 157t149 56q62 0 105 -21.5t64.5 -55.5t23.5 -70q0 -9 -6.5 -15t-14.5 -6h-13q-9 0 -13.5 4.5t-8.5 15.5q-19 51 -52.5 72.5t-84.5 21.5q-67 0 -106.5 -40t-41.5 -124l-1 -32l1 -33q2 -84 41.5 -124t106.5 -40q51 0 84.5 21.5t52.5 72.5
q4 11 8.5 15.5t13.5 4.5h13q8 0 14.5 -6t6.5 -15q-2 -36 -23.5 -70t-64.5 -55.5t-105 -21.5q-96 0 -149 56t-56 157zM218 568q0 7 5 12l64 77q8 10 14.5 13.5t19.5 3.5h38q18 0 18 -18q0 -7 -5 -11l-101 -83q-7 -6 -13 -7.5t-16 -1.5h-9q-15 0 -15 15z" />
    <glyph glyph-name="Ccircumflex" unicode="&#x108;" horiz-adv-x="605" 
d="M61 242q-1 26 -1 82q0 58 1 84q5 115 65.5 183.5t180.5 68.5q83 0 138 -30.5t81.5 -76.5t29.5 -94v-2q0 -7 -6 -12t-14 -5h-19q-16 0 -20 20q-18 79 -64.5 111.5t-125.5 32.5q-87 0 -135 -49.5t-52 -151.5q-1 -25 -1 -77t1 -79q4 -102 52 -151.5t135 -49.5
q79 0 125.5 32.5t64.5 111.5q4 20 20 20h19q8 0 14 -5t6 -14q-3 -48 -29.5 -94t-81.5 -76t-138 -30q-120 0 -180.5 68t-65.5 183zM176 707q0 7 11 19l81 79q9 8 15.5 10.5t14.5 2.5h9q10 0 16 -2.5t14 -10.5l81 -79q11 -12 11 -19q0 -10 -13 -10h-16q-6 0 -12.5 1.5
t-10.5 4.5l-74 56l-75 -56q-3 -3 -9.5 -4.5t-13.5 -1.5h-16q-13 0 -13 10z" />
    <glyph glyph-name="ccircumflex" unicode="&#x109;" horiz-adv-x="498" 
d="M53 204l-1 38l1 37q3 101 56 157t149 56q62 0 105 -21.5t64.5 -55.5t23.5 -70q0 -9 -6.5 -15t-14.5 -6h-13q-9 0 -13.5 4.5t-8.5 15.5q-19 51 -52.5 72.5t-84.5 21.5q-67 0 -106.5 -40t-41.5 -124l-1 -32l1 -33q2 -84 41.5 -124t106.5 -40q51 0 84.5 21.5t52.5 72.5
q4 11 8.5 15.5t13.5 4.5h13q8 0 14.5 -6t6.5 -15q-2 -36 -23.5 -70t-64.5 -55.5t-105 -21.5q-96 0 -149 56t-56 157zM125 572q0 7 11 19l81 79q8 8 14 10.5t16 2.5h9q8 0 14.5 -2.5t15.5 -10.5l81 -79q11 -12 11 -19q0 -10 -13 -10h-16q-7 0 -13.5 1.5t-9.5 4.5l-75 56
l-74 -56q-4 -3 -10.5 -4.5t-12.5 -1.5h-16q-13 0 -13 10z" />
    <glyph glyph-name="Cdotaccent" unicode="&#x10a;" horiz-adv-x="605" 
d="M61 242q-1 26 -1 82q0 58 1 84q5 115 65.5 183.5t180.5 68.5q83 0 138 -30.5t81.5 -76.5t29.5 -94v-2q0 -7 -6 -12t-14 -5h-19q-16 0 -20 20q-18 79 -64.5 111.5t-125.5 32.5q-87 0 -135 -49.5t-52 -151.5q-1 -25 -1 -77t1 -79q4 -102 52 -151.5t135 -49.5
q79 0 125.5 32.5t64.5 111.5q4 20 20 20h19q8 0 14 -5t6 -14q-3 -48 -29.5 -94t-81.5 -76t-138 -30q-120 0 -180.5 68t-65.5 183zM260 717v45q0 9 5.5 15t14.5 6h45q9 0 15 -6t6 -15v-45q0 -9 -6 -14.5t-15 -5.5h-45q-9 0 -14.5 5.5t-5.5 14.5z" />
    <glyph glyph-name="cdotaccent" unicode="&#x10b;" horiz-adv-x="498" 
d="M53 204l-1 38l1 37q3 101 56 157t149 56q62 0 105 -21.5t64.5 -55.5t23.5 -70q0 -9 -6.5 -15t-14.5 -6h-13q-9 0 -13.5 4.5t-8.5 15.5q-19 51 -52.5 72.5t-84.5 21.5q-67 0 -106.5 -40t-41.5 -124l-1 -32l1 -33q2 -84 41.5 -124t106.5 -40q51 0 84.5 21.5t52.5 72.5
q4 11 8.5 15.5t13.5 4.5h13q8 0 14.5 -6t6.5 -15q-2 -36 -23.5 -70t-64.5 -55.5t-105 -21.5q-96 0 -149 56t-56 157zM209 594v44q0 10 5.5 16t14.5 6h45q9 0 15 -6t6 -16v-44q0 -10 -6 -15.5t-15 -5.5h-45q-9 0 -14.5 5.5t-5.5 15.5z" />
    <glyph glyph-name="Ccaron" unicode="&#x10c;" horiz-adv-x="605" 
d="M61 242q-1 26 -1 82q0 58 1 84q5 115 65.5 183.5t180.5 68.5q83 0 138 -30.5t81.5 -76.5t29.5 -94v-2q0 -7 -6 -12t-14 -5h-19q-16 0 -20 20q-18 79 -64.5 111.5t-125.5 32.5q-87 0 -135 -49.5t-52 -151.5q-1 -25 -1 -77t1 -79q4 -102 52 -151.5t135 -49.5
q79 0 125.5 32.5t64.5 111.5q4 20 20 20h19q8 0 14 -5t6 -14q-3 -48 -29.5 -94t-81.5 -76t-138 -30q-120 0 -180.5 68t-65.5 183zM268 710l-81 79q-11 11 -11 18q0 11 13 11h16q7 0 13.5 -2t9.5 -5l75 -56l74 56q4 3 10.5 5t12.5 2h16q13 0 13 -11q0 -7 -11 -18l-81 -79
q-8 -9 -14 -11t-16 -2h-9q-8 0 -14.5 2t-15.5 11z" />
    <glyph glyph-name="ccaron" unicode="&#x10d;" horiz-adv-x="498" 
d="M53 204l-1 38l1 37q3 101 56 157t149 56q62 0 105 -21.5t64.5 -55.5t23.5 -70q0 -9 -6.5 -15t-14.5 -6h-13q-9 0 -13.5 4.5t-8.5 15.5q-19 51 -52.5 72.5t-84.5 21.5q-67 0 -106.5 -40t-41.5 -124l-1 -32l1 -33q2 -84 41.5 -124t106.5 -40q51 0 84.5 21.5t52.5 72.5
q4 11 8.5 15.5t13.5 4.5h13q8 0 14.5 -6t6.5 -15q-2 -36 -23.5 -70t-64.5 -55.5t-105 -21.5q-96 0 -149 56t-56 157zM217 566l-81 79q-11 11 -11 18q0 11 13 11h16q6 0 12.5 -2t10.5 -5l74 -56l75 56q3 3 9.5 5t13.5 2h16q13 0 13 -11q0 -7 -11 -18l-81 -79q-9 -9 -15.5 -11
t-14.5 -2h-9q-10 0 -16 2t-14 11z" />
    <glyph glyph-name="Dcaron" unicode="&#x10e;" horiz-adv-x="629" 
d="M87 20v609q0 9 5.5 15t15.5 6h198q96 0 152.5 -28t80 -83t25.5 -140q1 -27 1 -73t-1 -74q-2 -89 -25.5 -143.5t-78.5 -81.5t-150 -27h-202q-10 0 -15.5 5.5t-5.5 14.5zM306 56q74 0 116.5 20t62 63t20.5 117q1 28 1 70q0 41 -1 69q-1 104 -48 152t-156 48h-155v-539h160z
M272 710l-81 79q-11 11 -11 18q0 11 13 11h16q7 0 13.5 -2t9.5 -5l75 -56l74 56q4 3 10.5 5t12.5 2h16q13 0 13 -11q0 -7 -11 -18l-81 -79q-8 -9 -14 -11t-16 -2h-9q-8 0 -14.5 2t-15.5 11z" />
    <glyph glyph-name="dcaron" unicode="&#x10f;" horiz-adv-x="539" 
d="M51 216l-1 26l1 26q3 93 51 158.5t148 65.5q101 0 156 -73v220q0 9 5.5 15t14.5 6h16q9 0 15 -6t6 -15v-619q0 -9 -6 -14.5t-15 -5.5h-16q-9 0 -14.5 5.5t-5.5 14.5v44q-54 -73 -156 -73q-100 0 -148 65.5t-51 159.5zM406 208q1 9 1 36t-1 37q-1 40 -17.5 75.5t-50 58.5
t-83.5 23q-75 0 -109.5 -47.5t-37.5 -122.5l-1 -26q0 -87 33.5 -142t114.5 -55q74 0 111 48.5t40 114.5zM514 530l16 104q3 26 23 26h42q6 0 10 -5t4 -10q0 -9 -4 -17l-37 -98q-5 -10 -10 -14.5t-14 -4.5h-17q-7 0 -11 5.5t-2 13.5z" />
    <glyph glyph-name="Dcroat" unicode="&#x110;" horiz-adv-x="635" 
d="M93 20v279h-59q-9 0 -14.5 5.5t-5.5 15.5v14q0 10 5.5 15.5t14.5 5.5h59v274q0 9 5.5 15t14.5 6h198q97 0 153 -28t80 -83t25 -140q1 -27 1 -73t-1 -74q-1 -89 -25 -143.5t-78.5 -81.5t-149.5 -27h-203q-9 0 -14.5 5.5t-5.5 14.5zM311 56q75 0 117.5 20t61.5 63t21 117
q1 28 1 70q0 41 -1 69q-2 104 -49 152t-155 48h-156v-240h140q9 0 14.5 -5.5t5.5 -15.5v-14q0 -10 -5.5 -15.5t-14.5 -5.5h-140v-243h160z" />
    <glyph glyph-name="dcroat" unicode="&#x111;" horiz-adv-x="539" 
d="M52 216l-1 26q0 97 41 173.5t159 76.5q101 0 156 -73v111h-54q-9 0 -14.5 6t-5.5 15v13q0 9 5.5 14.5t14.5 5.5h54v55q0 9 5.5 15t14.5 6h16q9 0 15 -6t6 -15v-55h53q10 0 15.5 -5.5t5.5 -14.5v-13q0 -9 -5.5 -15t-15.5 -6h-53v-510q0 -9 -6 -14.5t-15 -5.5h-16
q-9 0 -14.5 5.5t-5.5 14.5v44q-54 -73 -156 -73q-109 0 -152.5 67t-46.5 158zM407 208q1 9 1 36t-1 37q-1 40 -17.5 75.5t-50 58.5t-83.5 23q-75 0 -110 -47.5t-37 -122.5l-1 -26l1 -26q2 -76 37 -123.5t110 -47.5q74 0 111 48.5t40 114.5z" />
    <glyph glyph-name="Emacron" unicode="&#x112;" horiz-adv-x="550" 
d="M87 20v609q0 9 5.5 15t15.5 6h362q10 0 15.5 -5.5t5.5 -15.5v-14q0 -9 -6 -14.5t-15 -5.5h-324v-237h304q10 0 15.5 -5.5t5.5 -16.5v-14q0 -9 -6 -14.5t-15 -5.5h-304v-246h332q10 0 15.5 -5.5t5.5 -16.5v-14q0 -9 -6 -14.5t-15 -5.5h-370q-10 0 -15.5 5.5t-5.5 14.5z
M161 717v21q0 9 5.5 14.5t15.5 5.5h185q9 0 14.5 -5.5t5.5 -14.5v-21q0 -9 -5.5 -14.5t-14.5 -5.5h-185q-10 0 -15.5 5.5t-5.5 14.5z" />
    <glyph glyph-name="emacron" unicode="&#x113;" horiz-adv-x="507" 
d="M51 204l-1 38l1 37q8 96 61 154.5t143 58.5q96 0 150.5 -64t54.5 -175v-14q0 -10 -6 -15.5t-16 -5.5h-330v-9q2 -44 20 -81.5t50.5 -60t76.5 -22.5q51 0 83 20t46 40q8 11 12 14t16 3h14q9 0 14.5 -5t5.5 -12q0 -20 -24.5 -47t-68.5 -47t-98 -20q-89 0 -142.5 58
t-61.5 155zM403 270v4q0 72 -40.5 118t-107.5 46q-68 0 -107.5 -46t-39.5 -118v-4h295zM142 598v13q0 10 5.5 15.5t14.5 5.5h185q10 0 15.5 -5.5t5.5 -15.5v-13q0 -9 -5.5 -14.5t-15.5 -5.5h-185q-9 0 -14.5 5.5t-5.5 14.5z" />
    <glyph glyph-name="Ebreve" unicode="&#x114;" horiz-adv-x="550" 
d="M87 20v609q0 9 5.5 15t15.5 6h362q10 0 15.5 -5.5t5.5 -15.5v-14q0 -9 -6 -14.5t-15 -5.5h-324v-237h304q10 0 15.5 -5.5t5.5 -16.5v-14q0 -9 -6 -14.5t-15 -5.5h-304v-246h332q10 0 15.5 -5.5t5.5 -16.5v-14q0 -9 -6 -14.5t-15 -5.5h-370q-10 0 -15.5 5.5t-5.5 14.5z
M168 795q0 8 5 13t13 5h14q8 0 13 -5t5 -13q0 -26 13 -43.5t44 -17.5q32 0 45 17.5t13 43.5q0 8 4.5 13t12.5 5h14q9 0 13.5 -5t4.5 -13q0 -46 -24 -77t-83 -31q-58 0 -82.5 31t-24.5 77z" />
    <glyph glyph-name="ebreve" unicode="&#x115;" horiz-adv-x="507" 
d="M51 204l-1 38l1 37q8 96 61 154.5t143 58.5q96 0 150.5 -64t54.5 -175v-14q0 -10 -6 -15.5t-16 -5.5h-330v-9q2 -44 20 -81.5t50.5 -60t76.5 -22.5q51 0 83 20t46 40q8 11 12 14t16 3h14q9 0 14.5 -5t5.5 -12q0 -20 -24.5 -47t-68.5 -47t-98 -20q-89 0 -142.5 58
t-61.5 155zM403 270v4q0 72 -40.5 118t-107.5 46q-68 0 -107.5 -46t-39.5 -118v-4h295zM153 656q0 7 4.5 12.5t12.5 5.5h14q9 0 13.5 -5.5t4.5 -12.5q0 -61 53 -61t53 61q0 7 4.5 12.5t12.5 5.5h14q9 0 13.5 -5.5t4.5 -12.5q0 -47 -23 -77.5t-79 -30.5t-79 30.5t-23 77.5z
" />
    <glyph glyph-name="Edotaccent" unicode="&#x116;" horiz-adv-x="550" 
d="M87 20v609q0 9 5.5 15t15.5 6h362q10 0 15.5 -5.5t5.5 -15.5v-14q0 -9 -6 -14.5t-15 -5.5h-324v-237h304q10 0 15.5 -5.5t5.5 -16.5v-14q0 -9 -6 -14.5t-15 -5.5h-304v-246h332q10 0 15.5 -5.5t5.5 -16.5v-14q0 -9 -6 -14.5t-15 -5.5h-370q-10 0 -15.5 5.5t-5.5 14.5z
M232 717v45q0 9 5.5 15t14.5 6h45q9 0 15 -6t6 -15v-45q0 -9 -6 -14.5t-15 -5.5h-45q-9 0 -14.5 5.5t-5.5 14.5z" />
    <glyph glyph-name="edotaccent" unicode="&#x117;" horiz-adv-x="507" 
d="M51 204l-1 38l1 37q8 96 61 154.5t143 58.5q96 0 150.5 -64t54.5 -175v-14q0 -10 -6 -15.5t-16 -5.5h-330v-9q2 -44 20 -81.5t50.5 -60t76.5 -22.5q51 0 83 20t46 40q8 11 12 14t16 3h14q9 0 14.5 -5t5.5 -12q0 -20 -24.5 -47t-68.5 -47t-98 -20q-89 0 -142.5 58
t-61.5 155zM403 270v4q0 72 -40.5 118t-107.5 46q-68 0 -107.5 -46t-39.5 -118v-4h295zM212 594v44q0 10 5.5 16t14.5 6h45q9 0 15 -6t6 -16v-44q0 -10 -6 -15.5t-15 -5.5h-45q-9 0 -14.5 5.5t-5.5 15.5z" />
    <glyph glyph-name="Eogonek" unicode="&#x118;" horiz-adv-x="550" 
d="M338 -76q0 45 20 76h-250q-10 0 -15.5 5.5t-5.5 14.5v609q0 9 5.5 15t15.5 6h362q10 0 15.5 -5.5t5.5 -15.5v-14q0 -9 -6 -14.5t-15 -5.5h-324v-237h304q10 0 15.5 -5.5t5.5 -16.5v-14q0 -9 -6 -14.5t-15 -5.5h-304v-246h332q10 0 15.5 -5.5t5.5 -16.5v-14q0 -9 -6 -14.5
t-15 -5.5h-20q-29 -2 -46.5 -22.5t-17.5 -53.5q0 -35 19.5 -55t50.5 -20h14q10 0 15.5 -6t5.5 -15v-12q0 -9 -5.5 -14.5t-15.5 -5.5h-17q-57 0 -90 34t-33 94z" />
    <glyph glyph-name="eogonek" unicode="&#x119;" horiz-adv-x="508" 
d="M180 -76q0 45 18 74q-64 18 -102 72t-44 134l-1 38l1 37q7 96 60.5 154.5t142.5 58.5q97 0 151.5 -64t54.5 -175v-14q0 -10 -6 -15.5t-16 -5.5h-330v-9q2 -44 20 -81.5t50.5 -60t75.5 -22.5q52 0 84 20t46 40q8 11 12 14t15 3h15q9 0 14.5 -5t5.5 -12q0 -17 -18.5 -39.5
t-53 -42.5t-78.5 -29q-29 -5 -45 -22t-16 -48q0 -35 19.5 -55t51.5 -20h14q9 0 14.5 -6t5.5 -15v-12q0 -9 -5.5 -14.5t-14.5 -5.5h-18q-57 0 -90 34t-33 94zM403 270v4q0 72 -40.5 118t-107.5 46q-68 0 -107.5 -46t-39.5 -118v-4h295z" />
    <glyph glyph-name="Ecaron" unicode="&#x11a;" horiz-adv-x="550" 
d="M87 20v609q0 9 5.5 15t15.5 6h362q10 0 15.5 -5.5t5.5 -15.5v-14q0 -9 -6 -14.5t-15 -5.5h-324v-237h304q10 0 15.5 -5.5t5.5 -16.5v-14q0 -9 -6 -14.5t-15 -5.5h-304v-246h332q10 0 15.5 -5.5t5.5 -16.5v-14q0 -9 -6 -14.5t-15 -5.5h-370q-10 0 -15.5 5.5t-5.5 14.5z
M240 710l-81 79q-11 11 -11 18q0 11 13 11h16q7 0 13.5 -2t9.5 -5l75 -56l74 56q4 3 10.5 5t12.5 2h16q13 0 13 -11q0 -7 -11 -18l-81 -79q-8 -9 -14 -11t-16 -2h-9q-8 0 -14.5 2t-15.5 11z" />
    <glyph glyph-name="ecaron" unicode="&#x11b;" horiz-adv-x="507" 
d="M51 204l-1 38l1 37q8 96 61 154.5t143 58.5q96 0 150.5 -64t54.5 -175v-14q0 -10 -6 -15.5t-16 -5.5h-330v-9q2 -44 20 -81.5t50.5 -60t76.5 -22.5q51 0 83 20t46 40q8 11 12 14t16 3h14q9 0 14.5 -5t5.5 -12q0 -20 -24.5 -47t-68.5 -47t-98 -20q-89 0 -142.5 58
t-61.5 155zM403 270v4q0 72 -40.5 118t-107.5 46q-68 0 -107.5 -46t-39.5 -118v-4h295zM220 566l-81 79q-11 11 -11 18q0 11 13 11h16q6 0 12.5 -2t10.5 -5l74 -56l75 56q3 3 9.5 5t13.5 2h16q13 0 13 -11q0 -7 -11 -18l-81 -79q-9 -9 -15.5 -11t-14.5 -2h-9q-10 0 -16 2
t-14 11z" />
    <glyph glyph-name="Gcircumflex" unicode="&#x11c;" horiz-adv-x="617" 
d="M62 237q-1 28 -1 88q0 61 1 88q4 113 68 180t180 67q79 0 133 -30t80.5 -70.5t28.5 -71.5v-2q0 -8 -5.5 -12.5t-14.5 -4.5h-20q-8 0 -12 4t-8 15q-15 49 -60.5 82.5t-121.5 33.5q-86 0 -136 -47.5t-53 -147.5q-1 -28 -1 -84t1 -83q3 -101 53 -148.5t136 -47.5
q87 0 140 49.5t53 146.5v47h-162q-9 0 -14.5 6t-5.5 15v13q0 10 5.5 16t14.5 6h199q10 0 15.5 -5.5t5.5 -16.5v-81q0 -75 -29.5 -131.5t-86.5 -88t-135 -31.5q-116 0 -180 66.5t-68 179.5zM188 707q0 7 11 19l81 79q9 8 15.5 10.5t14.5 2.5h9q10 0 16 -2.5t14 -10.5l81 -79
q11 -12 11 -19q0 -10 -13 -10h-16q-6 0 -12.5 1.5t-10.5 4.5l-74 56l-75 -56q-3 -3 -9.5 -4.5t-13.5 -1.5h-16q-13 0 -13 10z" />
    <glyph glyph-name="gcircumflex" unicode="&#x11d;" horiz-adv-x="540" 
d="M61 -66q0 8 6 14t15 6h13q8 0 13 -4.5t9 -15.5q29 -84 134 -84q80 0 118 32.5t38 117.5v64q-54 -73 -156 -73q-101 0 -148.5 65.5t-50.5 159.5l-1 26l1 26q3 93 50.5 158.5t148.5 65.5t156 -73v43q0 9 5.5 15t14.5 6h15q9 0 15.5 -6t6.5 -15v-453q0 -99 -46.5 -156
t-162.5 -57q-72 0 -115.5 25t-61 57t-17.5 56zM407 208q1 9 1 34q0 24 -1 33q-3 66 -40 114.5t-111 48.5q-75 0 -110 -47.5t-37 -122.5l-1 -26l1 -26q2 -76 37 -123.5t110 -47.5q74 0 111 48.5t40 114.5zM131 563q0 7 11 19l81 79q8 8 14 10.5t16 2.5h9q8 0 14.5 -2.5
t15.5 -10.5l81 -79q11 -12 11 -19q0 -10 -13 -10h-16q-7 0 -13.5 1.5t-9.5 4.5l-75 56l-74 -56q-4 -3 -10.5 -4.5t-12.5 -1.5h-16q-13 0 -13 10z" />
    <glyph glyph-name="Gbreve" unicode="&#x11e;" horiz-adv-x="617" 
d="M62 237q-1 28 -1 88q0 61 1 88q4 113 68 180t180 67q79 0 133 -30t80.5 -70.5t28.5 -71.5v-2q0 -8 -5.5 -12.5t-14.5 -4.5h-20q-8 0 -12 4t-8 15q-15 49 -60.5 82.5t-121.5 33.5q-86 0 -136 -47.5t-53 -147.5q-1 -28 -1 -84t1 -83q3 -101 53 -148.5t136 -47.5
q87 0 140 49.5t53 146.5v47h-162q-9 0 -14.5 6t-5.5 15v13q0 10 5.5 16t14.5 6h199q10 0 15.5 -5.5t5.5 -16.5v-81q0 -75 -29.5 -131.5t-86.5 -88t-135 -31.5q-116 0 -180 66.5t-68 179.5zM208 795q0 8 5 13t13 5h14q8 0 13 -5t5 -13q0 -26 13 -43.5t44 -17.5q32 0 45 17.5
t13 43.5q0 8 4.5 13t12.5 5h14q9 0 13.5 -5t4.5 -13q0 -46 -24 -77t-83 -31q-58 0 -82.5 31t-24.5 77z" />
    <glyph glyph-name="gbreve" unicode="&#x11f;" horiz-adv-x="540" 
d="M61 -66q0 8 6 14t15 6h13q8 0 13 -4.5t9 -15.5q29 -84 134 -84q80 0 118 32.5t38 117.5v64q-54 -73 -156 -73q-101 0 -148.5 65.5t-50.5 159.5l-1 26l1 26q3 93 50.5 158.5t148.5 65.5t156 -73v43q0 9 5.5 15t14.5 6h15q9 0 15.5 -6t6.5 -15v-453q0 -99 -46.5 -156
t-162.5 -57q-72 0 -115.5 25t-61 57t-17.5 56zM407 208q1 9 1 34q0 24 -1 33q-3 66 -40 114.5t-111 48.5q-75 0 -110 -47.5t-37 -122.5l-1 -26l1 -26q2 -76 37 -123.5t110 -47.5q74 0 111 48.5t40 114.5zM155 656q0 7 4.5 12.5t12.5 5.5h14q9 0 13.5 -5.5t4.5 -12.5
q0 -61 53 -61t53 61q0 7 4.5 12.5t12.5 5.5h14q9 0 13.5 -5.5t4.5 -12.5q0 -47 -23 -77.5t-79 -30.5t-79 30.5t-23 77.5z" />
    <glyph glyph-name="Gdotaccent" unicode="&#x120;" horiz-adv-x="617" 
d="M62 237q-1 28 -1 88q0 61 1 88q4 113 68 180t180 67q79 0 133 -30t80.5 -70.5t28.5 -71.5v-2q0 -8 -5.5 -12.5t-14.5 -4.5h-20q-8 0 -12 4t-8 15q-15 49 -60.5 82.5t-121.5 33.5q-86 0 -136 -47.5t-53 -147.5q-1 -28 -1 -84t1 -83q3 -101 53 -148.5t136 -47.5
q87 0 140 49.5t53 146.5v47h-162q-9 0 -14.5 6t-5.5 15v13q0 10 5.5 16t14.5 6h199q10 0 15.5 -5.5t5.5 -16.5v-81q0 -75 -29.5 -131.5t-86.5 -88t-135 -31.5q-116 0 -180 66.5t-68 179.5zM273 717v45q0 9 5.5 15t14.5 6h45q9 0 15 -6t6 -15v-45q0 -9 -6 -14.5t-15 -5.5h-45
q-9 0 -14.5 5.5t-5.5 14.5z" />
    <glyph glyph-name="gdotaccent" unicode="&#x121;" horiz-adv-x="540" 
d="M61 -66q0 8 6 14t15 6h13q8 0 13 -4.5t9 -15.5q29 -84 134 -84q80 0 118 32.5t38 117.5v64q-54 -73 -156 -73q-101 0 -148.5 65.5t-50.5 159.5l-1 26l1 26q3 93 50.5 158.5t148.5 65.5t156 -73v43q0 9 5.5 15t14.5 6h15q9 0 15.5 -6t6.5 -15v-453q0 -99 -46.5 -156
t-162.5 -57q-72 0 -115.5 25t-61 57t-17.5 56zM407 208q1 9 1 34q0 24 -1 33q-3 66 -40 114.5t-111 48.5q-75 0 -110 -47.5t-37 -122.5l-1 -26l1 -26q2 -76 37 -123.5t110 -47.5q74 0 111 48.5t40 114.5zM215 594v44q0 10 5.5 16t14.5 6h45q9 0 15 -6t6 -16v-44
q0 -10 -6 -15.5t-15 -5.5h-45q-9 0 -14.5 5.5t-5.5 15.5z" />
    <glyph glyph-name="Gcommaaccent" unicode="&#x122;" horiz-adv-x="617" 
d="M62 237q-1 28 -1 88q0 61 1 88q4 113 68 180t180 67q79 0 133 -30t80.5 -70.5t28.5 -71.5v-2q0 -8 -5.5 -12.5t-14.5 -4.5h-20q-8 0 -12 4t-8 15q-15 49 -60.5 82.5t-121.5 33.5q-86 0 -136 -47.5t-53 -147.5q-1 -28 -1 -84t1 -83q3 -101 53 -148.5t136 -47.5
q87 0 140 49.5t53 146.5v47h-162q-9 0 -14.5 6t-5.5 15v13q0 10 5.5 16t14.5 6h199q10 0 15.5 -5.5t5.5 -16.5v-81q0 -75 -29.5 -131.5t-86.5 -88t-135 -31.5q-116 0 -180 66.5t-68 179.5zM262 -176l16 104q3 26 23 26h42q6 0 10 -5t4 -10q0 -9 -4 -17l-37 -98
q-5 -10 -10 -14.5t-14 -4.5h-17q-7 0 -11 5.5t-2 13.5z" />
    <glyph glyph-name="gcommaaccent" unicode="&#x123;" horiz-adv-x="540" 
d="M315 682l-16 -104q-3 -25 -23 -25h-42q-5 0 -9.5 4.5t-4.5 10.5q0 8 4 16l37 98q5 10 10 14.5t14 4.5h17q7 0 11 -5.5t2 -13.5zM61 -66q0 8 6 14t15 6h13q8 0 13 -4.5t9 -15.5q29 -84 134 -84q80 0 118 32.5t38 117.5v64q-54 -73 -156 -73q-101 0 -148.5 65.5
t-50.5 159.5l-1 26l1 26q3 93 50.5 158.5t148.5 65.5t156 -73v43q0 9 5.5 15t14.5 6h15q9 0 15.5 -6t6.5 -15v-453q0 -99 -46.5 -156t-162.5 -57q-72 0 -115.5 25t-61 57t-17.5 56zM407 208q1 9 1 34q0 24 -1 33q-3 66 -40 114.5t-111 48.5q-75 0 -110 -47.5t-37 -122.5
l-1 -26l1 -26q2 -76 37 -123.5t110 -47.5q74 0 111 48.5t40 114.5z" />
    <glyph glyph-name="Hcircumflex" unicode="&#x124;" horiz-adv-x="650" 
d="M87 20v609q0 9 5.5 15t15.5 6h16q11 0 16.5 -5.5t5.5 -15.5v-271h358v271q0 9 6 15t15 6h17q10 0 15.5 -5.5t5.5 -15.5v-609q0 -9 -6 -14.5t-15 -5.5h-17q-9 0 -15 5.5t-6 14.5v282h-358v-282q0 -9 -6 -14.5t-16 -5.5h-16q-10 0 -15.5 5.5t-5.5 14.5zM199 707q0 7 11 19
l81 79q9 8 15.5 10.5t14.5 2.5h9q10 0 16 -2.5t14 -10.5l81 -79q11 -12 11 -19q0 -10 -13 -10h-16q-6 0 -12.5 1.5t-10.5 4.5l-74 56l-75 -56q-3 -3 -9.5 -4.5t-13.5 -1.5h-16q-13 0 -13 10z" />
    <glyph glyph-name="hcircumflex" unicode="&#x125;" horiz-adv-x="549" 
d="M76 20v619q0 9 5.5 15t15.5 6h15q10 0 15.5 -6t5.5 -15v-220q28 36 63.5 54.5t92.5 18.5q91 0 140 -58t49 -150v-264q0 -9 -5.5 -14.5t-14.5 -5.5h-16q-9 0 -14.5 5.5t-5.5 14.5v260q0 75 -37 116.5t-105 41.5q-67 0 -107 -42t-40 -116v-260q0 -9 -5.5 -14.5t-15.5 -5.5
h-15q-10 0 -15.5 5.5t-5.5 14.5zM150 707q0 7 11 19l81 79q8 8 14 10.5t16 2.5h9q8 0 14.5 -2.5t15.5 -10.5l81 -79q11 -12 11 -19q0 -10 -13 -10h-16q-7 0 -13.5 1.5t-9.5 4.5l-75 56l-74 -56q-4 -3 -10.5 -4.5t-12.5 -1.5h-16q-13 0 -13 10z" />
    <glyph glyph-name="Hbar" unicode="&#x126;" horiz-adv-x="650" 
d="M640 510v-13q0 -9 -5.5 -14.5t-14.5 -5.5h-57v-457q0 -9 -6 -14.5t-15 -5.5h-17q-9 0 -15 5.5t-6 14.5v282h-358v-282q0 -9 -6 -14.5t-16 -5.5h-16q-10 0 -15.5 5.5t-5.5 14.5v457h-47q-9 0 -14.5 5.5t-5.5 14.5v13q0 9 5.5 14.5t14.5 5.5h47v99q0 9 5.5 15t15.5 6h16
q11 0 16.5 -5.5t5.5 -15.5v-99h358v99q0 9 6 15t15 6h17q10 0 15.5 -5.5t5.5 -15.5v-99h57q9 0 14.5 -5.5t5.5 -14.5zM504 358v119h-358v-119h358z" />
    <glyph glyph-name="hbar" unicode="&#x127;" horiz-adv-x="548" 
d="M75 20v510h-54q-9 0 -14.5 6t-5.5 15v13q0 9 5.5 14.5t14.5 5.5h54v55q0 9 5.5 15t15.5 6h15q10 0 15.5 -6t5.5 -15v-55h54q9 0 14.5 -5.5t5.5 -14.5v-13q0 -9 -5.5 -15t-14.5 -6h-54v-111q28 36 63.5 54.5t92.5 18.5q91 0 140.5 -58t49.5 -150v-264q0 -9 -6 -14.5
t-15 -5.5h-16q-9 0 -14.5 5.5t-5.5 14.5v260q0 75 -37 116.5t-105 41.5q-67 0 -107 -42t-40 -116v-260q0 -9 -5.5 -14.5t-15.5 -5.5h-15q-10 0 -15.5 5.5t-5.5 14.5z" />
    <glyph glyph-name="Itilde" unicode="&#x128;" horiz-adv-x="233" 
d="M87 20v610q0 9 5.5 14.5t15.5 5.5h17q10 0 15.5 -5.5t5.5 -14.5v-610q0 -9 -5.5 -14.5t-15.5 -5.5h-17q-10 0 -15.5 5.5t-5.5 14.5zM106 711q-23 13 -34 13q-7 0 -11.5 -3.5t-8.5 -10.5q-8 -13 -18 -13h-18q-7 0 -11 4.5t-4 10.5q0 27 20.5 49.5t47.5 22.5
q16 0 28.5 -4.5t28.5 -14.5q2 0 13 -6.5t21 -6.5q8 0 12 3.5t9 10.5q4 8 7.5 11t10.5 3h18q7 0 11 -4.5t4 -10.5q0 -26 -21.5 -49.5t-48.5 -23.5q-15 0 -26.5 4t-29.5 15z" />
    <glyph glyph-name="itilde" unicode="&#x129;" horiz-adv-x="207" 
d="M75 20v443q0 9 5.5 14.5t15.5 5.5h15q10 0 15.5 -5.5t5.5 -14.5v-443q0 -9 -5.5 -14.5t-15.5 -5.5h-15q-10 0 -15.5 5.5t-5.5 14.5zM96 567q-7 4 -15 8.5t-15 4.5q-8 0 -12 -3.5t-9 -10.5q-7 -13 -18 -13h-18q-7 0 -11 4.5t-4 10.5q0 27 19 47t47 20q16 0 27.5 -4.5
t25.5 -13.5q7 -5 15 -9t17 -4q7 0 11 3t9 11q4 7 7.5 10.5t10.5 3.5h18q7 0 11 -5t4 -10q0 -27 -20 -48t-47 -21q-16 0 -26.5 4.5t-26.5 14.5z" />
    <glyph glyph-name="Imacron" unicode="&#x12a;" horiz-adv-x="233" 
d="M87 20v610q0 9 5.5 14.5t15.5 5.5h17q10 0 15.5 -5.5t5.5 -14.5v-610q0 -9 -5.5 -14.5t-15.5 -5.5h-17q-10 0 -15.5 5.5t-5.5 14.5zM3 717v21q0 9 5.5 14.5t15.5 5.5h185q9 0 14.5 -5.5t5.5 -14.5v-21q0 -9 -5.5 -14.5t-14.5 -5.5h-185q-10 0 -15.5 5.5t-5.5 14.5z" />
    <glyph glyph-name="imacron" unicode="&#x12b;" horiz-adv-x="207" 
d="M75 20v443q0 9 5.5 14.5t15.5 5.5h15q10 0 15.5 -5.5t5.5 -14.5v-443q0 -9 -5.5 -14.5t-15.5 -5.5h-15q-10 0 -15.5 5.5t-5.5 14.5zM-8 598v13q0 10 5.5 15.5t14.5 5.5h185q10 0 15.5 -5.5t5.5 -15.5v-13q0 -9 -5.5 -14.5t-15.5 -5.5h-185q-9 0 -14.5 5.5t-5.5 14.5z" />
    <glyph glyph-name="Ibreve" unicode="&#x12c;" horiz-adv-x="233" 
d="M87 20v610q0 9 5.5 14.5t15.5 5.5h17q10 0 15.5 -5.5t5.5 -14.5v-610q0 -9 -5.5 -14.5t-15.5 -5.5h-17q-10 0 -15.5 5.5t-5.5 14.5zM10 795q0 8 5 13t13 5h14q8 0 13 -5t5 -13q0 -26 13 -43.5t44 -17.5q32 0 45 17.5t13 43.5q0 8 4.5 13t12.5 5h14q9 0 13.5 -5t4.5 -13
q0 -46 -24 -77t-83 -31q-58 0 -82.5 31t-24.5 77z" />
    <glyph glyph-name="ibreve" unicode="&#x12d;" horiz-adv-x="207" 
d="M75 20v443q0 9 5.5 14.5t15.5 5.5h15q10 0 15.5 -5.5t5.5 -14.5v-443q0 -9 -5.5 -14.5t-15.5 -5.5h-15q-10 0 -15.5 5.5t-5.5 14.5zM2 656q0 7 4.5 12.5t12.5 5.5h14q9 0 13.5 -5.5t4.5 -12.5q0 -61 53 -61t53 61q0 7 4.5 12.5t12.5 5.5h14q9 0 13.5 -5.5t4.5 -12.5
q0 -47 -23 -77.5t-79 -30.5t-79 30.5t-23 77.5z" />
    <glyph glyph-name="Iogonek" unicode="&#x12e;" horiz-adv-x="250" 
d="M2 -76q0 54 27.5 87.5t74.5 39.5v8v10v561q0 9 5.5 14.5t14.5 5.5h18q9 0 15 -5.5t6 -14.5v-610q0 -9 -6 -14.5t-15 -5.5h-14q-31 0 -50.5 -20.5t-19.5 -55.5t19.5 -55t50.5 -20h14q9 0 15 -6t6 -15v-12q0 -9 -6 -14.5t-15 -5.5h-18q-56 0 -89 34t-33 94z" />
    <glyph glyph-name="iogonek" unicode="&#x12f;" horiz-adv-x="227" 
d="M85 603v35q0 10 5.5 16t14.5 6h35q10 0 16 -6t6 -16v-35q0 -9 -6 -15t-16 -6h-35q-9 0 -14.5 6t-5.5 15zM0 -76q0 51 25 84.5t70 41.5v4v5v404q0 9 5.5 14.5t14.5 5.5h16q9 0 14.5 -5.5t5.5 -14.5v-443q0 -9 -5.5 -14.5t-14.5 -5.5h-5q-31 0 -50.5 -20.5t-19.5 -55.5
t19.5 -55t50.5 -20h14q10 0 15.5 -6t5.5 -15v-12q0 -9 -5.5 -14.5t-15.5 -5.5h-17q-57 0 -90 34t-33 94z" />
    <glyph glyph-name="Idotaccent" unicode="&#x130;" horiz-adv-x="233" 
d="M87 20v610q0 9 5.5 14.5t15.5 5.5h17q10 0 15.5 -5.5t5.5 -14.5v-610q0 -9 -5.5 -14.5t-15.5 -5.5h-17q-10 0 -15.5 5.5t-5.5 14.5zM74 717v45q0 9 5.5 15t14.5 6h45q9 0 15 -6t6 -15v-45q0 -9 -6 -14.5t-15 -5.5h-45q-9 0 -14.5 5.5t-5.5 14.5z" />
    <glyph glyph-name="dotlessi" unicode="&#x131;" horiz-adv-x="207" 
d="M75 20v443q0 9 5.5 14.5t15.5 5.5h15q10 0 15.5 -5.5t5.5 -14.5v-443q0 -9 -5.5 -14.5t-15.5 -5.5h-15q-10 0 -15.5 5.5t-5.5 14.5z" />
    <glyph glyph-name="IJ" unicode="&#x132;" horiz-adv-x="547" 
d="M87 20v610q0 9 5.5 14.5t15.5 5.5h17q10 0 15.5 -5.5t5.5 -14.5v-610q0 -9 -5.5 -14.5t-15.5 -5.5h-17q-10 0 -15.5 5.5t-5.5 14.5zM220 11v14q0 9 5.5 15t15.5 6q80 0 123 52.5t43 139.5v392q0 9 5.5 14.5t14.5 5.5h17q10 0 15.5 -5.5t5.5 -15.5v-392q0 -112 -59 -179
t-165 -67q-10 0 -15.5 5.5t-5.5 14.5z" />
    <glyph glyph-name="ij" unicode="&#x133;" horiz-adv-x="424" 
d="M65 603v35q0 10 5.5 16t14.5 6h36q9 0 15 -6t6 -16v-35q0 -9 -6 -15t-15 -6h-36q-9 0 -14.5 6t-5.5 15zM75 20v443q0 9 5.5 14.5t15.5 5.5h15q10 0 15.5 -5.5t5.5 -14.5v-443q0 -9 -5.5 -14.5t-15.5 -5.5h-15q-10 0 -15.5 5.5t-5.5 14.5zM280 603v35q0 10 6 16t15 6h35
q9 0 15 -6t6 -16v-35q0 -9 -6 -15t-15 -6h-35q-9 0 -15 6t-6 15zM183 -156v13q0 9 5.5 14.5t14.5 5.5h4q51 0 67.5 26t16.5 77v483q0 9 5.5 14.5t14.5 5.5h16q9 0 14.5 -5.5t5.5 -14.5v-483q0 -74 -30.5 -115.5t-109.5 -41.5h-4q-9 0 -14.5 6t-5.5 15z" />
    <glyph glyph-name="Jcircumflex" unicode="&#x134;" horiz-adv-x="574" 
d="M42 180q0 10 5 15.5t14 5.5h19q9 0 14 -5.5t6 -14.5q6 -69 52 -102t116 -33q79 0 122.5 52.5t43.5 139.5v357h-343q-9 0 -14.5 5.5t-5.5 14.5v15q0 9 5.5 14.5t14.5 5.5h380q10 0 15.5 -5.5t5.5 -15.5v-392q0 -112 -59 -179t-165 -67q-97 0 -159.5 47.5t-66.5 141.5z
M155 707q0 7 11 19l81 79q9 8 15.5 10.5t14.5 2.5h9q10 0 16 -2.5t14 -10.5l81 -79q11 -12 11 -19q0 -10 -13 -10h-16q-6 0 -12.5 1.5t-10.5 4.5l-74 56l-75 -56q-3 -3 -9.5 -4.5t-13.5 -1.5h-16q-13 0 -13 10z" />
    <glyph glyph-name="jcircumflex" unicode="&#x135;" horiz-adv-x="250" 
d="M9 -156v13q0 9 5.5 14.5t15.5 5.5h3q52 0 68 26t16 77v449h-78q-9 0 -14.5 5.5t-5.5 15.5v13q0 9 5.5 14.5t14.5 5.5h114q10 0 15.5 -5.5t5.5 -14.5v-483q0 -74 -31 -115.5t-110 -41.5h-3q-10 0 -15.5 6t-5.5 15zM-18 563q0 7 11 19l81 79q8 8 14 10.5t16 2.5h9
q8 0 14.5 -2.5t15.5 -10.5l81 -79q11 -12 11 -19q0 -10 -13 -10h-16q-7 0 -13.5 1.5t-9.5 4.5l-75 56l-74 -56q-4 -3 -10.5 -4.5t-12.5 -1.5h-16q-13 0 -13 10z" />
    <glyph glyph-name="Kcommaaccent" unicode="&#x136;" horiz-adv-x="534" 
d="M87 20v609q0 9 5.5 15t15.5 6h16q11 0 16.5 -5.5t5.5 -15.5v-242l281 249q8 6 16 10t20 4h15q7 0 12.5 -5.5t5.5 -12.5q0 -8 -5 -12l-314 -281l334 -307q6 -6 6 -13q0 -8 -6 -13.5t-13 -5.5h-16q-12 0 -20 4t-15 10l-301 275v-269q0 -9 -6 -14.5t-16 -5.5h-16
q-10 0 -15.5 5.5t-5.5 14.5zM221 -176l16 104q3 26 23 26h42q6 0 10 -5t4 -10q0 -9 -4 -17l-37 -98q-5 -10 -10 -14.5t-14 -4.5h-17q-7 0 -11 5.5t-2 13.5z" />
    <glyph glyph-name="kcommaaccent" unicode="&#x137;" horiz-adv-x="452" 
d="M76 20v619q0 9 5.5 15t15.5 6h15q10 0 15.5 -6t5.5 -15v-329l207 157q15 11 20.5 13.5t18.5 2.5h18q8 0 13 -5t5 -14q0 -10 -12 -18l-235 -178l258 -231q12 -11 12 -18q0 -9 -5 -14t-13 -5h-15q-14 0 -20.5 2.5t-18.5 13.5l-233 207v-203q0 -9 -5.5 -14.5t-15.5 -5.5h-15
q-10 0 -15.5 5.5t-5.5 14.5zM167 -176l16 104q3 26 23 26h42q6 0 10 -5t4 -10q0 -9 -4 -17l-37 -98q-5 -10 -10 -14.5t-14 -4.5h-17q-7 0 -11 5.5t-2 13.5z" />
    <glyph glyph-name="kgreenlandic" unicode="&#x138;" horiz-adv-x="453" 
d="M75 20v443q0 9 5.5 14.5t15.5 5.5h15q10 0 15.5 -5.5t5.5 -14.5v-177l215 181q14 11 20 13.5t19 2.5h14q9 0 14 -5t5 -14q0 -10 -12 -18l-242 -204l260 -205q13 -9 13 -18t-5.5 -14t-13.5 -5h-17q-13 0 -19.5 3t-19.5 13l-231 181v-177q0 -9 -5.5 -14.5t-15.5 -5.5h-15
q-10 0 -15.5 5.5t-5.5 14.5z" />
    <glyph glyph-name="Lacute" unicode="&#x139;" horiz-adv-x="509" 
d="M87 20v610q0 9 5.5 14.5t15.5 5.5h17q10 0 15.5 -5.5t5.5 -14.5v-574h320q11 0 16.5 -5.5t5.5 -16.5v-14q0 -9 -6 -14.5t-16 -5.5h-358q-10 0 -15.5 5.5t-5.5 14.5zM91 712q0 7 4 12l64 77q9 10 15.5 13.5t19.5 3.5h42q18 0 18 -18q0 -7 -5 -11l-101 -83
q-7 -6 -12.5 -7.5t-16.5 -1.5h-14q-14 0 -14 15z" />
    <glyph glyph-name="lacute" unicode="&#x13a;" horiz-adv-x="209" 
d="M76 20v619q0 9 5.5 15t15.5 6h15q10 0 15.5 -6t5.5 -15v-619q0 -9 -5.5 -14.5t-15.5 -5.5h-15q-10 0 -15.5 5.5t-5.5 14.5zM82 712q0 7 5 12l64 77q8 10 14.5 13.5t19.5 3.5h38q18 0 18 -18q0 -7 -5 -11l-101 -83q-7 -6 -13 -7.5t-16 -1.5h-9q-15 0 -15 15z" />
    <glyph glyph-name="Lcommaaccent" unicode="&#x13b;" horiz-adv-x="509" 
d="M87 20v610q0 9 5.5 14.5t15.5 5.5h17q10 0 15.5 -5.5t5.5 -14.5v-574h320q11 0 16.5 -5.5t5.5 -16.5v-14q0 -9 -6 -14.5t-16 -5.5h-358q-10 0 -15.5 5.5t-5.5 14.5zM225 -176l16 104q3 26 23 26h42q6 0 10 -5t4 -10q0 -9 -4 -17l-37 -98q-5 -10 -10 -14.5t-14 -4.5h-17
q-7 0 -11 5.5t-2 13.5z" />
    <glyph glyph-name="lcommaaccent" unicode="&#x13c;" horiz-adv-x="209" 
d="M76 20v619q0 9 5.5 15t15.5 6h15q10 0 15.5 -6t5.5 -15v-619q0 -9 -5.5 -14.5t-15.5 -5.5h-15q-10 0 -15.5 5.5t-5.5 14.5zM45 -176l16 104q3 26 23 26h42q6 0 10 -5t4 -10q0 -9 -4 -17l-37 -98q-5 -10 -10 -14.5t-14 -4.5h-17q-7 0 -11 5.5t-2 13.5z" />
    <glyph glyph-name="Lcaron" unicode="&#x13d;" horiz-adv-x="509" 
d="M87 20v610q0 9 5.5 14.5t15.5 5.5h17q10 0 15.5 -5.5t5.5 -14.5v-574h320q11 0 16.5 -5.5t5.5 -16.5v-14q0 -9 -6 -14.5t-16 -5.5h-358q-10 0 -15.5 5.5t-5.5 14.5zM240 530l16 104q3 26 23 26h42q6 0 10 -5t4 -10q0 -9 -4 -17l-37 -98q-5 -10 -10 -14.5t-14 -4.5h-17
q-7 0 -11 5.5t-2 13.5z" />
    <glyph glyph-name="lcaron" unicode="&#x13e;" horiz-adv-x="232" 
d="M76 20v619q0 9 5.5 15t15.5 6h15q10 0 15.5 -6t5.5 -15v-619q0 -9 -5.5 -14.5t-15.5 -5.5h-15q-10 0 -15.5 5.5t-5.5 14.5zM184 530l16 104q3 26 23 26h42q6 0 10 -5t4 -10q0 -9 -4 -17l-37 -98q-5 -10 -10 -14.5t-14 -4.5h-17q-7 0 -11 5.5t-2 13.5z" />
    <glyph glyph-name="Ldot" unicode="&#x13f;" horiz-adv-x="509" 
d="M87 20v610q0 9 5.5 14.5t15.5 5.5h17q10 0 15.5 -5.5t5.5 -14.5v-574h320q11 0 16.5 -5.5t5.5 -16.5v-14q0 -9 -6 -14.5t-16 -5.5h-358q-10 0 -15.5 5.5t-5.5 14.5zM259 313v44q0 10 5.5 16t14.5 6h45q9 0 15 -6t6 -16v-44q0 -10 -6 -15.5t-15 -5.5h-45q-9 0 -14.5 5.5
t-5.5 15.5z" />
    <glyph glyph-name="ldot" unicode="&#x140;" horiz-adv-x="238" 
d="M76 20v619q0 9 5.5 15t15.5 6h15q10 0 15.5 -6t5.5 -15v-619q0 -9 -5.5 -14.5t-15.5 -5.5h-15q-10 0 -15.5 5.5t-5.5 14.5zM179 313v44q0 10 5.5 16t14.5 6h45q9 0 15 -6t6 -16v-44q0 -10 -6 -15.5t-15 -5.5h-45q-9 0 -14.5 5.5t-5.5 15.5z" />
    <glyph glyph-name="Lslash" unicode="&#x141;" horiz-adv-x="517" 
d="M95 20v251l-54 -20q-8 -3 -12 -3q-9 0 -13.5 4t-4.5 13v17q0 11 4.5 15t16.5 9l63 24v300q0 9 5.5 14.5t14.5 5.5h18q9 0 14.5 -5.5t5.5 -14.5v-277l135 52q7 3 12 3q8 0 13 -4.5t5 -12.5v-18q0 -10 -4.5 -14t-16.5 -9l-144 -56v-238h322q9 0 14.5 -5.5t5.5 -15.5v-15
q0 -9 -5.5 -14.5t-14.5 -5.5h-360q-9 0 -14.5 5.5t-5.5 14.5z" />
    <glyph glyph-name="lslash" unicode="&#x142;" horiz-adv-x="229" 
d="M87 20v275l-35 -13q-7 -2 -12 -2q-8 0 -13 4t-5 12v18q0 10 4.5 14.5t16.5 8.5l44 17v285q0 9 5.5 15t15.5 6h16q9 0 14.5 -6t5.5 -15v-264l35 14q7 3 12 3q9 0 13.5 -4t4.5 -13v-17q0 -11 -4 -15t-16 -9l-45 -17v-297q0 -9 -5.5 -14.5t-14.5 -5.5h-16q-10 0 -15.5 5.5
t-5.5 14.5z" />
    <glyph glyph-name="Nacute" unicode="&#x143;" horiz-adv-x="635" 
d="M87 20v609q0 9 5.5 15t15.5 6h19q12 0 20 -11l343 -524v514q0 9 5.5 15t14.5 6h17q10 0 15.5 -5.5t5.5 -15.5v-608q0 -9 -5.5 -15t-14.5 -6h-21q-12 0 -19 11l-342 522v-513q0 -9 -6 -14.5t-16 -5.5h-16q-10 0 -15.5 5.5t-5.5 14.5zM292 712q0 7 4 12l64 77
q9 10 15.5 13.5t19.5 3.5h42q18 0 18 -18q0 -7 -5 -11l-101 -83q-7 -6 -12.5 -7.5t-16.5 -1.5h-14q-14 0 -14 15z" />
    <glyph glyph-name="nacute" unicode="&#x144;" horiz-adv-x="548" 
d="M75 20v443q0 9 5.5 14.5t15.5 5.5h15q10 0 15.5 -5.5t5.5 -14.5v-44q28 36 63.5 54.5t92.5 18.5q91 0 140.5 -58t49.5 -150v-264q0 -9 -6 -14.5t-15 -5.5h-16q-9 0 -14.5 5.5t-5.5 14.5v260q0 75 -37 116.5t-105 41.5q-67 0 -107 -42t-40 -116v-260q0 -9 -5.5 -14.5
t-15.5 -5.5h-15q-10 0 -15.5 5.5t-5.5 14.5zM242 568q0 7 5 12l64 77q8 10 14.5 13.5t19.5 3.5h38q18 0 18 -18q0 -7 -5 -11l-101 -83q-7 -6 -13 -7.5t-16 -1.5h-9q-15 0 -15 15z" />
    <glyph glyph-name="Ncommaaccent" unicode="&#x145;" horiz-adv-x="635" 
d="M87 20v609q0 9 5.5 15t15.5 6h19q12 0 20 -11l343 -524v514q0 9 5.5 15t14.5 6h17q10 0 15.5 -5.5t5.5 -15.5v-608q0 -9 -5.5 -15t-14.5 -6h-21q-12 0 -19 11l-342 522v-513q0 -9 -6 -14.5t-16 -5.5h-16q-10 0 -15.5 5.5t-5.5 14.5zM261 -176l16 104q3 26 23 26h42
q6 0 10 -5t4 -10q0 -9 -4 -17l-37 -98q-5 -10 -10 -14.5t-14 -4.5h-17q-7 0 -11 5.5t-2 13.5z" />
    <glyph glyph-name="ncommaaccent" unicode="&#x146;" horiz-adv-x="548" 
d="M75 20v443q0 9 5.5 14.5t15.5 5.5h15q10 0 15.5 -5.5t5.5 -14.5v-44q28 36 63.5 54.5t92.5 18.5q91 0 140.5 -58t49.5 -150v-264q0 -9 -6 -14.5t-15 -5.5h-16q-9 0 -14.5 5.5t-5.5 14.5v260q0 75 -37 116.5t-105 41.5q-67 0 -107 -42t-40 -116v-260q0 -9 -5.5 -14.5
t-15.5 -5.5h-15q-10 0 -15.5 5.5t-5.5 14.5zM221 -176l16 104q3 26 23 26h42q6 0 10 -5t4 -10q0 -9 -4 -17l-37 -98q-5 -10 -10 -14.5t-14 -4.5h-17q-7 0 -11 5.5t-2 13.5z" />
    <glyph glyph-name="Ncaron" unicode="&#x147;" horiz-adv-x="635" 
d="M87 20v609q0 9 5.5 15t15.5 6h19q12 0 20 -11l343 -524v514q0 9 5.5 15t14.5 6h17q10 0 15.5 -5.5t5.5 -15.5v-608q0 -9 -5.5 -15t-14.5 -6h-21q-12 0 -19 11l-342 522v-513q0 -9 -6 -14.5t-16 -5.5h-16q-10 0 -15.5 5.5t-5.5 14.5zM283 710l-81 79q-11 11 -11 18
q0 11 13 11h16q7 0 13.5 -2t9.5 -5l75 -56l74 56q4 3 10.5 5t12.5 2h16q13 0 13 -11q0 -7 -11 -18l-81 -79q-8 -9 -14 -11t-16 -2h-9q-8 0 -14.5 2t-15.5 11z" />
    <glyph glyph-name="ncaron" unicode="&#x148;" horiz-adv-x="548" 
d="M75 20v443q0 9 5.5 14.5t15.5 5.5h15q10 0 15.5 -5.5t5.5 -14.5v-44q28 36 63.5 54.5t92.5 18.5q91 0 140.5 -58t49.5 -150v-264q0 -9 -6 -14.5t-15 -5.5h-16q-9 0 -14.5 5.5t-5.5 14.5v260q0 75 -37 116.5t-105 41.5q-67 0 -107 -42t-40 -116v-260q0 -9 -5.5 -14.5
t-15.5 -5.5h-15q-10 0 -15.5 5.5t-5.5 14.5zM242 566l-81 79q-11 11 -11 18q0 11 13 11h16q6 0 12.5 -2t10.5 -5l74 -56l75 56q3 3 9.5 5t13.5 2h16q13 0 13 -11q0 -7 -11 -18l-81 -79q-9 -9 -15.5 -11t-14.5 -2h-9q-10 0 -16 2t-14 11z" />
    <glyph glyph-name="napostrophe" unicode="&#x149;" horiz-adv-x="548" 
d="M75 20v443q0 9 5.5 14.5t15.5 5.5h15q10 0 15.5 -5.5t5.5 -14.5v-44q28 36 63.5 54.5t92.5 18.5q91 0 140.5 -58t49.5 -150v-264q0 -9 -6 -14.5t-15 -5.5h-16q-9 0 -14.5 5.5t-5.5 14.5v260q0 75 -37 116.5t-105 41.5q-67 0 -107 -42t-40 -116v-260q0 -9 -5.5 -14.5
t-15.5 -5.5h-15q-10 0 -15.5 5.5t-5.5 14.5zM83 560l16 104q3 26 23 26h42q6 0 10 -5t4 -10q0 -9 -4 -17l-37 -98q-5 -10 -10 -14.5t-14 -4.5h-17q-7 0 -11 5.5t-2 13.5z" />
    <glyph glyph-name="Eng" unicode="&#x14a;" horiz-adv-x="635" 
d="M384 -189v15q0 10 5.5 15.5t14.5 5.5h4q48 0 65 25.5t17 74.5v60l-344 526v-513q0 -9 -6 -14.5t-16 -5.5h-16q-10 0 -15.5 5.5t-5.5 14.5v609q0 9 5.5 15t15.5 6h19q12 0 20 -11l343 -524v514q0 9 5.5 15t14.5 6h17q10 0 15.5 -5.5t5.5 -15.5v-682q0 -74 -29.5 -115
t-110.5 -41h-4q-9 0 -14.5 5.5t-5.5 14.5z" />
    <glyph glyph-name="eng" unicode="&#x14b;" horiz-adv-x="548" 
d="M313 -189v13q0 10 5.5 15.5t15.5 5.5h3q51 0 67.5 26t16.5 76v333q0 75 -37 116.5t-105 41.5q-67 0 -107 -42t-40 -116v-260q0 -9 -5.5 -14.5t-15.5 -5.5h-15q-10 0 -15.5 5.5t-5.5 14.5v443q0 9 5.5 14.5t15.5 5.5h15q10 0 15.5 -5.5t5.5 -14.5v-44q28 36 63.5 54.5
t92.5 18.5q91 0 140.5 -58t49.5 -150v-337q0 -73 -31 -114.5t-110 -41.5h-3q-10 0 -15.5 5.5t-5.5 14.5z" />
    <glyph glyph-name="Omacron" unicode="&#x14c;" horiz-adv-x="615" 
d="M62 247q-1 28 -1 78t1 78q4 127 69 192t176 65q112 0 177 -65t69 -192q2 -56 2 -78t-2 -78q-7 -256 -246 -256q-238 0 -245 256zM494 252q2 55 2 73t-2 74q-3 104 -53.5 154.5t-133.5 50.5q-82 0 -132.5 -50.5t-53.5 -154.5q-1 -28 -1 -74q0 -45 1 -73q3 -104 53 -155
t133 -51q84 0 134 51t53 155zM194 717v21q0 9 5.5 14.5t15.5 5.5h185q9 0 14.5 -5.5t5.5 -14.5v-21q0 -9 -5.5 -14.5t-14.5 -5.5h-185q-10 0 -15.5 5.5t-5.5 14.5z" />
    <glyph glyph-name="omacron" unicode="&#x14d;" horiz-adv-x="518" 
d="M53 203l-1 39l1 39q3 93 56.5 152t149.5 59q97 0 150.5 -59t55.5 -152q1 -10 1 -39q0 -30 -1 -39q-2 -94 -55.5 -153t-150.5 -59q-96 0 -149.5 59t-56.5 153zM409 207q1 9 1 35q0 25 -1 34q-3 78 -43.5 120t-106.5 42t-106.5 -42t-42.5 -120l-1 -34l1 -35
q2 -78 42.5 -120t106.5 -42t106.5 42t43.5 120zM147 598v13q0 10 5.5 15.5t14.5 5.5h185q10 0 15.5 -5.5t5.5 -15.5v-13q0 -9 -5.5 -14.5t-15.5 -5.5h-185q-9 0 -14.5 5.5t-5.5 14.5z" />
    <glyph glyph-name="Obreve" unicode="&#x14e;" horiz-adv-x="615" 
d="M62 247q-1 28 -1 78t1 78q4 127 69 192t176 65q112 0 177 -65t69 -192q2 -56 2 -78t-2 -78q-7 -256 -246 -256q-238 0 -245 256zM494 252q2 55 2 73t-2 74q-3 104 -53.5 154.5t-133.5 50.5q-82 0 -132.5 -50.5t-53.5 -154.5q-1 -28 -1 -74q0 -45 1 -73q3 -104 53 -155
t133 -51q84 0 134 51t53 155zM200 795q0 8 5 13t13 5h14q8 0 13 -5t5 -13q0 -26 13 -43.5t44 -17.5q32 0 45 17.5t13 43.5q0 8 4.5 13t12.5 5h14q9 0 13.5 -5t4.5 -13q0 -46 -24 -77t-83 -31q-58 0 -82.5 31t-24.5 77z" />
    <glyph glyph-name="obreve" unicode="&#x14f;" horiz-adv-x="518" 
d="M53 203l-1 39l1 39q3 93 56.5 152t149.5 59q97 0 150.5 -59t55.5 -152q1 -10 1 -39q0 -30 -1 -39q-2 -94 -55.5 -153t-150.5 -59q-96 0 -149.5 59t-56.5 153zM409 207q1 9 1 35q0 25 -1 34q-3 78 -43.5 120t-106.5 42t-106.5 -42t-42.5 -120l-1 -34l1 -35
q2 -78 42.5 -120t106.5 -42t106.5 42t43.5 120zM157 656q0 7 4.5 12.5t12.5 5.5h14q9 0 13.5 -5.5t4.5 -12.5q0 -61 53 -61t53 61q0 7 4.5 12.5t12.5 5.5h14q9 0 13.5 -5.5t4.5 -12.5q0 -47 -23 -77.5t-79 -30.5t-79 30.5t-23 77.5z" />
    <glyph glyph-name="Ohungarumlaut" unicode="&#x150;" horiz-adv-x="615" 
d="M62 247q-1 28 -1 78t1 78q4 127 69 192t176 65q112 0 177 -65t69 -192q2 -56 2 -78t-2 -78q-7 -256 -246 -256q-238 0 -245 256zM494 252q2 55 2 73t-2 74q-3 104 -53.5 154.5t-133.5 50.5q-82 0 -132.5 -50.5t-53.5 -154.5q-1 -28 -1 -74q0 -45 1 -73q3 -104 53 -155
t133 -51q84 0 134 51t53 155zM212 712q0 4 5 14l33 74q5 9 13 13.5t22 4.5h37q8 0 13 -5t5 -13q0 -7 -5 -12l-66 -78q-11 -13 -28 -13h-14q-15 0 -15 15zM350 712q0 4 4 14l34 74q5 9 12.5 13.5t21.5 4.5h37q9 0 14 -5t5 -13q0 -7 -6 -12l-66 -78q-11 -13 -27 -13h-14
q-15 0 -15 15z" />
    <glyph glyph-name="ohungarumlaut" unicode="&#x151;" horiz-adv-x="518" 
d="M53 203l-1 39l1 39q3 93 56.5 152t149.5 59q97 0 150.5 -59t55.5 -152q1 -10 1 -39q0 -30 -1 -39q-2 -94 -55.5 -153t-150.5 -59q-96 0 -149.5 59t-56.5 153zM409 207q1 9 1 35q0 25 -1 34q-3 78 -43.5 120t-106.5 42t-106.5 -42t-42.5 -120l-1 -34l1 -35
q2 -78 42.5 -120t106.5 -42t106.5 42t43.5 120zM162 568q0 4 5 14l33 74q5 9 13 13.5t21 4.5h33q8 0 13.5 -5t5.5 -13q0 -7 -6 -12l-66 -78q-11 -13 -28 -13h-9q-15 0 -15 15zM295 568q0 4 5 14l33 74q5 9 12.5 13.5t21.5 4.5h33q8 0 13 -5t5 -13q0 -7 -5 -12l-66 -78
q-11 -13 -28 -13h-9q-15 0 -15 15z" />
    <glyph glyph-name="OE" unicode="&#x152;" horiz-adv-x="836" 
d="M65 252l-1 74l1 73q2 85 25.5 140t80 83t152.5 28h434q10 0 16 -5.5t6 -15.5v-14q0 -9 -6.5 -14.5t-15.5 -5.5h-287v-237h267q10 0 15.5 -5.5t5.5 -16.5v-14q0 -9 -6 -14.5t-15 -5.5h-267v-246h295q10 0 15.5 -5.5t5.5 -16.5v-14q0 -9 -6 -14.5t-15 -5.5h-446
q-95 0 -150 27t-78.5 81.5t-25.5 143.5zM412 56v539h-84q-109 0 -156 -48t-48 -152l-1 -69l1 -70q1 -74 20.5 -117t62 -63t116.5 -20h89z" />
    <glyph glyph-name="oe" unicode="&#x153;" horiz-adv-x="865" 
d="M54 203l-1 39l1 39q3 93 56.5 152t149.5 59q65 0 110.5 -27t69.5 -77q26 50 70.5 77t104.5 27q97 0 151 -64t54 -175v-14q0 -10 -6 -15.5t-15 -5.5h-331v-9q2 -44 20 -81.5t50.5 -60t76.5 -22.5q48 0 79.5 20t44.5 40q9 11 13 14t15 3h15q9 0 14.5 -5t5.5 -12
q0 -20 -24.5 -47t-67 -47t-95.5 -20q-59 0 -104 27t-71 76q-24 -49 -69.5 -76t-110.5 -27q-96 0 -149.5 59t-56.5 153zM410 207q1 9 1 35q0 25 -1 34q-3 78 -43.5 120t-106.5 42t-106.5 -42t-42.5 -120l-1 -34l1 -35q2 -78 42.5 -120t106.5 -42t106.5 42t43.5 120zM764 270
v4q0 72 -40.5 118t-108.5 46t-107.5 -46t-39.5 -118v-4h296z" />
    <glyph glyph-name="Racute" unicode="&#x154;" horiz-adv-x="595" 
d="M87 20v609q0 9 5.5 15t15.5 6h216q101 0 157.5 -47t56.5 -140q0 -74 -36.5 -119t-103.5 -61l149 -254q3 -6 3 -10q0 -8 -5.5 -13.5t-13.5 -5.5h-11q-14 0 -21 6t-14 19l-148 250h-191v-255q0 -9 -6 -14.5t-16 -5.5h-16q-10 0 -15.5 5.5t-5.5 14.5zM320 331q80 0 119.5 33
t39.5 99t-39.5 99t-119.5 33h-174v-264h174zM253 712q0 7 4 12l64 77q9 10 15.5 13.5t19.5 3.5h42q18 0 18 -18q0 -7 -5 -11l-101 -83q-7 -6 -12.5 -7.5t-16.5 -1.5h-14q-14 0 -14 15z" />
    <glyph glyph-name="racute" unicode="&#x155;" horiz-adv-x="323" 
d="M75 20v442q0 9 5.5 15t15.5 6h15q9 0 15 -6t6 -15v-43q33 64 126 64h35q9 0 14.5 -5.5t5.5 -14.5v-13q0 -10 -5.5 -15.5t-14.5 -5.5h-40q-56 0 -88.5 -32.5t-32.5 -88.5v-288q0 -9 -6 -14.5t-15 -5.5h-15q-10 0 -15.5 5.5t-5.5 14.5zM150 568q0 7 5 12l64 77
q8 10 14.5 13.5t19.5 3.5h38q18 0 18 -18q0 -7 -5 -11l-101 -83q-7 -6 -13 -7.5t-16 -1.5h-9q-15 0 -15 15z" />
    <glyph glyph-name="Rcommaaccent" unicode="&#x156;" horiz-adv-x="595" 
d="M87 20v609q0 9 5.5 15t15.5 6h216q101 0 157.5 -47t56.5 -140q0 -74 -36.5 -119t-103.5 -61l149 -254q3 -6 3 -10q0 -8 -5.5 -13.5t-13.5 -5.5h-11q-14 0 -21 6t-14 19l-148 250h-191v-255q0 -9 -6 -14.5t-16 -5.5h-16q-10 0 -15.5 5.5t-5.5 14.5zM320 331q80 0 119.5 33
t39.5 99t-39.5 99t-119.5 33h-174v-264h174zM240 -176l16 104q3 26 23 26h42q6 0 10 -5t4 -10q0 -9 -4 -17l-37 -98q-5 -10 -10 -14.5t-14 -4.5h-17q-7 0 -11 5.5t-2 13.5z" />
    <glyph glyph-name="rcommaaccent" unicode="&#x157;" horiz-adv-x="323" 
d="M75 20v442q0 9 5.5 15t15.5 6h15q9 0 15 -6t6 -15v-43q33 64 126 64h35q9 0 14.5 -5.5t5.5 -14.5v-13q0 -10 -5.5 -15.5t-14.5 -5.5h-40q-56 0 -88.5 -32.5t-32.5 -88.5v-288q0 -9 -6 -14.5t-15 -5.5h-15q-10 0 -15.5 5.5t-5.5 14.5zM38 -176l16 104q3 26 23 26h42
q6 0 10 -5t4 -10q0 -9 -4 -17l-37 -98q-5 -10 -10 -14.5t-14 -4.5h-17q-7 0 -11 5.5t-2 13.5z" />
    <glyph glyph-name="Rcaron" unicode="&#x158;" horiz-adv-x="595" 
d="M87 20v609q0 9 5.5 15t15.5 6h216q101 0 157.5 -47t56.5 -140q0 -74 -36.5 -119t-103.5 -61l149 -254q3 -6 3 -10q0 -8 -5.5 -13.5t-13.5 -5.5h-11q-14 0 -21 6t-14 19l-148 250h-191v-255q0 -9 -6 -14.5t-16 -5.5h-16q-10 0 -15.5 5.5t-5.5 14.5zM320 331q80 0 119.5 33
t39.5 99t-39.5 99t-119.5 33h-174v-264h174zM244 710l-81 79q-11 11 -11 18q0 11 13 11h16q7 0 13.5 -2t9.5 -5l75 -56l74 56q4 3 10.5 5t12.5 2h16q13 0 13 -11q0 -7 -11 -18l-81 -79q-8 -9 -14 -11t-16 -2h-9q-8 0 -14.5 2t-15.5 11z" />
    <glyph glyph-name="rcaron" unicode="&#x159;" horiz-adv-x="323" 
d="M75 20v442q0 9 5.5 15t15.5 6h15q9 0 15 -6t6 -15v-43q33 64 126 64h35q9 0 14.5 -5.5t5.5 -14.5v-13q0 -10 -5.5 -15.5t-14.5 -5.5h-40q-56 0 -88.5 -32.5t-32.5 -88.5v-288q0 -9 -6 -14.5t-15 -5.5h-15q-10 0 -15.5 5.5t-5.5 14.5zM139 566l-81 79q-11 11 -11 18
q0 11 13 11h16q6 0 12.5 -2t10.5 -5l74 -56l75 56q3 3 9.5 5t13.5 2h16q13 0 13 -11q0 -7 -11 -18l-81 -79q-9 -9 -15.5 -11t-14.5 -2h-9q-10 0 -16 2t-14 11z" />
    <glyph glyph-name="Sacute" unicode="&#x15a;" horiz-adv-x="562" 
d="M45 158q0 7 5.5 13t13.5 6h19q16 0 20 -19q7 -45 51.5 -78.5t127.5 -33.5q89 0 132 32.5t43 89.5q0 35 -21 58t-61 40t-120 43q-72 24 -112.5 46t-60 54.5t-19.5 82.5q0 48 25.5 86t74 60t115.5 22q69 0 118 -25t74 -62.5t27 -75.5q0 -7 -5 -13t-14 -6h-19
q-7 0 -13.5 4.5t-7.5 14.5q-5 46 -49 76.5t-111 30.5q-72 0 -114 -28t-42 -84q0 -36 19 -59.5t57 -41t112 -41.5q76 -24 119 -46.5t65 -54t22 -81.5q0 -83 -62.5 -130t-171.5 -47q-72 0 -125.5 23.5t-82 61.5t-29.5 82zM256 712q0 7 4 12l64 77q9 10 15.5 13.5t19.5 3.5h42
q18 0 18 -18q0 -7 -5 -11l-101 -83q-7 -6 -12.5 -7.5t-16.5 -1.5h-14q-14 0 -14 15z" />
    <glyph glyph-name="sacute" unicode="&#x15b;" horiz-adv-x="457" 
d="M44 99q0 9 6.5 14t13.5 5h14q7 0 11 -2.5t9 -9.5q21 -29 50 -45t81 -16q57 0 92.5 21.5t35.5 62.5q0 25 -14.5 41t-46.5 27.5t-95 26.5q-83 18 -113 50.5t-30 83.5q0 34 19 64.5t56.5 50t90.5 19.5q56 0 94.5 -19t57.5 -44t19 -41q0 -8 -6 -13t-15 -5h-14q-13 0 -20 12
q-19 28 -42.5 42t-73.5 14q-54 0 -82 -22t-28 -58q0 -23 11.5 -37.5t42 -27t88.5 -25.5q87 -20 122 -52.5t35 -86.5q0 -38 -21 -69.5t-63 -50t-100 -18.5q-61 0 -102.5 20.5t-62 46.5t-20.5 41zM190 568q0 7 5 12l64 77q8 10 14.5 13.5t19.5 3.5h38q18 0 18 -18q0 -7 -5 -11
l-101 -83q-7 -6 -13 -7.5t-16 -1.5h-9q-15 0 -15 15z" />
    <glyph glyph-name="Scircumflex" unicode="&#x15c;" horiz-adv-x="562" 
d="M45 158q0 7 5.5 13t13.5 6h19q16 0 20 -19q7 -45 51.5 -78.5t127.5 -33.5q89 0 132 32.5t43 89.5q0 35 -21 58t-61 40t-120 43q-72 24 -112.5 46t-60 54.5t-19.5 82.5q0 48 25.5 86t74 60t115.5 22q69 0 118 -25t74 -62.5t27 -75.5q0 -7 -5 -13t-14 -6h-19
q-7 0 -13.5 4.5t-7.5 14.5q-5 46 -49 76.5t-111 30.5q-72 0 -114 -28t-42 -84q0 -36 19 -59.5t57 -41t112 -41.5q76 -24 119 -46.5t65 -54t22 -81.5q0 -83 -62.5 -130t-171.5 -47q-72 0 -125.5 23.5t-82 61.5t-29.5 82zM155 707q0 7 11 19l81 79q9 8 15.5 10.5t14.5 2.5h9
q10 0 16 -2.5t14 -10.5l81 -79q11 -12 11 -19q0 -10 -13 -10h-16q-6 0 -12.5 1.5t-10.5 4.5l-74 56l-75 -56q-3 -3 -9.5 -4.5t-13.5 -1.5h-16q-13 0 -13 10z" />
    <glyph glyph-name="scircumflex" unicode="&#x15d;" horiz-adv-x="457" 
d="M44 99q0 9 6.5 14t13.5 5h14q7 0 11 -2.5t9 -9.5q21 -29 50 -45t81 -16q57 0 92.5 21.5t35.5 62.5q0 25 -14.5 41t-46.5 27.5t-95 26.5q-83 18 -113 50.5t-30 83.5q0 34 19 64.5t56.5 50t90.5 19.5q56 0 94.5 -19t57.5 -44t19 -41q0 -8 -6 -13t-15 -5h-14q-13 0 -20 12
q-19 28 -42.5 42t-73.5 14q-54 0 -82 -22t-28 -58q0 -23 11.5 -37.5t42 -27t88.5 -25.5q87 -20 122 -52.5t35 -86.5q0 -38 -21 -69.5t-63 -50t-100 -18.5q-61 0 -102.5 20.5t-62 46.5t-20.5 41zM101 563q0 7 11 19l81 79q8 8 14 10.5t16 2.5h9q8 0 14.5 -2.5t15.5 -10.5
l81 -79q11 -12 11 -19q0 -10 -13 -10h-16q-7 0 -13.5 1.5t-9.5 4.5l-75 56l-74 -56q-4 -3 -10.5 -4.5t-12.5 -1.5h-16q-13 0 -13 10z" />
    <glyph glyph-name="Scedilla" unicode="&#x15e;" horiz-adv-x="562" 
d="M201 -164q0 4 2 7l13 12q4 4 9 4q4 0 13 -6t18 -10.5t24 -4.5q16 0 28 10.5t12 27.5q0 15 -12 25t-28 10q-13 0 -26.5 -4.5t-17.5 -4.5q-7 0 -12 5l-15 16q-3 3 -3 7q0 5 3.5 11.5t4.5 9.5l18 43q-57 8 -99.5 32t-64.5 59t-23 73q0 7 5.5 13t13.5 6h19q16 0 20 -19
q7 -45 51.5 -78.5t127.5 -33.5q89 0 132 32.5t43 89.5q0 35 -21 58t-61 40t-120 43q-72 24 -112.5 46t-60 54.5t-19.5 82.5q0 48 25.5 86t74 60t115.5 22q69 0 118 -25t74 -62.5t27 -75.5q0 -7 -5 -13t-14 -6h-19q-7 0 -13.5 4.5t-7.5 14.5q-5 46 -49 76.5t-111 30.5
q-72 0 -114 -28t-42 -84q0 -36 19 -59.5t57 -41t112 -41.5q76 -24 119 -46.5t65 -54t22 -81.5q0 -83 -62.5 -130t-171.5 -47l-21 -45q12 8 35 8q31 0 51 -21.5t20 -55.5q0 -35 -22.5 -58t-63.5 -23q-22 0 -40.5 6.5t-29 15.5t-10.5 18z" />
    <glyph glyph-name="scedilla" unicode="&#x15f;" horiz-adv-x="457" 
d="M147 -164q0 4 3 7l13 12q3 4 8 4q4 0 13 -6t18 -10.5t24 -4.5q16 0 28 10.5t12 27.5q0 15 -12 25t-28 10q-13 0 -26.5 -4.5t-17.5 -4.5q-7 0 -12 5l-15 16q-3 3 -3 7q0 5 3.5 11.5t4.5 9.5l19 44q-44 8 -75 28t-45.5 41.5t-14.5 34.5q0 9 6.5 14t13.5 5h14q7 0 11 -2.5
t9 -9.5q21 -29 50 -45t81 -16q57 0 92.5 21.5t35.5 62.5q0 25 -14.5 41t-46.5 27.5t-95 26.5q-83 18 -113 50.5t-30 83.5q0 34 19 64.5t56.5 50t90.5 19.5q56 0 94.5 -19t57.5 -44t19 -41q0 -8 -6 -13t-15 -5h-14q-13 0 -20 12q-19 28 -42.5 42t-73.5 14q-54 0 -82 -22
t-28 -58q0 -23 11.5 -37.5t42 -27t88.5 -25.5q87 -20 122 -52.5t35 -86.5q0 -38 -21 -69.5t-63 -50t-100 -18.5l-22 -45q12 8 35 8q31 0 51 -21.5t20 -55.5q0 -35 -22.5 -58t-62.5 -23q-23 0 -41.5 6.5t-29 15.5t-10.5 18z" />
    <glyph glyph-name="Scaron" unicode="&#x160;" horiz-adv-x="562" 
d="M45 158q0 7 5.5 13t13.5 6h19q16 0 20 -19q7 -45 51.5 -78.5t127.5 -33.5q89 0 132 32.5t43 89.5q0 35 -21 58t-61 40t-120 43q-72 24 -112.5 46t-60 54.5t-19.5 82.5q0 48 25.5 86t74 60t115.5 22q69 0 118 -25t74 -62.5t27 -75.5q0 -7 -5 -13t-14 -6h-19
q-7 0 -13.5 4.5t-7.5 14.5q-5 46 -49 76.5t-111 30.5q-72 0 -114 -28t-42 -84q0 -36 19 -59.5t57 -41t112 -41.5q76 -24 119 -46.5t65 -54t22 -81.5q0 -83 -62.5 -130t-171.5 -47q-72 0 -125.5 23.5t-82 61.5t-29.5 82zM247 710l-81 79q-11 11 -11 18q0 11 13 11h16
q7 0 13.5 -2t9.5 -5l75 -56l74 56q4 3 10.5 5t12.5 2h16q13 0 13 -11q0 -7 -11 -18l-81 -79q-8 -9 -14 -11t-16 -2h-9q-8 0 -14.5 2t-15.5 11z" />
    <glyph glyph-name="scaron" unicode="&#x161;" horiz-adv-x="457" 
d="M44 99q0 9 6.5 14t13.5 5h14q7 0 11 -2.5t9 -9.5q21 -29 50 -45t81 -16q57 0 92.5 21.5t35.5 62.5q0 25 -14.5 41t-46.5 27.5t-95 26.5q-83 18 -113 50.5t-30 83.5q0 34 19 64.5t56.5 50t90.5 19.5q56 0 94.5 -19t57.5 -44t19 -41q0 -8 -6 -13t-15 -5h-14q-13 0 -20 12
q-19 28 -42.5 42t-73.5 14q-54 0 -82 -22t-28 -58q0 -23 11.5 -37.5t42 -27t88.5 -25.5q87 -20 122 -52.5t35 -86.5q0 -38 -21 -69.5t-63 -50t-100 -18.5q-61 0 -102.5 20.5t-62 46.5t-20.5 41zM193 566l-81 79q-11 11 -11 18q0 11 13 11h16q6 0 12.5 -2t10.5 -5l74 -56
l75 56q3 3 9.5 5t13.5 2h16q13 0 13 -11q0 -7 -11 -18l-81 -79q-9 -9 -15.5 -11t-14.5 -2h-9q-10 0 -16 2t-14 11z" />
    <glyph glyph-name="Tcaron" unicode="&#x164;" horiz-adv-x="517" 
d="M229 20v575h-183q-10 0 -15.5 5.5t-5.5 14.5v14q0 9 5.5 15t15.5 6h425q10 0 15.5 -5.5t5.5 -15.5v-14q0 -9 -6 -14.5t-15 -5.5h-183v-575q0 -9 -6 -14.5t-15 -5.5h-17q-9 0 -15 5.5t-6 14.5zM225 710l-81 79q-11 11 -11 18q0 11 13 11h16q7 0 13.5 -2t9.5 -5l75 -56
l74 56q4 3 10.5 5t12.5 2h16q13 0 13 -11q0 -7 -11 -18l-81 -79q-8 -9 -14 -11t-16 -2h-9q-8 0 -14.5 2t-15.5 11z" />
    <glyph glyph-name="tcaron" unicode="&#x165;" horiz-adv-x="302" 
d="M111 155v274h-72q-9 0 -14.5 5.5t-5.5 15.5v13q0 9 5.5 14.5t14.5 5.5h72v156q0 9 6 15t15 6h16q9 0 14.5 -6t5.5 -15v-156h115q10 0 15.5 -5.5t5.5 -14.5v-13q0 -10 -5.5 -15.5t-15.5 -5.5h-115v-270q0 -52 17.5 -78.5t56.5 -26.5h51q9 0 14.5 -5.5t5.5 -15.5v-13
q0 -9 -5.5 -14.5t-14.5 -5.5h-55q-69 0 -98 41.5t-29 113.5zM253 586l16 104q3 26 23 26h42q6 0 10 -5t4 -10q0 -9 -4 -17l-37 -98q-5 -10 -10 -14.5t-14 -4.5h-17q-7 0 -11 5.5t-2 13.5z" />
    <glyph glyph-name="Tbar" unicode="&#x166;" horiz-adv-x="527" 
d="M234 20v305h-110q-9 0 -14.5 5.5t-5.5 15.5v14q0 9 5.5 15t14.5 6h110v214h-184q-9 0 -14.5 5.5t-5.5 14.5v14q0 9 5.5 15t14.5 6h426q10 0 15.5 -5.5t5.5 -15.5v-14q0 -9 -6 -14.5t-15 -5.5h-183v-214h108q11 0 16.5 -5.5t5.5 -15.5v-14q0 -10 -6 -15.5t-16 -5.5h-108
v-305q0 -9 -6 -14.5t-16 -5.5h-16q-10 0 -15.5 5.5t-5.5 14.5z" />
    <glyph glyph-name="tbar" unicode="&#x167;" horiz-adv-x="341" 
d="M116 155v127h-72q-10 0 -15.5 6t-5.5 15v13q0 9 5.5 14.5t15.5 5.5h72v93h-72q-10 0 -15.5 5.5t-5.5 15.5v13q0 9 5.5 14.5t15.5 5.5h72v156q0 9 5.5 15t15.5 6h15q10 0 15.5 -6t5.5 -15v-156h115q9 0 14.5 -5.5t5.5 -14.5v-13q0 -10 -5.5 -15.5t-14.5 -5.5h-115v-93h115
q9 0 14.5 -5.5t5.5 -14.5v-13q0 -9 -5.5 -15t-14.5 -6h-115v-123q0 -52 17 -78.5t57 -26.5h50q10 0 15.5 -5.5t5.5 -15.5v-13q0 -9 -5.5 -14.5t-15.5 -5.5h-55q-68 0 -97 41.5t-29 113.5z" />
    <glyph glyph-name="Utilde" unicode="&#x168;" horiz-adv-x="642" 
d="M82 252v377q0 9 5.5 15t14.5 6h17q10 0 15.5 -5.5t5.5 -15.5v-380q0 -102 47.5 -152.5t133.5 -50.5t133.5 50.5t47.5 152.5v380q0 10 6 15.5t15 5.5h17q9 0 14.5 -6t5.5 -15v-377q0 -133 -61 -197t-178 -64q-116 0 -177.5 64.5t-61.5 196.5zM311 711q-23 13 -34 13
q-7 0 -11.5 -3.5t-8.5 -10.5q-8 -13 -18 -13h-18q-7 0 -11 4.5t-4 10.5q0 27 20.5 49.5t47.5 22.5q16 0 28.5 -4.5t28.5 -14.5q2 0 13 -6.5t21 -6.5q8 0 12 3.5t9 10.5q4 8 7.5 11t10.5 3h18q7 0 11 -4.5t4 -10.5q0 -26 -21.5 -49.5t-48.5 -23.5q-15 0 -26.5 4t-29.5 15z
" />
    <glyph glyph-name="utilde" unicode="&#x169;" horiz-adv-x="543" 
d="M71 199v264q0 9 5.5 14.5t14.5 5.5h16q9 0 14.5 -5.5t5.5 -14.5v-260q0 -158 139 -158q67 0 106.5 42t39.5 116v260q0 9 5.5 14.5t14.5 5.5h16q9 0 14.5 -5.5t5.5 -14.5v-443q0 -9 -5.5 -14.5t-14.5 -5.5h-16q-9 0 -14.5 5.5t-5.5 14.5v44q-28 -36 -64 -54.5t-92 -18.5
q-91 0 -138 57.5t-47 150.5zM261 567q-7 4 -15 8.5t-15 4.5q-8 0 -12 -3.5t-9 -10.5q-7 -13 -18 -13h-18q-7 0 -11 4.5t-4 10.5q0 27 19 47t47 20q16 0 27.5 -4.5t25.5 -13.5q7 -5 15 -9t17 -4q7 0 11 3t9 11q4 7 7.5 10.5t10.5 3.5h18q7 0 11 -5t4 -10q0 -27 -20 -48
t-47 -21q-16 0 -26.5 4.5t-26.5 14.5z" />
    <glyph glyph-name="Umacron" unicode="&#x16a;" horiz-adv-x="642" 
d="M82 252v377q0 9 5.5 15t14.5 6h17q10 0 15.5 -5.5t5.5 -15.5v-380q0 -102 47.5 -152.5t133.5 -50.5t133.5 50.5t47.5 152.5v380q0 10 6 15.5t15 5.5h17q9 0 14.5 -6t5.5 -15v-377q0 -133 -61 -197t-178 -64q-116 0 -177.5 64.5t-61.5 196.5zM208 717v21q0 9 5.5 14.5
t15.5 5.5h185q9 0 14.5 -5.5t5.5 -14.5v-21q0 -9 -5.5 -14.5t-14.5 -5.5h-185q-10 0 -15.5 5.5t-5.5 14.5z" />
    <glyph glyph-name="umacron" unicode="&#x16b;" horiz-adv-x="543" 
d="M71 199v264q0 9 5.5 14.5t14.5 5.5h16q9 0 14.5 -5.5t5.5 -14.5v-260q0 -158 139 -158q67 0 106.5 42t39.5 116v260q0 9 5.5 14.5t14.5 5.5h16q9 0 14.5 -5.5t5.5 -14.5v-443q0 -9 -5.5 -14.5t-14.5 -5.5h-16q-9 0 -14.5 5.5t-5.5 14.5v44q-28 -36 -64 -54.5t-92 -18.5
q-91 0 -138 57.5t-47 150.5zM157 598v13q0 10 5.5 15.5t14.5 5.5h185q10 0 15.5 -5.5t5.5 -15.5v-13q0 -9 -5.5 -14.5t-15.5 -5.5h-185q-9 0 -14.5 5.5t-5.5 14.5z" />
    <glyph glyph-name="Ubreve" unicode="&#x16c;" horiz-adv-x="642" 
d="M82 252v377q0 9 5.5 15t14.5 6h17q10 0 15.5 -5.5t5.5 -15.5v-380q0 -102 47.5 -152.5t133.5 -50.5t133.5 50.5t47.5 152.5v380q0 10 6 15.5t15 5.5h17q9 0 14.5 -6t5.5 -15v-377q0 -133 -61 -197t-178 -64q-116 0 -177.5 64.5t-61.5 196.5zM214 795q0 8 5 13t13 5h14
q8 0 13 -5t5 -13q0 -26 13 -43.5t44 -17.5q32 0 45 17.5t13 43.5q0 8 4.5 13t12.5 5h14q9 0 13.5 -5t4.5 -13q0 -46 -24 -77t-83 -31q-58 0 -82.5 31t-24.5 77z" />
    <glyph glyph-name="ubreve" unicode="&#x16d;" horiz-adv-x="543" 
d="M71 199v264q0 9 5.5 14.5t14.5 5.5h16q9 0 14.5 -5.5t5.5 -14.5v-260q0 -158 139 -158q67 0 106.5 42t39.5 116v260q0 9 5.5 14.5t14.5 5.5h16q9 0 14.5 -5.5t5.5 -14.5v-443q0 -9 -5.5 -14.5t-14.5 -5.5h-16q-9 0 -14.5 5.5t-5.5 14.5v44q-28 -36 -64 -54.5t-92 -18.5
q-91 0 -138 57.5t-47 150.5zM168 656q0 7 4.5 12.5t12.5 5.5h14q9 0 13.5 -5.5t4.5 -12.5q0 -61 53 -61t53 61q0 7 4.5 12.5t12.5 5.5h14q9 0 13.5 -5.5t4.5 -12.5q0 -47 -23 -77.5t-79 -30.5t-79 30.5t-23 77.5z" />
    <glyph glyph-name="Uring" unicode="&#x16e;" horiz-adv-x="642" 
d="M82 252v377q0 9 5.5 15t14.5 6h17q10 0 15.5 -5.5t5.5 -15.5v-380q0 -102 47.5 -152.5t133.5 -50.5t133.5 50.5t47.5 152.5v380q0 10 6 15.5t15 5.5h17q9 0 14.5 -6t5.5 -15v-377q0 -133 -61 -197t-178 -64q-116 0 -177.5 64.5t-61.5 196.5zM247 757q0 31 21.5 50.5
t53.5 19.5q31 0 52.5 -19.5t21.5 -50.5t-21.5 -50.5t-52.5 -19.5q-32 0 -53.5 19.5t-21.5 50.5zM350 757q0 12 -8 20t-20 8t-20 -8t-8 -20t8 -20t20 -8t20 8t8 20z" />
    <glyph glyph-name="uring" unicode="&#x16f;" horiz-adv-x="543" 
d="M71 199v264q0 9 5.5 14.5t14.5 5.5h16q9 0 14.5 -5.5t5.5 -14.5v-260q0 -158 139 -158q67 0 106.5 42t39.5 116v260q0 9 5.5 14.5t14.5 5.5h16q9 0 14.5 -5.5t5.5 -14.5v-443q0 -9 -5.5 -14.5t-14.5 -5.5h-16q-9 0 -14.5 5.5t-5.5 14.5v44q-28 -36 -64 -54.5t-92 -18.5
q-91 0 -138 57.5t-47 150.5zM195 618q0 30 21.5 49.5t52.5 19.5q32 0 53.5 -19.5t21.5 -49.5q0 -31 -21.5 -50.5t-53.5 -19.5q-31 0 -52.5 19.5t-21.5 50.5zM297 618q0 12 -8 20t-20 8t-20 -8t-8 -20t8 -20t20 -8t20 8t8 20z" />
    <glyph glyph-name="Uhungarumlaut" unicode="&#x170;" horiz-adv-x="642" 
d="M82 252v377q0 9 5.5 15t14.5 6h17q10 0 15.5 -5.5t5.5 -15.5v-380q0 -102 47.5 -152.5t133.5 -50.5t133.5 50.5t47.5 152.5v380q0 10 6 15.5t15 5.5h17q9 0 14.5 -6t5.5 -15v-377q0 -133 -61 -197t-178 -64q-116 0 -177.5 64.5t-61.5 196.5zM225 712q0 4 5 14l33 74
q5 9 13 13.5t22 4.5h37q8 0 13 -5t5 -13q0 -7 -5 -12l-66 -78q-11 -13 -28 -13h-14q-15 0 -15 15zM363 712q0 4 4 14l34 74q5 9 12.5 13.5t21.5 4.5h37q9 0 14 -5t5 -13q0 -7 -6 -12l-66 -78q-11 -13 -27 -13h-14q-15 0 -15 15z" />
    <glyph glyph-name="uhungarumlaut" unicode="&#x171;" horiz-adv-x="543" 
d="M71 199v264q0 9 5.5 14.5t14.5 5.5h16q9 0 14.5 -5.5t5.5 -14.5v-260q0 -158 139 -158q67 0 106.5 42t39.5 116v260q0 9 5.5 14.5t14.5 5.5h16q9 0 14.5 -5.5t5.5 -14.5v-443q0 -9 -5.5 -14.5t-14.5 -5.5h-16q-9 0 -14.5 5.5t-5.5 14.5v44q-28 -36 -64 -54.5t-92 -18.5
q-91 0 -138 57.5t-47 150.5zM163 568q0 4 5 14l33 74q5 9 13 13.5t21 4.5h33q8 0 13.5 -5t5.5 -13q0 -7 -6 -12l-66 -78q-11 -13 -28 -13h-9q-15 0 -15 15zM296 568q0 4 5 14l33 74q5 9 12.5 13.5t21.5 4.5h33q8 0 13 -5t5 -13q0 -7 -5 -12l-66 -78q-11 -13 -28 -13h-9
q-15 0 -15 15z" />
    <glyph glyph-name="Uogonek" unicode="&#x172;" horiz-adv-x="642" 
d="M257 -76q0 45 14 70q-92 13 -140.5 77t-48.5 181v377q0 9 5.5 15t14.5 6h17q10 0 15.5 -5.5t5.5 -15.5v-380q0 -102 47.5 -152.5t133.5 -50.5t133.5 50.5t47.5 152.5v380q0 10 6 15.5t15 5.5h17q9 0 14.5 -6t5.5 -15v-377q0 -115 -45.5 -178.5t-131.5 -78.5
q-34 -7 -52 -23t-18 -48q0 -35 19.5 -55t51.5 -20h14q9 0 14.5 -6t5.5 -15v-12q0 -9 -5.5 -14.5t-14.5 -5.5h-18q-57 0 -90 34t-33 94z" />
    <glyph glyph-name="uogonek" unicode="&#x173;" horiz-adv-x="543" 
d="M335 -84q0 41 23.5 72t53.5 45v7v24q-28 -36 -64 -54.5t-92 -18.5q-91 0 -138 57.5t-47 150.5v264q0 9 5.5 14.5t14.5 5.5h16q9 0 14.5 -5.5t5.5 -14.5v-260q0 -158 139 -158q67 0 106.5 42t39.5 116v260q0 9 5.5 14.5t14.5 5.5h16q9 0 14.5 -5.5t5.5 -14.5v-443
q0 -13 -15 -20l-2 -2q-31 -14 -45.5 -32.5t-14.5 -49.5q0 -34 14 -50.5t38 -16.5h5q9 0 14.5 -6t5.5 -15v-12q0 -9 -5.5 -14.5t-14.5 -5.5h-9q-44 0 -74 32t-30 88z" />
    <glyph glyph-name="Wcircumflex" unicode="&#x174;" horiz-adv-x="732" 
d="M174 22l-128 599l-1 11q0 7 5.5 12.5t12.5 5.5h20q17 0 20 -14l109 -529l115 378q7 21 29 21h20q22 0 29 -21l115 -378l109 529q3 14 20 14h20q7 0 12.5 -5.5t5.5 -12.5l-1 -11l-128 -599q-2 -12 -8.5 -17t-17.5 -5h-14q-21 0 -28 22l-124 392l-124 -392q-6 -22 -28 -22
h-14q-11 0 -17 5t-9 17zM239 707q0 7 11 19l81 79q9 8 15.5 10.5t14.5 2.5h9q10 0 16 -2.5t14 -10.5l81 -79q11 -12 11 -19q0 -10 -13 -10h-16q-6 0 -12.5 1.5t-10.5 4.5l-74 56l-75 -56q-3 -3 -9.5 -4.5t-13.5 -1.5h-16q-13 0 -13 10z" />
    <glyph glyph-name="wcircumflex" unicode="&#x175;" horiz-adv-x="730" 
d="M171 23l-131 431l-2 10q0 8 5.5 13.5t13.5 5.5h17q9 0 14.5 -4.5t6.5 -9.5l114 -386l122 381q2 8 8.5 13.5t16.5 5.5h18q11 0 17.5 -5.5t7.5 -13.5l122 -381l114 386q1 5 7 9.5t14 4.5h18q7 0 12.5 -5.5t5.5 -13.5l-2 -10l-131 -431q-4 -12 -10.5 -17.5t-18.5 -5.5h-16
q-25 0 -32 23l-117 366l-117 -366q-6 -23 -32 -23h-15q-12 0 -18.5 5.5t-11.5 17.5zM239 563q0 7 11 19l81 79q8 8 14 10.5t16 2.5h9q8 0 14.5 -2.5t15.5 -10.5l81 -79q11 -12 11 -19q0 -10 -13 -10h-16q-7 0 -13.5 1.5t-9.5 4.5l-75 56l-74 -56q-4 -3 -10.5 -4.5
t-12.5 -1.5h-16q-13 0 -13 10z" />
    <glyph glyph-name="Ycircumflex" unicode="&#x176;" horiz-adv-x="587" 
d="M264 20v228l-227 372q-4 7 -4 12q0 7 6 12.5t13 5.5h19q13 0 21 -14l202 -328l201 328q9 14 22 14h18q8 0 13.5 -5.5t5.5 -12.5q0 -5 -4 -12l-227 -372v-228q0 -9 -6 -14.5t-15 -5.5h-18q-9 0 -14.5 5.5t-5.5 14.5zM167 707q0 7 11 19l81 79q9 8 15.5 10.5t14.5 2.5h9
q10 0 16 -2.5t14 -10.5l81 -79q11 -12 11 -19q0 -10 -13 -10h-16q-6 0 -12.5 1.5t-10.5 4.5l-74 56l-75 -56q-3 -3 -9.5 -4.5t-13.5 -1.5h-16q-13 0 -13 10z" />
    <glyph glyph-name="ycircumflex" unicode="&#x177;" horiz-adv-x="494" 
d="M138 -158q0 5 6 19l72 167l-178 418q-5 14 -5 18q0 8 5.5 13.5t12.5 5.5h20q14 0 21 -14l156 -368l160 368q7 14 21 14h19q7 0 12.5 -5.5t5.5 -13.5q0 -4 -5 -18l-264 -609q-7 -14 -21 -14h-19q-7 0 -13 6t-6 13zM122 563q0 7 11 19l81 79q8 8 14 10.5t16 2.5h9
q8 0 14.5 -2.5t15.5 -10.5l81 -79q11 -12 11 -19q0 -10 -13 -10h-16q-7 0 -13.5 1.5t-9.5 4.5l-75 56l-74 -56q-4 -3 -10.5 -4.5t-12.5 -1.5h-16q-13 0 -13 10z" />
    <glyph glyph-name="Ydieresis" unicode="&#x178;" horiz-adv-x="587" 
d="M264 20v228l-227 372q-4 7 -4 12q0 7 6 12.5t13 5.5h19q13 0 21 -14l202 -328l201 328q9 14 22 14h18q8 0 13.5 -5.5t5.5 -12.5q0 -5 -4 -12l-227 -372v-228q0 -9 -6 -14.5t-15 -5.5h-18q-9 0 -14.5 5.5t-5.5 14.5zM170 717v35q0 10 5.5 16t14.5 6h36q9 0 15 -6t6 -16
v-35q0 -9 -6 -14.5t-15 -5.5h-36q-9 0 -14.5 5.5t-5.5 14.5zM340 717v35q0 10 5.5 16t14.5 6h36q9 0 15 -6t6 -16v-35q0 -9 -6 -14.5t-15 -5.5h-36q-9 0 -14.5 5.5t-5.5 14.5z" />
    <glyph glyph-name="Zacute" unicode="&#x179;" horiz-adv-x="538" 
d="M39 21v19q0 16 6.5 25t7.5 10l366 520h-351q-9 0 -15 5.5t-6 14.5v14q0 9 6 15t15 6h400q10 0 16 -5.5t6 -15.5v-19q0 -10 -3.5 -17t-8.5 -16l-365 -521h365q10 0 15.5 -5.5t5.5 -16.5v-14q0 -9 -6 -14.5t-15 -5.5h-419q-9 0 -14.5 6t-5.5 15zM235 712q0 7 4 12l64 77
q9 10 15.5 13.5t19.5 3.5h42q18 0 18 -18q0 -7 -5 -11l-101 -83q-7 -6 -12.5 -7.5t-16.5 -1.5h-14q-14 0 -14 15z" />
    <glyph glyph-name="zacute" unicode="&#x17a;" horiz-adv-x="455" 
d="M39 20v16q0 10 13 29l273 364h-256q-10 0 -15.5 5.5t-5.5 15.5v13q0 9 5.5 14.5t15.5 5.5h312q9 0 14.5 -5.5t5.5 -14.5v-16q0 -10 -13 -29l-271 -364h282q10 0 15.5 -5.5t5.5 -15.5v-13q0 -9 -5.5 -14.5t-15.5 -5.5h-340q-9 0 -14.5 5.5t-5.5 14.5zM198 568q0 7 5 12
l64 77q8 10 14.5 13.5t19.5 3.5h38q18 0 18 -18q0 -7 -5 -11l-101 -83q-7 -6 -13 -7.5t-16 -1.5h-9q-15 0 -15 15z" />
    <glyph glyph-name="Zdotaccent" unicode="&#x17b;" horiz-adv-x="538" 
d="M39 21v19q0 16 6.5 25t7.5 10l366 520h-351q-9 0 -15 5.5t-6 14.5v14q0 9 6 15t15 6h400q10 0 16 -5.5t6 -15.5v-19q0 -10 -3.5 -17t-8.5 -16l-365 -521h365q10 0 15.5 -5.5t5.5 -16.5v-14q0 -9 -6 -14.5t-15 -5.5h-419q-9 0 -14.5 6t-5.5 15zM217 717v45q0 9 5.5 15
t14.5 6h45q9 0 15 -6t6 -15v-45q0 -9 -6 -14.5t-15 -5.5h-45q-9 0 -14.5 5.5t-5.5 14.5z" />
    <glyph glyph-name="zdotaccent" unicode="&#x17c;" horiz-adv-x="455" 
d="M39 20v16q0 10 13 29l273 364h-256q-10 0 -15.5 5.5t-5.5 15.5v13q0 9 5.5 14.5t15.5 5.5h312q9 0 14.5 -5.5t5.5 -14.5v-16q0 -10 -13 -29l-271 -364h282q10 0 15.5 -5.5t5.5 -15.5v-13q0 -9 -5.5 -14.5t-15.5 -5.5h-340q-9 0 -14.5 5.5t-5.5 14.5zM187 594v44
q0 10 5.5 16t14.5 6h45q9 0 15 -6t6 -16v-44q0 -10 -6 -15.5t-15 -5.5h-45q-9 0 -14.5 5.5t-5.5 15.5z" />
    <glyph glyph-name="Zcaron" unicode="&#x17d;" horiz-adv-x="538" 
d="M39 21v19q0 16 6.5 25t7.5 10l366 520h-351q-9 0 -15 5.5t-6 14.5v14q0 9 6 15t15 6h400q10 0 16 -5.5t6 -15.5v-19q0 -10 -3.5 -17t-8.5 -16l-365 -521h365q10 0 15.5 -5.5t5.5 -16.5v-14q0 -9 -6 -14.5t-15 -5.5h-419q-9 0 -14.5 6t-5.5 15zM225 710l-81 79
q-11 11 -11 18q0 11 13 11h16q7 0 13.5 -2t9.5 -5l75 -56l74 56q4 3 10.5 5t12.5 2h16q13 0 13 -11q0 -7 -11 -18l-81 -79q-8 -9 -14 -11t-16 -2h-9q-8 0 -14.5 2t-15.5 11z" />
    <glyph glyph-name="zcaron" unicode="&#x17e;" horiz-adv-x="455" 
d="M39 20v16q0 10 13 29l273 364h-256q-10 0 -15.5 5.5t-5.5 15.5v13q0 9 5.5 14.5t15.5 5.5h312q9 0 14.5 -5.5t5.5 -14.5v-16q0 -10 -13 -29l-271 -364h282q10 0 15.5 -5.5t5.5 -15.5v-13q0 -9 -5.5 -14.5t-15.5 -5.5h-340q-9 0 -14.5 5.5t-5.5 14.5zM195 566l-81 79
q-11 11 -11 18q0 11 13 11h16q6 0 12.5 -2t10.5 -5l74 -56l75 56q3 3 9.5 5t13.5 2h16q13 0 13 -11q0 -7 -11 -18l-81 -79q-9 -9 -15.5 -11t-14.5 -2h-9q-10 0 -16 2t-14 11z" />
    <glyph glyph-name="longs" unicode="&#x17f;" horiz-adv-x="253" 
d="M121 20v409h-83q-9 0 -14.5 5.5t-5.5 15.5v13q0 9 5.5 14.5t14.5 5.5h83v48q0 74 30.5 115t109.5 41h48q10 0 15.5 -5.5t5.5 -14.5v-13q0 -9 -5.5 -14.5t-15.5 -5.5h-48q-51 0 -67.5 -26t-16.5 -77v-511q0 -9 -5.5 -14.5t-14.5 -5.5h-16q-9 0 -14.5 5.5t-5.5 14.5z" />
    <glyph glyph-name="florin" unicode="&#x192;" horiz-adv-x="367" 
d="M23 -189v13q0 10 5.5 15.5t15.5 5.5h7q51 0 67.5 26t16.5 76v482h-83q-9 0 -14.5 5.5t-5.5 15.5v13q0 9 5.5 14.5t14.5 5.5h83v53q0 71 30.5 111t109.5 40h48q10 0 15.5 -5.5t5.5 -14.5v-13q0 -9 -5.5 -14.5t-15.5 -5.5h-48q-47 0 -65.5 -25t-18.5 -78v-48h123
q9 0 14.5 -5.5t5.5 -14.5v-13q0 -10 -5.5 -15.5t-14.5 -5.5h-123v-482q0 -73 -30.5 -114.5t-109.5 -41.5h-7q-10 0 -15.5 5.5t-5.5 14.5z" />
    <glyph glyph-name="AEacute" unicode="&#x1fc;" horiz-adv-x="855" 
d="M5 19q0 5 3 13l340 601q10 17 25 17h402q10 0 15.5 -5.5t5.5 -15.5v-14q0 -9 -6 -14.5t-15 -5.5h-324v-237h303q11 0 16.5 -5.5t5.5 -16.5v-14q0 -9 -6 -14.5t-16 -5.5h-303v-246h331q10 0 16 -5.5t6 -16.5v-14q0 -9 -6 -14.5t-16 -5.5h-370q-9 0 -14.5 5.5t-5.5 14.5
v143h-243l-84 -149q-7 -14 -20 -14h-22q-7 0 -12.5 5.5t-5.5 13.5zM180 218h212v370h-1zM402 712q0 7 4 12l64 77q9 10 15.5 13.5t19.5 3.5h42q18 0 18 -18q0 -7 -5 -11l-101 -83q-7 -6 -12.5 -7.5t-16.5 -1.5h-14q-14 0 -14 15z" />
    <glyph glyph-name="aeacute" unicode="&#x1fd;" horiz-adv-x="818" 
d="M379 568q0 7 5 12l64 77q8 10 14.5 13.5t19.5 3.5h38q18 0 18 -18q0 -7 -5 -11l-101 -83q-7 -6 -13 -7.5t-16 -1.5h-9q-15 0 -15 15zM40 129q0 61 50 101.5t134 51.5l147 21v30q0 51 -31.5 78t-95.5 27q-48 0 -78 -18.5t-39 -44.5q-3 -11 -8.5 -15t-13.5 -4h-13
q-8 0 -14 6t-6 14q0 21 19 48t58 47.5t95 20.5q66 0 106.5 -22t59.5 -59q54 81 161 81q116 0 158 -72t42 -167v-14q0 -10 -6 -15.5t-15 -5.5h-322v-9q2 -57 23 -94t53 -53.5t66 -16.5q39 0 73.5 14.5t56.5 45.5q7 11 12 14t15 3h12q8 0 13.5 -5.5t5.5 -13.5
q0 -17 -22.5 -43.5t-65 -47.5t-100.5 -21q-124 0 -173 102q-54 -102 -191 -102q-48 0 -86 18t-59 49.5t-21 70.5zM714 270v4q0 73 -36 118.5t-107 45.5q-37 0 -68.5 -18t-52 -55t-22.5 -91v-4h286zM371 217v32l-120 -17q-76 -10 -115 -35t-39 -63q0 -43 35.5 -66t83.5 -23
q67 0 111 44.5t44 127.5z" />
    <glyph glyph-name="Oslashacute" unicode="&#x1fe;" horiz-adv-x="634" 
d="M75 206l-35 -13q-7 -3 -12 -3q-8 0 -13 4.5t-5 12.5v18q0 10 4.5 14t16.5 9l41 16q-1 18 -1 53q0 25 1 86q4 127 69 192t177 65q99 0 162 -52t78 -155l35 13q6 3 12 3q8 0 12.5 -4t4.5 -13v-17q0 -10 -4 -14.5t-16 -8.5l-39 -15q2 -52 2 -75q0 -21 -2 -75
q-7 -256 -245 -256q-220 0 -243 215zM502 431q-11 88 -59.5 130.5t-124.5 42.5q-83 0 -133 -50.5t-54 -154.5q-2 -64 -2 -83v-29zM504 252q1 33 1 87v35l-373 -145q8 -93 57.5 -138t128.5 -45q83 0 133 51t53 155zM291 712q0 7 4 12l64 77q9 10 15.5 13.5t19.5 3.5h42
q18 0 18 -18q0 -7 -5 -11l-101 -83q-7 -6 -12.5 -7.5t-16.5 -1.5h-14q-14 0 -14 15z" />
    <glyph glyph-name="oslashacute" unicode="&#x1ff;" horiz-adv-x="552" 
d="M245 568q0 7 5 12l64 77q8 10 14.5 13.5t19.5 3.5h38q18 0 18 -18q0 -7 -5 -11l-101 -83q-7 -6 -13 -7.5t-16 -1.5h-9q-15 0 -15 15zM79 134l-35 -14q-8 -3 -12 -3q-9 0 -13.5 4t-4.5 13v17q0 11 4 15t16 9l37 14q-2 17 -2 52q0 27 1 40q2 88 51.5 149.5t154.5 61.5
q84 0 132 -40.5t65 -106.5l35 14q8 2 12 2q9 0 13.5 -4t4.5 -12v-18q0 -10 -4 -14.5t-17 -8.5l-36 -14q2 -24 2 -52l-1 -35q-3 -89 -52 -150.5t-154 -61.5q-83 0 -131 39.5t-66 103.5zM420 324q-12 59 -51 86.5t-93 27.5q-63 0 -105 -38.5t-45 -118.5l-1 -34l1 -37zM425 203
q1 7 1 30q0 25 -1 35l-293 -114q14 -56 52.5 -82.5t91.5 -26.5q63 0 105 38.5t44 119.5z" />
    <glyph glyph-name="Scommaaccent" unicode="&#x218;" horiz-adv-x="562" 
d="M45 158q0 7 5.5 13t13.5 6h19q16 0 20 -19q7 -45 51.5 -78.5t127.5 -33.5q89 0 132 32.5t43 89.5q0 35 -21 58t-61 40t-120 43q-72 24 -112.5 46t-60 54.5t-19.5 82.5q0 48 25.5 86t74 60t115.5 22q69 0 118 -25t74 -62.5t27 -75.5q0 -7 -5 -13t-14 -6h-19
q-7 0 -13.5 4.5t-7.5 14.5q-5 46 -49 76.5t-111 30.5q-72 0 -114 -28t-42 -84q0 -36 19 -59.5t57 -41t112 -41.5q76 -24 119 -46.5t65 -54t22 -81.5q0 -83 -62.5 -130t-171.5 -47q-72 0 -125.5 23.5t-82 61.5t-29.5 82zM223 -176l16 104q3 26 23 26h42q6 0 10 -5t4 -10
q0 -9 -4 -17l-37 -98q-5 -10 -10 -14.5t-14 -4.5h-17q-7 0 -11 5.5t-2 13.5z" />
    <glyph glyph-name="scommaaccent" unicode="&#x219;" horiz-adv-x="457" 
d="M44 99q0 9 6.5 14t13.5 5h14q7 0 11 -2.5t9 -9.5q21 -29 50 -45t81 -16q57 0 92.5 21.5t35.5 62.5q0 25 -14.5 41t-46.5 27.5t-95 26.5q-83 18 -113 50.5t-30 83.5q0 34 19 64.5t56.5 50t90.5 19.5q56 0 94.5 -19t57.5 -44t19 -41q0 -8 -6 -13t-15 -5h-14q-13 0 -20 12
q-19 28 -42.5 42t-73.5 14q-54 0 -82 -22t-28 -58q0 -23 11.5 -37.5t42 -27t88.5 -25.5q87 -20 122 -52.5t35 -86.5q0 -38 -21 -69.5t-63 -50t-100 -18.5q-61 0 -102.5 20.5t-62 46.5t-20.5 41zM170 -176l16 104q3 26 23 26h42q6 0 10 -5t4 -10q0 -9 -4 -17l-37 -98
q-5 -10 -10 -14.5t-14 -4.5h-17q-7 0 -11 5.5t-2 13.5z" />
    <glyph glyph-name="uni021A" unicode="&#x21a;" horiz-adv-x="517" 
d="M229 20v575h-183q-10 0 -15.5 5.5t-5.5 14.5v14q0 9 5.5 15t15.5 6h425q10 0 15.5 -5.5t5.5 -15.5v-14q0 -9 -6 -14.5t-15 -5.5h-183v-575q0 -9 -6 -14.5t-15 -5.5h-17q-9 0 -15 5.5t-6 14.5zM199 -176l16 104q3 26 23 26h42q6 0 10 -5t4 -10q0 -9 -4 -17l-37 -98
q-5 -10 -10 -14.5t-14 -4.5h-17q-7 0 -11 5.5t-2 13.5z" />
    <glyph glyph-name="uni021B" unicode="&#x21b;" horiz-adv-x="334" 
d="M111 155v274h-72q-9 0 -14.5 5.5t-5.5 15.5v13q0 9 5.5 14.5t14.5 5.5h72v156q0 9 6 15t15 6h16q9 0 14.5 -6t5.5 -15v-156h115q10 0 15.5 -5.5t5.5 -14.5v-13q0 -10 -5.5 -15.5t-15.5 -5.5h-115v-270q0 -52 17.5 -78.5t56.5 -26.5h51q9 0 14.5 -5.5t5.5 -15.5v-13
q0 -9 -5.5 -14.5t-14.5 -5.5h-55q-69 0 -98 41.5t-29 113.5zM88 -176l16 104q3 26 23 26h42q6 0 10 -5t4 -10q0 -9 -4 -17l-37 -98q-5 -10 -10 -14.5t-14 -4.5h-17q-7 0 -11 5.5t-2 13.5z" />
    <glyph glyph-name="uni0237" unicode="&#x237;" horiz-adv-x="250" 
d="M9 -156v13q0 9 5.5 14.5t15.5 5.5h3q52 0 68 26t16 77v449h-78q-9 0 -14.5 5.5t-5.5 15.5v13q0 9 5.5 14.5t14.5 5.5h114q10 0 15.5 -5.5t5.5 -14.5v-483q0 -74 -31 -115.5t-110 -41.5h-3q-10 0 -15.5 6t-5.5 15z" />
    <glyph glyph-name="uni02BC" unicode="&#x2bc;" horiz-adv-x="95" 
d="M0 609l16 104q3 26 23 26h42q6 0 10 -5t4 -10q0 -9 -4 -17l-37 -98q-5 -10 -10 -14.5t-14 -4.5h-17q-7 0 -11 5.5t-2 13.5z" />
    <glyph glyph-name="circumflex" unicode="&#x2c6;" horiz-adv-x="383" 
d="M65 563q0 7 11 19l81 79q8 8 14 10.5t16 2.5h9q8 0 14.5 -2.5t15.5 -10.5l81 -79q11 -12 11 -19q0 -10 -13 -10h-16q-7 0 -13.5 1.5t-9.5 4.5l-75 56l-74 -56q-4 -3 -10.5 -4.5t-12.5 -1.5h-16q-13 0 -13 10z" />
    <glyph glyph-name="caron" unicode="&#x2c7;" horiz-adv-x="383" 
d="M157 566l-81 79q-11 11 -11 18q0 11 13 11h16q6 0 12.5 -2t10.5 -5l74 -56l75 56q3 3 9.5 5t13.5 2h16q13 0 13 -11q0 -7 -11 -18l-81 -79q-9 -9 -15.5 -11t-14.5 -2h-9q-10 0 -16 2t-14 11z" />
    <glyph glyph-name="breve" unicode="&#x2d8;" horiz-adv-x="344" 
d="M70 656q0 7 4.5 12.5t12.5 5.5h14q9 0 13.5 -5.5t4.5 -12.5q0 -61 53 -61t53 61q0 7 4.5 12.5t12.5 5.5h14q9 0 13.5 -5.5t4.5 -12.5q0 -47 -23 -77.5t-79 -30.5t-79 30.5t-23 77.5z" />
    <glyph glyph-name="dotaccent" unicode="&#x2d9;" horiz-adv-x="216" 
d="M65 594v44q0 10 5.5 16t14.5 6h45q9 0 15 -6t6 -16v-44q0 -10 -6 -15.5t-15 -5.5h-45q-9 0 -14.5 5.5t-5.5 15.5z" />
    <glyph glyph-name="ring" unicode="&#x2da;" horiz-adv-x="279" 
d="M65 618q0 30 21.5 49.5t52.5 19.5q32 0 53.5 -19.5t21.5 -49.5q0 -31 -21.5 -50.5t-53.5 -19.5q-31 0 -52.5 19.5t-21.5 50.5zM167 618q0 12 -8 20t-20 8t-20 -8t-8 -20t8 -20t20 -8t20 8t8 20z" />
    <glyph glyph-name="ogonek" unicode="&#x2db;" horiz-adv-x="291" 
d="M65 -76q0 59 33 94t90 35h17q10 0 15.5 -5.5t5.5 -14.5v-13q0 -9 -5.5 -14.5t-15.5 -5.5h-14q-31 0 -50.5 -20.5t-19.5 -55.5t19.5 -55t50.5 -20h14q10 0 15.5 -6t5.5 -15v-12q0 -9 -5.5 -14.5t-15.5 -5.5h-17q-57 0 -90 34t-33 94z" />
    <glyph glyph-name="tilde" unicode="&#x2dc;" horiz-adv-x="352" 
d="M167 567q-7 4 -15 8.5t-15 4.5q-8 0 -12 -3.5t-9 -10.5q-7 -13 -18 -13h-18q-7 0 -11 4.5t-4 10.5q0 27 19 47t47 20q16 0 27.5 -4.5t25.5 -13.5q7 -5 15 -9t17 -4q7 0 11 3t9 11q4 7 7.5 10.5t10.5 3.5h18q7 0 11 -5t4 -10q0 -27 -20 -48t-47 -21q-16 0 -26.5 4.5
t-26.5 14.5z" />
    <glyph glyph-name="hungarumlaut" unicode="&#x2dd;" horiz-adv-x="386" 
d="M65 568q0 4 5 14l33 74q5 9 13 13.5t21 4.5h33q8 0 13.5 -5t5.5 -13q0 -7 -6 -12l-66 -78q-11 -13 -28 -13h-9q-15 0 -15 15zM198 568q0 4 5 14l33 74q5 9 12.5 13.5t21.5 4.5h33q8 0 13 -5t5 -13q0 -7 -5 -12l-66 -78q-11 -13 -28 -13h-9q-15 0 -15 15z" />
    <glyph glyph-name="gravecomb" unicode="&#x300;" 
d="M-118 562l-101 83q-5 4 -5 11q0 18 18 18h38q13 0 19.5 -3.5t14.5 -13.5l64 -77q5 -5 5 -12q0 -15 -15 -15h-9q-10 0 -16 1.5t-13 7.5z" />
    <glyph glyph-name="acutecomb" unicode="&#x301;" 
d="M-224 568q0 7 5 12l64 77q8 10 14.5 13.5t19.5 3.5h38q18 0 18 -18q0 -7 -5 -11l-101 -83q-7 -6 -13 -7.5t-16 -1.5h-9q-15 0 -15 15z" />
    <glyph glyph-name="uni0302" unicode="&#x302;" 
d="M-317 563q0 7 11 19l81 79q8 8 14 10.5t16 2.5h9q8 0 14.5 -2.5t15.5 -10.5l81 -79q11 -12 11 -19q0 -10 -13 -10h-16q-7 0 -13.5 1.5t-9.5 4.5l-75 56l-74 -56q-4 -3 -10.5 -4.5t-12.5 -1.5h-16q-13 0 -13 10z" />
    <glyph glyph-name="tildecomb" unicode="&#x303;" 
d="M-184 567q-7 4 -15 8.5t-15 4.5q-8 0 -12 -3.5t-9 -10.5q-7 -13 -18 -13h-18q-7 0 -11 4.5t-4 10.5q0 27 19 47t47 20q16 0 27.5 -4.5t25.5 -13.5q7 -5 15 -9t17 -4q7 0 11 3t9 11q4 7 7.5 10.5t10.5 3.5h18q7 0 11 -5t4 -10q0 -27 -20 -48t-47 -21q-16 0 -26.5 4.5
t-26.5 14.5z" />
    <glyph glyph-name="uni0304" unicode="&#x304;" 
d="M-291 598v13q0 10 5.5 15.5t15.5 5.5h185q9 0 14.5 -5.5t5.5 -15.5v-13q0 -9 -5.5 -14.5t-14.5 -5.5h-185q-10 0 -15.5 5.5t-5.5 14.5z" />
    <glyph glyph-name="uni0306" unicode="&#x306;" 
d="M-273 656q0 7 4.5 12.5t12.5 5.5h14q9 0 13.5 -5.5t4.5 -12.5q0 -61 53 -61t53 61q0 7 4.5 12.5t12.5 5.5h14q9 0 13.5 -5.5t4.5 -12.5q0 -47 -23 -77.5t-79 -30.5t-79 30.5t-23 77.5z" />
    <glyph glyph-name="uni0307" unicode="&#x307;" 
d="M-150 594v44q0 10 5.5 16t14.5 6h45q9 0 15 -6t6 -16v-44q0 -10 -6 -15.5t-15 -5.5h-45q-9 0 -14.5 5.5t-5.5 15.5z" />
    <glyph glyph-name="uni0308" unicode="&#x308;" 
d="M-284 603v35q0 10 5.5 16t14.5 6h35q10 0 16 -6t6 -16v-35q0 -9 -6 -15t-16 -6h-35q-9 0 -14.5 6t-5.5 15zM-142 603v35q0 10 5.5 16t14.5 6h36q9 0 15 -6t6 -16v-35q0 -9 -6 -15t-15 -6h-36q-9 0 -14.5 6t-5.5 15z" />
    <glyph glyph-name="uni030A" unicode="&#x30a;" 
d="M-213 618q0 30 21.5 49.5t52.5 19.5q32 0 53.5 -19.5t21.5 -49.5q0 -31 -21.5 -50.5t-53.5 -19.5q-31 0 -52.5 19.5t-21.5 50.5zM-111 618q0 12 -8 20t-20 8t-20 -8t-8 -20t8 -20t20 -8t20 8t8 20z" />
    <glyph glyph-name="uni030B" unicode="&#x30b;" 
d="M-321 568q0 4 4 14l34 74q4 9 12 13.5t22 4.5h33q8 0 13 -5t5 -13q0 -7 -5 -12l-66 -78q-12 -13 -28 -13h-10q-14 0 -14 15zM-189 568q0 4 5 14l34 74q4 9 12 13.5t22 4.5h32q9 0 14 -5t5 -13q0 -7 -6 -12l-66 -78q-11 -13 -27 -13h-10q-15 0 -15 15z" />
    <glyph glyph-name="uni030C" unicode="&#x30c;" 
d="M-225 566l-81 79q-11 11 -11 18q0 11 13 11h16q6 0 12.5 -2t10.5 -5l74 -56l75 56q3 3 9.5 5t13.5 2h16q13 0 13 -11q0 -7 -11 -18l-81 -79q-9 -9 -15.5 -11t-14.5 -2h-9q-10 0 -16 2t-14 11z" />
    <glyph glyph-name="uni0326" unicode="&#x326;" 
d="M-159 -176l16 104q3 26 23 26h42q6 0 10 -5t4 -10q0 -9 -4 -17l-37 -98q-5 -10 -10 -14.5t-14 -4.5h-17q-7 0 -11 5.5t-2 13.5z" />
    <glyph glyph-name="uni0327" unicode="&#x327;" 
d="M-230 -164q0 4 3 7l13 12q3 4 8 4q4 0 13 -6t18 -10.5t24 -4.5q17 0 28.5 10.5t11.5 27.5q0 15 -11.5 25t-28.5 10q-13 0 -26.5 -4.5t-17.5 -4.5q-7 0 -12 5l-15 16q-2 3 -2 7q0 5 3 11.5t4 9.5l32 74h54l-39 -79q12 8 36 8q30 0 50 -21.5t20 -55.5q0 -35 -22 -58
t-63 -23q-23 0 -41.5 6.5t-29 15.5t-10.5 18z" />
    <glyph glyph-name="uni0328" unicode="&#x328;" 
d="M-225 -76q0 59 33 94t90 35h17q10 0 15.5 -5.5t5.5 -14.5v-13q0 -9 -5.5 -14.5t-15.5 -5.5h-14q-31 0 -50.5 -20.5t-19.5 -55.5t19.5 -55t50.5 -20h14q10 0 15.5 -6t5.5 -15v-12q0 -9 -5.5 -14.5t-15.5 -5.5h-17q-57 0 -90 34t-33 94z" />
    <glyph glyph-name="uni0335" unicode="&#x335;" 
d="M-445 272v13q0 9 5.5 15t14.5 6h228q9 0 14.5 -6t5.5 -15v-13q0 -9 -5.5 -14.5t-14.5 -5.5h-228q-9 0 -14.5 5.5t-5.5 14.5z" />
    <glyph glyph-name="uni0400" unicode="&#x400;" horiz-adv-x="550" 
d="M87 20v609q0 9 5.5 15t15.5 6h362q10 0 15.5 -5.5t5.5 -15.5v-14q0 -9 -6 -14.5t-15 -5.5h-324v-237h304q10 0 15.5 -5.5t5.5 -16.5v-14q0 -9 -6 -14.5t-15 -5.5h-304v-246h332q10 0 15.5 -5.5t5.5 -16.5v-14q0 -9 -6 -14.5t-15 -5.5h-370q-10 0 -15.5 5.5t-5.5 14.5z
M272 706l-102 83q-4 4 -4 11q0 18 17 18h43q13 0 19.5 -3.5t14.5 -13.5l64 -77q5 -5 5 -12q0 -15 -15 -15h-14q-10 0 -15.5 1.5t-12.5 7.5z" />
    <glyph glyph-name="uni0401" unicode="&#x401;" horiz-adv-x="550" 
d="M87 20v609q0 9 5.5 15t15.5 6h362q10 0 15.5 -5.5t5.5 -15.5v-14q0 -9 -6 -14.5t-15 -5.5h-324v-237h304q10 0 15.5 -5.5t5.5 -16.5v-14q0 -9 -6 -14.5t-15 -5.5h-304v-246h332q10 0 15.5 -5.5t5.5 -16.5v-14q0 -9 -6 -14.5t-15 -5.5h-370q-10 0 -15.5 5.5t-5.5 14.5z
M184 770v35q0 10 5.5 16t14.5 6h35q10 0 16 -6t6 -16v-35q0 -9 -6 -15t-16 -6h-35q-9 0 -14.5 6t-5.5 15zM326 770v35q0 10 5.5 16t14.5 6h36q9 0 15 -6t6 -16v-35q0 -9 -6 -15t-15 -6h-36q-9 0 -14.5 6t-5.5 15z" />
    <glyph glyph-name="uni0402" unicode="&#x402;" horiz-adv-x="639" 
d="M174 20v575h-128q-10 0 -15.5 5.5t-5.5 14.5v14q0 9 5.5 15t15.5 6h397q10 0 15.5 -5.5t5.5 -15.5v-14q0 -9 -6 -14.5t-15 -5.5h-211v-230q19 31 70 45.5t105 14.5q96 0 145.5 -48t49.5 -139v-35q0 -92 -54 -147.5t-168 -55.5h-4q-9 0 -14.5 5.5t-5.5 14.5v15
q0 10 5.5 15.5t14.5 5.5h4q91 0 127 39t36 108v30q0 70 -34 103.5t-110 33.5q-64 0 -115.5 -24.5t-51.5 -87.5v-238q0 -9 -5.5 -14.5t-14.5 -5.5h-17q-9 0 -15 5.5t-6 14.5z" />
    <glyph glyph-name="uni0403" unicode="&#x403;" horiz-adv-x="469" 
d="M87 20v609q0 9 5.5 15t15.5 6h340q10 0 15.5 -5.5t5.5 -15.5v-14q0 -9 -6 -14.5t-15 -5.5h-302v-575q0 -9 -6 -14.5t-16 -5.5h-16q-10 0 -15.5 5.5t-5.5 14.5zM265 712q0 7 4 12l64 77q9 10 15.5 13.5t19.5 3.5h42q18 0 18 -18q0 -7 -5 -11l-101 -83q-7 -6 -12.5 -7.5
t-16.5 -1.5h-14q-14 0 -14 15z" />
    <glyph glyph-name="uni0404" unicode="&#x404;" horiz-adv-x="576" 
d="M60 275l-1 49l1 51q4 149 68 217t171 68q64 0 113.5 -20t79 -56t35.5 -82v-2q0 -8 -5.5 -12.5t-14.5 -4.5h-18q-10 0 -14 4t-7 16q-11 44 -53.5 72.5t-115.5 28.5q-87 0 -133.5 -56.5t-46.5 -172.5v-21h245q9 0 15 -6t6 -15v-13q0 -10 -6 -16t-15 -6h-245v-23
q0 -107 47.5 -168t132.5 -61q73 0 115.5 28.5t53.5 73.5q3 11 7 15t14 4h18q9 0 15 -5t5 -13q-6 -47 -35.5 -82.5t-79 -55.5t-113.5 -20q-107 0 -171 67.5t-68 216.5z" />
    <glyph glyph-name="uni0405" unicode="&#x405;" horiz-adv-x="562" 
d="M45 158q0 7 5.5 13t13.5 6h19q16 0 20 -19q7 -45 51.5 -78.5t127.5 -33.5q89 0 132 32.5t43 89.5q0 35 -21 58t-61 40t-120 43q-72 24 -112.5 46t-60 54.5t-19.5 82.5q0 48 25.5 86t74 60t115.5 22q69 0 118 -25t74 -62.5t27 -75.5q0 -7 -5 -13t-14 -6h-19
q-7 0 -13.5 4.5t-7.5 14.5q-5 46 -49 76.5t-111 30.5q-72 0 -114 -28t-42 -84q0 -36 19 -59.5t57 -41t112 -41.5q76 -24 119 -46.5t65 -54t22 -81.5q0 -83 -62.5 -130t-171.5 -47q-72 0 -125.5 23.5t-82 61.5t-29.5 82z" />
    <glyph glyph-name="uni0406" unicode="&#x406;" horiz-adv-x="233" 
d="M87 20v610q0 9 5.5 14.5t15.5 5.5h17q10 0 15.5 -5.5t5.5 -14.5v-610q0 -9 -5.5 -14.5t-15.5 -5.5h-17q-10 0 -15.5 5.5t-5.5 14.5z" />
    <glyph glyph-name="uni0407" unicode="&#x407;" horiz-adv-x="233" 
d="M87 20v610q0 9 5.5 14.5t15.5 5.5h17q10 0 15.5 -5.5t5.5 -14.5v-610q0 -9 -5.5 -14.5t-15.5 -5.5h-17q-10 0 -15.5 5.5t-5.5 14.5zM8 770v35q0 10 5.5 16t14.5 6h35q10 0 16 -6t6 -16v-35q0 -9 -6 -15t-16 -6h-35q-9 0 -14.5 6t-5.5 15zM150 770v35q0 10 5.5 16t14.5 6
h36q9 0 15 -6t6 -16v-35q0 -9 -6 -15t-15 -6h-36q-9 0 -14.5 6t-5.5 15z" />
    <glyph glyph-name="uni0408" unicode="&#x408;" horiz-adv-x="574" 
d="M42 180q0 10 5 15.5t14 5.5h19q9 0 14 -5.5t6 -14.5q6 -69 52 -102t116 -33q79 0 122.5 52.5t43.5 139.5v357h-343q-9 0 -14.5 5.5t-5.5 14.5v15q0 9 5.5 14.5t14.5 5.5h380q10 0 15.5 -5.5t5.5 -15.5v-392q0 -112 -59 -179t-165 -67q-97 0 -159.5 47.5t-66.5 141.5z" />
    <glyph glyph-name="uni0409" unicode="&#x409;" horiz-adv-x="882" 
d="M19 22v17q0 8 5 14t13 6q65 10 100 92.5t35 273.5v205q0 9 5.5 14.5t14.5 5.5h304q9 0 15 -5.5t6 -14.5v-237h132q94 0 144.5 -49.5t50.5 -144.5q0 -50 -21 -95.5t-65.5 -74.5t-108.5 -29h-171q-9 0 -14.5 5.5t-5.5 14.5v575h-228v-178q0 -147 -21 -237t-63 -132
t-106 -47q-9 -1 -15 5.5t-6 15.5zM640 56q69 0 107.5 39.5t38.5 106.5t-36 101t-110 34h-123v-281h123z" />
    <glyph glyph-name="uni040A" unicode="&#x40a;" horiz-adv-x="909" 
d="M87 20v609q0 9 5.5 15t15.5 6h16q11 0 16.5 -5.5t5.5 -15.5v-271h340v271q0 9 5.5 15t14.5 6h18q9 0 14.5 -5.5t5.5 -14.5v-237h133q94 0 144.5 -49.5t50.5 -144.5q0 -50 -21 -95.5t-65.5 -74.5t-108.5 -29h-171q-9 0 -14.5 5.5t-5.5 14.5v282h-340v-282q0 -9 -6 -14.5
t-16 -5.5h-16q-10 0 -15.5 5.5t-5.5 14.5zM668 56q69 0 107.5 39.5t38.5 106.5t-36 101t-110 34h-124v-281h124z" />
    <glyph glyph-name="uni040B" unicode="&#x40b;" horiz-adv-x="658" 
d="M174 20v575h-128q-10 0 -15.5 5.5t-5.5 14.5v14q0 9 5.5 15t15.5 6h397q10 0 15.5 -5.5t5.5 -15.5v-14q0 -9 -6 -14.5t-15 -5.5h-211v-230q19 31 70 45.5t105 14.5q96 0 145.5 -48t49.5 -139v-218q0 -9 -5.5 -14.5t-14.5 -5.5h-17q-9 0 -15.5 5.5t-6.5 14.5v213
q0 70 -34 103.5t-110 33.5q-64 0 -115.5 -24.5t-51.5 -87.5v-238q0 -9 -5.5 -14.5t-14.5 -5.5h-17q-9 0 -15 5.5t-6 14.5z" />
    <glyph glyph-name="uni040C" unicode="&#x40c;" horiz-adv-x="570" 
d="M529 22q0 -9 -6 -15.5t-16 -6.5h-16q-13 0 -21 12l-195 290h-129v-282q0 -9 -6 -14.5t-16 -5.5h-16q-10 0 -15.5 5.5t-5.5 14.5v609q0 9 5.5 15t15.5 6h16q11 0 16.5 -5.5t5.5 -15.5v-271l125 -1l178 279q10 14 30 14h15q19 0 19 -18q0 -5 -5 -12l-181 -286l200 -301
q2 -3 2 -11zM251 712q0 7 4 12l64 77q9 10 15.5 13.5t19.5 3.5h42q18 0 18 -18q0 -7 -5 -11l-101 -83q-7 -6 -12.5 -7.5t-16.5 -1.5h-14q-14 0 -14 15z" />
    <glyph glyph-name="uni040D" unicode="&#x40d;" horiz-adv-x="674" 
d="M87 21v608q0 10 6 15.5t16 5.5h16q10 0 15.5 -6t5.5 -15v-527l382 537q7 11 19 11h20q9 0 14.5 -6t5.5 -15v-609q0 -9 -5.5 -14.5t-14.5 -5.5h-17q-9 0 -15 5.5t-6 14.5v526l-381 -535q-8 -11 -20 -11h-20q-10 0 -15.5 6t-5.5 15zM310 706l-102 83q-4 4 -4 11q0 18 17 18
h43q13 0 19.5 -3.5t14.5 -13.5l64 -77q5 -5 5 -12q0 -15 -15 -15h-14q-10 0 -15.5 1.5t-12.5 7.5z" />
    <glyph glyph-name="uni040E" unicode="&#x40e;" horiz-adv-x="523" 
d="M523 632q0 -6 -3 -11l-191 -431q-33 -74 -56 -112t-55 -58t-81 -20h-32q-9 0 -14.5 5.5t-5.5 14.5v14q0 10 5.5 16t14.5 6h32q40 0 66.5 27.5t58.5 93.5l-245 444q-3 5 -3 11q0 7 5.5 12.5t13.5 5.5h19q13 0 21 -14l220 -391l171 391q2 7 8 10.5t13 3.5h19q8 0 13.5 -5.5
t5.5 -12.5zM131 795q0 8 5 13t13 5h14q8 0 13 -5t5 -13q0 -61 85 -61q86 0 86 61q0 8 4.5 13t12.5 5h14q9 0 13.5 -5t4.5 -13q0 -46 -30.5 -77t-104.5 -31t-104.5 31t-30.5 77z" />
    <glyph glyph-name="uni040F" unicode="&#x40f;" horiz-adv-x="650" 
d="M295 -110v110h-187q-10 0 -15.5 5.5t-5.5 14.5v610q0 9 5.5 14.5t15.5 5.5h16q10 0 16 -5.5t6 -14.5v-574h358v574q0 9 6 14.5t15 5.5h17q9 0 15 -5.5t6 -14.5v-610q0 -9 -6 -14.5t-15 -5.5h-188v-110q0 -9 -6 -14.5t-15 -5.5h-17q-9 0 -15 5.5t-6 14.5z" />
    <glyph glyph-name="uni0410" unicode="&#x410;" horiz-adv-x="604" 
d="M22 19l2 10l235 603q8 18 27 18h32q19 0 27 -18l235 -603l2 -10q0 -8 -6 -13.5t-13 -5.5h-19q-8 0 -13 4.5t-7 9.5l-58 149h-329l-57 -149q-2 -5 -7 -9.5t-14 -4.5h-18q-8 0 -13.5 5.5t-5.5 13.5zM160 218h284l-142 366z" />
    <glyph glyph-name="uni0411" unicode="&#x411;" horiz-adv-x="587" 
d="M87 20v609q0 9 5.5 15t15.5 6h386q10 0 16 -5.5t6 -15.5v-14q0 -9 -6 -14.5t-16 -5.5h-348v-221h207q92 0 143.5 -50t51.5 -134q0 -45 -21.5 -88.5t-65.5 -72.5t-108 -29h-245q-10 0 -15.5 5.5t-5.5 14.5zM344 56q44 0 77 18t51 49.5t18 68.5q0 59 -37 93t-109 34h-198
v-263h198z" />
    <glyph glyph-name="uni0412" unicode="&#x412;" horiz-adv-x="607" 
d="M87 20v609q0 9 5.5 15t15.5 6h242q92 0 139.5 -47t47.5 -119q0 -55 -24 -90t-58 -51q40 -21 67.5 -62.5t27.5 -96.5q0 -48 -23 -90.5t-66.5 -68t-103.5 -25.5h-249q-10 0 -15.5 5.5t-5.5 14.5zM338 368q69 0 104.5 30t35.5 86q0 55 -35.5 83t-104.5 28h-192v-227h192z
M347 56q68 0 106 35.5t38 92.5q0 58 -38 93t-106 35h-201v-256h201z" />
    <glyph glyph-name="uni0413" unicode="&#x413;" horiz-adv-x="469" 
d="M87 20v609q0 9 5.5 15t15.5 6h340q10 0 15.5 -5.5t5.5 -15.5v-14q0 -9 -6 -14.5t-15 -5.5h-302v-575q0 -9 -6 -14.5t-16 -5.5h-16q-10 0 -15.5 5.5t-5.5 14.5z" />
    <glyph glyph-name="uni0414" unicode="&#x414;" horiz-adv-x="628" 
d="M19 -109v144q0 10 5.5 15.5t14.5 5.5h21q95 0 95 369v205q0 9 5.5 14.5t15.5 5.5h330q11 0 16.5 -5.5t5.5 -15.5v-573h46q9 0 15 -5.5t6 -15.5v-144q0 -9 -6 -14.5t-15 -5.5h-17q-9 0 -14.5 5.5t-5.5 14.5v109h-460v-109q0 -9 -6 -14.5t-15 -5.5h-17q-9 0 -14.5 5.5
t-5.5 14.5zM469 56v539h-255v-178q0 -145 -17 -232t-51 -129h323z" />
    <glyph glyph-name="uni0415" unicode="&#x415;" horiz-adv-x="550" 
d="M87 20v609q0 9 5.5 15t15.5 6h362q10 0 15.5 -5.5t5.5 -15.5v-14q0 -9 -6 -14.5t-15 -5.5h-324v-237h304q10 0 15.5 -5.5t5.5 -16.5v-14q0 -9 -6 -14.5t-15 -5.5h-304v-246h332q10 0 15.5 -5.5t5.5 -16.5v-14q0 -9 -6 -14.5t-15 -5.5h-370q-10 0 -15.5 5.5t-5.5 14.5z
" />
    <glyph glyph-name="uni0416" unicode="&#x416;" horiz-adv-x="889" 
d="M847 22q0 -9 -6 -15.5t-15 -6.5h-16q-14 0 -21 12l-195 290h-120v-282q0 -9 -5.5 -14.5t-15.5 -5.5h-17q-10 0 -15.5 5.5t-5.5 14.5v282h-121l-194 -290q-7 -12 -21 -12h-16q-9 0 -15 6.5t-6 15.5q0 8 2 11l199 301l-181 286q-4 7 -4 12q0 18 18 18h13q21 0 31 -14
l177 -279l118 1v272q0 9 5.5 14.5t15.5 5.5h17q10 0 15.5 -5.5t5.5 -14.5v-272l116 -1l177 279q11 14 31 14h15q18 0 18 -18q0 -5 -4 -12l-181 -286l199 -301q2 -3 2 -11z" />
    <glyph glyph-name="uni0417" unicode="&#x417;" horiz-adv-x="556" 
d="M37 150v1q0 8 5.5 12t14.5 4h15q9 0 15.5 -4t9.5 -17q11 -46 54.5 -73t112.5 -27q47 0 88 16.5t65 46.5t24 70q0 63 -44.5 98t-120.5 35h-66q-9 0 -14.5 5.5t-5.5 15.5v14q0 9 5.5 15t14.5 6h61q68 0 107.5 30t39.5 92q0 51 -43.5 82.5t-106.5 31.5q-67 0 -109.5 -24.5
t-53.5 -76.5q-4 -20 -20 -20h-19q-8 0 -14 5t-6 14q7 74 65 116t157 42q68 0 115 -24.5t70.5 -63t23.5 -82.5q0 -48 -18.5 -86.5t-56.5 -61.5q48 -23 73 -65.5t25 -97.5t-29.5 -98t-83 -66.5t-123.5 -23.5q-100 0 -160 43.5t-67 115.5z" />
    <glyph glyph-name="uni0418" unicode="&#x418;" horiz-adv-x="674" 
d="M87 21v608q0 10 6 15.5t16 5.5h16q10 0 15.5 -6t5.5 -15v-527l382 537q7 11 19 11h20q9 0 14.5 -6t5.5 -15v-609q0 -9 -5.5 -14.5t-14.5 -5.5h-17q-9 0 -15 5.5t-6 14.5v526l-381 -535q-8 -11 -20 -11h-20q-10 0 -15.5 6t-5.5 15z" />
    <glyph glyph-name="uni0419" unicode="&#x419;" horiz-adv-x="674" 
d="M87 21v608q0 10 6 15.5t16 5.5h16q10 0 15.5 -6t5.5 -15v-527l382 537q7 11 19 11h20q9 0 14.5 -6t5.5 -15v-609q0 -9 -5.5 -14.5t-14.5 -5.5h-17q-9 0 -15 5.5t-6 14.5v526l-381 -535q-8 -11 -20 -11h-20q-10 0 -15.5 6t-5.5 15zM197 795q0 8 5 13t13 5h14q8 0 13 -5
t5 -13q0 -61 85 -61q86 0 86 61q0 8 4.5 13t12.5 5h14q9 0 13.5 -5t4.5 -13q0 -46 -30.5 -77t-104.5 -31t-104.5 31t-30.5 77z" />
    <glyph glyph-name="uni041A" unicode="&#x41a;" horiz-adv-x="570" 
d="M529 22q0 -9 -6 -15.5t-16 -6.5h-16q-13 0 -21 12l-195 290h-129v-282q0 -9 -6 -14.5t-16 -5.5h-16q-10 0 -15.5 5.5t-5.5 14.5v609q0 9 5.5 15t15.5 6h16q11 0 16.5 -5.5t5.5 -15.5v-271l125 -1l178 279q10 14 30 14h15q19 0 19 -18q0 -5 -5 -12l-181 -286l200 -301
q2 -3 2 -11z" />
    <glyph glyph-name="uni041B" unicode="&#x41b;" horiz-adv-x="632" 
d="M486 20v575h-256v-178q0 -147 -21 -236.5t-63 -131.5t-106 -48q-9 -1 -15 5.5t-6 15.5v17q0 8 5 14t13 6q65 10 100 92.5t35 273.5v205q0 9 5.5 14.5t14.5 5.5h331q10 0 15.5 -5.5t5.5 -15.5v-609q0 -9 -6 -14.5t-15 -5.5h-17q-9 0 -14.5 5.5t-5.5 14.5z" />
    <glyph glyph-name="uni041C" unicode="&#x41c;" horiz-adv-x="725" 
d="M87 20v609q0 10 6 15.5t16 5.5h23q14 0 19 -12l211 -410l212 410q7 12 20 12h22q10 0 15.5 -5.5t5.5 -15.5v-609q0 -9 -6 -14.5t-15 -5.5h-17q-9 0 -14.5 5.5t-5.5 14.5v504l-178 -349q-8 -19 -28 -19h-21q-20 0 -29 19l-177 349v-504q0 -9 -5.5 -14.5t-15.5 -5.5h-16
q-10 0 -16 5.5t-6 14.5z" />
    <glyph glyph-name="uni041D" unicode="&#x41d;" horiz-adv-x="650" 
d="M87 20v609q0 9 5.5 15t15.5 6h16q11 0 16.5 -5.5t5.5 -15.5v-271h358v271q0 9 6 15t15 6h17q10 0 15.5 -5.5t5.5 -15.5v-609q0 -9 -6 -14.5t-15 -5.5h-17q-9 0 -15 5.5t-6 14.5v282h-358v-282q0 -9 -6 -14.5t-16 -5.5h-16q-10 0 -15.5 5.5t-5.5 14.5z" />
    <glyph glyph-name="uni041E" unicode="&#x41e;" horiz-adv-x="615" 
d="M62 247q-1 28 -1 78t1 78q4 127 69 192t176 65q112 0 177 -65t69 -192q2 -56 2 -78t-2 -78q-7 -256 -246 -256q-238 0 -245 256zM494 252q2 55 2 73t-2 74q-3 104 -53.5 154.5t-133.5 50.5q-82 0 -132.5 -50.5t-53.5 -154.5q-1 -28 -1 -74q0 -45 1 -73q3 -104 53 -155
t133 -51q84 0 134 51t53 155z" />
    <glyph glyph-name="uni041F" unicode="&#x41f;" horiz-adv-x="650" 
d="M87 20v609q0 9 5.5 15t15.5 6h434q10 0 15.5 -5.5t5.5 -15.5v-609q0 -9 -6 -14.5t-15 -5.5h-17q-9 0 -15 5.5t-6 14.5v575h-358v-575q0 -9 -6 -14.5t-16 -5.5h-16q-10 0 -15.5 5.5t-5.5 14.5z" />
    <glyph glyph-name="uni0420" unicode="&#x420;" horiz-adv-x="583" 
d="M87 20v609q0 9 5.5 15t15.5 6h226q99 0 156 -49.5t57 -142.5t-57 -142.5t-156 -49.5h-188v-246q0 -9 -6 -14.5t-16 -5.5h-16q-10 0 -15.5 5.5t-5.5 14.5zM329 321q80 0 120 35t40 102t-40 102t-120 35h-183v-274h183z" />
    <glyph glyph-name="uni0421" unicode="&#x421;" horiz-adv-x="605" 
d="M61 242q-1 26 -1 82q0 58 1 84q5 115 65.5 183.5t180.5 68.5q83 0 138 -30.5t81.5 -76.5t29.5 -94v-2q0 -7 -6 -12t-14 -5h-19q-16 0 -20 20q-18 79 -64.5 111.5t-125.5 32.5q-87 0 -135 -49.5t-52 -151.5q-1 -25 -1 -77t1 -79q4 -102 52 -151.5t135 -49.5
q79 0 125.5 32.5t64.5 111.5q4 20 20 20h19q8 0 14 -5t6 -14q-3 -48 -29.5 -94t-81.5 -76t-138 -30q-120 0 -180.5 68t-65.5 183z" />
    <glyph glyph-name="uni0422" unicode="&#x422;" horiz-adv-x="517" 
d="M229 20v575h-183q-10 0 -15.5 5.5t-5.5 14.5v14q0 9 5.5 15t15.5 6h425q10 0 15.5 -5.5t5.5 -15.5v-14q0 -9 -6 -14.5t-15 -5.5h-183v-575q0 -9 -6 -14.5t-15 -5.5h-17q-9 0 -15 5.5t-6 14.5z" />
    <glyph glyph-name="uni0423" unicode="&#x423;" horiz-adv-x="523" 
d="M523 632q0 -6 -3 -11l-191 -431q-33 -74 -56 -112t-55 -58t-81 -20h-32q-9 0 -14.5 5.5t-5.5 14.5v14q0 10 5.5 16t14.5 6h32q40 0 66.5 27.5t58.5 93.5l-245 444q-3 5 -3 11q0 7 5.5 12.5t13.5 5.5h19q13 0 21 -14l220 -391l171 391q2 7 8 10.5t13 3.5h19q8 0 13.5 -5.5
t5.5 -12.5z" />
    <glyph glyph-name="uni0424" unicode="&#x424;" horiz-adv-x="766" 
d="M354 -9v78q-138 0 -208.5 58t-83.5 180q-1 9 -1 27q0 23 1 36q7 118 83 178t209 60v68q0 10 5.5 15.5t14.5 5.5h18q9 0 14.5 -5.5t5.5 -15.5v-68q133 0 210 -60t82 -178q1 -13 1 -36q0 -18 -1 -27q-11 -122 -82.5 -180t-209.5 -58v-78q0 -10 -5.5 -15.5t-14.5 -5.5h-18
q-9 0 -14.5 5.5t-5.5 15.5zM354 552q-108 0 -166 -45t-67 -142q-1 -8 -1 -23q0 -19 1 -31q5 -96 64.5 -141.5t168.5 -45.5v428zM646 311q1 12 1 31q0 15 -1 23q-11 98 -69 142.5t-165 44.5v-428q224 0 234 187z" />
    <glyph glyph-name="uni0425" unicode="&#x425;" horiz-adv-x="566" 
d="M28 19q0 6 4 12l216 300l-208 289q-4 5 -4 12t5.5 12.5t13.5 5.5h22q12 0 21 -14l187 -260l183 260q10 14 22 14h20q7 0 13 -5.5t6 -12.5t-4 -12l-205 -291l215 -298q4 -6 4 -12q0 -8 -5.5 -13.5t-13.5 -5.5h-22q-11 0 -21 14l-195 268l-194 -268q-9 -14 -21 -14h-21
q-7 0 -12.5 5.5t-5.5 13.5z" />
    <glyph glyph-name="uni0426" unicode="&#x426;" horiz-adv-x="663" 
d="M572 -110v110h-464q-10 0 -15.5 6t-5.5 15v609q0 9 5.5 14.5t15.5 5.5h16q10 0 16 -5.5t6 -14.5v-574h358v574q0 9 6 14.5t15 5.5h17q9 0 15 -5.5t6 -14.5v-574h46q10 0 16 -5.5t6 -15.5v-145q0 -9 -6 -14.5t-16 -5.5h-16q-10 0 -15.5 5.5t-5.5 14.5z" />
    <glyph glyph-name="uni0427" unicode="&#x427;" horiz-adv-x="590" 
d="M444 20v256q-19 -25 -71 -38t-104 -13q-213 0 -213 187v218q0 9 5.5 14.5t14.5 5.5h17q9 0 15 -5.5t6 -14.5v-213q0 -70 38 -103t125 -33q64 0 115.5 24.5t51.5 86.5v238q0 9 5.5 14.5t14.5 5.5h17q10 0 16 -5.5t6 -14.5v-610q0 -9 -6 -14.5t-16 -5.5h-17q-9 0 -14.5 5.5
t-5.5 14.5z" />
    <glyph glyph-name="uni0428" unicode="&#x428;" horiz-adv-x="878" 
d="M87 20v610q0 9 5.5 14.5t15.5 5.5h16q10 0 16 -5.5t6 -14.5v-574h264v574q0 9 5.5 14.5t14.5 5.5h17q9 0 15 -5.5t6 -14.5v-574h264v574q0 9 5.5 14.5t14.5 5.5h17q10 0 16 -5.5t6 -14.5v-610q0 -9 -6 -14.5t-16 -5.5h-661q-10 0 -15.5 5.5t-5.5 14.5z" />
    <glyph glyph-name="uni0429" unicode="&#x429;" horiz-adv-x="891" 
d="M800 -110v110h-692q-10 0 -15.5 5.5t-5.5 14.5v610q0 9 5.5 14.5t15.5 5.5h16q10 0 16 -5.5t6 -14.5v-574h264v574q0 9 5.5 14.5t14.5 5.5h17q9 0 15 -5.5t6 -14.5v-574h264v574q0 9 5.5 14.5t14.5 5.5h17q10 0 16 -5.5t6 -14.5v-574h46q9 0 15 -5.5t6 -15.5v-145
q0 -9 -6 -14.5t-15 -5.5h-17q-9 0 -14.5 5.5t-5.5 14.5z" />
    <glyph glyph-name="uni042A" unicode="&#x42a;" horiz-adv-x="644" 
d="M202 20v575h-156q-10 0 -15.5 5.5t-5.5 14.5v14q0 9 5.5 15t15.5 6h194q9 0 14.5 -5.5t5.5 -14.5v-237h152q93 0 144 -49.5t51 -144.5q0 -50 -21.5 -95.5t-65.5 -74.5t-108 -29h-190q-9 0 -14.5 5.5t-5.5 14.5zM402 56q69 0 107.5 39.5t38.5 106.5t-35.5 101t-110.5 34
h-142v-281h142z" />
    <glyph glyph-name="uni042B" unicode="&#x42b;" horiz-adv-x="716" 
d="M87 20v610q0 9 5.5 14.5t15.5 5.5h16q10 0 16 -5.5t6 -14.5v-237h133q94 0 144.5 -49.5t50.5 -144.5q0 -50 -21.5 -95.5t-65.5 -74.5t-108 -29h-171q-10 0 -15.5 5.5t-5.5 14.5zM570 20v610q0 9 6 14.5t15 5.5h17q10 0 15.5 -5.5t5.5 -14.5v-610q0 -9 -5.5 -14.5
t-15.5 -5.5h-17q-9 0 -15 5.5t-6 14.5zM269 56q69 0 107.5 39.5t38.5 106.5t-35.5 101t-110.5 34h-123v-281h123z" />
    <glyph glyph-name="uni042C" unicode="&#x42c;" horiz-adv-x="539" 
d="M87 20v610q0 9 5.5 14.5t15.5 5.5h16q10 0 16 -5.5t6 -14.5v-237h161q93 0 144 -49.5t51 -144.5q0 -50 -21.5 -95.5t-65.5 -74.5t-108 -29h-199q-10 0 -15.5 5.5t-5.5 14.5zM297 56q69 0 107.5 39.5t38.5 106.5t-35.5 101t-110.5 34h-151v-281h151z" />
    <glyph glyph-name="uni042D" unicode="&#x42d;" horiz-adv-x="576" 
d="M49 149v1q0 8 5.5 12.5t14.5 4.5h18q10 0 14 -4t7 -15q11 -45 53.5 -73.5t115.5 -28.5q85 0 132.5 61t47.5 168v23h-245q-9 0 -15 6t-6 16v13q0 9 6 15t15 6h245v21q0 116 -46.5 172.5t-133.5 56.5q-73 0 -115.5 -28.5t-53.5 -72.5q-3 -12 -7 -16t-14 -4h-18q-9 0 -15 5
t-5 14q6 46 35.5 82t79 56t113.5 20q107 0 171 -68t68 -217q1 -18 1 -51q0 -31 -1 -49q-4 -149 -68 -216.5t-171 -67.5q-64 0 -113.5 20t-79 55.5t-35.5 82.5z" />
    <glyph glyph-name="uni042E" unicode="&#x42e;" horiz-adv-x="849" 
d="M296 247q-2 39 -2 55h-148v-282q0 -9 -6 -14.5t-16 -5.5h-16q-10 0 -15.5 5.5t-5.5 14.5v610q0 9 5.5 14.5t15.5 5.5h16q10 0 16 -5.5t6 -14.5v-272h148q0 14 2 45q4 114 61.5 185.5t184.5 71.5q126 0 183.5 -71.5t61.5 -185.5q2 -56 2 -78t-2 -78q-4 -116 -61 -186
t-184 -70q-128 0 -185 70t-61 186zM728 247q2 56 2 78t-2 78q-3 104 -53 152.5t-133 48.5q-84 0 -133.5 -48.5t-53.5 -152.5q-1 -28 -1 -78t1 -78q4 -104 53 -152.5t134 -48.5q84 0 133.5 48.5t52.5 152.5z" />
    <glyph glyph-name="uni042F" unicode="&#x42f;" horiz-adv-x="596" 
d="M509 630v-610q0 -9 -5.5 -14.5t-14.5 -5.5h-17q-9 0 -15 5.5t-6 14.5v237h-149l-153 -232q-9 -13 -15.5 -19t-20.5 -6h-11q-7 0 -12.5 5.5t-5.5 13.5q0 4 2 10l153 233q-70 12 -107 60.5t-37 128.5q0 51 21 96.5t65.5 74t108.5 28.5h199q9 0 14.5 -5.5t5.5 -14.5z
M451 595h-152q-69 0 -107.5 -39.5t-38.5 -106.5q0 -68 36 -102t110 -34h152v282z" />
    <glyph glyph-name="uni0430" unicode="&#x430;" horiz-adv-x="498" 
d="M39 129q0 61 49.5 100t134.5 51l147 20v33q0 51 -31.5 78t-95.5 27q-47 0 -77 -18.5t-39 -44.5q-3 -11 -8.5 -15t-13.5 -4h-13q-8 0 -14 6t-6 14q0 21 18.5 48t57.5 47.5t95 20.5q100 0 141.5 -47t41.5 -115v-310q0 -9 -5.5 -14.5t-14.5 -5.5h-16q-9 0 -14.5 5.5
t-5.5 14.5v44q-21 -31 -60.5 -52t-104.5 -21q-44 0 -82 18.5t-61 50t-23 69.5zM370 217v32l-120 -17q-76 -10 -115 -35t-39 -63q0 -43 35.5 -66t83.5 -23q67 0 111 44.5t44 127.5z" />
    <glyph glyph-name="uni0431" unicode="&#x431;" horiz-adv-x="527" 
d="M475 225q0 -16 -1 -22q-3 -94 -56.5 -153t-149.5 -59q-97 0 -151 59t-57 153v110q0 134 32 201t91.5 95.5t189.5 64.5q13 2 39 10l5 1q7 0 12 -4.5t7 -10.5l3 -18q1 -2 1 -5q0 -7 -3.5 -11t-10.5 -6l-60 -16q-102 -27 -148.5 -47t-73 -62.5t-28.5 -126.5q23 39 67 62.5
t94 23.5q90 0 142 -59t55 -152q1 -10 1 -28zM418 225q0 14 -1 23q-3 77 -42 120t-98 43q-67 0 -111.5 -43t-47.5 -120l-1 -23l1 -18q3 -78 43.5 -120t106.5 -42t106 42t43 120q1 6 1 18z" />
    <glyph glyph-name="uni0432" unicode="&#x432;" horiz-adv-x="504" 
d="M75 20v443q0 9 5.5 14.5t15.5 5.5h183q75 0 117 -34.5t42 -91.5q0 -42 -15 -64.5t-50 -37.5q36 -13 55.5 -47.5t19.5 -72.5q0 -65 -44 -100t-121 -35h-187q-10 0 -15.5 5.5t-5.5 14.5zM269 270q52 0 82.5 23.5t30.5 63.5q0 39 -29.5 55.5t-83.5 16.5h-137v-159h137z
M276 54q53 0 84 21t31 60q0 42 -28.5 61.5t-86.5 19.5h-144v-162h144z" />
    <glyph glyph-name="uni0433" unicode="&#x433;" horiz-adv-x="388" 
d="M75 20v443q0 9 5.5 14.5t15.5 5.5h263q9 0 14.5 -5.5t5.5 -14.5v-13q0 -10 -5.5 -15.5t-14.5 -5.5h-227v-409q0 -9 -5.5 -14.5t-15.5 -5.5h-15q-10 0 -15.5 5.5t-5.5 14.5z" />
    <glyph glyph-name="uni0434" unicode="&#x434;" horiz-adv-x="535" 
d="M19 -82v115q0 10 5.5 15.5t14.5 5.5h3q86 2 86 294v115q0 9 5.5 14.5t15.5 5.5h267q9 0 15 -5.5t6 -14.5v-407h45q9 0 15 -5.5t6 -15.5v-117q0 -9 -6 -14.5t-15 -5.5h-16q-9 0 -14.5 5.5t-5.5 14.5v82h-371v-82q0 -9 -5.5 -14.5t-14.5 -5.5h-16q-9 0 -14.5 5.5t-5.5 14.5
zM380 56v373h-195v-87q0 -211 -61 -288z" />
    <glyph glyph-name="uni0435" unicode="&#x435;" horiz-adv-x="507" 
d="M51 204l-1 38l1 37q8 96 61 154.5t143 58.5q96 0 150.5 -64t54.5 -175v-14q0 -10 -6 -15.5t-16 -5.5h-330v-9q2 -44 20 -81.5t50.5 -60t76.5 -22.5q51 0 83 20t46 40q8 11 12 14t16 3h14q9 0 14.5 -5t5.5 -12q0 -20 -24.5 -47t-68.5 -47t-98 -20q-89 0 -142.5 58
t-61.5 155zM403 270v4q0 72 -40.5 118t-107.5 46q-68 0 -107.5 -46t-39.5 -118v-4h295z" />
    <glyph glyph-name="uni0436" unicode="&#x436;" horiz-adv-x="696" 
d="M673 13q0 -13 -18 -13h-24q-14 0 -24 13l-147 207h-83v-200q0 -9 -5.5 -14.5t-14.5 -5.5h-16q-9 0 -14.5 5.5t-5.5 14.5v200h-83l-149 -207q-8 -13 -24 -13h-24q-18 0 -18 13q0 5 5 12l162 229l-144 205q-4 6 -4 11q0 13 17 13h19q14 0 24 -14l137 -195h82v189
q0 9 5.5 14.5t14.5 5.5h16q9 0 14.5 -5.5t5.5 -14.5v-189h78l139 195q10 14 24 14h18q9 0 14 -3t5 -10q0 -4 -5 -11l-145 -205l163 -229q5 -5 5 -12z" />
    <glyph glyph-name="uni0437" unicode="&#x437;" horiz-adv-x="457" 
d="M43 122q0 8 5.5 13t13.5 5h16q18 0 22 -19q11 -42 46 -59t92 -17q54 0 89.5 22t35.5 67q0 89 -101 89h-50q-9 0 -15 5.5t-6 14.5v13q0 10 6 15.5t15 5.5h43q90 0 90 71q0 38 -27.5 64t-88.5 26q-59 0 -85 -20t-37 -65q-5 -19 -22 -19h-16q-9 0 -14.5 5t-5.5 13
q0 61 47.5 100.5t132.5 39.5q60 0 99 -20.5t56 -52t17 -61.5q0 -40 -12 -62.5t-43 -39.5q40 -15 57 -46.5t17 -78.5q0 -70 -53.5 -105t-137.5 -35q-64 0 -105.5 21t-61 51t-19.5 59z" />
    <glyph glyph-name="uni0438" unicode="&#x438;" horiz-adv-x="554" 
d="M478 465v-445q0 -9 -5.5 -14.5t-14.5 -5.5h-16q-9 0 -14.5 5.5t-5.5 14.5v368l-286 -374q-11 -14 -25 -14h-17q-8 0 -13.5 5.5t-5.5 13.5v444q0 9 5.5 14.5t15.5 5.5h15q10 0 15.5 -5.5t5.5 -14.5v-368l286 374q10 14 24 14h18q7 0 12.5 -5.5t5.5 -12.5z" />
    <glyph glyph-name="uni0439" unicode="&#x439;" horiz-adv-x="554" 
d="M478 465v-445q0 -9 -5.5 -14.5t-14.5 -5.5h-16q-9 0 -14.5 5.5t-5.5 14.5v368l-286 -374q-11 -14 -25 -14h-17q-8 0 -13.5 5.5t-5.5 13.5v444q0 9 5.5 14.5t15.5 5.5h15q10 0 15.5 -5.5t5.5 -14.5v-368l286 374q10 14 24 14h18q7 0 12.5 -5.5t5.5 -12.5zM146 656
q0 7 5 12.5t13 5.5h14q8 0 13 -5.5t5 -12.5q0 -26 18 -43.5t63 -17.5q44 0 62 17.5t18 43.5q0 7 5 12.5t13 5.5h14q8 0 13 -5.5t5 -12.5q0 -47 -29.5 -77.5t-100.5 -30.5q-72 0 -101.5 30.5t-29.5 77.5z" />
    <glyph glyph-name="uni043A" unicode="&#x43a;" horiz-adv-x="470" 
d="M447 13q0 -13 -18 -13h-24q-14 0 -24 13l-147 205h-102v-198q0 -9 -5.5 -14.5t-15.5 -5.5h-15q-10 0 -15.5 5.5t-5.5 14.5v443q0 9 5.5 14.5t15.5 5.5h15q10 0 15.5 -5.5t5.5 -14.5v-189h99l137 195q10 14 24 14h19q8 0 13 -3t5 -10q0 -4 -4 -11l-144 -206l161 -228
q5 -5 5 -12z" />
    <glyph glyph-name="uni043B" unicode="&#x43b;" horiz-adv-x="521" 
d="M23 21v15q0 9 5 14.5t14 5.5q47 0 72 68.5t25 223.5v115q0 9 5.5 14.5t15.5 5.5h265q10 0 15.5 -5.5t5.5 -14.5v-443q0 -9 -5.5 -14.5t-15.5 -5.5h-15q-10 0 -15.5 5.5t-5.5 14.5v409h-193v-87q0 -342 -151 -342q-10 0 -16 6t-6 15z" />
    <glyph glyph-name="uni043C" unicode="&#x43c;" horiz-adv-x="617" 
d="M542 465v-445q0 -9 -6 -14.5t-15 -5.5h-16q-9 0 -14.5 5.5t-5.5 14.5v348l-136 -263q-7 -13 -13 -19.5t-18 -6.5h-19q-12 0 -18 6.5t-13 19.5l-136 255v-340q0 -9 -5.5 -14.5t-15.5 -5.5h-15q-10 0 -15.5 5.5t-5.5 14.5v445q0 7 5.5 12.5t13.5 5.5h21q14 0 22 -14
l171 -325l172 325q8 14 22 14h21q7 0 13 -5.5t6 -12.5z" />
    <glyph glyph-name="uni043D" unicode="&#x43d;" horiz-adv-x="554" 
d="M75 20v443q0 9 5.5 14.5t15.5 5.5h15q10 0 15.5 -5.5t5.5 -14.5v-189h290v189q0 9 5.5 14.5t14.5 5.5h16q9 0 14.5 -5.5t5.5 -14.5v-443q0 -9 -5.5 -14.5t-14.5 -5.5h-16q-9 0 -14.5 5.5t-5.5 14.5v200h-290v-200q0 -9 -5.5 -14.5t-15.5 -5.5h-15q-10 0 -15.5 5.5
t-5.5 14.5z" />
    <glyph glyph-name="uni043E" unicode="&#x43e;" horiz-adv-x="518" 
d="M53 203l-1 39l1 39q3 93 56.5 152t149.5 59q97 0 150.5 -59t55.5 -152q1 -10 1 -39q0 -30 -1 -39q-2 -94 -55.5 -153t-150.5 -59q-96 0 -149.5 59t-56.5 153zM409 207q1 9 1 35q0 25 -1 34q-3 78 -43.5 120t-106.5 42t-106.5 -42t-42.5 -120l-1 -34l1 -35
q2 -78 42.5 -120t106.5 -42t106.5 42t43.5 120z" />
    <glyph glyph-name="uni043F" unicode="&#x43f;" horiz-adv-x="535" 
d="M75 20v443q0 9 5.5 14.5t15.5 5.5h343q10 0 15.5 -5.5t5.5 -14.5v-443q0 -9 -5.5 -14.5t-15.5 -5.5h-15q-10 0 -15.5 5.5t-5.5 14.5v409h-271v-409q0 -9 -5.5 -14.5t-15.5 -5.5h-15q-10 0 -15.5 5.5t-5.5 14.5z" />
    <glyph glyph-name="uni0440" unicode="&#x440;" horiz-adv-x="540" 
d="M76 -156v619q0 9 5.5 14.5t15.5 5.5h15q10 0 15.5 -5.5t5.5 -14.5v-44q54 73 156 73q100 0 148 -63.5t51 -156.5q1 -9 1 -30q0 -22 -1 -31q-3 -93 -51 -156.5t-148 -63.5q-101 0 -156 73v-220q0 -9 -5.5 -15t-15.5 -6h-15q-10 0 -15.5 6t-5.5 15zM431 216q1 9 1 26
q0 86 -33.5 141t-115.5 55q-73 0 -110 -48.5t-40 -114.5l-1 -36l1 -36q1 -40 17.5 -76t50 -59t82.5 -23q76 0 110.5 47.5t37.5 123.5z" />
    <glyph glyph-name="uni0441" unicode="&#x441;" horiz-adv-x="498" 
d="M53 204l-1 38l1 37q3 101 56 157t149 56q62 0 105 -21.5t64.5 -55.5t23.5 -70q0 -9 -6.5 -15t-14.5 -6h-13q-9 0 -13.5 4.5t-8.5 15.5q-19 51 -52.5 72.5t-84.5 21.5q-67 0 -106.5 -40t-41.5 -124l-1 -32l1 -33q2 -84 41.5 -124t106.5 -40q51 0 84.5 21.5t52.5 72.5
q4 11 8.5 15.5t13.5 4.5h13q8 0 14.5 -6t6.5 -15q-2 -36 -23.5 -70t-64.5 -55.5t-105 -21.5q-96 0 -149 56t-56 157z" />
    <glyph glyph-name="uni0442" unicode="&#x442;" horiz-adv-x="462" 
d="M203 20v409h-170q-10 0 -15.5 5.5t-5.5 15.5v13q0 9 5.5 14.5t15.5 5.5h396q9 0 15 -5.5t6 -14.5v-13q0 -10 -6 -15.5t-15 -5.5h-170v-409q0 -9 -5.5 -14.5t-14.5 -5.5h-16q-9 0 -14.5 5.5t-5.5 14.5z" />
    <glyph glyph-name="uni0443" unicode="&#x443;" horiz-adv-x="491" 
d="M463 464q0 -4 -6 -18l-176 -414l-13 -32q-23 -55 -41 -89.5t-45.5 -61t-63.5 -26.5h-32q-9 0 -14.5 6t-5.5 15v13q0 9 5.5 14.5t14.5 5.5h22q22 0 35.5 9.5t24.5 29.5t30 64l20 48l-180 418q-5 14 -5 18q0 8 5.5 13.5t12.5 5.5h18q15 0 21 -14l159 -370l157 370
q6 14 21 14h17q7 0 13 -5.5t6 -13.5z" />
    <glyph glyph-name="uni0444" unicode="&#x444;" horiz-adv-x="631" 
d="M287 -156v156q-115 0 -172 57.5t-62 154.5l-1 30l1 29q5 97 62 154.5t172 57.5v156q0 9 5.5 15t14.5 6h16q10 0 15.5 -6t5.5 -15v-156q115 0 172 -57.5t62 -154.5q1 -9 1 -29q0 -21 -1 -30q-5 -97 -62 -154.5t-172 -57.5v-156q0 -9 -5.5 -15t-15.5 -6h-16q-9 0 -14.5 6
t-5.5 15zM287 429q-169 0 -177 -162l-1 -25l1 -26q8 -162 177 -162v375zM521 216q1 10 1 26q0 15 -1 25q-8 162 -177 162v-375q169 0 177 162z" />
    <glyph glyph-name="uni0445" unicode="&#x445;" horiz-adv-x="481" 
d="M33 19q0 9 7 18l163 210l-155 199q-7 9 -7 18q0 8 5.5 13.5t12.5 5.5h20q8 0 12.5 -3t10.5 -11l140 -179l139 178q1 1 4.5 5.5t8.5 7t10 2.5h19q7 0 12.5 -5.5t5.5 -13.5q0 -9 -7 -18l-157 -202l163 -207q8 -9 8 -18q0 -8 -5.5 -13.5t-13.5 -5.5h-19q-13 0 -24 14
l-146 188l-147 -188q-7 -7 -11 -10.5t-12 -3.5h-19q-7 0 -12.5 5.5t-5.5 13.5z" />
    <glyph glyph-name="uni0446" unicode="&#x446;" horiz-adv-x="558" 
d="M469 -100v100h-373q-10 0 -15.5 5.5t-5.5 14.5v443q0 9 5.5 14.5t15.5 5.5h15q10 0 15.5 -5.5t5.5 -14.5v-409h271v409q0 9 5.5 14.5t15.5 5.5h15q10 0 15.5 -5.5t5.5 -14.5l-1 -409h46q10 0 15.5 -5.5t5.5 -15.5v-133q0 -10 -5.5 -15.5t-15.5 -5.5h-15q-10 0 -15.5 5.5
t-5.5 15.5z" />
    <glyph glyph-name="uni0447" unicode="&#x447;" horiz-adv-x="490" 
d="M358 20v190q-26 -26 -63 -37.5t-86 -11.5q-167 0 -167 138v164q0 9 5.5 14.5t14.5 5.5h16q9 0 14.5 -5.5t5.5 -14.5v-159q0 -46 28 -67.5t87 -21.5q70 0 107.5 17t37.5 57v174q0 9 5.5 14.5t14.5 5.5h16q9 0 14.5 -5.5t5.5 -14.5v-443q0 -9 -5.5 -14.5t-14.5 -5.5h-16
q-9 0 -14.5 5.5t-5.5 14.5z" />
    <glyph glyph-name="uni0448" unicode="&#x448;" horiz-adv-x="714" 
d="M75 20v443q0 9 5.5 14.5t15.5 5.5h15q10 0 15.5 -5.5t5.5 -14.5v-409h197v409q0 9 5.5 14.5t14.5 5.5h16q9 0 15 -5.5t6 -14.5v-409h196v409q0 9 6 14.5t15 5.5h16q9 0 14.5 -5.5t5.5 -14.5v-443q0 -9 -5.5 -14.5t-14.5 -5.5h-523q-10 0 -15.5 5.5t-5.5 14.5z" />
    <glyph glyph-name="uni0449" unicode="&#x449;" horiz-adv-x="739" 
d="M649 -100v100h-553q-10 0 -15.5 5.5t-5.5 14.5v443q0 9 5.5 14.5t15.5 5.5h15q10 0 15.5 -5.5t5.5 -14.5v-409h197v409q0 9 5.5 14.5t14.5 5.5h16q9 0 15 -5.5t6 -14.5v-409h196v409q0 9 6 14.5t15 5.5h16q9 0 14.5 -5.5t5.5 -14.5v-409h47q9 0 14.5 -5.5t5.5 -15.5v-133
q0 -10 -5.5 -15.5t-14.5 -5.5h-16q-9 0 -15 5.5t-6 15.5z" />
    <glyph glyph-name="uni044A" unicode="&#x44a;" horiz-adv-x="501" 
d="M152 20v409h-119q-10 0 -15.5 5.5t-5.5 15.5v13q0 9 5.5 14.5t15.5 5.5h156q9 0 14.5 -5.5t5.5 -14.5v-142h93q176 0 176 -164q0 -82 -46 -119.5t-144 -37.5h-115q-9 0 -15 5.5t-6 14.5zM296 54q66 0 95.5 23t29.5 80t-29.5 84t-95.5 27h-87v-214h87z" />
    <glyph glyph-name="uni044B" unicode="&#x44b;" horiz-adv-x="612" 
d="M75 20v443q0 9 5.5 14.5t15.5 5.5h15q10 0 15.5 -5.5t5.5 -14.5v-142h102q176 0 176 -164q0 -82 -46 -119.5t-144 -37.5h-124q-10 0 -15.5 5.5t-5.5 14.5zM480 20v443q0 9 5.5 14.5t15.5 5.5h16q9 0 14.5 -5.5t5.5 -14.5v-443q0 -9 -5.5 -14.5t-14.5 -5.5h-16
q-10 0 -15.5 5.5t-5.5 14.5zM229 54q65 0 94.5 23t29.5 80t-29.5 84t-94.5 27h-97v-214h97z" />
    <glyph glyph-name="uni044C" unicode="&#x44c;" horiz-adv-x="442" 
d="M75 20v443q0 9 5.5 14.5t15.5 5.5h15q10 0 15.5 -5.5t5.5 -14.5v-142h111q176 0 176 -164q0 -82 -46 -119.5t-144 -37.5h-133q-10 0 -15.5 5.5t-5.5 14.5zM238 54q66 0 95 23t29 80t-29 84t-95 27h-106v-214h106z" />
    <glyph glyph-name="uni044D" unicode="&#x44d;" horiz-adv-x="498" 
d="M47 138q-1 9 5.5 15t15.5 6h13q9 0 13 -4.5t9 -15.5q19 -51 52.5 -72.5t84.5 -21.5q67 0 106.5 40t41.5 124v6h-198q-10 0 -15.5 5.5t-5.5 14.5v13q0 9 5.5 14.5t15.5 5.5h198v6q-2 84 -41.5 124t-106.5 40q-51 0 -84.5 -21.5t-52.5 -72.5q-5 -11 -9 -15.5t-13 -4.5h-13
q-9 0 -15.5 6t-5.5 15q2 36 23.5 70t64.5 55.5t105 21.5q96 0 149 -56t56 -157q1 -10 1 -37q0 -28 -1 -38q-3 -101 -56 -157t-149 -56q-62 0 -105 21.5t-64.5 55.5t-23.5 70z" />
    <glyph glyph-name="uni044E" unicode="&#x44e;" horiz-adv-x="709" 
d="M657 242q0 -30 -1 -39q-3 -94 -56.5 -153t-149.5 -59q-97 0 -150.5 59t-56.5 153q0 11 -1 17h-110v-200q0 -9 -5.5 -14.5t-15.5 -5.5h-15q-10 0 -15.5 5.5t-5.5 14.5v443q0 9 5.5 14.5t15.5 5.5h15q10 0 15.5 -5.5t5.5 -14.5v-189h111v7q3 93 56.5 152t150.5 59
q96 0 149.5 -59t56.5 -152q1 -10 1 -39zM600 242q0 25 -1 34q-3 78 -43 120t-106 42t-106.5 -42t-43.5 -120l-1 -34l1 -35q3 -78 43.5 -120t106.5 -42t106 42t43 120q1 9 1 35z" />
    <glyph glyph-name="uni044F" unicode="&#x44f;" horiz-adv-x="482" 
d="M407 463v-443q0 -9 -5.5 -14.5t-15.5 -5.5h-15q-10 0 -15.5 5.5t-5.5 14.5v160h-112l-117 -166q-12 -14 -25 -14h-17q-7 0 -13 5.5t-6 13.5q0 10 8 18l108 154q-52 13 -78 51.5t-26 92.5q0 77 44 112.5t137 35.5h133q10 0 15.5 -5.5t5.5 -14.5zM350 429h-106
q-61 0 -88 -21t-27 -73q0 -46 26.5 -73.5t79.5 -27.5h115v195z" />
    <glyph glyph-name="uni0450" unicode="&#x450;" horiz-adv-x="507" 
d="M51 204l-1 38l1 37q8 96 61 154.5t143 58.5q96 0 150.5 -64t54.5 -175v-14q0 -10 -6 -15.5t-16 -5.5h-330v-9q2 -44 20 -81.5t50.5 -60t76.5 -22.5q51 0 83 20t46 40q8 11 12 14t16 3h14q9 0 14.5 -5t5.5 -12q0 -20 -24.5 -47t-68.5 -47t-98 -20q-89 0 -142.5 58
t-61.5 155zM403 270v4q0 72 -40.5 118t-107.5 46q-68 0 -107.5 -46t-39.5 -118v-4h295zM229 562l-101 83q-5 4 -5 11q0 18 18 18h38q13 0 19.5 -3.5t14.5 -13.5l64 -77q5 -5 5 -12q0 -15 -15 -15h-9q-10 0 -16 1.5t-13 7.5z" />
    <glyph glyph-name="uni0451" unicode="&#x451;" horiz-adv-x="507" 
d="M51 204l-1 38l1 37q8 96 61 154.5t143 58.5q96 0 150.5 -64t54.5 -175v-14q0 -10 -6 -15.5t-16 -5.5h-330v-9q2 -44 20 -81.5t50.5 -60t76.5 -22.5q51 0 83 20t46 40q8 11 12 14t16 3h14q9 0 14.5 -5t5.5 -12q0 -20 -24.5 -47t-68.5 -47t-98 -20q-89 0 -142.5 58
t-61.5 155zM403 270v4q0 72 -40.5 118t-107.5 46q-68 0 -107.5 -46t-39.5 -118v-4h295zM150 603v35q0 10 5.5 16t14.5 6h35q10 0 16 -6t6 -16v-35q0 -9 -6 -15t-16 -6h-35q-9 0 -14.5 6t-5.5 15zM292 603v35q0 10 5.5 16t14.5 6h36q9 0 15 -6t6 -16v-35q0 -9 -6 -15t-15 -6
h-36q-9 0 -14.5 6t-5.5 15z" />
    <glyph glyph-name="uni0452" unicode="&#x452;" horiz-adv-x="532" 
d="M229 -156v13q0 9 5.5 14.5t14.5 5.5h4q71 0 107.5 32t48 85t11.5 134v96q0 75 -36.5 117t-105.5 42q-67 0 -107 -42.5t-40 -116.5v-204q0 -9 -5.5 -14.5t-14.5 -5.5h-16q-10 0 -15.5 5.5t-5.5 14.5v483h-54q-9 0 -14.5 5.5t-5.5 14.5v13q0 9 5.5 14.5t14.5 5.5h54v83
q0 9 5.5 15t15.5 6h16q9 0 14.5 -6t5.5 -15v-83h175q9 0 14.5 -5.5t5.5 -14.5v-13q0 -9 -5.5 -14.5t-14.5 -5.5h-175v-140q28 36 63.5 55t92.5 19q91 0 140.5 -58t49.5 -150v-101q0 -144 -49 -224.5t-175 -80.5h-4q-9 0 -14.5 6t-5.5 15z" />
    <glyph glyph-name="uni0453" unicode="&#x453;" horiz-adv-x="388" 
d="M75 20v443q0 9 5.5 14.5t15.5 5.5h263q9 0 14.5 -5.5t5.5 -14.5v-13q0 -10 -5.5 -15.5t-14.5 -5.5h-227v-409q0 -9 -5.5 -14.5t-15.5 -5.5h-15q-10 0 -15.5 5.5t-5.5 14.5zM216 568q0 7 5 12l64 77q8 10 14.5 13.5t19.5 3.5h38q18 0 18 -18q0 -7 -5 -11l-101 -83
q-7 -6 -13 -7.5t-16 -1.5h-9q-15 0 -15 15z" />
    <glyph glyph-name="uni0454" unicode="&#x454;" horiz-adv-x="498" 
d="M53 204l-1 38l1 37q3 101 56 157t149 56q62 0 105 -21.5t64.5 -55.5t23.5 -70q0 -9 -6.5 -15t-14.5 -6h-13q-9 0 -13.5 4.5t-8.5 15.5q-19 51 -52.5 72.5t-84.5 21.5q-67 0 -106.5 -40t-41.5 -124v-6h198q10 0 15.5 -5.5t5.5 -14.5v-13q0 -9 -5.5 -14.5t-15.5 -5.5h-198
v-6q2 -84 41.5 -124t106.5 -40q51 0 84.5 21.5t52.5 72.5q4 11 8.5 15.5t13.5 4.5h13q8 0 14.5 -6t6.5 -15q-2 -36 -23.5 -70t-64.5 -55.5t-105 -21.5q-96 0 -149 56t-56 157z" />
    <glyph glyph-name="uni0455" unicode="&#x455;" horiz-adv-x="457" 
d="M44 99q0 9 6.5 14t13.5 5h14q7 0 11 -2.5t9 -9.5q21 -29 50 -45t81 -16q57 0 92.5 21.5t35.5 62.5q0 25 -14.5 41t-46.5 27.5t-95 26.5q-83 18 -113 50.5t-30 83.5q0 34 19 64.5t56.5 50t90.5 19.5q56 0 94.5 -19t57.5 -44t19 -41q0 -8 -6 -13t-15 -5h-14q-13 0 -20 12
q-19 28 -42.5 42t-73.5 14q-54 0 -82 -22t-28 -58q0 -23 11.5 -37.5t42 -27t88.5 -25.5q87 -20 122 -52.5t35 -86.5q0 -38 -21 -69.5t-63 -50t-100 -18.5q-61 0 -102.5 20.5t-62 46.5t-20.5 41z" />
    <glyph glyph-name="uni0456" unicode="&#x456;" horiz-adv-x="207" 
d="M65 603v35q0 10 5.5 16t14.5 6h36q9 0 15 -6t6 -16v-35q0 -9 -6 -15t-15 -6h-36q-9 0 -14.5 6t-5.5 15zM75 20v443q0 9 5.5 14.5t15.5 5.5h15q10 0 15.5 -5.5t5.5 -14.5v-443q0 -9 -5.5 -14.5t-15.5 -5.5h-15q-10 0 -15.5 5.5t-5.5 14.5z" />
    <glyph glyph-name="uni0457" unicode="&#x457;" horiz-adv-x="207" 
d="M75 20v443q0 9 5.5 14.5t15.5 5.5h15q10 0 15.5 -5.5t5.5 -14.5v-443q0 -9 -5.5 -14.5t-15.5 -5.5h-15q-10 0 -15.5 5.5t-5.5 14.5zM-5 603v35q0 10 5.5 16t14.5 6h35q10 0 16 -6t6 -16v-35q0 -9 -6 -15t-16 -6h-35q-9 0 -14.5 6t-5.5 15zM137 603v35q0 10 5.5 16t14.5 6
h36q9 0 15 -6t6 -16v-35q0 -9 -6 -15t-15 -6h-36q-9 0 -14.5 6t-5.5 15z" />
    <glyph glyph-name="uni0458" unicode="&#x458;" horiz-adv-x="216" 
d="M73 603v35q0 10 6 16t15 6h35q9 0 15 -6t6 -16v-35q0 -9 -6 -15t-15 -6h-35q-9 0 -15 6t-6 15zM-24 -156v13q0 9 5.5 14.5t14.5 5.5h4q51 0 67.5 26t16.5 77v483q0 9 5.5 14.5t14.5 5.5h16q9 0 14.5 -5.5t5.5 -14.5v-483q0 -74 -30.5 -115.5t-109.5 -41.5h-4
q-9 0 -14.5 6t-5.5 15z" />
    <glyph glyph-name="uni0459" unicode="&#x459;" horiz-adv-x="691" 
d="M371 20v409h-167v-87q0 -175 -40.5 -255t-118.5 -86q-10 -1 -16 5.5t-6 15.5v15q0 17 19 20q52 8 79.5 73.5t27.5 217.5v115q0 9 5.5 14.5t14.5 5.5h238q9 0 14.5 -5.5t5.5 -14.5v-142h65q176 0 176 -164q0 -82 -46 -119.5t-144 -37.5h-87q-9 0 -14.5 5.5t-5.5 14.5z
M487 54q66 0 95 23t29 80t-29 84t-95 27h-60v-214h60z" />
    <glyph glyph-name="uni045A" unicode="&#x45a;" horiz-adv-x="705" 
d="M75 20v443q0 9 5.5 14.5t15.5 5.5h15q10 0 15.5 -5.5t5.5 -14.5v-189h253v189q0 9 5.5 14.5t14.5 5.5h16q9 0 14.5 -5.5t5.5 -14.5v-142h65q176 0 176 -164q0 -82 -46 -119.5t-144 -37.5h-87q-9 0 -14.5 5.5t-5.5 14.5v200h-253v-200q0 -9 -5.5 -14.5t-15.5 -5.5h-15
q-10 0 -15.5 5.5t-5.5 14.5zM501 54q66 0 95 23t29 80t-29 84t-95 27h-60v-214h60z" />
    <glyph glyph-name="uni045B" unicode="&#x45b;" horiz-adv-x="548" 
d="M75 20v483h-54q-9 0 -14.5 5.5t-5.5 14.5v13q0 9 5.5 14.5t14.5 5.5h54v83q0 9 5.5 15t15.5 6h15q10 0 15.5 -6t5.5 -15v-83h175q9 0 14.5 -5.5t5.5 -14.5v-13q0 -9 -5.5 -14.5t-14.5 -5.5h-175v-140q28 36 63.5 55t92.5 19q91 0 140.5 -58t49.5 -150v-209q0 -9 -6 -14.5
t-15 -5.5h-16q-9 0 -14.5 5.5t-5.5 14.5v204q0 75 -37 117t-105 42q-67 0 -107 -42.5t-40 -116.5v-204q0 -9 -5.5 -14.5t-15.5 -5.5h-15q-10 0 -15.5 5.5t-5.5 14.5z" />
    <glyph glyph-name="uni045C" unicode="&#x45c;" horiz-adv-x="470" 
d="M447 13q0 -13 -18 -13h-24q-14 0 -24 13l-147 205h-102v-198q0 -9 -5.5 -14.5t-15.5 -5.5h-15q-10 0 -15.5 5.5t-5.5 14.5v443q0 9 5.5 14.5t15.5 5.5h15q10 0 15.5 -5.5t5.5 -14.5v-189h99l137 195q10 14 24 14h19q8 0 13 -3t5 -10q0 -4 -4 -11l-144 -206l161 -228
q5 -5 5 -12zM208 568q0 7 5 12l64 77q8 10 14.5 13.5t19.5 3.5h38q18 0 18 -18q0 -7 -5 -11l-101 -83q-7 -6 -13 -7.5t-16 -1.5h-9q-15 0 -15 15z" />
    <glyph glyph-name="uni045D" unicode="&#x45d;" horiz-adv-x="554" 
d="M478 465v-445q0 -9 -5.5 -14.5t-14.5 -5.5h-16q-9 0 -14.5 5.5t-5.5 14.5v368l-286 -374q-11 -14 -25 -14h-17q-8 0 -13.5 5.5t-5.5 13.5v444q0 9 5.5 14.5t15.5 5.5h15q10 0 15.5 -5.5t5.5 -14.5v-368l286 374q10 14 24 14h18q7 0 12.5 -5.5t5.5 -12.5zM247 562l-101 83
q-5 4 -5 11q0 18 18 18h38q13 0 19.5 -3.5t14.5 -13.5l64 -77q5 -5 5 -12q0 -15 -15 -15h-9q-10 0 -16 1.5t-13 7.5z" />
    <glyph glyph-name="uni045E" unicode="&#x45e;" horiz-adv-x="491" 
d="M463 464q0 -4 -6 -18l-176 -414l-13 -32q-23 -55 -41 -89.5t-45.5 -61t-63.5 -26.5h-32q-9 0 -14.5 6t-5.5 15v13q0 9 5.5 14.5t14.5 5.5h22q22 0 35.5 9.5t24.5 29.5t30 64l20 48l-180 418q-5 14 -5 18q0 8 5.5 13.5t12.5 5.5h18q15 0 21 -14l159 -370l157 370
q6 14 21 14h17q7 0 13 -5.5t6 -13.5zM113 656q0 7 5 12.5t13 5.5h14q8 0 13 -5.5t5 -12.5q0 -26 18 -43.5t63 -17.5q44 0 62 17.5t18 43.5q0 7 5 12.5t13 5.5h14q8 0 13 -5.5t5 -12.5q0 -47 -29.5 -77.5t-100.5 -30.5q-72 0 -101.5 30.5t-29.5 77.5z" />
    <glyph glyph-name="uni045F" unicode="&#x45f;" horiz-adv-x="535" 
d="M239 -100v100h-143q-10 0 -15.5 5.5t-5.5 14.5v443q0 9 5.5 14.5t15.5 5.5h15q10 0 15.5 -5.5t5.5 -14.5v-409h271v409q0 9 5.5 14.5t15.5 5.5h15q10 0 15.5 -5.5t5.5 -14.5v-443q0 -9 -5.5 -14.5t-15.5 -5.5h-144v-100q0 -10 -5.5 -15.5t-14.5 -5.5h-16q-9 0 -14.5 5.5
t-5.5 15.5z" />
    <glyph glyph-name="uni0462" unicode="&#x462;" horiz-adv-x="595" 
d="M557 199q0 -50 -21 -95.5t-65.5 -74.5t-108.5 -29h-198q-10 0 -15.5 5.5t-5.5 14.5v472h-97q-10 0 -15.5 6t-5.5 15v14q0 9 5.5 15t15.5 6h97v82q0 9 5.5 14.5t15.5 5.5h16q10 0 16 -5.5t6 -14.5v-82h185q11 0 16.5 -5.5t5.5 -15.5v-14q0 -9 -6 -15t-16 -6h-185v-99h160
q94 0 144.5 -49.5t50.5 -144.5zM499 202q0 67 -36 101t-110 34h-151v-281h151q69 0 107.5 39.5t38.5 106.5z" />
    <glyph glyph-name="uni0463" unicode="&#x463;" horiz-adv-x="447" 
d="M424 157q0 -82 -46 -119.5t-144 -37.5h-115q-9 0 -15 5.5t-6 14.5v409h-54q-10 0 -15.5 5.5t-5.5 15.5v13q0 9 5.5 14.5t15.5 5.5h54v156q0 9 6 15t15 6h16q9 0 14.5 -6t5.5 -15v-156h135q9 0 14.5 -5.5t5.5 -14.5v-13q0 -10 -5.5 -15.5t-14.5 -5.5h-135v-108h93
q176 0 176 -164zM367 157q0 57 -29.5 84t-95.5 27h-87v-214h87q66 0 95.5 23t29.5 80z" />
    <glyph glyph-name="uni046A" unicode="&#x46a;" horiz-adv-x="791" 
d="M42 22q0 3 2 11l81 216q24 61 60 84.5t96 23.5h48l-218 263q-3 4 -3 12q0 7 5.5 12.5t12.5 5.5h539q8 0 13.5 -5.5t5.5 -12.5q0 -8 -4 -12l-220 -263h50q59 0 95.5 -23.5t59.5 -84.5l82 -216q2 -8 2 -11q0 -9 -6 -15.5t-16 -6.5h-18q-6 0 -11 3.5t-7 8.5l-82 217
q-16 41 -36.5 57t-62.5 16h-85v-282q0 -9 -6 -14.5t-15 -5.5h-17q-9 0 -15 5.5t-6 14.5v282h-85q-42 0 -62.5 -16t-37.5 -57l-82 -217q-1 -5 -6.5 -8.5t-10.5 -3.5h-19q-9 0 -15 6.5t-6 15.5zM396 362l195 233h-388z" />
    <glyph glyph-name="uni046B" unicode="&#x46b;" horiz-adv-x="648" 
d="M0 13q0 7 5 12l111 176q27 42 56.5 57.5t69.5 15.5h16l-144 176q-5 6 -5 14q0 9 5.5 14t12.5 5h390q9 0 14 -5t5 -13q0 -6 -5 -13l-142 -178h17q40 0 69 -15.5t56 -57.5l112 -176q5 -5 5 -12q0 -13 -18 -13h-24q-14 0 -24 13l-96 156q-19 30 -39 40.5t-53 10.5h-42v-200
q0 -9 -5.5 -14.5t-14.5 -5.5h-16q-9 0 -15 5.5t-6 14.5v200h-41q-34 0 -54 -10.5t-38 -40.5l-96 -156q-10 -13 -24 -13h-24q-18 0 -18 13zM324 274l125 155h-250z" />
    <glyph glyph-name="uni0472" unicode="&#x472;" horiz-adv-x="615" 
d="M555 325q0 -22 -2 -78q-7 -256 -246 -256q-238 0 -245 256q-1 28 -1 78t1 78q4 127 69 192t176 65q112 0 177 -65t69 -192q2 -56 2 -78zM121 399q-1 -15 -1 -41h375q0 26 -1 41q-3 104 -53.5 154.5t-133.5 50.5q-82 0 -132.5 -50.5t-53.5 -154.5zM494 252q1 18 1 50h-375
q0 -32 1 -50q3 -104 53 -155t133 -51q84 0 134 51t53 155z" />
    <glyph glyph-name="uni0473" unicode="&#x473;" horiz-adv-x="518" 
d="M466 242q0 -30 -1 -39q-2 -94 -55.5 -153t-150.5 -59q-96 0 -149.5 59t-56.5 153l-1 39l1 39q3 93 56.5 152t149.5 59q97 0 150.5 -59t55.5 -152q1 -10 1 -39zM110 276v-8h299v8q-3 78 -43.5 120t-106.5 42t-106.5 -42t-42.5 -120zM409 207v8h-299v-8q2 -78 42.5 -120
t106.5 -42t106.5 42t43.5 120z" />
    <glyph glyph-name="uni0474" unicode="&#x474;" horiz-adv-x="598" 
d="M252 22l-216 600q-2 5 -2 8q0 8 5.5 14t13.5 6h19q14 0 22 -17l203 -566l133 423q29 92 62 131t87 39h5q14 0 14 -21v-15q0 -8 -5 -14t-11 -6h-3q-22 0 -37 -11.5t-28 -39t-30 -78.5l-143 -453q-8 -22 -32 -22h-26q-23 0 -31 22z" />
    <glyph glyph-name="uni0475" unicode="&#x475;" horiz-adv-x="508" 
d="M203 23l-168 431l-2 10q0 8 6 13.5t13 5.5h20q8 0 13 -4.5t7 -9.5l154 -400l110 304q21 58 49 83.5t79 26.5h4q9 0 14.5 -5.5t5.5 -14.5v-13q0 -10 -5.5 -15.5t-14.5 -5.5q-29 0 -45.5 -15t-29.5 -50l-124 -341q-8 -23 -35 -23h-15q-26 0 -36 23z" />
    <glyph glyph-name="uni0490" unicode="&#x490;" horiz-adv-x="469" 
d="M469 760v-145q0 -9 -6 -14.5t-15 -5.5h-302v-575q0 -9 -6 -14.5t-16 -5.5h-16q-10 0 -15.5 5.5t-5.5 14.5v609q0 9 5.5 15t15.5 6h303v110q0 9 5.5 14.5t14.5 5.5h17q9 0 15 -5.5t6 -14.5z" />
    <glyph glyph-name="uni0491" unicode="&#x491;" horiz-adv-x="388" 
d="M379 583v-133q0 -10 -5.5 -15.5t-14.5 -5.5h-227v-409q0 -9 -5.5 -14.5t-15.5 -5.5h-15q-10 0 -15.5 5.5t-5.5 14.5v443q0 9 5.5 14.5t15.5 5.5h226v100q0 10 6 15.5t15 5.5h16q9 0 14.5 -5.5t5.5 -15.5z" />
    <glyph glyph-name="uni0492" unicode="&#x492;" horiz-adv-x="488" 
d="M469 629v-14q0 -9 -6 -14.5t-15 -5.5h-302v-243h144q9 0 14.5 -5.5t5.5 -14.5v-13q0 -10 -5.5 -15.5t-14.5 -5.5h-144v-278q0 -9 -6 -14.5t-16 -5.5h-16q-10 0 -15.5 5.5t-5.5 14.5v278h-53q-9 0 -14.5 5.5t-5.5 15.5v13q0 9 5.5 14.5t14.5 5.5h53v277q0 9 5.5 15t15.5 6
h340q10 0 15.5 -5.5t5.5 -15.5z" />
    <glyph glyph-name="uni0493" unicode="&#x493;" horiz-adv-x="388" 
d="M379 463v-13q0 -10 -5.5 -15.5t-14.5 -5.5h-227v-161h120q9 0 14.5 -5.5t5.5 -14.5v-13q0 -9 -5.5 -14.5t-14.5 -5.5h-120v-195q0 -9 -5.5 -14.5t-15.5 -5.5h-15q-10 0 -15.5 5.5t-5.5 14.5v195h-51q-9 0 -14.5 5.5t-5.5 14.5v13q0 9 5.5 14.5t14.5 5.5h51v195
q0 9 5.5 14.5t15.5 5.5h263q9 0 14.5 -5.5t5.5 -14.5z" />
    <glyph glyph-name="uni0494" unicode="&#x494;" horiz-adv-x="551" 
d="M514 233v-100q0 -92 -54 -147.5t-168 -55.5h-4q-9 0 -14.5 5.5t-5.5 15.5v15q0 9 5.5 14.5t14.5 5.5h4q91 0 127 39t36 108v96q0 69 -34.5 102.5t-109.5 33.5q-66 0 -115.5 -28.5t-49.5 -102.5v-214q0 -9 -6 -14.5t-16 -5.5h-16q-10 0 -15.5 5.5t-5.5 14.5v609
q0 9 5.5 15t15.5 6h340q10 0 15.5 -5.5t5.5 -15.5v-14q0 -9 -6 -14.5t-15 -5.5h-302v-239q52 65 173 65q95 0 145 -48.5t50 -139.5z" />
    <glyph glyph-name="uni0495" unicode="&#x495;" horiz-adv-x="448" 
d="M429 89v-17q0 -118 -48.5 -183.5t-175.5 -65.5h-3q-10 0 -15.5 6t-5.5 15v13q0 9 5.5 14.5t15.5 5.5h3q72 0 108 25t48 66t12 104v13q0 74 -34.5 116t-98.5 42q-53 0 -80.5 -15t-27.5 -49v-159q0 -9 -5.5 -14.5t-15.5 -5.5h-15q-10 0 -15.5 5.5t-5.5 14.5v443
q0 9 5.5 14.5t15.5 5.5h263q9 0 14.5 -5.5t5.5 -14.5v-13q0 -10 -5.5 -15.5t-14.5 -5.5h-227v-172q22 21 49.5 30.5t67.5 9.5q86 0 133 -58t47 -150z" />
    </font>
</defs>
</svg>
