<svg xmlns="http://www.w3.org/2000/svg" viewBox="0 0 16 2040" enable-background="new 0 0 16 2040"><g fill="#666"><path d="m4 27h3.5c1.5 0 2.5.2 3.2.6s1 1 1 1.9c0 .6-.2 1.1-.5 1.5-.3.4-.8.6-1.4.7v.1c.8.1 1.3.4 1.7.8.4.4.5.9.5 1.6 0 .9-.3 1.6-1 2.1-.7.4-1.6.7-2.8.7h-4.2v-10m2 4.1h1.8c.7 0 1.3-.1 1.6-.3s.5-.6.5-1.1c0-.5-.2-.8-.5-1s-.9-.3-1.7-.3h-1.7v2.7m0 1.4v3.2h1.9c.7 0 1.3-.1 1.7-.4s.6-.7.6-1.2c0-.5-.2-.9-.6-1.2-.4-.3-1-.4-1.7-.4h-1.9"/><path d="m6 50h5v1h-5z"/><path d="m4 59h5v1h-5z"/></g><path fill="none" stroke="#666" stroke-width="1.7" stroke-miterlimit="10" d="m6.5 59.5l2-9"/><path fill="#444" d="m0 421h16v3h-16z"/><g fill="#666"><path d="m11.3 419h1.7l-4.3-10h-1.4l-4.3 10h1.8l1-3h4.5l1 3m-5.1-4l1.8-4 1.8 4h-3.6"/><path d="m11 145c-.1 1.7-.1 3.5-.1 5.2v.6c0 0 0 .6 0 .7-.1.6-.2 1.1-.5 1.6-.5 1-1.6 1.7-2.8 1.7-1.2 0-2.3-.6-2.8-1.6-.3-.5-.5-1.1-.5-1.7 0-.5-.1-1.2-.1-1.3-.1-1.7-.1-3.5-.2-5.2h2c-.1 1.7-.1 3.5-.1 5.2 0 0 0 1 0 1.2 0 .3.1.6.2.9.2.5.8.9 1.4.9.5 0 1.1-.3 1.4-.9.1-.3.2-.6.2-.9 0-.3 0-1.2 0-1.2 0-1.7 0-3.5-.1-5.2h2"/><path d="m3 156h9v1h-9z"/></g><g fill="#757575"><path d="m1 1131h14v1h-14z"/><path d="m1 1134h10v1h-10z"/><path d="m1 1137h14v1h-14z"/><path d="m1 1140h10v1h-10z"/><path d="m1 1107h14v1h-14z"/><path d="m3 1110h10v1h-10z"/><path d="m1 1113h14v1h-14z"/><path d="m3 1116h10v1h-10z"/><path d="m1 1155h14v1h-14z"/><path d="m5 1158h10v1h-10z"/><path d="m1 1161h14v1h-14z"/><path d="m5 1164h10v1h-10z"/><path d="m1 1083h14v1h-14z"/><path d="m1 1086h14v1h-14z"/><path d="m1 1089h14v1h-14z"/><path d="m1 1092h14v1h-14z"/></g><g fill="none" stroke="#727272" stroke-width="1.2" stroke-miterlimit="10"><path d="m8.9 1254.3l.7.7c.8.8.8 2 0 2.8l-3.5 3.5c-.8.8-2 .8-2.8 0l-.7-.7c-.8-.8-.8-2 0-2.8l1.8-1.8"/><path d="m7.5 1257.2l-.7-.7c-.8-.8-.8-2 0-2.8l3.5-3.5c.8-.8 2-.8 2.8 0l.7.7c.8.8.8 2 0 2.8l-1.8 1.8"/></g><g fill="#586d89"><path d="m3 1372v-3h-1v1h-1v1h1v1h-1v1h1 1 1v-1z"/><path d="m4 1375l-1-1h-2v1h2v1h1z"/><path d="m2 1376v1h-1v1h3v-1h-1v-1z"/><path d="m4 1380v-1h-3v1h1v1h1v-1z"/><path d="m1 1382v1h2l1-1v-1h-1v1z"/></g><g fill="#757575"><path d="m6 1370h9v1h-9z"/><path d="m6 1375h9v1h-9z"/><path d="m6 1380h9v1h-9z"/><path d="m6 1322h9v1h-9z"/><path d="m6 1327h9v1h-9z"/><path d="m6 1332h9v1h-9z"/></g><g fill="#586d89"><circle cx="2.5" cy="1322.5" r="1.5"/><circle cx="2.5" cy="1327.5" r="1.5"/><circle cx="2.5" cy="1332.5" r="1.5"/></g><g fill="#757575"><path d="m8 987h7v1h-7z"/><path d="m8 990h7v1h-7z"/><path d="m1 993h14v1h-14z"/><path d="m1 996h14v1h-14z"/></g><g fill="#6b7889"><path d="m1 989h3v1h-3z"/><path d="m4 992v-5l3 2.5z"/></g><g fill="#757575"><path d="m8 1035h7v1h-7z"/><path d="m8 1038h7v1h-7z"/><path d="m1 1041h14v1h-14z"/><path d="m1 1044h14v1h-14z"/></g><g fill="#6b7889"><path transform="matrix(-1 0 0-1 11 2075)" d="m4 1037h3v1h-3z"/><path d="m4 1040v-5l-3 2.5z"/></g><g fill="#757575"><path d="m13.6 1998.3c-.5-.4-1.5-1.1-3.3-1.1-1.1 0-4.3-.1-4.3-.1v-2.1l-5 3 5 3v-2.1c0 0 3.1-.2 4.2-.2 1.4 0 2.2.3 2.6.6.7.5 1.1 1.6 1.2 2.5 0 .8-.2 1.5-.7 2-.6.5-1.4.8-2.3.9v.7c1 0 2.1-.4 2.9-1.1.6-.6 1.1-1.5 1.1-2.3 0-2-.4-2.8-1.4-3.7"/><path d="m2.4 1950.3c.5-.4 1.5-1.1 3.3-1.1 1.1 0 4.3-.1 4.3-.1v-2.1l5 3-5 3v-2.1c0 0-3.1-.2-4.2-.2-1.4 0-2.2.3-2.6.6-.7.5-1.1 1.6-1.2 2.5 0 .8.2 1.5.7 2 .6.5 1.4.8 2.3.9v.7c-1 0-2.1-.4-2.9-1.1-.7-.5-1.1-1.5-1.1-2.3 0-2 .4-2.8 1.4-3.7"/></g></svg>