<svg width="16" height="17" viewBox="0 0 16 17" fill="none" xmlns="http://www.w3.org/2000/svg">
<path d="M3 0.510742H13C13.2761 0.510742 13.5 0.7346 13.5 1.01074V15.0107C13.5 15.2869 13.2761 15.5107 13 15.5107H3C2.72386 15.5107 2.5 15.2869 2.5 15.0107V1.01074C2.5 0.7346 2.72386 0.510742 3 0.510742Z" stroke="currentColor"/>
<path d="M13 0.510742H3C2.72386 0.510742 2.5 0.7346 2.5 1.01074V15.0107C2.5 15.2869 2.72386 15.5107 3 15.5107H13C13.2761 15.5107 13.5 15.2869 13.5 15.0107V1.01074C13.5 0.7346 13.2761 0.510742 13 0.510742Z" stroke="currentColor" stroke-miterlimit="10"/>
<path d="M4.5 5.51074V2.51074H11.5V5.51074H4.5Z" stroke="currentColor"/>
<path d="M11.5 2.51074H4.5V5.51074H11.5V2.51074Z" stroke="currentColor" stroke-miterlimit="10"/>
<mask id="path-5-inside-1_7200_324086" fill="white">
<path d="M6 7.01074H4V8.01074H6V7.01074Z"/>
</mask>
<path d="M4 7.01074V6.01074H3V7.01074H4ZM6 7.01074H7V6.01074H6V7.01074ZM6 8.01074V9.01074H7V8.01074H6ZM4 8.01074H3V9.01074H4V8.01074ZM4 8.01074H6V6.01074H4V8.01074ZM5 7.01074V8.01074H7V7.01074H5ZM6 7.01074H4V9.01074H6V7.01074ZM5 8.01074V7.01074H3V8.01074H5Z" fill="currentColor" mask="url(#path-5-inside-1_7200_324086)"/>
<mask id="path-7-inside-2_7200_324086" fill="white">
<path d="M9 7.01074H7V8.01074H9V7.01074Z"/>
</mask>
<path d="M7 7.01074V6.01074H6V7.01074H7ZM9 7.01074H10V6.01074H9V7.01074ZM9 8.01074V9.01074H10V8.01074H9ZM7 8.01074H6V9.01074H7V8.01074ZM7 8.01074H9V6.01074H7V8.01074ZM8 7.01074V8.01074H10V7.01074H8ZM9 7.01074H7V9.01074H9V7.01074ZM8 8.01074V7.01074H6V8.01074H8Z" fill="currentColor" mask="url(#path-7-inside-2_7200_324086)"/>
<mask id="path-9-inside-3_7200_324086" fill="white">
<path d="M12 7.01074H10V8.01074H12V7.01074Z"/>
</mask>
<path d="M10 7.01074V6.01074H9V7.01074H10ZM12 7.01074H13V6.01074H12V7.01074ZM12 8.01074V9.01074H13V8.01074H12ZM10 8.01074H9V9.01074H10V8.01074ZM10 8.01074H12V6.01074H10V8.01074ZM11 7.01074V8.01074H13V7.01074H11ZM12 7.01074H10V9.01074H12V7.01074ZM11 8.01074V7.01074H9V8.01074H11Z" fill="currentColor" mask="url(#path-9-inside-3_7200_324086)"/>
<mask id="path-11-inside-4_7200_324086" fill="white">
<path d="M6 9.01074H4V10.0107H6V9.01074Z"/>
</mask>
<path d="M4 9.01074V8.01074H3V9.01074H4ZM6 9.01074H7V8.01074H6V9.01074ZM6 10.0107V11.0107H7V10.0107H6ZM4 10.0107H3V11.0107H4V10.0107ZM4 10.0107H6V8.01074H4V10.0107ZM5 9.01074V10.0107H7V9.01074H5ZM6 9.01074H4V11.0107H6V9.01074ZM5 10.0107V9.01074H3V10.0107H5Z" fill="currentColor" mask="url(#path-11-inside-4_7200_324086)"/>
<mask id="path-13-inside-5_7200_324086" fill="white">
<path d="M9 9.01074H7V10.0107H9V9.01074Z"/>
</mask>
<path d="M7 9.01074V8.01074H6V9.01074H7ZM9 9.01074H10V8.01074H9V9.01074ZM9 10.0107V11.0107H10V10.0107H9ZM7 10.0107H6V11.0107H7V10.0107ZM7 10.0107H9V8.01074H7V10.0107ZM8 9.01074V10.0107H10V9.01074H8ZM9 9.01074H7V11.0107H9V9.01074ZM8 10.0107V9.01074H6V10.0107H8Z" fill="currentColor" mask="url(#path-13-inside-5_7200_324086)"/>
<mask id="path-15-inside-6_7200_324086" fill="white">
<path d="M12 9.01074H10V10.0107H12V9.01074Z"/>
</mask>
<path d="M10 9.01074V8.01074H9V9.01074H10ZM12 9.01074H13V8.01074H12V9.01074ZM12 10.0107V11.0107H13V10.0107H12ZM10 10.0107H9V11.0107H10V10.0107ZM10 10.0107H12V8.01074H10V10.0107ZM11 9.01074V10.0107H13V9.01074H11ZM12 9.01074H10V11.0107H12V9.01074ZM11 10.0107V9.01074H9V10.0107H11Z" fill="currentColor" mask="url(#path-15-inside-6_7200_324086)"/>
<mask id="path-17-inside-7_7200_324086" fill="white">
<path d="M6 11.0107H4V12.0107H6V11.0107Z"/>
</mask>
<path d="M4 11.0107V10.0107H3V11.0107H4ZM6 11.0107H7V10.0107H6V11.0107ZM6 12.0107V13.0107H7V12.0107H6ZM4 12.0107H3V13.0107H4V12.0107ZM4 12.0107H6V10.0107H4V12.0107ZM5 11.0107V12.0107H7V11.0107H5ZM6 11.0107H4V13.0107H6V11.0107ZM5 12.0107V11.0107H3V12.0107H5Z" fill="currentColor" mask="url(#path-17-inside-7_7200_324086)"/>
<mask id="path-19-inside-8_7200_324086" fill="white">
<path d="M9 11.0107H7V12.0107H9V11.0107Z"/>
</mask>
<path d="M7 11.0107V10.0107H6V11.0107H7ZM9 11.0107H10V10.0107H9V11.0107ZM9 12.0107V13.0107H10V12.0107H9ZM7 12.0107H6V13.0107H7V12.0107ZM7 12.0107H9V10.0107H7V12.0107ZM8 11.0107V12.0107H10V11.0107H8ZM9 11.0107H7V13.0107H9V11.0107ZM8 12.0107V11.0107H6V12.0107H8Z" fill="currentColor" mask="url(#path-19-inside-8_7200_324086)"/>
<mask id="path-21-inside-9_7200_324086" fill="white">
<path d="M12 11.0107H10V12.0107H12V11.0107Z"/>
</mask>
<path d="M10 11.0107V10.0107H9V11.0107H10ZM12 11.0107H13V10.0107H12V11.0107ZM12 12.0107V13.0107H13V12.0107H12ZM10 12.0107H9V13.0107H10V12.0107ZM10 12.0107H12V10.0107H10V12.0107ZM11 11.0107V12.0107H13V11.0107H11ZM12 11.0107H10V13.0107H12V11.0107ZM11 12.0107V11.0107H9V12.0107H11Z" fill="currentColor" mask="url(#path-21-inside-9_7200_324086)"/>
<mask id="path-23-inside-10_7200_324086" fill="white">
<path d="M6 13.0107H4V14.0107H6V13.0107Z"/>
</mask>
<path d="M4 13.0107V12.0107H3V13.0107H4ZM6 13.0107H7V12.0107H6V13.0107ZM6 14.0107V15.0107H7V14.0107H6ZM4 14.0107H3V15.0107H4V14.0107ZM4 14.0107H6V12.0107H4V14.0107ZM5 13.0107V14.0107H7V13.0107H5ZM6 13.0107H4V15.0107H6V13.0107ZM5 14.0107V13.0107H3V14.0107H5Z" fill="currentColor" mask="url(#path-23-inside-10_7200_324086)"/>
<mask id="path-25-inside-11_7200_324086" fill="white">
<path d="M9 13.0107H7V14.0107H9V13.0107Z"/>
</mask>
<path d="M7 13.0107V12.0107H6V13.0107H7ZM9 13.0107H10V12.0107H9V13.0107ZM9 14.0107V15.0107H10V14.0107H9ZM7 14.0107H6V15.0107H7V14.0107ZM7 14.0107H9V12.0107H7V14.0107ZM8 13.0107V14.0107H10V13.0107H8ZM9 13.0107H7V15.0107H9V13.0107ZM8 14.0107V13.0107H6V14.0107H8Z" fill="currentColor" mask="url(#path-25-inside-11_7200_324086)"/>
<mask id="path-27-inside-12_7200_324086" fill="white">
<path d="M12 13.0107H10V14.0107H12V13.0107Z"/>
</mask>
<path d="M10 13.0107V12.0107H9V13.0107H10ZM12 13.0107H13V12.0107H12V13.0107ZM12 14.0107V15.0107H13V14.0107H12ZM10 14.0107H9V15.0107H10V14.0107ZM10 14.0107H12V12.0107H10V14.0107ZM11 13.0107V14.0107H13V13.0107H11ZM12 13.0107H10V15.0107H12V13.0107ZM11 14.0107V13.0107H9V14.0107H11Z" fill="currentColor" mask="url(#path-27-inside-12_7200_324086)"/>
</svg>
