<svg width="17" height="16" viewBox="0 0 17 16" fill="none" xmlns="http://www.w3.org/2000/svg">
<path d="M8.83195 14.3743C8.70172 14.483 8.5038 14.3904 8.5038 14.2207V12.5268C5.00438 12.5268 2.15771 10.089 2.15771 7.08726C2.15771 4.08557 5.00438 1.64777 8.5038 1.64777C12.0032 1.64777 14.8499 4.08829 14.8499 7.08726C14.833 7.93466 14.6079 8.76488 14.1945 9.50478C13.781 10.2447 13.192 10.8715 12.4792 11.3301L8.83195 14.3743ZM11.2235 6.18068C11.0442 6.18068 10.869 6.23385 10.7199 6.33347C10.5708 6.43308 10.4546 6.57467 10.386 6.74033C10.3174 6.90599 10.2994 7.08827 10.3344 7.26413C10.3694 7.43999 10.4557 7.60153 10.5825 7.72831C10.7093 7.8551 10.8708 7.94145 11.0467 7.97643C11.2225 8.01141 11.4048 7.99345 11.5705 7.92484C11.7361 7.85622 11.8777 7.74002 11.9773 7.59093C12.077 7.44185 12.1301 7.26657 12.1301 7.08726C12.1301 6.84682 12.0346 6.61623 11.8646 6.44621C11.6946 6.2762 11.464 6.18068 11.2235 6.18068ZM8.5038 6.18068C8.32449 6.18068 8.14921 6.23385 8.00012 6.33347C7.85104 6.43308 7.73484 6.57467 7.66622 6.74033C7.5976 6.90599 7.57965 7.08827 7.61463 7.26413C7.64961 7.43999 7.73596 7.60153 7.86274 7.72831C7.98953 7.8551 8.15107 7.94145 8.32693 7.97643C8.50279 8.01141 8.68507 7.99345 8.85073 7.92484C9.01639 7.85622 9.15797 7.74002 9.25759 7.59093C9.35721 7.44185 9.41038 7.26657 9.41038 7.08726C9.41038 6.84682 9.31486 6.61623 9.14485 6.44621C8.97483 6.2762 8.74424 6.18068 8.5038 6.18068ZM5.78405 6.18068C5.60474 6.18068 5.42946 6.23385 5.28038 6.33347C5.13129 6.43308 5.01509 6.57467 4.94647 6.74033C4.87786 6.90599 4.8599 7.08827 4.89488 7.26413C4.92986 7.43999 5.01621 7.60153 5.143 7.72831C5.26978 7.8551 5.43132 7.94145 5.60718 7.97643C5.78304 8.01141 5.96532 7.99345 6.13098 7.92484C6.29664 7.85622 6.43823 7.74002 6.53784 7.59093C6.63746 7.44185 6.69063 7.26657 6.69063 7.08726C6.69063 6.84682 6.59511 6.61623 6.4251 6.44621C6.25508 6.2762 6.02449 6.18068 5.78405 6.18068Z" fill="#FF4013"/>
</svg>
