<svg width="17" height="16" viewBox="0 0 17 16" fill="none" xmlns="http://www.w3.org/2000/svg">
<path d="M2 3.95833C2 3.42906 2.41574 3 2.92857 3H9.39145C9.90428 3 10.32 3.42906 10.32 3.95833V4.92325H7.61218C6.51255 4.92325 5.62113 5.85873 5.62113 7.01271V10.5442L4.44974 11.7853C4.27534 11.9701 3.97162 11.8427 3.97162 11.5847V10.1081H2.92857C2.41574 10.1081 2 9.67904 2 9.14977V3.95833Z" fill="#B87CCF"/>
<path d="M14.0714 5.92463C14.5843 5.92463 15 6.35369 15 6.88296V11.8445C15 12.3737 14.5843 12.8028 14.0714 12.8028H13.0284V14.2119C13.0284 14.467 12.7304 14.5958 12.5543 14.4167L10.9672 12.8028H7.60855C7.09572 12.8028 6.67998 12.3737 6.67998 11.8445V6.88296C6.67998 6.35369 7.09572 5.92463 7.60855 5.92463H14.0714Z" fill="#B87CCF"/>
</svg>
