<svg xmlns="http://www.w3.org/2000/svg" width="16" height="16" viewBox="0 0 16 16">
  <rect width="16" height="16" fill="none"/>
  <g transform="translate(1)" fill="none">
    <path d="M1,1H8V6h5v9H1Z" stroke="none"/>
    <path d="M 2 2 L 2 14 L 12 14 L 12 7 L 7 7 L 7 2 L 2 2 M 1 1 L 8 1 L 8 6 L 13 6 L 13 15 L 1 15 L 1 1 Z" stroke="none" fill="currentColor"/>
  </g>
  <path d="M2.979,3.258h2" transform="translate(2.021 2.242)" fill="none" stroke="currentColor" stroke-width="1"/>
  <path d="M2.979,3.258h2" transform="translate(2.021 4.242)" fill="none" stroke="currentColor" stroke-width="1"/>
  <path d="M2.979,3.258h6" transform="translate(2.021 6.242)" fill="none" stroke="currentColor" stroke-width="1"/>
  <path d="M8.5.366l5.118,5.151" transform="translate(0 1)" fill="none" stroke="currentColor" stroke-width="1"/>
  <path d="M2.979,3.258h6" transform="translate(2.021 8.242)" fill="none" stroke="currentColor" stroke-width="1"/>
</svg>
