<svg width="16" height="16" viewBox="0 0 16 16" fill="none" xmlns="http://www.w3.org/2000/svg">
	<path fill-rule="evenodd" clip-rule="evenodd" d="M13.5007 14.3232H4.50699C4.28553 14.3232 4.07315 14.2353 3.91655 14.0787L1.60081 11.7629L1.59908 11.7612C1.42811 11.5915 1.29234 11.3897 1.19958 11.1674C1.10651 10.9443 1.05859 10.705 1.05859 10.4632C1.05859 10.2215 1.10651 9.9822 1.19958 9.75911C1.29234 9.53677 1.42811 9.33496 1.59909 9.16527L8.66527 2.09909C8.83496 1.92811 9.03677 1.79234 9.25911 1.69958C9.4822 1.60651 9.72152 1.55859 9.96324 1.55859C10.205 1.55859 10.4443 1.60651 10.6674 1.69958C10.8895 1.79226 11.0912 1.92788 11.2608 2.09865L14.0966 4.92819C14.4358 5.27364 14.6258 5.73847 14.6258 6.22261C14.6258 6.70675 14.4357 7.17155 14.0965 7.517L14.0909 7.52273L11.0703 10.5404C11.0346 10.6021 10.9903 10.6602 10.9375 10.713C10.8845 10.766 10.8262 10.8104 10.7642 10.8462L8.95546 12.6532H13.5007C13.9619 12.6532 14.3357 13.0271 14.3357 13.4882C14.3357 13.9494 13.9619 14.3232 13.5007 14.3232ZM9.14595 10.1023L6.08486 7.04123L2.77567 10.3504C2.76076 10.3652 2.74891 10.3827 2.74083 10.4021C2.73275 10.4215 2.72859 10.4423 2.72859 10.4632C2.72859 10.4842 2.73275 10.505 2.74083 10.5244C2.74891 10.5437 2.76075 10.5613 2.77566 10.5761L2.77868 10.579L4.85286 12.6532H6.5926L9.14595 10.1023Z" fill="currentColor"/>
</svg>
