<svg width="13" height="13" viewBox="0 0 13 13" fill="none" xmlns="http://www.w3.org/2000/svg">
<path d="M3.11098 5.73096C3.09593 5.88804 2.96559 6.01038 2.80779 6.01038H0.483686C0.308377 6.01038 0.169745 5.86033 0.193726 5.68667C0.508424 3.40772 2.14282 1.54105 4.31542 0.854966C4.5745 0.773149 4.76806 1.06791 4.62351 1.29796C3.78208 2.63714 3.2621 4.15365 3.11098 5.73096Z" fill="#22AC14"/>
<path d="M4.38996 6.01038C4.21544 6.01038 4.07737 5.86205 4.09614 5.68855C4.27926 3.99585 4.9146 2.15663 5.93416 0.785959C6.04664 0.634756 6.26977 0.634757 6.38224 0.785959C7.40181 2.15663 8.03714 3.99585 8.22026 5.68855C8.23903 5.86205 8.10096 6.01038 7.92645 6.01038H4.38996Z" fill="#22AC14"/>
<path d="M12.1227 5.68667C12.1467 5.86033 12.008 6.01038 11.8327 6.01038H9.50862C9.35082 6.01038 9.22047 5.88804 9.20542 5.73096C9.05431 4.15365 8.53433 2.63714 7.6929 1.29796C7.54835 1.0679 7.74191 0.773149 8.00099 0.854966C10.1736 1.54105 11.808 3.40772 12.1227 5.68667Z" fill="#22AC14"/>
<path d="M8.00099 12.1254C7.74191 12.2072 7.54835 11.9125 7.6929 11.6824C8.53433 10.3432 9.05431 8.82674 9.20542 7.24942C9.22047 7.09234 9.35082 6.97 9.50862 6.97H11.8327C12.008 6.97 12.1467 7.12005 12.1227 7.29371C11.808 9.57266 10.1736 11.4393 8.00099 12.1254Z" fill="#22AC14"/>
<path d="M7.92645 6.97C8.10096 6.97 8.23903 7.11832 8.22028 7.29182C8.03718 8.98646 7.4018 10.8412 6.38214 12.214C6.26977 12.3652 6.04664 12.3652 5.93427 12.214C4.9146 10.8412 4.27922 8.98646 4.09612 7.29182C4.07738 7.11832 4.21544 6.97 4.38996 6.97H7.92645Z" fill="#22AC14"/>
<path d="M0.193726 7.29371C0.169746 7.12005 0.308378 6.97 0.483687 6.97H2.80779C2.96559 6.97 3.09593 7.09234 3.11098 7.24942C3.2621 8.82674 3.78208 10.3432 4.62351 11.6824C4.76805 11.9125 4.5745 12.2072 4.31541 12.1254C2.14282 11.4393 0.508424 9.57266 0.193726 7.29371Z" fill="#22AC14"/>
</svg>
