<svg width="16" height="16" viewBox="0 0 16 16" fill="none" xmlns="http://www.w3.org/2000/svg">
	<path fill-rule="evenodd" clip-rule="evenodd" d="M1.50098 2.40039H1.00098V2.90039V9.15482V9.65482H1.50098H2.97269V10.8012V11.9362L3.81015 11.1702L5.61012 9.52376L5.67865 9.46108V11.7134V12.2134H6.17865H10.2909L12.2153 13.7505L13.0273 14.3991V13.3598V12.2134H14.499H14.999V11.7134V5.45894V4.95894H14.499H6.17865H5.67865V5.45894V8.65482H5.27265H3.47269H2.00098V3.40039H9.05379V4.92922H10.0538V2.90039V2.40039H9.55379H1.50098ZM3.97269 9.66628V9.65482H3.98521L3.97269 9.66628ZM12.0273 12.3205V12.2134H11.8932L12.0273 12.3205ZM13.999 11.2134V5.95894H6.67865V11.2134H10.4661H12.5273H13.999Z" fill="currentColor"/>
</svg>
