<svg width="17" height="16" viewBox="0 0 17 16" fill="none" xmlns="http://www.w3.org/2000/svg">
<path d="M13.3634 13C13.1851 13.31 13.2641 13.56 12.9651 13.7323C12.6661 13.905 12.3217 14 11.9634 14H5.03672C4.67872 14 4.33472 13.905 4.03539 13.7327C3.73605 13.5603 3.81505 13.31 3.63672 13L6.19339 10H10.8067L13.3634 13Z" fill="#1E88E5"/>
<path d="M9.65415 2.33298C10.0118 2.33231 10.3555 2.09431 10.6545 2.26698C10.9535 2.43998 11.2078 2.69031 11.3868 3.00064L14.8502 8.99931C15.0292 9.30931 15.1192 9.65498 15.1195 9.99998C15.1198 10.3456 14.6972 10.691 14.5175 11.0003L10.8085 9.99864L8.50049 6.00098L9.65415 2.33298Z" fill="#FBC02D"/>
<path d="M15.12 10C15.12 10.3467 15.03 10.69 14.85 11L13.6266 13.1167C13.45 13.3767 13.2233 13.5833 12.9633 13.7333L10.8066 10H15.12Z" fill="#E53935"/>
<path d="M2.48237 11.0003C2.30304 10.691 1.88037 10.3457 1.88037 10.0003C1.8807 9.65499 1.97037 9.30933 2.1497 8.99899L5.61304 3.00033C5.79204 2.69033 6.04637 2.43966 6.34504 2.26699C6.64404 2.09399 6.98804 2.33199 7.3457 2.33266L8.4987 6.00233L6.19137 9.99866L2.48237 11.0003Z" fill="#4CAF50"/>
<path d="M6.19322 10L4.03655 13.7333C3.77655 13.5833 3.54988 13.3767 3.37322 13.1167L2.14988 11C1.96988 10.69 1.87988 10.3467 1.87988 10H6.19322Z" fill="#1565C0"/>
<path d="M10.6533 2.26667L8.49993 6L6.34326 2.26667C6.60326 2.11667 6.89659 2.02333 7.20993 2.00333L9.65326 2C10.0133 2 10.3566 2.09333 10.6533 2.26667Z" fill="#2E7D32"/>
</svg>
