<svg width="17" height="17" viewBox="0 0 17 17" fill="none" xmlns="http://www.w3.org/2000/svg">
<path d="M8.68359 11.7374L10.4026 13.1699L8.68359 14.6024V11.7374Z" fill="currentColor" stroke="currentColor"/>
<path d="M8.68359 4.6024L6.96462 3.16992L8.68359 1.73744V4.6024Z" fill="currentColor" stroke="currentColor"/>
<path d="M8.68359 3.16998C10.0097 3.16998 11.2815 3.69672 12.2191 4.6344C13.1568 5.57208 13.6836 6.8439 13.6836 8.16998C13.6848 8.83522 13.5526 9.49391 13.295 10.1072C13.0374 10.7206 12.6595 11.2761 12.1836 11.741" stroke="currentColor" stroke-miterlimit="10"/>
<path d="M8.6836 13.1699C7.35752 13.1699 6.08576 12.6431 5.14807 11.7054C4.21039 10.7678 3.6836 9.496 3.6836 8.16992C3.6828 7.50488 3.81511 6.84639 4.07273 6.23328C4.33034 5.62016 4.70804 5.0648 5.1836 4.59991" stroke="currentColor" stroke-miterlimit="10"/>
</svg>
