<svg width="17" height="16" viewBox="0 0 17 16" fill="none" xmlns="http://www.w3.org/2000/svg">
<path d="M8.50015 1.00451C7.58969 0.971226 6.68191 1.1224 5.83146 1.44894C4.981 1.77548 4.20545 2.27063 3.5515 2.90458C2.89754 3.53853 2.37871 4.29818 2.02623 5.13778C1.67374 5.97739 1.4949 6.87959 1.50047 7.79009C1.48924 8.73454 1.67927 9.67057 2.05792 10.536C2.43657 11.4014 2.99518 12.1763 3.69662 12.8093C3.75372 12.8598 3.79958 12.9216 3.83124 12.9909C3.86289 13.0602 3.87962 13.1354 3.88036 13.2116L3.91536 14.4532C3.91748 14.5454 3.94235 14.6356 3.98774 14.7158C4.03313 14.7961 4.09765 14.8638 4.17557 14.9132C4.25348 14.9625 4.34238 14.9918 4.43436 14.9985C4.52634 15.0052 4.61856 14.9891 4.70282 14.9517L6.09401 14.3396C6.21259 14.2875 6.34558 14.2783 6.47024 14.3133C7.13174 14.4938 7.81444 14.585 8.50015 14.5844C9.4106 14.6177 10.3184 14.4665 11.1688 14.14C12.0193 13.8134 12.7948 13.3183 13.4488 12.6843C14.1028 12.0504 14.6216 11.2907 14.9741 10.4511C15.3266 9.61153 15.5054 8.70933 15.4998 7.79883C15.5063 6.88767 15.3282 5.98463 14.9762 5.14411C14.6241 4.3036 14.1055 3.543 13.4514 2.90817C12.7974 2.27333 12.0216 1.77738 11.1706 1.45022C10.3197 1.12305 9.41128 0.97144 8.50015 1.00451Z" fill="url(#paint0_radial_14146_6474)" stroke="white"/>
<path d="M4.1552 9.68628L6.28136 6.59491C6.45957 6.35677 6.72278 6.19657 7.01616 6.14767C7.30954 6.09877 7.61048 6.16494 7.85628 6.33241L9.54846 7.49003C9.62585 7.54273 9.71731 7.57092 9.81095 7.57092C9.90458 7.57092 9.99604 7.54273 10.0734 7.49003L12.3536 5.89928C12.6616 5.68403 13.0588 6.02353 12.8514 6.32191L10.7174 9.41328C10.5395 9.65178 10.2762 9.81226 9.98271 9.86119C9.6892 9.91011 9.38815 9.84368 9.14248 9.67578L7.4503 8.51816C7.37291 8.46545 7.28145 8.43727 7.18782 8.43727C7.09418 8.43727 7.00272 8.46545 6.92533 8.51816L4.64518 10.1098C4.34682 10.3128 3.94871 9.98466 4.1552 9.68628Z" fill="white"/>
<defs>
<radialGradient id="paint0_radial_14146_6474" cx="0" cy="0" r="1" gradientUnits="userSpaceOnUse" gradientTransform="translate(1.67629 0.280024) rotate(70.8507) scale(32.2739 14.6548)">
<stop stop-color="#0077FF"/>
<stop offset="0.61" stop-color="#8A1FE6"/>
<stop offset="0.935" stop-color="#F1255B"/>
<stop offset="1" stop-color="#FF1800"/>
</radialGradient>
</defs>
</svg>
