<svg width="17" height="16" viewBox="0 0 17 16" fill="none" xmlns="http://www.w3.org/2000/svg">
<path d="M8.93731 5.63404C10.065 5.63404 10.9791 4.70427 10.9791 3.55735C10.9791 2.41042 10.065 1.48065 8.93731 1.48065C7.80966 1.48065 6.89551 2.41042 6.89551 3.55735C6.89551 4.70427 7.80966 5.63404 8.93731 5.63404Z" fill="#7B83EB"/>
<path opacity="0.1" d="M8.79169 4.00232H6.94238L6.95157 4.0437L6.95245 4.04726L6.96207 4.08553C7.09644 4.60379 7.42247 5.04923 7.87207 5.32882C8.32166 5.60841 8.86008 5.70055 9.37488 5.58598V4.59547C9.37441 4.4383 9.31282 4.2877 9.20355 4.17657C9.09429 4.06543 8.94622 4.00279 8.79169 4.00232Z" fill="black"/>
<path opacity="0.2" d="M8.35452 4.44733H7.09277C7.25837 4.80243 7.51964 5.10244 7.84622 5.31252C8.1728 5.52259 8.55129 5.63409 8.9377 5.63407V5.04048C8.93724 4.88331 8.87565 4.73271 8.76638 4.62157C8.65712 4.51044 8.50905 4.4478 8.35452 4.44733Z" fill="black"/>
<path d="M13.5312 5.78224C14.3769 5.78224 15.0625 5.08496 15.0625 4.22483C15.0625 3.3647 14.3769 2.66742 13.5312 2.66742C12.6856 2.66742 12 3.3647 12 4.22483C12 5.08496 12.6856 5.78224 13.5312 5.78224Z" fill="#5059C9"/>
<path d="M14.8436 6.22723H11.4044C11.3301 6.22723 11.2589 6.25724 11.2064 6.31064C11.1539 6.36405 11.1244 6.43649 11.1244 6.51202V10.1208C11.1149 10.643 11.2822 11.1528 11.5981 11.5646C11.9141 11.9765 12.3596 12.2654 12.86 12.383C13.1787 12.451 13.5083 12.4459 13.8248 12.368C14.1413 12.2901 14.4368 12.1414 14.6897 11.9327C14.9425 11.724 15.1465 11.4606 15.2866 11.1616C15.4268 10.8626 15.4996 10.5356 15.4998 10.2044V6.8947C15.4998 6.71767 15.4307 6.5479 15.3076 6.42273C15.1845 6.29756 15.0176 6.22723 14.8436 6.22723Z" fill="#5059C9"/>
<path d="M12.4375 6.8947V11.1219C12.4379 11.9053 12.1841 12.667 11.7154 13.2887C11.2467 13.9103 10.5894 14.3573 9.84544 14.5602C9.10147 14.763 8.31248 14.7104 7.60089 14.4106C6.88931 14.1108 6.29493 13.5804 5.91 12.9018C5.82581 12.7595 5.75267 12.6108 5.69125 12.4569C5.63399 12.3118 5.58577 12.1632 5.54688 12.0119C5.47475 11.7209 5.43802 11.422 5.4375 11.1219V6.8947C5.43739 6.80701 5.45428 6.72016 5.48722 6.63913C5.52016 6.5581 5.56849 6.48447 5.62945 6.42247C5.69042 6.36047 5.76281 6.3113 5.84248 6.2778C5.92215 6.2443 6.00754 6.22712 6.09375 6.22723H11.7812C11.8674 6.22712 11.9528 6.2443 12.0325 6.2778C12.1122 6.3113 12.1846 6.36047 12.2455 6.42247C12.3065 6.48447 12.3548 6.5581 12.3878 6.63913C12.4207 6.72016 12.4376 6.80701 12.4375 6.8947Z" fill="#7B83EB"/>
<path opacity="0.2" d="M8.35452 4.44733H7.09277C7.25837 4.80243 7.51964 5.10244 7.84622 5.31252C8.1728 5.52259 8.55129 5.63409 8.9377 5.63407V5.04048C8.93724 4.88331 8.87565 4.73271 8.76638 4.62157C8.65712 4.51044 8.50905 4.4478 8.35452 4.44733Z" fill="black"/>
<path opacity="0.1" d="M9.37499 6.22723V11.8651C9.37499 11.9992 9.32985 12.1293 9.24708 12.2337C9.1643 12.3382 9.04887 12.4106 8.91999 12.4391C8.87883 12.4515 8.83605 12.4575 8.79311 12.4569H5.69125C5.63399 12.3118 5.58577 12.1632 5.54688 12.0119C5.47475 11.7209 5.43802 11.422 5.4375 11.122V6.8947C5.43739 6.80701 5.45428 6.72016 5.48722 6.63913C5.52016 6.5581 5.56849 6.48447 5.62945 6.42247C5.69042 6.36047 5.76281 6.3113 5.84248 6.2778C5.92215 6.2443 6.00754 6.22712 6.09375 6.22723H9.37499Z" fill="black"/>
<path opacity="0.2" d="M8.93749 6.22723V12.31C8.93813 12.3537 8.93223 12.3972 8.91999 12.4391C8.89201 12.5702 8.82077 12.6876 8.71809 12.7717C8.61542 12.8559 8.4875 12.9019 8.35562 12.9018H5.91C5.82581 12.7595 5.75267 12.6108 5.69125 12.4569C5.63399 12.3118 5.58577 12.1632 5.54688 12.0119C5.47475 11.7209 5.43802 11.422 5.4375 11.122V6.8947C5.43739 6.80701 5.45428 6.72016 5.48722 6.63913C5.52016 6.5581 5.56849 6.48447 5.62945 6.42247C5.69042 6.36047 5.76281 6.3113 5.84248 6.2778C5.92215 6.2443 6.00754 6.22712 6.09375 6.22723H8.93749Z" fill="black"/>
<path opacity="0.2" d="M8.93749 6.22723V11.4201C8.9368 11.5768 8.87527 11.7269 8.7663 11.8378C8.65733 11.9486 8.50973 12.0112 8.35562 12.0119H5.54688C5.47475 11.7209 5.43802 11.422 5.4375 11.122V6.8947C5.43739 6.80701 5.45428 6.72016 5.48722 6.63913C5.52016 6.5581 5.56849 6.48447 5.62945 6.42247C5.69042 6.36047 5.76281 6.3113 5.84248 6.2778C5.92215 6.2443 6.00754 6.22712 6.09375 6.22723H8.93749Z" fill="black"/>
<path opacity="0.2" d="M6.09375 6.22723C6.00754 6.22712 5.92215 6.2443 5.84248 6.2778C5.76281 6.3113 5.69042 6.36047 5.62945 6.42247C5.56849 6.48447 5.52016 6.5581 5.48722 6.63913C5.45428 6.72016 5.43739 6.80701 5.4375 6.8947V11.122C5.43802 11.422 5.47475 11.7209 5.54688 12.0119H7.91812C8.07223 12.0112 8.21983 11.9486 8.3288 11.8378C8.43777 11.7269 8.4993 11.5768 8.49999 11.4201V6.22723H6.09375Z" fill="black"/>
<path d="M2.08319 4.44733H7.91679C8.07146 4.44733 8.2198 4.50982 8.32917 4.62106C8.43853 4.73229 8.49998 4.88316 8.49998 5.04048V10.9738C8.49998 11.1311 8.43853 11.2819 8.32917 11.3932C8.2198 11.5044 8.07146 11.5669 7.91679 11.5669H2.08319C1.92852 11.5669 1.78018 11.5044 1.67081 11.3932C1.56144 11.2819 1.5 11.1311 1.5 10.9738V5.04048C1.5 4.88316 1.56144 4.73229 1.67081 4.62106C1.78018 4.50982 1.92852 4.44733 2.08319 4.44733Z" fill="#4B53BC"/>
<path d="M6.74128 6.66108H5.43316V10.2298H4.57478V6.66108H3.25879V5.78448H6.74128V6.66108Z" fill="white"/>
</svg>
