<svg width="16" height="16" viewBox="0 0 16 16" fill="none" xmlns="http://www.w3.org/2000/svg">
<path d="M13.227 3.00391H2.80193C2.58924 3.00391 2.38527 3.08839 2.23488 3.23879C2.08449 3.38918 2 3.59315 2 3.80583V9.41933C2 9.63201 2.08449 9.83599 2.23488 9.98638C2.38527 10.1368 2.58924 10.2213 2.80193 10.2213H7.14648V9.41933H5.35807L2.80193 7.22906V5.9961L5.35807 3.80583H10.6708L13.1496 5.92976C13.4634 6.02194 13.759 6.13918 14.0289 6.2802V3.80583C14.0289 3.59315 13.9444 3.38918 13.794 3.23879C13.6436 3.08839 13.4397 3.00391 13.227 3.00391Z" fill="currentColor"/>
<path d="M8.63288 6.31518C9.00113 6.11432 9.42002 5.95894 9.8696 5.85249C9.76975 5.60879 9.62192 5.3848 9.43208 5.19496C9.0561 4.81898 8.54617 4.60776 8.01446 4.60776C7.61794 4.60776 7.23033 4.72534 6.90064 4.94563C6.57095 5.16593 6.31399 5.47904 6.16225 5.84537C6.01051 6.2117 5.9708 6.6148 6.04816 7.0037C6.12552 7.3926 6.31646 7.74982 6.59684 8.0302C6.75786 8.19123 6.94424 8.32276 7.1474 8.42021C7.17742 7.39203 7.93647 6.69504 8.63288 6.31518Z" fill="currentColor"/>
<path fill-rule="evenodd" clip-rule="evenodd" d="M9.16295 7.04354C8.55169 7.37695 8.06836 7.89488 8.06836 8.55178V11.9517C8.06836 12.6084 8.55173 13.1264 9.16295 13.4598C9.78739 13.8005 10.6262 14.0004 11.5337 14.0004C12.4412 14.0004 13.2801 13.8005 13.9045 13.4598C14.5157 13.1264 14.9991 12.6084 14.9991 11.9517V8.55178C14.9991 7.89488 14.5158 7.37695 13.9045 7.04354C13.28 6.70293 12.4412 6.50305 11.5337 6.50305C10.6262 6.50305 9.7874 6.70293 9.16295 7.04354ZM13.9045 10.06C14.045 9.98335 14.1788 9.89693 14.3015 9.80131V10.2517C14.3015 10.5335 14.0872 10.8655 13.5704 11.1475C13.0669 11.4222 12.3474 11.6029 11.5337 11.6029C10.72 11.6029 10.0006 11.4222 9.497 11.1475C8.98023 10.8655 8.76591 10.5335 8.76591 10.2517V9.80131C8.88861 9.89693 9.0224 9.98335 9.16295 10.06C9.7874 10.4006 10.6262 10.6005 11.5337 10.6005C12.4412 10.6005 13.28 10.4006 13.9045 10.06ZM13.9045 11.7598C14.045 11.6831 14.1788 11.5967 14.3015 11.5011V11.9517C14.3015 12.2335 14.0872 12.5655 13.5704 12.8474C13.0669 13.1221 12.3474 13.3029 11.5337 13.3029C10.72 13.3029 10.0006 13.1221 9.497 12.8474C8.98023 12.5655 8.76591 12.2335 8.76591 11.9517V11.5011C8.88861 11.5967 9.0224 11.6831 9.16295 11.7598C9.78739 12.1005 10.6262 12.3004 11.5337 12.3004C12.4412 12.3004 13.2801 12.1005 13.9045 11.7598Z" fill="currentColor"/>
</svg>
