<svg width="20" height="20" viewBox="0 0 20 24" fill="none" xmlns="http://www.w3.org/2000/svg">
<rect x="0.00390625" y="0.523438" width="20" height="20" rx="10" fill="url(#paint0_linear_1881_205287)"/>
<path d="M5.12891 7.49218C5.12891 7.09523 5.44071 6.77344 5.82533 6.77344H10.6725C11.0571 6.77344 11.3689 7.09523 11.3689 7.49218V8.21587H9.33804C8.51332 8.21587 7.84475 8.91749 7.84475 9.78297V12.4316L6.96621 13.3624C6.83541 13.501 6.60762 13.4054 6.60762 13.212V12.1045H5.82533C5.44071 12.1045 5.12891 11.7827 5.12891 11.3858V7.49218Z" fill="white"/>
<path d="M14.1825 8.96691C14.5671 8.96691 14.8789 9.28871 14.8789 9.68566V13.4068C14.8789 13.8037 14.5671 14.1255 14.1825 14.1255H13.4002V15.1824C13.4002 15.3737 13.1767 15.4703 13.0446 15.336L11.8543 14.1255H9.33532C8.95069 14.1255 8.63889 13.8037 8.63889 13.4068V9.68566C8.63889 9.28871 8.95069 8.96691 9.33532 8.96691H14.1825Z" fill="white"/>
<defs>
<linearGradient id="paint0_linear_1881_205287" x1="19.0239" y1="0.523437" x2="1.76391" y2="20.5234" gradientUnits="userSpaceOnUse">
<stop stop-color="#B87CCF"/>
<stop offset="1" stop-color="#A400AA"/>
</linearGradient>
</defs>
</svg>
