<svg width="14" height="14" viewBox="0 0 14 14" fill="none" xmlns="http://www.w3.org/2000/svg">
<path fill-rule="evenodd" clip-rule="evenodd" d="M13.8331 6.99918C13.8331 3.40978 10.9233 0.5 7.3339 0.5C3.7445 0.5 0.834717 3.40978 0.834717 6.99918C0.834717 10.5886 3.7445 13.4984 7.3339 13.4984C10.9233 13.4984 13.8331 10.5886 13.8331 6.99918ZM10.3244 6.28964C10.6505 5.96355 10.6505 5.43486 10.3244 5.10877C9.99836 4.78268 9.46966 4.78268 9.14357 5.10877L6.73401 7.51834L5.82444 6.60877C5.49835 6.28268 4.96966 6.28268 4.64357 6.60877C4.31749 6.93486 4.31749 7.46355 4.64357 7.78964L6.14357 9.28964C6.46966 9.61573 6.99835 9.61573 7.32444 9.28964L10.3244 6.28964Z" fill="#0B8500"/>
</svg>
