<svg width="16" height="16" viewBox="0 0 16 16" fill="none" xmlns="http://www.w3.org/2000/svg">
<mask id="path-1-inside-1_6960_310457" fill="white">
<path d="M14.979 15L14.054 12.516H10.4541L9.55396 15H8.68701L11.887 6.59998H12.6719L15.854 15H14.979ZM12.4189 8.06898C12.3919 7.99498 12.363 7.90898 12.334 7.81098C12.3021 7.70144 12.2777 7.58985 12.261 7.47698H12.2371C12.2166 7.58961 12.1901 7.7011 12.158 7.81098C12.129 7.91098 12.101 7.99498 12.073 8.06898L10.7139 11.807H13.79L12.4189 8.06898Z"/>
</mask>
<path d="M14.979 15L14.054 12.516H10.4541L9.55396 15H8.68701L11.887 6.59998H12.6719L15.854 15H14.979ZM12.4189 8.06898C12.3919 7.99498 12.363 7.90898 12.334 7.81098C12.3021 7.70144 12.2777 7.58985 12.261 7.47698H12.2371C12.2166 7.58961 12.1901 7.7011 12.158 7.81098C12.129 7.91098 12.101 7.99498 12.073 8.06898L10.7139 11.807H13.79L12.4189 8.06898Z" fill="currentColor"/>
<path d="M14.979 15L14.0419 15.349L14.2843 16H14.979V15ZM14.054 12.516L14.9911 12.167L14.7486 11.516H14.054V12.516ZM10.4541 12.516V11.516H9.75285L9.51393 12.1753L10.4541 12.516ZM9.55396 15V16H10.2552L10.4941 15.3407L9.55396 15ZM8.68701 15L7.75252 14.644L7.23596 16H8.68701V15ZM11.887 6.59998V5.59998H11.1978L10.9525 6.24399L11.887 6.59998ZM12.6719 6.59998L13.607 6.24572L13.3624 5.59998H12.6719V6.59998ZM15.854 15V16H17.3022L16.7892 14.6457L15.854 15ZM12.4189 8.06898L11.4795 8.41174L11.4801 8.41334L12.4189 8.06898ZM12.334 7.81098L11.3739 8.0908L11.3751 8.09473L12.334 7.81098ZM12.261 7.47698L13.2502 7.33076L13.124 6.47698H12.261V7.47698ZM12.2371 7.47698V6.47698H11.4026L11.2532 7.29794L12.2371 7.47698ZM12.158 7.81098L11.1982 7.53029L11.1975 7.53245L12.158 7.81098ZM12.073 8.06898L11.1376 7.71506L11.1332 7.72727L12.073 8.06898ZM10.7139 11.807L9.77406 11.4653L9.28622 12.807H10.7139V11.807ZM13.79 11.807V12.807H15.222L14.7289 11.4626L13.79 11.807ZM15.9161 14.651L14.9911 12.167L13.1168 12.865L14.0419 15.349L15.9161 14.651ZM14.054 11.516H10.4541V13.516H14.054V11.516ZM9.51393 12.1753L8.61378 14.6593L10.4941 15.3407L11.3943 12.8567L9.51393 12.1753ZM9.55396 14H8.68701V16H9.55396V14ZM9.6215 15.356L12.8215 6.95597L10.9525 6.24399L7.75252 14.644L9.6215 15.356ZM11.887 7.59998H12.6719V5.59998H11.887V7.59998ZM11.7367 6.95423L14.9189 15.3542L16.7892 14.6457L13.607 6.24572L11.7367 6.95423ZM15.854 14H14.979V16H15.854V14ZM13.3584 7.72622C13.338 7.67038 13.3156 7.60407 13.2929 7.52722L11.3751 8.09473C11.4103 8.21388 11.4459 8.31958 11.4795 8.41174L13.3584 7.72622ZM13.294 7.53116C13.2749 7.46544 13.2602 7.39849 13.2502 7.33076L11.2717 7.6232C11.2951 7.78121 11.3292 7.93744 11.3739 8.0908L13.294 7.53116ZM12.261 6.47698H12.2371V8.47698H12.261V6.47698ZM11.2532 7.29794C11.2391 7.37573 11.2207 7.4533 11.1982 7.53029L13.1178 8.09166C13.1595 7.9489 13.1941 7.80349 13.2209 7.65602L11.2532 7.29794ZM11.1975 7.53245C11.1747 7.61111 11.1549 7.66956 11.1377 7.71509L13.0083 8.42287C13.0471 8.32039 13.0832 8.21085 13.1184 8.0895L11.1975 7.53245ZM11.1332 7.72727L9.77406 11.4653L11.6537 12.1487L13.0128 8.41069L11.1332 7.72727ZM10.7139 12.807H13.79V10.807H10.7139V12.807ZM14.7289 11.4626L13.3578 7.72461L11.4801 8.41334L12.8512 12.1513L14.7289 11.4626Z" fill="currentColor" mask="url(#path-1-inside-1_6960_310457)"/>
<path d="M0.145996 2.5H10.146" stroke="currentColor" stroke-miterlimit="10"/>
<path d="M4.646 1V3" stroke="currentColor" stroke-miterlimit="10"/>
<path d="M1.646 12.359C1.646 12.359 6.46885 7.75 8.24585 2.5L1.646 12.359Z" fill="currentColor"/>
<path d="M1.646 12.359C1.646 12.359 6.46885 7.75 8.24585 2.5" stroke="currentColor" stroke-miterlimit="10"/>
<path d="M3.646 5.5C4.88039 7.56875 6.38894 9.46092 8.13086 11.125L3.646 5.5Z" fill="currentColor"/>
<path d="M3.646 5.5C4.88039 7.56875 6.38894 9.46092 8.13086 11.125" stroke="currentColor" stroke-miterlimit="10"/>
</svg>
