<svg id="Component_926_1" data-name="Component 926 – 1" xmlns="http://www.w3.org/2000/svg" width="16.203" height="16" viewBox="0 0 16.203 16">
  <rect id="Rectangle_6294" data-name="Rectangle 6294" width="16" height="16" transform="translate(0.001)" fill="none"/>
  <g id="Group_15717" data-name="Group 15717" transform="translate(-329 -7212)">
    <path id="Path_11642" data-name="Path 11642" d="M-568.5,658.938h-.263a.37.37,0,0,1-.319-.154.494.494,0,0,1-.113-.3v-1.393l-.35-.083q-.264-.062-.525-.143a1.782,1.782,0,0,1-.437-.2l-.35-.185-1.16,1.044a.228.228,0,0,1-.227.143.44.44,0,0,1-.311-.143l-.6-.595a.29.29,0,0,1-.093-.143.73.73,0,0,1-.01-.123.848.848,0,0,1,.01-.133.216.216,0,0,1,.093-.133l1.05-.962-.186-.35a1.947,1.947,0,0,0-.176-.482,2.013,2.013,0,0,1-.174-.482l-.087-.35h-1.4a.447.447,0,0,1-.3-.159.421.421,0,0,1-.156-.276v-.882a.422.422,0,0,1,.156-.276.434.434,0,0,1,.3-.154h1.406l.164-.262c.057-.179.107-.349.156-.513a1.494,1.494,0,0,1,.217-.451l.164-.43-1.055-.962a.261.261,0,0,1-.145-.246.364.364,0,0,1,.145-.287l.7-.612a.231.231,0,0,1,.226-.131.466.466,0,0,1,.31.123l.968,1.05.248-.246a3.671,3.671,0,0,0,.484-.185,2.315,2.315,0,0,1,.485-.164l.348-.1v-1.393a.429.429,0,0,1,.156-.276.438.438,0,0,1,.3-.154h.867a.438.438,0,0,1,.3.154.416.416,0,0,1,.154.276v1.4l.437.1c.179.041.352.085.515.133a1.528,1.528,0,0,1,.455.215l.35.164.972-1.05a.229.229,0,0,1,.226-.123.471.471,0,0,1,.311.123l.6.612a.223.223,0,0,1,.144.226.369.369,0,0,1-.144.287l-1.055,1.066.184.35a2.445,2.445,0,0,0,.177.471,2.177,2.177,0,0,1,.174.492l.082.35h1.4a.4.4,0,0,1,.33.154.456.456,0,0,1,.125.276v.367h.807v-.367a1.3,1.3,0,0,0-.358-.923,1.248,1.248,0,0,0-.963-.389h-.7a.446.446,0,0,0-.05-.214c-.034-.061-.079-.133-.133-.215l.534-.533a1.309,1.309,0,0,0,.383-.962,1.314,1.314,0,0,0-.393-.962l-.617-.612a1.313,1.313,0,0,0-.966-.389,1.323,1.323,0,0,0-.97.389l-.516.451a.358.358,0,0,0-.2-.1,1.308,1.308,0,0,1-.263-.082v-.7a1.273,1.273,0,0,0-.362-.953,1.293,1.293,0,0,0-.961-.359h-.867a1.3,1.3,0,0,0-.961.359,1.285,1.285,0,0,0-.362.953v.7c-.1.04-.181.074-.256.1a.389.389,0,0,0-.2.164l-.518-.533a1.315,1.315,0,0,0-.966-.389,1.317,1.317,0,0,0-.968.389l-.617.612a1.505,1.505,0,0,0-.32.448,1.209,1.209,0,0,0-.114.513,1.212,1.212,0,0,0,.114.513,1.544,1.544,0,0,0,.32.451l.437.532a.322.322,0,0,0-.082.185.906.906,0,0,1-.087.246h-.7a1.3,1.3,0,0,0-.961.359,1.272,1.272,0,0,0-.36.953v.882a1.278,1.278,0,0,0,.36.943,1.284,1.284,0,0,0,.961.369h.788a.41.41,0,0,0,.049.215q.051.091.134.215l-.537.532a1.309,1.309,0,0,0-.314.446,1.289,1.289,0,0,0-.113.525,1.243,1.243,0,0,0,.113.5,1.31,1.31,0,0,0,.321.437l.611.611a1.29,1.29,0,0,0,.969.411,1.292,1.292,0,0,0,.968-.411l.516-.43a.47.47,0,0,0,.2.08.852.852,0,0,1,.258.1v.7a1.321,1.321,0,0,0,.36.912,1.234,1.234,0,0,0,.961.4h.338Z" transform="translate(904.443 6566.098)" fill="currentColor"/>
    <path id="Path_11643" data-name="Path 11643" d="M-567.8,650.908a2.536,2.536,0,0,0-1.848.793,2.541,2.541,0,0,0-.793,1.849,2.581,2.581,0,0,0,.764,1.855,2.519,2.519,0,0,0,1.821.78v-.87a1.685,1.685,0,0,1-1.18-.507,1.722,1.722,0,0,1-.518-1.258,1.694,1.694,0,0,1,.518-1.238,1.688,1.688,0,0,1,1.236-.515v0a1.689,1.689,0,0,1,1.238.511,1.688,1.688,0,0,1,.509,1.162h.889a2.531,2.531,0,0,0-.785-1.771A2.537,2.537,0,0,0-567.8,650.908Z" transform="translate(903.796 6565.453)" fill="currentColor"/>
  </g>
  <g id="Group_15716" data-name="Group 15716" transform="translate(460.548 -471.436)">
    <path id="Path_6974" data-name="Path 6974" d="M-554.477,482.007a3.24,3.24,0,0,0,.781,3.324,3.237,3.237,0,0,0,4.579,0,3.239,3.239,0,0,0,0-4.579,3.227,3.227,0,0,0-2.469-.944" transform="translate(103.097 0.632)" fill="none" stroke="currentColor" stroke-miterlimit="10" stroke-width="1"/>
    <path id="Path_6975" data-name="Path 6975" d="M-550.565,478l-3,2,3,2Z" transform="translate(103.018 0.431)" fill="currentColor"/>
  </g>
</svg>
