<svg width="15" height="15" viewBox="0 0 15 15" fill="none" xmlns="http://www.w3.org/2000/svg">
<path d="M0 0V13.4483H3.00231V12.4138H1.03448V1.03448H2.5862V4.65517H8.77696V3.62069H3.62069V1.03448H9.27195L11.2113 2.97379L11.9427 2.2423L9.70044 0H0Z" fill="#0D2E4E"/>
<path d="M2.58669 6.70766L2.58669 10.2546H3.62118L3.62118 7.74214L6.78992 7.74214V6.70766L2.58669 6.70766Z" fill="currentColor"/>
<path fill-rule="evenodd" clip-rule="evenodd" d="M4.4857 15C4.18496 14.7002 4.0585 14.5738 3.74621 14.2615C5.22526 12.7844 4.63825 11.1537 4.63825 11.1537L12.0451 3.74621L15 6.70033L7.59211 14.1089C7.59211 14.1089 5.96367 13.5229 4.4857 15ZM5.6159 13.1311C6.05201 13.0008 6.45509 12.9597 6.78992 12.9597C6.95876 12.9597 7.11383 12.9702 7.25198 12.9861L11.7529 8.48471L10.2613 6.99317L5.76611 11.4889C5.82073 11.9557 5.79806 12.5277 5.6159 13.1311ZM13.5369 6.70045L12.4843 7.75318L10.9928 6.26164L12.0452 5.20912L13.5369 6.70045Z" fill="currentColor"/>
</svg>
