<svg width="16" height="16" viewBox="0 0 16 16" fill="none" xmlns="http://www.w3.org/2000/svg">
<path fill-rule="evenodd" clip-rule="evenodd" d="M3.32666 4.23805C3.32689 4.23776 3.32711 4.23748 3.32734 4.2372C3.53801 3.97554 3.76951 3.73299 4.01903 3.51164C4.52548 3.06235 5.10617 2.70038 5.73765 2.4432C6.68058 2.05916 7.70573 1.92139 8.71659 2.04285C9.72745 2.16431 10.6908 2.54101 11.5159 3.13748C12.341 3.73395 13.0008 4.53058 13.4331 5.45238C13.8654 6.37418 14.056 7.39082 13.987 8.40662C13.918 9.42241 13.5917 10.4039 13.0387 11.2588C12.4857 12.1137 11.7243 12.8138 10.8261 13.2932C10.2246 13.6143 9.57494 13.8293 8.90567 13.9314C8.57636 13.9816 8.24229 14.0045 7.90685 13.9993C7.90605 13.9993 7.90525 13.9992 7.90445 13.9992L7.9206 12.9937C7.92133 12.9937 7.92206 12.9937 7.92279 12.9937C8.76942 13.007 9.60553 12.8047 10.3525 12.406C11.1002 12.0069 11.734 11.4242 12.1943 10.7126C12.6546 10.001 12.9262 9.184 12.9837 8.33847C13.0411 7.49293 12.8824 6.64668 12.5226 5.87938C12.1627 5.11209 11.6136 4.44898 10.9267 3.95248C10.2399 3.45598 9.43805 3.14242 8.59662 3.04132C7.75518 2.94022 6.90186 3.0549 6.11698 3.37456C5.33209 3.69423 4.64146 4.20837 4.11009 4.86858L3.32666 4.23805Z" fill="currentColor"/>
<path d="M2.28871 3.00849L5.78211 5.56703L1.81964 7.31313L2.28871 3.00849Z" fill="currentColor"/>
</svg>
