<svg width="16" height="16" viewBox="0 0 16 16" fill="none" xmlns="http://www.w3.org/2000/svg">
<path d="M4.99962 14.0002C4.21862 14.7822 3.28062 14.2822 2.49962 13.5002C1.71862 12.7202 1.21862 11.7811 1.99962 11.0001L4.49962 8.50015C5.28062 7.72015 6.21862 8.21915 6.99962 9.00015C7.78062 9.78115 8.28062 10.7191 7.49962 11.5001L4.99962 14.0002Z" stroke="currentColor" stroke-miterlimit="10"/>
<path d="M11.4996 7.50015C10.7186 8.28215 9.78062 7.78215 8.99962 7.00015C8.21862 6.22015 7.71862 5.28115 8.49962 4.50015L10.9996 2.00015C11.7806 1.22015 12.7186 1.71915 13.4996 2.50015C14.2806 3.28115 14.7806 4.21915 13.9996 5.00015L11.4996 7.50015Z" stroke="currentColor" stroke-miterlimit="10"/>
<path d="M12 4L15 1" stroke="currentColor"/>
<path d="M1 15L4 12" stroke="currentColor"/>
</svg>
