<svg width="17" height="16" viewBox="0 0 17 16" fill="none" xmlns="http://www.w3.org/2000/svg">
<path d="M14.7785 9.09974C15.1959 5.58922 14.5782 3.37307 13.4662 2.37081C11.6675 0.658406 5.59242 0.404779 3.44287 2.4469C2.48051 3.44653 2.13679 4.91231 2.09917 6.73229C2.06155 8.55226 2.01781 11.9491 5.18833 12.8718V14.2816C5.18833 14.2816 5.16654 14.8518 5.53136 14.9663C5.94867 15.1019 6.13764 14.8369 7.43594 13.2872C8.78505 13.4156 10.1461 13.3121 11.4602 12.9811C11.8976 12.8342 14.3778 12.5062 14.7794 9.10499L14.7785 9.09974ZM7.64761 12.291C7.64761 12.291 6.27398 14.0026 5.84704 14.4469C5.70706 14.592 5.55396 14.578 5.55571 14.2912C5.55571 14.104 5.56617 11.9526 5.56617 11.9526C2.87858 11.1821 3.03701 8.28551 3.06588 6.77076C2.9684 5.47325 3.37081 4.1876 4.19086 3.17716C6.07795 1.40791 11.4026 1.80409 12.7595 3.07834C14.4217 4.54849 13.8276 8.70007 13.8311 8.84175C13.4899 11.6815 11.4813 11.8616 11.1112 11.9841C9.98036 12.27 8.81113 12.3736 7.64761 12.291Z" fill="#8E24AA"/>
<path d="M8.40686 3.51034C8.36046 3.51034 8.31601 3.52877 8.2832 3.56158C8.25038 3.59438 8.23193 3.63887 8.23193 3.68526C8.23193 3.73165 8.25038 3.77613 8.2832 3.80894C8.31601 3.84174 8.36046 3.86017 8.40686 3.86017C8.84964 3.85547 9.28841 3.94359 9.69503 4.11885C10.1016 4.2941 10.4671 4.5526 10.7677 4.87768C11.0682 5.20276 11.2973 5.58719 11.4401 6.00619C11.5829 6.42519 11.6361 6.86946 11.5966 7.31034C11.5908 7.33596 11.5908 7.36256 11.5966 7.38817C11.6025 7.41378 11.614 7.43776 11.6304 7.4583C11.6468 7.47883 11.6676 7.49541 11.6912 7.50681C11.7149 7.5182 11.741 7.52413 11.7673 7.52413C11.7936 7.52413 11.8194 7.5182 11.8431 7.50681C11.8668 7.49541 11.8876 7.47883 11.904 7.4583C11.9204 7.43776 11.9319 7.41378 11.9377 7.38817C11.9436 7.36256 11.9438 7.33596 11.9379 7.31034C11.9773 6.82416 11.9148 6.33512 11.7549 5.87429C11.595 5.41347 11.3409 4.99094 11.0088 4.63356C10.6767 4.27619 10.2739 3.99177 9.82596 3.7984C9.37801 3.60503 8.89479 3.50693 8.40686 3.51034Z" fill="#8E24AA"/>
<path d="M10.6954 6.94484C10.6887 6.97039 10.688 6.99713 10.6931 7.02305C10.6982 7.04897 10.709 7.07341 10.7249 7.09451C10.7408 7.11562 10.7612 7.13285 10.7847 7.14491C10.8082 7.15698 10.8343 7.16356 10.8607 7.16417C10.8872 7.16478 10.9134 7.1594 10.9374 7.14844C10.9615 7.13747 10.9825 7.12121 10.9994 7.10086C11.0162 7.08051 11.0283 7.05661 11.0346 7.03095C11.0409 7.00529 11.0414 6.97854 11.0359 6.95271C11.0581 6.63279 11.015 6.31169 10.909 6.00899C10.8031 5.70629 10.6364 5.42833 10.4195 5.19207C10.2025 4.95582 9.93976 4.76621 9.64711 4.63481C9.35447 4.50342 9.03812 4.43299 8.71735 4.42783C8.67095 4.4247 8.6253 4.44012 8.59027 4.47071C8.55524 4.5013 8.53381 4.54455 8.53068 4.59094C8.52754 4.63733 8.54279 4.68306 8.57339 4.71808C8.60399 4.7531 8.64745 4.77453 8.69386 4.77766C8.97061 4.7783 9.24417 4.836 9.4976 4.94716C9.75103 5.05832 9.9787 5.22055 10.1666 5.4237C10.3544 5.62685 10.4985 5.86656 10.5895 6.12784C10.6805 6.38912 10.7165 6.66636 10.6954 6.94222V6.94484Z" fill="#8E24AA"/>
<path d="M10.3295 8.44818C10.2203 8.37797 10.0894 8.34948 9.96088 8.36795C9.83233 8.38642 9.71465 8.45062 9.62961 8.54875L9.37693 8.87671C9.33043 8.92726 9.27281 8.96654 9.20883 8.99154C9.14485 9.01655 9.0761 9.02664 9.00763 9.02102C8.47516 8.85136 7.99312 8.55236 7.60455 8.1508C7.21599 7.74925 6.9331 7.25766 6.78116 6.72002C6.77555 6.65007 6.78493 6.57974 6.80893 6.51379C6.83293 6.44784 6.87094 6.38783 6.92021 6.33784L7.23697 6.07546C7.33393 5.98393 7.39635 5.86187 7.41403 5.72972C7.43171 5.59757 7.40343 5.46337 7.33394 5.34958C7.08799 4.90316 6.79725 4.48295 6.46612 4.09545C6.39418 4.0012 6.28914 3.93776 6.17222 3.91795C6.05529 3.89815 5.93522 3.92345 5.83624 3.98875H5.8309C5.3261 4.28348 4.77506 4.83533 4.95091 5.40292C5.47743 6.91917 6.3783 8.27797 7.57017 9.35335C8.38465 10.0039 9.29509 10.5244 10.2691 10.8961L10.2744 10.904C10.823 11.0868 11.3575 10.5139 11.6418 9.99529V9.99091C11.7053 9.88936 11.73 9.76842 11.7117 9.65011C11.6934 9.5318 11.6332 9.424 11.5421 9.34636C11.1729 9.00353 10.7671 8.70233 10.3321 8.44818H10.3295Z" fill="#8E24AA"/>
<path d="M8.95877 5.72767C9.51898 5.76094 9.79111 6.0533 9.81999 6.65465C9.81556 6.68049 9.81709 6.707 9.82427 6.73221C9.83145 6.75743 9.84407 6.7807 9.86145 6.80033C9.87883 6.81996 9.90033 6.83545 9.9245 6.84562C9.94866 6.8558 9.97481 6.86043 10.001 6.85915C10.0272 6.85788 10.0527 6.85073 10.0758 6.83825C10.0989 6.82577 10.119 6.80827 10.1344 6.78704C10.1497 6.76582 10.16 6.74141 10.1647 6.71561C10.1694 6.68982 10.1684 6.6633 10.1615 6.63801C10.1743 6.47559 10.153 6.31228 10.0991 6.15854C10.0452 6.0048 9.95969 5.86401 9.8482 5.74519C9.73672 5.62637 9.60157 5.53215 9.45157 5.46854C9.30157 5.40493 9.14006 5.37334 8.97715 5.37579C8.93072 5.37335 8.88519 5.38946 8.85063 5.42057C8.81608 5.45168 8.79516 5.49523 8.79272 5.54166C8.79028 5.5881 8.80649 5.6336 8.8376 5.66815C8.86871 5.70271 8.91234 5.72349 8.95877 5.72592V5.72767Z" fill="#8E24AA"/>
</svg>
