<?xml version="1.0" encoding="utf-8"?>
<!-- Generator: Adobe Illustrator 19.1.0, SVG Export Plug-In . SVG Version: 6.00 Build 0)  -->
<svg version="1.1" id="Layer_1" xmlns="http://www.w3.org/2000/svg" xmlns:xlink="http://www.w3.org/1999/xlink" x="0px" y="0px"
	 viewBox="0 0 112 112" style="enable-background:new 0 0 112 112;" xml:space="preserve">
<path style="fill:#CACACA;" d="M99,56L86,67l0.1,45l25.9,0V67L99,56z M98,102h-5V91h5V102z M98,89h-5V78h5V89z M96,70
	c0-1.7,1.3-3,3-3s3,1.3,3,3s-1.3,3-3,3S96,71.7,96,70z M105,102h-5V91h5V102z M105,89h-5V78h5V89z"/>
<path style="fill:#CACACA;" d="M28,112h38V31H28V112z M49,39h13v5H49V39z M49,50h13v5H49V50z M49,61h13v5H49V61z M49,72h13v5H49V72z
	 M32,39h13v5H32V39z M32,50h13v5H32V50z M32,61h13v5H32V61z M32,72h13v5H32V72z"/>
<polygon style="fill:#DDDDDD;" points="66,43 66,50 79,50 79,54 66,54 66,58 79,58 79,62 66,62 66,66 79,66 79,70 66,70 66,74 
	79,74 79,78 66,78 66,112 86,112 86,43 "/>
<path style="fill:#E5E5E5;" d="M61.3,14.4c-0.7,0-1.3,0.3-1.8,0.9c-0.7-1.8-2.1-3-3.7-3c-0.9,0-1.7,0.4-2.4,1
	C52.2,10.7,50.1,9,47.6,9c-2.2,0-4.1,1.4-5.4,3.5c-0.3-0.1-0.7-0.2-1-0.2c-2.3,0-4.2,2.5-4.2,5.6h27C64,16,62.8,14.4,61.3,14.4z"/>
<path style="fill:#CACACA;" d="M46,15.6c-1,0-1.9,0.4-2.7,1.1c-1.1-2.2-3.1-3.6-5.5-3.6c-1.3,0-2.5,0.4-3.5,1.2
	C32.5,11.1,29.3,9,25.7,9c-3.2,0-6.1,1.7-7.9,4.3c-0.5-0.1-1-0.2-1.5-0.2c-3.5,0-6.3,3.1-6.3,6.9h40C50,17.6,48.2,15.6,46,15.6z"/>
<path style="fill:#DDDDDD;" d="M106.6,32.2c-0.6,0-1.2,0.3-1.6,0.7c-0.6-1.4-1.9-2.3-3.3-2.3c-0.8,0-1.5,0.3-2.1,0.8
	c-1.1-2-3-3.4-5.1-3.4c-1.9,0-3.7,1.1-4.8,2.7c-0.3-0.1-0.6-0.1-0.9-0.1c-2.1,0-3.8,2-3.8,4.4h24C109,33.5,107.9,32.2,106.6,32.2z"
	/>
<path style="fill:#E5E5E5;" d="M8,47L0,58l0.2,54l27.8,0V47H8z M14,93H8v-6h6V93z M14,83H8v-6h6V83z M14,73H8v-6h6V73z M14,63H8v-6
	h6V63z M24,93h-6v-6h6V93z M24,83h-6v-6h6V83z M24,73h-6v-6h6V73z M24,63h-6v-6h6V63z"/>
<g>
	<path style="fill:#919191;" d="M55.7,77c-4.1-3.4-10.4-1.8-12.2,3.6c-0.1,0.3-0.2,0.5-0.3,0.8c0,0,0,0,0,0
		c-1.8,0.5-3.6,1.9-3.7,3.7c0,0.1,0,0.2,0,0.3c-0.9,2.4-0.8,4.7,0.6,7c1.5,2.4,3.7,3.5,6.3,3.6c0.1,0.1,0.1,0.2,0.2,0.2l2.3,0.7
		c0-0.1-0.1-0.1-0.1-0.2c0.1,0.1,0.1,0.1,0.2,0.2l0.1,0l-0.1,0c0.6,0.6,1.2,1.2,1.7,1.8l2.1,0.4c0,0,0,0,0,0
		c0.9-0.1,1.9-0.1,2.9-0.2L55.7,77C55.7,76.9,55.7,76.9,55.7,77z"/>
	<path style="fill:#A8A8A8;" d="M71.9,84c0,0,0-0.1,0-0.1c-0.1-0.7-0.3-1.3-0.6-1.9c-0.7-2.9-3.5-4.6-6.3-4.2
		c-0.8-1.1-1.9-1.9-3.3-2.4c-2.2-0.8-4.5,0-6,1.6L55.6,99c0.4,0,0.7,0,1.1-0.1l1.5-0.2c0.1-0.3,0.3-0.6,0.4-0.8
		c0.1-0.2,0.3-0.4,0.5-0.4c0.7,0.4,1.4,0.6,2.2,0.8c0,0,0,0,0,0l1.5,0.3c0-0.1,0-0.1,0.1-0.2c0.8,0,1.7-0.3,2.5-0.8
		c1.3-0.8,2-2.2,2.2-3.6c0.2-0.3,0.4-0.5,0.8-0.6c2.6-0.4,4.1-2,4.5-4.6C73.2,87,72.7,85.5,71.9,84z"/>
	<path style="fill:#6D6D6D;" d="M61.3,98.3c-0.4,1.4-1.2,2.8-2.3,3.9c-0.8,0.8-1.7,1.5-2.5,2.3c0.3-1.7,0.8-3.9,1.7-5.8l-1.5,0.2
		c0,0,0.1,0,0.1,0c0,0.1-0.1,0.2-0.1,0.3c-0.3,0.6-0.6,2.1-1.1,2.9c-0.2,0.3-0.4,0.5-0.7,0.5c-0.5,0.1-1.7-2.6-2.2-3.5l-2.1-0.4
		c0,0,0,0,0,0.1c0.3,0.4,0.6,1.3,0.9,2.1c-0.9-1.4-1.8-2.7-2.7-4l-2.3-0.7c2.5,3.4,4.8,7,6.9,10.7c-0.1,0.6-0.3,1.2-0.6,2
		c-0.6,1.8-0.1,2.6,1.8,2.7c0.3,0,0.6,0,0.8,0c0,0,0,0,0.1,0c1.1-0.1,1.6-0.9,1.3-1.9c-0.2-0.7-0.5-1.4-0.6-2.1c0,0,0-0.2,0-0.5
		c1.1-2,3.4-3.2,4.8-5c0.8-1.1,1.4-2.4,1.8-3.7L61.3,98.3z"/>
</g>
<path style="fill:#A8A8A8;" d="M0.2,112h45.4c0,0,4.1-4.8-1.3-9.6c-3.6-3.1-7.1,1.6-7.1,1.6s1.7-11.5-12.2-11.5
	c-13.3,0-11.5,9.7-11.5,9.7S-1.7,97.9,0.2,112z"/>
<path style="fill:#A8A8A8;" d="M110.9,112h-28c0,0-3.7-3.2,0-6.5c2.5-2.2,5.4,0,5.4,0S87.8,98.1,96,98c8.7-0.1,8,7,8,7
	S112.2,102.2,110.9,112z"/>
<path style="fill:#919191;" d="M27.5,112h22.1c0,0,2-2.3-0.6-4.6c-1.7-1.5-3.5,0.8-3.5,0.8s0.8-5.6-6-5.6c-6.5,0-5.6,4.7-5.6,4.7
	S26.6,105.2,27.5,112z"/>
</svg>
