<?xml version="1.0" encoding="utf-8"?>
<!-- Generator: Adobe Illustrator 19.2.0, SVG Export Plug-In . SVG Version: 6.00 Build 0)  -->
<svg version="1.1" id="Layer_1" xmlns="http://www.w3.org/2000/svg" xmlns:xlink="http://www.w3.org/1999/xlink" x="0px" y="0px"
	 viewBox="0 0 32 32" style="enable-background:new 0 0 32 32;" xml:space="preserve">
<style type="text/css">
	.st0{fill:none;}
	.st1{fill:#EF7E63;}
</style>
<rect class="st0" width="32" height="32"/>
<path class="st1" d="M16,7.9c-3.3,0-5.9,2.6-5.9,5.9c0,0.4,0,0.3,0,0.7c0,3.3,5.9,9.7,5.9,9.7s5.9-6.4,5.9-9.7c0-0.4,0-0.3,0-0.7
	C21.9,10.5,19.3,7.9,16,7.9z M16,16.7c-1.6,0-3-1.3-3-3c0-1.6,1.3-3,3-3c1.6,0,3,1.3,3,3C19,15.4,17.6,16.7,16,16.7z"/>
</svg>
