<svg xmlns="http://www.w3.org/2000/svg" viewBox="0 0 16 16" enable-background="new 0 0 16 16"><g fill="none" stroke="#000" stroke-miterlimit="10"><path d="m4.9 10.5h-2.9"/><path d="m5 10.5h-.1"/><path d="m6 10.5h-1"/><path d="m15.5 8c0-2.6-2.4-4.6-4.7-4.6-2.3 0-4.2 2-4.2 4.6s1.9 4.6 4.2 4.6c2.3 0 4.7-2 4.7-4.6z"/><path d="m11.8 13.3c-1.1.7-2.4 1.2-3.7 1.2-2.6 0-4.9-1.5-5.9-3.7"/><path d="m1.5 8.5c.1.8.3 1.6.6 2.3"/><path d="m1.5 8c0 .2 0 .3 0 .5"/><path d="m2.1 5.2c-.4.9-.6 1.8-.6 2.8"/><path d="M2.1,5.2C3.2,3,5.4,1.5,8,1.5c1.3,0,2.5,0.4,3.6,1.1"/><path d="m10.5 5v2.9l1.9 2.3"/><path d="m7 5.5h-2"/><path d="m4.9 5.5h-2.9"/><path d="m4.9 5.5h.1"/><path d="m1.5 8.5h2.5"/><path d="m1.5 8.5h-.5"/><path d="m6 8.5h-1.7"/><path d="m4.3 8.5h-.3"/><path d="m7.1 2c0 0-1.3 1.5-2.1 3.3"/><path d="m4.3 8c0 .2 0 .3 0 .5"/><path d="m5 10.8c0-.1-.1-.2-.1-.3"/><path d="m4.3 8.5c.1.7.3 1.4.6 2"/><path d="m4.9 5.5c0-.1.1-.2.1-.3"/><path d="m4.9 5.5c-.4.8-.6 1.7-.6 2.5"/><path d="m7.1 14c0 0-1.3-1.5-2.1-3.3"/></g></svg>