<svg xmlns="http://www.w3.org/2000/svg" viewBox="0 0 38 79" width="38" height="79" enable-background="new 0 0 38 79"><g fill="none" stroke-miterlimit="10"><g stroke="#f49d56"><path d="M 25.5 52.5 28.5 52.5 28.5 67.5 9.5 67.5 9.5 52.5 12.5 52.5"/><path d="M 28.5,56.5 9.5,56.5"/><path d="M 14.5,52.5 23.5,52.5"/><path d="M 12.5,50.5 H14.5 V54.5 H12.5 z"/><path d="M 23.5,50.5 H25.5 V54.5 H23.5 z"/></g><g stroke="#aeaeae"><path d="M 25.5 11.5 28.5 11.5 28.5 26.5 9.5 26.5 9.5 11.5 12.5 11.5"/><path d="M 28.5,15.5 9.5,15.5"/><path d="M 14.5,11.5 23.5,11.5"/><path d="M 12.5,9.5 H14.5 V13.5 H12.5 z"/><path d="M 23.5,9.5 H25.5 V13.5 H23.5 z"/></g><circle cx="19" cy="60" r="18.5" stroke="#f49d56"/><circle cx="19" cy="19" r="18.5" stroke="#c8c8c8"/></g></svg>