<?xml version="1.0" encoding="utf-8"?>
<svg viewBox="0 0 16 16" xmlns="http://www.w3.org/2000/svg">
  <path id="Exclusion_38" data-name="Exclusion 38" d="M1460,10h-8a2,2,0,0,1-2-2V2a2,2,0,0,1,2-2h8a2,2,0,0,1,2,2v.5l2.47-1.544A1,1,0,0,1,1466,1.8V8.2a1,1,0,0,1-1.53.849L1462,7.5V8A2,2,0,0,1,1460,10Zm-4-7a2,2,0,1,0,2,2A2,2,0,0,0,1456,3Z" transform="matrix(1, 0, 0, 1, -1450.000043, 3)" style="fill: rgb(255, 255, 255);"/>
  <rect id="Rectangle_40828" data-name="Rectangle 40828" width="16" height="16" fill="none"/>
</svg>