<svg xmlns="http://www.w3.org/2000/svg" width="16" height="16" viewBox="0 0 16 16"><defs><style>.a,.b,.c{fill:none;}.a,.c{stroke:#4e7bd8;}.a{stroke-miterlimit:10;}.d{fill:#4e7bd8;}</style></defs><path class="a" d="M-213.511,549.093l6.5,5.5,6.5-5.5" transform="translate(215.011 -547.593)"/><rect class="b" width="16" height="16"/><path class="c" d="M1042.969,7256.437h-4.5v-9h13v5.5" transform="translate(-1036.969 -7245.937)"/><g transform="translate(459.548 -471.435)"><path class="a" d="M-554.477,482.007a3.24,3.24,0,0,0,.781,3.324,3.237,3.237,0,0,0,4.579,0,3.239,3.239,0,0,0,0-4.579,3.227,3.227,0,0,0-2.469-.944" transform="translate(103.097 0.431)"/><path class="d" d="M-550.565,478l-3,2,3,2Z" transform="translate(103.018 0.431)"/></g></svg>