<svg xmlns="http://www.w3.org/2000/svg" width="56" height="56" viewBox="0 0 56 56"><defs><style>.a{fill:#fff;}.b,.c,.e{fill:none;}.b,.c,.d{stroke:#13b900;stroke-miterlimit:10;stroke-width:2px;}.c,.d{stroke-linecap:round;}.d,.f{fill:#13b900;}</style></defs><g transform="translate(-833 -83)"><g transform="translate(833 83)"><circle class="a" cx="28" cy="28" r="28"/><g transform="translate(-512 -142)"><path class="b" d="M618.9,235.4a6.28,6.28,0,0,1-6.8,0,6.478,6.478,0,0,0-4.036,1.554A10.726,10.726,0,0,0,604.5,243.3a1.817,1.817,0,0,0,1.8,2.1h18.4a1.817,1.817,0,0,0,1.8-2.1C625.8,239.4,622.8,235.4,618.9,235.4Z" transform="translate(-76 -65)"/><path class="b" d="M620.1,227.6c0,3.1-2,5.7-4.6,5.7s-4.6-2.5-4.6-5.7" transform="translate(-76 -65)"/><path class="c" d="M610.3,241a7.84,7.84,0,0,0-1.1,4.1" transform="translate(-76 -65)"/><path class="c" d="M620.6,241a7.84,7.84,0,0,1,1.1,4.1" transform="translate(-76 -65)"/><path class="d" d="M611.273,228.3a5.487,5.487,0,0,1,7.395-7.5c2.353-.2,4.145,3.8,2.353,7.3a15.8,15.8,0,0,0-2.577-4.6C617.211,224.2,611.833,224.1,611.273,228.3Z" transform="translate(-76.599 -65)"/><line class="b" y2="9.2" transform="translate(539.5 170.9)"/></g><rect class="e" width="23" height="27" transform="translate(16 12)"/><g transform="translate(-698 -160)"><path class="b" d="M1484.82,193.038a4.5,4.5,0,1,0-3.056-4.015" transform="translate(-744.757 -8.273)"/><path class="f" d="M1479.25,188.773l3,4,3-4Z" transform="translate(-745.25 -8.773)"/></g></g><path class="f" d="M727,201.927v-9h4.006l2.054,2.269H739v6.731Z" transform="translate(137 -76.927)"/></g></svg>