<svg xmlns="http://www.w3.org/2000/svg" viewBox="0 0 134 139" enable-background="new 0 0 134 139"><g fill="#64b8df"><path d="M4,138c11.2-7.4,17.1-24.5,17.1-24.7l0.2-0.6l-0.4-0.4C9,100,2.4,83.7,2.4,66.6C2.4,30.4,31.7,1,67.7,1
		c36,0,65.3,29.4,65.3,65.6c0,36.2-29.3,65.6-65.3,65.6c-7.7,0-15.3-1.4-22.5-4l-0.6-0.2l-0.4,0.4c-0.5,0.4-0.9,0.8-1.5,1.1
		C29.6,137.3,19.5,138,4,138z" opacity="0.1"/><path d="M67.7,2C103.2,2,132,31,132,66.6c0,35.6-28.8,64.6-64.3,64.6c-7.6,0-15.1-1.3-22.2-4l-1.1-0.4l-0.9,0.8
		c-0.4,0.4-0.8,0.7-1.3,1c-12,7.2-21.5,8.2-35.2,8.4c9.8-8.1,14.8-22.6,15-23.4l0.4-1.2l-0.8-0.9C9.9,99.5,3.4,83.5,3.4,66.6
		C3.4,31,32.3,2,67.7,2 M67.7,0C31.1,0,1.4,29.8,1.4,66.6c0,18,7.1,34.4,18.7,46.4c-0.1,0.4-7.1,20.5-20.2,26
		c17.8,0,28.8,0,43.2-8.7c0.7-0.4,1.2-0.8,1.6-1.2c7.1,2.6,14.8,4.1,22.9,4.1c36.6,0,66.3-29.8,66.3-66.6C134,29.8,104.3,0,67.7,0
		L67.7,0z"/></g><g fill="none" stroke="#64b8df" stroke-width="2" stroke-miterlimit="10"><path d="M 46,64 H88 V89 H46 z"/><path d="M 64,53 H70 V89 H64 z"/><path d="M 44,53 H90 V64 H44 z"/><path d="M84,47.9c0-2.7-3.2-4.9-7.2-4.9C70.7,43,66,51.7,66,53.2c3.1,0,8-0.1,12-0.1C82,53,84,50.7,84,47.9z"/><path d="M50,47.9c0-2.7,3.2-4.9,7.2-4.9C63.3,43,68,51.7,68,53.2c-3.1,0-8-0.1-12-0.1C52,53,50,50.7,50,47.9z"/></g></svg>