<svg xmlns="http://www.w3.org/2000/svg" viewBox="0 0 16 16" enable-background="new 0 0 16 16"><g fill="none" stroke="#78a6ae" stroke-miterlimit="10"><path d="M13.3,9.5h2.2l0-3h-2.2C13.2,6,13,5.6,12.7,5.2l1.6-1.6l-1.8-1.8
			l-1.6,1.6C10.4,3,10,2.8,9.5,2.7V0.5h-3v2.2C6,2.8,5.6,3,5.2,3.3L3.6,1.7L1.7,3.6l1.6,1.6C3,5.6,2.8,6,2.7,6.5H0.5v3h2.2
			C2.8,10,3,10.4,3.3,10.8l-1.6,1.6l1.8,1.8l1.6-1.6C5.6,13,6,13.2,6.5,13.3v2.2l3,0v-2.2c0.5-0.1,0.9-0.3,1.3-0.6l1.6,1.6l1.8-1.8
			l-1.6-1.6C13,10.4,13.2,10,13.3,9.5z"/><circle cx="8" cy="8" r="2.8"/></g></svg>