<svg xmlns="http://www.w3.org/2000/svg" viewBox="0 0 32 32" enable-background="new 0 0 32 32"><circle cx="16" cy="16" r="16" fill="#a39ccd"/><path d="M23,11v10h-9h-0.3l-0.3,0.2l-1.4,1V22v-1h-1h-1V11H23 M24,10H9v12h2v2l3-2h10V10L24,10z" fill="#fff"/><circle cx="16.5" cy="14.5" r="1.5" fill="none" stroke="#fff" stroke-width="0.9" stroke-miterlimit="10"/><path d="M16.5,17.4c1.1,0,2.1,0.7,2.4,1.7h-4.9C14.4,18.1,15.4,17.4,16.5,17.4 M16.5,16.5C14.6,16.5,13,18,13,20h7
			C20,18,18.4,16.5,16.5,16.5L16.5,16.5z" fill="#fff"/></svg>