<?xml version="1.0" encoding="UTF-8" standalone="no"?>
<svg
   xmlns:dc="http://purl.org/dc/elements/1.1/"
   xmlns:cc="http://creativecommons.org/ns#"
   xmlns:rdf="http://www.w3.org/1999/02/22-rdf-syntax-ns#"
   xmlns:svg="http://www.w3.org/2000/svg"
   xmlns="http://www.w3.org/2000/svg"
   id="svg7475"
   version="1.1"
   viewBox="0 0 4.9580002 3.678"
   height="3.678mm"
   width="4.9580002mm">
  <defs
     id="defs7469" />
  <metadata
     id="metadata7472">
    <rdf:RDF>
      <cc:Work
         rdf:about="">
        <dc:format>image/svg+xml</dc:format>
        <dc:type
           rdf:resource="http://purl.org/dc/dcmitype/StillImage" />
        <dc:title></dc:title>
      </cc:Work>
    </rdf:RDF>
  </metadata>
  <g
     transform="translate(0,-293.322)"
     id="layer1">
    <g
       style="stroke-width:1.06843114"
       transform="matrix(0.93595175,0,0,0.93595175,-47.488792,187.08919)"
       id="g8114">
      <path
         id="rect8051"
         transform="matrix(0.28268907,0,0,0.28268907,-3.4720937,-8.0360038)"
         d="m 196.58594,429.93555 c -0.28044,0 -0.50586,0.22737 -0.50586,0.50781 0,0.28044 0.22542,0.50781 0.50586,0.50781 h 1.63086 v 11.87305 h -1.63086 c -0.28044,0 -0.50586,0.22542 -0.50586,0.50586 v 0.002 c 0,0.28044 0.22542,0.50586 0.50586,0.50586 h 4.75195 c 0.28044,0 0.50586,-0.22542 0.50586,-0.50586 v -0.002 c 0,-0.28044 -0.22542,-0.50586 -0.50586,-0.50586 h -1.63086 v -11.87305 h 1.63086 c 0.28044,0 0.50586,-0.22737 0.50586,-0.50781 0,-0.28044 -0.22542,-0.50781 -0.50586,-0.50781 z"
         style="fill:#3caaf7;fill-opacity:1;stroke:none;stroke-width:2.89133811;stroke-miterlimit:4;stroke-dasharray:11.56535372, 11.56535372;stroke-dashoffset:0;stroke-opacity:1" />
      <path
         style="color:#000000;font-style:normal;font-variant:normal;font-weight:normal;font-stretch:normal;font-size:medium;line-height:normal;font-family:sans-serif;font-variant-ligatures:normal;font-variant-position:normal;font-variant-caps:normal;font-variant-numeric:normal;font-variant-alternates:normal;font-feature-settings:normal;text-indent:0;text-align:start;text-decoration:none;text-decoration-line:none;text-decoration-style:solid;text-decoration-color:#000000;letter-spacing:normal;word-spacing:normal;text-transform:none;writing-mode:lr-tb;direction:ltr;text-orientation:mixed;dominant-baseline:auto;baseline-shift:baseline;text-anchor:start;white-space:normal;shape-padding:0;clip-rule:nonzero;display:inline;overflow:visible;visibility:visible;opacity:1;isolation:auto;mix-blend-mode:normal;color-interpolation:sRGB;color-interpolation-filters:linearRGB;solid-color:#000000;solid-opacity:1;vector-effect:none;fill:#3caaf7;fill-opacity:1;fill-rule:nonzero;stroke:none;stroke-width:1.07011366;stroke-linecap:round;stroke-linejoin:miter;stroke-miterlimit:4;stroke-dasharray:none;stroke-dashoffset:0;stroke-opacity:1;paint-order:stroke fill markers;color-rendering:auto;image-rendering:auto;shape-rendering:auto;text-rendering:auto;enable-background:accumulate"
         d="m 194.92578,432.11328 c -1.74186,0 -3.1582,1.41829 -3.1582,3.16016 v 3.0625 c 0,1.74187 1.41634,3.16015 3.1582,3.16015 h 1.50977 0.55078 0.0781 c 0.27593,0 0.49805,-0.22214 0.49805,-0.49804 0,-0.2758 -0.22214,-0.49805 -0.49805,-0.49805 h -0.0781 -0.55078 -1.50977 c -1.20431,0 -2.16211,-0.95975 -2.16211,-2.16406 v -3.0625 c 0,-1.20431 0.9578,-2.16406 2.16211,-2.16406 h 1.50977 0.55078 0.0781 c 0.27593,0 0.49805,-0.22215 0.49805,-0.49805 0,-0.27583 -0.22214,-0.49805 -0.49805,-0.49805 h -0.0781 -0.55078 z m 8.79102,0 c -0.27593,0 -0.49805,0.22214 -0.49805,0.49805 0,0.27579 0.22214,0.49805 0.49805,0.49805 h 0.33008 0.29882 4.28125 c 1.20431,0 2.16211,0.95975 2.16211,2.16406 v 3.0625 c 0,1.20431 -0.9578,2.16406 -2.16211,2.16406 h -4.28125 -0.46484 -0.16406 c -0.27593,0 -0.49805,0.22214 -0.49805,0.49805 0,0.27579 0.22214,0.49804 0.49805,0.49804 h 0.16406 0.46484 4.28125 c 1.74186,0 3.16016,-1.41828 3.16016,-3.16015 v -3.0625 c 0,-1.74187 -1.4183,-3.16016 -3.16016,-3.16016 h -4.28125 -0.29882 z"
         id="rect8072"
         transform="scale(0.26458333)" />
    </g>
  </g>
</svg>
