<svg xmlns="http://www.w3.org/2000/svg" viewBox="0 0 20 20"  width="20" height="20" enable-background="new 0 0 20 20"><path fill="none" stroke="#fff" stroke-miterlimit="10" d="m14 9l2 2"/><g fill="#fff"><path d="m6 7h1"/><path d="m9 7h1"/><path d="m6 12h1"/><path d="m4 9v1"/><path opacity=".5" d="m9 9h-2v-2h-1v2h-2v1h2v2h1v-2h2v1.7l1-1v-.7h.7l1-1h-1.7v-2h-1z"/><path d="M3,3v10h4.7l1-1H4V7h8v1.7l1-1V3H3z M12,6H4V4h8V6z"/></g><path d="m9 14l6.3-6.3c.4-.4 1-.4 1.4 0l.6.6c.4.4.4 1 0 1.4l-6.3 6.3-2.5.5.5-2.5z" fill="none" stroke="#fff" stroke-miterlimit="10"/></svg>