<svg xmlns="http://www.w3.org/2000/svg" viewBox="0 0 94 100" enable-background="new 0 0 94 100"><g fill="#64b8df"><path d="m3.1 97.2c7.6-5.3 11.6-16.8 11.8-17.3l.2-.5-.3-.3c-8.4-8.6-13-20.1-13-32.1 0-25.5 20.5-46.2 45.7-46.2s45.7 20.7 45.7 46.2-20.5 46.2-45.7 46.2c-5.4 0-10.7-1-15.8-2.8l-.4-.2-.4.3c-.3.3-.6.5-1 .8-9.1 5.4-16.1 5.8-26.8 5.9" opacity=".1"/><path d="m47.5 1.6c24.8 0 44.9 20.3 44.9 45.4s-20.1 45.3-44.9 45.3c-5.3 0-10.5-.9-15.5-2.8l-.9-.3-.7.6c-.3.2-.6.5-.9.7-8.2 5-14.8 5.8-24 5.9 6.6-5.8 10-15.7 10.2-16.2l.3-.9-.7-.7c-8.1-8.5-12.7-19.8-12.7-31.6 0-25 20.2-45.4 44.9-45.4m0-1.6c-25.7 0-46.5 21-46.5 47 0 12.2 4.7 23.9 13.1 32.7 0 .3-5 14.5-14.1 18.4 12.5 0 20.2 0 30.3-6.1.4-.2.8-.5 1.1-.8 5.2 1.8 10.6 2.8 16.1 2.8 25.7 0 46.5-21 46.5-47s-20.8-47-46.5-47z"/><path d="m32 31h31c1.1 0 2 .9 2 2v27c0 1.1-.9 2-2 2h-31c-1.1 0-2-.9-2-2v-27c0-1.1.9-2 2-2z" stroke="#64b8df" fill-opacity=".1" stroke-width="2" stroke-miterlimit="10"/></g><path d="m30 40h35" fill="none" stroke="#64b8df" stroke-width="2" stroke-miterlimit="10"/><g fill="#64b8df"><path d="m33 35h2v2h-2v-2"/><path d="m36 35h2v2h-2v-2"/><path d="m39 35h2v2h-2v-2"/></g></svg>