<svg xmlns="http://www.w3.org/2000/svg" viewBox="0 0 36 36" enable-background="new 0 0 36 36" width="36" height="36"><path d="m8.7-21.6c.2 0 .4.1.4.1l7.4 2.3c1.9.9 3.5.2 3.5.2l9-2.1c.6-.2 1 .4 1 .4v5.6c.1.7-.9 1-.9 1-5.3 2.4-11.6 1.6-11.6 1.6-3.1 0-8.5-2-8.5-2-.9-.3-1-1-1-1v-5.5c.1-.5.4-.6.7-.6m-4.9-1.8c.3 0 .5.7.5.7l1 14.7c-1.6 2.6-3.9 0-3.9 0s1.2-13.6 1.8-14.9c.2-.3.4-.5.6-.5m15.8-8.5l15.9 4.3c.7.3.4.7.4.7l-16.3 4.7c-.5.3-1.5 0-1.5 0l-17.4-4.6c-.7-.2 0-.4 0-.4l18.9-4.7" fill="#ff9800" transform="translate(0 37.881)"/></svg>