<svg xmlns="http://www.w3.org/2000/svg" viewBox="0 0 20 40" enable-background="new 0 0 20 40"><g fill="none" stroke="#8095b3" stroke-miterlimit="10"><path d="m6.5 4.5h5.9"/><path d="m14.5 4.5h2v12h-14v-12h2.1"/></g><g fill="#8095b3"><path d="m6 3v3h-1v-3h1m1-1h-3v5h3v-5z"/><path d="m14 3v3h-1v-3h1m1-1h-3v5h3v-5z"/></g><g fill="none" stroke-miterlimit="10"><path stroke="#8095b3" d="M13 10 9.5 13.5 6 10"/><g stroke="#f29446"><path d="m6.5 24.5h5.9"/><path d="m14.5 24.5h2v12h-14v-12h2.1"/></g></g><g fill="#f29446"><path d="m6 23v3h-1v-3h1m1-1h-3v5h3v-5z"/><path d="m14 23v3h-1v-3h1m1-1h-3v5h3v-5z"/></g><path fill="none" stroke="#f29446" stroke-miterlimit="10" d="M6 33 9.5 29.5 13 33"/></svg>