<svg xmlns="http://www.w3.org/2000/svg" viewBox="0 0 22 22" enable-background="new 0 0 22 22"><path fill="#fc5345" d="m0 0h22v22h-22z"/><g fill="#fff"><path d="m8.2 10.1c0 0 0 1.9 0 1.9s2.2 0 2.3 0c0 .2-.2.9-.9 1.4-.4.3-.9.4-1.4.4-.4 0-.7 0-1-.1-1.1-.3-1.9-1.3-2-2.5 0-.3 0-.6.1-.9.2-1.3 1.6-2.3 3.1-2.1.6.1 1 .4 1.4.7.5-.5.9-.9 1.4-1.4-.1-.1-.4-.3-.9-.6-.7-.4-1.4-.6-2.3-.6-.2 0-.3 0-.5 0-.3 0-.5.1-.8.1-.9.3-1.8.8-2.5 1.6-.7.8-1 1.7-1.1 2.7 0 .4 0 .9.1 1.3.3 1.2.9 2.1 1.9 2.8.8.5 1.6.8 2.6.9.5 0 1.1 0 1.6-.2 1-.2 1.8-.7 2.4-1.5.9-1.1 1.1-2.6.8-4-.3.1-3.1.1-4.3.1"/><path d="m17.6 10.1v-1.9h-1.9v1.9h-1.9v1.8h1.9v1.9h1.9v-1.9h1.9v-1.8z"/></g></svg>