<svg xmlns="http://www.w3.org/2000/svg" width="20" height="20" viewBox="0 0 20 20"><defs><style>.a{fill:#8095b3;}.b{fill:none;}</style></defs><g transform="translate(1.139)"><path class="a" d="M792.632-557.208H795v-3.456h-2.368a3.251,3.251,0,0,0-.7-1.408l1.728-1.728-1.984-1.984-1.6,1.728c-.512-.32-1.344-.512-1.344-.7V-567h-3.456v2.24a3.252,3.252,0,0,0-1.408.7l-1.728-1.728-1.92,1.984,1.728,1.728a2.7,2.7,0,0,0-.7,1.344H779v3.456h2.24c.128,0,.384.832.7,1.344l-1.728,1.664,1.984,1.984,1.664-1.728a3.2,3.2,0,0,0,1.408.64V-551h3.456v-2.368c0-.128.832-.384,1.344-.7l1.664,1.728,1.92-1.984-1.728-1.6C792.248-556.44,792.5-557.208,792.632-557.208ZM787-556.76a2.266,2.266,0,0,1-2.24-2.24,2.265,2.265,0,0,1,2.24-2.24,2.266,2.266,0,0,1,2.24,2.24A2.266,2.266,0,0,1,787-556.76Z" transform="translate(-778.139 569)"/><rect class="b" width="20" height="20" transform="translate(-1.139)"/></g></svg>