<svg xmlns="http://www.w3.org/2000/svg" width="20" height="20" viewBox="0 0 20 20"><defs><style>.a,.b,.c{fill:none;}.b,.c{stroke:#8095b3;stroke-miterlimit:10;}.c{stroke-linecap:round;}</style></defs><g transform="translate(3.472 2.184)"><rect class="a" width="20" height="20" transform="translate(-3.472 -2.184)"/><path class="b" d="M613.63,235.4a3.967,3.967,0,0,1-4.316,0,4.1,4.1,0,0,0-2.562.992,6.858,6.858,0,0,0-2.263,4.052,1.158,1.158,0,0,0,1.143,1.341h11.679a1.158,1.158,0,0,0,1.143-1.341,7.693,7.693,0,0,0-.586-1.824A4.981,4.981,0,0,0,613.63,235.4Z" transform="translate(-604.472 -225.785)"/><path class="c" d="M609.9,241a5.005,5.005,0,0,0-.7,2.618" transform="translate(-606.2 -227.809)"/><path class="c" d="M620.6,241a5.005,5.005,0,0,1,.7,2.618" transform="translate(-610.366 -227.809)"/><g transform="translate(3.867)"><path class="b" d="M616.774,227.6c0,1.979-1.277,3.639-2.937,3.639s-2.937-1.6-2.937-3.639" transform="translate(-610.705 -222.865)"/><path class="c" d="M610.981,225.366c-1.468-3.384,1.532-6.257,4.214-4.789,1.341-.128,2.362,2.426,1.341,4.661a10.469,10.469,0,0,0-1.469-2.937C614.365,222.748,611.3,222.684,610.981,225.366Z" transform="translate(-610.595 -220.184)"/></g><line class="b" y2="5.874" transform="translate(7 9.934)"/></g></svg>