<svg xmlns="http://www.w3.org/2000/svg" viewBox="0 0 134 139" enable-background="new 0 0 134 139"><g fill="#64b8df"><path d="m4 138c11.2-7.4 17.1-24.5 17.1-24.7l.2-.6-.4-.4c-11.9-12.3-18.5-28.6-18.5-45.7 0-36.2 29.3-65.6 65.3-65.6 36 0 65.3 29.4 65.3 65.6 0 36.2-29.3 65.6-65.3 65.6-7.7 0-15.3-1.4-22.5-4l-.6-.2-.4.4c-.5.4-.9.8-1.5 1.1-13.1 7.8-23.2 8.5-38.7 8.5" opacity=".1"/><path d="m67.7 2c35.5 0 64.3 29 64.3 64.6 0 35.6-28.8 64.6-64.3 64.6-7.6 0-15.1-1.3-22.2-4l-1.1-.4-.9.8c-.4.4-.8.7-1.3 1-12 7.2-21.5 8.2-35.2 8.4 9.8-8.1 14.8-22.6 15-23.4l.4-1.2-.8-.9c-11.7-12-18.2-28-18.2-44.9 0-35.6 28.9-64.6 64.3-64.6m0-2c-36.6 0-66.3 29.8-66.3 66.6 0 18 7.1 34.4 18.7 46.4-.1.4-7.1 20.5-20.2 26 17.8 0 28.8 0 43.2-8.7.7-.4 1.2-.8 1.6-1.2 7.1 2.6 14.8 4.1 22.9 4.1 36.6 0 66.3-29.8 66.3-66.6.1-36.8-29.6-66.6-66.2-66.6z"/></g><g fill="none" stroke="#64b8df" stroke-width="2" stroke-miterlimit="10"><path d="m51 64v-17c0-1.1.9-2 2-2h28c1.1 0 2 .9 2 2v17"/><path d="m61.2 45l5.8-5 5.8 5"/><path d="M83,53.8l6,5.2v26c0,1.7-1.3,3-3,3H48c-1.7,0-3-1.3-3-3V59l6-5.2"/><path d="m46 87l15-14-16-14"/><path d="M88 87 73 73 89 59"/><path d="m60 73h14"/><path d="m57 62h20"/><path d="m57 67h20"/><path d="m58 52h18v5h-18z"/></g></svg>