<?xml version="1.0" encoding="utf-8"?>
<!-- Generator: Adobe Illustrator 22.1.0, SVG Export Plug-In . SVG Version: 6.00 Build 0)  -->
<svg version="1.1" id="Layer_1" xmlns="http://www.w3.org/2000/svg" xmlns:xlink="http://www.w3.org/1999/xlink" x="0px" y="0px"
	 viewBox="0 0 14 128" style="enable-background:new 0 0 14 128;" xml:space="preserve">
<style type="text/css">
	.st0{fill:#FFFFFF;stroke:#E6E6E6;stroke-miterlimit:10;}
	.st1{fill:none;stroke:#999999;stroke-miterlimit:10;}
</style>
<g>
	<path class="st0" d="M14,31.5H3.5c-1.7,0-3-1.3-3-3v-25c0-1.7,1.3-3,3-3H14"/>
	<path class="st1" d="M10,21l-5-5l5-5"/>
	<path class="st0" d="M14,63.5H3.5c-1.7,0-3-1.3-3-3v-25c0-1.7,1.3-3,3-3H14"/>
	<path class="st1" d="M5,43l5,5l-5,5"/>
</g>
<g>
	<path class="st0" d="M0,96.5h10.5c1.7,0,3,1.3,3,3v25c0,1.7-1.3,3-3,3H0"/>
	<path class="st1" d="M4,107l5,5l-5,5"/>
	<path class="st0" d="M0,64.5h10.5c1.7,0,3,1.3,3,3v25c0,1.7-1.3,3-3,3H0"/>
	<path class="st1" d="M9,85l-5-5l5-5"/>
</g>
</svg>
