<svg xmlns="http://www.w3.org/2000/svg" viewBox="0 0 38 79" width="38" height="79" enable-background="new 0 0 38 79"><circle cx="19" cy="60" r="18.5" fill="none" stroke="#f49d56" stroke-miterlimit="10"/><g fill="#f49d56"><path d="M14,62v5h-3v-5H14 M15,61h-5v7h5V61L15,61z"/><path d="M20,57v10h-3V57H20 M21,56h-5v12h5V56L21,56z"/><path d="M26,52v15h-3V52H26 M27,51h-5v17h5V51L27,51z"/></g><circle cx="19" cy="19" r="18.5" fill="none" stroke="#c8c8c8" stroke-miterlimit="10"/><g fill="#aeaeae"><path d="M14,21v5h-3v-5H14 M15,20h-5v7h5V20L15,20z"/><path d="M20,16v10h-3V16H20 M21,15h-5v12h5V15L21,15z"/><path d="M26,11v15h-3V11H26 M27,10h-5v17h5V10L27,10z"/></g></svg>