<svg xmlns="http://www.w3.org/2000/svg" width="56" height="56" viewBox="0 0 56 56"><defs><style>.a,.c{fill:none;}.b{fill:#fff;}.c{stroke:#7c28e8;stroke-width:2px;}.d{fill:#7c28e8;}</style></defs><rect class="a" width="56" height="56" transform="translate(56) rotate(90)"/><path class="b" d="M523.5,103.5l-27,27-27-27,27-27Z" transform="translate(-468.5 -75.5)"/><g transform="translate(-171 -664.259)"><path class="c" d="M-319,829.5h21" transform="translate(505 -137.241)"/><path class="d" d="M3.5,0,7,6H0Z" transform="translate(212.5 688.759) rotate(90)"/><path class="d" d="M3.5,0,7,6H0Z" transform="translate(197.5 677.259)"/><path class="c" d="M-2.8-4.452c.63,1.087,4.2,6.74,4.947,6.74H7.958" transform="translate(198.712 689.505) rotate(-90)"/><path class="d" d="M3.5,0,7,6H0Z" transform="translate(204.5 707.352) rotate(180)"/><path class="c" d="M3.351,1.586C3.954.8,4.776-.288,5.063-.288h5.7" transform="translate(200.712 692.305) rotate(90)"/></g></svg>