<svg xmlns="http://www.w3.org/2000/svg" width="16" height="13" viewBox="0 0 16 13"><defs><style>.a{fill:#fff;}.b,.c{stroke:none;}.c{fill:#1cad2a;}</style></defs><g transform="translate(2 2)"><g class="a" transform="translate(-727 -192.927)"><path class="b" d="M 740 202.9271392822266 L 739 202.9271392822266 L 727 202.9271392822266 L 726 202.9271392822266 L 726 201.9271392822266 L 726 192.9271392822266 L 726 191.9271392822266 L 727 191.9271392822266 L 731.0055541992188 191.9271392822266 L 731.44921875 191.9271392822266 L 731.7469482421875 192.2560729980469 L 733.5032958984375 194.1964721679688 L 739 194.1964721679688 L 740 194.1964721679688 L 740 195.1964721679688 L 740 201.9271392822266 L 740 202.9271392822266 Z"/><path class="c" d="M 739 201.9271392822266 L 739 195.1964721679688 L 733.0596313476563 195.1964721679688 L 731.0055541992188 192.9271392822266 L 727 192.9271392822266 L 727 201.9271392822266 L 739 201.9271392822266 M 741 203.9271392822266 L 739 203.9271392822266 L 727 203.9271392822266 L 725 203.9271392822266 L 725 201.9271392822266 L 725 192.9271392822266 L 725 190.9271392822266 L 727 190.9271392822266 L 731.0055541992188 190.9271392822266 L 731.8928833007813 190.9271392822266 L 732.4883422851563 191.5850067138672 L 733.9469604492188 193.1964721679688 L 739 193.1964721679688 L 741 193.1964721679688 L 741 195.1964721679688 L 741 201.9271392822266 L 741 203.9271392822266 Z"/></g></g></svg>