<svg xmlns="http://www.w3.org/2000/svg" width="56" height="56" viewBox="0 0 56 56"><defs><style>.a{fill:#fff;}.b{fill:none;stroke:#0091ea;stroke-width:2px;}</style></defs><path class="a" d="M637,462.909c0,2.851-1.867,5.091-4.058,5.091H585.058c-2.272,0-4.058-2.342-4.058-5.091V417.091c0-2.851,1.867-5.091,4.058-5.091h47.884c2.272,0,4.058,2.342,4.058,5.091Z" transform="translate(-581 -412)"/><g transform="translate(0 -0.5)"><path class="b" d="M36.461,16.765v5h-6v-5h-6v5h-6v-5h-5v22h28v-22Z" transform="translate(0.539 0.735)"/><path class="b" d="M14,28H43" transform="translate(0 -1.5)"/><path class="b" d="M19.5,14.708v5" transform="translate(2.5 -0.208)"/><path class="b" d="M19.5,14.708v5" transform="translate(14.5 -0.208)"/></g></svg>