<svg xmlns="http://www.w3.org/2000/svg" viewBox="0 0 69 55" enable-background="new 0 0 69 55"><path d="M59,55H10C4.5,55,0,50.5,0,45V10C0,4.5,4.5,0,10,0h49c5.5,0,10,4.5,10,10v35C69,50.5,64.5,55,59,55z" fill="#9d85c9"/><g fill="#fff"><path d="M46,39c0-6.3-5.1-10-11.5-10S23,32.9,23,39C27.2,39,41.5,39,46,39z"/><circle cx="34.5" cy="20.5" r="5.5"/><path d="M 35 45 35 34 40.4 34 42.4 36 49 36 49 45"/></g><path d="M40,35l2,2h6v7H36v-9H40 M40.8,33H40h-4h-2v2v9v2h2h12h2v-2v-7v-2h-2h-5.2l-1.4-1.4L40.8,33L40.8,33
		z" fill="#9d85c9"/></svg>