<svg xmlns="http://www.w3.org/2000/svg" xmlns:xlink="http://www.w3.org/1999/xlink" width="70" height="56" viewBox="0 0 70 56"><defs><style>.a{fill:url(#a);}.b,.c,.e{fill:none;}.b,.c,.d,.g{stroke:#fff;stroke-miterlimit:10;stroke-width:2px;}.c,.d{stroke-linecap:round;}.d,.g{fill:#fff;}.f{opacity:0.5;}</style><linearGradient id="a" x1="1" y1="1" x2="0" gradientUnits="objectBoundingBox"><stop offset="0" stop-color="#1d76f2"/><stop offset="1" stop-color="#1ac2fb"/></linearGradient></defs><rect class="a" width="70" height="56" rx="5"/><g transform="translate(-663.523 -795)"><g transform="translate(83 591)"><path class="b" d="M618.9,235.4a6.28,6.28,0,0,1-6.8,0,6.478,6.478,0,0,0-4.036,1.554A10.726,10.726,0,0,0,604.5,243.3a1.817,1.817,0,0,0,1.8,2.1h18.4a1.817,1.817,0,0,0,1.8-2.1C625.8,239.4,622.8,235.4,618.9,235.4Z"/><path class="b" d="M620.1,227.6c0,3.1-2,5.7-4.6,5.7s-4.6-2.5-4.6-5.7"/><path class="c" d="M610.3,241a7.84,7.84,0,0,0-1.1,4.1"/><path class="c" d="M620.6,241a7.84,7.84,0,0,1,1.1,4.1"/><path class="d" d="M611.273,228.3a5.487,5.487,0,0,1,7.395-7.5c2.353-.2,4.145,3.8,2.353,7.3a15.8,15.8,0,0,0-2.577-4.6C617.211,224.2,611.833,224.1,611.273,228.3Z" transform="translate(-0.599)"/><line class="b" y2="9.2" transform="translate(615.5 235.9)"/><rect class="e" width="23" height="27" transform="translate(604 219)"/></g><g class="f" transform="translate(99.545 592.814)"><path class="g" d="M2780.917-5374.158h-7.963a10.963,10.963,0,0,0-4.05-8.527,4.776,4.776,0,0,1,1.107-.129c.156.072.3.14.436.205a4.981,4.981,0,0,0,2.508.661,4.971,4.971,0,0,0,2.507-.661l.078-.037c.113-.053.232-.11.358-.168a5.875,5.875,0,0,1,4.327,2.153,9.836,9.836,0,0,1,2.25,4.685,1.511,1.511,0,0,1-.335,1.24A1.592,1.592,0,0,1,2780.917-5374.158Z" transform="translate(-2159 5616.01)"/><path class="g" d="M90.1-249.159s.026-.154.085-.4a3.479,3.479,0,0,0-.247.938c-1.848-4.04,1.928-7.472,5.3-5.718,1.688-.153,2.973,2.9,1.688,5.566a6.441,6.441,0,0,0-.234-.666q0,.141,0,.285c0,2.364-1.435,4.346-3.3,4.346S90.1-246.72,90.1-249.159Z" transform="translate(520.261 475.531)"/><rect class="e" width="19" height="23" transform="translate(604.455 219.186)"/></g><g class="f" transform="translate(674 812)"><path class="g" d="M12.013,0H4.05A10.963,10.963,0,0,1,0,8.527a4.776,4.776,0,0,0,1.107.129c.156-.072.3-.14.436-.205A4.981,4.981,0,0,1,4.05,7.79a4.971,4.971,0,0,1,2.507.661l.078.037c.113.053.232.11.358.168A5.875,5.875,0,0,0,11.321,6.5a9.836,9.836,0,0,0,2.25-4.685,1.511,1.511,0,0,0-.335-1.24A1.592,1.592,0,0,0,12.013,0Z" transform="translate(13.595 22.666) rotate(180)"/><path class="g" d="M.649,4.346s.026.154.085.4a3.479,3.479,0,0,1-.247-.938c-1.848,4.04,1.928,7.472,5.3,5.718,1.688.153,2.973-2.9,1.688-5.566a6.441,6.441,0,0,1-.234.666q0-.141,0-.285C7.247,1.982,5.813,0,3.948,0S.649,1.906.649,4.346Z" transform="translate(13.784 11.531) rotate(180)"/><rect class="e" width="19" height="23" transform="translate(0.045)"/></g></g></svg>