<svg xmlns="http://www.w3.org/2000/svg" width="56" height="56" viewBox="0 0 56 56"><defs><style>.a{fill:#fff;}.b,.e{fill:none;}.b{stroke:#7c28e8;}.b,.d{stroke-width:2px;}.c,.d{fill:#7c28e8;}.d{stroke:#fff;}</style></defs><path class="a" d="M523.5,103.5l-27,27-27-27,27-27Z" transform="translate(-468.5 -75.5)"/><g transform="translate(-409 -676.99)"><g transform="translate(423.65 695.876)"><path class="b" d="M30.357,25.286a4.447,4.447,0,0,1,.4,1.784,5.23,5.23,0,1,1-5.23-5.27,5.042,5.042,0,0,1,1.77.405" transform="translate(-16.277 -17.777)"/><path class="b" d="M28.9,17.931A17.916,17.916,0,0,0,24.552,16.8,9.252,9.252,0,1,0,33.8,26.012a9.441,9.441,0,0,0-1.046-4.364" transform="translate(-15.3 -16.8)"/><path class="b" d="M34.046,19,26,27.046" transform="translate(-17.391 -17.23)"/></g><path class="c" d="M26.35,29.6a1.85,1.85,0,1,1,1.85-1.85,1.928,1.928,0,0,1-1.85,1.85" transform="translate(406.552 677.297)"/><g transform="translate(439.902 689.6)"><path class="b" d="M35.5,15v3.621h3.621" transform="translate(-35.5 -10.173)"/><path class="b" d="M37.5,13v3.621h3.621" transform="translate(-35.086 -10.586)"/><path class="b" d="M39.5,11v3.621h3.621" transform="translate(-34.673 -11)"/></g></g><g transform="translate(26.35 27.263)"><circle class="c" cx="7.5" cy="7.5" r="7.5"/><path class="d" d="M-352.65,590.652v1.077l2.916,2.693v3.231h1.167v-3.231l2.917-2.693v-1.077Z" transform="translate(356.65 -586.152)"/></g><rect class="e" width="56" height="56"/></svg>