<svg xmlns="http://www.w3.org/2000/svg" width="69" height="55" viewBox="0 0 69 55"><defs><style>.a{fill:#839dc3;}.b{fill:none;stroke:#fff;}</style></defs><g transform="translate(-220 -507)"><g transform="translate(220 507)"><path class="a" d="M650,462a5.015,5.015,0,0,1-5,5H586a5.015,5.015,0,0,1-5-5V417a5.015,5.015,0,0,1,5-5h59a5.015,5.015,0,0,1,5,5Z" transform="translate(-581 -412)"/><g transform="translate(8 2)"><path class="b" d="M35,17v4H31V17H22v4H18V17H14V37H39V17Z" transform="translate(0.5 0.5)"/><path class="b" d="M14,28H39" transform="translate(0 -2.5)"/><path class="b" d="M19.5,14.708v4" transform="translate(1 -0.208)"/><path class="b" d="M19.5,14.708v4" transform="translate(14 -0.208)"/></g></g></g></svg>