<svg xmlns="http://www.w3.org/2000/svg" xmlns:xlink="http://www.w3.org/1999/xlink" width="32" height="32" viewBox="0 0 32 32"><defs><style>.a,.f{fill:#fff;}.b,.d,.g{fill:none;}.c{fill:#22ac14;}.d,.f{stroke:#22ac14;}.e{clip-path:url(#a);}.h,.i{stroke:none;}.i{fill:#22ac14;}</style><clipPath id="a"><path class="a" d="M-623.3,525.137l-4.755,9.293,9.926-4.255v13.846H-637.9V524.086h14.6Z" transform="translate(637.9 -524.086)"/></clipPath></defs><rect class="b" width="32" height="32" transform="translate(32) rotate(90)"/><circle class="c" cx="1" cy="1" r="1" transform="translate(15 15)"/><path class="d" d="M-629,533.017l5.5-5.5" transform="translate(645 -517.017)"/><path class="d" d="M-615.848,525.611v5h5" transform="translate(637.348 -520.111)"/><path class="d" d="M-615.848,525.611v5h5" transform="translate(639.348 -522.111)"/><g class="e" transform="translate(5.766 5.75)"><g class="d" transform="translate(1.234 1.25)"><circle class="h" cx="9" cy="9" r="9"/><circle class="b" cx="9" cy="9" r="8.5"/></g><g class="d" transform="translate(5.234 5.25)"><circle class="h" cx="5" cy="5" r="5"/><circle class="b" cx="5" cy="5" r="4.5"/></g></g><g class="f" transform="translate(16 18)"><circle class="h" cx="5" cy="5" r="5"/><circle class="b" cx="5" cy="5" r="4.5"/></g><g class="g" transform="translate(18 20)"><path class="h" d="M3,0,6,5H0Z"/><path class="i" d="M 3 1.943650007247925 L 1.766190052032471 4 L 4.233809947967529 4 L 3 1.943650007247925 M 3 0 L 6 5 L 0 5 L 3 0 Z"/></g></svg>