<svg xmlns="http://www.w3.org/2000/svg" width="32" height="32" viewBox="0 0 32 32"><defs><style>.a,.b,.c,.d{fill:none;}.b,.d{stroke:#006ce0;}.c,.d{stroke-miterlimit:10;}.e,.f{stroke:none;}.f{fill:#006ce0;}</style></defs><rect class="a" width="32" height="32"/><g transform="translate(7.71 9.487)"><g transform="translate(0 0)"><path class="b" d="M0,2.178H16" transform="translate(-0.71 -2.164)"/><path class="b" d="M0,2.178H10" transform="translate(-0.71 2.835)"/><path class="b" d="M0,2.178H6" transform="translate(-0.71 7.836)"/><g transform="translate(-2059.091 -117.29)"><g class="c" transform="translate(0 0)"><path class="e" d="M2070.373,131.4l-3.492.9.831-3.544,7.507-7.456,2.663,2.644Z"/><path class="f" d="M 2068.23193359375 130.9219665527344 L 2069.860595703125 130.5019836425781 L 2076.4619140625 123.9467239379883 L 2075.218505859375 122.7123031616211 L 2068.619873046875 129.2663269042969 L 2068.23193359375 130.9219665527344 M 2066.881103515625 132.302978515625 L 2067.711669921875 128.7589111328125 L 2075.218505859375 121.3029861450195 L 2077.881103515625 123.9466857910156 L 2070.372802734375 131.4026031494141 L 2066.881103515625 132.302978515625 Z"/></g><line class="d" x2="2" y2="1.999" transform="translate(2072.881 124.304)"/></g></g></g></svg>