<svg xmlns="http://www.w3.org/2000/svg" width="32" height="32" viewBox="0 0 32 32"><defs><style>.a,.b,.c,.e{fill:none;}.a{stroke-miterlimit:10;}.c,.d{stroke:#22ac14;}.d{fill:#fff;}.f,.g{stroke:none;}.g{fill:#22ac14;}</style></defs><g class="a" transform="translate(-105.498 -36.498)"><path class="f" d="M128.266,58.5H114.731a1.18,1.18,0,0,1-.892-.33,1.118,1.118,0,0,1-.338-.87V47.7a1.118,1.118,0,0,1,.338-.87,1.18,1.18,0,0,1,.892-.33h13.535a1.18,1.18,0,0,1,.892.33,1.118,1.118,0,0,1,.338.87v9.6a1.118,1.118,0,0,1-.338.87A1.18,1.18,0,0,1,128.266,58.5Z"/><path class="g" d="M 128.3355865478516 57.498291015625 C 128.3831024169922 57.498291015625 128.4283142089844 57.48077011108398 128.4596557617188 57.45022964477539 C 128.4864654541016 57.42409133911133 128.5001068115234 57.39144134521484 128.498046875 57.35828018188477 L 128.4961547851563 57.32749176025391 L 128.4961547851563 57.2966423034668 L 128.4962005615234 47.69990921020508 L 128.4962005615234 47.66915130615234 L 128.4980926513672 47.6384391784668 C 128.5001373291016 47.60522079467773 128.4864959716797 47.572509765625 128.4596557617188 47.54636001586914 C 128.4283142089844 47.51581192016602 128.3830871582031 47.4982795715332 128.3355560302734 47.4982795715332 C 128.3318481445313 47.4982795715332 128.328125 47.49839019775391 128.3243865966797 47.49861145019531 L 128.2950744628906 47.50033187866211 L 128.2657165527344 47.50033187866211 L 114.730827331543 47.50033187866211 L 114.7014923095703 47.50033187866211 L 114.6722106933594 47.49861145019531 C 114.6684646606445 47.49839019775391 114.6647338867188 47.4982795715332 114.661003112793 47.4982795715332 C 114.6134796142578 47.4982795715332 114.5682373046875 47.51581192016602 114.5369491577148 47.54631042480469 C 114.5101013183594 47.57247924804688 114.496452331543 47.60518264770508 114.4984893798828 47.63838195800781 L 114.5003890991211 47.66912078857422 L 114.5003890991211 47.69992065429688 L 114.5003890991211 57.29664993286133 L 114.5003890991211 57.32744979858398 L 114.4984893798828 57.35819244384766 C 114.496452331543 57.39139175415039 114.5101013183594 57.42407989501953 114.5369338989258 57.45024108886719 C 114.5682525634766 57.48078155517578 114.6134643554688 57.498291015625 114.6609573364258 57.498291015625 C 114.6647033691406 57.498291015625 114.6684494018555 57.4981803894043 114.6722106933594 57.49795913696289 L 114.7014923095703 57.49624252319336 L 114.730827331543 57.49624252319336 L 128.2657165527344 57.49624252319336 L 128.2950286865234 57.49624252319336 L 128.3242950439453 57.49795913696289 C 128.3280639648438 57.4981803894043 128.3318328857422 57.498291015625 128.3355865478516 57.498291015625 M 128.3355865478516 58.49828720092773 C 128.3123474121094 58.49828720092773 128.2890625 58.49760818481445 128.2657165527344 58.49624252319336 L 114.730827331543 58.49624252319336 C 114.7075042724609 58.49760818481445 114.6841888427734 58.49828720092773 114.6609649658203 58.49828720092773 C 114.3535842895508 58.49829483032227 114.0575561523438 58.37947845458984 113.8388519287109 58.166259765625 C 113.6036376953125 57.93693923950195 113.4804306030273 57.62038040161133 113.5003890991211 57.29664993286133 L 113.5003890991211 47.69992065429688 C 113.4804306030273 47.37620162963867 113.6036376953125 47.05964279174805 113.8388519287109 46.8303108215332 C 114.0575561523438 46.61711120605469 114.3536224365234 46.49828720092773 114.6609954833984 46.49828720092773 C 114.6842269897461 46.49828720092773 114.7075042724609 46.49896240234375 114.730827331543 46.50033187866211 L 128.2657165527344 46.50033187866211 C 128.2890319824219 46.49896621704102 128.3123474121094 46.49828720092773 128.3355560302734 46.49828720092773 C 128.6429748535156 46.49828720092773 128.9389953613281 46.61708831787109 129.15771484375 46.8303108215332 C 129.3929443359375 47.05963134765625 129.5161437988281 47.37620162963867 129.4962005615234 47.69992065429688 L 129.4961547851563 57.29664993286133 C 129.5161437988281 57.62038040161133 129.3929443359375 57.93695068359375 129.15771484375 58.1662712097168 C 128.9390258789063 58.37946701049805 128.6429595947266 58.49828720092773 128.3355865478516 58.49828720092773 Z"/></g><rect class="b" width="32" height="32" transform="translate(32) rotate(90)"/><path class="c" d="M5.5,9.252h16" transform="translate(2.5 5.248)"/><path class="c" d="M8.483,3.755v5" transform="translate(3.017 4.245)"/><path class="c" d="M8.483,3.755v5" transform="translate(12.017 4.245)"/><g class="d" transform="translate(16 18)"><circle class="f" cx="5" cy="5" r="5"/><circle class="b" cx="5" cy="5" r="4.5"/></g><g class="e" transform="translate(18 20)"><path class="f" d="M3,0,6,5H0Z"/><path class="g" d="M 3 1.943650007247925 L 1.766190052032471 4 L 4.233809947967529 4 L 3 1.943650007247925 M 3 0 L 6 5 L 0 5 L 3 0 Z"/></g></svg>