<svg xmlns="http://www.w3.org/2000/svg" xmlns:xlink="http://www.w3.org/1999/xlink" width="32" height="32" viewBox="0 0 32 32"><defs><style>.a,.c,.d{fill:none;}.b{clip-path:url(#a);}.c,.d,.e,.g,.h{stroke:#006ce0;stroke-miterlimit:10;}.d,.h{stroke-linejoin:round;}.e{fill:#fff;stroke-linecap:round;}.f{opacity:0.5;}.g,.h{fill:#006ce0;}</style><clipPath id="a"><rect class="a" width="32" height="32"/></clipPath></defs><g class="b"><rect class="a" width="32" height="32" transform="translate(32) rotate(90)"/><g transform="translate(1.06 1.523)"><path class="c" d="M123.289,102.5a2.94,2.94,0,1,1-5.783,0" transform="translate(-105.645 -92.523)"/><path class="c" d="M117.367,103.983c-1.388-2.215.231-6.3,3.932-5.364,2.429-.117,3.007,2.565,2.082,5.014-.231-1.749-1.735-2.215-2.2-2.8C120.374,101.3,118.176,100.718,117.367,103.983Z" transform="translate(-105.684 -93.506)"/><path class="d" d="M128.448,112.814c-.575-2.776-1.61-6.014-4.829-6.014a4.455,4.455,0,0,1-2.644.81,5.445,5.445,0,0,1-2.644-.81c-3.219,0-4.254,3.238-4.829,6.014-.115.81.345,1.735,1.15,1.735H127.3a1.423,1.423,0,0,0,.947-.618,1.439,1.439,0,0,0,.2-1.117Z" transform="translate(-106.172 -91.571)"/><line class="e" y1="2.5" transform="translate(10.313 19.977)"/><line class="e" y1="2.5" transform="translate(19.313 19.977)"/></g><g class="f" transform="translate(10.559 3.263)"><path class="g" d="M117.5,102.5a2.372,2.372,0,1,0,4.665,0c-.172-.935-2.512-3.43-2.512-3.43Z" transform="translate(-106.515 -93.229)"/><path class="g" d="M117.271,102.92c-1.12-1.787.187-5.079,3.172-4.327,1.959-.094,2.426,2.069,1.679,4.045-.187-1.411-1.4-1.787-1.773-2.257C119.7,100.756,117.925,100.286,117.271,102.92Z" transform="translate(-106.434 -93.246)"/><path class="h" d="M2717.653-5273.834h-3.576a9.418,9.418,0,0,0-1.291-4.25,10.229,10.229,0,0,0-.765-1.142,4.468,4.468,0,0,0,.532.054h.063a3.579,3.579,0,0,0,2.07-.654h0a3.079,3.079,0,0,1,2.747,1.586,10.114,10.114,0,0,1,1.148,3.266,1.168,1.168,0,0,1-.163.9c-.128.192-.309.2-.518.214a2.032,2.032,0,0,0-.245.023Z" transform="translate(-2699.196 5293.072)"/></g><g class="f" transform="translate(2 8.5)"><path class="g" d="M122.162,102.5a2.372,2.372,0,1,1-4.665,0c.172-.935,2.512-3.431,2.512-3.431Z" transform="translate(-113.731 -98.467)"/><path class="g" d="M122.062,102.92c1.12-1.787-.187-5.079-3.172-4.327-1.959-.094-2.426,2.069-1.679,4.045.187-1.411,1.4-1.787,1.773-2.257C119.637,100.757,121.409,100.286,122.062,102.92Z" transform="translate(-113.487 -98.483)"/><path class="h" d="M4.06,5.99h0a3.578,3.578,0,0,0-2.065-.653H1.927a4.385,4.385,0,0,0-.531.053A10.246,10.246,0,0,0,2.161,4.25,9.425,9.425,0,0,0,3.452,0H7.028a2.139,2.139,0,0,0,.246.023c.21.012.391.022.518.214a1.169,1.169,0,0,1,.163.9A10.1,10.1,0,0,1,6.807,4.4,3.08,3.08,0,0,1,4.06,5.99Z" transform="translate(7.984 14) rotate(180)"/></g></g></svg>