<svg xmlns="http://www.w3.org/2000/svg" xmlns:xlink="http://www.w3.org/1999/xlink" width="70" height="56" viewBox="0 0 70 56"><defs><style>.a{fill:url(#a);}.b{fill:none;stroke:#fff;stroke-width:2px;}</style><linearGradient id="a" x1="1" y1="1" x2="0" gradientUnits="objectBoundingBox"><stop offset="0" stop-color="#1d76f2"/><stop offset="1" stop-color="#1ac2fb"/></linearGradient></defs><path class="a" d="M651,462.909A5.1,5.1,0,0,1,645.928,468H586.072A5.1,5.1,0,0,1,581,462.909V417.091A5.1,5.1,0,0,1,586.072,412h59.855A5.1,5.1,0,0,1,651,417.091Z" transform="translate(-581 -412)"/><g transform="translate(23.093 19.596)"><g transform="translate(0.369 0.344)"><path class="b" d="M0,2.178H25" transform="translate(-0.462 -2.118)"/><path class="b" d="M0,2.178H16" transform="translate(-0.462 4.882)"/><path class="b" d="M0,2.178H8" transform="translate(-0.462 11.882)"/><path class="b" d="M0,2.178H16" transform="translate(12.538 11.882)"/><path class="b" d="M0,0H16" transform="translate(20.538 22.06) rotate(-90)"/></g></g></svg>