<svg xmlns="http://www.w3.org/2000/svg" viewBox="0 0 32 32" enable-background="new 0 0 32 32"><path d="M28.3,32H3.6c-2,0-3.6-1.5-3.6-3.6V3.6C0,1.5,1.5,0,3.6,0h24.8c2,0,3.6,1.5,3.6,3.6v24.9
	C31.9,30.5,30.4,32,28.3,32z" fill="#9494eb"/><g fill="#fff"><path d="m7.2 10.2c-.1.2-.2.5-.2.8v7c0 1.1.9 2 2 2h11c1.1 0 2-.9 2-2v-7c0-.3-.1-.6-.2-.8l-7.3 7.3-7.3-7.3"/><path d="m9 9c-.3 0-.6.1-.8.2l6.3 6.3 6.3-6.3c-.2-.1-.5-.2-.8-.2h-11"/><path d="m23 12v7c0 1.1-.9 2-2 2h-11c0 1.1.9 2 2 2h11c1.1 0 2-.9 2-2v-7c0-1.1-.9-2-2-2"/></g></svg>