<svg xmlns="http://www.w3.org/2000/svg" width="56" height="56" viewBox="0 0 56 56"><defs><style>.a{fill:#fff;}.b{fill:none;stroke:#0091ea;stroke-width:2px;}</style></defs><path class="a" d="M637,462.909c0,2.851-1.867,5.091-4.058,5.091H585.058c-2.272,0-4.058-2.342-4.058-5.091V417.091c0-2.851,1.867-5.091,4.058-5.091h47.884c2.272,0,4.058,2.342,4.058,5.091Z" transform="translate(-581 -412)"/><g transform="translate(15.093 19.596)"><g transform="translate(0.369 0.344)"><path class="b" d="M0,2.178H25" transform="translate(-0.462 -2.118)"/><path class="b" d="M0,2.178H16" transform="translate(-0.462 4.882)"/><path class="b" d="M0,2.178H8" transform="translate(-0.462 11.882)"/><path class="b" d="M0,2.178H16" transform="translate(12.538 11.882)"/><path class="b" d="M0,0H16" transform="translate(20.538 22.06) rotate(-90)"/></g></g></svg>