<?xml version="1.0" encoding="utf-8"?>
<!-- Generator: Adobe Illustrator 19.1.0, SVG Export Plug-In . SVG Version: 6.00 Build 0)  -->
<svg version="1.1" id="Layer_1" xmlns="http://www.w3.org/2000/svg" xmlns:xlink="http://www.w3.org/1999/xlink" x="0px" y="0px"
	 viewBox="-31 802 38 79" width="38" height="79" style="enable-background:new -31 802 38 79;" xml:space="preserve">
<style type="text/css">
	.st0{fill:#F49D56;}
	.st1{fill:#C2C2C2;}
</style>
<path class="st0" d="M-12,881c-10.5,0-19-8.5-19-19s8.5-19,19-19s19,8.5,19,19S-1.5,881-12,881z M-12,844c-9.9,0-18,8.1-18,18
	s8.1,18,18,18c9.9,0,18-8.1,18-18S-2.1,844-12,844z"/>
<path class="st1" d="M-12,840c-10.5,0-19-8.5-19-19s8.5-19,19-19s19,8.5,19,19S-1.5,840-12,840z M-12,803c-9.9,0-18,8.1-18,18
	s8.1,18,18,18c9.9,0,18-8.1,18-18S-2.1,803-12,803z"/>
<path class="st0" d="M-4,853v-2h-3v2h-9v-2h-3v2h-4v4v1v13H0v-18H-4z M-6,852h1v3h-1V852z M-18,852h1v3h-1V852z M-22,857v-3h3v2h3
	v-2h9v2h3v-2h3v3v1v12h-21v-12V857z"/>
<path class="st1" d="M-4,812v-2h-3v2h-9v-2h-3v2h-4v3.8v1V830H0v-18H-4z M-6,811h1v3h-1V811z M-18,811h1v3h-1V811z M-22,815.8V813h3
	v2h3v-2h9v2h3v-2h3v2.8v1V829h-21v-12.2V815.8z"/>
<g>
	<path class="st0" d="M-5.1,866.2l-13.9-3.9v-1.9l14-3.4v9 M-18.1,861.5l12.1,3.9v-7.3l-12,3.1V861"/>
	<path class="st0" d="M-12.9,868h-3.4l-1.6-5.6V861h1v1.4l1.3,4.6h1.6l-1.5-3.7l0.7-0.1L-12.9,868z"/>
</g>
<g>
	<path class="st1" d="M-5.1,825.2l-13.9-3.9v-1.9l14-3.4v9 M-18.1,820.5l12.1,3.9v-7.3l-12,3.1V820"/>
	<path class="st1" d="M-12.9,827h-3.4l-1.6-5.6V820h1v1.4l1.3,4.6h1.6l-1.5-3.7l0.7-0.1L-12.9,827z"/>
</g>
</svg>
