<svg xmlns="http://www.w3.org/2000/svg" xmlns:xlink="http://www.w3.org/1999/xlink" width="70" height="56" viewBox="0 0 70 56"><defs><style>.a{fill:url(#a);}.b{fill:none;stroke:#fff;stroke-width:2px;}</style><linearGradient id="a" x1="1" y1="1" x2="0" gradientUnits="objectBoundingBox"><stop offset="0" stop-color="#1d76f2"/><stop offset="1" stop-color="#1ac2fb"/></linearGradient></defs><path class="a" d="M651,462.909A5.1,5.1,0,0,1,645.928,468H586.072A5.1,5.1,0,0,1,581,462.909V417.091A5.1,5.1,0,0,1,586.072,412h59.855A5.1,5.1,0,0,1,651,417.091Z" transform="translate(-581 -412)"/><g transform="translate(7 -0.5)"><path class="b" d="M36.461,16.765v5h-6v-5h-6v5h-6v-5h-5v22h28v-22Z" transform="translate(0.539 0.735)"/><path class="b" d="M14,28H43" transform="translate(0 -1.5)"/><path class="b" d="M19.5,14.708v5" transform="translate(2.5 -0.208)"/><path class="b" d="M19.5,14.708v5" transform="translate(14.5 -0.208)"/></g></svg>