<svg xmlns="http://www.w3.org/2000/svg" xmlns:xlink="http://www.w3.org/1999/xlink" width="56" height="56" viewBox="0 0 56 56"><defs><style>.a{fill:url(#a);}.b,.f{fill:none;}.b{stroke:#fff;stroke-miterlimit:10;}.b,.d{stroke-width:2px;}.c,.d{fill:#fff;}.d{stroke:#1cad2a;}.e{stroke:none;}</style><linearGradient id="a" x2="1" y2="0.927" gradientUnits="objectBoundingBox"><stop offset="0" stop-color="#17df00"/><stop offset="1" stop-color="#0f9b00"/></linearGradient></defs><circle class="a" cx="28" cy="28" r="28"/><g transform="translate(15.3 16.8)"><path class="b" d="M32.8,26.133a5.527,5.527,0,0,1,.5,2.217,6.5,6.5,0,1,1-6.5-6.55,6.267,6.267,0,0,1,2.2.5" transform="translate(-15.3 -16.8)"/><path class="b" d="M32.2,18.206A22.268,22.268,0,0,0,26.8,16.8,11.5,11.5,0,1,0,38.3,28.25,11.734,11.734,0,0,0,37,22.826" transform="translate(-15.3 -16.8)"/><path class="b" d="M36,19,26,29" transform="translate(-15.3 -16.8)"/></g><path class="c" d="M26.8,30.5a2.3,2.3,0,1,1,2.3-2.3,2.4,2.4,0,0,1-2.3,2.3"/><g transform="translate(35.5 9)"><path class="b" d="M35.5,15v4.5H40" transform="translate(-35.5 -9)"/><path class="b" d="M37.5,13v4.5H42" transform="translate(-34.5 -10)"/><path class="b" d="M39.5,11v4.5H44" transform="translate(-33.5 -11)"/></g><g transform="translate(30.5 30.5)"><g class="d"><circle class="e" cx="7.5" cy="7.5" r="7.5"/><circle class="f" cx="7.5" cy="7.5" r="8.5"/></g><path class="d" d="M57.5,136.5l3.5-6,3.5,6Z" transform="translate(-53.5 -126.5)"/></g></svg>