<svg xmlns="http://www.w3.org/2000/svg" xmlns:xlink="http://www.w3.org/1999/xlink" width="32" height="32" viewBox="0 0 32 32"><defs><style>.a,.f{fill:#fff;}.b,.d,.g{fill:none;}.c{fill:#7c28e8;}.d,.f{stroke:#7c28e8;}.e{clip-path:url(#a);}.h,.i{stroke:none;}.i{fill:#7c28e8;}</style><clipPath id="a"><path class="a" d="M-623.3,525.137l-4.755,9.293,9.926-4.255v13.846H-637.9V524.086h14.6Z" transform="translate(637.9 -524.086)"/></clipPath></defs><rect class="b" width="32" height="32" transform="translate(32) rotate(90)"/><circle class="c" cx="1" cy="1" r="1" transform="translate(15 15)"/><g transform="translate(-535.799 -280.799)"><path class="d" d="M-629,533.017l5.5-5.5" transform="translate(1180.799 -236.218)"/><path class="d" d="M-615.848,525.611v5h5" transform="translate(1173.147 -239.312)"/><path class="d" d="M-615.848,525.611v5h5" transform="translate(1175.147 -241.312)"/></g><g class="e" transform="translate(5.766 5.75)"><g class="d" transform="translate(1.234 1.25)"><circle class="h" cx="9" cy="9" r="9"/><circle class="b" cx="9" cy="9" r="8.5"/></g><g class="d" transform="translate(5.234 5.25)"><circle class="h" cx="5" cy="5" r="5"/><circle class="b" cx="5" cy="5" r="4.5"/></g></g><g class="f" transform="translate(16 18)"><circle class="h" cx="5" cy="5" r="5"/><circle class="b" cx="5" cy="5" r="4.5"/></g><g class="g" transform="translate(24 25) rotate(180)"><path class="h" d="M3,0,6,4H0Z"/><path class="i" d="M 3 1.666666746139526 L 2 3 L 4 3 L 3 1.666666746139526 M 3 0 L 6 4 L 0 4 L 3 0 Z"/></g><line class="d" y2="2" transform="translate(21 24)"/></svg>