<svg xmlns="http://www.w3.org/2000/svg" width="56" height="56" viewBox="0 0 56 56"><defs><style>.a{fill:#fff;}.b{fill:none;stroke:#13b900;stroke-miterlimit:10;}.b,.d{stroke-width:2px;}.c,.d{fill:#13b900;}.d{stroke:#fff;}</style></defs><g transform="translate(-932 -183)"><g transform="translate(932 183)"><circle class="a" cx="28" cy="28" r="28"/><g transform="translate(1)"><path class="b" d="M32.8,26.133a5.527,5.527,0,0,1,.5,2.217,6.5,6.5,0,1,1-6.5-6.55,6.267,6.267,0,0,1,2.2.5"/><path class="b" d="M32.2,18.206A22.268,22.268,0,0,0,26.8,16.8,11.5,11.5,0,1,0,38.3,28.25,11.734,11.734,0,0,0,37,22.826" transform="translate(0 0)"/><path class="b" d="M36,19,26,29"/></g><path class="c" d="M26.8,30.5a2.3,2.3,0,1,1,2.3-2.3,2.4,2.4,0,0,1-2.3,2.3" transform="translate(1)"/><g transform="translate(1)"><path class="b" d="M35.5,15v4.5H40"/><path class="b" d="M37.5,13v4.5H42" transform="translate(1 -1)"/><path class="b" d="M39.5,11v4.5H44" transform="translate(2 -2)"/></g></g><g transform="translate(963.262 214.263)"><circle class="c" cx="7.5" cy="7.5" r="7.5"/><path class="d" d="M57.5,136.5l3.5-6,3.5,6Z" transform="translate(-53.5 -126.5)"/></g></g></svg>