<svg xmlns="http://www.w3.org/2000/svg" viewBox="0 0 32 32" enable-background="new 0 0 32 32"><path d="M28.4,32H3.6c-2,0-3.6-1.5-3.6-3.6V3.6C0,1.5,1.5,0,3.6,0h24.9c2,0,3.6,1.5,3.6,3.6v24.9
	C32,30.5,30.5,32,28.4,32z" fill="#9d85c9"/><g fill="#fff"><path d="M23,22c0-3.8-3.1-6-7-6s-7,2.4-7,6C11.5,22,20.2,22,23,22z"/><circle cx="16" cy="11" r="3.3"/><path d="M 16.5 25.5 16.5 18.5 20.2 18.5 21.2 19.5 25.5 19.5 25.5 25.5"/></g><path d="M20,19l1,1h4v5h-8v-6H20 M20.4,18H20h-3h-1v1v6v1h1h8h1v-1v-5v-1h-1h-3.6l-0.7-0.7L20.4,18L20.4,18z
		" fill="#9d85c9"/></svg>