<svg xmlns="http://www.w3.org/2000/svg" width="56" height="56" viewBox="0 0 56 56"><defs><style>.a{fill:#fff;}.b,.f{fill:none;stroke:#13b900;}.b,.d,.f{stroke-width:2px;}.c,.d{fill:#13b900;}.d{stroke:#fff;}.e{fill:rgba(255,255,255,0.75);}.f{stroke-miterlimit:10;}</style></defs><circle class="a" cx="28" cy="28" r="28"/><g transform="translate(0 -0.5)"><path class="b" d="M36.461,16.765v5h-6v-5h-6v5h-6v-5h-5v22h28v-22Z" transform="translate(0.539 0.735)"/><path class="b" d="M14,28H43" transform="translate(0 -1.5)"/><path class="b" d="M19.5,14.708v5" transform="translate(2.5 -0.208)"/><path class="b" d="M19.5,14.708v5" transform="translate(14.5 -0.208)"/></g><g transform="translate(31.262 31.263)"><circle class="c" cx="7.5" cy="7.5" r="7.5"/><path class="d" d="M57.5,136.5l3.5-6,3.5,6Z" transform="translate(-53.5 -126.5)"/></g><circle class="e" cx="7.5" cy="7.5" r="7.5" transform="translate(35.5 13.263)"/><g transform="translate(-698 -160)"><path class="f" d="M1484.82,193.038a4.5,4.5,0,1,0-3.056-4.015" transform="translate(-744.757 -8.273)"/><path class="c" d="M1479.25,188.773l3,4,3-4Z" transform="translate(-745.25 -8.773)"/></g></svg>