<svg xmlns="http://www.w3.org/2000/svg" viewBox="0 0 42 42" enable-background="new 0 0 42 42"><path d="M39,42H3c-1.7,0-3-1.3-3-3V3c0-1.7,1.3-3,3-3h36c1.7,0,3,1.3,3,3v36C42,40.7,40.7,42,39,42z" fill="#fff"/><g fill="#9d85c9"><path d="M29.5,30c0-5-3.7-8-8.5-8s-8.5,3.1-8.5,8C15.6,30,26.2,30,29.5,30z"/><circle cx="21" cy="16" r="4"/><path d="M 21.5 33.5 21.5 25.5 25.5 25.5 27.1 26.5 31.5 26.5 31.5 33.5"/></g><path d="M25.4,26l1.6,1h4v6h-9v-7H25.4 M25.7,25h-0.3H22h-1v1v7v1h1h9h1v-1v-6v-1h-1h-3.7l-1.4-0.9L25.7,25
		L25.7,25z" fill="#fff"/></svg>