<svg xmlns="http://www.w3.org/2000/svg" viewBox="0 0 38 79" width="38" height="79" enable-background="new 0 0 38 79"><g fill="none" stroke-miterlimit="10"><g stroke="#f49d56"><circle cx="19" cy="60" r="18.5"/><path d="M 15,53.5 27,53.5"/><path d="M 11,53.5 13,53.5"/><path d="M 15,57.5 27,57.5"/><path d="M 11,57.5 13,57.5"/><path d="M 15,61.5 27,61.5"/><path d="M 11,61.5 13,61.5"/><path d="M 15,65.5 27,65.5"/><path d="M 11,65.5 13,65.5"/></g><circle cx="19" cy="19" r="18.5" stroke="#c2c2c2"/><g stroke="#aeaeae"><path d="M 15,12.5 27,12.5"/><path d="M 11,12.5 13,12.5"/><path d="M 15,16.5 27,16.5"/><path d="M 11,16.5 13,16.5"/><path d="M 15,20.5 27,20.5"/><path d="M 11,20.5 13,20.5"/><path d="M 15,24.5 27,24.5"/><path d="M 11,24.5 13,24.5"/></g></g></svg>