<svg width="16" height="48" viewBox="0 0 16 48" fill="none" xmlns="http://www.w3.org/2000/svg">
<path d="M9.13646 6.32129H7.2793C7.2793 6.59986 7.2793 6.87843 7.2793 7.24985C7.2793 7.62127 7.2793 7.89984 7.2793 8.17841H9.13646C9.13646 7.89984 9.13646 7.62127 9.13646 7.24985C9.13646 6.87843 9.13646 6.59986 9.13646 6.32129Z" fill="#0D2E4E"/>
<path d="M7.36377 8.64258C7.44819 9.57114 7.70144 10.2211 7.95468 10.4997C8.0391 10.4997 8.12352 10.4997 8.20793 10.4997C8.29235 10.4997 8.37677 10.4997 8.46118 10.4997C8.71443 10.2211 8.96768 9.57114 9.0521 8.64258H7.36377Z" fill="#0D2E4E"/>
<path d="M9.64327 5.85696H11.1628C10.7407 5.02125 10.0654 4.46412 9.22119 4.18555C9.39002 4.64983 9.55886 5.20696 9.64327 5.85696Z" fill="#0D2E4E"/>
<path d="M9.72699 7.24985C9.72699 7.52842 9.72699 7.89984 9.72699 8.17841H11.3309C11.4153 7.89984 11.4997 7.52842 11.4997 7.24985C11.4997 6.97128 11.4153 6.59986 11.3309 6.32129H9.64258C9.64258 6.59986 9.72699 6.97128 9.72699 7.24985Z" fill="#0D2E4E"/>
<path d="M9.0521 5.85712C8.96768 4.92856 8.71443 4.27857 8.46118 4C8.37677 4 8.29235 4 8.20793 4C8.12352 4 8.0391 4 7.95468 4C7.70144 4.27857 7.44819 4.92856 7.36377 5.85712H9.0521Z" fill="#0D2E4E"/>
<path d="M6.68833 7.24985C6.68833 6.97128 6.68833 6.59986 6.68833 6.32129H5.16883C5.08442 6.59986 5 6.97128 5 7.24985C5 7.52842 5.08442 7.89984 5.16883 8.17841H6.77275C6.77275 7.89984 6.68833 7.52842 6.68833 7.24985Z" fill="#0D2E4E"/>
<path d="M6.77248 8.64258H5.3374C5.67507 9.47828 6.3504 10.0354 7.19456 10.314C7.02573 9.84971 6.8569 9.29257 6.77248 8.64258Z" fill="#0D2E4E"/>
<path d="M9.64327 8.64258C9.55886 9.29257 9.39002 9.84971 9.22119 10.314C10.0654 10.0354 10.7407 9.38543 11.1628 8.64258H9.64327Z" fill="#0D2E4E"/>
<path d="M6.77248 5.85696C6.8569 5.20696 7.02573 4.64983 7.19456 4.18555C6.3504 4.46412 5.67507 5.02125 5.3374 5.85696H6.77248Z" fill="#0D2E4E"/>
<path d="M9.13646 22.3213H7.2793C7.2793 22.5999 7.2793 22.8784 7.2793 23.2499C7.2793 23.6213 7.2793 23.8998 7.2793 24.1784H9.13646C9.13646 23.8998 9.13646 23.6213 9.13646 23.2499C9.13646 22.8784 9.13646 22.5999 9.13646 22.3213Z" fill="#0057F9"/>
<path d="M7.36377 24.6426C7.44819 25.5711 7.70144 26.2211 7.95468 26.4997C8.0391 26.4997 8.12352 26.4997 8.20793 26.4997C8.29235 26.4997 8.37677 26.4997 8.46118 26.4997C8.71443 26.2211 8.96768 25.5711 9.0521 24.6426H7.36377Z" fill="#0057F9"/>
<path d="M9.64327 21.857H11.1628C10.7407 21.0213 10.0654 20.4641 9.22119 20.1855C9.39002 20.6498 9.55886 21.207 9.64327 21.857Z" fill="#0057F9"/>
<path d="M9.72699 23.2499C9.72699 23.5284 9.72699 23.8998 9.72699 24.1784H11.3309C11.4153 23.8998 11.4997 23.5284 11.4997 23.2499C11.4997 22.9713 11.4153 22.5999 11.3309 22.3213H9.64258C9.64258 22.5999 9.72699 22.9713 9.72699 23.2499Z" fill="#0057F9"/>
<path d="M9.0521 21.8571C8.96768 20.9286 8.71443 20.2786 8.46118 20C8.37677 20 8.29235 20 8.20793 20C8.12352 20 8.0391 20 7.95468 20C7.70144 20.2786 7.44819 20.9286 7.36377 21.8571H9.0521Z" fill="#0057F9"/>
<path d="M6.68833 23.2499C6.68833 22.9713 6.68833 22.5999 6.68833 22.3213H5.16883C5.08442 22.5999 5 22.9713 5 23.2499C5 23.5284 5.08442 23.8998 5.16883 24.1784H6.77275C6.77275 23.8998 6.68833 23.5284 6.68833 23.2499Z" fill="#0057F9"/>
<path d="M6.77248 24.6426H5.3374C5.67507 25.4783 6.3504 26.0354 7.19456 26.314C7.02573 25.8497 6.8569 25.2926 6.77248 24.6426Z" fill="#0057F9"/>
<path d="M9.64327 24.6426C9.55886 25.2926 9.39002 25.8497 9.22119 26.314C10.0654 26.0354 10.7407 25.3854 11.1628 24.6426H9.64327Z" fill="#0057F9"/>
<path d="M6.77248 21.857C6.8569 21.207 7.02573 20.6498 7.19456 20.1855C6.3504 20.4641 5.67507 21.0213 5.3374 21.857H6.77248Z" fill="#0057F9"/>
<path d="M9.13646 38.3208H7.2793C7.2793 38.5994 7.2793 38.8779 7.2793 39.2494C7.2793 39.6208 7.2793 39.8994 7.2793 40.1779H9.13646C9.13646 39.8994 9.13646 39.6208 9.13646 39.2494C9.13646 38.8779 9.13646 38.5994 9.13646 38.3208Z" fill="#004EE0"/>
<path d="M7.36426 40.6431C7.44867 41.5716 7.70192 42.2216 7.95517 42.5002C8.03959 42.5002 8.12401 42.5002 8.20842 42.5002C8.29284 42.5002 8.37726 42.5002 8.46167 42.5002C8.71492 42.2216 8.96817 41.5716 9.05259 40.6431H7.36426Z" fill="#004EE0"/>
<path d="M9.64327 37.8574H11.1628C10.7407 37.0217 10.0654 36.4646 9.22119 36.186C9.39002 36.6503 9.55886 37.2075 9.64327 37.8574Z" fill="#004EE0"/>
<path d="M9.72748 39.2494C9.72748 39.5279 9.72748 39.8994 9.72748 40.1779H11.3314C11.4158 39.8994 11.5002 39.5279 11.5002 39.2494C11.5002 38.9708 11.4158 38.5994 11.3314 38.3208H9.64307C9.64307 38.5994 9.72748 38.9708 9.72748 39.2494Z" fill="#004EE0"/>
<path d="M9.05259 37.8571C8.96817 36.9286 8.71492 36.2786 8.46167 36C8.37726 36 8.29284 36 8.20842 36C8.12401 36 8.03959 36 7.95517 36C7.70192 36.2786 7.44867 36.9286 7.36426 37.8571H9.05259Z" fill="#004EE0"/>
<path d="M6.68833 39.2494C6.68833 38.9708 6.68833 38.5994 6.68833 38.3208H5.16883C5.08442 38.5994 5 38.9708 5 39.2494C5 39.5279 5.08442 39.8994 5.16883 40.1779H6.77275C6.77275 39.8994 6.68833 39.5279 6.68833 39.2494Z" fill="#004EE0"/>
<path d="M6.77248 40.6431H5.3374C5.67507 41.4788 6.3504 42.0359 7.19456 42.3145C7.02573 41.8502 6.8569 41.2931 6.77248 40.6431Z" fill="#004EE0"/>
<path d="M9.64327 40.6431C9.55886 41.2931 9.39002 41.8502 9.22119 42.3145C10.0654 42.0359 10.7407 41.3859 11.1628 40.6431H9.64327Z" fill="#004EE0"/>
<path d="M6.77248 37.8574C6.8569 37.2075 7.02573 36.6503 7.19456 36.186C6.3504 36.4646 5.67507 37.0217 5.3374 37.8574H6.77248Z" fill="#004EE0"/>
</svg>
