<svg width="16" height="48" viewBox="0 0 16 48" fill="none" xmlns="http://www.w3.org/2000/svg">
<path d="M7.73496 4C7.2076 4 6.83128 4.08487 6.57212 4.18476C6.44295 4.23454 6.34492 4.28729 6.27349 4.33318C6.23787 4.35606 6.20912 4.37708 6.18663 4.39492C6.18105 4.39935 6.17586 4.40358 6.17105 4.40759L6.12695 4.44801C6.04552 4.53178 6 4.6424 6 4.75755V10.5472C6 10.7973 6.21039 11 6.46992 11C6.72944 11 6.93983 10.7973 6.93983 10.5472V8.67552C7.08018 8.62424 7.33207 8.56254 7.73496 8.56254C8.10629 8.56254 8.42165 8.67925 8.82548 8.8349L8.84966 8.84422C9.23206 8.99171 9.69957 9.17203 10.265 9.17203C10.7924 9.17203 11.1687 9.08716 11.4279 8.98727C11.557 8.93748 11.6551 8.88473 11.7265 8.83885C11.7621 8.81596 11.7909 8.79495 11.8134 8.77711C11.8246 8.76819 11.8343 8.76008 11.8424 8.75295C11.8465 8.74938 11.8502 8.74606 11.8535 8.74301L11.8582 8.73862L11.8604 8.73659L11.8614 8.73561L11.8619 8.73513C11.8619 8.73513 11.8624 8.73466 11.5301 8.41448L11.8624 8.73466C11.9505 8.64974 12 8.53457 12 8.41448V4.75755C12 4.57441 11.8855 4.4093 11.7099 4.33921C11.5412 4.27188 11.3481 4.30499 11.214 4.4225C11.2122 4.42379 11.2093 4.42579 11.2052 4.42841C11.1877 4.43967 11.1473 4.4631 11.0788 4.4895C10.9427 4.54198 10.6865 4.60949 10.265 4.60949C9.89371 4.60949 9.57835 4.49278 9.17452 4.33713L9.15034 4.3278C8.76794 4.18032 8.30043 4 7.73496 4Z" fill="#0D2E4E"/>
<path d="M7.73496 20.0044C7.2076 20.0044 6.83128 20.0893 6.57212 20.1892C6.44295 20.2389 6.34492 20.2917 6.27349 20.3376C6.23787 20.3605 6.20912 20.3815 6.18663 20.3993C6.18105 20.4037 6.17586 20.408 6.17105 20.412L6.12695 20.4524C6.04552 20.5362 6 20.6468 6 20.7619V26.5516C6 26.8017 6.21039 27.0044 6.46992 27.0044C6.72944 27.0044 6.93983 26.8017 6.93983 26.5516V24.6799C7.08018 24.6286 7.33207 24.5669 7.73496 24.5669C8.10629 24.5669 8.42165 24.6836 8.82548 24.8393L8.84966 24.8486C9.23206 24.9961 9.69957 25.1764 10.265 25.1764C10.7924 25.1764 11.1687 25.0916 11.4279 24.9917C11.557 24.9419 11.6551 24.8891 11.7265 24.8432C11.7621 24.8204 11.7909 24.7993 11.8134 24.7815C11.8246 24.7726 11.8343 24.7645 11.8424 24.7573C11.8465 24.7538 11.8502 24.7505 11.8535 24.7474L11.8582 24.743L11.8604 24.741L11.8614 24.74L11.8619 24.7395C11.8619 24.7395 11.8624 24.7391 11.5301 24.4189L11.8624 24.7391C11.9505 24.6541 12 24.539 12 24.4189V20.7619C12 20.5788 11.8855 20.4137 11.7099 20.3436C11.5412 20.2763 11.3481 20.3094 11.214 20.4269C11.2122 20.4282 11.2093 20.4302 11.2052 20.4328C11.1877 20.4441 11.1473 20.4675 11.0788 20.4939C10.9427 20.5464 10.6865 20.6139 10.265 20.6139C9.89371 20.6139 9.57835 20.4972 9.17452 20.3415L9.15034 20.3322C8.76794 20.1847 8.30043 20.0044 7.73496 20.0044Z" fill="#0057F9"/>
<path d="M7.73496 36.0044C7.2076 36.0044 6.83128 36.0893 6.57212 36.1892C6.44295 36.2389 6.34492 36.2917 6.27349 36.3376C6.23787 36.3605 6.20912 36.3815 6.18663 36.3993C6.18105 36.4037 6.17586 36.408 6.17105 36.412L6.12695 36.4524C6.04552 36.5362 6 36.6468 6 36.7619V42.5516C6 42.8017 6.21039 43.0044 6.46992 43.0044C6.72944 43.0044 6.93983 42.8017 6.93983 42.5516V40.6799C7.08018 40.6286 7.33207 40.5669 7.73496 40.5669C8.10629 40.5669 8.42165 40.6836 8.82548 40.8393L8.84966 40.8486C9.23206 40.9961 9.69957 41.1764 10.265 41.1764C10.7924 41.1764 11.1687 41.0916 11.4279 40.9917C11.557 40.9419 11.6551 40.8891 11.7265 40.8432C11.7621 40.8204 11.7909 40.7993 11.8134 40.7815C11.8246 40.7726 11.8343 40.7645 11.8424 40.7573C11.8465 40.7538 11.8502 40.7505 11.8535 40.7474L11.8582 40.743L11.8604 40.741L11.8614 40.74L11.8619 40.7395C11.8619 40.7395 11.8624 40.7391 11.5301 40.4189L11.8624 40.7391C11.9505 40.6541 12 40.539 12 40.4189V36.7619C12 36.5788 11.8855 36.4137 11.7099 36.3436C11.5412 36.2763 11.3481 36.3094 11.214 36.4269C11.2122 36.4282 11.2093 36.4302 11.2052 36.4328C11.1877 36.4441 11.1473 36.4675 11.0788 36.4939C10.9427 36.5464 10.6865 36.6139 10.265 36.6139C9.89371 36.6139 9.57835 36.4972 9.17452 36.3415L9.15034 36.3322C8.76794 36.1847 8.30043 36.0044 7.73496 36.0044Z" fill="#004EE0"/>
</svg>
