<?xml version="1.0" encoding="utf-8"?>
<!-- Generator: Adobe Illustrator 23.0.0, SVG Export Plug-In . SVG Version: 6.00 Build 0)  -->
<svg version="1.1" id="Layer_1" xmlns="http://www.w3.org/2000/svg" xmlns:xlink="http://www.w3.org/1999/xlink" x="0px" y="0px"
	 viewBox="0 0 16 32" style="enable-background:new 0 0 16 32;" xml:space="preserve">
<style type="text/css">
	.st0{fill:#22AC14;}
	.st1{fill:none;stroke:#22AC14;}
	.st2{fill:#22AC14;stroke:#22AC14;}
	.st3{fill:#FFFFFF;}
</style>
<g transform="translate(0.5 0.5)">
	<path class="st0" d="M8.16,12.17H6.82v-1.34h1.34V12.17z M9.56,6.98L8.94,7.59C8.39,8.06,8.1,8.77,8.16,9.49H6.82V9.15
		c0-0.71,0.28-1.39,0.78-1.9l0.84-0.84c0.25-0.25,0.39-0.59,0.39-0.95c-0.01-0.74-0.6-1.33-1.34-1.34c-0.74,0.01-1.33,0.6-1.34,1.34
		H4.81C4.79,4.01,5.96,2.81,7.42,2.79c0.02,0,0.05,0,0.07,0c1.46-0.02,2.66,1.15,2.68,2.61c0,0.02,0,0.05,0,0.07
		C10.18,6.03,9.96,6.58,9.56,6.98z"/>
	<g transform="translate(874.862 -443.837)">
		<path class="st1" d="M-867.36,443.84c-4.14,0.01-7.49,3.36-7.5,7.5c0.01,4.14,3.36,7.49,7.5,7.5c4.14-0.01,7.49-3.36,7.5-7.5
			C-859.87,447.2-863.22,443.85-867.36,443.84z"/>
	</g>
</g>
<g transform="translate(0.5 0.5)">
	<path class="st2" d="M7.5,16c-4.14,0.01-7.49,3.36-7.5,7.5c0.01,4.14,3.36,7.49,7.5,7.5c4.14-0.01,7.49-3.36,7.5-7.5
		C14.99,19.36,11.64,16.01,7.5,16z"/>
	<path class="st3" d="M8.13,28.12H6.79v-1.34h1.34V28.12z M9.53,22.93l-0.61,0.61c-0.55,0.47-0.84,1.18-0.78,1.9H6.79V25.1
		c0-0.71,0.28-1.39,0.78-1.9l0.84-0.84c0.25-0.25,0.39-0.59,0.39-0.95c-0.01-0.74-0.6-1.33-1.34-1.34c-0.74,0.01-1.33,0.6-1.34,1.34
		H4.78c-0.02-1.46,1.15-2.66,2.61-2.68c0.02,0,0.05,0,0.07,0c1.46-0.02,2.66,1.15,2.68,2.61c0,0.02,0,0.05,0,0.07
		C10.15,21.99,9.93,22.53,9.53,22.93z"/>
</g>
</svg>
