<svg width="16" height="48" viewBox="0 0 16 48" fill="none" xmlns="http://www.w3.org/2000/svg">
<path d="M5.46351 6.75145C5.27077 6.62232 5 6.74881 5 6.96797V9.68945C5 10.0579 5.315 10.3594 5.7 10.3594H11.3C11.685 10.3594 12 10.0579 12 9.68945V6.96726C12 6.7481 11.7292 6.62162 11.5365 6.75074L8.75086 8.61689C8.59992 8.71801 8.39902 8.71801 8.24808 8.61689L5.46351 6.75145Z" fill="#0D2E4E"/>
<path d="M11.7841 5.56061C11.8878 5.49115 11.9345 5.36379 11.8593 5.26826C11.7313 5.10563 11.5279 5 11.3 5H5.7C5.47181 5 5.26821 5.1059 5.14021 5.26889C5.06518 5.36443 5.11188 5.49166 5.21549 5.56107L8.32763 7.64596C8.43003 7.71456 8.56892 7.71456 8.67131 7.64596L11.7841 5.56061Z" fill="#0D2E4E"/>
<path d="M5.46351 22.7558C5.27077 22.6267 5 22.7532 5 22.9724V25.6938C5 26.0623 5.315 26.3638 5.7 26.3638H11.3C11.685 26.3638 12 26.0623 12 25.6938V22.9717C12 22.7525 11.7292 22.626 11.5365 22.7551L8.75086 24.6213C8.59992 24.7224 8.39902 24.7224 8.24808 24.6213L5.46351 22.7558Z" fill="#0057F9"/>
<path d="M11.7841 21.565C11.8878 21.4955 11.9345 21.3682 11.8593 21.2727C11.7313 21.11 11.5279 21.0044 11.3 21.0044H5.7C5.47181 21.0044 5.26821 21.1103 5.14021 21.2733C5.06518 21.3688 5.11188 21.4961 5.21549 21.5655L8.32763 23.6504C8.43003 23.719 8.56892 23.719 8.67131 23.6504L11.7841 21.565Z" fill="#0057F9"/>
<path d="M5.46351 38.7558C5.27077 38.6267 5 38.7532 5 38.9724V41.6938C5 42.0623 5.315 42.3638 5.7 42.3638H11.3C11.685 42.3638 12 42.0623 12 41.6938V38.9717C12 38.7525 11.7292 38.626 11.5365 38.7551L8.75086 40.6213C8.59992 40.7224 8.39902 40.7224 8.24808 40.6213L5.46351 38.7558Z" fill="#004EE0"/>
<path d="M11.7841 37.565C11.8878 37.4955 11.9345 37.3682 11.8593 37.2727C11.7313 37.11 11.5279 37.0044 11.3 37.0044H5.7C5.47181 37.0044 5.26821 37.1103 5.14021 37.2733C5.06518 37.3688 5.11188 37.4961 5.21549 37.5655L8.32763 39.6504C8.43003 39.719 8.56892 39.719 8.67131 39.6504L11.7841 37.565Z" fill="#004EE0"/>
</svg>
