<svg xmlns="http://www.w3.org/2000/svg" viewBox="0 0 52 42" enable-background="new 0 0 52 42"><path d="M23.5,32.5c0-4.3,2-0.7,2-7c0-2.6,1.2-3.5,2.6-3.5c0.3,0,0.5-0.4,0.6-0.4c0-1,0-1.2,0-1.2h1.4c0,0,0,0.1,0,1.2
		c0.1,0,0.4,0.4,0.6,0.4c1.4,0,2.6,0.9,2.6,3.5c0,6.3,2,2.7,2,7C33.4,32.5,25.6,32.5,23.5,32.5z" fill="none" stroke="#7f94b2" stroke-miterlimit="10"/><path d="M30.6,33.6c-1,0-1.2,0-2.1,0c0,0.9,0.5,1.6,1.1,1.6S30.6,34.5,30.6,33.6L30.6,33.6z" fill="#7f94b2"/><path fill="none" stroke="#7f94b2" stroke-miterlimit="10" d="M 30.5 19 30.5 13.5 13.5 13.5 13.5 26.5 16.5 26.5 16.5 31.5 21.5 26.5 24 26.5"/></svg>