<svg xmlns="http://www.w3.org/2000/svg" viewBox="0 0 52 42" enable-background="new 0 0 52 42"><g fill="#7f94b2"><path d="M35,18v4H16v-4H35 M36,17H15v6h21V17L36,17z"/><path d="M27,18v14h-3V18H27 M28,17h-5v16h5V17L28,17z"/><path d="M34,23v9H17v-9H34 M35,22H16v11h19V22L35,22z"/></g><g fill="none" stroke="#7f94b2" stroke-width="0.9" stroke-miterlimit="10"><path d="M25.4,16.2c-0.4,1.2-2.2,1.6-4.1,0.9c-1.9-0.7-3.1-2.2-2.7-3.4s2.2-1.6,4.1-0.9C24.6,13.5,25.8,15,25.4,16.2z"/><path d="M25.6,16.2c0.4,1.2,2.2,1.6,4.1,0.9c1.9-0.7,3.1-2.2,2.7-3.4c-0.4-1.2-2.2-1.6-4.1-0.9
	C26.4,13.5,25.2,15,25.6,16.2z"/></g></svg>