<svg xmlns="http://www.w3.org/2000/svg" viewBox="0 0 52 42" enable-background="new 0 0 52 42"><path fill="none" stroke="#7f94b2" stroke-miterlimit="10" d="M 26.5 17.7 26.5 24.4 30.7 28.6"/><path d="M26.5,14.9c5.2,0,9.5,4.3,9.5,9.5c0,5.2-4.3,9.5-9.5,9.5S17,29.6,17,24.4C17,19.2,21.3,14.9,26.5,14.9
			 M26.5,14.1c-5.7,0-10.3,4.6-10.3,10.3c0,5.7,4.6,10.3,10.3,10.3c5.7,0,10.3-4.6,10.3-10.3C36.8,18.7,32.2,14.1,26.5,14.1
			L26.5,14.1z" fill="#7f94b2"/><g fill="none" stroke="#7f94b2" stroke-miterlimit="10"><path d="M21.7,11.8c-3.1,1.2-5.5,3.9-6.8,7"/><path d="M31.2,11.8c3.1,1.2,5.5,3.9,6.8,7"/></g></svg>