<svg xmlns="http://www.w3.org/2000/svg" viewBox="0 0 16 16" enable-background="new 0 0 16 16"><circle cx="8.5" cy="8.5" r="6" fill="none" stroke="#5fd9ff" stroke-miterlimit="10"/><path d="M7,8.8c0.3,0,0.6,0.1,0.9,0.4c0.5,0.5,0.5,1.3,0,1.8c-0.2,0.2-0.5,0.4-0.9,0.4s-0.6-0.1-0.9-0.4
		c-0.5-0.5-0.5-1.3,0-1.8C6.4,8.9,6.7,8.8,7,8.8 M7,7.8C6.4,7.8,5.8,8,5.4,8.4c-0.9,0.9-0.9,2.3,0,3.2c0.4,0.4,1,0.7,1.6,0.7
		s1.2-0.2,1.6-0.7c0.9-0.9,0.9-2.3,0-3.2C8.1,8,7.6,7.8,7,7.8L7,7.8z" fill="#5fd9ff"/><g fill="none" stroke="#5fd9ff" stroke-miterlimit="10"><path d="M 11.6,5.5 8,9"/><path d="M 12,8 10.5,6.5"/></g></svg>