<svg xmlns="http://www.w3.org/2000/svg" viewBox="0 0 20 20" width="20" height="20" enable-background="new 0 0 20 20"><g fill="#03a9f4"><path d="m10 10.8c-1.2 0-2.1 1-2.1 2.1 0 1.2 1 2.1 2.1 2.1 1.2 0 2.1-1 2.1-2.1 0-1.1-.9-2.1-2.1-2.1"/><path d="m17 2.8c-1.2 0-2.1 1-2.1 2.1 0 1.2 1 2.1 2.1 2.1 1.2 0 2.1-1 2.1-2.1 0-1.1-.9-2.1-2.1-2.1"/><path d="m2.9 4.9c-1.2 0-2.1 1-2.1 2.1 0 1.2 1 2.1 2.1 2.1 1.1.1 2.1-.9 2.1-2 0-1.2-1-2.2-2.1-2.2"/></g><g fill="#20c964"><path d="m17 8.9c-1.2 0-2.1 1-2.1 2.1 0 1.2 1 2.1 2.1 2.1 1.2 0 2.1-1 2.1-2.1 0-1.2-.9-2.1-2.1-2.1"/><path d="m2.9 12.1c-1.2 0-2.1 1-2.1 2.1 0 1.2 1 2.1 2.1 2.1 1.2 0 2.1-1 2.1-2.1 0-1.2-1-2.1-2.1-2.1"/><path d="m10 5.7c-1.2 0-2.1 1-2.1 2.1 0 1.2 1 2.1 2.1 2.1 1.2 0 2.1-1 2.1-2.1 0-1.2-.9-2.1-2.1-2.1"/></g><g fill="none" stroke-miterlimit="10"><path stroke="#20c964" d="m2.9 14.2l7.1-6.4"/><g stroke="#03a9f4"><path d="m10 12.9l-7.1-5.8"/><path d="m17 4.9l-7 8"/></g><path stroke="#20c964" d="m10 7.8l7 3.2"/></g></svg>