<svg id="Иконки" xmlns="http://www.w3.org/2000/svg" viewBox="0 0 16 144" width="16" height="144"><defs><style>.cls-1,.cls-10,.cls-2,.cls-3,.cls-4,.cls-5,.cls-6,.cls-7,.cls-8,.cls-9{fill:none;}.cls-2{stroke:#20c964;}.cls-10,.cls-2,.cls-3,.cls-4,.cls-5,.cls-6,.cls-7,.cls-8,.cls-9{stroke-miterlimit:10;stroke-width:0.8px;}.cls-3{stroke:#ffc107;}.cls-4{stroke:#ff9800;}.cls-5{stroke:#ff7043;}.cls-6{stroke:#9575cd;}.cls-7{stroke:#0091ea;}.cls-8{stroke:#03a9f4;}.cls-9{stroke:#009688;}.cls-10{stroke:#00bfa5;}</style></defs><title>Artboard 1 copy 2</title><rect class="cls-1" y="0.25" width="16" height="16"/><rect class="cls-1" y="16.25" width="16" height="16"/><rect class="cls-1" y="32.25" width="16" height="16"/><rect class="cls-1" y="48.25" width="16" height="16"/><rect class="cls-1" y="64.25" width="16" height="16"/><rect class="cls-1" y="80.25" width="16" height="16"/><rect class="cls-1" y="96.25" width="16" height="16"/><rect class="cls-1" y="112.25" width="16" height="16"/><rect class="cls-1" y="128.25" width="16" height="16"/><polyline class="cls-2" points="7.13 2.42 1.97 7.57 7.13 12.72"/><line class="cls-2" x1="1.97" y1="7.57" x2="14.2" y2="7.57"/><polyline class="cls-3" points="7.13 18.42 1.97 23.57 7.13 28.72"/><line class="cls-3" x1="1.97" y1="23.57" x2="14.2" y2="23.57"/><polyline class="cls-4" points="7.13 34.42 1.97 39.57 7.13 44.72"/><line class="cls-4" x1="1.97" y1="39.57" x2="14.2" y2="39.57"/><polyline class="cls-5" points="7.13 50.42 1.97 55.57 7.13 60.72"/><line class="cls-5" x1="1.97" y1="55.57" x2="14.2" y2="55.57"/><polyline class="cls-6" points="7.13 66.42 1.97 71.57 7.13 76.72"/><line class="cls-6" x1="1.97" y1="71.57" x2="14.2" y2="71.57"/><polyline class="cls-7" points="7.13 82.42 1.97 87.57 7.13 92.72"/><line class="cls-7" x1="1.97" y1="87.57" x2="14.2" y2="87.57"/><polyline class="cls-8" points="7.13 98.42 1.97 103.57 7.13 108.72"/><line class="cls-8" x1="1.97" y1="103.57" x2="14.2" y2="103.57"/><polyline class="cls-9" points="7.13 114.42 1.97 119.57 7.13 124.72"/><line class="cls-9" x1="1.97" y1="119.57" x2="14.2" y2="119.57"/><polyline class="cls-10" points="7.13 130.42 1.97 135.57 7.13 140.72"/><line class="cls-10" x1="1.97" y1="135.57" x2="14.2" y2="135.57"/></svg>