<svg xmlns="http://www.w3.org/2000/svg" viewBox="0 0 32 32" enable-background="new 0 0 32 32"><path d="M11,19c1.5,0,2.9,1.3,3.2,3H7.8C8.1,20.3,9.5,19,11,19 M11,18c-2.4,0-4.3,2.3-4.3,5c1.6,0,7,0,8.7,0
		C15.4,20.3,13.4,18,11,18L11,18z" fill="#fff"/><g fill="none" stroke="#fff" stroke-miterlimit="10"><circle cx="11" cy="15" r="2"/><path d="M11.8,10.2c1.3-1.7,3.3-2.9,5.7-2.9c3.9,0,7.1,3.2,7.1,7.1c0,3.7-2.9,6.8-6.6,7"/><path d="M16,13c0,0,0.3-1.5,1.5-1.5s2.2,1.1,2.2,2c0,0.9-2.2,1.4-2.2,2.5"/></g><path fill="#fff" d="M 17,17 H18 V18 H17 z"/></svg>