<svg xmlns="http://www.w3.org/2000/svg" viewBox="0 0 32 32" enable-background="new 0 0 32 32"><path d="M16,0.9c8.3,0,15.1,6.8,15.1,15.1S24.3,31.1,16,31.1S0.9,24.3,0.9,16S7.7,0.9,16,0.9 M16,0
		C7.2,0,0,7.2,0,16s7.2,16,16,16c8.8,0,16-7.2,16-16S24.8,0,16,0L16,0z" fill="#9575cd"/><g fill="#9475cf"><path d="M10,23h9V9h-9V23z M15,11h3v1h-3V11z M15,14h3v1h-3V14z M15,17h3v1h-3V17z M15,20h3v1h-3V20z M11,11
		h3v1h-3V11z M11,14h3v1h-3V14z M11,17h3v1h-3V17z M11,20h3v1h-3V20z"/><path d="M 20 12 20 14 22 14 22 15 20 15 20 16 22 16 22 17 20 17 20 18 22 18 22 19 20 19 20 20 22 20 22 21 20 21 20 23 24 23 24 12"/></g></svg>