<svg width="42" height="42" xmlns="http://www.w3.org/2000/svg">
 <defs>
  <style>.a{fill:#fff;}.b{clip-path:url(#a);}.c{clip-path:url(#b);}.c{fill:#fecd66;}</style>
  <clipPath id="a">
   <rect id="svg_1" height="42" width="42" class="a"/>
  </clipPath>
  <clipPath id="b">
   <rect id="svg_2" x="-3064.499023" y="335.533997" height="21.517" width="21.517" class="a"/>
  </clipPath>
 </defs>
 <g>
  <title>background</title>
  <rect fill="none" id="canvas_background" height="44" width="44" y="-1" x="-1"/>
 </g>
 <g>
  <title>Layer 1</title>
  <path stroke="null" id="svg_3" d="m37.77383,42l-33.797637,0a3.988121,3.988119 0 0 1 -3.976193,-3.97619l0,-33.797615a3.988121,3.988119 0 0 1 3.976193,-3.97619l33.797637,0a3.988121,3.988119 0 0 1 3.976193,3.97619l0,33.797615a3.988121,3.988119 0 0 1 -3.976193,3.97619" class="a"/>
  <g id="svg_4" class="b">
   <g id="svg_5">
    <g id="svg_6" class="c">
     <rect fill="#fecd66" id="svg_7" x="10.2415" y="10.2415" height="21.517" width="21.517" class="a"/>
     <rect fill="#fecd66" id="svg_8" x="15.487594" y="18.983504" height="4.034" width="11.024" class="d"/>
    </g>
   </g>
  </g>
  <rect id="svg_18" height="19.12479" width="4.374952" y="11.929787" x="11.312605" stroke-opacity="null" stroke-width="null" stroke="null" fill="#869dc5"/>
  <rect id="svg_19" height="19.12479" width="4.374952" y="11.929787" x="26.937432" stroke-opacity="null" stroke-width="null" stroke="null" fill="#869dc5"/>
  <rect stroke="null" id="svg_20" height="0" width="2.874968" y="13.054775" x="14.562569" fill-opacity="null" stroke-opacity="null" stroke-width="null" fill="#fecd66"/>
  <rect id="svg_21" height="19.12479" width="4.374952" y="11.929787" x="19.062519" stroke-opacity="null" stroke-width="null" stroke="null" fill="#869dc5"/>
 </g>
</svg>