<svg xmlns="http://www.w3.org/2000/svg" width="24" height="24" viewBox="0 0 24 24"><defs><style>.a{fill:#5fb840;}.b{fill:none;}</style></defs><g transform="translate(0.001 0)"><path class="a" d="M13.625-505.992l.21,4.418H13.3a5.343,5.343,0,0,0-.418-1.667,2.811,2.811,0,0,0-1.155-1.188,4.053,4.053,0,0,0-1.9-.382H7.159v14.395a3.844,3.844,0,0,0,.377,2.167,2.112,2.112,0,0,0,1.638.584H9.83v.514H1.784v-.514h.673a1.933,1.933,0,0,0,1.707-.723,4.2,4.2,0,0,0,.308-2.028V-504.81H2.192a6.364,6.364,0,0,0-1.888.195A2.578,2.578,0,0,0-.943-503.6a4.077,4.077,0,0,0-.617,2.028h-.532l.223-4.418Z" transform="translate(6.129 509.009)"/><rect class="b" width="24" height="24"/></g></svg>