<svg xmlns="http://www.w3.org/2000/svg" width="42" height="42" viewBox="0 0 42 42"><defs><style>.a{fill:#fff;}.b,.d{fill:none;}.b{stroke:#9779c7;stroke-miterlimit:10;stroke-width:2px;}.c{fill:#9779c7;}.e{stroke:none;}</style></defs><path class="a" d="M38,42H4a4.012,4.012,0,0,1-4-4V4A4.012,4.012,0,0,1,4,0H38a4.012,4.012,0,0,1,4,4V38a4.012,4.012,0,0,1-4,4"/><g transform="translate(987.743 508.747)"><g transform="translate(-978.745 -496.685)"><g class="b"><rect class="e" width="24" height="17.877"/><rect class="d" x="1" y="1" width="22" height="15.877"/></g><circle class="c" cx="2.296" cy="2.296" r="2.296" transform="translate(14.929 2.952)"/><path class="c" d="M-978.048-485.224l6.352-9.523,11.022,12.584h-17.374Z" transform="translate(979.351 498.847)"/><path class="c" d="M-964.683-484.415l-3.062-4.8,3.062-1.531,3.229,3.062v3.271Z" transform="translate(984.091 500.97)"/></g><rect class="d" width="24" height="24" transform="translate(-978.745 -499.747)"/></g></svg>