<svg xmlns="http://www.w3.org/2000/svg" width="42" height="42" viewBox="0 0 42 42"><defs><style>.a{fill:#fff;}.b{fill:#c5cc5f;}.c{fill:none;}</style></defs><path class="a" d="M38,42H4a4.012,4.012,0,0,1-4-4V4A4.012,4.012,0,0,1,4,0H38a4.012,4.012,0,0,1,4,4V38a4.012,4.012,0,0,1-4,4"/><g transform="translate(10 10)"><g transform="translate(3059.353 -387.31)"><path class="b" d="M-3045.358,394.2v-1.183l-1.183,1.183h-1.414l2.6-2.6v-1.586l-4.183,4.183h-1.414l4.9-4.895h-1.586l-9.707,9.707V400.6l5.484-5.484V394.2h.007v12h12v-12Zm4.491,11h-10v-10h10Z"/><path class="b" d="M-3050.646,389.31l-6.707,6.707V397.6l8.293-8.293Z"/><path class="b" d="M-3053.646,389.31l-3.707,3.707V394.6l5.293-5.293Z"/><path class="b" d="M-3055.055,401.306l3.187-3.187v-1.586l-4.773,4.773Z"/><path class="b" d="M-3057.353,389.31V391.6l2.293-2.293Z"/><path class="b" d="M-3052.055,401.306l.187-.187v-1.586l-1.773,1.773Z"/></g><rect class="c" width="21.517" height="21.517"/></g></svg>