<?xml version="1.0" encoding="utf-8"?>
<!-- Generator: Adobe Illustrator 22.1.0, SVG Export Plug-In . SVG Version: 6.00 Build 0)  -->
<svg version="1.1" id="Layer_1" xmlns="http://www.w3.org/2000/svg" xmlns:xlink="http://www.w3.org/1999/xlink" x="0px" y="0px"
	 viewBox="0 0 26 80" style="enable-background:new 0 0 26 80;" xml:space="preserve" width="26" height="80">
<style type="text/css">
	.st0{fill:#22AC14;}
	.st1{fill:#1C9110;}
</style>
<path class="st0" d="M12.5,46.9C5.6,46.9,0,52.5,0,59.4s5.6,12.5,12.5,12.5S25,66.3,25,59.4S19.4,46.9,12.5,46.9z M13.8,68.2h-2.6
	v-2.5h2.5C13.7,65.7,13.7,68.2,13.8,68.2z M16.4,58.5l-1.1,1.1c-0.9,0.9-1.5,1.7-1.5,3.5h-2.6v-0.6c0-1.4,0.5-2.6,1.5-3.5l1.6-1.6
	c0.4-0.4,0.7-1,0.7-1.8c0-1.4-1.1-2.5-2.5-2.5S10,54.3,10,55.7H7.5c0-2.8,2.2-5,5-5s5,2.2,5,5C17.5,56.8,17.1,57.7,16.4,58.5z"/>
<path class="st1" d="M12.5,7.9C5.6,7.9,0,13.5,0,20.4s5.6,12.5,12.5,12.5S25,27.3,25,20.4S19.4,7.9,12.5,7.9z M13.8,29.2h-2.6v-2.5
	h2.5C13.7,26.7,13.7,29.2,13.8,29.2z M16.4,19.5l-1.1,1.1c-0.9,0.9-1.5,1.7-1.5,3.5h-2.6v-0.6c0-1.4,0.5-2.6,1.5-3.5l1.6-1.6
	c0.4-0.4,0.7-1,0.7-1.8c0-1.4-1.1-2.5-2.5-2.5S10,15.3,10,16.7H7.5c0-2.8,2.2-5,5-5s5,2.2,5,5C17.5,17.8,17.1,18.7,16.4,19.5z"/>
</svg>
