<svg xmlns="http://www.w3.org/2000/svg" width="42" height="42" viewBox="0 0 42 42"><defs><style>.a{fill:#fff;}.b{fill:none;}.c{fill:#3cb6ed;}</style></defs><path class="a" d="M38,42H4a4.012,4.012,0,0,1-4-4V4A4.012,4.012,0,0,1,4,0H38a4.012,4.012,0,0,1,4,4V38a4.012,4.012,0,0,1-4,4"/><g transform="translate(10 10)"><rect class="b" width="21.517" height="21.517" transform="translate(0 0)"/><g transform="translate(2.017 2.69)"><rect class="c" width="7.396" height="4.034" transform="translate(0 6.052)"/><rect class="c" width="7.396" height="4.034" transform="translate(10.086 6.052)"/><rect class="c" width="7.396" height="4.034"/><rect class="c" width="7.396" height="4.034" transform="translate(10.086)"/><path class="c" d="M0,0H17.483V4.034H0Z" transform="translate(0 12.103)"/></g></g></svg>