<svg xmlns="http://www.w3.org/2000/svg" width="100" height="104" viewBox="0 0 100 104"><defs><style>.a{fill:rgba(100,184,223,0.1);stroke-miterlimit:10;}.b{fill:none;stroke:#64b8df;stroke-width:1.5px;}.c,.d{stroke:none;}.d{fill:#64b8df;}</style></defs><g transform="translate(-3178 -13.097)"><g class="a"><path class="c" d="M 3180.967041015625 116.3441162109375 C 3182.353759765625 115.4275436401367 3183.70556640625 114.2648010253906 3185.00830078125 112.8665084838867 C 3186.695068359375 111.0558700561523 3188.30712890625 108.8447036743164 3189.799560546875 106.2944259643555 C 3192.388916015625 101.8693771362305 3193.7421875 97.90055847167969 3193.75537109375 97.86098480224609 L 3193.9013671875 97.4290771484375 L 3193.585205078125 97.10073089599609 C 3189.263916015625 92.61403656005859 3185.875244140625 87.42725372314453 3183.51318359375 81.68445587158203 C 3181.06591796875 75.73441314697266 3179.824951171875 69.42450714111328 3179.824951171875 62.93000030517578 C 3179.824951171875 56.30254745483398 3181.113037109375 49.87389373779297 3183.6533203125 43.82263946533203 C 3186.10693359375 37.97776031494141 3189.619873046875 32.72851943969727 3194.09423828125 28.2207202911377 C 3198.568115234375 23.71330642700195 3203.777587890625 20.17462730407715 3209.578125 17.70296096801758 C 3215.582763671875 15.1443338394165 3221.9619140625 13.84700012207031 3228.5380859375 13.84700012207031 C 3235.11376953125 13.84700012207031 3241.492431640625 15.1443338394165 3247.496826171875 17.70294761657715 C 3253.297119140625 20.17462730407715 3258.506591796875 23.71331977844238 3262.98046875 28.2207202911377 C 3267.454833984375 32.72854614257812 3270.9677734375 37.97779846191406 3273.42138671875 43.82263946533203 C 3275.9619140625 49.87394714355469 3277.25 56.30258560180664 3277.25 62.93000030517578 C 3277.25 69.55741119384766 3275.9619140625 75.98605346679688 3273.42138671875 82.03736114501953 C 3270.9677734375 87.8822021484375 3267.454833984375 93.13145446777344 3262.98046875 97.6392822265625 C 3258.506591796875 102.1466827392578 3253.297119140625 105.6853713989258 3247.496826171875 108.1570510864258 C 3241.492431640625 110.7156677246094 3235.11376953125 112.0130004882812 3228.5380859375 112.0130004882812 C 3222.758056640625 112.0130004882812 3217.100830078125 111.0022277832031 3211.7236328125 109.0087738037109 L 3211.302734375 108.8527603149414 L 3210.96630859375 109.1498794555664 C 3210.621826171875 109.4541702270508 3210.27294921875 109.7102432250977 3209.8681640625 109.9557342529297 C 3200.10693359375 115.8566513061523 3192.525146484375 116.3093795776367 3180.967041015625 116.3441162109375 Z"/><path class="d" d="M 3228.5380859375 14.59700012207031 C 3222.0634765625 14.59700012207031 3215.783447265625 15.87413024902344 3209.872314453125 18.39293670654297 C 3204.1611328125 20.82643127441406 3199.03173828125 24.31075286865234 3194.62646484375 28.74906921386719 C 3190.220458984375 33.18816375732422 3186.76123046875 38.35731506347656 3184.344970703125 44.11295318603516 C 3181.84326171875 50.07180023193359 3180.574951171875 56.40276336669922 3180.574951171875 62.93000030517578 C 3180.574951171875 69.32614898681641 3181.796875 75.54008483886719 3184.206787109375 81.39915466308594 C 3186.532958984375 87.05429840087891 3189.869873046875 92.16203308105469 3194.125244140625 96.58046722412109 L 3194.7578125 97.23715209960938 L 3194.466064453125 98.1009521484375 C 3194.452392578125 98.14125061035156 3193.074951171875 102.1823654174805 3190.44677734375 106.6732330322266 C 3188.926513671875 109.2710647583008 3187.28125 111.5267791748047 3185.556884765625 113.3777313232422 C 3184.8017578125 114.1884460449219 3184.029296875 114.9231414794922 3183.242431640625 115.5797119140625 C 3193.422607421875 115.4736175537109 3200.54296875 114.7165832519531 3209.479248046875 109.3144683837891 C 3209.844970703125 109.0926971435547 3210.15966796875 108.8617858886719 3210.469970703125 108.5877685546875 L 3211.142578125 107.9935150146484 L 3211.984375 108.305534362793 C 3217.27783203125 110.2679672241211 3222.847412109375 111.2630004882812 3228.5380859375 111.2630004882812 C 3235.01220703125 111.2630004882812 3241.2919921875 109.9858703613281 3247.202880859375 107.4670867919922 C 3252.91357421875 105.0335540771484 3258.04296875 101.5492477416992 3262.4482421875 97.11093139648438 C 3266.8544921875 92.67179870605469 3270.313720703125 87.50263214111328 3272.72998046875 81.74705505371094 C 3275.2314453125 75.78814697265625 3276.5 69.45718383789062 3276.5 62.93000030517578 C 3276.5 56.40281677246094 3275.2314453125 50.07185363769531 3272.72998046875 44.11295318603516 C 3270.313720703125 38.35736846923828 3266.8544921875 33.18820190429688 3262.4482421875 28.74906921386719 C 3258.04296875 24.31075286865234 3252.91357421875 20.82644653320312 3247.202880859375 18.39291381835938 C 3241.2919921875 15.87413024902344 3235.01220703125 14.59700012207031 3228.5380859375 14.59700012207031 M 3228.5380859375 13.09700012207031 C 3255.85498046875 13.09700012207031 3278 35.40699768066406 3278 62.93000030517578 C 3278 90.4530029296875 3255.85498046875 112.7630004882812 3228.5380859375 112.7630004882812 C 3222.535888671875 112.7630004882812 3216.784912109375 111.6849975585938 3211.462890625 109.7119979858398 C 3211.12890625 110.0070037841797 3210.7451171875 110.3010025024414 3210.257080078125 110.5970001220703 C 3199.5048828125 117.0970001220703 3191.260986328125 117.0970001220703 3178 117.0970001220703 C 3187.76904296875 112.9820022583008 3192.955078125 97.88700103759766 3193.044921875 97.62100219726562 C 3184.404052734375 88.64900207519531 3179.074951171875 76.41999816894531 3179.074951171875 62.93000030517578 C 3179.074951171875 35.40699768066406 3201.218994140625 13.09700012207031 3228.5380859375 13.09700012207031 Z"/></g><g transform="translate(3203.269 38.527)"><path class="b" d="M47.187-576.435v39.552H89.881v-39.552Zm39.708,5.862H77.746v-2.7h9.149Z" transform="translate(-44.046 581.147)"/><g transform="translate(13.341 17.844)"><path class="b" d="M-475.021,688.353h3.23v-4.4h-3.228a6.192,6.192,0,0,0-.927-1.949l2.347-2.345-2.693-2.7-2.35,2.344a6.245,6.245,0,0,0-1.948-.925v-3.228h-4.4v3.228a6.256,6.256,0,0,0-1.948.924l-2.348-2.342-2.694,2.7,2.345,2.345a6.208,6.208,0,0,0-.926,1.949h-3.229v4.4h3.228a6.189,6.189,0,0,0,.927,1.948l-2.345,2.347,2.694,2.694,2.345-2.342a6.216,6.216,0,0,0,1.951.926v3.226l4.4,0v-3.228a6.187,6.187,0,0,0,1.948-.926l2.35,2.342,2.693-2.694-2.347-2.345A6.146,6.146,0,0,0-475.021,688.353Zm-7.77,1.854a4.054,4.054,0,0,1-4.052-4.054,4.054,4.054,0,0,1,4.052-4.054,4.055,4.055,0,0,1,4.051,4.054A4.055,4.055,0,0,1-482.791,690.207Z" transform="translate(493.791 -675.153)"/></g><path class="b" d="M3.14,13.819h43"/></g></g></svg>