<svg xmlns="http://www.w3.org/2000/svg" width="24" height="23.999" viewBox="0 0 24 23.999"><defs><style>.a{fill:#3b82c7;}.b{fill:#fff;}.c{fill:none;}</style></defs><g transform="translate(0 0)"><g transform="translate(0 4.488)"><rect class="a" width="24" height="15.023" rx="3" transform="translate(0 0)"/><path class="b" d="M-5.466-5a1.288,1.288,0,0,0-1.107.538,2.506,2.506,0,0,0-.391,1.5q0,2,1.5,2a4.692,4.692,0,0,0,1.521-.316V-.224A4.2,4.2,0,0,1-5.584.083,2.5,2.5,0,0,1-7.577-.708a3.354,3.354,0,0,1-.688-2.268,3.7,3.7,0,0,1,.338-1.63,2.447,2.447,0,0,1,.973-1.072,2.88,2.88,0,0,1,1.488-.374,4.04,4.04,0,0,1,1.745.417L-4.13-4.605A6.917,6.917,0,0,0-4.8-4.882,2,2,0,0,0-5.466-5ZM.708,0H-.558V-4.913H-2.18V-5.968h4.5v1.055H.708ZM7.391,0,6.96-1.419H4.785L4.35,0H2.987l2.1-5.99H6.639L8.753,0ZM6.657-2.483q-.6-1.929-.677-2.182t-.105-.4q-.136.523-.773,2.584Z" transform="translate(11.914 10.073)"/></g><rect class="c" width="23.999" height="23.999" transform="translate(0)"/></g></svg>