<svg xmlns="http://www.w3.org/2000/svg" width="44" height="44" viewBox="0 0 44 44"><defs><style>.a{fill:#fff;}.b{fill:#3cb6ed;}.c{fill:none;}</style></defs><g transform="translate(1 1)"><path class="a" d="M38,42H4a4.012,4.012,0,0,1-4-4V4A4.012,4.012,0,0,1,4,0H38a4.012,4.012,0,0,1,4,4V38a4.012,4.012,0,0,1-4,4"/><g transform="translate(-661.5 1023)"><g transform="translate(661.921 -1021.159)"><rect class="b" width="11.365" height="5.683" transform="translate(8.125 16.317)"/><rect class="b" width="11.365" height="5.683" transform="translate(21.668 16.317)"/><rect class="b" width="11.365" height="5.683" transform="translate(8.125 8.159)"/><rect class="b" width="11.365" height="5.683" transform="translate(21.668 8.159)"/><path class="b" d="M0,0H25.2V5.683H0Z" transform="translate(8.129 24.476)"/></g><rect class="c" width="44" height="44" transform="translate(660.5 -1024)"/></g></g></svg>