<svg xmlns="http://www.w3.org/2000/svg" width="42" height="42" viewBox="0 0 42 42"><defs><style>.a{fill:#fff;}.b{fill:#a6bfa1;}.c{fill:none;}</style></defs><path class="a" d="M38,42H4a4.012,4.012,0,0,1-4-4V4A4.012,4.012,0,0,1,4,0H38a4.012,4.012,0,0,1,4,4V38a4.012,4.012,0,0,1-4,4"/><g transform="translate(10 10.161)"><path class="b" d="M47.187-576.435v17.375H65.943v-17.375ZM64.6-560.4H48.527v-12.029H64.6Zm0-13.366H60.584V-575.1H64.6Z" transform="translate(-45.807 578.505)"/><rect class="c" width="21.517" height="21.517"/><g transform="translate(501.131 -666.973)"><path class="b" d="M-486.112,680.553h1.321v-1.8h-1.321a2.532,2.532,0,0,0-.379-.8l.96-.959-1.1-1.1-.961.959a2.556,2.556,0,0,0-.8-.379v-1.321h-1.8v1.321a2.558,2.558,0,0,0-.8.378l-.961-.958-1.1,1.1.959.959a2.539,2.539,0,0,0-.379.8h-1.321v1.8h1.321a2.533,2.533,0,0,0,.379.8l-.959.96,1.1,1.1.959-.958a2.542,2.542,0,0,0,.8.379v1.32h1.8v-1.321a2.53,2.53,0,0,0,.8-.379l.961.958,1.1-1.1-.96-.959A2.514,2.514,0,0,0-486.112,680.553Zm-3.179.758a1.658,1.658,0,0,1-1.658-1.658,1.658,1.658,0,0,1,1.658-1.658,1.659,1.659,0,0,1,1.657,1.658A1.659,1.659,0,0,1-489.291,681.311Z" transform="translate(-1.04 -0.341)"/></g></g></svg>