<svg xmlns="http://www.w3.org/2000/svg" width="42" height="42">
	<defs><style>.a{fill:#8484c1;}.b,.c{fill:none;}.c{stroke:#8484c1;stroke-miterlimit:10;stroke-width:2px;}</style></defs>
	<path fill="#fff" d="M38,42H4a4.012,4.012,0,0,1-4-4V4A4.012,4.012,0,0,1,4,0H38a4.012,4.012,0,0,1,4,4V38a4.012,4.012,0,0,1-4,4"/>
	<g>
		<path class="a" d="M10.53900123290997,11.30901859194046 v19.381 h20.92 v-19.381 zm8.966,1.491 h4.483 v1.491 H19.50500123290997 zm10.46,16.4 H12.033001232909967 v-13.417 H29.965001232909973 zm0,-14.908 H25.482001232909973 v-1.491 h4.483 z"/>
		<rect class="b" width="24" height="24" y="9.000000037252903" x="9.000000042724423"/>
		<path class="c" d="M18.744023968505644,26.02799075990913 l-3.786,-3.386 l3.786,-3.386 "/>
		<path class="c" d="M23.26097416381822,26.02799075990913 l3.786,-3.386 l-3.786,-3.386 "/>
	</g>
</svg>