<svg xmlns="http://www.w3.org/2000/svg" viewBox="0 0 42 42" enable-background="new 0 0 42 42"><path d="m38 42h-34c-2.2 0-4-1.8-4-4v-34c0-2.2 1.8-4 4-4h34c2.2 0 4 1.8 4 4v34c0 2.2-1.8 4-4 4" fill="#fff"/><g fill="none" stroke="#ff7043" stroke-width="1.1" stroke-miterlimit="10"><path d="m18 26l-4-4 4-4"/><path d="m24 26l4-4-4-4"/><path d="m19 27l4-10"/></g><path d="m30 13c.6 0 1 .4 1 1v14c0 .6-.4 1-1 1h-18c-.6 0-1-.4-1-1v-14c0-.6.4-1 1-1h18m0-1h-18c-1.1 0-2 .9-2 2v14c0 1.1.9 2 2 2h18c1.1 0 2-.9 2-2v-14c0-1.1-.9-2-2-2z" fill="#ff7043"/><path fill="none" stroke="#ff7043" stroke-miterlimit="10" d="m11 14.5h21"/></svg>