<?xml version="1.0" encoding="utf-8"?>
<!-- Generator: Adobe Illustrator 22.1.0, SVG Export Plug-In . SVG Version: 6.00 Build 0)  -->
<svg version="1.1" id="Layer_1" xmlns="http://www.w3.org/2000/svg" xmlns:xlink="http://www.w3.org/1999/xlink" x="0px" y="0px"
	 viewBox="0 0 38 38" style="enable-background:new 0 0 38 38;" xml:space="preserve">
<style type="text/css">
	.st0{fill:none;}
	.st1{fill:#FFFFFF;}
</style>
<g>
	<rect y="0" class="st0" width="38" height="38"/>
	<path class="st1" d="M20,24.2H7V9h24v7h1v-5.8C32,9.1,31.1,8,30,8H8c-1.1,0-2,1.1-2,2.2V24c0,1.1,0.9,2,2,2h9v2h-4v1h7V24.2z"/>
	<path class="st1" d="M10,11v6h18v-6H10z M14,15h-2v-2h2V15z M18,15h-2v-2h2V15z M22,15h-2v-2h2V15z M26,15h-2v-2h2V15z"/>
	<path class="st1" d="M32,19c-1.4-1.4-3.6-1.4-5,0c-0.9,0.9-1.3,2.3-0.9,3.6l-4,4C22,26.7,22,26.8,22,26.8v1.8
		c0,0.2,0.1,0.3,0.3,0.3h1.8c0.1,0,0.2,0,0.2-0.1l0.5-0.5c0.1-0.1,0.1-0.2,0.1-0.3l-0.1-0.5l0.7-0.1c0.2,0,0.3-0.1,0.3-0.3l0.1-0.7
		l0.5,0.1c0.1,0,0.2,0,0.3-0.1c0.1-0.1,0.1-0.1,0.1-0.2v-0.6h0.6c0.1,0,0.2,0,0.2-0.1l0.8-0.8C29.6,25.3,31,25,32,24
		C33.3,22.7,33.3,20.4,32,19z M31,22c-0.6,0.6-1.5,0.6-2.1,0c-0.6-0.6-0.6-1.5,0-2.1c0.6-0.6,1.5-0.6,2.1,0
		C31.6,20.5,31.6,21.5,31,22z"/>
</g>
</svg>
