<svg xmlns="http://www.w3.org/2000/svg" width="16" height="16" viewBox="0 0 16 16">
  <g id="icon_group_other_hover" transform="translate(9 6)">
    <circle id="Ellipse_681" data-name="Ellipse 681" cx="8" cy="8" r="8" transform="translate(-9 -6)" fill="#8a9db8"/>
    <g id="Group_4911" data-name="Group 4911" transform="translate(-6.822 -3.574)">
      <path id="Path_2897" data-name="Path 2897" d="M7.4,8.979" transform="translate(-2.075 -2.905)" fill="none" stroke="#fff" stroke-miterlimit="10" stroke-width="1"/>
      <path id="Path_2898" data-name="Path 2898" d="M12.4,7.036" transform="translate(-4.074 -1.962)" fill="none" stroke="#fff" stroke-miterlimit="10" stroke-width="1"/>
      <path id="Path_2899" data-name="Path 2899" d="M6.907,6.075h0a1.525,1.525,0,0,1,0-2l2-2a1.525,1.525,0,0,1,2,0h0a1.525,1.525,0,0,1,0,2l-1,1" transform="translate(-1.584)" fill="none" stroke="#fff" stroke-miterlimit="10" stroke-width="1"/>
      <path id="Path_5639" data-name="Path 5639" d="M.374,4.373h0a1.525,1.525,0,0,1,0-2l2-2a1.525,1.525,0,0,1,2,0h0a1.525,1.525,0,0,1,0,2l-1,1" transform="translate(6.696 9.074) rotate(180)" fill="none" stroke="#fff" stroke-miterlimit="10" stroke-width="1"/>
    </g>
  </g>
</svg>
