<svg width="12" height="13" viewBox="0 0 12 13" fill="none" xmlns="http://www.w3.org/2000/svg">
<path fill-rule="evenodd" clip-rule="evenodd" d="M7.77584 12.4669C7.72805 12.5038 7.67306 12.5298 7.6146 12.5431C6.79826 12.7252 5.95323 12.7252 5.13689 12.5431C5.07878 12.5308 5.02394 12.5057 4.97614 12.4697C4.92833 12.4336 4.88866 12.3875 4.85985 12.3343L4.16985 11.0599C4.03394 10.9849 3.90326 10.9099 3.77781 10.8296L2.356 10.851C2.29705 10.8521 2.23856 10.8402 2.18446 10.8162C2.13036 10.7922 2.08191 10.7566 2.04236 10.7118C1.47766 10.0786 1.05327 9.32789 0.798282 8.51101C0.786232 8.4692 0.77921 8.42605 0.777372 8.3825C0.776443 8.30454 0.798287 8.22809 0.840099 8.16295L1.57191 6.90994V6.44943L0.840099 5.20178C0.809119 5.14925 0.789372 5.09059 0.782163 5.02967C0.774955 4.96875 0.780449 4.90695 0.798282 4.84837C1.05441 4.03316 1.47668 3.283 2.03714 2.64757C2.07809 2.60316 2.12754 2.56787 2.18241 2.54392C2.23727 2.51997 2.29636 2.50785 2.356 2.50834L3.77781 2.53512C3.90368 2.45008 4.03462 2.37318 4.16985 2.30486L4.85985 1.03044C4.88836 0.976496 4.92786 0.929459 4.97565 0.892506C5.02345 0.855554 5.07844 0.829547 5.13689 0.816246C5.95323 0.634168 6.79826 0.634168 7.6146 0.816246C7.67346 0.828513 7.72889 0.854116 7.77682 0.891178C7.82476 0.92824 7.864 0.975822 7.89165 1.03044L8.58165 2.29951C8.71755 2.37448 8.84823 2.44944 8.97369 2.53512L10.3955 2.50834C10.4544 2.50727 10.5129 2.51914 10.567 2.54315C10.6211 2.56717 10.6696 2.60277 10.7091 2.64757C11.2738 3.28073 11.6982 4.03148 11.9532 4.84837C11.971 4.90695 11.9765 4.96875 11.9693 5.02967C11.9621 5.09059 11.9424 5.14925 11.9114 5.20178L11.1796 6.44943C11.1848 6.60472 11.1848 6.75465 11.1796 6.90994L11.9114 8.1576C11.9424 8.21012 11.9621 8.26878 11.9693 8.32971C11.9765 8.39063 11.971 8.45242 11.9532 8.51101C11.6984 9.32682 11.276 10.0773 10.7144 10.7118C10.6734 10.7562 10.624 10.7915 10.5691 10.8155C10.5142 10.8394 10.4551 10.8515 10.3955 10.851L8.97369 10.8296C8.84823 10.9117 8.71755 10.9867 8.58165 11.0545L7.89165 12.3289C7.86313 12.3829 7.82364 12.4299 7.77584 12.4669ZM5.45081 8.28011C6.33465 8.79039 7.46481 8.48757 7.97509 7.60373C8.48537 6.7199 8.18255 5.58974 7.29871 5.07945C6.41488 4.56917 5.28472 4.87199 4.77443 5.75583C4.26415 6.63967 4.56697 7.76983 5.45081 8.28011Z" fill="#0D2E4E"/>
</svg>
