<?xml version="1.0" encoding="utf-8"?>
<!-- Generator: Adobe Illustrator 19.1.0, SVG Export Plug-In . SVG Version: 6.00 Build 0)  -->
<svg version="1.1" id="Иконки" xmlns="http://www.w3.org/2000/svg" xmlns:xlink="http://www.w3.org/1999/xlink" x="0px"
	 y="0px" viewBox="0 0 32 32" enable-background="new 0 0 32 32" xml:space="preserve">
<circle fill="#FFFFFF" cx="16" cy="16" r="16"/>
<g>
	<g>
		<path fill="none" stroke="#8095B3" stroke-miterlimit="10" d="M21.3,17.5h2.2l0-3h-2.2c-0.1-0.5-0.3-0.9-0.6-1.3l1.6-1.6l-1.8-1.8
			l-1.6,1.6c-0.5-0.3-0.8-0.5-1.3-0.6V8.5h-3v2.2c-0.5,0.1-0.9,0.3-1.3,0.6l-1.6-1.6l-1.8,1.8l1.6,1.6c-0.3,0.5-0.5,0.8-0.6,1.3H8.5
			v3h2.2c0.1,0.5,0.3,0.9,0.6,1.3l-1.6,1.6l1.8,1.8l1.6-1.6c0.5,0.3,0.8,0.5,1.3,0.6v2.2l3,0v-2.2c0.5-0.1,0.9-0.3,1.3-0.6l1.6,1.6
			l1.8-1.8l-1.6-1.6C21,18.4,21.2,18,21.3,17.5z"/>
		<circle fill="none" stroke="#8095B3" stroke-miterlimit="10" cx="16" cy="16" r="2.8"/>
	</g>
</g>
</svg>
