<svg id="Component_111_1" data-name="Component 111 – 1" xmlns="http://www.w3.org/2000/svg" width="243" height="253" viewBox="0 0 243 253">
  <g id="Path_2021" data-name="Path 2021" transform="translate(-3170.999 375)" fill="rgba(100,184,223,0.1)" stroke-miterlimit="10">
    <path d="M 3178.811279296875 -124.0089569091797 C 3186.38134765625 -129.1428680419922 3193.42529296875 -137.2430419921875 3199.825439453125 -148.1914367675781 C 3206.09716796875 -158.9206390380859 3209.318603515625 -168.34033203125 3209.45263671875 -168.7360687255859 L 3209.8427734375 -169.8878936767578 L 3208.999755859375 -170.7643280029297 C 3203.8330078125 -176.1349945068359 3199.146484375 -182.0187377929688 3195.06982421875 -188.2521057128906 C 3190.950927734375 -194.5499725341797 3187.4150390625 -201.2657318115234 3184.560791015625 -208.2128295898438 C 3181.65283203125 -215.2906951904297 3179.419921875 -222.6880340576172 3177.92431640625 -230.1993713378906 C 3176.3896484375 -237.9073944091797 3175.611328125 -245.8379058837891 3175.611328125 -253.7705383300781 C 3175.611328125 -261.8626403808594 3176.41943359375 -269.9490051269531 3178.01318359375 -277.8050231933594 C 3179.566162109375 -285.4602661132813 3181.883544921875 -292.9901123046875 3184.90087890625 -300.1853637695313 C 3187.86328125 -307.2502136230469 3191.5302734375 -314.0643005371094 3195.799560546875 -320.4383544921875 C 3200.028564453125 -326.7521057128906 3204.88525390625 -332.6892395019531 3210.234619140625 -338.0848388671875 C 3215.583740234375 -343.4801635742188 3221.4697265625 -348.3783264160156 3227.728759765625 -352.6433410644531 C 3234.047119140625 -356.9486389160156 3240.80126953125 -360.6463317871094 3247.803955078125 -363.6336975097656 C 3254.935302734375 -366.6759643554688 3262.398193359375 -369.0125122070313 3269.9853515625 -370.578369140625 C 3277.771240234375 -372.1852416992188 3285.78515625 -373 3293.804931640625 -373 C 3301.824462890625 -373 3309.83837890625 -372.1852416992188 3317.6240234375 -370.578369140625 C 3325.211181640625 -369.0125122070313 3332.673828125 -366.6759643554688 3339.80517578125 -363.6336975097656 C 3346.807861328125 -360.6463317871094 3353.562255859375 -356.9486389160156 3359.880615234375 -352.6433410644531 C 3366.1396484375 -348.3783264160156 3372.025634765625 -343.4801635742188 3377.374755859375 -338.0848388671875 C 3382.724365234375 -332.689208984375 3387.5810546875 -326.7521057128906 3391.81005859375 -320.4383544921875 C 3396.07958984375 -314.0642700195313 3399.746337890625 -307.2502136230469 3402.708984375 -300.1853637695313 C 3405.726318359375 -292.9900817871094 3408.043701171875 -285.4602355957031 3409.596923828125 -277.8050231933594 C 3411.190673828125 -269.9490051269531 3411.998779296875 -261.8626403808594 3411.998779296875 -253.7705383300781 C 3411.998779296875 -245.6784362792969 3411.190673828125 -237.5920257568359 3409.596923828125 -229.7359924316406 C 3408.043701171875 -222.0807647705078 3405.726318359375 -214.5509338378906 3402.708984375 -207.3556365966797 C 3399.746337890625 -200.2908020019531 3396.07958984375 -193.4766998291016 3391.81005859375 -187.1026000976563 C 3387.5810546875 -180.7888946533203 3382.724365234375 -174.8517608642578 3377.374755859375 -169.4561309814453 C 3372.025634765625 -164.0608062744141 3366.1396484375 -159.1626281738281 3359.880615234375 -154.8976287841797 C 3353.562255859375 -150.5923309326172 3346.807861328125 -146.8946380615234 3339.80517578125 -143.9072723388672 C 3332.673828125 -140.8650054931641 3325.211181640625 -138.5284729003906 3317.6240234375 -136.9626007080078 C 3309.83837890625 -135.3557281494141 3301.824462890625 -134.5409698486328 3293.804931640625 -134.5409698486328 C 3279.78173828125 -134.5409698486328 3266.056640625 -136.9967041015625 3253.010986328125 -141.8399658203125 L 3251.887451171875 -142.2570648193359 L 3250.98974609375 -141.4629974365234 C 3250.155029296875 -140.7245635986328 3249.31591796875 -140.1078643798828 3248.348876953125 -139.5222320556641 C 3236.279052734375 -132.2183990478516 3225.117919921875 -128.0328063964844 3212.160400390625 -125.9511032104492 C 3202.033935546875 -124.3242721557617 3191.44775390625 -124.0538940429688 3178.811279296875 -124.0089569091797 Z" stroke="none"/>
    <path d="M 3293.804931640625 -371 C 3285.920654296875 -371 3278.042724609375 -370.1991271972656 3270.3896484375 -368.61962890625 C 3262.9326171875 -367.0806274414063 3255.597900390625 -364.7842102050781 3248.5888671875 -361.7940673828125 C 3241.70556640625 -358.8576049804688 3235.06591796875 -355.2227783203125 3228.85498046875 -350.9905395507813 C 3222.701171875 -346.79736328125 3216.914306640625 -341.9815063476563 3211.655029296875 -336.6766967773438 C 3206.39501953125 -331.3713684082031 3201.61962890625 -325.5335388183594 3197.46142578125 -319.3253784179688 C 3193.263427734375 -313.05810546875 3189.657958984375 -306.3582458496094 3186.7451171875 -299.4119567871094 C 3183.778564453125 -292.3375854492188 3181.500244140625 -284.9341735839844 3179.973388671875 -277.4074096679688 C 3178.406005859375 -269.6820068359375 3177.611328125 -261.7293701171875 3177.611328125 -253.7705383300781 C 3177.611328125 -245.96875 3178.37646484375 -238.169677734375 3179.8857421875 -230.5899658203125 C 3181.356201171875 -223.2048034667969 3183.551513671875 -215.9317932128906 3186.41064453125 -208.9729309082031 C 3189.217041015625 -202.1423645019531 3192.693603515625 -195.5392150878906 3196.743408203125 -189.3468017578125 C 3200.752197265625 -183.2174987792969 3205.360595703125 -177.4320068359375 3210.44091796875 -172.1509094238281 L 3212.127197265625 -170.3980407714844 L 3211.346923828125 -168.0943298339844 C 3211.210205078125 -167.6907043457031 3207.9248046875 -158.0838317871094 3201.552001953125 -147.18212890625 C 3196.36376953125 -138.3066711425781 3190.73779296875 -131.2432250976563 3184.73583984375 -126.0528564453125 C 3194.735595703125 -126.1752014160156 3203.4716796875 -126.5809020996094 3211.843017578125 -127.92578125 C 3224.534423828125 -129.9647521972656 3235.47412109375 -134.0690307617188 3247.312744140625 -141.23291015625 C 3248.1748046875 -141.7550964355469 3248.922119140625 -142.3041687011719 3249.66455078125 -142.9609069824219 L 3251.4599609375 -144.5492553710938 L 3253.70703125 -143.7149658203125 C 3266.529296875 -138.9546203613281 3280.02001953125 -136.5409545898438 3293.804931640625 -136.5409545898438 C 3301.68896484375 -136.5409545898438 3309.56689453125 -137.3418273925781 3317.219970703125 -138.9213256835938 C 3324.676513671875 -140.4603271484375 3332.011474609375 -142.7567443847656 3339.0205078125 -145.7468872070313 C 3345.90380859375 -148.6833190917969 3352.543212890625 -152.3181762695313 3358.75439453125 -156.5504150390625 C 3364.907958984375 -160.7436218261719 3370.695068359375 -165.5595092773438 3375.95458984375 -170.8642578125 C 3381.214599609375 -176.1696166992188 3385.989990234375 -182.0075073242188 3390.1484375 -188.2156372070313 C 3394.34619140625 -194.48291015625 3397.95166015625 -201.1828002929688 3400.86474609375 -208.1290893554688 C 3403.831298828125 -215.2034912109375 3406.109619140625 -222.6068725585938 3407.63671875 -230.1336669921875 C 3409.2041015625 -237.8590698242188 3409.998779296875 -245.8117065429688 3409.998779296875 -253.7705383300781 C 3409.998779296875 -261.7293701171875 3409.2041015625 -269.6819458007813 3407.63671875 -277.4073791503906 C 3406.109619140625 -284.9341430664063 3403.831298828125 -292.3375244140625 3400.86474609375 -299.4119262695313 C 3397.95166015625 -306.3582153320313 3394.34619140625 -313.05810546875 3390.1484375 -319.3253784179688 C 3385.989990234375 -325.5335083007813 3381.214599609375 -331.371337890625 3375.95458984375 -336.6766967773438 C 3370.695068359375 -341.9815063476563 3364.907958984375 -346.79736328125 3358.75439453125 -350.9905395507813 C 3352.543212890625 -355.2227783203125 3345.90380859375 -358.8576049804688 3339.0205078125 -361.7940673828125 C 3332.011474609375 -364.7842102050781 3324.676513671875 -367.0806274414063 3317.219970703125 -368.61962890625 C 3309.56689453125 -370.1991271972656 3301.68896484375 -371 3293.804931640625 -371 M 3293.804931640625 -375 C 3360.186767578125 -375 3413.998779296875 -320.7244262695313 3413.998779296875 -253.7705383300781 C 3413.998779296875 -186.8165283203125 3360.186767578125 -132.5409545898438 3293.804931640625 -132.5409545898438 C 3279.22314453125 -132.5409545898438 3265.24658203125 -135.1640930175781 3252.31494140625 -139.9650268554688 C 3251.502685546875 -139.2464599609375 3250.5712890625 -138.530029296875 3249.384765625 -137.8114624023438 C 3223.255859375 -122 3203.22314453125 -122 3170.998779296875 -122 C 3194.738037109375 -132.0107421875 3207.339599609375 -168.7320861816406 3207.558349609375 -169.3777770996094 C 3186.56103515625 -191.20458984375 3173.611328125 -220.953369140625 3173.611328125 -253.7705383300781 C 3173.611328125 -320.7244262695313 3227.421630859375 -375 3293.804931640625 -375 Z" stroke="none" fill="#64b8df"/>
  </g>
  <g id="Group_7572" data-name="Group 7572" transform="translate(-839 -478.971)">
    <g id="Rectangle_6550" data-name="Rectangle 6550" transform="translate(992 602)" fill="none" stroke="#64b8df" stroke-miterlimit="10" stroke-width="4" opacity="0.5">
        <rect xmlns="http://www.w3.org/2000/svg" x="2" y="2" width="28" height="28" rx="4" fill="none" stroke="#64b8df"/>
    </g>
    <g id="Rectangle_6551" data-name="Rectangle 6551" transform="translate(992 637)" fill="none" stroke="#64b8df" stroke-miterlimit="10" stroke-width="4" opacity="0.5">
        <rect xmlns="http://www.w3.org/2000/svg" x="2" y="2" width="28" height="28" rx="4" fill="none" stroke="#64b8df"/>
    </g>
    <g id="Rectangle_6552" data-name="Rectangle 6552" transform="translate(957 637)" fill="none" stroke="#64b8df" stroke-miterlimit="10" stroke-width="4" opacity="0.5">
        <rect xmlns="http://www.w3.org/2000/svg" x="2" y="2" width="28" height="28" rx="4" fill="none" stroke="#64b8df"/>
    </g>
    <g id="Group_7571" data-name="Group 7571" transform="translate(-163.115 799.315)">
      <rect id="Rectangle_6537" data-name="Rectangle 6537" width="90" height="90" rx="4" transform="translate(1060.115 -257.315)" fill="none" stroke="#64b8df" stroke-miterlimit="10" stroke-width="4"/>
      <g id="Rectangle_6538" data-name="Rectangle 6538" transform="translate(1070.115 -247.315)" fill="none" stroke="#a9d8ee" stroke-miterlimit="10" stroke-width="2">
        <rect width="11" height="11" stroke="none"/>
        <rect x="1" y="1" width="9" height="9" fill="none"/>
      </g>
      <g id="Rectangle_6539" data-name="Rectangle 6539" transform="translate(1070.115 -226.315)" fill="none" stroke="#999" stroke-miterlimit="10" stroke-width="2">
        <rect width="11" height="9" stroke="none"/>
        <rect x="1" y="1" width="9" height="7" fill="none"/>
      </g>
      <g id="Rectangle_6540" data-name="Rectangle 6540" transform="translate(1070.115 -206.315)" fill="none" stroke="#a9d8ee" stroke-miterlimit="10" stroke-width="2">
        <rect width="11" height="10" stroke="none"/>
        <rect x="1" y="1" width="9" height="8" fill="none"/>
      </g>
      <g id="Rectangle_6541" data-name="Rectangle 6541" transform="translate(1070.115 -186.315)" fill="none" stroke="#a9d8ee" stroke-miterlimit="10" stroke-width="2">
        <rect width="11" height="10" stroke="none"/>
        <rect x="1" y="1" width="9" height="8" fill="none"/>
      </g>
      <g id="Group_7576" data-name="Group 7576">
        <rect id="Rectangle_12" data-name="Rectangle 12" width="13" height="13" rx="2" transform="translate(1069.115 -228.315)" fill="#64b8df"/>
        <path id="Path_30" data-name="Path 30" d="M10.921,4.5,6.035,9.385,4,7.39" transform="translate(1068.372 -229.151)" fill="none" stroke="#fff" stroke-miterlimit="10" stroke-width="2"/>
      </g>
      <rect id="Rectangle_6546" data-name="Rectangle 6546" width="53" height="5" rx="2.5" transform="translate(1087.115 -244.315)" fill="#a9d8ee"/>
      <rect id="Rectangle_6547" data-name="Rectangle 6547" width="53" height="5" rx="2.5" transform="translate(1087.115 -224.315)" fill="#a9d8ee"/>
      <rect id="Rectangle_6548" data-name="Rectangle 6548" width="28" height="5" rx="2.5" transform="translate(1087.115 -204.315)" fill="#a9d8ee"/>
      <rect id="Rectangle_6549" data-name="Rectangle 6549" width="53" height="5" rx="2.5" transform="translate(1087.115 -183.315)" fill="#a9d8ee"/>
    </g>
  </g>
</svg>
