<svg xmlns="http://www.w3.org/2000/svg" width="16" height="16" viewBox="0 0 16 16"><defs><style>.a,.b{fill:none;}.a{stroke:#8095b3;}.c{fill:#8095b3;}</style></defs><path class="a" d="M-48.313-343.066l-2-2h-4.5v13h14v-11Z" transform="translate(56.313 346.566)"/><rect class="b" width="16" height="16"/><g transform="translate(345.66 -816.334)"><path class="c" d="M-337.66,822.334a2,2,0,0,1,2,2,2,2,0,0,1-2,2,2,2,0,0,1-2-2,2,2,0,0,1,2-2m0-1a3,3,0,0,0-3,3,3,3,0,0,0,3,3,3,3,0,0,0,3-3,3,3,0,0,0-3-3Z"/><rect class="c" width="1" height="4.243" transform="translate(-336.514 826.187) rotate(-45)"/></g></svg>