<svg xmlns="http://www.w3.org/2000/svg" viewBox="0 0 90 94" enable-background="new 0 0 90 94"><g fill="#64b8df"><path d="m53.5 43.5c-2.5 0-4.8.7-6.8 1.9l1.3 2.6h10v4l-4 4 1 .5c5.3 0 6.9 0 11.5 0 0-7.2-5.8-13-13-13" opacity=".2"/><path d="m2.4 93.4c7.6-4.8 11.5-16.3 11.7-16.8l.1-.3-.2-.3c-8-8.4-12.4-19.3-12.4-31 0-24.5 19.7-44.4 43.9-44.4 24.2 0 43.9 19.9 43.9 44.4 0 24.5-19.7 44.4-43.9 44.4-5.2 0-10.3-.9-15.2-2.7l-.3-.1-.3.2c-.3.3-.6.5-1 .7-8.9 5.5-15.7 5.9-26.3 5.9" opacity=".1"/></g><path d="m45.5 1.2c23.9 0 43.3 19.7 43.3 43.8 0 24.2-19.4 43.8-43.3 43.8-5.1 0-10.2-.9-14.9-2.7l-.7-.3-.5.5c-.3.3-.6.5-.9.7-8.2 5-14.7 5.6-24.1 5.7 6.8-5.4 10.2-15.5 10.4-16l.2-.7-.5-.5c-8-8.2-12.3-19-12.3-30.5 0-24.1 19.4-43.8 43.3-43.8m0-1.2c-24.6 0-44.5 20.2-44.5 45 0 12.2 4.8 23.2 12.6 31.4-.1.2-4.8 13.9-13.6 17.6 11.9 0 19.4 0 29-5.9.4-.3.8-.5 1.1-.8 4.8 1.8 10 2.8 15.4 2.8 24.6 0 44.5-20.2 44.5-45.1 0-24.8-19.9-45-44.5-45z" fill="#4aa8d4"/><g stroke="#4aa8d4" stroke-width="1.2" stroke-miterlimit="10"><path d="m46.7 45.4c2-1.2 4.3-1.9 6.8-1.9 7.2 0 13 5.8 13 13-4.6 0-6.2 0-11.5 0" fill="none"/><circle cx="54.5" cy="35.5" r="6" fill="#64b8df" fill-opacity=".2"/><g fill="none"><circle cx="35.5" cy="33.5" r="7"/><path d="m43 56.5c-6.7 0-15.1 0-21.5 0 0-7.7 6.3-14 14-14 4.1 0 7.7 1.7 10.3 4.5"/><path d="m40.5 48.5v3.1l7 7.1v8.9h3v-8.9l7-7.1v-3.1h-17z"/></g></g></svg>