<svg xmlns="http://www.w3.org/2000/svg" xmlns:xlink="http://www.w3.org/1999/xlink" width="42" height="42" viewBox="0 0 42 42"><defs><style>.a{fill:none;}.b{fill:#fff;}.c{clip-path:url(#a);}.d{fill:#5bc8c4;}</style><clipPath id="a"><rect class="a" width="21.517" height="21.517"/></clipPath></defs><path class="b" d="M38,42H4a4.012,4.012,0,0,1-4-4V4A4.012,4.012,0,0,1,4,0H38a4.012,4.012,0,0,1,4,4V38a4.012,4.012,0,0,1-4,4"/><g class="c" transform="translate(10.242 10.161)"><rect class="a" width="21.517" height="21.517"/><path class="d" d="M47.187-576.435v17.375H65.943v-17.375ZM64.6-560.4H48.527v-12.029H64.6Zm-11.45-13.366H48.584V-575.1h4.569Z" transform="translate(-45.807 578.505)"/><rect class="d" width="5" height="6" transform="translate(4.758 8.839)"/><rect class="d" width="6" height="1" transform="translate(10.758 8.839)"/><rect class="d" width="3" height="1" transform="translate(10.758 12.839)"/><rect class="d" width="7" height="1" transform="translate(10.758 10.839)"/></g></svg>