<svg xmlns="http://www.w3.org/2000/svg" viewBox="0 0 135 139" enable-background="new 0 0 135 139"><g fill="#64b8df"><path d="M4,138c11.2-7.4,17.1-24.5,17.1-24.7l0.2-0.6l-0.4-0.4C9,100,2.4,83.7,2.4,66.6
		C2.4,30.4,31.7,1,67.7,1c36,0,65.3,29.4,65.3,65.6c0,36.2-29.3,65.6-65.3,65.6c-7.7,0-15.3-1.4-22.5-4l-0.6-0.2l-0.4,0.4
		c-0.5,0.4-0.9,0.8-1.5,1.1C29.6,137.3,19.5,138,4,138z" opacity="0.1"/><path d="M67.7,2C103.2,2,132,31,132,66.6c0,35.6-28.8,64.6-64.3,64.6c-7.6,0-15.1-1.3-22.2-4l-1.1-0.4
		l-0.9,0.8c-0.4,0.4-0.8,0.7-1.3,1c-12,7.2-21.5,8.2-35.2,8.4c9.8-8.1,14.8-22.6,15-23.4l0.4-1.2l-0.8-0.9
		C9.9,99.5,3.4,83.5,3.4,66.6C3.4,31,32.3,2,67.7,2 M67.7,0C31.1,0,1.4,29.8,1.4,66.6c0,18,7.1,34.4,18.7,46.4
		c-0.1,0.4-7.1,20.5-20.2,26c17.8,0,28.8,0,43.2-8.7c0.7-0.4,1.2-0.8,1.6-1.2c7.1,2.6,14.8,4.1,22.9,4.1c36.6,0,66.3-29.8,66.3-66.6
		C134,29.8,104.3,0,67.7,0L67.7,0z"/></g><g fill="none" stroke="#64b8df" stroke-width="2.4" stroke-miterlimit="10"><path d="M67.6,89h-4c-8.3,0-15-6.7-15-15V63h34v11
		C82.6,82.3,75.9,89,67.6,89z"/><path d="M82.6,77.6c1,0.4,2,0.7,3.1,0.7
		c4.2,0,7.6-3.4,7.6-7.6c0-4.2-3.4-7.6-7.6-7.6c-1.1,0-2.2,0.2-3.1,0.7"/><path d="M63.8,32.6c-0.1,5.5-3.4,8.5-3.6,12.5
		c-0.2,5.8,3.3,7,3.6,11.6"/><path d="M68.3,59.5c0.5-1.2,0.8-2.4,0.9-3.7
		c0.2-5.8-3.3-7-3.6-11.6"/></g></svg>