<svg xmlns="http://www.w3.org/2000/svg" viewBox="0 0 36 36" enable-background="new 0 0 36 36"><defs><linearGradient id="3" gradientUnits="userSpaceOnUse" x1="30.19" y1="24.409" x2="-3.354" y2="29"><stop stop-color="#ff4521"/><stop offset=".341" stop-color="#d43e65"/><stop offset=".793" stop-color="#9f36b9"/><stop offset="1" stop-color="#8a33db"/></linearGradient><linearGradient id="2" gradientUnits="userSpaceOnUse" x1="10.675" y1="26.856" x2=".997" y2="-10.486"><stop stop-color="#63ffd4"/><stop offset=".485" stop-color="#32a0ba"/><stop offset=".835" stop-color="#1262a9"/><stop offset="1" stop-color="#064aa2"/></linearGradient><linearGradient id="0" gradientUnits="userSpaceOnUse" x1="16.234" y1="16.537" x2="9.977" y2="-10.65"><stop stop-color="#d6ffa1"/><stop offset=".326" stop-color="#93e2a7"/><stop offset="1" stop-color="#00a3b5"/></linearGradient><linearGradient id="1" gradientUnits="userSpaceOnUse" x1="15.451" y1="-2.126" x2="31.464" y2="25.22"><stop stop-color="#ff177b"/><stop offset=".672" stop-color="#ffa976"/><stop offset="1" stop-color="#ffec73"/></linearGradient></defs><path d="M25.6,12.4L3.8,0.3C3.1,0,2.6-0.1,2.1,0.1L20,18L25.6,12.4z" fill="url(#0)"/><path d="m25.6 23.6l7.5-4.1c1.5-.8 1.5-2.2 0-3l-7.5-4.1-5.6 5.6 5.6 5.6" fill="url(#1)"/><path d="M2.1,0.1C1.4,0.3,1,1,1,2L1,34c0,1,0.4,1.7,1.1,1.9L20,18L2.1,0.1z" fill="url(#2)"/><path d="m2.1 35.9c.5.2 1 .1 1.7-.3l21.9-12-5.7-5.6-17.9 17.9" fill="url(#3)"/></svg>