<svg xmlns="http://www.w3.org/2000/svg" viewBox="0 0 36 36" enable-background="new 0 0 36 36" width="36" height="36"><g fill="#1dcf97"><path d="m11.3 21.8c-.4-.4-.6-.2-.7-.1-2.5 2.5-4.7 8.4-3.5 7.8 4.2-2.1 4.9-1.5 7.4-3.9.1-.1.3-.3-.1-.7l-3.1-3.1"/><path d="m24.6 21.7c-.1-.4.1-.5.2-.6 5.4-5.9 8.9-13.7 6.3-16.3-2.6-2.5-10.1 1-16 6.4-.1.1-.3.3-.8.2l-1.8-.4c-.5-.1-1.2.1-1.6.5l-6.7 6.7c-.4.4-.2.7.3.8l4.9.8c.5.1 1.2-.2 1.6-.5 0 0 .3-.3.5 0 1.4 1.4 4 4 5.3 5.3.3.3 0 .5 0 .5-.4.4-.6 1.1-.5 1.6l.8 4.9c.1.5.4.6.8.3l6.7-6.7c.4-.4.6-1.1.5-1.6l-.5-1.9m-1.5-8.6c-1.1-1.1-1.1-3 0-4.1s3-1.1 4.1 0 1.1 3 0 4.1-3 1.1-4.1 0"/></g></svg>