<svg xmlns="http://www.w3.org/2000/svg" viewBox="0 0 14 14" enable-background="new 0 0 14 14"><g fill="#e86161"><path d="M6,4.5C6,4.3,6,4.2,6.1,4H0v7h1v2l2-2h6V6.9C8.8,7,8.7,7,8.5,7C7.1,7,6,5.9,6,4.5z M5,10H4V9h1V10z M5,8H4V5h1
	V8z"/><path d="M7.1,3C7,3.2,7,3.3,7,3.5C7,4.9,8.1,6,9.5,6C9.7,6,9.8,6,10,5.9V3H7.1z"/></g><path fill="none" stroke="#e86161" stroke-miterlimit="10" d="m11 5l2 2"/><path d="M9.5,2C10.3,2,11,2.7,11,3.5S10.3,5,9.5,5S8,4.3,8,3.5S8.7,2,9.5,2 M9.5,1C8.1,1,7,2.1,7,3.5S8.1,6,9.5,6
			S12,4.9,12,3.5S10.9,1,9.5,1L9.5,1z" fill="#e86161"/></svg>