<svg xmlns="http://www.w3.org/2000/svg" viewBox="0 0 38 79" width="38" height="79" enable-background="new 0 0 38 79"><path fill="none" stroke="#aeaeae" stroke-miterlimit="10" d="M 22.6 14.9 22.6 12.5 8.5 12.5 8.5 22.5 10.6 22.5 10.6 25.9 14.1 22.5 16 22.5"/><path d="M28,17v7h-2h-1l0,1l0,0.6l-1.3-1.3L23.4,24H23h-5v-7H28 M29,16H17v9h6l3,3l0-3h3V16L29,16z" fill="#aeaeae"/><path fill="none" stroke="#f49d56" stroke-miterlimit="10" d="M 22.6 55.9 22.6 53.5 8.5 53.5 8.5 63.5 10.6 63.5 10.6 66.9 14.1 63.5 16 63.5"/><path d="M28,58v7h-2h-1l0,1l0,0.6l-1.3-1.3L23.4,65H23h-5v-7H28 M29,57H17v9h6l3,3l0-3h3V57L29,57z" fill="#f49d56"/><g fill="none" stroke-miterlimit="10"><circle cx="19" cy="60" r="18.5" stroke="#f49d56"/><circle cx="19" cy="19" r="18.5" stroke="#c8c8c8"/></g></svg>