<svg xmlns="http://www.w3.org/2000/svg" xmlns:xlink="http://www.w3.org/1999/xlink" width="32" height="32" viewBox="0 0 32 32"><defs><style>.a,.c,.d{fill:none;}.b{clip-path:url(#a);}.c,.d,.e{stroke:#fd6f43;stroke-miterlimit:10;}.d{stroke-linejoin:round;}.e{fill:#fff;stroke-linecap:round;}</style><clipPath id="a"><rect class="a" width="32" height="32"/></clipPath></defs><g class="b"><rect class="a" width="32" height="32" transform="translate(32) rotate(90)"/><g transform="translate(1.187 1.523)"><path class="c" d="M123.289,102.5a2.94,2.94,0,1,1-5.783,0" transform="translate(-105.645 -92.523)"/><path class="c" d="M117.367,103.983c-1.388-2.215.231-6.3,3.932-5.364,2.429-.117,3.007,2.565,2.082,5.014-.231-1.749-1.735-2.215-2.2-2.8C120.374,101.3,118.176,100.718,117.367,103.983Z" transform="translate(-105.684 -93.506)"/><path class="d" d="M128.448,112.814c-.575-2.776-1.61-6.014-4.829-6.014a4.455,4.455,0,0,1-2.644.81,5.445,5.445,0,0,1-2.644-.81c-3.219,0-4.254,3.238-4.829,6.014-.115.81.345,1.735,1.15,1.735H127.3a1.423,1.423,0,0,0,.947-.618,1.439,1.439,0,0,0,.2-1.117Z" transform="translate(-106.172 -91.571)"/><line class="e" y1="2.5" transform="translate(10.313 19.977)"/><line class="e" y1="2.5" transform="translate(19.313 19.977)"/></g></g></svg>