<svg xmlns="http://www.w3.org/2000/svg" width="56" height="56" viewBox="0 0 56 56"><defs><style>.a{fill:#fff;}.b,.c,.e{fill:none;}.b,.c,.d{stroke:#e44400;stroke-miterlimit:10;}.b,.c,.d,.g{stroke-width:2px;}.c,.d{stroke-linecap:round;}.d,.f,.g{fill:#e44400;}.g{stroke:#fff;}</style></defs><circle class="a" cx="28" cy="28" r="28"/><g transform="translate(-587 -207)"><path class="b" d="M618.9,235.4a6.28,6.28,0,0,1-6.8,0,6.478,6.478,0,0,0-4.036,1.554A10.726,10.726,0,0,0,604.5,243.3a1.817,1.817,0,0,0,1.8,2.1h18.4a1.817,1.817,0,0,0,1.8-2.1C625.8,239.4,622.8,235.4,618.9,235.4Z"/><path class="b" d="M620.1,227.6c0,3.1-2,5.7-4.6,5.7s-4.6-2.5-4.6-5.7"/><path class="c" d="M610.3,241a7.84,7.84,0,0,0-1.1,4.1"/><path class="c" d="M620.6,241a7.84,7.84,0,0,1,1.1,4.1"/><path class="d" d="M611.273,228.3a5.487,5.487,0,0,1,7.395-7.5c2.353-.2,4.145,3.8,2.353,7.3a15.8,15.8,0,0,0-2.577-4.6C617.211,224.2,611.833,224.1,611.273,228.3Z" transform="translate(-0.599)"/><line class="b" y2="9.2" transform="translate(615.5 235.9)"/><rect class="e" width="23" height="27" transform="translate(604 219)"/></g><g transform="translate(31.262 31.263)"><circle class="f" cx="7.5" cy="7.5" r="7.5"/><path class="g" d="M-352.65,590.652v1.077l2.916,2.693v3.231h1.167v-3.231l2.917-2.693v-1.077Z" transform="translate(356.65 -586.152)"/></g><g transform="translate(38.809 20.4)"><path class="b" d="M38,24l3,3,5-5" transform="translate(-38 -22)"/></g></svg>