<svg xmlns="http://www.w3.org/2000/svg" viewBox="0 0 16 16" enable-background="new 0 0 16 16"><g fill="none" stroke="#728baa" stroke-width="0.8" stroke-miterlimit="10"><path d="M14.5,6.4h-0.7c-0.1-0.6-0.4-1.1-0.7-1.6
			l0.7-0.7c0.4-0.4,0.4-1,0-1.4l-0.6-0.6c-0.4-0.4-1-0.4-1.4,0l-0.7,0.7c-0.5-0.3-1-0.5-1.6-0.6V1.4c0-0.6-0.5-1-1-1h-1
			c-0.6,0-1,0.4-1,1v0.8C5.9,2.3,5.3,2.5,4.8,2.9L4.1,2.2c-0.4-0.4-1-0.4-1.4,0L2.1,2.8c-0.4,0.4-0.4,1,0,1.4l0.7,0.7
			C2.5,5.4,2.3,6,2.2,6.6H1.5c-0.6,0-1,0.5-1,1v0.9c0,0.6,0.4,1,1,1h0.7c0.2,0.6,0.4,1.1,0.7,1.6l-0.8,0.8c-0.4,0.4-0.4,1,0,1.4
			l0.6,0.6c0.4,0.4,1,0.4,1.4,0L5,13.1c0.5,0.3,1,0.5,1.5,0.6v0.8c0,0.6,0.5,1,1,1h0.9c0.6,0,1-0.4,1-1v-0.8
			c0.6-0.2,1.1-0.4,1.6-0.7l0.7,0.7c0.4,0.4,1,0.4,1.4,0l0.6-0.6c0.4-0.4,0.4-1,0-1.4L13,11c0.3-0.5,0.5-1.1,0.7-1.6h0.7
			c0.6,0,1-0.5,1-1V7.5C15.5,6.9,15.1,6.4,14.5,6.4z"/><circle cx="8" cy="7.9" r="2.5"/></g></svg>