<svg xmlns="http://www.w3.org/2000/svg" width="16.01" height="16.17" viewBox="0 0 16.01 16.17">
  <g id="Group_716" data-name="Group 716" transform="translate(0 0.13)">
    <g id="Group_592" data-name="Group 592">
      <path id="Path_803" data-name="Path 803" d="M412.55-233.64h-.7a5.93,5.93,0,0,0-.69-1.63l.73-.73a1,1,0,0,0,0-1.38l-.62-.62a1,1,0,0,0-1.38,0l-.73.73c-.5-.31-1.05,0-1.64-.2v-1.2a1,1,0,0,0-1-1h-.94a1,1,0,0,0-1,1v1.2c-.62.16-1.2-.09-1.72.25l-.64-.64a1,1,0,0,0-1.38,0l-.62.62a1,1,0,0,0,0,1.38l.67.67a5.939,5.939,0,0,0-.68,1.69h-.66a1,1,0,0,0-1,1v.94a1,1,0,0,0,1,1h.73a6,6,0,0,0,.71,1.58l-.78.78a1,1,0,0,0,0,1.38l.62.62a1,1,0,0,0,1.38,0l.79-.8a6,6,0,0,0,1.55.64v.84a1,1,0,0,0,1,1h.94a1,1,0,0,0,1-1v-.84a6,6,0,0,0,1.63-.69l.73.73a1,1,0,0,0,1.38,0l.62-.62a1,1,0,0,0,0-1.38l-.73-.73a5.939,5.939,0,0,0,.69-1.64h.7a1,1,0,0,0,1-1v-.94a1,1,0,0,0-.96-1.01Z" transform="translate(-398 240.04)" fill="none" stroke="#667d9d" stroke-miterlimit="10" stroke-width="1"/>
      <circle id="Ellipse_135" data-name="Ellipse 135" cx="2.5" cy="2.5" r="2.5" transform="translate(5.55 5.4)" fill="none" stroke="#667d9d" stroke-miterlimit="10" stroke-width="1"/>
    </g>
    <rect id="Rectangle_308" data-name="Rectangle 308" width="16" height="16" transform="translate(0 0.04)" fill="none"/>
  </g>
</svg>
