<svg xmlns="http://www.w3.org/2000/svg" width="12" height="16" viewBox="0 0 12 16"><defs><style>.a{fill:#4e7bd8;}.b{fill:none;stroke:#4e7bd8;stroke-miterlimit:10;}</style></defs><path class="a" d="M181.59-320l.71.71.29.29H184v2h-3v-3h.59m.41-1h-2v5h5v-4h-2Z" transform="translate(-180 321)"/><path class="a" d="M188.59-315l.71.71.29.29H191v2h-3v-3h.59m.41-1h-2v5h5v-4h-2Z" transform="translate(-180 321)"/><path class="a" d="M188.59-309l.71.71.29.29H191v2h-3v-3h.59m.41-1h-2v5h5v-4h-2Z" transform="translate(-180 321)"/><path class="b" d="M2.5,5V7.5H7"/><path class="b" d="M2.5,8v5.5H7"/></svg>