<svg xmlns="http://www.w3.org/2000/svg" width="16" height="16" viewBox="0 0 16 16"><defs><style>.a,.c{fill:none;}.b{fill:#667d9d;}.c{stroke:#667d9d;stroke-miterlimit:10;}</style></defs><rect class="a" width="16" height="16"/><path class="b" d="M363.92-678.87l1.94,1.94-9.12,9.12a3.931,3.931,0,0,0-.58,0,4,4,0,0,0-1.7.38,4,4,0,0,0,.33-2.28l9.12-9.12m0-1.13-10,10a3.22,3.22,0,0,1-.93,3.24l.77.77a3.331,3.331,0,0,1,2.4-1,2.7,2.7,0,0,1,.83.12l10-10L363.92-680Z" transform="translate(-352 681)"/><line class="c" x2="1.18" y2="1.18" transform="translate(10.24 4.58)"/></svg>