<svg xmlns="http://www.w3.org/2000/svg" viewBox="0 0 16 16" enable-background="new 0 0 16 16"><g fill="#e86127"><path d="M9.4,8.1c1.8,0,3.4-1.1,3.8-3.1h1c0,2.1-2.1,4.3-5.1,4.3V10c4,0,6-3.3,6-5V4h-1.8c-0.4-2-2-3.3-3.8-3.3
	c-2.2,0-3.9,1.5-3.9,3.7C5.5,6.7,7.2,8.1,9.4,8.1z"/><path d="M6,16c3.5,0,8.2,0,10,0c0-2.9-1.2-5.1-3.6-5.9c-0.4,0.5-2,0.9-3.2,0.9c-1.2,0-2.2-0.3-2.6-0.8
	c-0.2,0.1-0.4,0.2-0.6,0.3V16z"/><path d="M 0,11 H5 V12 H0 z"/><path d="M 0,13 H5 V14 H0 z"/><path d="M 0,15 H5 V16 H0 z"/><path d="M 4.4 8.3 3.6 7.7 3 8.5 3 6 2 6 2 8.5 1.4 7.7 0.6 8.3 2 10 3 10"/></g></svg>