<svg xmlns="http://www.w3.org/2000/svg" viewBox="0 0 134 139" enable-background="new 0 0 134 139"><g fill="#ff7a64"><path d="m4 138c11.2-7.4 17.1-24.5 17.1-24.7l.2-.6-.4-.4c-11.9-12.3-18.5-28.6-18.5-45.7 0-36.2 29.3-65.6 65.3-65.6s65.3 29.4 65.3 65.6-29.3 65.6-65.3 65.6c-7.7 0-15.3-1.4-22.5-4l-.6-.2-.4.4c-.5.4-.9.8-1.5 1.1-13.1 7.8-23.2 8.5-38.7 8.5" opacity=".1"/><path d="m67.7 2c35.5 0 64.3 29 64.3 64.6s-28.8 64.6-64.3 64.6c-7.6 0-15.1-1.3-22.2-4l-1.1-.4-.9.8c-.4.4-.8.7-1.3 1-12 7.2-21.5 8.2-35.2 8.4 9.8-8.1 14.8-22.6 15-23.4l.4-1.2-.8-.9c-11.7-12-18.2-28-18.2-44.9 0-35.6 28.9-64.6 64.3-64.6m0-2c-36.6 0-66.3 29.8-66.3 66.6 0 18 7.1 34.4 18.7 46.4-.1.4-7.1 20.5-20.2 26 17.8 0 28.8 0 43.2-8.7.7-.4 1.2-.8 1.6-1.2 7.1 2.6 14.8 4.1 22.9 4.1 36.6 0 66.3-29.8 66.3-66.6.1-36.8-29.6-66.6-66.2-66.6z"/></g><g fill="none" stroke="#ff7a64" stroke-miterlimit="10"><circle cx="62.6" cy="57.6" r="18" stroke-width="2.2"/><path d="m74.6 69.6l6 6" stroke-width="4"/><path d="m100.1 95.1c-1.2 1.2-3.1 1.2-4.2 0l-16.2-16.2c-1.2-1.2-1.2-3.1 0-4.2 1.2-1.2 3.1-1.2 4.2 0l16.2 16.2c1.2 1.1 1.2 3.1 0 4.2z" stroke-width="2"/><path d="m62.6 45.1c6.9 0 12.5 5.6 12.5 12.5" stroke-width="2.2"/></g><path d="m55.7 87c-.6 0-1.2-.2-1.6-.7l-5.6-5.6-5.6 5.6c-.4.4-1 .7-1.6.7-.6 0-1.2-.2-1.6-.7-.4-.4-.7-1-.7-1.6s.2-1.2.7-1.6l5.6-5.6-5.6-5.6c-.4-.4-.7-1-.7-1.6 0-.6.2-1.2.7-1.6.4-.4 1-.7 1.6-.7.6 0 1.2.2 1.6.7l5.6 5.6 5.6-5.6c.4-.4 1-.7 1.6-.7.6 0 1.2.2 1.6.7.4.4.7 1 .7 1.6 0 .6-.2 1.2-.7 1.6l-5.6 5.6 5.6 5.6c.4.4.7 1 .7 1.6s-.2 1.2-.7 1.6c-.4.5-1 .7-1.6.7" fill="#ff7a64"/><path d="m55.7 69c.3 0 .7.1.9.4.5.5.5 1.3 0 1.8l-6.3 6.3 6.3 6.3c.5.5.5 1.3 0 1.8-.2.3-.6.4-.9.4-.3 0-.7-.1-.9-.4l-6.3-6.3-6.3 6.3c-.2.3-.6.4-.9.4-.3 0-.7-.1-.9-.4-.5-.5-.5-1.3 0-1.8l6.3-6.3-6.3-6.3c-.5-.5-.5-1.3 0-1.8.3-.3.6-.4.9-.4.3 0 .7.1.9.4l6.3 6.3 6.3-6.3c.2-.3.6-.4.9-.4m0-2c-.9 0-1.7.3-2.3 1l-4.9 4.9-4.9-4.9c-.6-.6-1.5-1-2.3-1s-1.7.3-2.3 1c-1.3 1.3-1.3 3.4 0 4.7l4.9 4.9-4.9 4.8c-1.3 1.3-1.3 3.4 0 4.7.6.6 1.5 1 2.3 1s1.7-.3 2.3-1l4.9-4.9 4.9 4.9c.6.6 1.5 1 2.3 1s1.7-.3 2.3-1c1.3-1.3 1.3-3.4 0-4.7l-4.9-4.9 4.9-4.9c1.3-1.3 1.3-3.4 0-4.7-.6-.6-1.4-.9-2.3-.9z" fill="#ffefed"/></svg>