<svg xmlns="http://www.w3.org/2000/svg" viewBox="0 0 16 16" enable-background="new 0 0 16 16"><path fill="#3ed685" d="M 12 3 11 3 11 2 5 2 5 3 4 3 4 1 12 1"/><g fill="none" stroke="#3ed685" stroke-width="1.2" stroke-miterlimit="10"><path d="M 8.5,14.5 12,11"/><path d="M15.5,9.6c0,0.5-0.2,1-0.6,1.3c-0.8,0.8-2.1,0.8-2.9,0.1c-0.8-0.8-0.8-2.1,0.1-2.9c0.4-0.4,0.8-0.6,1.3-0.6"/></g><path d="M9.3,10.6c-0.1-0.3-0.1-0.7-0.1-1c0-1.1,0.5-2.2,1.3-3c0.7-0.7,1.7-1.2,2.7-1.3L15,5V4H1v10h4.9L9.3,10.6z" fill="#3ed685"/></svg>