<svg xmlns="http://www.w3.org/2000/svg" viewBox="0 0 16 16" enable-background="new 0 0 16 16"><g fill="#e86161"><path d="M6.5,5H0v9h2v2l3-2h6V9.5C8.5,9.5,6.5,7.5,6.5,5z M6,12H5v-1h1V12z M6,10H5V7h1V10z"/><path d="M11.5,2C12.9,2,14,3.1,14,4.5S12.9,7,11.5,7S9,5.9,9,4.5S10.1,2,11.5,2 M11.5,1C9.6,1,8,2.6,8,4.5
			C8,6.4,9.6,8,11.5,8S15,6.4,15,4.5C15,2.6,13.4,1,11.5,1L11.5,1z"/></g><path fill="none" stroke="#e86161" stroke-miterlimit="10" d="M 13.4,6.6 16,10"/><path d="M8,4.5C8,6.4,9.6,8,11.5,8c0.2,0,0.3,0,0.5-0.1V4H8.1C8,4.2,8,4.3,8,4.5z" fill="#e86161"/></svg>