<svg xmlns="http://www.w3.org/2000/svg" viewBox="0 0 16 16" enable-background="new 0 0 16 16"><path d="M8.8,14.8C5,14.8,2.1,12.3,2.1,9c0-2.8,1.9-6.8,7.2-6.8c4.5,0,5.5,2.5,5.5,4.6c0,1.8-1.4,4.3-2.8,4.3
	c-0.9,0-1-0.8-1-1.3c0.1-0.4,1-2.8,1.8-4.9l-1-0.5c-0.1,0.3-0.2,0.6-0.3,0.9c-0.1-0.1-0.2-0.2-0.2-0.3c-0.5-0.6-1.3-0.9-2.4-0.9
	c-2.4,0-4.1,3-4.1,4.9c0,2,1.6,3.2,3,3.2c1,0,1.8-0.5,2.4-1.1c0.3,0.6,0.9,1.1,1.9,1.1c2.1,0,4-3,4-5.5C16,5,15.4,1,9.4,1
	C3.9,1,1,5.1,1,9c0,4,3.3,7,7.8,7c4.3,0,5.9-2.2,6-2.4l-0.9-0.7C13.8,13,12.4,14.8,8.8,14.8z M7.7,11.1c-0.9,0-1.8-0.8-1.8-2.1
	c0-1.4,1.4-3.7,3-3.7c0.7,0,1.2,0.2,1.5,0.5c0.3,0.3,0.4,0.9,0.3,1.7c-0.2,0.6-0.5,1.3-0.6,1.7l0,0C9.7,9.8,8.9,11.1,7.7,11.1z" fill="#698cd9"/></svg>