<svg xmlns="http://www.w3.org/2000/svg" viewBox="0 0 16 16" enable-background="new 0 0 16 16"><g fill="#7778d0"><path d="M12.5,6C10.6,6,9,7.6,9,9.5s1.6,3.5,3.5,3.5S16,11.4,16,9.5S14.4,6,12.5,6z M13,11h-1V8h1V11z"/><path d="M11.2,4.2C10.2,3.5,8.5,3,6.5,3C3.5,3,1,4.1,1,5.5C1,6.9,3.5,8,6.5,8C6.7,8,7,8,7.2,8
		C7.8,6.1,9.3,4.7,11.2,4.2z"/></g><g fill="none" stroke="#7778d0" stroke-miterlimit="10"><path d="M1.5,7.5c0,0.9,2.1,2,5,2c0.2,0,0.3,0,0.5,0"/><path d="M1.5,9.5c0,0.9,2.1,2,5,2c0.3,0,0.6,0,0.9,0"/></g></svg>