<svg xmlns="http://www.w3.org/2000/svg" viewBox="0 0 16 16" enable-background="new 0 0 16 16"><g fill="#65d0e2"><path d="M1,1v7.2C2,7.5,2.5,7,3.5,7c1.7,0,3,1.1,3,2.8c0,0.4-0.1,0.8-0.2,1.2l-0.2,0.4l0.1,0.1C7.5,12.3,8,14,8,15h2
		V1H1z M5,5H2V4h3V5z M9,11H7v-1h2V11z M9,8H7V7h2V8z M9,5H6V4h3V5z"/><circle cx="3.5" cy="9.8" r="1.5"/><path d="M3.5,12c-1.9,0-3.3,2-3.3,3h6.3C6.5,14,5.4,12,3.5,12z"/><path d="M 11 4 11 6 13 6 13 7 11 7 11 8 13 8 13 9 11 9 11 10 13 10 13 11 11 11 11 12 13 12 13 13 11 13 11 15 15 15 15 4"/></g></svg>