<svg xmlns="http://www.w3.org/2000/svg" viewBox="0 0 16 16" enable-background="new 0 0 16 16"><g fill="none" stroke="#7274bf" stroke-width="1.2" stroke-miterlimit="10"><path d="M 7.5,15.5 11,12"/><path d="M14.5,10.6c0,0.5-0.2,1-0.6,1.3c-0.8,0.8-2.1,0.8-2.9,0.1c-0.8-0.8-0.8-2.1,0.1-2.9c0.4-0.4,0.8-0.6,1.3-0.6"/></g><path d="M8.3,11.6c-0.1-0.3-0.1-0.7-0.1-1c0-1.1,0.5-2.2,1.3-3c0.7-0.7,1.7-1.2,2.7-1.3L13,6.2V0H3v13h3.9L8.3,11.6z
	 M5,2h6v1H5V2z M5,4h6v1H5V4z M5,6h4v1H5V6z M5,8h2v1H5V8z" fill="#7274bf"/></svg>