<svg xmlns="http://www.w3.org/2000/svg" viewBox="0 0 79 79" enable-background="new 0 0 79 79"><g fill="#9a9a9a"><path d="M51.8,34.5c1.8,0,3.3-1.5,3.3-3.3s-1.5-3.3-3.3-3.3s-3.3,1.5-3.3,3.3S50,34.5,51.8,34.5z"/><path d="M27.2,34.5c1.8,0,3.3-1.5,3.3-3.3s-1.5-3.3-3.3-3.3s-3.3,1.5-3.3,3.3C23.9,33,25.4,34.5,27.2,34.5z"/></g><g fill="none" stroke="#9a9a9a" stroke-width="2" stroke-miterlimit="22.926"><path d="M19.8,44.1c1.8,11.6,13.4,17,19.8,17.1c3.7,0.1,8.9-1.6,13-5.2"/><path d="M56.8,51.5c0,0,0.7-8.5,9.4-8.5c2.7,0,10.6,0.2,10.6,8.9s-11.1,8-11.1,18.7"/></g><g fill="#9a9a9a"><circle cx="65.5" cy="75.5" r="2.5"/><path d="M55.4,73.4C50.6,75.7,45.2,77,39.5,77C18.8,77,2,60.2,2,39.5S18.8,2,39.5,2C59.7,2,76.2,18,77,38h2
	C78.2,16.9,60.8,0,39.5,0C17.7,0,0,17.7,0,39.5S17.7,79,39.5,79c6.3,0,12.2-1.5,17.4-4.1L55.4,73.4z"/></g></svg>