<?xml version="1.0" encoding="utf-8"?>
<svg version="1.1" xmlns="http://www.w3.org/2000/svg" viewBox="0 0 36 36" enable-background="new 0 0 36 36">
 <defs>
  <linearGradient id="rect2987_1_" gradientUnits="userSpaceOnUse" y1="2" x2="0" y2="38" gradientTransform="matrix(1 0 0 -1 0 38)">
   <stop stop-color="#325cf3"/>
   <stop offset="1" stop-color="#19d3fd"/>
  </linearGradient>
 </defs>
 <path id="rect2987" d="M8,0h20c4.4,0,8,3.6,8,8v20c0,4.4-3.6,8-8,8H8c-4.4,0-8-3.6-8-8V8C0,3.6,3.6,0,8,0z" fill="url(#rect2987_1_)"/>
 <circle cx="18" cy="18" r="15" fill="none" stroke="#ffffff" stroke-width="1.6" stroke-miterlimit="10"/>
 <path d="M24.3,17.7l-2,1.2l-5.4-9.4c-0.2-0.4-0.1-0.9,0.3-1.1L17.8,8c0.4-0.2,0.9-0.1,1.1,0.3L24.3,17.7z" fill="#ffffff"/>
 <rect x="23" y="18.6" transform="matrix(0.8645 -0.5027 0.5027 0.8645 -6.6451 14.8275)" width="2.3" height="2.3" fill="#ffffff"/>
 <rect x="8.7" y="16.5" transform="matrix(0.5046 -0.8634 0.8634 0.5046 -8.589 20.3912)" width="9.5" height="2.4" fill="#ffffff"/>
 <path d="M8.8,25.4l1-3.8l2,1.2L9,25.5c0,0-0.1,0.1-0.2,0C8.8,25.5,8.7,25.4,8.8,25.4" fill="#ffffff"/>
 <path d="M15,12.7l0.7-1.2c0.2-0.4,0.7-0.5,1.1-0.3l0.7,0.4c0.4,0.2,0.5,0.7,0.3,1.1L17,13.9L15,12.7z" fill="#ffffff"/>
 <path d="M25.4,20.7c-0.3,0.2-0.8,0.5-1.1,0.6c-0.5,0.3-0.1,1.3,0,1.5c0.7,1.2,1.4,1,1.9,1.8c0.3,0.4,0.2,0.6,0.3,0.8
	c0,0.1,0.2,0.1,0.2,0c0.8-1.1,0.6-3.1,0-4C26.5,21.1,26,20.4,25.4,20.7" fill="#ffffff"/>
 <polygon points="11.9,17 8,17 8,19 10.7,19 " fill="#ffffff"/>
 <polygon points="20.7,17 15.8,17 14.6,19 21.8,19 " fill="#ffffff"/>
 <polygon points="24.5,17 25.6,19 28,19 28,17 " fill="#ffffff"/>
</svg>
