<svg xmlns="http://www.w3.org/2000/svg" viewBox="0 0 20 20" enable-background="new 0 0 20 20"><g fill="none" stroke="#8095b3" stroke-miterlimit="10"><circle cx="9.5" cy="7.5" r="1"/><path d="m16.6 8.4c0 1.1-1.5 3.1-1.5 3.1-1.2 1.7-.6 3-.6 3-2.5.5-4.5 3-4.5 3-.3-.5-1.2-1.7-1.2-1.7-.5-.6-1.3-.4-1.7-.3-1.3.2-1.6-.2-1.6-.2-.3-.2-.1-.9-.1-.9.1-.4-.1-.5-.2-.7-.3-.4-.1-.6-.1-.6.1-.1 0-.2 0-.2-.3-.1-.3-.3-.3-.3v-.6c0-.4-.1-.4-.1-.4-.7.1-.7-.3-.7-.3 0-.3.8-1.8.8-1.8.4-.7-.2-1.2-.2-1.5-.2-1.8.4-2.9 1.3-3.8 1.3-1.4 3.1-1.7 4.2-1.7 2.9 0 4.1 1 5 1.9 1.9 2.1 1.5 4 1.5 4z"/><circle cx="9.5" cy="7.5" r="2.5"/><circle cx="13.5" cy="8.5" r="1"/></g></svg>