<svg width="16" height="48" viewBox="0 0 16 48" fill="none" xmlns="http://www.w3.org/2000/svg">
<g clip-path="url(#clip0_13055_525938)">
<path fill-rule="evenodd" clip-rule="evenodd" d="M5.00098 7.10933C5.08388 5.36845 6.57606 3.95915 8.31694 4.04205H8.4828C10.2237 4.04205 11.6329 5.53423 11.6329 7.27512V7.44092C11.55 9.18181 10.0578 10.5911 8.31694 10.5082C7.98535 10.5082 7.65379 10.4253 7.32219 10.3424H7.15644L6.4932 10.674H6.41032C6.32742 10.674 6.16158 10.5911 6.16158 10.4253V9.84499V9.84493C6.16158 9.76209 6.16158 9.76206 6.07871 9.67918C5.33261 9.01599 5.00098 8.18701 5.00098 7.27512V7.10933ZM9.51929 7.81442C9.64363 7.8766 9.76797 7.93878 9.80942 7.93878C9.89232 8.02168 9.97524 8.02167 10.141 7.85587V7.856C10.141 8.02175 10.141 8.18749 10.0582 8.27037C9.89236 8.51907 9.7265 8.60196 9.4778 8.68486C9.312 8.76776 9.14623 8.76776 8.98043 8.68486C8.31723 8.43617 7.90278 8.27036 7.15669 7.27557C6.74219 6.77817 6.65921 6.28079 7.07371 5.78339C7.15661 5.70049 7.23953 5.70049 7.40532 5.70049C7.40532 5.70049 7.48828 5.7005 7.57118 5.8663C7.65408 6.0321 7.81982 6.36368 7.81982 6.44658V6.61239C7.75573 6.70851 7.69166 6.76749 7.64194 6.81324C7.56304 6.88585 7.52033 6.92517 7.57118 7.02688C7.65407 7.27556 7.81985 7.44133 7.98563 7.60711L7.98568 7.60716C8.15148 7.77296 8.40011 7.93876 8.64881 8.02166C8.73171 8.10455 8.73177 8.10455 8.81467 8.02166C8.94324 7.89309 9.00949 7.80191 9.05209 7.74328C9.11937 7.6507 9.12765 7.63931 9.22917 7.69006C9.27062 7.69006 9.39495 7.75224 9.51929 7.81442Z" fill="#0D2E4E"/>
<path fill-rule="evenodd" clip-rule="evenodd" d="M5.00098 23.2744C5.08388 21.5335 6.57606 20.1242 8.31694 20.2071H8.4828C10.2237 20.2071 11.6329 21.6993 11.6329 23.4402V23.606C11.55 25.3468 10.0578 26.7561 8.31694 26.6732C7.98535 26.6732 7.65379 26.5903 7.32219 26.5074H7.15644L6.4932 26.839H6.41032C6.32742 26.839 6.16158 26.7561 6.16158 26.5903V26.01V26.01C6.16158 25.9271 6.16158 25.9271 6.07871 25.8442C5.33261 25.181 5.00098 24.352 5.00098 23.4402V23.2744ZM9.51929 23.9794C9.64363 24.0416 9.76797 24.1038 9.80942 24.1038C9.89232 24.1867 9.97524 24.1866 10.141 24.0209V24.021C10.141 24.1867 10.141 24.3525 10.0582 24.4353C9.89236 24.684 9.7265 24.7669 9.4778 24.8498C9.312 24.9327 9.14623 24.9327 8.98043 24.8498C8.31723 24.6011 7.90278 24.4353 7.15669 23.4405C6.74219 22.9432 6.65921 22.4458 7.07371 21.9484C7.15661 21.8655 7.23953 21.8655 7.40532 21.8655C7.40532 21.8655 7.48828 21.8655 7.57118 22.0313C7.65408 22.1971 7.81982 22.5287 7.81982 22.6116V22.7774C7.75573 22.8735 7.69166 22.9325 7.64194 22.9782C7.56304 23.0508 7.52033 23.0901 7.57118 23.1919C7.65407 23.4405 7.81985 23.6063 7.98563 23.7721L7.98568 23.7721C8.15148 23.9379 8.40011 24.1037 8.64881 24.1866C8.73171 24.2695 8.73177 24.2695 8.81467 24.1866C8.94324 24.0581 9.00949 23.9669 9.05209 23.9083C9.11937 23.8157 9.12765 23.8043 9.22917 23.855C9.27062 23.855 9.39495 23.9172 9.51929 23.9794Z" fill="#0057F9"/>
<path fill-rule="evenodd" clip-rule="evenodd" d="M5.00098 39.435C5.08388 37.6941 6.57606 36.2848 8.31694 36.3677H8.4828C10.2237 36.3677 11.6329 37.8599 11.6329 39.6008V39.7666C11.55 41.5075 10.0578 42.9168 8.31694 42.8339C7.98535 42.8339 7.65379 42.751 7.32219 42.6681H7.15644L6.4932 42.9997H6.41032C6.32742 42.9997 6.16158 42.9168 6.16158 42.751V42.1707V42.1706C6.16158 42.0878 6.16158 42.0877 6.07871 42.0049C5.33261 41.3417 5.00098 40.5127 5.00098 39.6008V39.435ZM9.51929 40.1402C9.64363 40.2024 9.76797 40.2646 9.80942 40.2646C9.89232 40.3475 9.97524 40.3475 10.141 40.1817V40.1818C10.141 40.3475 10.141 40.5133 10.0582 40.5962C9.89236 40.8449 9.7265 40.9278 9.4778 41.0107C9.312 41.0936 9.14623 41.0936 8.98043 41.0107C8.31723 40.762 7.90278 40.5962 7.15669 39.6014C6.74219 39.104 6.65921 38.6066 7.07371 38.1092C7.15661 38.0263 7.23953 38.0263 7.40532 38.0263C7.40532 38.0263 7.48828 38.0263 7.57118 38.1921C7.65408 38.3579 7.81982 38.6895 7.81982 38.7724V38.9382C7.75573 39.0343 7.69166 39.0933 7.64194 39.139C7.56304 39.2116 7.52033 39.251 7.57118 39.3527C7.65407 39.6013 7.81985 39.7671 7.98563 39.9329L7.98568 39.933C8.15148 40.0988 8.40011 40.2645 8.64881 40.3474C8.73171 40.4303 8.73177 40.4303 8.81467 40.3474C8.94324 40.2189 9.00949 40.1277 9.05209 40.0691C9.11937 39.9765 9.12765 39.9651 9.22917 40.0159C9.27062 40.0159 9.39495 40.078 9.51929 40.1402Z" fill="#004EE0"/>
</g>
<defs>
<clipPath id="clip0_13055_525938">
<rect width="16" height="48" fill="white"/>
</clipPath>
</defs>
</svg>
