<svg xmlns="http://www.w3.org/2000/svg" width="16" height="16" viewBox="0 0 16 16"><defs><style>.a,.b,.c{fill:none;}.b{stroke-miterlimit:10;}.c{stroke:#54657d;}.d,.e{stroke:none;}.e{fill:#54657d;}</style></defs><rect class="a" width="16" height="16"/><g transform="translate(828.001 -256.344)"><g class="b" transform="translate(-0.562 -0.563)"><path class="d" d="M-822.721,270.046a2.984,2.984,0,0,0-3,.861l-.715-.714a2.983,2.983,0,0,0,.862-3l9.281-9.282,2.856,2.856Z"/><path class="e" d="M -824.6316528320313 269.1003723144531 C -824.2100830078125 268.9744262695313 -823.8204345703125 268.9347534179688 -823.4967651367188 268.9347534179688 C -823.3335571289063 268.9347534179688 -823.1836547851563 268.9448852539063 -823.0501098632813 268.9602355957031 L -814.8533325195313 260.7627868652344 L -816.2953491210938 259.3211669921875 L -824.4864501953125 267.5129089355469 C -824.4336547851563 267.9642028808594 -824.45556640625 268.5171203613281 -824.6316528320313 269.1003723144531 M -825.7241821289063 270.9070129394531 C -826.014892578125 270.6171875 -826.1371459960938 270.4949951171875 -826.4390258789063 270.1930847167969 C -825.00927734375 268.7652282714844 -825.5767211914063 267.18896484375 -825.5767211914063 267.18896484375 L -816.2954711914063 257.9070129394531 L -813.4390258789063 260.7626647949219 L -822.7213134765625 270.045654296875 C -822.7213134765625 270.045654296875 -823.029541015625 269.9347534179688 -823.4967651367188 269.9347534179688 C -824.0857543945313 269.9347534179688 -824.927490234375 270.1108093261719 -825.7241821289063 270.9070129394531 Z"/></g><path class="c" d="M.5.5l2,2" transform="translate(-819.501 259.844)"/></g></svg>