<svg xmlns="http://www.w3.org/2000/svg" height="731.56" viewBox="0 0 800 731.562" width="800">
  <path fill="#22ac14" d="M388.67 729.67c-9.532-3.099-19.823-9.332-39.147-23.714-25.733-19.151-25.297-19.002-58.932-20.234-44.993-1.648-49.381-5.183-62.214-50.113-8.96-31.36-12.14-34.79-117.28-126.38-105.34-91.75-136.71-167.11-90.09-216.4l8.508-8.996-1.81-8.442c-8.736-40.73 13.194-73.64 60.584-90.92 14.259-5.199 14.266-5.207 16.808-19.1 6.987-38.19 43.762-67 85.527-67 5.31 0 5.938-.64 11.319-11.529 22.503-45.534 59.177-63.68 106.58-52.739l8.264 1.908 11.301-10.255c37.295-33.842 81.665-34.351 122.47-1.404l13.453 10.861 7.17-2.556c35.24-12.564 74.038 5.315 99.233 45.728l7.196 11.543 13.399-.967c41.144-2.97 73.981 24.349 97.521 81.135 2.586 6.238 5.86 11.732 7.274 12.208 40.612 13.664 67.92 52.53 67.92 96.672 0 8.694 0 8.695 12.998 21.163 50.048 48.005 23.71 102.11-121.66 249.93-48.91 49.733-49.064 49.93-60.77 78.276-20.724 50.173-28.993 56.376-75.406 56.555-31.61.122-29.623-.5-54.593 17.072-37.118 26.12-57.504 33.587-75.626 27.696zm34.793-15.624c6.756-3.496 15.544-8.573 19.528-11.281 46.388-31.539 59.355-40.723 59.355-42.041 0-3.176-20.39-21.483-31.914-28.655-50.601-31.49-123.07-24.027-157.45 16.215-10.438 12.218-10.755 11.755 23.67 34.553 6.732 4.458 19.029 13.26 27.329 19.561 26.066 19.79 38.893 22.302 59.48 11.649zm-125.81-39.342 7.529-1.032-17.638-13.342c-9.7-7.338-25.268-19.589-34.595-27.224-9.326-7.635-16.957-13.347-16.957-12.693 0 4.086 10.716 37.186 13.494 41.681 6.797 11 25.053 15.778 48.166 12.61zm249.94-2.412c9.94-2.76 20.205-13.462 27.536-28.704 6.864-14.274 13.59-30.717 12.563-30.717-.344 0-15.893 11.433-34.555 25.407s-36.609 27.063-39.882 29.086c-3.274 2.024-5.952 4.363-5.952 5.199 0 2.11 32.499 1.893 40.29-.27zm-15.68-30.89c60.043-43.746 162.34-139.06 162.34-151.26 0-11.09-15.413-22.87-29.926-22.87h-7.719l-14.56 19.438c-41.387 55.252-79.619 98.624-119.02 135.02-23.524 21.73-22.4 19.796-15.577 26.836 6.776 6.991 3.86 7.846 24.462-7.165zm-228.91-.55c0-.568-8.933-8.492-19.852-17.609-50-41.74-115.17-109.91-144-150.63-7.094-10.02-22.904-8.527-33.189 3.133-6.882 7.803-6.51 8.562 12.236 24.92 23.255 20.291 77.024 68.426 93.913 84.071 16.034 14.853 42.361 36.941 65.473 54.932l16.87 13.132 4.27-5.456c2.35-3.001 4.27-5.922 4.27-6.49zm211.07-23.86c47.57-42.52 137.16-149.75 134.47-160.94-4.8-19.99-18.27-29.21-41.14-28.18l-11.58.524-14.551 28.124c-30.12 58.214-61.977 109.08-90.39 144.34-14.213 17.635-16.866 21.922-13.569 21.922.786 0 4.695 2.565 8.685 5.7 8.919 7.006 6.1 8.159 28.08-11.49zm-196.72 11.25c3.027-2.456 5.779-4.654 6.115-4.884.336-.23-5.2-7.34-12.302-15.8-37.556-44.731-74.003-99.798-103.94-157.04-13.547-25.9-13.934-26.273-27.26-26.244-14.977.031-30.46 12.112-35.685 27.843l-2.803 8.437 12.798 16.183c37.015 46.803 90.969 102.58 133.67 138.19 24.172 20.158 22.126 19.232 29.413 13.318zm22.662-37.295c-23.63-52.82-44.1-104.56-62.69-158.42l-11.136-32.26-6.406-2.239c-21.028-7.35-40.969-.154-54.104 19.525-7.212 10.805 65.258 128.19 115.32 186.79l11.374 13.315 7.988-4.047 7.987-4.048-8.33-18.622zm154.02-10.35c29.055-38.844 56.209-83.489 81.605-134.17l10.723-21.4-3.314-6.587c-7.898-15.7-21.216-22.332-38.445-19.147-13.522 2.5-15.09 3.828-19.171 16.265-14.697 44.773-40.554 107.66-65.232 158.65-8.669 17.91-15.572 32.747-15.341 32.968.23.22 4.886 2.264 10.345 4.541l9.926 4.14 6.409-6.88c3.524-3.783 13.648-16.556 22.496-28.385zm-123.06 22.265 3.453-1.3-4.545-27.854c-5.614-34.41-13.017-89.854-19.843-148.62-5.825-50.15-4.939-47.846-20.29-52.804-19.072-6.159-49.3 6.827-53.337 22.914-1.809 7.209 41.201 122.04 69.624 185.88l11.264 25.302 5.11-1.11c2.812-.612 6.665-1.697 8.564-2.412zm72.87-16.89c23.767-47.309 52.549-115.26 69.098-163.12l7.637-22.09-5.973-8.136c-14.877-20.267-38.418-26.7-59.495-16.256l-8.181 4.053-2.015 19.025c-7.139 67.412-17.986 139.25-27.067 179.25-2.678 11.794-4.674 21.622-4.437 21.84.34.311 12.646 2.7 19.856 3.856.675.108 5.435-8.179 10.577-18.415zm-36.83-2.6c9.954-42.45 19.227-100.52 25.805-161.6 1.862-17.288 3.702-33.828 4.088-36.755 1.62-12.255-23.78-31.087-41.583-30.83-17.678.256-42.415 16.767-40.915 27.311.433 3.043 3.358 27.607 6.5 54.587 7.734 66.402 20.314 155.01 23.158 163.12.461 1.313 4.019 2.068 9.739 2.068h9.012l4.196-17.896zm316.39-122.22c21.351-24.92 32.275-38.412 39.094-48.283l5.01-7.252-2.764-8.77c-4.622-14.664-23.885-28.837-39.193-28.837-3.94 0-5.813 2.136-14.874 16.957-5.701 9.327-18.43 29.085-28.284 43.91-20.313 30.555-19.319 28.467-13.56 28.467 12.208 0 27.81 9.644 32.01 19.786 2.93 7.074 2.628 7.289 22.561-15.978zm-612.39-1.54c4.598-2.14 9.662-3.9 11.255-3.908 4.029-.023 4.026-.03-6.744-15.3-10.592-15.018-32.252-49.505-43.588-69.4l-7.248-12.721-6.635 2.97c-12.64 5.66-22.6 20.466-26.302 39.098-1.486 7.48 11.338 25.194 43.47 60.052l15.786 17.124 5.823-7.01c3.282-3.951 9.473-8.711 14.183-10.905zm26.496-18.679c7.012-15.55 21.465-25.209 39.352-26.298 6.142-.374 11.167-.864 11.167-1.09 0-.225-3.654-8.216-8.12-17.756-11.443-24.444-25.582-57.792-35.896-84.665-10.538-27.457-7.984-24.666-19.8-21.632-29.63 7.608-46.198 24.248-50.781 51.003l-1.804 10.532 9.675 17.176c34.05 60.446 51.541 83.08 56.207 72.732zm542.38-25.362c28.877-44.49 35.877-57.093 35.877-64.59 0-27.228-18.696-52.034-45.134-59.886-13.561-4.027-12.397-5.31-26.66 29.4-7.186 17.488-19.542 46.028-27.458 63.422l-14.393 31.626 12.018.91c19.669 1.487 32.837 9.489 40.574 24.654l3.339 6.545 4.878-6.734c2.683-3.704 10.314-15.11 16.959-25.347zm-74.85-29.51c12.578-27.42 31.186-70.498 39.42-91.258 13.537-34.132-14.231-69.17-55.236-69.698-18.828-.242-16.637-2.799-21.538 25.141-7.34 41.841-16.569 80.99-29.082 123.35-2.655 8.99-4.828 16.46-4.828 16.598 0 .14 5.025-.439 11.167-1.285 18.836-2.595 36.245 4.797 44.596 18.935 1.536 2.6 3.02 4.499 3.299 4.22.278-.278 5.77-11.98 12.203-26.005zm-402.96 18.286c9.034-13.676 31.204-22.04 49.588-18.708 10.42 1.89 10.569 1.672 6.556-9.565-4.833-13.533-26.737-91.491-33.99-120.97l-7.225-29.365h-8.558c-37.916 0-72.723 36.509-62.037 65.069 16.917 45.216 48.735 118.57 51.423 118.56.514-.003 2.424-2.26 4.243-5.014zm579.22-24.346c6.843-16.283 6.971-43.072.272-56.66-3.89-7.893-21.668-25.26-23.464-22.924-.249.324-5.528 10.267-11.733 22.095-6.204 11.83-13.027 24.283-15.163 27.677-4.709 7.483-4.741 7.891-.636 7.891 12.056 0 36.696 16.72 41.409 28.096 2.943 7.105 4.04 6.378 9.315-6.175zm-754.69.46c3.653-9.564 15.238-22.387 24.819-27.47 9.22-4.89 9.54-1.814-2.935-28.179-5.765-12.183-11.207-23.943-12.093-26.134l-1.611-3.982-6.317 6.317c-16.968 16.968-21.343 43.567-11.902 72.37 5.451 16.63 6.191 17.152 10.039 7.078zm514.58-52.22c19.956-78.286 23.228-104.89 14.54-118.22-17.085-26.21-41.754-38.817-76.034-38.857l-16.856-.02-.825 7.032c-.453 3.867-2.407 32.342-4.342 63.278s-4.84 71.509-6.457 90.16c-3.452 39.828-4.28 35.176 5.708 32.082 21.864-6.773 44.506-1.114 60.306 15.07l7.445 7.627 4.559-14.568c2.507-8.013 7.887-27.625 11.955-43.584zm-247.71 36.23c10.523-5.134 28.407-6.14 40.1-2.257 10.584 3.516 9.91 5.2 7.294-18.192-1.22-10.919-5.67-54.097-9.887-95.952-4.766-47.297-8.384-76.56-9.56-77.315-2.9-1.863-27.946-1.49-37.792.562-21.637 4.513-43.156 20.401-53.255 39.322l-4.745 8.891 3.759 16.751c6.965 31.04 37.444 139.74 40.733 145.28.373.629 4.012-2.097 8.086-6.056s10.943-8.925 15.265-11.033zm149.96-51.88c1.439-18.199 4.182-57.943 6.097-88.322l3.48-55.234-4.704-3.899c-29.486-24.439-70.497-25.88-106.48-3.742-10.161 6.252-9.969.279-2.45 76.178 13.745 138.73 11.12 125.53 23.332 117.39 23.925-15.939 48.619-14.672 69.309 3.556l6.617 5.83 1.09-9.337c.599-5.136 2.266-24.226 3.705-42.424zm297.27.827c22.85-42.548 7.385-94.37-34.066-114.15-14.3-6.825-14.232-6.856-19.574 8.688-2.58 7.506-9.184 25.778-14.677 40.605-5.492 14.827-9.563 27.381-9.045 27.898.517.518 5.838 2.652 11.825 4.744 25.189 8.802 41.486 24.978 48.04 47.684 3.352 11.614 2.595 12.283 17.498-15.468zm-669.85 2.05c8.31-17.098 25.715-29.961 48.614-35.926 5.214-1.358 9.79-2.78 10.168-3.158.379-.378-3.856-14.72-9.41-31.87-5.555-17.152-11.247-35.65-12.648-41.11-3.387-13.194-3.408-13.204-16.3-8.351-50.797 19.12-64.926 52.487-44.054 104.04 10.9 26.919 15.496 35.179 17.12 30.76.812-2.213 3.741-8.684 6.51-14.38zm81.26-76.25c12.613-13.177 27.717-20.318 49.988-23.63 10.258-1.526 12.333-2.333 11.678-4.543-1.812-6.109-14.033-71.657-15.999-85.818l-2.125-15.303h-7.608c-37.284 0-67.288 25.995-73.085 63.318-2.313 14.897-2.207 15.453 11.057 57.69 10.834 34.495 10.081 33.426 15.957 22.676 2.662-4.87 7.224-11.345 10.137-14.389zm523.25-27.662 7.965-23.271-4.616-12.657c-18.72-51.32-56.41-81.742-92.82-74.91l-5.8 1.088v24.474c0 21.869-3.37 68.225-5.996 82.494l-.99 5.377h13.07c31.375 0 53.865 12.998 65.586 37.904l4.992 10.607 5.32-13.916c2.926-7.654 8.905-24.388 13.286-37.187zm-106.97-37.96c1.064-12.728 2.085-34.31 2.268-47.958l.332-24.815-7.22-12.188c-22.55-38.065-56.866-56.023-87.57-45.825l-8.323 2.765-.925 13.562c-.51 7.459-1.336 26.59-1.837 42.513-.501 15.923-1.351 35.65-1.888 43.84l-.977 14.889 18.802.106c34.108.193 68.648 17.043 81.308 39.666 2.693 4.812 3.825-.172 6.03-26.555zm-341.88 22.554c13.167-22.29 44.839-37.36 78.55-37.376 9.326-.005 16.963-.39 16.971-.856.07-4.246-8.659-100.03-9.575-105.06-1.147-6.302-1.584-6.695-9.47-8.526-42.13-9.784-79.835 13.31-95.853 58.71-2.438 6.908 1.479 36.105 10.853 80.912 3.873 18.514 4.371 19.226 8.524 12.196zm146.79-59.1c24.337-5.158 49.396-.776 70.429 12.315 10.766 6.7 9.977 9.946 12.2-50.196l1.957-52.94-10.81-10.117c-36.45-34.105-78.17-33.4-116.53 1.976l-8.838 8.149 4.283 48.803c2.355 26.842 4.678 51.154 5.162 54.028l.879 5.224 14.429-7.302c8.126-4.113 19.849-8.451 26.837-9.932z"/>
</svg>