<svg xmlns="http://www.w3.org/2000/svg" viewBox="0 0 125 22" enable-background="new 0 0 125 22"><g fill="#154989"><path d="M10.5,7.2c0.8-1.8,2.4-2.7,4.4-2.7c3.4,0,5.6,2.6,5.6,6.6c0,4.1-2.2,6.6-5.7,6.6c-2.1,0-3.7-0.9-4.5-2.8v2.4
			H9V0.1h1.5V7.2z M10.4,11.1c0,3.3,1.7,5.4,4.3,5.4c2.6,0,4.2-2.1,4.2-5.4c0-3.3-1.6-5.3-4.2-5.3C12.1,5.8,10.4,7.8,10.4,11.1z"/><path d="M24.1,7.3c0.9-1.8,2.4-2.8,4.5-2.8c3.4,0,5.6,2.6,5.6,6.6c0,4-2.2,6.6-5.6,6.6c-2,0-3.6-0.9-4.4-2.7v7h-1.5
			V4.9h1.4V7.3z M24.2,11.1c0,3.3,1.7,5.3,4.3,5.3c2.5,0,4.2-2.1,4.2-5.3c0-3.3-1.6-5.4-4.3-5.4C25.8,5.8,24.2,7.8,24.2,11.1z"/><path d="M37.8,7.1c1-1.6,2.2-2.5,4.1-2.5c1.8,0,3.1,0.9,3.6,2.4c0.8-1.5,2.2-2.4,4.1-2.4c2.1,0,4,1.1,4,3.9v8.9h-1.5
			V8.9c0-1.9-1-3-2.9-3c-2.3,0-3.5,1.5-3.5,3.8v7.6h-1.5V9c0-1.9-0.7-3.1-2.7-3.1c-2.5,0-3.6,1.9-3.6,4.4v7.1h-1.5V4.9h1.4V7.1z"/><path d="M69.4,11.2c0,4-2.3,6.5-5.9,6.5c-3.6,0-5.9-2.6-5.9-6.6c0-4,2.3-6.6,5.9-6.6C67.1,4.5,69.4,7.1,69.4,11.2z
			 M59.1,11.1c0,3.3,1.7,5.3,4.4,5.3c2.6,0,4.3-2.1,4.3-5.3c0-3.3-1.7-5.3-4.4-5.3C60.8,5.8,59.1,7.9,59.1,11.1z"/><path d="M72.8,7.2c1-1.8,2.3-2.7,4.4-2.7c2.4,0,4.3,1.3,4.3,4.3v8.5H80v-8c0-2.6-1.3-3.5-3.2-3.5
			c-2.3,0-3.9,1.5-3.9,4.7v6.7h-1.5V4.9h1.4V7.2z"/><path d="M85.7,17.3h-1.5V0.1h1.5V17.3z"/><path d="M90,2.5h-1.5V0H90V2.5z M90,17.3h-1.5V4.9H90V17.3z"/><path d="M94.1,7.2c1-1.8,2.3-2.7,4.4-2.7c2.4,0,4.3,1.3,4.3,4.3v8.5h-1.5v-8c0-2.6-1.3-3.5-3.2-3.5
			c-2.3,0-3.9,1.5-3.9,4.7v6.7h-1.5V4.9h1.4V7.2z"/><path d="M110.5,17.8c-3.5,0-5.7-2.5-5.7-6.5c0-4,2.4-6.7,5.7-6.7c3.7,0,5.5,3.1,5.5,6.5v0.4h-9.6c0,2.6,1.2,5,4.2,5
			c2,0,3.3-1.1,3.8-3.3h1.5C115.3,16,113.5,17.8,110.5,17.8z M110.5,5.8c-2.7,0-3.8,2.1-4.1,4.4h8.1C114.3,7.5,112.8,5.8,110.5,5.8z
			"/></g><path fill="#f47d20" d="M 56 8.4 53.9 4.6 58.2 4.6 56 8.4"/></svg>