<?xml version="1.0" encoding="utf-8"?>
<!-- Generator: Adobe Illustrator 22.1.0, SVG Export Plug-In . SVG Version: 6.00 Build 0)  -->
<svg version="1.1" id="Layer_1" xmlns="http://www.w3.org/2000/svg" xmlns:xlink="http://www.w3.org/1999/xlink" x="0px" y="0px"
	 viewBox="0 0 26 80" style="enable-background:new 0 0 26 80;" xml:space="preserve" width="26" height="80">
<style type="text/css">
	.st0{fill:#22AC14;}
	.st1{fill:#1C9110;}
</style>
<path class="st0" d="M21.3,62.2H25v-5.4h-3.7c-0.2-1.1-0.6-1.4-1.1-2.2l2.7-2.7l-3.1-3.1l-2.5,2.7c-0.8-0.5-2.1-0.8-2.1-1.1v-3.5
	H9.8v3.5c-1.1,0.2-1.4,0.6-2.2,1.1l-2.7-2.7l-3,3.1l2.7,2.7c-0.5,0.7-0.9,1-1.1,2.1H0v5.4h3.5c0.2,0,0.6,1.3,1.1,2.1l-2.7,2.6
	L5,69.9l2.6-2.7c0.8,0.5,1.1,0.8,2.2,1v3.7h5.4v-3.7c0-0.2,1.3-0.6,2.1-1.1l2.6,2.7l3-3.1l-2.7-2.5C20.7,63.4,21.1,62.2,21.3,62.2z
	 M12.5,62.9c-1.9,0-3.5-1.6-3.5-3.5s1.6-3.5,3.5-3.5s3.5,1.6,3.5,3.5C16,61.3,14.4,62.9,12.5,62.9z"/>
<path class="st1" d="M21.3,23.3H25v-5.4h-3.7c-0.2-1.1-0.6-1.4-1.1-2.2l2.7-2.7l-3.1-3.1l-2.5,2.7c-0.8-0.5-2.1-0.8-2.1-1.1V8H9.8
	v3.5c-1.1,0.2-1.4,0.6-2.2,1.1L4.9,9.9l-3,3.1l2.7,2.7c-0.5,0.7-0.9,1-1.1,2.1H0v5.4h3.5c0.2,0,0.6,1.3,1.1,2.1l-2.7,2.6L5,31
	l2.6-2.7c0.8,0.5,1.1,0.8,2.2,1V33h5.4v-3.7c0-0.2,1.3-0.6,2.1-1.1l2.6,2.7l3-3.1l-2.7-2.5C20.7,24.5,21.1,23.3,21.3,23.3z M12.5,24
	C10.6,24,9,22.4,9,20.5s1.6-3.5,3.5-3.5s3.5,1.6,3.5,3.5S14.4,24,12.5,24z"/>
</svg>
