<svg xmlns="http://www.w3.org/2000/svg" width="37" height="18" viewBox="0 0 37 18">
  <g transform="translate(-438 -1108)">
    <rect width="37" height="18" rx="9" transform="translate(438 1108)" fill="#21ac14"/>
    <path d="M6.558,0H5.61l-3.9-5.991H1.67q.078,1.055.078,1.934V0H.981V-7.139h.938L5.811-1.172H5.85q-.01-.132-.044-.847T5.781-3.042v-4.1h.776Zm4.1.1A2.459,2.459,0,0,1,8.787-.625,2.8,2.8,0,0,1,8.1-2.632a3.1,3.1,0,0,1,.637-2.056,2.117,2.117,0,0,1,1.711-.762,2.018,2.018,0,0,1,1.592.662,2.536,2.536,0,0,1,.586,1.746v.513H8.94A2.121,2.121,0,0,0,9.417-1.1a1.647,1.647,0,0,0,1.272.488A4.31,4.31,0,0,0,12.4-.972v.723a4.289,4.289,0,0,1-.813.266A4.569,4.569,0,0,1,10.659.1Zm-.22-4.868a1.324,1.324,0,0,0-1.028.42A1.936,1.936,0,0,0,8.96-3.188h2.8a1.782,1.782,0,0,0-.342-1.174A1.2,1.2,0,0,0,10.439-4.771ZM18.179,0,17.2-3.14q-.093-.288-.347-1.309h-.039q-.2.854-.342,1.318L15.459,0h-.937l-1.46-5.352h.85L14.7-2.28a12.444,12.444,0,0,1,.31,1.421h.039q.054-.278.173-.72t.208-.7l.981-3.071h.879l.957,3.071a10.366,10.366,0,0,1,.371,1.411h.039a5.176,5.176,0,0,1,.1-.542q.085-.366,1.018-3.94h.84L19.141,0Z" transform="translate(446 1120)" fill="#fff"/>
  </g>
</svg>
