<svg xmlns="http://www.w3.org/2000/svg" viewBox="0 0 38 80" enable-background="new 0 0 38 80"><path d="M19,1.1c9.8,0,17.8,8,17.8,17.9s-8,17.8-17.8,17.8S1.1,28.8,1.1,19S9.2,1.1,19,1.1 M19,0C8.5,0,0,8.5,0,19
		s8.5,19,19,19s19-8.5,19-19S29.5,0,19,0L19,0z" fill="#79b849"/><path d="M32,32.1c0,0-6.5-2.6-9.4-4.6c-0.2-2.6-0.4-4.3-0.4-4.3s2.1-1.3,2.3-3.5c0.7,0.3,1.3-0.6,1.4-1.5
	c0.1-1,0.4-2.2-0.5-2.2c0.5-1.2,0.4-2.1,0.4-4.1S24.5,5.5,19,5.5s-6.7,4.4-6.7,6.3s-0.1,2.9,0.4,4.1c-0.9,0-0.6,1.2-0.5,2.2
	c0.1,0.9,0.7,1.9,1.4,1.5c0.2,2.2,2.3,3.5,2.3,3.5s-0.1,1.7-0.4,4.3c-2.9,2-9.4,4.6-9.4,4.6" fill="none" stroke="#79b849" stroke-width="1.5" stroke-miterlimit="10"/><path d="M19,42.1c9.8,0,17.8,8,17.8,17.8s-8,17.9-17.8,17.9S1.1,69.8,1.1,60S9.2,42.1,19,42.1 M19,41
		C8.5,41,0,49.5,0,60s8.5,19,19,19s19-8.5,19-19S29.5,41,19,41L19,41z" fill="#8fcb61"/><path d="M32,73c0,0-6.5-2.6-9.4-4.6c-0.2-2.6-0.4-4.3-0.4-4.3s2.1-1.3,2.3-3.5c0.7,0.3,1.3-0.6,1.4-1.5
	c0.1-1,0.4-2.2-0.5-2.2c0.5-1.2,0.4-2.1,0.4-4.1s-1.2-6.3-6.7-6.3s-6.7,4.4-6.7,6.3s-0.1,2.9,0.4,4.1c-0.9,0-0.6,1.2-0.5,2.2
	c0.1,0.9,0.7,1.9,1.4,1.5c0.2,2.2,2.3,3.5,2.3,3.5s-0.1,1.7-0.4,4.3c-2.9,2-9.4,4.6-9.4,4.6" fill="none" stroke="#8fcb61" stroke-width="1.5" stroke-miterlimit="10"/></svg>