<svg xmlns="http://www.w3.org/2000/svg" viewBox="0 0 16 16" enable-background="new 0 0 16 16"><g fill="#20ab51"><path d="M2.4,15.3c-0.3,0-0.6-0.1-0.8-0.3c-0.2-0.1-0.3-0.3-0.3-0.6c0-0.2,0.1-0.3,0.2-0.5
	c0.1-0.1,0.3-0.2,0.5-0.2c0.2,0,0.3,0.1,0.4,0.2c0.1,0.1,0.2,0.2,0.2,0.4s-0.1,0.3-0.2,0.4c-0.1,0.1-0.1,0.1-0.1,0.1
	c0,0,0.1,0,0.2,0c0.2,0,0.4-0.1,0.6-0.2c0.2-0.1,0.4-0.3,0.6-0.6C3.9,13.8,4,13.5,4.2,13c0.1-0.2,0.3-0.9,0.5-2L6,6.1H4.7l0.1-0.7
	h0.1c0.4,0,0.7,0,0.8-0.1c0.1,0,0.3-0.1,0.4-0.3c0.1-0.2,0.3-0.4,0.5-0.9c0.3-0.6,0.6-1.1,0.8-1.4c0.4-0.4,0.8-0.8,1.2-1
	c0.4-0.2,0.8-0.3,1.2-0.3c0.4,0,0.7,0.1,1,0.3C11,2,11.2,2.2,11.2,2.5c0,0.2-0.1,0.4-0.2,0.5c-0.1,0.1-0.3,0.2-0.5,0.2
	c-0.2,0-0.3-0.1-0.4-0.2C9.9,2.9,9.9,2.8,9.9,2.6c0-0.1,0-0.2,0.1-0.3C10,2.2,10,2.1,10,2.1C10,2,9.9,2,9.8,2C9.5,2,9.3,2.1,9,2.3
	C8.7,2.5,8.4,2.9,8.2,3.4c-0.1,0.3-0.4,0.9-0.7,2h1.1L8.4,6.1H7.3L6.5,9.3c-0.4,1.4-0.7,2.5-1.1,3.3c-0.5,1.1-1.1,1.9-1.7,2.3
	C3.3,15.2,2.8,15.3,2.4,15.3z"/><path d="M12.3,12.3c-0.3,0-0.6-0.2-0.7-0.5c-0.1-0.2-0.3-0.9-0.6-2.2c-0.7,1.2-1.3,2-1.7,2.4
	c-0.3,0.3-0.6,0.4-0.9,0.4c-0.2,0-0.4-0.1-0.6-0.2c-0.1-0.1-0.2-0.3-0.2-0.5c0-0.2,0.1-0.3,0.2-0.5s0.3-0.2,0.5-0.2
	c0.2,0,0.4,0.1,0.6,0.3C8.9,11.3,9,11.3,9,11.3c0,0,0.1,0,0.2-0.1c0.2-0.2,0.5-0.6,0.9-1.2c0.4-0.6,0.6-1.1,0.8-1.3
	c-0.4-1.4-0.5-1.8-0.5-1.8c-0.1-0.3-0.2-0.5-0.4-0.6C9.8,6.1,9.5,6.1,9.2,6.1c-0.1,0-0.2,0-0.4,0l-0.1,0V5.6l2-0.4
	c0.3,0.3,0.5,0.6,0.6,0.8c0.1,0.2,0.2,0.6,0.4,1.2l0.5-0.8c0.2-0.2,0.4-0.5,0.6-0.7c0.3-0.2,0.5-0.4,0.7-0.5
	c0.1-0.1,0.3-0.1,0.4-0.1c0.2,0,0.4,0.1,0.6,0.2c0.1,0.1,0.2,0.3,0.2,0.5c0,0.2,0,0.4-0.1,0.5c-0.2,0.1-0.3,0.2-0.5,0.2
	c-0.1,0-0.2,0-0.4-0.1c-0.3-0.1-0.4-0.1-0.4-0.1c-0.1,0-0.2,0.1-0.4,0.2c-0.3,0.2-0.7,0.7-1.1,1.4l0.6,2.4c0.1,0.5,0.2,0.6,0.2,0.7
	c0,0,0.1,0.1,0.1,0.1c0.1,0,0.2-0.1,0.3-0.1c0.3-0.2,0.5-0.5,0.7-0.8l0-0.1l0.4,0.2l0,0.1c-0.3,0.6-0.7,1.1-1.2,1.5
	C12.8,12.2,12.5,12.3,12.3,12.3z"/></g></svg>