<svg xmlns="http://www.w3.org/2000/svg" xmlns:xlink="http://www.w3.org/1999/xlink" width="70" height="56" viewBox="0 0 70 56"><defs><style>.a{fill:url(#a);}.b{fill:none;stroke-linecap:round;}.b,.c{stroke:#fff;stroke-miterlimit:10;stroke-width:2px;}.c{fill:#fff;}</style><linearGradient id="a" x2="1" y2="0.927" gradientUnits="objectBoundingBox"><stop offset="0" stop-color="#9382ec"/><stop offset="1" stop-color="#533dc6"/></linearGradient></defs><path class="a" d="M645.928,126H586.072A5.1,5.1,0,0,1,581,120.909V75.091A5.1,5.1,0,0,1,586.072,70h59.855A5.1,5.1,0,0,1,651,75.091v45.818A5.032,5.032,0,0,1,645.928,126Z" transform="translate(-581 -70)"/><g transform="translate(-580.5 -69.5)"><path class="b" d="M624.5,105.5h-18a2.006,2.006,0,0,1-2-2v-12a2.006,2.006,0,0,1,2-2h18a2.006,2.006,0,0,1,2,2v12A2.006,2.006,0,0,1,624.5,105.5Z"/><path class="c" d="M605,89.9l9.5,7.5a1.389,1.389,0,0,0,1.9,0l9.5-7.5"/></g></svg>