<svg xmlns="http://www.w3.org/2000/svg" width="56" height="56" viewBox="0 0 56 56"><defs><style>.a{fill:#fff;}.b{fill:none;stroke-linecap:round;}.b,.c{stroke:#6854d3;stroke-miterlimit:10;stroke-width:2px;}.c{fill:#6854d3;}</style></defs><g transform="translate(8 8)"><path class="a" d="M632.942,195H585.058c-2.272,0-4.058-2.342-4.058-5.091V144.091c0-2.851,1.867-5.091,4.058-5.091h47.884c2.272,0,4.058,2.342,4.058,5.091v45.818C637,192.76,635.215,195,632.942,195Z" transform="translate(-589 -147)"/><g transform="translate(-595.5 -77.5)"><path class="b" d="M624.5,105.5h-18a2.006,2.006,0,0,1-2-2v-12a2.006,2.006,0,0,1,2-2h18a2.006,2.006,0,0,1,2,2v12A2.006,2.006,0,0,1,624.5,105.5Z"/><path class="c" d="M605,89.9l9.5,7.5a1.389,1.389,0,0,0,1.9,0l9.5-7.5"/></g></g></svg>