<?xml version="1.0" encoding="utf-8"?>
<!-- Generator: Adobe Illustrator 19.2.0, SVG Export Plug-In . SVG Version: 6.00 Build 0)  -->
<svg version="1.1" id="Layer_1" xmlns="http://www.w3.org/2000/svg" xmlns:xlink="http://www.w3.org/1999/xlink" x="0px" y="0px"
	 viewBox="0 0 32 32" style="enable-background:new 0 0 32 32;" xml:space="preserve">
<style type="text/css">
	.st0{fill:none;}
	.st1{fill:#8ECB60;}
</style>
<rect x="0" class="st0" width="32" height="32"/>
<g>
	<g>
		<g>
			<path class="st1" d="M19.2,9.2c1.2-1.5,2.6,0.1,3.4,0.8c0.6,0.5,1.3,1.1-1.1,5.4c-1,1.7-1.5,2.8-2.3,3.6v0c0,0-0.2,0.2-0.2,0.2h0
				c-0.9,0.9-1.5,1.6-3.2,2.6c-4.3,2.4-4.9,1.7-5.4,1.1c-0.7-0.8-2.2-2.2-0.8-3.4c2.4-2,3.5-2.2,4.1-1.5c0.3,0.4,0.4,0.4,0.7,0.6
				c0.8,0.8,1.1,1.2,3-0.7l0.4-0.3c1.4-1.4,1.3-2.6,0.5-3.4c-0.3-0.3-0.5-0.4-0.9-0.7C16.6,12.8,16.8,12.1,19.2,9.2z"/>
		</g>
	</g>
</g>
</svg>
