<?xml version="1.0" encoding="utf-8"?>
<!-- Generator: Adobe Illustrator 19.1.0, SVG Export Plug-In . SVG Version: 6.00 Build 0)  -->
<svg version="1.1" id="Layer_1" xmlns="http://www.w3.org/2000/svg" xmlns:xlink="http://www.w3.org/1999/xlink" x="0px" y="0px"
	 viewBox="0 -5 42 42" style="enable-background:new 0 -5 42 42;" xml:space="preserve">
<style type="text/css">
	.st0{fill:none;stroke:#5678BB;stroke-miterlimit:10;}
	.st1{fill:none;stroke:#F49D56;stroke-miterlimit:10;}
	.st2{fill:#F49D56;}
	.st3{fill:#5678BB;}
</style>
<g>
	<g>
		<path class="st0" d="M3,22.5h12"/>
		<path class="st0" d="M3,25.5h12"/>
		<path class="st0" d="M3,28.5h12"/>
		<path class="st0" d="M3,31.5h12"/>
	</g>
	<g>
		<path class="st1" d="M32,22.5h5"/>
		<path class="st1" d="M40,22.5h1.5v11h-14v-11H30"/>
		<path class="st1" d="M27,26.5h15"/>
	</g>
</g>
<g>
	<path class="st2" d="M31,21v3h-1v-3H31 M32,20h-3v5h3V20z"/>
	<path class="st2" d="M39,21v3h-1v-3H39 M40,20h-3v5h3V20z"/>
</g>
<g>
	<g>
		<path class="st1" d="M3,0.5h12"/>
		<path class="st1" d="M3,3.5h12"/>
		<path class="st1" d="M3,6.5h12"/>
		<path class="st1" d="M3,9.5h12"/>
	</g>
	<g>
		<path class="st0" d="M32,0.5h5"/>
		<path class="st0" d="M40,0.5h1.5v11h-14v-11H30"/>
		<path class="st0" d="M27,4.5h15"/>
	</g>
</g>
<g>
	<path class="st3" d="M31-1v3h-1v-3H31 M32-2h-3v5h3V-2z"/>
	<path class="st3" d="M39-1v3h-1v-3H39 M40-2h-3v5h3V-2z"/>
</g>
</svg>
