<svg xmlns="http://www.w3.org/2000/svg" viewBox="0 0 18 36" width="18" height="36" enable-background="new 0 0 18 36"><path d="m14.6 28.8h2.4v-3.5h-2.4c-.1-.7-.4-.9-.7-1.4l1.7-1.7-2-2-1.6 1.7c-.5-.3-1.3-.5-1.3-.7v-2.2h-3.4v2.2c-.7.1-.9.4-1.4.7l-1.7-1.7-1.9 2 1.7 1.7c-.3.4-.6.6-.7 1.3h-2.3v3.5h2.2c.1 0 .4.8.7 1.3l-1.7 1.7 2 2 1.7-1.7c.5.3.7.5 1.4.6v2.4h3.5v-2.4c0-.1.8-.4 1.3-.7l1.7 1.7 1.9-2-1.7-1.6c.2-.4.5-1.2.6-1.2m-5.6.4c-1.2 0-2.2-1-2.2-2.2s1-2.2 2.2-2.2 2.2 1 2.2 2.2-1 2.2-2.2 2.2" fill="#98cd61"/><path d="m14.6 10.8h2.4v-3.5h-2.4c-.1-.7-.4-.9-.7-1.4l1.7-1.7-2-2-1.6 1.7c-.5-.3-1.3-.5-1.3-.7v-2.2h-3.4v2.2c-.7.2-.9.4-1.4.7l-1.8-1.7-1.9 2 1.7 1.7c-.3.5-.5.7-.7 1.4h-2.2v3.5h2.2c.1 0 .4.8.7 1.3l-1.7 1.7 2 2 1.7-1.8c.5.3.7.5 1.4.6v2.4h3.5v-2.4c0-.1.8-.4 1.3-.7l1.7 1.7 1.9-2-1.7-1.6c.2-.4.5-1.2.6-1.2m-5.6.4c-1.2 0-2.2-1-2.2-2.2s1-2.2 2.2-2.2 2.2 1 2.2 2.2-1 2.2-2.2 2.2" fill="#7fb841"/></svg>