<svg xmlns="http://www.w3.org/2000/svg" viewBox="0 0 18 36" width="18" height="36" enable-background="new 0 0 18 36"><path d="m9 3.1c-4 0-7.4 2.5-8.7 6 1.3 3.4 4.7 5.9 8.7 5.9s7.4-2.5 8.7-6c-1.3-3.5-4.7-5.9-8.7-5.9m0 9.9c-2.2 0-4-1.8-4-4s1.8-4 4-4 4 1.8 4 4-1.8 4-4 4m0-6.3c-1.3 0-2.4 1-2.4 2.3s1.1 2.4 2.4 2.4 2.4-1.1 2.4-2.4-1.1-2.3-2.4-2.3" fill="#7fb841"/><path d="m9 21.1c-4 0-7.4 2.5-8.7 6 1.3 3.4 4.7 5.9 8.7 5.9s7.4-2.5 8.7-6c-1.3-3.5-4.7-5.9-8.7-5.9m0 9.9c-2.2 0-4-1.8-4-4s1.8-4 4-4 4 1.8 4 4-1.8 4-4 4m0-6.3c-1.3 0-2.4 1.1-2.4 2.4s1.1 2.4 2.4 2.4 2.4-1.1 2.4-2.4-1.1-2.4-2.4-2.4" fill="#98cd61"/></svg>