<svg width="16" height="48" viewBox="0 0 16 48" fill="none" xmlns="http://www.w3.org/2000/svg">
<g clip-path="url(#clip0_13055_525962)">
<path d="M7.7204 3.99909C5.97714 3.91608 4.48291 5.32729 4.3999 7.07055C4.3999 7.15357 4.3999 7.15357 4.3999 7.23658C4.3999 8.14972 4.73195 8.97984 5.47907 9.64394C5.56208 9.72695 5.56208 9.72695 5.56208 9.80997V10.3911C5.56208 10.5571 5.7281 10.6401 5.81112 10.6401H5.89413L6.55823 10.3911C6.64124 10.3911 6.64124 10.3911 6.72425 10.3911C7.0563 10.4741 7.38835 10.5571 7.7204 10.5571C9.46367 10.6401 10.9579 9.22888 11.0409 7.48562C11.0409 7.31959 11.0409 7.23658 11.0409 7.23658C11.0409 5.49332 9.62969 3.99909 7.88643 3.99909C7.80342 3.99909 7.80342 3.99909 7.7204 3.99909Z" fill="#0D2E4E"/>
<path d="M5.72852 8.14931L6.72467 6.57207C6.89069 6.32304 7.22274 6.24002 7.38877 6.40605L8.13588 6.98714C8.21889 7.07015 8.3019 7.07015 8.38492 6.98714L9.46408 6.15701C9.54709 6.074 9.6301 6.15701 9.71312 6.15701C9.71312 6.24002 9.79613 6.32304 9.71312 6.32304L8.71697 7.90027C8.55094 8.14931 8.21889 8.23232 8.05287 8.0663L7.30575 7.48521C7.22274 7.4022 7.13973 7.4022 7.05672 7.48521L5.97755 8.31534C5.89454 8.39835 5.81153 8.31534 5.72852 8.31534C5.72852 8.31534 5.72852 8.23233 5.72852 8.14931Z" fill="white"/>
<path d="M7.7204 20.0035C5.97714 19.9205 4.48291 21.3317 4.3999 23.0749C4.3999 23.158 4.3999 23.158 4.3999 23.241C4.3999 24.1541 4.73195 24.9842 5.47907 25.6483C5.56208 25.7313 5.56208 25.7313 5.56208 25.8144V26.3954C5.56208 26.5615 5.7281 26.6445 5.81112 26.6445H5.89413L6.55823 26.3954C6.64124 26.3954 6.64124 26.3954 6.72425 26.3954C7.0563 26.4785 7.38835 26.5615 7.7204 26.5615C9.46367 26.6445 10.9579 25.2333 11.0409 23.49C11.0409 23.324 11.0409 23.241 11.0409 23.241C11.0409 21.4977 9.62969 20.0035 7.88643 20.0035C7.80342 20.0035 7.80342 20.0035 7.7204 20.0035Z" fill="#0057F9"/>
<path d="M5.72852 24.1537L6.72467 22.5765C6.89069 22.3274 7.22274 22.2444 7.38877 22.4104L8.13588 22.9915C8.21889 23.0745 8.3019 23.0745 8.38492 22.9915L9.46408 22.1614C9.54709 22.0784 9.6301 22.1614 9.71312 22.1614C9.71312 22.2444 9.79613 22.3274 9.71312 22.3274L8.71697 23.9047C8.55094 24.1537 8.21889 24.2367 8.05287 24.0707L7.30575 23.4896C7.22274 23.4066 7.13973 23.4066 7.05672 23.4896L5.97755 24.3197C5.89454 24.4027 5.81153 24.3197 5.72852 24.3197C5.72852 24.3197 5.72852 24.2367 5.72852 24.1537Z" fill="white"/>
<path d="M7.7204 37.0035C5.97714 36.9205 4.48291 38.3317 4.3999 40.0749C4.3999 40.158 4.3999 40.158 4.3999 40.241C4.3999 41.1541 4.73195 41.9842 5.47907 42.6483C5.56208 42.7313 5.56208 42.7313 5.56208 42.8144V43.3954C5.56208 43.5615 5.7281 43.6445 5.81112 43.6445H5.89413L6.55823 43.3954C6.64124 43.3954 6.64124 43.3954 6.72425 43.3954C7.0563 43.4785 7.38835 43.5615 7.7204 43.5615C9.46367 43.6445 10.9579 42.2333 11.0409 40.49C11.0409 40.324 11.0409 40.241 11.0409 40.241C11.0409 38.4977 9.62969 37.0035 7.88643 37.0035C7.80342 37.0035 7.80342 37.0035 7.7204 37.0035Z" fill="#004EE0"/>
<path d="M5.72852 41.1537L6.72467 39.5765C6.89069 39.3274 7.22274 39.2444 7.38877 39.4104L8.13588 39.9915C8.21889 40.0745 8.3019 40.0745 8.38492 39.9915L9.46408 39.1614C9.54709 39.0784 9.6301 39.1614 9.71312 39.1614C9.71312 39.2444 9.79613 39.3274 9.71312 39.3274L8.71697 40.9047C8.55094 41.1537 8.21889 41.2367 8.05287 41.0707L7.30575 40.4896C7.22274 40.4066 7.13973 40.4066 7.05672 40.4896L5.97755 41.3197C5.89454 41.4027 5.81153 41.3197 5.72852 41.3197C5.72852 41.3197 5.72852 41.2367 5.72852 41.1537Z" fill="white"/>
</g>
<defs>
<clipPath id="clip0_13055_525962">
<rect width="16" height="48" fill="white"/>
</clipPath>
</defs>
</svg>
