<svg id="Иконки" xmlns="http://www.w3.org/2000/svg" viewBox="0 0 32 144" width="32" height="144"><defs><style>.cls-1{fill:none;}.cls-2{fill:#20c964;}.cls-3{fill:#ffc107;}.cls-4{fill:#ff9800;}.cls-5{fill:#ff7043;}.cls-6{fill:#9575cd;}.cls-7{fill:#0091ea;}.cls-8{fill:#03a9f4;}.cls-9{fill:#009688;}.cls-10{fill:#00bfa5;}</style></defs><title>Artboard 1 copy</title><rect class="cls-1" y="0.25" width="16" height="16"/><rect class="cls-1" x="15.89" y="0.25" width="16" height="16"/><path class="cls-2" d="M14,2.25H9l2.1,2.1L8.6,6.85l.8.8,2.5-2.5L14,7.25v-5"/><path class="cls-2" d="M7.4,9.65l-.8-.8-2.5,2.5L2,9.25v5H7l-2.1-2.1Z"/><path class="cls-2" d="M22.89,9.85h-5l2.1,2.1-2.5,2.5.8.8,2.5-2.5,2.1,2.1v-5"/><path class="cls-2" d="M30.29,3.25l-.8-.8L27,4.95l-2.1-2.1v5h5l-2.1-2.1,2.5-2.5"/><rect class="cls-1" y="16.25" width="16" height="16"/><rect class="cls-1" x="15.89" y="16.25" width="16" height="16"/><path class="cls-3" d="M14,18.25H9l2.1,2.1-2.5,2.5.8.8,2.5-2.5,2.1,2.1v-5"/><path class="cls-3" d="M7.4,25.65l-.8-.8-2.5,2.5L2,25.25v5H7l-2.1-2.1Z"/><path class="cls-3" d="M22.89,25.85h-5l2.1,2.1-2.5,2.5.8.8,2.5-2.5,2.1,2.1v-5"/><path class="cls-3" d="M30.29,19.25l-.8-.8L27,20.95l-2.1-2.1v5h5l-2.1-2.1,2.5-2.5"/><rect class="cls-1" y="32.25" width="16" height="16"/><rect class="cls-1" x="15.89" y="32.25" width="16" height="16"/><path class="cls-4" d="M14,34.25H9l2.1,2.1-2.5,2.5.8.8,2.5-2.5,2.1,2.1v-5"/><path class="cls-4" d="M7.4,41.65l-.8-.8-2.5,2.5L2,41.25v5H7l-2.1-2.1Z"/><path class="cls-4" d="M22.89,41.85h-5l2.1,2.1-2.5,2.5.8.8,2.5-2.5,2.1,2.1v-5"/><path class="cls-4" d="M30.29,35.25l-.8-.8L27,36.95l-2.1-2.1v5h5l-2.1-2.1,2.5-2.5"/><rect class="cls-1" y="48.25" width="16" height="16"/><rect class="cls-1" x="15.89" y="48.25" width="16" height="16"/><path class="cls-5" d="M14,50.25H9l2.1,2.1-2.5,2.5.8.8,2.5-2.5,2.1,2.1v-5"/><path class="cls-5" d="M7.4,57.65l-.8-.8-2.5,2.5L2,57.25v5H7l-2.1-2.1Z"/><path class="cls-5" d="M22.89,57.85h-5l2.1,2.1-2.5,2.5.8.8,2.5-2.5,2.1,2.1v-5"/><path class="cls-5" d="M30.29,51.25l-.8-.8L27,52.95l-2.1-2.1v5h5l-2.1-2.1,2.5-2.5"/><rect class="cls-1" y="64.25" width="16" height="16"/><rect class="cls-1" x="15.89" y="64.25" width="16" height="16"/><path class="cls-6" d="M14,66.25H9l2.1,2.1-2.5,2.5.8.8,2.5-2.5,2.1,2.1v-5"/><path class="cls-6" d="M7.4,73.65l-.8-.8-2.5,2.5L2,73.25v5H7l-2.1-2.1Z"/><path class="cls-6" d="M22.89,73.85h-5l2.1,2.1-2.5,2.5.8.8,2.5-2.5,2.1,2.1v-5"/><path class="cls-6" d="M30.29,67.25l-.8-.8L27,68.95l-2.1-2.1v5h5l-2.1-2.1,2.5-2.5"/><rect class="cls-1" y="80.25" width="16" height="16"/><rect class="cls-1" x="15.89" y="80.25" width="16" height="16"/><path class="cls-7" d="M14,82.25H9l2.1,2.1-2.5,2.5.8.8,2.5-2.5,2.1,2.1v-5"/><path class="cls-7" d="M7.4,89.65l-.8-.8-2.5,2.5L2,89.25v5H7l-2.1-2.1Z"/><path class="cls-7" d="M22.89,89.85h-5l2.1,2.1-2.5,2.5.8.8,2.5-2.5,2.1,2.1v-5"/><path class="cls-7" d="M30.29,83.25l-.8-.8L27,84.95l-2.1-2.1v5h5l-2.1-2.1,2.5-2.5"/><rect class="cls-1" y="96.25" width="16" height="16"/><rect class="cls-1" x="15.89" y="96.25" width="16" height="16"/><path class="cls-8" d="M14,98.25H9l2.1,2.1-2.5,2.5.8.8,2.5-2.5,2.1,2.1v-5"/><path class="cls-8" d="M7.4,105.65l-.8-.8-2.5,2.5L2,105.25v5H7l-2.1-2.1Z"/><path class="cls-8" d="M22.89,105.85h-5l2.1,2.1-2.5,2.5.8.8,2.5-2.5,2.1,2.1v-5"/><path class="cls-8" d="M30.29,99.25l-.8-.8-2.5,2.5-2.1-2.1v5h5l-2.1-2.1,2.5-2.5"/><rect class="cls-1" y="112.25" width="16" height="16"/><rect class="cls-1" x="15.89" y="112.25" width="16" height="16"/><path class="cls-9" d="M14,114.25H9l2.1,2.1-2.5,2.5.8.8,2.5-2.5,2.1,2.1v-5"/><path class="cls-9" d="M7.4,121.65l-.8-.8-2.5,2.5L2,121.25v5H7l-2.1-2.1Z"/><path class="cls-9" d="M22.89,121.85h-5l2.1,2.1-2.5,2.5.8.8,2.5-2.5,2.1,2.1v-5"/><path class="cls-9" d="M30.29,115.25l-.8-.8-2.5,2.5-2.1-2.1v5h5l-2.1-2.1,2.5-2.5"/><rect class="cls-1" y="128.25" width="16" height="16"/><rect class="cls-1" x="15.89" y="128.25" width="16" height="16"/><path class="cls-10" d="M14,130.25H9l2.1,2.1-2.5,2.5.8.8,2.5-2.5,2.1,2.1v-5"/><path class="cls-10" d="M7.4,137.65l-.8-.8-2.5,2.5L2,137.25v5H7l-2.1-2.1Z"/><path class="cls-10" d="M22.89,137.85h-5l2.1,2.1-2.5,2.5.8.8,2.5-2.5,2.1,2.1v-5"/><path class="cls-10" d="M30.29,131.25l-.8-.8-2.5,2.5-2.1-2.1v5h5l-2.1-2.1,2.5-2.5"/></svg>