<svg id="Иконки" xmlns="http://www.w3.org/2000/svg" viewBox="0 0 16 144" width="16" height="144"><defs><style>.cls-1,.cls-10,.cls-2,.cls-3,.cls-4,.cls-5,.cls-6,.cls-7,.cls-8,.cls-9{fill:none;}.cls-1{stroke:#20c964;}.cls-1,.cls-10,.cls-3,.cls-4,.cls-5,.cls-6,.cls-7,.cls-8,.cls-9{stroke-miterlimit:10;stroke-width:0.8px;}.cls-3{stroke:#ffc107;}.cls-4{stroke:#ff9800;}.cls-5{stroke:#ff7043;}.cls-6{stroke:#9575cd;}.cls-7{stroke:#0091ea;}.cls-8{stroke:#03a9f4;}.cls-9{stroke:#009688;}.cls-10{stroke:#00bfa5;}</style></defs><title>Artboard 1</title><path class="cls-1" d="M14.5,6.68h-.7A5.93,5.93,0,0,0,13.11,5l.73-.73a1,1,0,0,0,0-1.38l-.62-.62a1,1,0,0,0-1.38,0l-.73.73c-.5-.31-1.05,0-1.64-.2V1.68a1,1,0,0,0-1-1H7.53a1,1,0,0,0-1,1v1.2c-.62.16-1.2-.09-1.72.25l-.64-.64a1,1,0,0,0-1.38,0l-.62.62a1,1,0,0,0,0,1.38l.67.67a5.94,5.94,0,0,0-.68,1.69H1.5a1,1,0,0,0-1,1v.94a1,1,0,0,0,1,1h.73a6,6,0,0,0,.71,1.58l-.78.78a1,1,0,0,0,0,1.38l.62.62a1,1,0,0,0,1.38,0L5,13.34A6,6,0,0,0,6.5,14v.84a1,1,0,0,0,1,1h.94a1,1,0,0,0,1-1V14a6,6,0,0,0,1.63-.69l.73.73a1,1,0,0,0,1.38,0l.62-.62a1,1,0,0,0,0-1.38l-.73-.73a5.94,5.94,0,0,0,.69-1.64h.7a1,1,0,0,0,1-1V7.7A1,1,0,0,0,14.5,6.68Z"/><circle class="cls-1" cx="8" cy="8.18" r="2.5"/><rect class="cls-2" y="0.25" width="16" height="16"/><path class="cls-3" d="M14.5,22.68h-.7A5.93,5.93,0,0,0,13.11,21l.73-.73a1,1,0,0,0,0-1.38l-.62-.62a1,1,0,0,0-1.38,0l-.73.73c-.5-.31-1.05,0-1.64-.2v-1.2a1,1,0,0,0-1-1H7.53a1,1,0,0,0-1,1v1.2c-.62.16-1.2-.09-1.72.25l-.64-.64a1,1,0,0,0-1.38,0l-.62.62a1,1,0,0,0,0,1.38l.67.67a5.94,5.94,0,0,0-.68,1.69H1.5a1,1,0,0,0-1,1v.94a1,1,0,0,0,1,1h.73a6,6,0,0,0,.71,1.58l-.78.78a1,1,0,0,0,0,1.38l.62.62a1,1,0,0,0,1.38,0L5,29.34A6,6,0,0,0,6.5,30v.84a1,1,0,0,0,1,1h.94a1,1,0,0,0,1-1V30a6,6,0,0,0,1.63-.69l.73.73a1,1,0,0,0,1.38,0l.62-.62a1,1,0,0,0,0-1.38l-.73-.73a5.94,5.94,0,0,0,.69-1.64h.7a1,1,0,0,0,1-1V23.7A1,1,0,0,0,14.5,22.68Z"/><circle class="cls-3" cx="8" cy="24.18" r="2.5"/><rect class="cls-2" y="16.25" width="16" height="16"/><path class="cls-4" d="M14.5,38.68h-.7A5.93,5.93,0,0,0,13.11,37l.73-.73a1,1,0,0,0,0-1.38l-.62-.62a1,1,0,0,0-1.38,0l-.73.73c-.5-.31-1.05,0-1.64-.2v-1.2a1,1,0,0,0-1-1H7.53a1,1,0,0,0-1,1v1.2c-.62.16-1.2-.09-1.72.25l-.64-.64a1,1,0,0,0-1.38,0l-.62.62a1,1,0,0,0,0,1.38l.67.67a5.94,5.94,0,0,0-.68,1.69H1.5a1,1,0,0,0-1,1v.94a1,1,0,0,0,1,1h.73a6,6,0,0,0,.71,1.58l-.78.78a1,1,0,0,0,0,1.38l.62.62a1,1,0,0,0,1.38,0L5,45.34A6,6,0,0,0,6.5,46v.84a1,1,0,0,0,1,1h.94a1,1,0,0,0,1-1V46a6,6,0,0,0,1.63-.69l.73.73a1,1,0,0,0,1.38,0l.62-.62a1,1,0,0,0,0-1.38l-.73-.73a5.94,5.94,0,0,0,.69-1.64h.7a1,1,0,0,0,1-1V39.7A1,1,0,0,0,14.5,38.68Z"/><circle class="cls-4" cx="8" cy="40.18" r="2.5"/><rect class="cls-2" y="32.25" width="16" height="16"/><path class="cls-5" d="M14.5,54.68h-.7A5.93,5.93,0,0,0,13.11,53l.73-.73a1,1,0,0,0,0-1.38l-.62-.62a1,1,0,0,0-1.38,0l-.73.73c-.5-.31-1.05,0-1.64-.2v-1.2a1,1,0,0,0-1-1H7.53a1,1,0,0,0-1,1v1.2c-.62.16-1.2-.09-1.72.25l-.64-.64a1,1,0,0,0-1.38,0l-.62.62a1,1,0,0,0,0,1.38l.67.67a5.94,5.94,0,0,0-.68,1.69H1.5a1,1,0,0,0-1,1v.94a1,1,0,0,0,1,1h.73a6,6,0,0,0,.71,1.58l-.78.78a1,1,0,0,0,0,1.38l.62.62a1,1,0,0,0,1.38,0L5,61.34A6,6,0,0,0,6.5,62v.84a1,1,0,0,0,1,1h.94a1,1,0,0,0,1-1V62a6,6,0,0,0,1.63-.69l.73.73a1,1,0,0,0,1.38,0l.62-.62a1,1,0,0,0,0-1.38l-.73-.73a5.94,5.94,0,0,0,.69-1.64h.7a1,1,0,0,0,1-1V55.7A1,1,0,0,0,14.5,54.68Z"/><circle class="cls-5" cx="8" cy="56.18" r="2.5"/><rect class="cls-2" y="48.25" width="16" height="16"/><path class="cls-6" d="M14.5,70.68h-.7A5.93,5.93,0,0,0,13.11,69l.73-.73a1,1,0,0,0,0-1.38l-.62-.62a1,1,0,0,0-1.38,0l-.73.73c-.5-.31-1.05,0-1.64-.2v-1.2a1,1,0,0,0-1-1H7.53a1,1,0,0,0-1,1v1.2c-.62.16-1.2-.09-1.72.25l-.64-.64a1,1,0,0,0-1.38,0l-.62.62a1,1,0,0,0,0,1.38l.67.67a5.94,5.94,0,0,0-.68,1.69H1.5a1,1,0,0,0-1,1v.94a1,1,0,0,0,1,1h.73a6,6,0,0,0,.71,1.58l-.78.78a1,1,0,0,0,0,1.38l.62.62a1,1,0,0,0,1.38,0L5,77.34A6,6,0,0,0,6.5,78v.84a1,1,0,0,0,1,1h.94a1,1,0,0,0,1-1V78a6,6,0,0,0,1.63-.69l.73.73a1,1,0,0,0,1.38,0l.62-.62a1,1,0,0,0,0-1.38l-.73-.73a5.94,5.94,0,0,0,.69-1.64h.7a1,1,0,0,0,1-1V71.7A1,1,0,0,0,14.5,70.68Z"/><circle class="cls-6" cx="8" cy="72.18" r="2.5"/><rect class="cls-2" y="64.25" width="16" height="16"/><path class="cls-7" d="M14.5,86.68h-.7A5.93,5.93,0,0,0,13.11,85l.73-.73a1,1,0,0,0,0-1.38l-.62-.62a1,1,0,0,0-1.38,0l-.73.73c-.5-.31-1.05,0-1.64-.2v-1.2a1,1,0,0,0-1-1H7.53a1,1,0,0,0-1,1v1.2c-.62.16-1.2-.09-1.72.25l-.64-.64a1,1,0,0,0-1.38,0l-.62.62a1,1,0,0,0,0,1.38l.67.67a5.94,5.94,0,0,0-.68,1.69H1.5a1,1,0,0,0-1,1v.94a1,1,0,0,0,1,1h.73a6,6,0,0,0,.71,1.58l-.78.78a1,1,0,0,0,0,1.38l.62.62a1,1,0,0,0,1.38,0L5,93.34A6,6,0,0,0,6.5,94v.84a1,1,0,0,0,1,1h.94a1,1,0,0,0,1-1V94a6,6,0,0,0,1.63-.69l.73.73a1,1,0,0,0,1.38,0l.62-.62a1,1,0,0,0,0-1.38l-.73-.73a5.94,5.94,0,0,0,.69-1.64h.7a1,1,0,0,0,1-1V87.7A1,1,0,0,0,14.5,86.68Z"/><circle class="cls-7" cx="8" cy="88.18" r="2.5"/><rect class="cls-2" y="80.25" width="16" height="16"/><path class="cls-8" d="M14.5,102.68h-.7a5.93,5.93,0,0,0-.69-1.63l.73-.73a1,1,0,0,0,0-1.38l-.62-.62a1,1,0,0,0-1.38,0l-.73.73c-.5-.31-1.05,0-1.64-.2v-1.2a1,1,0,0,0-1-1H7.53a1,1,0,0,0-1,1v1.2c-.62.16-1.2-.09-1.72.25l-.64-.64a1,1,0,0,0-1.38,0l-.62.62a1,1,0,0,0,0,1.38l.67.67a5.94,5.94,0,0,0-.68,1.69H1.5a1,1,0,0,0-1,1v.94a1,1,0,0,0,1,1h.73a6,6,0,0,0,.71,1.58l-.78.78a1,1,0,0,0,0,1.38l.62.62a1,1,0,0,0,1.38,0l.81-.81A6,6,0,0,0,6.5,110v.84a1,1,0,0,0,1,1h.94a1,1,0,0,0,1-1V110a6,6,0,0,0,1.63-.69l.73.73a1,1,0,0,0,1.38,0l.62-.62a1,1,0,0,0,0-1.38l-.73-.73a5.94,5.94,0,0,0,.69-1.64h.7a1,1,0,0,0,1-1v-.94A1,1,0,0,0,14.5,102.68Z"/><circle class="cls-8" cx="8" cy="104.18" r="2.5"/><rect class="cls-2" y="96.25" width="16" height="16"/><path class="cls-9" d="M14.5,118.68h-.7a5.93,5.93,0,0,0-.69-1.63l.73-.73a1,1,0,0,0,0-1.38l-.62-.62a1,1,0,0,0-1.38,0l-.73.73c-.5-.31-1.05,0-1.64-.2v-1.2a1,1,0,0,0-1-1H7.53a1,1,0,0,0-1,1v1.2c-.62.16-1.2-.09-1.72.25l-.64-.64a1,1,0,0,0-1.38,0l-.62.62a1,1,0,0,0,0,1.38l.67.67a5.94,5.94,0,0,0-.68,1.69H1.5a1,1,0,0,0-1,1v.94a1,1,0,0,0,1,1h.73a6,6,0,0,0,.71,1.58l-.78.78a1,1,0,0,0,0,1.38l.62.62a1,1,0,0,0,1.38,0l.81-.81A6,6,0,0,0,6.5,126v.84a1,1,0,0,0,1,1h.94a1,1,0,0,0,1-1V126a6,6,0,0,0,1.63-.69l.73.73a1,1,0,0,0,1.38,0l.62-.62a1,1,0,0,0,0-1.38l-.73-.73a5.94,5.94,0,0,0,.69-1.64h.7a1,1,0,0,0,1-1v-.94A1,1,0,0,0,14.5,118.68Z"/><circle class="cls-9" cx="8" cy="120.18" r="2.5"/><rect class="cls-2" y="112.25" width="16" height="16"/><path class="cls-10" d="M14.5,134.68h-.7a5.93,5.93,0,0,0-.69-1.63l.73-.73a1,1,0,0,0,0-1.38l-.62-.62a1,1,0,0,0-1.38,0l-.73.73c-.5-.31-1.05,0-1.64-.2v-1.2a1,1,0,0,0-1-1H7.53a1,1,0,0,0-1,1v1.2c-.62.16-1.2-.09-1.72.25l-.64-.64a1,1,0,0,0-1.38,0l-.62.62a1,1,0,0,0,0,1.38l.67.67a5.94,5.94,0,0,0-.68,1.69H1.5a1,1,0,0,0-1,1v.94a1,1,0,0,0,1,1h.73a6,6,0,0,0,.71,1.58l-.78.78a1,1,0,0,0,0,1.38l.62.62a1,1,0,0,0,1.38,0l.81-.81A6,6,0,0,0,6.5,142v.84a1,1,0,0,0,1,1h.94a1,1,0,0,0,1-1V142a6,6,0,0,0,1.63-.69l.73.73a1,1,0,0,0,1.38,0l.62-.62a1,1,0,0,0,0-1.38l-.73-.73a5.94,5.94,0,0,0,.69-1.64h.7a1,1,0,0,0,1-1v-.94A1,1,0,0,0,14.5,134.68Z"/><circle class="cls-10" cx="8" cy="136.18" r="2.5"/><rect class="cls-2" y="128.25" width="16" height="16"/></svg>