<svg width="16" height="48" viewBox="0 0 16 48" fill="none" xmlns="http://www.w3.org/2000/svg">
<g clip-path="url(#clip0_13055_525950)">
<path d="M7.20017 8.89999L7.10017 10.5C7.20017 10.5 7.30017 10.4 7.40017 10.3L8.20017 9.5L9.80017 10.7C10.1002 10.9 10.3002 10.8 10.4002 10.4L11.5002 5.4C11.6002 5 11.3002 4.8 11.0002 4.9L4.80017 7.49999C4.40017 7.7 4.40017 7.9 4.70017 7.99999L6.30017 8.49999L10.0002 6.19999C10.2002 6.09999 10.3002 6.1 10.2002 6.3L7.20017 8.89999Z" fill="#0D2E4E"/>
<path d="M7.20017 24.9044L7.10017 26.5044C7.20017 26.5044 7.30017 26.4044 7.40017 26.3044L8.20017 25.5044L9.80017 26.7044C10.1002 26.9044 10.3002 26.8044 10.4002 26.4044L11.5002 21.4044C11.6002 21.0044 11.3002 20.8044 11.0002 20.9044L4.80017 23.5044C4.40017 23.7044 4.40017 23.9044 4.70017 24.0044L6.30017 24.5044L10.0002 22.2044C10.2002 22.1044 10.3002 22.1044 10.2002 22.3044L7.20017 24.9044Z" fill="#0057F9"/>
<path d="M7.20017 40.9044L7.10017 42.5044C7.20017 42.5044 7.30017 42.4044 7.40017 42.3044L8.20017 41.5044L9.80017 42.7044C10.1002 42.9044 10.3002 42.8044 10.4002 42.4044L11.5002 37.4044C11.6002 37.0044 11.3002 36.8044 11.0002 36.9044L4.80017 39.5044C4.40017 39.7044 4.40017 39.9044 4.70017 40.0044L6.30017 40.5044L10.0002 38.2044C10.2002 38.1044 10.3002 38.1044 10.2002 38.3044L7.20017 40.9044Z" fill="#004EE0"/>
</g>
<defs>
<clipPath id="clip0_13055_525950">
<rect width="16" height="48" fill="white"/>
</clipPath>
</defs>
</svg>
