<svg id="Иконки" xmlns="http://www.w3.org/2000/svg" viewBox="0 0 16 144" width="16" height="144"><defs><style>.cls-1{fill:none;}.cls-2{fill:#20c964;}.cls-3{fill:#ffc107;}.cls-4{fill:#ff9800;}.cls-5{fill:#ff7043;}.cls-6{fill:#9575cd;}.cls-7{fill:#0091ea;}.cls-8{fill:#03a9f4;}.cls-9{fill:#009688;}.cls-10{fill:#00bfa5;}</style></defs><title>Artboard 1 copy 3</title><rect class="cls-1" y="0.25" width="16" height="16"/><rect class="cls-1" y="16.25" width="16" height="16"/><rect class="cls-1" y="32.25" width="16" height="16"/><rect class="cls-1" y="48.25" width="16" height="16"/><rect class="cls-1" y="64.25" width="16" height="16"/><rect class="cls-1" y="80.25" width="16" height="16"/><rect class="cls-1" y="96.25" width="16" height="16"/><rect class="cls-1" y="112.25" width="16" height="16"/><rect class="cls-1" y="128.25" width="16" height="16"/><path class="cls-2" d="M15.32,10.55,9.63,2A2.31,2.31,0,0,0,6.37,2L.68,10.55c-.9.9.1,2.36,1,3.26H14.32C15.23,12.91,16.23,11.45,15.32,10.55ZM8.5,11.81h-1v-1h1Zm0-2h-1v-6h1Z"/><path class="cls-3" d="M15.32,26.55,9.63,18a2.31,2.31,0,0,0-3.26,0L.68,26.55c-.9.9.1,2.36,1,3.26H14.32C15.23,28.91,16.23,27.45,15.32,26.55ZM8.5,27.81h-1v-1h1Zm0-2h-1v-6h1Z"/><path class="cls-4" d="M15.32,42.55,9.63,34a2.31,2.31,0,0,0-3.26,0L.68,42.55c-.9.9.1,2.36,1,3.26H14.32C15.23,44.91,16.23,43.45,15.32,42.55ZM8.5,43.81h-1v-1h1Zm0-2h-1v-6h1Z"/><path class="cls-5" d="M15.32,58.55,9.63,50a2.31,2.31,0,0,0-3.26,0L.68,58.55c-.9.9.1,2.36,1,3.26H14.32C15.23,60.91,16.23,59.45,15.32,58.55ZM8.5,59.81h-1v-1h1Zm0-2h-1v-6h1Z"/><path class="cls-6" d="M15.32,74.55,9.63,66a2.31,2.31,0,0,0-3.26,0L.68,74.55c-.9.9.1,2.36,1,3.26H14.32C15.23,76.91,16.23,75.45,15.32,74.55ZM8.5,75.81h-1v-1h1Zm0-2h-1v-6h1Z"/><path class="cls-7" d="M15.32,90.55,9.63,82a2.31,2.31,0,0,0-3.26,0L.68,90.55c-.9.9.1,2.36,1,3.26H14.32C15.23,92.91,16.23,91.45,15.32,90.55ZM8.5,91.81h-1v-1h1Zm0-2h-1v-6h1Z"/><path class="cls-8" d="M15.32,106.55,9.63,98a2.31,2.31,0,0,0-3.26,0L.68,106.55c-.9.9.1,2.36,1,3.26H14.32C15.23,108.91,16.23,107.45,15.32,106.55ZM8.5,107.81h-1v-1h1Zm0-2h-1v-6h1Z"/><path class="cls-9" d="M15.32,122.55,9.63,114a2.31,2.31,0,0,0-3.26,0L.68,122.55c-.9.9.1,2.36,1,3.26H14.32C15.23,124.91,16.23,123.45,15.32,122.55ZM8.5,123.81h-1v-1h1Zm0-2h-1v-6h1Z"/><path class="cls-10" d="M15.32,138.55,9.63,130a2.31,2.31,0,0,0-3.26,0L.68,138.55c-.9.9.1,2.36,1,3.26H14.32C15.23,140.91,16.23,139.45,15.32,138.55ZM8.5,139.81h-1v-1h1Zm0-2h-1v-6h1Z"/></svg>