<svg xmlns="http://www.w3.org/2000/svg" viewBox="0 0 140 140" enable-background="new 0 0 140 140"><path fill="#ebeeef" d="m0 0h140v140h-140z"/><path d="m27 46.5c-.8 0-1.5-.7-1.5-1.5v-18c0-.8.7-1.5 1.5-1.5h86c.8 0 1.5.7 1.5 1.5v18c0 .8-.7 1.5-1.5 1.5h-86" fill="#fff"/><path d="m113 26c.6 0 1 .4 1 1v18c0 .6-.4 1-1 1h-86c-.6 0-1-.4-1-1v-18c0-.6.4-1 1-1h86m0-1h-86c-1.1 0-2 .9-2 2v18c0 1.1.9 2 2 2h86c1.1 0 2-.9 2-2v-18c0-1.1-.9-2-2-2z" fill="#e6e6e6"/><path d="m27 114.5c-.8 0-1.5-.7-1.5-1.5v-62c0-.8.7-1.5 1.5-1.5h28c.8 0 1.5.7 1.5 1.5v62c0 .8-.7 1.5-1.5 1.5h-28" fill="#fff"/><path d="m55 50c.6 0 1 .4 1 1v62c0 .6-.4 1-1 1h-28c-.6 0-1-.4-1-1v-62c0-.6.4-1 1-1h28m0-1h-28c-1.1 0-2 .9-2 2v62c0 1.1.9 2 2 2h28c1.1 0 2-.9 2-2v-62c0-1.1-.9-2-2-2z" fill="#e6e6e6"/><path d="m61 114.5c-.8 0-1.5-.7-1.5-1.5v-62c0-.8.7-1.5 1.5-1.5h52c.8 0 1.5.7 1.5 1.5v62c0 .8-.7 1.5-1.5 1.5h-52" fill="#fff"/><path d="m113 50c.6 0 1 .4 1 1v62c0 .6-.4 1-1 1h-52c-.6 0-1-.4-1-1v-62c0-.6.4-1 1-1h52m0-1h-52c-1.1 0-2 .9-2 2v62c0 1.1.9 2 2 2h52c1.1 0 2-.9 2-2v-62c0-1.1-.9-2-2-2z" fill="#e6e6e6"/></svg>