<svg xmlns="http://www.w3.org/2000/svg" viewBox="0 0 529 51" enable-background="new 0 0 529 51"><defs><filter id="1" filterUnits="userSpaceOnUse" x="344.4" y="36" width="15.2" height="14"><feColorMatrix type="matrix" values="-1 0 0 0 1  0 -1 0 0 1  0 0 -1 0 1  0 0 0 1 0" color-interpolation-filters="sRGB" result="source"/><feFlood style="flood-color:white;flood-opacity:1" result="back"/><feBlend in="source" in2="back" mode="normal"/></filter><mask maskUnits="userSpaceOnUse" x="344.4" y="36" width="15.2" height="14" id="0"><g filter="url(#1)"><g><ellipse cx="352" cy="43" rx="2.9" ry="8" fill="none" stroke="#fff" stroke-miterlimit="10"/><path fill="none" stroke="#fff" stroke-miterlimit="10" d="m342.5 40.5h19"/><path fill="none" stroke="#fff" stroke-miterlimit="10" d="m342.5 45.5h19"/></g></g></mask></defs><path fill="#d8dcdb" d="m0 38h144v9h-144z"/><path d="m193.48 46.02c1.5 1.2-.1 2.6-.8 3.4-.5.6-1.1 1.3-5.4-1.1-1.7-1-3.3-2.3-4.2-3.2l-.2-.2c-.9-.9-2.2-2.5-3.2-4.2-2.4-4.3-1.7-4.9-1.1-5.4.8-.7 2.2-2.2 3.4-.8 2 2.4 2.2 3.5 1.5 4.1-.3.3-.3.4-.6.7-.8.8-.6 2.1 1.3 4l.3.4c1.4 1.4 3.2 2.1 4 1.4.3-.3.4-.5.7-.9.7-.7 1.5-.5 4.3 1.8" fill="#44d60b"/><g fill="#ffce66"><path d="m229 45.9l-8-7.8v10.7l.1.2h15.6l.3-.2v-10.7z"/><path d="m236 37h-14.2l7.1 7.1z"/></g><path fill="#1d87e3" d="m278 48h-8.2l-3.8 3v-3h-2v-11h14z"/><path fill="#15b8ff" d="m308.9 45h9.7l-3.4-4.4 3.3-3.6h-10.5v14.3h.9z"/><ellipse cx="352" cy="43" rx="7.6" ry="7" fill="#8384d6" mask="url(#0)"/><path d="M181,22H3c-1.65,0-3-1.35-3-3V3c0-1.65,1.35-3,3-3l178,0l8,11.5L181,22z" fill="#8acc6c"/><path fill="#e1f1d5" d="m9 8h104v6h-104z"/><path fill="#d7d8db" d="m354 22h-171l8-10.5-8-11.5h171l8 11.5z"/><path fill="#f4f5f5" d="m200 8h104v6h-104z"/><path d="m356 22h170c1.65 0 3-1.35 3-3v-16c0-1.65-1.35-3-3-3h-170l8 11.5-8 10.5" fill="#d7d8db"/><path fill="#f4f5f5" d="m373 8h104v6h-104z"/></svg>