<svg xmlns="http://www.w3.org/2000/svg" viewBox="0 0 80 84" enable-background="new 0 0 80 84"><g fill="#64b8df"><path d="m2.5 83.3c6.6-4.5 10-14.4 10.1-14.9l.1-.4-.3-.3c-7.1-7.4-11-17.2-11-27.6.1-21.7 17.6-39.5 39-39.5 21.5 0 38.9 17.8 38.9 39.6 0 21.8-17.5 39.6-38.9 39.6-4.6 0-9.1-.8-13.4-2.4l-.4-.1-.3.3c-.3.2-.5.4-.9.6-7.7 4.7-13.7 5.1-22.9 5.1" opacity=".1"/><path d="m40.4 1.3c21.1 0 38.3 17.5 38.3 39 0 21.5-17.2 38.9-38.3 38.9-4.5 0-9-.8-13.2-2.4l-.7-.3-.6.5c-.2.2-.5.4-.8.6-7.1 4.3-12.7 4.9-20.7 5 5.7-5 8.7-13.6 8.8-14l.2-.7-.4-.5c-7-7.3-10.8-17-10.8-27.1 0-21.5 17.1-39 38.2-39m0-1.3c-21.8 0-39.5 18-39.5 40.3 0 10.9 4.3 20.8 11.2 28-.1.2-4.3 12.4-12.1 15.7 10.6 0 17.2 0 25.8-5.3.4-.2.7-.5 1-.7 4.3 1.6 8.9 2.5 13.7 2.5 21.9 0 39.6-18 39.6-40.2-.1-22.3-17.8-40.3-39.7-40.3z"/></g><path fill="none" stroke="#4cb0df" stroke-width="2" stroke-miterlimit="10" d="m32 59v-31h22.5l-8.2 8.3 8.4 8.7h-21.7"/></svg>