<svg xmlns="http://www.w3.org/2000/svg" viewBox="0 0 134 139" enable-background="new 0 0 134 139"><g fill="#ff7a64"><path d="m4 138c11.2-7.4 17.1-24.5 17.1-24.7l.2-.6-.4-.4c-11.9-12.3-18.5-28.6-18.5-45.7 0-36.2 29.3-65.6 65.3-65.6 36 0 65.3 29.4 65.3 65.6 0 36.2-29.3 65.6-65.3 65.6-7.7 0-15.3-1.4-22.5-4l-.6-.2-.4.4c-.5.4-.9.8-1.5 1.1-13.1 7.8-23.2 8.5-38.7 8.5" opacity=".1"/><path d="m67.7 2c35.5 0 64.3 29 64.3 64.6 0 35.6-28.8 64.6-64.3 64.6-7.6 0-15.1-1.3-22.2-4l-1.1-.4-.9.8c-.4.4-.8.7-1.3 1-12 7.2-21.5 8.2-35.2 8.4 9.8-8.1 14.8-22.6 15-23.4l.4-1.2-.8-.9c-11.7-12-18.2-28-18.2-44.9 0-35.6 28.9-64.6 64.3-64.6m0-2c-36.6 0-66.3 29.8-66.3 66.6 0 18 7.1 34.4 18.7 46.4-.1.4-7.1 20.5-20.2 26 17.8 0 28.8 0 43.2-8.7.7-.4 1.2-.8 1.6-1.2 7.1 2.6 14.8 4.1 22.9 4.1 36.6 0 66.3-29.8 66.3-66.6.1-36.8-29.6-66.6-66.2-66.6z"/></g><ellipse cx="66.5" cy="59.4" rx="10.5" ry="16" fill="none" stroke="#ff7a64" stroke-width="2.2" stroke-miterlimit="10"/><path d="m71.9 69.3c0 0-.1 0-.2-.1-.1-.1-.3-.2-.5-.4-.4-.4-.9-1-1.3-1.9-.4-.8-.8-1.9-1-3-.1-.6-.2-1.2-.3-1.8-.1-.6-.1-1.2-.1-1.9 0-.6 0-1.2.1-1.8.1-.6.2-1.2.3-1.8.2-1.1.6-2.2 1-3 .4-.8.9-1.5 1.3-1.9.2-.2.4-.3.5-.4.1-.1.2-.1.2-.1s-.2.3-.4.7c-.2.5-.4 1.2-.6 2-.2.8-.3 1.8-.4 2.9-.1.5-.1 1.1-.1 1.6 0 .6 0 1.1 0 1.7 0 .5 0 1.1 0 1.7 0 .6 0 1.1.1 1.6.1.5.1 1 .2 1.5.1.5.1.9.2 1.4.2.8.4 1.5.6 2 .1.2.2.4.3.5.1.5.1.5.1.5" fill="#ff7a64"/><g fill="none" stroke="#ff7a64" stroke-miterlimit="10"><path d="m69 73.4c0 0-4.4 3.9-3.7 5.9.7 2 32.7-.4 32.7 1.6 0 2.1-16.6 1.7-17 3-.7 2.6 13.2.7 12.5 4.1-.7 3.4-21.2 1.6-23.1 2-4.8 1-1.4 3.4-13.6 2.7-12.3-.7-26.5-1.3-23.2-3.7 4-3 15.4-1.8 15.4-4 0-1.8-6 0-5.7-1.8.3-1.8 11.1-1.9 12.7-2 2.6-.2-.3-5 6-6.8 1.9-.6 7-1 7-1z" stroke-width="1.8"/><g stroke-width="2"><path d="m67.1 43.4h6.3c8 0 14.6 7.2 14.6 16 0 8.8-6.6 16-14.6 16h-5.4"/><path d="m67.4 43.4c0 0-.7-2.5.1-4 1-2.1 6.6-1.4 8.4-.6 1.9.8 3 3.4 4.2 6.1"/></g></g></svg>