<svg xmlns="http://www.w3.org/2000/svg" viewBox="0 0 20 20" enable-background="new 0 0 20 20"><g fill="#8384d6"><path d="m12.8 7h3.5c-.9-1.7-2.5-3.1-4.5-3.7.5 1 .8 2.3 1 3.7"/><path d="m7.3 8c-.1.6-.1 1.3-.1 2 0 .7 0 1.4.1 2h4.4c.1-.6.1-1.3.1-2 0-.7 0-1.4-.1-2h-4.4"/><path d="m7.4 13c.3 2 .9 3.3 1.4 4 .2 0 .4 0 .6 0s.4 0 .6 0c.6-.6 1.1-2 1.4-4h-4"/><path d="m13 10c0 .7 0 1.3-.1 2h3.8c.2-.6.3-1.3.3-2s0-1.4-.2-2h-3.8c0 .7 0 1.3 0 2"/><path d="m6.2 7c.2-1.4.5-2.7 1-3.7-2 .6-3.7 2-4.5 3.7h3.5"/><path d="m12.8 13c-.2 1.4-.5 2.7-1 3.7 2-.6 3.7-1.9 4.5-3.7h-3.5"/><path d="m8.9 3c-.6.7-1.2 2-1.5 4h4.1c-.3-2-.9-3.3-1.4-4-.2 0-.4 0-.6 0s-.4 0-.6 0"/><path d="m6.2 13h-3.5c.9 1.7 2.5 3.1 4.5 3.7-.5-1-.8-2.3-1-3.7"/><path d="m2.2 8c-.2.6-.3 1.3-.3 2s.1 1.4.3 2h3.8c0-.7 0-1.3 0-2s0-1.3.1-2h-3.9"/></g></svg>