<svg xmlns="http://www.w3.org/2000/svg" viewBox="0 0 16 16" enable-background="new 0 0 16 16"><g fill="#658fe7"><path transform="matrix(.7071-.7071.7071.7071-3.314 8)" d="m.2 7.5h15.6v1h-15.6z"/><path d="m15.9 7.7c-.1-.1-1.1-1.5-2.8-2.7l-.7.7c1.2.9 2 1.8 2.4 2.3-.8 1-3.6 4-6.8 4-.6 0-1.1-.1-1.6-.3l-.8.8c.7.3 1.5.5 2.4.5 4.3 0 7.8-4.5 7.9-4.7l.2-.3-.2-.3"/><path d="m5.3 11.4c-2-.9-3.6-2.7-4.2-3.4.9-1 3.7-4 6.9-4 1.3 0 2.5.5 3.6 1.1l.7-.7c-1.2-.8-2.7-1.4-4.3-1.4-4.3 0-7.8 4.5-7.9 4.7l-.2.3.2.3c.1.1 1.9 2.5 4.5 3.8l.7-.7"/><path d="m8.1 10c1-.1 1.8-.9 1.9-1.9l-1.9 1.9"/><path d="m7 9.7l2.7-2.7c-.3-.6-1-1-1.7-1-1.1 0-2 .9-2 2 0 .7.4 1.4 1 1.7"/></g></svg>