<svg xmlns="http://www.w3.org/2000/svg" viewBox="0 0 26 78" enable-background="new 0 0 26 78"><g fill="none" stroke="#fff" stroke-miterlimit="10"><circle cx="13" cy="39" r="12.4"/><g stroke-width="1.6"><path d="m17.9 34l-10 10"/><path d="m7.9 34l10 10"/></g><circle cx="13" cy="65" r="11.9" stroke-width="2"/><g stroke-width="1.6"><path d="m17.9 60l-10 10"/><path d="m7.9 60l10 10"/></g></g><path d="m13 0c-7.2 0-13 5.8-13 13s5.8 13 13 13 13-5.8 13-13-5.8-13-13-13m6.5 17.9l-1.1 1.1-4.9-4.9-4.9 4.9-1.1-1.1 4.9-4.9-5.1-4.9 1.1-1.1 4.9 4.9 4.9-4.9 1.1 1.1-4.8 4.9 5 4.9" fill="#fff"/></svg>