<svg xmlns="http://www.w3.org/2000/svg" viewBox="0 0 112 112" enable-background="new 0 0 112 112"><path d="m110.9 98.2l-31.5-14-1.2-3.8c-.4-1.3-.9-2.6-2.1-2.9-.4-.1-.9-.8-.9-1.3l-.7-7.5c0-.6.2-1.2.6-1.6 2-2.4 3.1-5.3 3.6-8.5.2-1.6 1.1-3.1 1.5-4.7l1.7-8.9c.2-1.2.1-2.1-1.2-2.5-.4-.1-.7-.7-.7-1.6 0 0 1.6-11.6 1.1-15.7-.7-5.4-4.8-16.3-16-15.7-29.8-8.7-27.6 5.8-37.9 10.1 2.9 2.1 4.9 1.8 6.5 1.2-.5.4-4.1.6-5.8 7.8 2.1-2.7 3.2-2.7 4.6-3.5-3.4 1.9-.3 13.3-.2 14.4v1.5c0 .7-.3 1.5-.7 1.6-1.3.5-1.3 1.4-1.2 2.5l1.7 8.9c.4 1.6 1.3 3.1 1.5 4.7.5 3.2 1.6 6.1 3.6 8.5.3.4.6 1 .6 1.6l-.7 7.5c-.1.5-.5 1.2-.9 1.3-1.2.3-1.8 1.6-2.1 2.9l-1.2 3.8-31.8 13.9c-.7.4-1.1 1.1-1.1 1.9v9.8c0 1.2.9 2.1 2.1 2.1h107.8c1.2 0 2.1-.9 2.1-2.1v-9.8c0-.8-.4-1.5-1.1-1.9" fill="#cacaca"/></svg>