<svg xmlns="http://www.w3.org/2000/svg" width="24" height="24" viewBox="0 0 24 24"><defs><style>.a,.b{fill:#006ce0;}.b{stroke-miterlimit:10;}.c{fill:none;}.d,.e{stroke:none;}.e{fill:#fff;}</style></defs><g transform="translate(323.116 -467.435)"><path class="a" d="M-307.222,483.935h3.607c0-1.806-1.368-3-3.422-3a4.294,4.294,0,0,0-1.578.279" transform="translate(-0.001)"/><path class="a" d="M-304.615,477.435a2,2,0,0,0-2-2,2,2,0,0,0-2,2,2,2,0,0,0,2,2A2,2,0,0,0-304.615,477.435Z"/><path class="a" d="M-315.124,483.935h-3.606c0-1.806,1.369-3,3.421-3a4.306,4.306,0,0,1,1.579.279" transform="translate(0.114)"/><path class="a" d="M-317.615,477.435a2,2,0,0,1,2-2,2,2,0,0,1,2,2,2,2,0,0,1-2,2A2,2,0,0,1-317.615,477.435Z"/><g class="b" transform="translate(0.064)"><path class="d" d="M -311.1780090332031 479.43701171875 C -312.8333129882812 479.43701171875 -314.1799926757812 478.0903015136719 -314.1799926757812 476.4349975585938 C -314.1799926757812 474.7807922363281 -312.8333129882812 473.4349975585938 -311.1780090332031 473.4349975585938 C -309.52490234375 473.4349975585938 -308.1799926757812 474.7807922363281 -308.1799926757812 476.4349975585938 C -308.1799926757812 478.0903015136719 -309.52490234375 479.43701171875 -311.1780090332031 479.43701171875 Z"/><path class="e" d="M -311.1780090332031 473.9349975585938 C -312.5599975585938 473.9349975585938 -313.6799926757812 475.0549926757812 -313.6799926757812 476.4349975585938 C -313.6799926757812 477.8160095214844 -312.5599975585938 478.93701171875 -311.1780090332031 478.93701171875 C -309.7969970703125 478.93701171875 -308.6799926757812 477.8160095214844 -308.6799926757812 476.4349975585938 C -308.6799926757812 475.0549926757812 -309.7969970703125 473.9349975585938 -311.1780090332031 473.9349975585938 M -311.1780090332031 472.9349975585938 C -309.2492065429688 472.9349975585938 -307.6799926757812 474.5050964355469 -307.6799926757812 476.4349975585938 C -307.6799926757812 478.3660278320312 -309.2492065429688 479.93701171875 -311.1780090332031 479.93701171875 C -313.1090087890625 479.93701171875 -314.6799926757812 478.3660278320312 -314.6799926757812 476.4349975585938 C -314.6799926757812 474.5050964355469 -313.1090087890625 472.9349975585938 -311.1780090332031 472.9349975585938 Z"/></g><g class="b" transform="translate(0.062)"><path class="d" d="M -306.1780090332031 485.4349975585938 L -306.6780090332031 485.4349975585938 L -315.6780090332031 485.4349975585938 L -316.1780090332031 485.4349975585938 L -316.1780090332031 484.9349975585938 C -316.1780090332031 482.243408203125 -314.1686706542969 480.4349975585938 -311.1780090332031 480.4349975585938 C -308.1873474121094 480.4349975585938 -306.1780090332031 482.243408203125 -306.1780090332031 484.9349975585938 L -306.1780090332031 485.4349975585938 Z"/><path class="e" d="M -306.6780090332031 484.9349975585938 C -306.6780090332031 482.5260009765625 -308.4779968261719 480.9349975585938 -311.1780090332031 480.9349975585938 C -313.8789978027344 480.9349975585938 -315.6780090332031 482.5260009765625 -315.6780090332031 484.9349975585938 L -306.6780090332031 484.9349975585938 M -305.6780090332031 485.9349975585938 L -306.6780090332031 485.9349975585938 L -315.6780090332031 485.9349975585938 L -316.6780090332031 485.9349975585938 L -316.6780090332031 484.9349975585938 C -316.6780090332031 483.48095703125 -316.1192626953125 482.1842651367188 -315.1047058105469 481.2837524414062 C -314.1106262207031 480.4013977050781 -312.7527770996094 479.9349975585938 -311.1780090332031 479.9349975585938 C -309.6036376953125 479.9349975585938 -308.2459411621094 480.4013671875 -307.2517395019531 481.28369140625 C -306.2369079589844 482.1842956542969 -305.6780090332031 483.4810485839844 -305.6780090332031 484.9349975585938 L -305.6780090332031 485.9349975585938 Z"/></g></g><rect class="c" width="24" height="24"/></svg>