<svg width="16" height="16" viewBox="0 0 16 16" fill="none" xmlns="http://www.w3.org/2000/svg">
<path fill-rule="evenodd" clip-rule="evenodd" d="M8 3.37719C10.5531 3.37719 12.6228 5.44689 12.6228 8C12.6228 10.5531 10.5531 12.6228 8 12.6228C5.44689 12.6228 3.37719 10.5531 3.37719 8C3.37719 5.44689 5.44689 3.37719 8 3.37719ZM14 8C14 4.68629 11.3137 2 8 2C4.68629 2 2 4.68629 2 8C2 11.3137 4.68629 14 8 14C11.3137 14 14 11.3137 14 8Z" fill="#0D2E4E"/>
<path d="M10 8L7 9.73205L7 6.26795L10 8Z" fill="#0D2E4E"/>
</svg>
