<svg xmlns="http://www.w3.org/2000/svg" viewBox="0 0 38 79" width="38" height="79" enable-background="new 0 0 38 79"><g fill="none" stroke-miterlimit="10"><circle cx="19" cy="60" r="18.5" stroke="#f49d56"/><circle cx="19" cy="19" r="18.5" stroke="#c8c8c8"/></g><g fill="#aeaeae"><path d="M19.9,9v2.2V12l0.8,0.2c0.7,0.2,1.4,0.4,2,0.8l0.7,0.4l0.6-0.6l1.6-1.6l1.3,1.3l-1.6,1.6l-0.6,0.6l0.4,0.7
			c0.4,0.6,0.6,1.3,0.8,2l0.2,0.8l0.8,0l2.2,0v1.8h-2.2H26l-0.2,0.8c-0.2,0.7-0.4,1.3-0.8,2l-0.4,0.7l0.6,0.6l1.6,1.6l-1.3,1.3
			l-1.6-1.6l-0.6-0.6L22.6,25c-0.6,0.4-1.3,0.6-2,0.8L19.9,26v0.8V29l-1.8,0v-2.2V26l-0.8-0.2c-0.7-0.2-1.3-0.4-2-0.8l-0.7-0.4
			l-0.6,0.6l-1.6,1.6l-1.3-1.3l1.6-1.6l0.6-0.6L13,22.6c-0.4-0.6-0.6-1.3-0.8-2L12,19.9l-0.8,0l-2.2,0v-1.8h2.2H12l0.2-0.8
			c0.2-0.7,0.4-1.4,0.8-2l0.4-0.7l-0.6-0.6l-1.6-1.6l1.3-1.3l1.6,1.6l0.6,0.6l0.7-0.4c0.6-0.4,1.3-0.6,2-0.8l0.8-0.2v-0.8V9H19.9
			 M20.9,8h-3.8v3.2c-0.8,0.2-1.6,0.5-2.2,0.9l-2.3-2.3l-2.7,2.7l2.3,2.3c-0.4,0.7-0.7,1.4-0.9,2.2H8v3.8l3.2,0
			c0.2,0.8,0.5,1.6,0.9,2.2l-2.3,2.3l2.7,2.7l2.3-2.3c0.7,0.4,1.4,0.7,2.2,0.9V30l3.8,0v-3.2c0.8-0.2,1.6-0.5,2.2-0.9l2.3,2.3
			l2.7-2.7l-2.3-2.3c0.4-0.7,0.7-1.4,0.9-2.2H30v-3.8l-3.2,0c-0.2-0.8-0.5-1.6-0.9-2.2l2.3-2.3l-2.7-2.7l-2.3,2.3
			c-0.7-0.4-1.4-0.7-2.2-0.9V8L20.9,8z"/><path d="M19,16.6c1.3,0,2.4,1.1,2.4,2.4s-1.1,2.4-2.4,2.4s-2.4-1.1-2.4-2.4S17.7,16.6,19,16.6 M19,15.6
			c-1.9,0-3.4,1.5-3.4,3.4s1.5,3.4,3.4,3.4c1.9,0,3.4-1.5,3.4-3.4S20.9,15.6,19,15.6L19,15.6z"/></g><g fill="#f49d56"><path d="M19.9,50v2.2V53l0.8,0.2c0.7,0.2,1.4,0.4,2,0.8l0.7,0.4l0.6-0.6l1.6-1.6l1.3,1.3l-1.6,1.6l-0.6,0.6l0.4,0.7
			c0.4,0.6,0.6,1.3,0.8,2l0.2,0.8l0.8,0l2.2,0v1.8h-2.2H26l-0.2,0.8c-0.2,0.7-0.4,1.3-0.8,2l-0.4,0.7l0.6,0.6l1.6,1.6l-1.3,1.3
			l-1.6-1.6l-0.6-0.6L22.6,66c-0.6,0.4-1.3,0.6-2,0.8L19.9,67v0.8V70l-1.8,0v-2.2V67l-0.8-0.2c-0.7-0.2-1.3-0.4-2-0.8l-0.7-0.4
			l-0.6,0.6l-1.6,1.6l-1.3-1.3l1.6-1.6l0.6-0.6L13,63.6c-0.4-0.6-0.6-1.3-0.8-2L12,60.9l-0.8,0l-2.2,0v-1.8h2.2H12l0.2-0.8
			c0.2-0.7,0.4-1.4,0.8-2l0.4-0.7l-0.6-0.6l-1.6-1.6l1.3-1.3l1.6,1.6l0.6,0.6l0.7-0.4c0.6-0.4,1.3-0.6,2-0.8l0.8-0.2v-0.8V50H19.9
			 M20.9,49h-3.8v3.2c-0.8,0.2-1.6,0.5-2.2,0.9l-2.3-2.3l-2.7,2.7l2.3,2.3c-0.4,0.7-0.7,1.4-0.9,2.2H8v3.8l3.2,0
			c0.2,0.8,0.5,1.6,0.9,2.2l-2.3,2.3l2.7,2.7l2.3-2.3c0.7,0.4,1.4,0.7,2.2,0.9V71l3.8,0v-3.2c0.8-0.2,1.6-0.5,2.2-0.9l2.3,2.3
			l2.7-2.7l-2.3-2.3c0.4-0.7,0.7-1.4,0.9-2.2H30v-3.8l-3.2,0c-0.2-0.8-0.5-1.6-0.9-2.2l2.3-2.3l-2.7-2.7l-2.3,2.3
			c-0.7-0.4-1.4-0.7-2.2-0.9V49L20.9,49z"/><path d="M19,57.6c1.3,0,2.4,1.1,2.4,2.4s-1.1,2.4-2.4,2.4s-2.4-1.1-2.4-2.4S17.7,57.6,19,57.6 M19,56.6
			c-1.9,0-3.4,1.5-3.4,3.4s1.5,3.4,3.4,3.4c1.9,0,3.4-1.5,3.4-3.4S20.9,56.6,19,56.6L19,56.6z"/></g></svg>