<svg xmlns="http://www.w3.org/2000/svg" viewBox="-7 9 16 16" enable-background="new -7 9 16 16"><path d="M-7,17L-7,17c0,4.4,3.6,8,8,8h0c4.4,0,8-3.6,8-8v0c0-4.4-3.6-8-8-8h0C-3.4,9-7,12.6-7,17z M5,21.4
	c-0.2,0.3-0.7,0.7-3.2-0.7c-1.1-0.6-2-1.4-2.5-1.9l0,0l-0.1-0.1l0,0c-0.5-0.5-1.3-1.5-1.9-2.5c-1.5-2.6-1.1-2.9-0.7-3.2
	c0.4-0.4,1.3-1.3,2-0.5c1.2,1.4,1.3,2.1,0.9,2.4c-0.2,0.2-0.2,0.3-0.3,0.5c-0.5,0.4-0.3,1.2,0.7,2.3L0.1,18c0.8,0.8,1.9,1.3,2.3,0.8
	c0.2-0.2,0.2-0.3,0.4-0.5c0.4-0.4,0.8-0.2,2.6,1.1C6.3,20,5.3,21,5,21.4z" fill="#90de1d"/></svg>