<svg xmlns="http://www.w3.org/2000/svg" viewBox="0 0 134 139" enable-background="new 0 0 134 139"><g fill="#64b8df"><path d="M4,138c11.1-7.3,16.9-23.9,17.1-24.7l0.2-0.6l-0.4-0.4C9,100,2.4,83.7,2.4,66.6C2.4,30.4,31.7,1,67.7,1
		S133,30.4,133,66.6c0,36.2-29.3,65.6-65.3,65.6c-7.7,0-15.3-1.4-22.5-4l-0.6-0.2l-0.4,0.4c-0.5,0.4-0.9,0.7-1.5,1.1
		C29.6,137.3,19.5,137.9,4,138z" opacity="0.1"/><path d="M67.7,2C103.2,2,132,31,132,66.6c0,35.6-28.8,64.6-64.3,64.6c-7.6,0-15.1-1.3-22.2-4l-1.1-0.4l-0.9,0.8
		c-0.4,0.4-0.8,0.7-1.3,1c-12,7.2-21.5,8.2-35.2,8.4c9.8-8.1,14.8-22.6,15-23.4l0.4-1.2l-0.8-0.9C9.9,99.5,3.4,83.5,3.4,66.6
		C3.4,31,32.3,2,67.7,2 M67.7,0C31.1,0,1.4,29.8,1.4,66.6c0,18,7.1,34.4,18.7,46.4c-0.1,0.4-7.1,20.5-20.2,26
		c17.8,0,28.8,0,43.2-8.7c0.7-0.4,1.2-0.8,1.6-1.2c7.1,2.6,14.8,4.1,22.9,4.1c36.6,0,66.3-29.8,66.3-66.6C134,29.8,104.3,0,67.7,0
		L67.7,0z"/></g><g fill="none" stroke="#64b8df" stroke-width="2.4" stroke-miterlimit="10"><path d="M58.4,45.4c-5.8,2.3-10.5,6.9-12.9,12.7"/><path d="M88.5,58c-2.4-5.8-7.1-10.4-12.9-12.7"/><path d="M 67 56.7 67 69.3 74.6 76.9"/></g><path d="M67,52.3c9.3,0,16.8,7.6,16.8,16.8C83.8,78.4,76.3,86,67,86s-16.8-7.6-16.8-16.8C50.2,59.8,57.7,52.3,67,52.3
			 M67,49.9c-10.6,0-19.2,8.6-19.2,19.2c0,10.6,8.6,19.2,19.2,19.2c10.6,0,19.2-8.6,19.2-19.2C86.2,58.5,77.6,49.9,67,49.9L67,49.9z
			" fill="#64b8df"/></svg>