<svg xmlns="http://www.w3.org/2000/svg" viewBox="0 0 16 16" enable-background="new 0 0 16 16"><path d="m1.9 14.1c-.5-.5-.5-1.4 0-1.9l7.3-7.3c.5-.5 1.4-.5 1.9 0 .5.5.5 1.4 0 1.9l-7.3 7.3c-.5.5-1.4.5-1.9 0z" fill="none" stroke="#4e7bd8" stroke-miterlimit="10"/><g fill="#4e7bd8"><path d="m1.9 14.1c-.5-.5-.5-1.4 0-1.9l5.2-5.2 1.9 1.9-5.2 5.2c-.5.5-1.4.5-1.9 0"/><path d="m14.1 3l-.6 2-.5-2-2-.5 2-.5.5-2 .6 1.9 1.9.6-1.9.5"/><path d="M7 3 6.5 4.8 6 3 4.3 2.5 6 2 6.5.3 7 2 8.8 2.5 7 3"/><path d="m14 10l-.5 1.8-.5-1.8-1.7-.5 1.7-.5.5-1.7.5 1.7 1.8.5-1.8.5"/></g></svg>