<?xml version="1.0" encoding="utf-8"?>
<!-- Generator: Adobe Illustrator 20.0.0, SVG Export Plug-In . SVG Version: 6.00 Build 0)  -->
<svg version="1.1" id="Layer_1" xmlns="http://www.w3.org/2000/svg" xmlns:xlink="http://www.w3.org/1999/xlink" x="0px" y="0px"
	 viewBox="0 0 16 16" style="enable-background:new 0 0 16 16;" xml:space="preserve">
<style type="text/css">
	.st0{fill:#787878;}
	.st1{fill:none;stroke:#787878;stroke-miterlimit:10;}
	.st2{fill:none;}
</style>
<g>
	<path class="st0" d="M10.3,2.5c0.1,0,0.2,0,0.2,0L11.4,3c0.2,0.1,0.3,0.3,0.3,0.4c0,0.1,0,0.2-0.1,0.3l-0.2,0.3l-0.3,0.6l0.4,0.5
		c0.3,0.4,0.5,0.7,0.7,1.2L12.4,7h0.7h0.4C13.8,7,14,7.2,14,7.5v1C14,8.8,13.8,9,13.5,9h-0.4h-0.7l-0.2,0.6
		c-0.2,0.4-0.4,0.8-0.7,1.2l-0.4,0.5l0.3,0.6l0.2,0.4c0,0.1,0.1,0.2,0.1,0.3c0,0.2-0.1,0.3-0.2,0.4l-0.8,0.5c-0.1,0-0.2,0.1-0.2,0.1
		c-0.2,0-0.3-0.1-0.4-0.2l-0.2-0.3l-0.3-0.6l-0.7,0.1c-0.2,0-0.4,0.1-0.7,0.1c-0.2,0-0.4,0-0.7-0.1l-0.7-0.1l-0.3,0.6l-0.2,0.3
		c-0.1,0.2-0.3,0.2-0.4,0.2c-0.1,0-0.2,0-0.2,0L4.7,13c-0.2-0.1-0.3-0.3-0.3-0.4c0-0.1,0-0.2,0.1-0.3l0.2-0.3L5,11.3l-0.4-0.5
		c-0.3-0.4-0.5-0.7-0.7-1.2L3.7,9H3H2.6C2.3,9,2.1,8.8,2.1,8.5v-1C2.1,7.2,2.3,7,2.6,7H3h0.7l0.2-0.6c0.2-0.4,0.4-0.8,0.7-1.2L5,4.7
		L4.7,4.1L4.5,3.7c0-0.1-0.1-0.2-0.1-0.3c0-0.2,0.1-0.3,0.2-0.4l0.8-0.5c0.1,0,0.2-0.1,0.2-0.1c0.2,0,0.3,0.1,0.4,0.2l0.2,0.3
		l0.3,0.6l0.7-0.1c0.2,0,0.4-0.1,0.7-0.1c0.2,0,0.4,0,0.7,0.1l0.7,0.1l0.3-0.6l0.2-0.3C10,2.6,10.2,2.5,10.3,2.5 M10.3,1.5
		c-0.5,0-1,0.3-1.3,0.7L8.9,2.6C8.6,2.5,8.3,2.5,8,2.5s-0.5,0-0.8,0.1L7,2.2C6.8,1.8,6.3,1.5,5.8,1.5C5.5,1.5,5.3,1.6,5,1.7L4.2,2.2
		C3.7,2.4,3.4,2.9,3.4,3.5c0,0.3,0.1,0.5,0.2,0.8l0.2,0.3C3.5,5,3.2,5.5,3,6H2.6C1.8,6,1.1,6.7,1.1,7.5v1c0,0.8,0.7,1.5,1.5,1.5H3
		c0.2,0.5,0.5,1,0.8,1.4l-0.2,0.3c-0.1,0.2-0.2,0.5-0.2,0.8c0,0.5,0.3,1,0.8,1.3L5,14.3c0.2,0.1,0.5,0.2,0.7,0.2
		c0.5,0,1-0.3,1.3-0.7l0.2-0.3c0.3,0,0.5,0.1,0.8,0.1c0.3,0,0.5,0,0.8-0.1l0.2,0.3c0.3,0.5,0.8,0.7,1.3,0.7c0.2,0,0.5-0.1,0.7-0.2
		l0.9-0.5c0.5-0.3,0.8-0.8,0.8-1.3c0-0.3-0.1-0.5-0.2-0.8l-0.2-0.3c0.3-0.4,0.6-0.9,0.8-1.4h0.4c0.8,0,1.5-0.7,1.5-1.5v-1
		C15,6.7,14.3,6,13.5,6h-0.4c-0.2-0.5-0.5-1-0.8-1.4l0.2-0.3c0.1-0.2,0.2-0.5,0.2-0.8c0-0.5-0.3-1-0.8-1.3l-0.9-0.5
		C10.8,1.6,10.6,1.5,10.3,1.5L10.3,1.5z"/>
</g>
<circle id="Ellipse_128" class="st1" cx="8" cy="8" r="2"/>
<rect id="Rectangle_530" class="st2" width="16" height="16"/>
</svg>
