<svg width="16" height="48" viewBox="0 0 16 48" fill="none" xmlns="http://www.w3.org/2000/svg">
<path d="M5 4.58333C5 4.26117 5.25584 4 5.57143 4H9.54858C9.86417 4 10.12 4.26117 10.12 4.58333C10.12 4.90771 9.85705 5.17067 9.53267 5.17067H8.45365C7.77695 5.17067 7.22838 5.7401 7.22838 6.44252V8.19159C7.22838 8.4487 7.12936 8.69593 6.95186 8.88194L6.50754 9.34759C6.40021 9.46007 6.21331 9.3825 6.21331 9.22548V8.96855C6.21331 8.61405 5.92593 8.32667 5.57143 8.32667C5.25584 8.32667 5 8.0655 5 7.74334V4.58333Z" fill="#0D2E4E"/>
<path d="M12.4286 5.78021C12.7442 5.78021 13 6.04138 13 6.36354V9.38358C13 9.70575 12.7442 9.96691 12.4286 9.96691C12.0741 9.96691 11.7867 10.2543 11.7867 10.6088V10.8247C11.7867 10.9799 11.6033 11.0583 11.4949 10.9493L10.8115 10.2619C10.6238 10.0731 10.3686 9.96691 10.1024 9.96691H8.45142C8.13583 9.96691 7.87999 9.70575 7.87999 9.38358V6.36354C7.87999 6.04138 8.13583 5.78021 8.45142 5.78021H12.4286Z" fill="#0D2E4E"/>
<path d="M5 20.5833C5 20.2612 5.25584 20 5.57143 20H9.54858C9.86417 20 10.12 20.2612 10.12 20.5833C10.12 20.9077 9.85705 21.1707 9.53267 21.1707H8.45365C7.77695 21.1707 7.22838 21.7401 7.22838 22.4425V24.1916C7.22838 24.4487 7.12936 24.6959 6.95186 24.8819L6.50754 25.3476C6.40021 25.4601 6.21331 25.3825 6.21331 25.2255V24.9685C6.21331 24.614 5.92593 24.3267 5.57143 24.3267C5.25584 24.3267 5 24.0655 5 23.7433V20.5833Z" fill="#0057F9"/>
<path d="M12.4286 21.7802C12.7442 21.7802 13 22.0414 13 22.3635V25.3836C13 25.7057 12.7442 25.9669 12.4286 25.9669C12.0741 25.9669 11.7867 26.2543 11.7867 26.6088V26.8247C11.7867 26.9799 11.6033 27.0583 11.4949 26.9493L10.8115 26.2619C10.6238 26.0731 10.3686 25.9669 10.1024 25.9669H8.45142C8.13583 25.9669 7.87999 25.7057 7.87999 25.3836V22.3635C7.87999 22.0414 8.13583 21.7802 8.45142 21.7802H12.4286Z" fill="#0057F9"/>
<path d="M5 36.5833C5 36.2612 5.25584 36 5.57143 36H9.54858C9.86417 36 10.12 36.2612 10.12 36.5833C10.12 36.9077 9.85705 37.1707 9.53267 37.1707H8.45365C7.77695 37.1707 7.22838 37.7401 7.22838 38.4425V40.1916C7.22838 40.4487 7.12936 40.6959 6.95186 40.8819L6.50754 41.3476C6.40021 41.4601 6.21331 41.3825 6.21331 41.2255V40.9685C6.21331 40.614 5.92593 40.3267 5.57143 40.3267C5.25584 40.3267 5 40.0655 5 39.7433V36.5833Z" fill="#004EE0"/>
<path d="M12.4286 37.7802C12.7442 37.7802 13 38.0414 13 38.3635V41.3836C13 41.7057 12.7442 41.9669 12.4286 41.9669C12.0741 41.9669 11.7867 42.2543 11.7867 42.6088V42.8247C11.7867 42.9799 11.6033 43.0583 11.4949 42.9493L10.8115 42.2619C10.6238 42.0731 10.3686 41.9669 10.1024 41.9669H8.45142C8.13583 41.9669 7.87999 41.7057 7.87999 41.3836V38.3635C7.87999 38.0414 8.13583 37.7802 8.45142 37.7802H12.4286Z" fill="#004EE0"/>
</svg>
