<svg width="33" height="32" viewBox="0 0 33 32" fill="none" xmlns="http://www.w3.org/2000/svg">
<path d="M15.1153 7.81456C15.6821 7.37706 16.4714 7.37706 17.0383 7.81456L27.5242 15.9077C28.0666 16.3263 28.8446 16.2245 29.2618 15.6803C29.679 15.1361 29.5776 14.3555 29.0352 13.9369L18.5492 5.84375C17.0916 4.71875 15.062 4.71875 13.6043 5.84375L3.11842 13.9369C2.57602 14.3555 2.47454 15.1361 2.89178 15.6803C3.30901 16.2245 4.08696 16.3263 4.62936 15.9077L15.1153 7.81456Z" fill="white"/>
<path d="M24.7542 15.6796C25.2024 16.037 25.4636 16.58 25.4636 17.1544V25.1163C25.4636 26.1567 24.6231 27 23.5863 27H20.7702C20.2518 27 19.8315 26.5783 19.8315 26.0582V20.5734C19.8315 19.533 18.991 18.6897 17.9542 18.6897H14.1994C13.1626 18.6897 12.3221 19.533 12.3221 20.5734V26.0582C12.3221 26.5783 11.9018 27 11.3834 27H8.56731C7.53047 27 6.68995 26.1567 6.68995 25.1163V17.1544C6.68995 16.58 6.95114 16.037 7.39933 15.6796L14.9088 9.69225C15.5927 9.14701 16.5609 9.14701 17.2448 9.69225L24.7542 15.6796Z" fill="white"/>
</svg>
