<svg xmlns="http://www.w3.org/2000/svg" viewBox="0 0 36 36" enable-background="new 0 0 36 36" width="36" height="36"><g fill="#8b8fe9"><path d="m14 23.3l-10-2.5v5l13 3.2v-9z"/><path d="M13.6 22 .6 18.8 4 15 17 18.2z"/><path d="m21 23.3l10-2.5v5l-13 3.2v-9z"/><path d="m21.4 22l13-3.2-3.4-3.8-13 3.2z"/><path d="m6 7v7.3l11.5 2.9 11.5-2.9v-7.3c0-1.1-.9-2-2-2h-19c-1.1 0-2 .9-2 2m8.1 6.2c-.1.2-.3.4-.6.6-.2.2-.5.3-.9.3-.3.1-.7.1-1.1.1-.2 0-.3 0-.5 0-.2 0-.3 0-.5 0-.2 0-.3 0-.4-.1-.1-.1-.2-.1-.4-.1h-.2v-1.2l.3.1c.2.1.5.1.8.2.3 0 .6.1 1 .1.3 0 .5 0 .7-.1.2 0 .3-.1.4-.2.1-.1.2-.1.2-.2 0-.1.1-.2.1-.3 0-.1 0-.2-.1-.3-.1-.1-.2-.2-.3-.3-.1-.1-.3-.2-.5-.2l-.6-.2c-.3-.1-.5-.2-.7-.3-.2-.1-.4-.2-.6-.3-.2-.1-.3-.3-.4-.5-.1-.2-.2-.4-.2-.7 0-.2.1-.5.2-.7.1-.2.3-.4.5-.6.2-.2.5-.3.8-.4.3-.1.7-.1 1.1-.1.1 0 .2 0 .4 0 .1 0 .3 0 .4 0 .1 0 .3 0 .4.1.1 0 .2 0 .4.1h.2v1.1l-.3-.1c-.3 0-.5 0-.8-.1-.2 0-.5 0-.7 0-.5 0-.8.1-1 .2-.1.1-.2.2-.2.4 0 .1 0 .2.1.3.1.1.2.2.3.3.1.1.3.2.5.2l.6.2c.2.1.4.2.6.3.2.1.4.2.6.4.2.1.3.3.4.5.1.2.2.4.2.7 0 .2-.1.5-.2.8m5.9-1.4c0 .3-.1.5-.2.8-.1.2-.3.5-.4.7-.2.2-.4.4-.7.5-.3.1-.6.2-.9.3-.3.1-.7.1-1.1.1h-1.6v-6.3h1.8c1 0 1.8.3 2.4.8.5.5.8 1.3.8 2.3 0 .2 0 .5-.1.8m4.2 2.3l-2.1-2.5v2.5h-1.3v-6.2h1.3v2.4l2-2.4h1.6l-2.7 3 2.8 3.3h-1.6z"/><path d="m18.3 9.4c-.2-.2-.3-.3-.6-.3-.2-.1-.5-.1-.8-.1h-.5v4h.4c1.3 0 2-.6 2-2 0-.4 0-.7-.1-1-.1-.3-.2-.5-.4-.6"/><path d="M5 10.1.6 11.2 4 15 5 14.8z"/><path d="m30 10.1v4.7l1 .2 3.4-3.8z"/></g></svg>