<svg xmlns="http://www.w3.org/2000/svg" viewBox="0 0 16 16" enable-background="new 0 0 16 16"><g fill="#f66745"><path d="m0 1v12h5.2l-.2-1c0-.2 0-.3 0-.5s0-.3 0-.5l.1-1h1.7l-1.2-1.2.6-.7c.3-.3.5-.6.9-.9l.7-.6 1.2 1.2v-1.7l1-.1c.2 0 .3 0 .5 0s.3 0 .5 0v-5h-11m6 6h-4v-1h4v1m3-3h-7v-1h7v1"/><path d="m8.1 12c.1.3.2.6.4.9l-1.5 1.4c.2.3.4.5.7.7l1.4-1.4c.3.2.6.3.9.4v2h1v-2c.3-.1.6-.2.9-.4l1.4 1.4c.3-.2.5-.4.7-.7l-1.4-1.4c.2-.3.3-.6.4-.9h2v-1h-2.1c-.1-.3-.2-.6-.4-.9l1.4-1.4c-.2-.3-.4-.5-.7-.7l-1.4 1.4c-.3-.2-.6-.3-.9-.4v-2c-.2 0-.3-.1-.5-.1s-.3 0-.5.1v2c-.3.1-.6.2-.9.4l-1.3-1.4c-.3.2-.5.4-.7.7l1.4 1.4c-.2.3-.3.6-.4.9h-2c0 .2 0 .3 0 .5s0 .3.1.5h2m2.4-2c.8 0 1.5.7 1.5 1.5s-.7 1.5-1.5 1.5-1.5-.7-1.5-1.5.7-1.5 1.5-1.5"/></g></svg>