<svg xmlns="http://www.w3.org/2000/svg" viewBox="0 0 38 79" width="38" height="79" enable-background="new 0 0 38 79"><path d="M24.5,12.8c1.5,0,2.6,1.2,2.6,2.6c0,1.5-1.2,2.7-2.6,2.7s-2.6-1.2-2.6-2.7C21.9,14,23,12.8,24.5,12.8 M24.5,12
		c-1.9,0-3.5,1.5-3.5,3.4c0,1.9,1.5,3.5,3.5,3.5c1.9,0,3.5-1.5,3.5-3.5C28,13.6,26.4,12,24.5,12L24.5,12z" fill="#aeaeae"/><path d="M24.1,25.5c0,0,4.4,0,5.4,0c0-3.5-2.2-5.1-5-5.1c-0.7,0-1.4,0.2-2.1,0.5" fill="none" stroke="#aeaeae" stroke-miterlimit="10"/><g fill="#aeaeae"><path d="M15,20c3.1,0,5.7,2.3,6.1,5.2H8.9C9.3,22.3,11.9,20,15,20 M15,19.2c-3.9,0-7,3.1-7,6.8c2.5,0,11.3,0,14,0
				C22,22.2,18.9,19.2,15,19.2L15,19.2z"/><path d="M15,10.8c1.8,0,3.2,1.4,3.2,3.2c0,1.8-1.4,3.2-3.2,3.2c-1.8,0-3.2-1.4-3.2-3.2C11.8,12.2,13.3,10.8,15,10.8
				 M15,10c-2.2,0-4,1.8-4,4c0,2.2,1.8,4,4,4c2.2,0,4-1.8,4-4C19,11.8,17.2,10,15,10L15,10z"/></g><path d="M24.5,54c1.4,0,2.5,1.1,2.5,2.4c0,1.4-1.1,2.5-2.5,2.5S22,57.8,22,56.5C22,55.1,23.1,54,24.5,54 M24.5,53
			c-1.9,0-3.5,1.5-3.5,3.4c0,1.9,1.5,3.5,3.5,3.5c1.9,0,3.5-1.5,3.5-3.5C28,54.6,26.4,53,24.5,53L24.5,53z" fill="#f49d56"/><path d="M24.1,66.5c0,0,4.4,0,5.4,0c0-3.5-2.2-5.1-5-5.1c-0.7,0-1.4,0.2-2.1,0.5" fill="none" stroke="#f49d56" stroke-miterlimit="10"/><g fill="#f49d56"><path d="M15,61.2c3,0,5.4,2.1,5.9,4.8H9.1C9.6,63.3,12.1,61.2,15,61.2 M15,60.2c-3.9,0-7,3.1-7,6.8
				c2.5,0,11.3,0,14,0C22,63.2,18.9,60.2,15,60.2L15,60.2z"/><path d="M15,52c1.7,0,3,1.3,3,3c0,1.7-1.3,3-3,3c-1.7,0-3-1.3-3-3C12,53.3,13.4,52,15,52 M15,51c-2.2,0-4,1.8-4,4
				c0,2.2,1.8,4,4,4c2.2,0,4-1.8,4-4C19,52.8,17.2,51,15,51L15,51z"/></g><g fill="none" stroke-miterlimit="10"><circle cx="19" cy="60" r="18.5" stroke="#f49d56"/><circle cx="19" cy="19" r="18.5" stroke="#c8c8c8"/></g></svg>