<svg width="17" height="17" viewBox="0 0 17 17" fill="none" xmlns="http://www.w3.org/2000/svg">
<path d="M16.3268 16.0922L8.90387 1.30918C8.85294 1.21485 8.77959 1.13649 8.69122 1.08201C8.60285 1.02753 8.50259 0.99884 8.40052 0.99884C8.29845 0.99884 8.19818 1.02753 8.10981 1.08201C8.02144 1.13649 7.94809 1.21485 7.89716 1.30918L0.475104 16.0922C0.425586 16.1844 0.39988 16.2888 0.400612 16.395C0.401344 16.5012 0.428488 16.6053 0.479271 16.6966C0.583443 16.8842 0.77262 16.9988 0.97763 16.9988H15.8234C15.9239 16.999 16.0228 16.9712 16.1102 16.9182C16.1975 16.8652 16.2705 16.7889 16.3218 16.6966C16.3725 16.6053 16.3997 16.5013 16.4006 16.3952C16.4015 16.289 16.376 16.1845 16.3268 16.0922V16.0922ZM9.23389 15.2212H7.56714V13.4435H9.23389V15.2212ZM9.23389 12.1103H7.56714V6.33286H9.23389V12.1103Z" fill="#FF991F"/>
</svg>
