<svg xmlns="http://www.w3.org/2000/svg" viewBox="0 0 38 79" width="38" height="79" enable-background="new 0 0 38 79"><path d="M18.6,25c1.1,1.5,2.9,2.5,4.9,2.5c3.3,0,6-2.7,6-6c0-3.3-2.7-6-6-6c-3.3,0-6,2.7-6,6" fill="none" stroke="#aeaeae" stroke-width="0.8" stroke-miterlimit="10"/><path fill="#aeaeae" d="M 16.1 21.1 17.5 23.5 18.9 21.1"/><g fill="none" stroke-miterlimit="10"><g stroke="#aeaeae"><path d="M 23.5 17.1 23.5 21.1 25.7 23.6"/><path d="M 11,12.5 27,12.5"/><path d="M 11,16.5 17,16.5"/><path d="M 11,20.5 15,20.5"/><path d="M 11,24.5 16,24.5"/></g><path d="M18.6,66c1.1,1.5,2.9,2.5,4.9,2.5c3.3,0,6-2.7,6-6c0-3.3-2.7-6-6-6c-3.3,0-6,2.7-6,6" stroke="#ed9c4f" stroke-width="0.8"/></g><path fill="#ed9c4f" d="M 16.1 62.1 17.5 64.5 18.9 62.1"/><g fill="none" stroke-miterlimit="10"><g stroke="#ed9c4f"><path d="M 23.5 58.1 23.5 62.1 25.7 64.6"/><path d="M 11,53.5 27,53.5"/><path d="M 11,57.5 17,57.5"/><path d="M 11,61.5 15,61.5"/><path d="M 11,65.5 16,65.5"/></g><circle cx="19" cy="60" r="18.5" stroke="#f49d56"/><circle cx="19" cy="19" r="18.5" stroke="#c8c8c8"/></g></svg>