<svg xmlns="http://www.w3.org/2000/svg" viewBox="0 0 42 39" enable-background="new 0 0 42 39" width="42" height="39"><g fill="#ac73b8"><path d="M32,12H10L8,35h26L32,12z M15,18c-1.1,0-2-0.9-2-2c0-1.1,0.9-2,2-2s2,0.9,2,2C17,17.1,16.1,18,15,18z
	 M19,29v-7l6,3.5L19,29z M27,18c-1.1,0-2-0.9-2-2c0-1.1,0.9-2,2-2s2,0.9,2,2C29,17.1,28.1,18,27,18z"/><path d="M27,16.9c-0.5,0-0.8-0.4-0.8-0.9v-5.5c0-2.5-2.1-4.6-4.6-4.6h-1.1c-2.5,0-4.6,2.1-4.6,4.6V16
		c0,0.5-0.4,0.9-0.9,0.9s-0.9-0.4-0.9-0.9v-5.5c0-3.5,2.8-6.3,6.3-6.3h1.1c3.5,0,6.3,2.8,6.3,6.3V16C27.8,16.5,27.5,16.9,27,16.9z"/></g></svg>