<svg width="32" height="32" viewBox="0 0 32 32" fill="none" xmlns="http://www.w3.org/2000/svg">
<rect width="32" height="32" rx="4" fill="#FF4013"/>
<path d="M17.3248 12.0243C17.9548 11.9282 18.5986 11.9832 19.2031 12.1847C19.8077 12.3862 20.3557 12.7285 20.802 13.1833C21.2483 13.6382 21.5801 14.1926 21.7701 14.8009C21.9601 15.4092 22.0029 16.0539 21.8948 16.6819C21.7868 17.3099 21.5311 17.9033 21.1487 18.4131C20.8815 18.7693 20.9537 19.2747 21.31 19.5419C21.6662 19.8091 22.1716 19.7369 22.4388 19.3806C22.9744 18.6664 23.3327 17.8351 23.4841 16.9553C23.6354 16.0754 23.5755 15.1722 23.3094 14.3201C23.0432 13.4679 22.5783 12.6912 21.953 12.054C21.3277 11.4167 20.56 10.9372 19.713 10.6549C18.8661 10.3725 17.9642 10.2955 17.0816 10.4302C16.1991 10.5648 15.3611 10.9072 14.6369 11.4292C13.9597 11.9173 13.4 12.5494 12.9976 13.2791C12.8723 13.268 12.7465 13.2625 12.6205 13.2625L12.7874 13.7009C12.7874 13.701 12.7875 13.7008 12.7874 13.7009L12.6205 13.2625C11.5104 13.2626 10.4455 13.7036 9.66059 14.4886C8.87558 15.2736 8.43457 16.3383 8.43457 17.4485C8.43457 18.5586 8.87558 19.6233 9.66059 20.4083C10.4456 21.1933 11.5103 21.6344 12.6205 21.6344H14.0689C14.5142 21.6344 14.8752 21.2734 14.8752 20.8281C14.8752 20.3828 14.5142 20.0218 14.0689 20.0218H12.6205C11.938 20.0218 11.2834 19.7507 10.8008 19.2681C10.3183 18.7855 10.0471 18.1309 10.0471 17.4485C10.0471 16.766 10.3183 16.1114 10.8008 15.6288C11.2333 15.1964 11.8037 14.9338 12.4087 14.8838C12.3347 15.25 12.297 15.6239 12.297 16C12.297 16.4453 12.658 16.8063 13.1033 16.8063C13.5486 16.8063 13.9096 16.4453 13.9096 16C13.9096 15.3628 14.061 14.7347 14.3514 14.1674C14.6418 13.6002 15.0628 13.11 15.5798 12.7374C16.0967 12.3648 16.6948 12.1204 17.3248 12.0243Z" fill="white"/>
<path d="M18.2548 16C18.2548 15.5547 17.8938 15.1938 17.4485 15.1938C17.0032 15.1938 16.6422 15.5547 16.6422 16V18.8817L15.9727 18.2122C15.6579 17.8973 15.1474 17.8973 14.8325 18.2122C14.5176 18.527 14.5176 19.0375 14.8325 19.3524L16.8784 21.3983C17.1932 21.7132 17.7037 21.7132 18.0186 21.3983L20.0645 19.3524C20.3794 19.0375 20.3794 18.527 20.0645 18.2122C19.7496 17.8973 19.2391 17.8973 18.9242 18.2122L18.2548 18.8816V16Z" fill="white"/>
</svg>
