<svg xmlns="http://www.w3.org/2000/svg" viewBox="0 0 22 22" enable-background="new 0 0 22 22"><path fill="#02b3e9" d="m0 0h22v22h-22z"/><path d="m18.6 7.2c-.5.2-1 .4-1.6.4.6-.3 1-.9 1.2-1.5-.5.3-1.1.6-1.8.7-.5-.5-1.2-.9-2-.9-1.5 0-2.8 1.3-2.8 2.8 0 .2 0 .4.1.6-2.3-.1-4.3-1.2-5.7-2.9-.3.4-.4.9-.4 1.4 0 1 .5 1.8 1.2 2.3-.4 0-.8-.1-1.2-.3 0 1.4 1 2.5 2.2 2.7-.2.1-.5.1-.7.1-.2 0-.4 0-.5-.1.4 1.1 1.4 1.9 2.6 1.9-1 .7-2.2 1.2-3.5 1.2-.2 0-.4 0-.7 0 1.3.9 2.7 1.4 4.3 1.4 5.1 0 7.9-4.3 7.9-7.9 0-.1 0-.2 0-.4.6-.4 1.1-.9 1.4-1.5" fill="#fff"/></svg>