<?xml version="1.0" encoding="utf-8"?>
<!-- Generator: Adobe Illustrator 22.1.0, SVG Export Plug-In . SVG Version: 6.00 Build 0)  -->
<svg version="1.1" id="Layer_1" xmlns="http://www.w3.org/2000/svg" xmlns:xlink="http://www.w3.org/1999/xlink" x="0px" y="0px"
	 viewBox="0 0 40 40" style="enable-background:new 0 0 40 40;" xml:space="preserve">
<style type="text/css">
	.st0{fill:#6B79BB;}
	.st1{fill:#EE7E63;}
	.st2{fill:none;}
</style>
<g>
	<path class="st0" d="M25.5,12.4c0-3.5-2.9-6.4-6.4-6.4c-3.5,0-6.4,2.9-6.4,6.4c0,3.5,2.9,6.4,6.4,6.4C22.6,18.8,25.5,16,25.5,12.4z
		"/>
	<path class="st1" d="M18.9,26.3"/>
	<rect class="st2" width="40" height="40"/>
	<path class="st0" d="M37.9,25h-3c-0.2-1.4-0.6-2.6-1.2-3.5C35.5,22.1,37,23.3,37.9,25z M34,28.1c0,0.7,0,1.3-0.1,1.9h-4.5
		c-0.1-0.6-0.1-1.2-0.1-1.9c0-0.7,0-1.3,0.1-1.9h4.5C33.9,26.8,34,27.4,34,28.1z M31.6,35c-0.7,0-1.6-1.4-2.1-3.8h4.1
		C33.2,33.6,32.3,35,31.6,35z M29.6,25c0.4-2.4,1.4-3.8,2.1-3.8s1.6,1.4,2.1,3.8H29.6z M29.5,21.5c-0.5,0.9-0.9,2.1-1.2,3.5h-3
		C26.2,23.3,27.7,22.1,29.5,21.5z M24.9,26.2h3.3c-0.1,0.6-0.1,1.3-0.1,1.9c0,0.6,0,1.3,0.1,1.9h-3.3c-0.2-0.6-0.3-1.2-0.3-1.9
		C24.6,27.4,24.7,26.8,24.9,26.2z M25.4,31.1h3c0.2,1.4,0.6,2.6,1.2,3.5C27.7,34.1,26.2,32.8,25.4,31.1z M33.7,34.6
		c0.5-0.9,0.9-2.1,1.2-3.5h3C37,32.8,35.5,34.1,33.7,34.6z M38.3,30H35c0.1-0.6,0.1-1.3,0.1-1.9c0-0.6,0-1.3-0.1-1.9h3.3
		c0.2,0.6,0.3,1.2,0.3,1.9C38.6,28.7,38.5,29.4,38.3,30z"/>
	<path class="st0" d="M22.4,28.2c0-2.8,1.2-5.2,3.1-6.9c-1.9-0.6-4.4-1-6.2-1c-6.5,0-11.8,4.8-11.8,10.7c2.4,0,9.5,0,15.2,0
		C22.6,30.1,22.4,29.2,22.4,28.2z"/>
	<g>
		<path class="st0" d="M13.5,19.5c-1.8-0.3-3.7-0.3-3.7-0.3c-4.7,0.4-8.4,3.5-8.4,7.9c1,0,2.7,0,4.8,0C7.4,23.8,10.1,21,13.5,19.5z"
			/>
		<path class="st0" d="M12.1,7.7c-0.4-0.1-0.8-0.2-1.2-0.2C8.2,7.5,6,9.7,6,12.4s2.2,4.9,4.9,4.9c0.4,0,0.8-0.1,1.2-0.2
			c-0.9-1.3-1.5-3-1.5-4.7C10.7,10.7,11.2,9,12.1,7.7z"/>
	</g>
</g>
</svg>
