<svg xmlns="http://www.w3.org/2000/svg" viewBox="0 0 22 22" enable-background="new 0 0 22 22"><path fill="#fc5345" d="m0 0h22v22h-22z"/><g fill="#fff"><path d="m15.5 14.1c-.3 0-.4.2-.4.6v.4h.9v-.4c-.1-.4-.2-.6-.5-.6"/><path d="m18 12.2c-.2-.7-.8-1.2-1.6-1.3-1.8-.2-3.6-.2-5.4-.2-1.8 0-3.6 0-5.4.2-.8.1-1.4.6-1.6 1.3-.3 1-.3 1.8-.3 2.8 0 1.1 0 1.7.3 2.8.2.7.8 1.2 1.6 1.3 1.8.2 3.6.2 5.4.2 1.8 0 3.6 0 5.4-.2.8-.1 1.4-.6 1.6-1.3.3-1 .3-1.7.3-2.8-.1-1.1-.1-1.8-.3-2.8m-10.1.6h-1v5.2h-1v-5.2h-1v-.8h3v.8m2.9 5.1h-.9v-.5c-.3.4-1 .6-1.3.6-.3 0-.5-.1-.6-.3 0-.1-.1-.4-.1-.7v-3.6h.9v3.3c0 .2 0 .3 0 .3 0 .1.1.2.2.2.2 0 .7-.1.9-.4v-3.4h.9v4.5m3.1-1.3c0 .4 0 .7-.1.9-.1.3-.4.5-.7.5-.3 0-.8-.2-1.1-.5v.4h-.9v-6.1h.9v2c.3-.3.8-.5 1.1-.5.3 0 .6.2.7.5.1.2.1.5.1.9v1.9m2.9-.8h-1.7v.8c0 .4.1.6.4.6.2 0 .3-.1.4-.3 0 0 0-.2 0-.6h.9v.1c0 .3 0 .4 0 .5 0 .2-.1.3-.2.5-.3.4-.6.6-1.1.6-.5 0-.8-.2-1.1-.5-.2-.2-.3-.6-.3-1.1v-1.6c0-.5.1-.8.3-1.1.3-.3.6-.5 1-.5.4 0 .8.2 1 .5.2.2.3.6.3 1.1v1z"/><path d="m12.6 14.1c-.1 0-.3.1-.4.2v2.7c.1.1.3.2.4.2.3 0 .4-.2.4-.6v-1.9c0-.4-.1-.6-.4-.6"/><g fill-rule="evenodd"><path d="m9.2 2.6h-1l-.7 2.5-.7-2.5h-1c.2.6.4 1.2.6 1.8.3.9.5 1.5.6 2v2.6h1v-2.6l1.2-3.8"/><path d="m11.5 4.7c-.2-.3-.6-.5-1-.5-.4 0-.8.2-1 .5-.2.2-.3.6-.3 1.1v1.6c0 .5.1.9.3 1.1.2.3.6.5 1 .5.4 0 .8-.2 1-.5.2-.2.3-.6.3-1.1v-1.6c0-.5-.1-.9-.3-1.1m-.6 2.9c0 .4-.1.7-.4.7-.3 0-.4-.2-.4-.7v-2c0-.4.1-.7.4-.7.3 0 .4.2.4.7v2"/><path d="m14.8 8.9v-4.7h-.9v3.6c-.2.3-.4.4-.6.4-.1 0-.2-.1-.2-.2 0 0 0-.1 0-.3v-3.5h-.9v3.8c0 .3 0 .6.1.7.1.2.3.3.6.3.3 0 .7-.2 1-.6v.5h.9"/></g></g></svg>