<?xml version="1.0" encoding="utf-8"?>
<!-- Generator: Adobe Illustrator 19.1.0, SVG Export Plug-In . SVG Version: 6.00 Build 0)  -->
<svg version="1.1" id="Layer_1" xmlns="http://www.w3.org/2000/svg" xmlns:xlink="http://www.w3.org/1999/xlink" x="0px" y="0px"
	 viewBox="0 0 16 16" style="enable-background:new 0 0 16 16;" xml:space="preserve">
<style type="text/css">
	.st0{fill:none;}
	.st1{fill:none;stroke:#999999;stroke-miterlimit:10;}
</style>
<rect class="st0" width="16" height="16"/>
<g>
	<line class="st1" x1="1" y1="11.5" x2="5.5" y2="11.5"/>
	<path class="st1" d="M6,8.5c0,2.8,2,5,4.5,5c2.5,0,5-2.2,5-5c0-2.8-2.5-5-5-5C8,3.5,6,5.7,6,8.5z"/>
	<path class="st1" d="M11.3,2.6c-1.1-0.7-2.4-1.1-3.8-1.1c-3.9,0-7,3.1-7,7c0,3.9,3.1,7,7,7c1.5,0,2.9-0.5,4-1.3"/>
	<polyline class="st1" points="10.5,4.5 10.5,8.4 12.5,10.5 	"/>
	<line class="st1" x1="1.5" y1="5.5" x2="6" y2="5.5"/>
	<line class="st1" x1="0.5" y1="8.5" x2="5" y2="8.5"/>
	<path class="st1" d="M6.5,2c0,0-3,3.5-3,6.5s3,6.5,3,6.5"/>
</g>
</svg>
