<svg xmlns="http://www.w3.org/2000/svg" viewBox="-297 389 16 16" enable-background="new -297 389 16 16" fill="#8095b3"><path d="m-288 392h5v-1h-5v-1h-1v1h-7v1h7c0 1.6-.5 3.6-1.4 5.2l-2.6-1.8-.6.9 2.7 1.8c-1 1.9-2.4 3.9-4 5.9h1.1c1.6-2.1 2.9-3.8 3.7-5.3l2.3 1.6.6-.9-2.4-1.6c.9-1.8 1.4-3.5 1.6-5.8"/><path d="m-282.2 397.7c0-1-.7-1.8-2.1-1.8-.7 0-1.4.2-1.8.5l.3.8c.3-.2.8-.4 1.3-.4.8 0 1.2.4 1.2 1.1 0 .6-.3 1.1-.9 1.7-.6.8-.9 1.5-.8 2.2v.3h1v-.3c0-.6.2-1.2.7-1.8.6-.9 1.1-1.5 1.1-2.3"/><path d="m-285 403h1v1h-1z"/></svg>