<svg xmlns="http://www.w3.org/2000/svg" viewBox="0 0 38 79" width="38" height="79" enable-background="new 0 0 38 79"><g fill="none" stroke-miterlimit="10"><circle cx="19" cy="60" r="18.5" stroke="#f49d56"/><circle cx="19" cy="19" r="18.5" stroke="#c8c8c8"/></g><g fill="#aeaeae"><path d="M20,10v3h-3v-3H20 M21,9h-5v5h5V9L21,9z"/><path d="M12,22v3H9v-3H12 M13,21H8v5h5V21L13,21z"/><path d="M20,22v3h-3v-3H20 M21,21h-5v5h5V21L21,21z"/><path d="M28,22v3h-3v-3H28 M29,21h-5v5h5V21L29,21z"/></g><g fill="none" stroke="#aeaeae" stroke-miterlimit="10"><path d="M 18.5,14 18.5,21"/><path d="M 10.5 21 10.5 16.5 26.5 16.5 26.5 21"/></g><g fill="#f49d56"><path d="M20,51v3h-3v-3H20 M21,50h-5v5h5V50L21,50z"/><path d="M12,63v3H9v-3H12 M13,62H8v5h5V62L13,62z"/><path d="M20,63v3h-3v-3H20 M21,62h-5v5h5V62L21,62z"/><path d="M28,63v3h-3v-3H28 M29,62h-5v5h5V62L29,62z"/></g><g fill="none" stroke="#f49d56" stroke-miterlimit="10"><path d="M 18.5,55 18.5,62"/><path d="M 10.5 62 10.5 57.5 26.5 57.5 26.5 62"/></g></svg>