<svg xmlns="http://www.w3.org/2000/svg" viewBox="0 0 38 79" width="38" height="79" enable-background="new 0 0 38 79"><g fill="none" stroke-miterlimit="10"><circle cx="19" cy="60" r="18.5" stroke="#f49d56"/><circle cx="19" cy="19" r="18.5" stroke="#c8c8c8"/><g stroke="#aeaeae"><path d="M 22 26.5 28.5 26.5 28.5 13.5 20 13.5 17 10.5 10.5 10.5 10.5 22"/><path d="M20.3,26.5c0-2.4-2-4.3-4.4-4.3s-4.4,1.9-4.4,4.3C13.2,26.5,18.6,26.5,20.3,26.5z"/><circle cx="16" cy="19" r="2.5"/></g><g stroke="#f49d56"><path d="M 22 67.5 28.5 67.5 28.5 54.5 20 54.5 17 51.5 10.5 51.5 10.5 63"/><path d="M20.3,67.5c0-2.4-2-4.3-4.4-4.3s-4.4,1.9-4.4,4.3C13.2,67.5,18.6,67.5,20.3,67.5z"/><circle cx="16" cy="60" r="2.5"/></g></g></svg>