<svg xmlns="http://www.w3.org/2000/svg" viewBox="0 0 256 263" enable-background="new 0 0 256 263"><path fill="#e9efef" d="m48 227h120v6h-120z"/><path fill="#d8dcdb" d="m48 248h195v6h-195z"/><path fill="#e9efef" d="m48 172h120v6h-120z"/><path fill="#d8dcdb" d="m48 193h195v6h-195z"/><path fill="#e9efef" d="m48 117h120v6h-120z"/><path fill="#d8dcdb" d="m48 138h195v6h-195z"/><path fill="#e9efef" d="m48 62h120v6h-120z"/><path fill="#d8dcdb" d="m48 83h195v6h-195z"/><circle cx="16" cy="16" r="16" fill="#00aaf0"/><g fill="none" stroke="#fff" stroke-miterlimit="10"><path d="m13 22c-.8.8-1.7.3-2.5-.5-.8-.8-1.3-1.7-.5-2.5l2.5-2.5c.8-.8 1.7-.3 2.5.5.8.8 1.3 1.7.5 2.5l-2.5 2.5z"/><path d="m19.5 15.5c-.8.8-1.7.3-2.5-.5-.8-.8-1.3-1.7-.5-2.5l2.5-2.5c.8-.8 1.7-.3 2.5.5.8.8 1.3 1.7.5 2.5l-2.5 2.5z"/><path d="m13.5 18.5l5-5"/></g></svg>