<svg id="import" xmlns="http://www.w3.org/2000/svg" viewBox="-2 -2 20 20" enable-background="new 0 0 20 20">
  <rect id="Rectangle_6365" data-name="Rectangle 6365" width="20" height="20" fill="none"/>
  <path id="Path_6137" data-name="Path 6137" d="M15-10.992l-4.008,3v-2.016a4.391,4.391,0,0,1-3.047-.937A5.437,5.437,0,0,1,6.48-13.008a6.22,6.22,0,0,1-.457-2.062L6-16.008a4.789,4.789,0,0,0,1.172,2.531A4.793,4.793,0,0,0,8.836-12.3a3.826,3.826,0,0,0,1.5.3h.656v-1.992Zm-7.992,6h9.984V-15H12v-1.008h6v12H6V-9H7.008Z" transform="translate(-4 18.008)" fill="#8095b3"/>
</svg>