<?xml version="1.0" encoding="utf-8"?>
<!-- Generator: Adobe Illustrator 22.1.0, SVG Export Plug-In . SVG Version: 6.00 Build 0)  -->
<svg version="1.1" id="Layer_1" xmlns="http://www.w3.org/2000/svg" xmlns:xlink="http://www.w3.org/1999/xlink" x="0px" y="0px"
	 viewBox="0 0 23 46" style="enable-background:new 0 0 23 46;" xml:space="preserve" width="23" height="46">
<style type="text/css">
	.st0{fill:#999999;}
	.st1{fill:none;stroke:#FFFFFF;stroke-miterlimit:10;}
	.st2{fill:#FF4013;}
</style>
<path class="st0" d="M17,17H5c-0.6,0-1-0.4-1-1V4c0-0.6,0.4-1,1-1h12c0.6,0,1,0.4,1,1v12C18,16.6,17.6,17,17,17"/>
<path class="st1" d="M7.5,8.5L11,12l3.5-3.5"/>
<path class="st2" d="M17,26H5c-0.6,0-1,0.4-1,1v12c0,0.6,0.4,1,1,1h12c0.6,0,1-0.4,1-1V27C18,26.4,17.6,26,17,26"/>
<path class="st1" d="M7.5,34.5L11,31l3.5,3.5"/>
</svg>
