<svg xmlns="http://www.w3.org/2000/svg" width="178" height="184" viewBox="0 0 178 184">
  <g id="Group_15638" data-name="Group 15638" transform="translate(-592.999 -128)">
    <g id="Group_15637" data-name="Group 15637" transform="translate(-0.602 0.25)">
      <path id="Path_7382" data-name="Path 7382" d="M887.957,135.09a88.17,88.17,0,0,0-63.178,149.543c-.159.47-9.39,27.176-26.78,34.457,23.6,0,38.278,0,57.418-11.5a14.659,14.659,0,0,0,2.147-1.565A88.151,88.151,0,1,0,887.957,135.09Z" transform="translate(-204.398 -7.34)" fill="#ff4013"/>
      <g id="Group_7792" data-name="Group 7792" transform="translate(-3717.642 76.145)">
        <path id="Path_2557" data-name="Path 2557" d="M4380.023,124.654V123a8.481,8.481,0,0,1,8.273-8.273,8.887,8.887,0,0,1,4.96,1.656" transform="translate(3.121 2.818)" fill="rgba(100,184,223,0.1)" stroke="#fff" stroke-width="3"/>
        <circle id="Ellipse_455" data-name="Ellipse 455" cx="8.273" cy="8.273" r="8.273" transform="translate(4399.69 145.119)" fill="rgba(100,184,223,0.1)" stroke="#fff" stroke-width="3"/>
        <path id="Path_2561" data-name="Path 2561" d="M4412.924,120.3h-2.758a21.667,21.667,0,0,0-4.411-7.721l3.313-5.516a2.9,2.9,0,0,0-1.1-3.859L4403,100.447a2.907,2.907,0,0,0-3.862,1.1l-3.306,5.516a17.93,17.93,0,0,0-8.822,0l-3.313-5.516a3.164,3.164,0,0,0-3.862-1.1l-4.96,2.758a3.156,3.156,0,0,0-1.1,3.859l3.307,5.516a21.67,21.67,0,0,0-4.412,7.721H4366.6a2.6,2.6,0,0,0-2.758,2.439c0,.1,0,.214,0,.318v5.516a2.6,2.6,0,0,0,2.441,2.757,2.008,2.008,0,0,0,.317,0h6.62a21.539,21.539,0,0,0,4.411,7.724l-1.653,2.758" transform="translate(0 0)" fill="rgba(100,184,223,0.1)" stroke="#fff" stroke-width="3"/>
        <path id="Path_2562" data-name="Path 2562" d="M4430.108,143.42h-6.62a21.685,21.685,0,0,0-4.412-7.722l3.308-5.514a2.906,2.906,0,0,0-1.1-3.86l-4.959-2.757a2.905,2.905,0,0,0-3.863,1.1l-3.306,5.516a17.925,17.925,0,0,0-8.828,0l-3.308-5.516a3.167,3.167,0,0,0-3.861-1.1l-4.966,2.757a3.161,3.161,0,0,0-1.1,3.86l3.307,5.514a21.685,21.685,0,0,0-4.412,7.722h-5.516a2.6,2.6,0,0,0-2.758,2.439c0,.1,0,.212,0,.318v5.514a2.6,2.6,0,0,0,2.44,2.758,2.011,2.011,0,0,0,.317,0h6.621a21.583,21.583,0,0,0,4.411,7.724l-3.312,5.516a2.906,2.906,0,0,0,1.1,3.859l4.967,2.758a2.909,2.909,0,0,0,3.861-1.1l3.308-5.514a17.928,17.928,0,0,0,8.822,0l3.313,5.514a3.166,3.166,0,0,0,3.861,1.1l4.961-2.758a3.163,3.163,0,0,0,1.1-3.859l-3.308-5.516a21.658,21.658,0,0,0,4.412-7.724h6.62a2.6,2.6,0,0,0,2.757-2.437,2.931,2.931,0,0,0,0-.321v-5.514C4432.866,144.523,4431.761,143.42,4430.108,143.42Z" transform="translate(2.675 4.458)" fill="rgba(100,184,223,0.1)" stroke="#fff" stroke-width="3"/>
      </g>
    </g>
  </g>
</svg>
