<svg xmlns="http://www.w3.org/2000/svg" viewBox="0 0 16 16" enable-background="new 0 0 16 16" widht="16" height="16">
	<g fill="#ef7e63"><path d="M6.6,7.9c0,2.9-1.1,4.5-2.9,4.5C2,12.4,0.9,10.8,0.9,8c0-2.8,1.2-4.4,2.9-4.4C5.6,3.6,6.6,5.2,6.6,7.9z M2,8c0,2.2,0.7,3.4,1.7,3.4c1.2,0,1.7-1.4,1.7-3.5c0-2.1-0.5-3.4-1.7-3.4C2.7,4.5,2,5.7,2,8z"/>
		<path d="M7.3,11.5c0-0.5,0.3-0.8,0.8-0.8s0.8,0.3,0.8,0.8c0,0.5-0.3,0.8-0.8,0.8C7.6,12.4,7.3,12,7.3,11.5z"/>
		<path d="M15,4.7h-3.2l-0.3,2.2c0.2,0,0.4-0.1,0.7-0.1c0.7,0,1.3,0.1,1.8,0.5c0.7,0.4,1.2,1.1,1.2,2.2c0,1.7-1.3,2.9-3.1,2.9c-0.9,0-1.7-0.3-2.1-0.5l0.3-0.9c0.4,0.2,1,0.5,1.8,0.5c1.1,0,2-0.7,2-1.8c0-1.1-0.7-1.9-2.4-1.9c-0.5,0-0.9,0.1-1.2,0.1l0.5-4.1h4V4.7z"/>
	</g>
</svg>