<svg xmlns="http://www.w3.org/2000/svg" viewBox="0 0 16 16" enable-background="new 0 0 16 16" widht="16" height="16">
	<g fill="#97bad2"><path d="M5.2,2.2v1.3H3.9v10.1h1.2v1.3H1.2v-1.3h1.2V3.4H1.2V2.2H5.2z"/>
		<path d="M14.7,14.8h-1.4v-1.5h0c-0.7,1.2-1.7,1.7-3.1,1.7c-1.1,0-2-0.4-2.7-1.2s-1-1.9-1-3.3c0-1.5,0.4-2.7,1.1-3.6s1.7-1.3,3-1.3c1.2,0,2.1,0.5,2.7,1.5h0V1.5h1.4V14.8z M13.3,10.7V9.4c0-0.7-0.2-1.3-0.7-1.8s-1.1-0.8-1.8-0.8c-0.9,0-1.6,0.3-2.1,1s-0.8,1.5-0.8,2.7c0,1,0.2,1.9,0.7,2.5s1.1,0.9,1.9,0.9c0.8,0,1.5-0.3,2-0.9S13.3,11.6,13.3,10.7z"/>
	</g>
</svg>