<svg xmlns="http://www.w3.org/2000/svg" viewBox="0 0 16 16" enable-background="new 0 0 16 16" widht="16" height="16">
	<path d="M14.5,15l-0.9-2.5H10L9.1,15H8.2l3.2-8.4h0.8l3.2,8.4H14.5z M12,8.1c0-0.1-0.1-0.2-0.1-0.3s-0.1-0.2-0.1-0.3h0c0,0.1,0,0.2-0.1,0.3S11.7,8,11.6,8.1l-1.4,3.7h3.1L12,8.1z" fill="#a5922f"/>
	<g fill="none" stroke="#a5922f" stroke-miterlimit="10">
		<path d="M 0,2.5 10,2.5"/><path d="M 4.5,1 4.5,3"/>
		<path d="M1.5,12.5c0,0,4.7-4.3,6.5-9.5"/>
		<path d="M3,5.5c0,0,1.5,2.8,4.5,5.6"/>
	</g>
</svg>