<svg width="16" height="2488" viewBox="0 0 16 2488" fill="none" xmlns="http://www.w3.org/2000/svg">
<g id="Toolbar">
<g id="Icon | Placeholder - 16x16 | universal">
<circle id="shape" cx="8" cy="8" r="7" fill="#0D2E4E"/>
</g>
<g id="Icon | Bold- 16x16 | universal">
<path id="Path 11994" d="M10.7 31.82C11.0974 31.5533 11.4285 31.1992 11.6679 30.7847C11.9073 30.3703 12.0486 29.9065 12.081 29.429C12.0928 28.9823 12.0148 28.5378 11.8518 28.1218C11.6887 27.7058 11.4438 27.3267 11.1317 27.007C10.8195 26.6872 10.4464 26.4334 10.0344 26.2604C9.62236 26.0875 9.17984 25.9989 8.733 26H3.5V38H9.394C9.81205 37.9932 10.2246 37.9034 10.6077 37.7359C10.9908 37.5684 11.3368 37.3266 11.6257 37.0244C11.9146 36.7221 12.1407 36.3656 12.2908 35.9753C12.4409 35.5851 12.512 35.1689 12.5 34.751C12.5092 34.142 12.3448 33.5429 12.026 33.0239C11.7073 32.5048 11.2473 32.0873 10.7 31.82ZM6.012 28.143H8.524C8.85873 28.1523 9.17662 28.2919 9.41007 28.5319C9.64353 28.772 9.77414 29.0937 9.77414 29.4285C9.77414 29.7634 9.64353 30.085 9.41007 30.3251C9.17662 30.5651 8.85873 30.7047 8.524 30.714H6.012V28.143ZM8.942 35.857H6.012V33.286H8.942C9.27673 33.2953 9.59462 33.4349 9.82807 33.6749C10.0615 33.915 10.1921 34.2367 10.1921 34.5715C10.1921 34.9064 10.0615 35.228 9.82807 35.4681C9.59462 35.7081 9.27673 35.8477 8.942 35.857Z" fill="#0D2E4E"/>
</g>
<g id="Icon | Italic- 16x16 | universal">
<path id="Path 11996" d="M6.333 50V52.571H8.175L5.325 59.428H3V62H9.667V59.429H7.825L10.675 52.572H13V50H6.333Z" fill="#0D2E4E"/>
</g>
<g id="Icon | Strikethrought- 16x16 | universal">
<path id="S" d="M8.287 86.17C7.35767 86.17 6.468 86.0397 5.618 85.779C4.768 85.507 4.09367 85.1613 3.595 84.742L4.36 83.025C4.836 83.399 5.42533 83.7107 6.128 83.96C6.83067 84.2093 7.55033 84.334 8.287 84.334C8.91033 84.334 9.41467 84.266 9.8 84.13C10.1853 83.994 10.4687 83.8127 10.65 83.586C10.8313 83.348 10.922 83.0817 10.922 82.787C10.922 82.4243 10.7917 82.1353 10.531 81.92C10.2703 81.6933 9.93033 81.5177 9.511 81.393C9.103 81.257 8.644 81.1323 8.134 81.019C7.63533 80.9057 7.131 80.7753 6.621 80.628C6.12233 80.4693 5.66333 80.271 5.244 80.033C4.836 79.7837 4.50167 79.455 4.241 79.047C3.98033 78.639 3.85 78.1177 3.85 77.483C3.85 76.837 4.02 76.2477 4.36 75.715C4.71133 75.171 5.23833 74.7403 5.941 74.423C6.655 74.0943 7.556 73.93 8.644 73.93C9.358 73.93 10.0663 74.0207 10.769 74.202C11.4717 74.3833 12.0837 74.644 12.605 74.984L11.908 76.701C11.3753 76.3837 10.8257 76.1513 10.259 76.004C9.69233 75.8453 9.14833 75.766 8.627 75.766C8.015 75.766 7.51633 75.8397 7.131 75.987C6.757 76.1343 6.47933 76.327 6.298 76.565C6.128 76.803 6.043 77.075 6.043 77.381C6.043 77.7437 6.16767 78.0383 6.417 78.265C6.67767 78.4803 7.012 78.6503 7.42 78.775C7.83933 78.8997 8.304 79.0243 8.814 79.149C9.324 79.2623 9.82833 79.3927 10.327 79.54C10.837 79.6873 11.296 79.88 11.704 80.118C12.1233 80.356 12.4577 80.679 12.707 81.087C12.9677 81.495 13.098 82.0107 13.098 82.634C13.098 83.2687 12.9223 83.858 12.571 84.402C12.231 84.9347 11.704 85.3653 10.99 85.694C10.276 86.0113 9.375 86.17 8.287 86.17Z" fill="#0D2E4E"/>
<line id="Line 2282" x1="3" y1="80.5" x2="14" y2="80.5" stroke="#0D2E4E"/>
</g>
<g id="Icon | Placeholder - 16x16 | universal_2">
<circle id="shape_2" cx="8" cy="104" r="7" fill="#0D2E4E"/>
</g>
<g id="Icon | Placeholder - 16x16 | universal_3">
<circle id="shape_3" cx="8" cy="128" r="7" fill="#0D2E4E"/>
</g>
<g id="Icon | Underline- 16x16 | universal">
<path id="Path 11998" d="M8 156C9.16467 156.027 10.2925 155.591 11.136 154.787C11.9796 153.984 12.4701 152.879 12.5 151.714V146H10.625V151.714C10.6072 152.393 10.3209 153.038 9.82892 153.506C9.33691 153.975 8.67926 154.229 8 154.214C7.32074 154.229 6.66309 153.975 6.17108 153.506C5.67908 153.038 5.39282 152.393 5.375 151.714V146H3.5V151.714C3.52987 152.879 4.02039 153.984 4.86396 154.787C5.70754 155.591 6.83533 156.027 8 156V156Z" fill="#0D2E4E"/>
<path id="Rectangle 23461" d="M13 157H3V158H13V157Z" fill="#0D2E4E"/>
</g>
<g id="Icon | Placeholder - 16x16 | universal_4">
<circle id="shape_4" cx="8" cy="176" r="7" fill="#0D2E4E"/>
</g>
<g id="Icon | Placeholder - 16x16 | universal_5">
<circle id="shape_5" cx="8" cy="200" r="7" fill="#0D2E4E"/>
</g>
<g id="Icon | Placeholder - 16x16 | universal_6">
<circle id="shape_6" cx="8" cy="224" r="7" fill="#0D2E4E"/>
</g>
<g id="Frame 17421">
<g id="Component 164 &#226;&#128;&#147; 3">
<g id="Rectangle 6510">
<path id="Vector (Stroke)" fill-rule="evenodd" clip-rule="evenodd" d="M2 243H13V256H2V243ZM3 244V255H12V244H3Z" fill="#0D2E4E"/>
</g>
<g id="Group 7507">
<path id="Path 6950 (Stroke)" fill-rule="evenodd" clip-rule="evenodd" d="M15 240.999H5.5V239.999H16V252.499H15V240.999Z" fill="#0D2E4E"/>
</g>
<path id="Path 5597 (Stroke)" fill-rule="evenodd" clip-rule="evenodd" d="M9.98987 247H5.00488V246H9.98987V247Z" fill="#0D2E4E"/>
<path id="Path 5598 (Stroke)" fill-rule="evenodd" clip-rule="evenodd" d="M7.97586 248.916H5.00488V247.916H7.97586V248.916Z" fill="#0D2E4E"/>
</g>
</g>
<g id="Frame 17422">
<g id="Component 164 &#226;&#128;&#147; 4">
<g id="Rectangle 6510_2">
<path id="Vector (Stroke)_2" fill-rule="evenodd" clip-rule="evenodd" d="M2 267H13V280H2V267ZM3 268V279H12V268H3Z" fill="#0D2E4E"/>
</g>
<g id="Group 7507_2">
<path id="Path 6950 (Stroke)_2" fill-rule="evenodd" clip-rule="evenodd" d="M15 264.999H5.5V263.999H16V276.499H15V264.999Z" fill="#0D2E4E"/>
</g>
<path id="Path 5597 (Stroke)_2" fill-rule="evenodd" clip-rule="evenodd" d="M9.98987 271H5.00488V270H9.98987V271Z" fill="#0D2E4E"/>
<path id="Path 5598 (Stroke)_2" fill-rule="evenodd" clip-rule="evenodd" d="M7.97586 272.916H5.00488V271.916H7.97586V272.916Z" fill="#0D2E4E"/>
</g>
</g>
<g id="Icon | Placeholder - 16x16 | universal_7">
<circle id="shape_7" cx="8" cy="296" r="7" fill="#0D2E4E"/>
</g>
<g id="Icon | Placeholder - 16x16 | universal_8">
<circle id="shape_8" cx="8" cy="320" r="7" fill="#0D2E4E"/>
</g>
<g id="Icon | Placeholder - 16x16 | universal_9">
<circle id="shape_9" cx="8" cy="344" r="7" fill="#0D2E4E"/>
</g>
<g id="Icon | Placeholder - 16x16 | universal_10">
<circle id="shape_10" cx="8" cy="368" r="7" fill="#0D2E4E"/>
</g>
<g id="Icon | Placeholder - 16x16 | universal_11">
<circle id="shape_11" cx="8" cy="392" r="7" fill="#0D2E4E"/>
</g>
<g id="Icon | Placeholder - 16x16 | universal_12">
<circle id="shape_12" cx="8" cy="416" r="7" fill="#0D2E4E"/>
</g>
<g id="Icon | Colortext - 16x16 | universal">
<path id="Path 11999" d="M3.5 444H5.173L6.051 441.443H9.957L10.827 444H12.5L8.864 434H7.136L3.5 444ZM6.555 439.993L7.955 435.857H8.038L9.438 439.993H6.555Z" fill="#0D2E4E"/>
<path id="Rectangle 23462" d="M15 445H1V448H15V445Z" fill="#0D2E4E"/>
</g>
<g id="Icon | Format Painter- 16x16 | universal">
<path id="Path 11641" d="M13.076 462.247H10.326V457H5.674V462.247H2.924L2 471H14L13.076 462.247ZM12.26 463.128L12.432 464.87H3.568L3.74 463.129L12.26 463.128ZM12.174 470.118V467.495H11.25V470.119H10.326V468.376H9.426V470.118H3.01L3.375 465.752H12.539L13.076 470.118H12.174Z" fill="#0D2E4E"/>
</g>
<g id="Icon | Placeholder - 16x16 | universal_13">
<circle id="shape_13" cx="8" cy="488" r="7" fill="#0D2E4E"/>
</g>
<g id="Icon | Placeholder - 16x16 | universal_14">
<circle id="shape_14" cx="8" cy="512" r="7" fill="#0D2E4E"/>
</g>
<g id="Icon | Placeholder - 16x16 | universal_15">
<circle id="shape_15" cx="8" cy="536" r="7" fill="#0D2E4E"/>
</g>
<g id="Icon | Placeholder - 16x16 | universal_16">
<circle id="shape_16" cx="8" cy="560" r="7" fill="#0D2E4E"/>
</g>
<g id="Icon | Placeholder - 16x16 | universal_17">
<circle id="shape_17" cx="8" cy="584" r="7" fill="#0D2E4E"/>
</g>
<g id="Icon | Placeholder - 16x16 | universal_18">
<circle id="shape_18" cx="8" cy="608" r="7" fill="#0D2E4E"/>
</g>
<g id="Icon | Placeholder - 16x16 | universal_19">
<circle id="shape_19" cx="8" cy="632" r="7" fill="#0D2E4E"/>
</g>
<g id="Icon | Placeholder - 16x16 | universal_20">
<circle id="shape_20" cx="8" cy="656" r="7" fill="#0D2E4E"/>
</g>
<g id="Icon | Placeholder - 16x16 | universal_21">
<circle id="shape_21" cx="8" cy="680" r="7" fill="#0D2E4E"/>
</g>
<g id="Icon | image - 16x16 | universal">
<g id="Group 7540">
<g id="Rectangle 6528">
<path id="Vector" d="M15.5 698.5H0.5V709.5H15.5V698.5Z" stroke="#0D2E4E" stroke-miterlimit="10"/>
</g>
<path id="Ellipse 1358" d="M11.5 703C12.3284 703 13 702.328 13 701.5C13 700.672 12.3284 700 11.5 700C10.6716 700 10 700.672 10 701.5C10 702.328 10.6716 703 11.5 703Z" fill="#0D2E4E"/>
<path id="Path 6994" d="M1 707L5 701L12 709H1V707Z" fill="#0D2E4E"/>
<path id="Path 6995" d="M13 709L11 706L13 705L15 707V709H13Z" fill="#0D2E4E"/>
</g>
</g>
<g id="Icon | Placeholder - 16x16 | universal_22">
<circle id="shape_22" cx="8" cy="728" r="7" fill="#0D2E4E"/>
</g>
<g id="Icon | Placeholder - 16x16 | universal_23">
<circle id="shape_23" cx="8" cy="752" r="7" fill="#0D2E4E"/>
</g>
<g id="Frame 17424">
<g id="Component 222 &#226;&#128;&#147; 2">
<g id="Group 5997">
<g id="Ellipse 312">
<path id="Ellipse 1362 (Stroke)" fill-rule="evenodd" clip-rule="evenodd" d="M8 770C4.68629 770 2 772.686 2 776C2 779.314 4.68629 782 8 782C11.3137 782 14 779.314 14 776C14 772.686 11.3137 770 8 770ZM1 776C1 772.134 4.13401 769 8 769C11.866 769 15 772.134 15 776C15 779.866 11.866 783 8 783C4.13401 783 1 779.866 1 776Z" fill="#0D2E4E"/>
</g>
</g>
<g id="Group 5998">
<g id="Path 6223">
<path id="Path 7033" d="M4.71094 777.5C4.95709 778.174 5.40468 778.757 5.99303 779.168C6.58137 779.58 7.28201 779.8 7.99994 779.8C8.71821 779.801 9.41928 779.58 10.008 779.169C10.5968 778.757 11.0447 778.175 11.2909 777.5H4.71094M3.50293 776.5H12.5029C12.4514 777.658 11.9546 778.752 11.1162 779.553C10.2778 780.355 9.16255 780.801 8.00293 780.8C6.84375 780.8 5.7293 780.353 4.89122 779.552C4.05314 778.751 3.55592 777.658 3.50293 776.5V776.5Z" fill="#0D2E4E"/>
</g>
</g>
<path id="Ellipse 313" d="M6 775C6.55228 775 7 774.552 7 774C7 773.448 6.55228 773 6 773C5.44772 773 5 773.448 5 774C5 774.552 5.44772 775 6 775Z" fill="#0D2E4E"/>
<path id="Ellipse 314" d="M10 775C10.5523 775 11 774.552 11 774C11 773.448 10.5523 773 10 773C9.44772 773 9 773.448 9 774C9 774.552 9.44772 775 10 775Z" fill="#0D2E4E"/>
</g>
</g>
<g id="Icon | Placeholder - 16x16 | universal_24">
<circle id="shape_24" cx="8" cy="800" r="7" fill="#0D2E4E"/>
</g>
<g id="Frame 17423">
<g id="Component 648 &#226;&#128;&#147; 2">
<g id="Group 7337">
<path id="Ellipse 1345 (Stroke)" fill-rule="evenodd" clip-rule="evenodd" d="M6.25 818.75C4.317 818.75 2.75 820.317 2.75 822.25C2.75 824.183 4.317 825.75 6.25 825.75C8.183 825.75 9.75 824.183 9.75 822.25C9.75 820.317 8.183 818.75 6.25 818.75ZM1.75 822.25C1.75 819.765 3.76472 817.75 6.25 817.75C8.73528 817.75 10.75 819.765 10.75 822.25C10.75 824.735 8.73528 826.75 6.25 826.75C3.76472 826.75 1.75 824.735 1.75 822.25Z" fill="#0D2E4E"/>
<path id="Line 290 (Stroke)" fill-rule="evenodd" clip-rule="evenodd" d="M13.3965 830.104L8.64648 825.354L9.35359 824.646L14.1036 829.396L13.3965 830.104Z" fill="#0D2E4E"/>
</g>
</g>
</g>
<g id="Frame 17425">
<g id="Component 648 &#226;&#128;&#147; 3">
<g id="Group 7337_2">
<path id="Ellipse 1345 (Stroke)_2" fill-rule="evenodd" clip-rule="evenodd" d="M6.25 842.75C4.317 842.75 2.75 844.317 2.75 846.25C2.75 848.183 4.317 849.75 6.25 849.75C8.183 849.75 9.75 848.183 9.75 846.25C9.75 844.317 8.183 842.75 6.25 842.75ZM1.75 846.25C1.75 843.765 3.76472 841.75 6.25 841.75C8.73528 841.75 10.75 843.765 10.75 846.25C10.75 848.735 8.73528 850.75 6.25 850.75C3.76472 850.75 1.75 848.735 1.75 846.25Z" fill="#0D2E4E"/>
<path id="Line 290 (Stroke)_2" fill-rule="evenodd" clip-rule="evenodd" d="M13.3965 854.104L8.64648 849.354L9.35359 848.646L14.1036 853.396L13.3965 854.104Z" fill="#0D2E4E"/>
</g>
</g>
</g>
<g id="Icon | Placeholder - 16x16 | universal_25">
<circle id="shape_25" cx="8" cy="872" r="7" fill="#0D2E4E"/>
</g>
<g id="Icon | Placeholder - 16x16 | universal_26">
<circle id="shape_26" cx="8" cy="896" r="7" fill="#0D2E4E"/>
</g>
<g id="Icon | Placeholder - 16x16 | universal_27">
<circle id="shape_27" cx="8" cy="920" r="7" fill="#0D2E4E"/>
</g>
<g id="Icon | Placeholder - 16x16 | universal_28">
<circle id="shape_28" cx="8" cy="944" r="7" fill="#0D2E4E"/>
</g>
<g id="Icon | Placeholder - 16x16 | universal_29">
<circle id="shape_29" cx="8" cy="968" r="7" fill="#0D2E4E"/>
</g>
<g id="Icon | Placeholder - 16x16 | universal_30">
<circle id="shape_30" cx="8" cy="992" r="7" fill="#0D2E4E"/>
</g>
<g id="Icon | Placeholder - 16x16 | universal_31">
<circle id="shape_31" cx="8" cy="1016" r="7" fill="#0D2E4E"/>
</g>
<g id="Icon | Placeholder - 16x16 | universal_32">
<circle id="shape_32" cx="8" cy="1040" r="7" fill="#0D2E4E"/>
</g>
<g id="Icon | Placeholder - 16x16 | universal_33">
<circle id="shape_33" cx="8" cy="1064" r="7" fill="#0D2E4E"/>
</g>
<g id="Icon | Placeholder - 16x16 | universal_34">
<circle id="shape_34" cx="8" cy="1088" r="7" fill="#0D2E4E"/>
</g>
<g id="Icon | Placeholder - 16x16 | universal_35">
<circle id="shape_35" cx="8" cy="1112" r="7" fill="#0D2E4E"/>
</g>
<g id="Icon | Placeholder - 16x16 | universal_36">
<circle id="shape_36" cx="8" cy="1136" r="7" fill="#0D2E4E"/>
</g>
<g id="Icon | Placeholder - 16x16 | universal_37">
<circle id="shape_37" cx="8" cy="1160" r="7" fill="#0D2E4E"/>
</g>
<g id="Icon | Placeholder - 16x16 | universal_38">
<circle id="shape_38" cx="8" cy="1184" r="7" fill="#0D2E4E"/>
</g>
<g id="Icon | Placeholder - 16x16 | universal_39">
<circle id="shape_39" cx="8" cy="1208" r="7" fill="#0D2E4E"/>
</g>
<g id="Icon | image - 16x16 | universal_2">
<g id="Group 7540_2">
<g id="Rectangle 6528_2">
<path id="Vector_2" d="M15.5 1226.5H0.5V1237.5H15.5V1226.5Z" stroke="#0D2E4E" stroke-miterlimit="10"/>
</g>
<path id="Ellipse 1358_2" d="M11.5 1231C12.3284 1231 13 1230.33 13 1229.5C13 1228.67 12.3284 1228 11.5 1228C10.6716 1228 10 1228.67 10 1229.5C10 1230.33 10.6716 1231 11.5 1231Z" fill="#0D2E4E"/>
<path id="Path 6994_2" d="M1 1235L5 1229L12 1237H1V1235Z" fill="#0D2E4E"/>
<path id="Path 6995_2" d="M13 1237L11 1234L13 1233L15 1235V1237H13Z" fill="#0D2E4E"/>
</g>
</g>
<g id="Icon | Placeholder - 16x16 | universal_40">
<circle id="shape_40" cx="8" cy="1256" r="7" fill="#0D2E4E"/>
</g>
<g id="Icon | Placeholder - 16x16 | universal_41">
<circle id="shape_41" cx="8" cy="1280" r="7" fill="#0D2E4E"/>
</g>
<g id="Icon | Text Incriase Indent- 16x16 | universal">
<path id="Line 299" d="M9.5 1302.5H2" stroke="#0D2E4E"/>
<path id="Line 300" d="M9.5 1305.5H2" stroke="#0D2E4E"/>
<path id="Line 215" d="M14 1299.5H2" stroke="#0D2E4E"/>
<path id="Line 216" d="M14 1308.5H2" stroke="#0D2E4E"/>
<path id="Path 12023" d="M12 1307.5L15 1304L12 1300.5V1307.5Z" fill="#0D2E4E"/>
</g>
<g id="Icon | Text Decriase Indent- 16x16 | universal">
<path id="Line 299_2" d="M6.5 1326.5H14" stroke="#0D2E4E"/>
<path id="Line 300_2" d="M6.5 1329.5H14" stroke="#0D2E4E"/>
<path id="Line 215_2" d="M2 1323.5H14" stroke="#0D2E4E"/>
<path id="Line 216_2" d="M2 1332.5H14" stroke="#0D2E4E"/>
<path id="Path 12023_2" d="M4 1331.5L1 1328L4 1324.5V1331.5Z" fill="#0D2E4E"/>
</g>
<g id="Icon | Text Fill- 16x16 | universal">
<path fill-rule="evenodd" clip-rule="evenodd" d="M14 1349H2V1348H14V1349Z" fill="#0D2E4E"/>
<path id="_2" fill-rule="evenodd" clip-rule="evenodd" d="M14 1353H2V1352H14V1353Z" fill="#0D2E4E"/>
<path id="_3" fill-rule="evenodd" clip-rule="evenodd" d="M14 1357H2V1356H14V1357Z" fill="#0D2E4E"/>
</g>
<g id="Icon | Text centered - 16x16 | universal">
<path id="_4" fill-rule="evenodd" clip-rule="evenodd" d="M11.25 1377H4.75V1376H11.25V1377Z" fill="#0D2E4E"/>
<path id="_5" fill-rule="evenodd" clip-rule="evenodd" d="M14 1373H2V1372H14V1373Z" fill="#0D2E4E"/>
<path id="_6" fill-rule="evenodd" clip-rule="evenodd" d="M14 1381H2V1380H14V1381Z" fill="#0D2E4E"/>
</g>
<g id="Icon | Text left- 16x16 | universal">
<path id="_7" fill-rule="evenodd" clip-rule="evenodd" d="M2 1400H8.5V1401H2V1400Z" fill="#0D2E4E"/>
<path id="_8" fill-rule="evenodd" clip-rule="evenodd" d="M2 1396H14V1397H2V1396Z" fill="#0D2E4E"/>
<path id="_9" fill-rule="evenodd" clip-rule="evenodd" d="M2 1404H14V1405H2V1404Z" fill="#0D2E4E"/>
</g>
<g id="Icon | Text Right- 16x16 | universal">
<path id="_10" fill-rule="evenodd" clip-rule="evenodd" d="M14 1425H7.5V1424H14V1425Z" fill="#0D2E4E"/>
<path id="_11" fill-rule="evenodd" clip-rule="evenodd" d="M14 1421H2V1420H14V1421Z" fill="#0D2E4E"/>
<path id="_12" fill-rule="evenodd" clip-rule="evenodd" d="M14 1429H2V1428H14V1429Z" fill="#0D2E4E"/>
</g>
<g id="Icon | Placeholder - 16x16 | universal_42">
<circle id="shape_42" cx="8" cy="1448" r="7" fill="#0D2E4E"/>
</g>
<g id="Icon | Placeholder - 16x16 | universal_43">
<circle id="shape_43" cx="8" cy="1472" r="7" fill="#0D2E4E"/>
</g>
<g id="Icon | Placeholder - 16x16 | universal_44">
<circle id="shape_44" cx="8" cy="1496" r="7" fill="#0D2E4E"/>
</g>
<g id="Icon | Chain - 16x16 | universal">
<g id="Group 7360">
<g id="Group 7359">
<path id="_13" fill-rule="evenodd" clip-rule="evenodd" d="M4.85295 1520.85C4.85294 1520.85 4.85297 1520.85 4.85295 1520.85L2.35318 1523.35C2.21416 1523.49 2.15086 1523.62 2.12446 1523.73C2.09771 1523.84 2.10125 1523.96 2.14399 1524.11C2.23408 1524.42 2.4844 1524.78 2.85295 1525.15C3.22171 1525.52 3.57971 1525.77 3.88927 1525.86C4.03607 1525.9 4.1611 1525.9 4.2716 1525.88C4.38074 1525.85 4.50671 1525.79 4.64585 1525.65L7.14607 1523.15C7.28514 1523.01 7.34842 1522.88 7.37481 1522.77C7.40154 1522.66 7.398 1522.54 7.35527 1522.39C7.26519 1522.08 7.01484 1521.72 6.64607 1521.35C6.27742 1520.99 5.91983 1520.73 5.61011 1520.64C5.46318 1520.6 5.33797 1520.6 5.22727 1520.63C5.11799 1520.65 4.99198 1520.72 4.85295 1520.85ZM5.88914 1519.68C6.43892 1519.84 6.94084 1520.23 7.35318 1520.65C7.76542 1521.06 8.15557 1521.56 8.31548 1522.11C8.39775 1522.39 8.42159 1522.7 8.34682 1523.01C8.27171 1523.32 8.10462 1523.6 7.85318 1523.85L5.35341 1526.35C5.10204 1526.61 4.81789 1526.77 4.50709 1526.85C4.19766 1526.92 3.89293 1526.9 3.60998 1526.82C3.06005 1526.66 2.5581 1526.27 2.14585 1525.85C1.73357 1525.44 1.34362 1524.94 1.18376 1524.39C1.1015 1524.11 1.07767 1523.8 1.15242 1523.49C1.22752 1523.18 1.39459 1522.9 1.64607 1522.65L4.14607 1520.15C4.39753 1519.9 4.6819 1519.73 4.99254 1519.65C5.30178 1519.58 5.60632 1519.6 5.88914 1519.68Z" fill="#0D2E4E"/>
<path id="_14" fill-rule="evenodd" clip-rule="evenodd" d="M11.353 1514.35C11.3529 1514.35 11.353 1514.35 11.353 1514.35L8.85318 1516.85C8.71416 1516.99 8.65086 1517.12 8.62446 1517.23C8.59771 1517.34 8.60125 1517.46 8.64399 1517.61C8.73408 1517.92 8.9844 1518.28 9.35295 1518.65C9.72171 1519.02 10.0797 1519.27 10.3893 1519.36C10.5361 1519.4 10.6611 1519.4 10.7716 1519.38C10.8807 1519.35 11.0067 1519.29 11.1458 1519.15L13.6461 1516.65C13.7851 1516.51 13.8484 1516.38 13.8748 1516.27C13.9015 1516.16 13.898 1516.04 13.8553 1515.89C13.7652 1515.58 13.5148 1515.22 13.1461 1514.85C12.7774 1514.49 12.4198 1514.23 12.1101 1514.14C11.9632 1514.1 11.838 1514.1 11.7273 1514.13C11.618 1514.15 11.492 1514.22 11.353 1514.35ZM12.3891 1513.18C12.9389 1513.34 13.4408 1513.73 13.8532 1514.15C14.2654 1514.56 14.6556 1515.06 14.8155 1515.61C14.8978 1515.89 14.9216 1516.2 14.8468 1516.51C14.7717 1516.82 14.6046 1517.1 14.3532 1517.35L11.8534 1519.85C11.602 1520.11 11.3179 1520.27 11.0071 1520.35C10.6977 1520.42 10.3929 1520.4 10.11 1520.32C9.56005 1520.16 9.0581 1519.77 8.64585 1519.35C8.23357 1518.94 7.84362 1518.44 7.68376 1517.89C7.6015 1517.61 7.57767 1517.3 7.65242 1516.99C7.72752 1516.68 7.89459 1516.4 8.14607 1516.15L10.6461 1513.65C10.8975 1513.4 11.1819 1513.23 11.4925 1513.15C11.8018 1513.08 12.1063 1513.1 12.3891 1513.18Z" fill="#0D2E4E"/>
<path id="_15" fill-rule="evenodd" clip-rule="evenodd" d="M10.8536 1517.85L5.85359 1522.85L5.14648 1522.15L10.1465 1517.15L10.8536 1517.85Z" fill="#0D2E4E"/>
</g>
</g>
</g>
<g id="Icon | Unlink - 16x16 | universal">
<g id="Group 7360_2">
<g id="Group 7359_2">
<path id="_16" fill-rule="evenodd" clip-rule="evenodd" d="M4.85295 1544.85C4.85294 1544.85 4.85297 1544.85 4.85295 1544.85L2.35318 1547.35C2.21416 1547.49 2.15086 1547.62 2.12446 1547.73C2.09771 1547.84 2.10125 1547.96 2.14399 1548.11C2.23408 1548.42 2.4844 1548.78 2.85295 1549.15C3.22171 1549.52 3.57971 1549.77 3.88927 1549.86C4.03607 1549.9 4.1611 1549.9 4.2716 1549.88C4.38074 1549.85 4.50671 1549.79 4.64585 1549.65L7.14607 1547.15C7.28514 1547.01 7.34842 1546.88 7.37481 1546.77C7.40154 1546.66 7.398 1546.54 7.35527 1546.39C7.26519 1546.08 7.01484 1545.72 6.64607 1545.35C6.27742 1544.99 5.91983 1544.73 5.61011 1544.64C5.46318 1544.6 5.33797 1544.6 5.22727 1544.63C5.11799 1544.65 4.99198 1544.72 4.85295 1544.85ZM5.88914 1543.68C6.43892 1543.84 6.94084 1544.23 7.35318 1544.65C7.76542 1545.06 8.15557 1545.56 8.31548 1546.11C8.39775 1546.39 8.42159 1546.7 8.34682 1547.01C8.27171 1547.32 8.10462 1547.6 7.85318 1547.85L5.35341 1550.35C5.10204 1550.61 4.81789 1550.77 4.50709 1550.85C4.19766 1550.92 3.89293 1550.9 3.60998 1550.82C3.06005 1550.66 2.5581 1550.27 2.14585 1549.85C1.73357 1549.44 1.34362 1548.94 1.18376 1548.39C1.1015 1548.11 1.07767 1547.8 1.15242 1547.49C1.22752 1547.18 1.39459 1546.9 1.64607 1546.65L4.14607 1544.15C4.39753 1543.9 4.6819 1543.73 4.99254 1543.65C5.30178 1543.58 5.60632 1543.6 5.88914 1543.68Z" fill="#0D2E4E"/>
<path id="_17" fill-rule="evenodd" clip-rule="evenodd" d="M11.353 1538.35C11.3529 1538.35 11.353 1538.35 11.353 1538.35L8.85318 1540.85C8.71416 1540.99 8.65086 1541.12 8.62446 1541.23C8.59771 1541.34 8.60125 1541.46 8.64399 1541.61C8.73408 1541.92 8.9844 1542.28 9.35295 1542.65C9.72171 1543.02 10.0797 1543.27 10.3893 1543.36C10.5361 1543.4 10.6611 1543.4 10.7716 1543.38C10.8807 1543.35 11.0067 1543.29 11.1458 1543.15L13.6461 1540.65C13.7851 1540.51 13.8484 1540.38 13.8748 1540.27C13.9015 1540.16 13.898 1540.04 13.8553 1539.89C13.7652 1539.58 13.5148 1539.22 13.1461 1538.85C12.7774 1538.49 12.4198 1538.23 12.1101 1538.14C11.9632 1538.1 11.838 1538.1 11.7273 1538.13C11.618 1538.15 11.492 1538.22 11.353 1538.35ZM12.3891 1537.18C12.9389 1537.34 13.4408 1537.73 13.8532 1538.15C14.2654 1538.56 14.6556 1539.06 14.8155 1539.61C14.8978 1539.89 14.9216 1540.2 14.8468 1540.51C14.7717 1540.82 14.6046 1541.1 14.3532 1541.35L11.8534 1543.85C11.602 1544.11 11.3179 1544.27 11.0071 1544.35C10.6977 1544.42 10.3929 1544.4 10.11 1544.32C9.56005 1544.16 9.0581 1543.77 8.64585 1543.35C8.23357 1542.94 7.84362 1542.44 7.68376 1541.89C7.6015 1541.61 7.57767 1541.3 7.65242 1540.99C7.72752 1540.68 7.89459 1540.4 8.14607 1540.15L10.6461 1537.65C10.8975 1537.4 11.1819 1537.23 11.4925 1537.15C11.8018 1537.08 12.1063 1537.1 12.3891 1537.18Z" fill="#0D2E4E"/>
<path id="_18" fill-rule="evenodd" clip-rule="evenodd" d="M15.3536 1537.35L12.3536 1540.35L11.6465 1539.65L14.6465 1536.65L15.3536 1537.35Z" fill="#0D2E4E"/>
<path id="_19" fill-rule="evenodd" clip-rule="evenodd" d="M4.35359 1548.35L1.35359 1551.35L0.646484 1550.65L3.64648 1547.65L4.35359 1548.35Z" fill="#0D2E4E"/>
</g>
</g>
</g>
<g id="Icon | Bullet- 16x16 | universal">
<path id="Rectangle 6416" d="M14 1564H7V1565H14V1564Z" fill="#0D2E4E"/>
<path id="Rectangle 6417" d="M14 1568H7V1569H14V1568Z" fill="#0D2E4E"/>
<path id="Rectangle 6418" d="M14 1572H7V1573H14V1572Z" fill="#0D2E4E"/>
<g id="Ellipse 1359">
<path id="Vector_3" d="M3.5 1565.5C4.05228 1565.5 4.5 1565.05 4.5 1564.5C4.5 1563.95 4.05228 1563.5 3.5 1563.5C2.94772 1563.5 2.5 1563.95 2.5 1564.5C2.5 1565.05 2.94772 1565.5 3.5 1565.5Z" stroke="#0D2E4E"/>
</g>
<g id="Ellipse 1360">
<path id="Vector_4" d="M3.5 1569.5C4.05228 1569.5 4.5 1569.05 4.5 1568.5C4.5 1567.95 4.05228 1567.5 3.5 1567.5C2.94772 1567.5 2.5 1567.95 2.5 1568.5C2.5 1569.05 2.94772 1569.5 3.5 1569.5Z" stroke="#0D2E4E"/>
</g>
<g id="Ellipse 1361">
<path id="Vector_5" d="M3.5 1573.5C4.05228 1573.5 4.5 1573.05 4.5 1572.5C4.5 1571.95 4.05228 1571.5 3.5 1571.5C2.94772 1571.5 2.5 1571.95 2.5 1572.5C2.5 1573.05 2.94772 1573.5 3.5 1573.5Z" stroke="#0D2E4E"/>
</g>
</g>
<g id="Icon | Bullet- 16x16 | universal_2">
<path id="Rectangle 6416_2" d="M14 1588H7V1589H14V1588Z" fill="#0D2E4E"/>
<path id="Rectangle 6417_2" d="M14 1592H7V1593H14V1592Z" fill="#0D2E4E"/>
<path id="Rectangle 6418_2" d="M14 1596H7V1597H14V1596Z" fill="#0D2E4E"/>
<g id="Ellipse 1359_2">
<path id="Vector_6" d="M3.5 1589.5C4.05228 1589.5 4.5 1589.05 4.5 1588.5C4.5 1587.95 4.05228 1587.5 3.5 1587.5C2.94772 1587.5 2.5 1587.95 2.5 1588.5C2.5 1589.05 2.94772 1589.5 3.5 1589.5Z" stroke="#0D2E4E"/>
</g>
<g id="Ellipse 1360_2">
<path id="Vector_7" d="M3.5 1593.5C4.05228 1593.5 4.5 1593.05 4.5 1592.5C4.5 1591.95 4.05228 1591.5 3.5 1591.5C2.94772 1591.5 2.5 1591.95 2.5 1592.5C2.5 1593.05 2.94772 1593.5 3.5 1593.5Z" stroke="#0D2E4E"/>
</g>
<g id="Ellipse 1361_2">
<path id="Vector_8" d="M3.5 1597.5C4.05228 1597.5 4.5 1597.05 4.5 1596.5C4.5 1595.95 4.05228 1595.5 3.5 1595.5C2.94772 1595.5 2.5 1595.95 2.5 1596.5C2.5 1597.05 2.94772 1597.5 3.5 1597.5Z" stroke="#0D2E4E"/>
</g>
</g>
<g id="Icon | Numbering- 16x16 | universal">
<path id="Rectangle 6416_3" d="M14 1612H7V1613H14V1612Z" fill="#0D2E4E"/>
<path id="Rectangle 6417_3" d="M14 1616H7V1617H14V1616Z" fill="#0D2E4E"/>
<path id="Rectangle 6418_3" d="M14 1620H7V1621H14V1620Z" fill="#0D2E4E"/>
<path id="Path 12024" d="M4.61477 1618.07H2.38477V1617.58C2.42477 1617.55 2.47477 1617.51 2.53477 1617.45L2.73477 1617.27C2.8101 1617.2 2.88943 1617.12 2.97277 1617.04C3.0561 1616.95 3.13843 1616.86 3.21977 1616.77C3.3331 1616.64 3.4331 1616.53 3.51977 1616.42C3.59681 1616.33 3.667 1616.24 3.72977 1616.13C3.78022 1616.05 3.82051 1615.96 3.84977 1615.87C3.87648 1615.78 3.88996 1615.69 3.88977 1615.6C3.88956 1615.53 3.87418 1615.46 3.84477 1615.4C3.81466 1615.34 3.77217 1615.28 3.71977 1615.23C3.66354 1615.18 3.59841 1615.14 3.52777 1615.12C3.44869 1615.09 3.36502 1615.08 3.28077 1615.08C3.16902 1615.07 3.05791 1615.09 2.95277 1615.13C2.84078 1615.18 2.73677 1615.24 2.64477 1615.32L2.38477 1614.86C2.52969 1614.75 2.6865 1614.67 2.85177 1614.6C3.04129 1614.53 3.24254 1614.5 3.44477 1614.5C3.58431 1614.5 3.72315 1614.52 3.85677 1614.56C3.9833 1614.6 4.10191 1614.66 4.20677 1614.74C4.30859 1614.82 4.39161 1614.92 4.44977 1615.03C4.51106 1615.16 4.54191 1615.3 4.53977 1615.43C4.54074 1615.54 4.5317 1615.64 4.51277 1615.73C4.49363 1615.83 4.46516 1615.92 4.42777 1616.01C4.38596 1616.11 4.33578 1616.2 4.27777 1616.29C4.21577 1616.39 4.14143 1616.49 4.05477 1616.61C3.9881 1616.69 3.91577 1616.78 3.83777 1616.87C3.75977 1616.96 3.6821 1617.04 3.60477 1617.12C3.5281 1617.2 3.45243 1617.27 3.37777 1617.34C3.3031 1617.41 3.23643 1617.47 3.17777 1617.52H4.61777L4.61477 1618.07Z" fill="#0D2E4E"/>
<path id="Path 12025" d="M2.52984 1612.45H3.29984V1610.27L2.63984 1610.77L2.33984 1610.37L3.47984 1609.5H3.91984V1612.45H4.66984V1613H2.52984V1612.45Z" fill="#0D2E4E"/>
<path id="Path 12026" d="M3.24023 1623.02C3.34182 1623.02 3.44293 1623.01 3.54023 1622.98C3.62538 1622.95 3.70509 1622.91 3.77523 1622.86C3.83806 1622.81 3.89015 1622.75 3.92823 1622.68C3.96501 1622.61 3.98392 1622.53 3.98323 1622.45C3.98724 1622.37 3.96646 1622.28 3.92323 1622.2C3.8808 1622.13 3.82109 1622.08 3.75023 1622.04C3.66734 1622 3.57774 1621.97 3.48523 1621.96C3.37441 1621.94 3.26239 1621.93 3.15023 1621.93H2.87023V1621.58L3.71023 1620.55H2.44523V1620H4.48523V1620.45L3.60523 1621.46H3.72023C3.83621 1621.46 3.95131 1621.48 4.06023 1621.52C4.16924 1621.56 4.26899 1621.62 4.35323 1621.7C4.43974 1621.79 4.50781 1621.89 4.55323 1622C4.60731 1622.13 4.63386 1622.27 4.63123 1622.41C4.63494 1622.59 4.59433 1622.76 4.51323 1622.91C4.43656 1623.06 4.33092 1623.18 4.20323 1623.28C4.07238 1623.38 3.92384 1623.45 3.76523 1623.5C3.59774 1623.55 3.42435 1623.57 3.25023 1623.57C3.09935 1623.57 2.94877 1623.56 2.80023 1623.53C2.65127 1623.5 2.50547 1623.46 2.36523 1623.4L2.54023 1622.87C2.57925 1622.89 2.6201 1622.9 2.66223 1622.91C2.71423 1622.93 2.77257 1622.95 2.83723 1622.96C2.90315 1622.98 2.96991 1623 3.03723 1623.01C3.10445 1623.01 3.17229 1623.02 3.24023 1623.02V1623.02Z" fill="#0D2E4E"/>
</g>
<g id="Icon | Numbering- 16x16 | universal_2">
<path id="Rectangle 6416_4" d="M14 1636H7V1637H14V1636Z" fill="#0D2E4E"/>
<path id="Rectangle 6417_4" d="M14 1640H7V1641H14V1640Z" fill="#0D2E4E"/>
<path id="Rectangle 6418_4" d="M14 1644H7V1645H14V1644Z" fill="#0D2E4E"/>
<path id="Path 12024_2" d="M4.61477 1642.07H2.38477V1641.58C2.42477 1641.55 2.47477 1641.51 2.53477 1641.45L2.73477 1641.27C2.8101 1641.2 2.88943 1641.12 2.97277 1641.04C3.0561 1640.95 3.13843 1640.86 3.21977 1640.77C3.3331 1640.64 3.4331 1640.53 3.51977 1640.42C3.59681 1640.33 3.667 1640.24 3.72977 1640.13C3.78022 1640.05 3.82051 1639.96 3.84977 1639.87C3.87648 1639.78 3.88996 1639.69 3.88977 1639.6C3.88956 1639.53 3.87418 1639.46 3.84477 1639.4C3.81466 1639.34 3.77217 1639.28 3.71977 1639.23C3.66354 1639.18 3.59841 1639.14 3.52777 1639.12C3.44869 1639.09 3.36502 1639.08 3.28077 1639.08C3.16902 1639.07 3.05791 1639.09 2.95277 1639.13C2.84078 1639.18 2.73677 1639.24 2.64477 1639.32L2.38477 1638.86C2.52969 1638.75 2.6865 1638.67 2.85177 1638.6C3.04129 1638.53 3.24254 1638.5 3.44477 1638.5C3.58431 1638.5 3.72315 1638.52 3.85677 1638.56C3.9833 1638.6 4.10191 1638.66 4.20677 1638.74C4.30859 1638.82 4.39161 1638.92 4.44977 1639.03C4.51106 1639.16 4.54191 1639.3 4.53977 1639.43C4.54074 1639.54 4.5317 1639.64 4.51277 1639.73C4.49363 1639.83 4.46516 1639.92 4.42777 1640.01C4.38596 1640.11 4.33578 1640.2 4.27777 1640.29C4.21577 1640.39 4.14143 1640.49 4.05477 1640.61C3.9881 1640.69 3.91577 1640.78 3.83777 1640.87C3.75977 1640.96 3.6821 1641.04 3.60477 1641.12C3.5281 1641.2 3.45243 1641.27 3.37777 1641.34C3.3031 1641.41 3.23643 1641.47 3.17777 1641.52H4.61777L4.61477 1642.07Z" fill="#0D2E4E"/>
<path id="Path 12025_2" d="M2.52984 1636.45H3.29984V1634.27L2.63984 1634.77L2.33984 1634.37L3.47984 1633.5H3.91984V1636.45H4.66984V1637H2.52984V1636.45Z" fill="#0D2E4E"/>
<path id="Path 12026_2" d="M3.24023 1647.02C3.34182 1647.02 3.44293 1647.01 3.54023 1646.98C3.62538 1646.95 3.70509 1646.91 3.77523 1646.86C3.83806 1646.81 3.89015 1646.75 3.92823 1646.68C3.96501 1646.61 3.98392 1646.53 3.98323 1646.45C3.98724 1646.37 3.96646 1646.28 3.92323 1646.2C3.8808 1646.13 3.82109 1646.08 3.75023 1646.04C3.66734 1646 3.57774 1645.97 3.48523 1645.96C3.37441 1645.94 3.26239 1645.93 3.15023 1645.93H2.87023V1645.58L3.71023 1644.55H2.44523V1644H4.48523V1644.45L3.60523 1645.46H3.72023C3.83621 1645.46 3.95131 1645.48 4.06023 1645.52C4.16924 1645.56 4.26899 1645.62 4.35323 1645.7C4.43974 1645.79 4.50781 1645.89 4.55323 1646C4.60731 1646.13 4.63386 1646.27 4.63123 1646.41C4.63494 1646.59 4.59433 1646.76 4.51323 1646.91C4.43656 1647.06 4.33092 1647.18 4.20323 1647.28C4.07238 1647.38 3.92384 1647.45 3.76523 1647.5C3.59774 1647.55 3.42435 1647.57 3.25023 1647.57C3.09935 1647.57 2.94877 1647.56 2.80023 1647.53C2.65127 1647.5 2.50547 1647.46 2.36523 1647.4L2.54023 1646.87C2.57925 1646.89 2.6201 1646.9 2.66223 1646.91C2.71423 1646.93 2.77257 1646.95 2.83723 1646.96C2.90315 1646.98 2.96991 1647 3.03723 1647.01C3.10445 1647.01 3.17229 1647.02 3.24023 1647.02V1647.02Z" fill="#0D2E4E"/>
</g>
<g id="Icon | Placeholder - 16x16 | universal_45">
<circle id="shape_45" cx="8" cy="1664" r="7" fill="#0D2E4E"/>
</g>
<g id="Icon | Placeholder - 16x16 | universal_46">
<circle id="shape_46" cx="8" cy="1688" r="7" fill="#0D2E4E"/>
</g>
<g id="Icon | Placeholder - 16x16 | universal_47">
<circle id="shape_47" cx="8" cy="1712" r="7" fill="#0D2E4E"/>
</g>
<g id="Frame 17426">
<g id="document">
<g id="Path 6105">
<path id="Vector_9" d="M3 1730V1742H13V1735H8V1730H3ZM2 1729H9V1734H14V1743H2V1729Z" fill="#0D2E4E"/>
</g>
<path id="Path 6110 (Stroke)" fill-rule="evenodd" clip-rule="evenodd" d="M13.2635 1734.87L8.14551 1729.72L8.85488 1729.01L13.9729 1734.16L13.2635 1734.87Z" fill="#0D2E4E"/>
</g>
</g>
<g id="Icon | Placeholder - 16x16 | universal_48">
<circle id="shape_48" cx="8" cy="1760" r="7" fill="#0D2E4E"/>
</g>
<g id="Icon | Placeholder - 16x16 | universal_49">
<circle id="shape_49" cx="8" cy="1784" r="7" fill="#0D2E4E"/>
</g>
<g id="Icon | Placeholder - 16x16 | universal_50">
<circle id="shape_50" cx="8" cy="1808" r="7" fill="#0D2E4E"/>
</g>
<g id="Icon | Placeholder - 16x16 | universal_51">
<circle id="shape_51" cx="8" cy="1832" r="7" fill="#0D2E4E"/>
</g>
<g id="Icon | Placeholder - 16x16 | universal_52">
<circle id="shape_52" cx="8" cy="1856" r="7" fill="#0D2E4E"/>
</g>
<g id="Icon | Placeholder - 16x16 | universal_53">
<circle id="shape_53" cx="8" cy="1880" r="7" fill="#0D2E4E"/>
</g>
<g id="Icon | Placeholder - 16x16 | universal_54">
<circle id="shape_54" cx="8" cy="1904" r="7" fill="#0D2E4E"/>
</g>
<g id="Icon | Placeholder - 16x16 | universal_55">
<circle id="shape_55" cx="8" cy="1928" r="7" fill="#0D2E4E"/>
</g>
<g id="Icon | Placeholder - 16x16 | universal_56">
<circle id="shape_56" cx="8" cy="1952" r="7" fill="#0D2E4E"/>
</g>
<g id="Icon | Placeholder - 16x16 | universal_57">
<circle id="shape_57" cx="8" cy="1976" r="7" fill="#0D2E4E"/>
</g>
<g id="Icon | Placeholder - 16x16 | universal_58">
<circle id="shape_58" cx="8" cy="2000" r="7" fill="#0D2E4E"/>
</g>
<g id="Icon | Placeholder - 16x16 | universal_59">
<circle id="shape_59" cx="8" cy="2024" r="7" fill="#0D2E4E"/>
</g>
<g id="Icon | Placeholder - 16x16 | universal_60">
<circle id="shape_60" cx="8" cy="2048" r="7" fill="#0D2E4E"/>
</g>
<g id="Icon | Placeholder - 16x16 | universal_61">
<circle id="shape_61" cx="8" cy="2072" r="7" fill="#0D2E4E"/>
</g>
<g id="Icon | Placeholder - 16x16 | universal_62">
<circle id="shape_62" cx="8" cy="2096" r="7" fill="#0D2E4E"/>
</g>
<g id="Icon | Placeholder - 16x16 | universal_63">
<circle id="shape_63" cx="8" cy="2120" r="7" fill="#0D2E4E"/>
</g>
<g id="Icon | Placeholder - 16x16 | universal_64">
<circle id="shape_64" cx="8" cy="2144" r="7" fill="#0D2E4E"/>
</g>
<g id="Icon | Text Code- 16x16 | universal">
<g id="Group 7539">
<path id="Path 6991" d="M14.0039 2161H1.00391C0.73869 2161 0.484411 2161.11 0.296875 2161.29C0.109339 2161.48 0.00390625 2161.73 0.00390625 2162V2174C0.00390625 2174.27 0.109339 2174.52 0.296875 2174.71C0.484411 2174.89 0.73869 2175 1.00391 2175H14.0039C14.2691 2175 14.5236 2174.89 14.7112 2174.71C14.8987 2174.52 15.0039 2174.27 15.0039 2174V2162C15.0039 2161.73 14.8987 2161.48 14.7112 2161.29C14.5236 2161.11 14.2691 2161 14.0039 2161V2161ZM14.0039 2174H1.00391V2165H14.0039V2174ZM14.0039 2164H1.00391V2162H14.0039V2164Z" fill="#0D2E4E"/>
<path id="Path 6992" d="M5.50391 2172L3.00391 2169.5L5.50391 2167" stroke="#0D2E4E" stroke-miterlimit="10"/>
<path id="Path 6993" d="M9.50391 2172L12.0039 2169.5L9.50391 2167" stroke="#0D2E4E" stroke-miterlimit="10"/>
</g>
</g>
<g id="Icon | Text Code- 16x16 | universal_2">
<g id="Group 7539_2">
<path id="Path 6991_2" d="M14.0039 2185H1.00391C0.73869 2185 0.484411 2185.11 0.296875 2185.29C0.109339 2185.48 0.00390625 2185.73 0.00390625 2186V2198C0.00390625 2198.27 0.109339 2198.52 0.296875 2198.71C0.484411 2198.89 0.73869 2199 1.00391 2199H14.0039C14.2691 2199 14.5236 2198.89 14.7112 2198.71C14.8987 2198.52 15.0039 2198.27 15.0039 2198V2186C15.0039 2185.73 14.8987 2185.48 14.7112 2185.29C14.5236 2185.11 14.2691 2185 14.0039 2185V2185ZM14.0039 2198H1.00391V2189H14.0039V2198ZM14.0039 2188H1.00391V2186H14.0039V2188Z" fill="#0D2E4E"/>
<path id="Path 6992_2" d="M5.50391 2196L3.00391 2193.5L5.50391 2191" stroke="#0D2E4E" stroke-miterlimit="10"/>
<path id="Path 6993_2" d="M9.50391 2196L12.0039 2193.5L9.50391 2191" stroke="#0D2E4E" stroke-miterlimit="10"/>
</g>
</g>
<g id="Icon | Text Code- 16x16 | universal_3">
<g id="Group 7539_3">
<path id="Path 6991_3" d="M14.0039 2209H1.00391C0.73869 2209 0.484411 2209.11 0.296875 2209.29C0.109339 2209.48 0.00390625 2209.73 0.00390625 2210V2222C0.00390625 2222.27 0.109339 2222.52 0.296875 2222.71C0.484411 2222.89 0.73869 2223 1.00391 2223H14.0039C14.2691 2223 14.5236 2222.89 14.7112 2222.71C14.8987 2222.52 15.0039 2222.27 15.0039 2222V2210C15.0039 2209.73 14.8987 2209.48 14.7112 2209.29C14.5236 2209.11 14.2691 2209 14.0039 2209V2209ZM14.0039 2222H1.00391V2213H14.0039V2222ZM14.0039 2212H1.00391V2210H14.0039V2212Z" fill="#0D2E4E"/>
<path id="Path 6992_3" d="M5.50391 2220L3.00391 2217.5L5.50391 2215" stroke="#0D2E4E" stroke-miterlimit="10"/>
<path id="Path 6993_3" d="M9.50391 2220L12.0039 2217.5L9.50391 2215" stroke="#0D2E4E" stroke-miterlimit="10"/>
</g>
</g>
<g id="Icon | Text Code- 16x16 | universal_4">
<g id="Group 7539_4">
<path id="Path 6991_4" d="M14.0039 2233H1.00391C0.73869 2233 0.484411 2233.11 0.296875 2233.29C0.109339 2233.48 0.00390625 2233.73 0.00390625 2234V2246C0.00390625 2246.27 0.109339 2246.52 0.296875 2246.71C0.484411 2246.89 0.73869 2247 1.00391 2247H14.0039C14.2691 2247 14.5236 2246.89 14.7112 2246.71C14.8987 2246.52 15.0039 2246.27 15.0039 2246V2234C15.0039 2233.73 14.8987 2233.48 14.7112 2233.29C14.5236 2233.11 14.2691 2233 14.0039 2233V2233ZM14.0039 2246H1.00391V2237H14.0039V2246ZM14.0039 2236H1.00391V2234H14.0039V2236Z" fill="#0D2E4E"/>
<path id="Path 6992_4" d="M5.50391 2244L3.00391 2241.5L5.50391 2239" stroke="#0D2E4E" stroke-miterlimit="10"/>
<path id="Path 6993_4" d="M9.50391 2244L12.0039 2241.5L9.50391 2239" stroke="#0D2E4E" stroke-miterlimit="10"/>
</g>
</g>
<g id="Icon | Placeholder - 16x16 | universal_65">
<circle id="shape_65" cx="8" cy="2264" r="7" fill="#0D2E4E"/>
</g>
<g id="Icon | Table - 16x16 | universal">
<path id="_20" fill-rule="evenodd" clip-rule="evenodd" d="M14 2282H2V2293H14V2282ZM1 2281V2294H15V2281H1Z" fill="#0D2E4E"/>
<path id="_21" fill-rule="evenodd" clip-rule="evenodd" d="M14 2285H2V2284H14V2285Z" fill="#0D2E4E"/>
<path id="_22" fill-rule="evenodd" clip-rule="evenodd" d="M14 2288H2V2287H14V2288Z" fill="#0D2E4E"/>
<path id="_23" fill-rule="evenodd" clip-rule="evenodd" d="M14 2291H2V2290H14V2291Z" fill="#0D2E4E"/>
<path id="_24" fill-rule="evenodd" clip-rule="evenodd" d="M5 2293L5 2282L6 2282L6 2293L5 2293Z" fill="#0D2E4E"/>
<path id="_25" fill-rule="evenodd" clip-rule="evenodd" d="M10 2293L10 2282L11 2282L11 2293L10 2293Z" fill="#0D2E4E"/>
</g>
<g id="Frame 17427">
<g id="document 4">
<g id="Path 6105_2">
<path id="Vector_10" d="M3 2306V2318H13V2311H8V2306H3ZM2 2305H9V2310H14V2319H2V2305Z" fill="#0D2E4E"/>
</g>
<path id="Path 6106 (Stroke)" fill-rule="evenodd" clip-rule="evenodd" d="M7 2310H5V2309H7V2310Z" fill="#0D2E4E"/>
<path id="Path 6107 (Stroke)" fill-rule="evenodd" clip-rule="evenodd" d="M7 2312H5V2311H7V2312Z" fill="#0D2E4E"/>
<path id="Path 12000 (Stroke)" fill-rule="evenodd" clip-rule="evenodd" d="M11 2314H5V2313H11V2314Z" fill="#0D2E4E"/>
<path id="Path 6110 (Stroke)_2" fill-rule="evenodd" clip-rule="evenodd" d="M13.2635 2310.87L8.14551 2305.72L8.85488 2305.01L13.9729 2310.16L13.2635 2310.87Z" fill="#0D2E4E"/>
<path id="Path 12001 (Stroke)" fill-rule="evenodd" clip-rule="evenodd" d="M11 2316H5V2315H11V2316Z" fill="#0D2E4E"/>
</g>
</g>
<g id="Frame 17428">
<g id="document 3">
<g id="Path 6105_3">
<path id="Vector_11" d="M3 2330V2342H13V2335H8V2330H3ZM2 2329H9V2334H14V2343H2V2329Z" fill="#0D2E4E"/>
</g>
<path id="Path 6106 (Stroke)_2" fill-rule="evenodd" clip-rule="evenodd" d="M7 2334H5V2333H7V2334Z" fill="#0D2E4E"/>
<path id="Path 6107 (Stroke)_2" fill-rule="evenodd" clip-rule="evenodd" d="M7 2336H5V2335H7V2336Z" fill="#0D2E4E"/>
<path id="Path 12000 (Stroke)_2" fill-rule="evenodd" clip-rule="evenodd" d="M11 2338H5V2337H11V2338Z" fill="#0D2E4E"/>
<path id="Path 6110 (Stroke)_3" fill-rule="evenodd" clip-rule="evenodd" d="M13.2635 2334.87L8.14551 2329.72L8.85488 2329.01L13.9729 2334.16L13.2635 2334.87Z" fill="#0D2E4E"/>
<path id="Path 12001 (Stroke)_2" fill-rule="evenodd" clip-rule="evenodd" d="M11 2340H5V2339H11V2340Z" fill="#0D2E4E"/>
</g>
</g>
<g id="Icon | Placeholder - 16x16 | universal_66">
<circle id="shape_66" cx="8" cy="2360" r="7" fill="#0D2E4E"/>
</g>
<g id="Icon | Undo- 16x16 | universal">
<path id="Path 12028" d="M13.6002 2382.3C13.3606 2382.1 13.1058 2381.93 12.8382 2381.77C12.5723 2381.62 12.294 2381.49 12.0062 2381.39C11.9297 2381.38 11.8543 2381.37 11.7832 2381.34C11.689 2381.31 11.5898 2381.29 11.4902 2381.29H10.3002L6.01119 2381.1V2379L0.992188 2382L6.00819 2385V2382.89L10.2082 2382.7H11.6142C11.8083 2382.75 11.9999 2382.81 12.1882 2382.88C12.3828 2382.95 12.5618 2383.06 12.7152 2383.2C13.0579 2383.44 13.3386 2383.77 13.5352 2384.15C13.7391 2384.54 13.8651 2384.96 13.9062 2385.4C13.908 2385.8 13.8383 2386.2 13.7002 2386.58C13.5661 2386.95 13.3677 2387.3 13.1142 2387.6C12.8523 2387.91 12.529 2388.16 12.1652 2388.33C11.7745 2388.52 11.3453 2388.61 10.9112 2388.61V2389.29C11.4137 2389.29 11.9127 2389.21 12.3882 2389.04C12.8843 2388.87 13.3336 2388.59 13.7002 2388.21C14.0973 2387.86 14.41 2387.43 14.6142 2386.95C14.8204 2386.45 14.9551 2385.93 15.0142 2385.4C15.0559 2384.82 14.9426 2384.25 14.6862 2383.73C14.4302 2383.18 14.06 2382.7 13.6002 2382.3Z" fill="#0D2E4E"/>
</g>
<g id="Icon | Redo- 16x16 | universal">
<path id="Path 12027" d="M2.35043 2406.3C2.58998 2406.1 2.84479 2405.93 3.11244 2405.77C3.37832 2405.62 3.65665 2405.49 3.94444 2405.39C4.02091 2405.38 4.09634 2405.37 4.16744 2405.34C4.26161 2405.31 4.36077 2405.29 4.46044 2405.29H5.66044L9.94944 2405.1V2403L14.9654 2406L9.94444 2409V2406.89L5.74444 2406.7H4.34343C4.1561 2406.8 3.96077 2406.88 3.75744 2406.96C3.54211 2407.05 3.33767 2407.16 3.14843 2407.29C2.8035 2407.54 2.52259 2407.87 2.32844 2408.25C2.12649 2408.64 1.99926 2409.06 1.95344 2409.49C1.95298 2409.9 2.02443 2410.3 2.16444 2410.68C2.29854 2411.05 2.49688 2411.39 2.75044 2411.7C3.01227 2412 3.33561 2412.25 3.69944 2412.42C4.09014 2412.61 4.51935 2412.71 4.95344 2412.7V2413.41C4.44994 2413.4 3.95031 2413.32 3.47644 2413.15C2.98054 2412.97 2.53168 2412.68 2.16343 2412.3C1.80053 2411.94 1.50317 2411.51 1.28444 2411.05C1.05536 2410.56 0.939144 2410.03 0.944436 2409.49C0.89882 2408.89 1.01193 2408.28 1.27244 2407.74C1.52444 2407.19 1.89206 2406.7 2.35043 2406.3Z" fill="#0D2E4E"/>
</g>
<g id="Icon | Redo- 16x16 | universal_2">
<path id="Path 12027_2" d="M2.35043 2430.3C2.58998 2430.1 2.84479 2429.93 3.11244 2429.77C3.37832 2429.62 3.65665 2429.49 3.94444 2429.39C4.02091 2429.38 4.09634 2429.37 4.16744 2429.34C4.26161 2429.31 4.36077 2429.29 4.46044 2429.29H5.66044L9.94944 2429.1V2427L14.9654 2430L9.94444 2433V2430.89L5.74444 2430.7H4.34343C4.1561 2430.8 3.96077 2430.88 3.75744 2430.96C3.54211 2431.05 3.33767 2431.16 3.14843 2431.29C2.8035 2431.54 2.52259 2431.87 2.32844 2432.25C2.12649 2432.64 1.99926 2433.06 1.95344 2433.49C1.95298 2433.9 2.02443 2434.3 2.16444 2434.68C2.29854 2435.05 2.49688 2435.39 2.75044 2435.7C3.01227 2436 3.33561 2436.25 3.69944 2436.42C4.09014 2436.61 4.51935 2436.71 4.95344 2436.7V2437.41C4.44994 2437.4 3.95031 2437.32 3.47644 2437.15C2.98054 2436.97 2.53168 2436.68 2.16343 2436.3C1.80053 2435.94 1.50317 2435.51 1.28444 2435.05C1.05536 2434.56 0.939144 2434.03 0.944436 2433.49C0.89882 2432.89 1.01193 2432.28 1.27244 2431.74C1.52444 2431.19 1.89206 2430.7 2.35043 2430.3Z" fill="#0D2E4E"/>
</g>
<g id="Icon | Undo- 16x16 | universal_2">
<path id="Path 12028_2" d="M13.6002 2454.3C13.3606 2454.1 13.1058 2453.93 12.8382 2453.77C12.5723 2453.62 12.294 2453.49 12.0062 2453.39C11.9297 2453.38 11.8543 2453.37 11.7832 2453.34C11.689 2453.31 11.5898 2453.29 11.4902 2453.29H10.3002L6.01119 2453.1V2451L0.992188 2454L6.00819 2457V2454.89L10.2082 2454.7H11.6142C11.8083 2454.75 11.9999 2454.81 12.1882 2454.88C12.3828 2454.95 12.5618 2455.06 12.7152 2455.2C13.0579 2455.44 13.3386 2455.77 13.5352 2456.15C13.7391 2456.54 13.8651 2456.96 13.9062 2457.4C13.908 2457.8 13.8383 2458.2 13.7002 2458.58C13.5661 2458.95 13.3677 2459.3 13.1142 2459.6C12.8523 2459.91 12.529 2460.16 12.1652 2460.33C11.7745 2460.52 11.3453 2460.61 10.9112 2460.61V2461.29C11.4137 2461.29 11.9127 2461.21 12.3882 2461.04C12.8843 2460.87 13.3336 2460.59 13.7002 2460.21C14.0973 2459.86 14.41 2459.43 14.6142 2458.95C14.8204 2458.45 14.9551 2457.93 15.0142 2457.4C15.0559 2456.82 14.9426 2456.25 14.6862 2455.73C14.4302 2455.18 14.06 2454.7 13.6002 2454.3Z" fill="#0D2E4E"/>
</g>
<g id="Icon | Placeholder - 16x16 | universal_67">
<circle id="shape_67" cx="8" cy="2480" r="7" fill="#0D2E4E"/>
</g>
</g>
</svg>
