<svg width="16" height="16" viewBox="0 0 16 16" fill="none" xmlns="http://www.w3.org/2000/svg">
	<path fill-rule="evenodd" clip-rule="evenodd" d="M2 3.83165C2 3.37099 2.34259 2.99756 2.7652 2.99756H13.2348C13.6574 2.99756 14 3.37099 14 3.83165C14 4.2923 13.6574 4.66573 13.2348 4.66573H2.7652C2.34259 4.66573 2 4.2923 2 3.83165ZM2.7652 7.16577C2.34259 7.16577 2 7.53921 2 7.99986C2 8.46051 2.34259 8.83395 2.7652 8.83395H7.00087C7.00029 8.806 7 8.77798 7 8.74989C7 8.18715 7.11621 7.65154 7.32594 7.16577H2.7652ZM7.94662 11.334C8.68035 12.2001 9.77597 12.7499 11 12.7499C12.0903 12.7499 13.0788 12.3136 13.8003 11.6062L13.8003 11.6062C13.0788 12.3137 12.0904 12.75 11 12.75C9.80531 12.75 8.73294 12.2262 8 11.3958V13.0022H2.7652C2.34259 13.0022 2 12.6287 2 12.1681C2 11.7074 2.34259 11.334 2.7652 11.334H7.94662ZM11 10.08C11.7345 10.08 12.33 9.48454 12.33 8.75C12.33 8.01546 11.7345 7.42 11 7.42C10.2655 7.42 9.67 8.01546 9.67 8.75C9.67 9.48454 10.2655 10.08 11 10.08ZM11 11.75C12.6569 11.75 14 10.4069 14 8.75C14 7.09315 12.6569 5.75 11 5.75C9.34315 5.75 8 7.09315 8 8.75C8 10.4069 9.34315 11.75 11 11.75ZM9 14.75V12.2148C9.58835 12.5552 10.2714 12.75 11 12.75C11.7286 12.75 12.4117 12.5552 13 12.2148V14.75L11 13.75L9 14.75Z" fill="#0D2E4E"/>
</svg>
