<svg xmlns="http://www.w3.org/2000/svg" width="120" height="125" viewBox="0 0 120 125">
  <g id="info" transform="translate(-4248.475 132.5)">
    <g id="Path_6906" data-name="Path 6906" fill="rgba(100,184,223,0.1)" stroke-miterlimit="10">
      <path d="M 4252.3720703125 -8.504594802856445 C 4256.099609375 -11.04328155517578 4259.56787109375 -15.03913879394531 4262.72021484375 -20.43465042114258 C 4265.85400390625 -25.79829978942871 4267.4599609375 -30.54286575317383 4267.47607421875 -30.59016609191895 L 4267.66845703125 -31.16443252563477 L 4267.24853515625 -31.60104942321777 C 4262.07275390625 -36.98500061035156 4258.01318359375 -43.20893478393555 4255.18359375 -50.09998321533203 C 4252.251953125 -57.23994827270508 4250.76513671875 -64.81138610839844 4250.76513671875 -72.60399627685547 C 4250.76513671875 -80.55663299560547 4252.30810546875 -88.27066802978516 4255.3515625 -95.53182983398438 C 4256.81396484375 -99.02168273925781 4258.62451171875 -102.3876647949219 4260.732421875 -105.5362701416016 C 4262.8203125 -108.6550827026367 4265.21826171875 -111.5878524780273 4267.859375 -114.2531204223633 C 4270.5 -116.9182510375977 4273.40625 -119.3377838134766 4276.49658203125 -121.4445343017578 C 4279.61572265625 -123.5712203979492 4282.95068359375 -125.3977508544922 4286.408203125 -126.8733978271484 C 4293.60107421875 -129.9433898925781 4301.2421875 -131.5 4309.1201171875 -131.5 C 4316.9970703125 -131.5 4324.63818359375 -129.9433898925781 4331.83056640625 -126.8733978271484 C 4335.2880859375 -125.3977508544922 4338.62255859375 -123.5712203979492 4341.7421875 -121.4445343017578 C 4344.83251953125 -119.3377685546875 4347.73876953125 -116.918212890625 4350.3798828125 -114.2530975341797 C 4353.02099609375 -111.5878143310547 4355.4189453125 -108.6550521850586 4357.5068359375 -105.536247253418 C 4359.61474609375 -102.3876190185547 4361.42529296875 -99.02163696289063 4362.88818359375 -95.53179931640625 C 4365.931640625 -88.27055358886719 4367.47509765625 -80.5565185546875 4367.47509765625 -72.60399627685547 C 4367.47509765625 -64.65148162841797 4365.931640625 -56.93745040893555 4362.88818359375 -49.67620086669922 C 4361.42529296875 -46.18636703491211 4359.61474609375 -42.82038497924805 4357.5068359375 -39.67174911499023 C 4355.4189453125 -36.55295181274414 4353.02099609375 -33.62018203735352 4350.3798828125 -30.95490074157715 C 4347.73876953125 -28.2897834777832 4344.83251953125 -25.8702335357666 4341.7421875 -23.76346588134766 C 4338.62255859375 -21.63678359985352 4335.2880859375 -19.81024932861328 4331.83056640625 -18.3346004486084 C 4324.63818359375 -15.26461696624756 4316.9970703125 -13.70800018310547 4309.1201171875 -13.70800018310547 C 4302.19580078125 -13.70800018310547 4295.41943359375 -14.92103290557861 4288.97900390625 -17.31341743469238 L 4288.41748046875 -17.5219669342041 L 4287.96875 -17.12545013427734 C 4287.55322265625 -16.75848388671875 4287.1396484375 -16.45453262329102 4286.6669921875 -16.16891670227051 C 4275.068359375 -9.14640998840332 4266.03466796875 -8.554488182067871 4252.3720703125 -8.504594802856445 Z" stroke="none"/>
      <path d="M 4309.1201171875 -130.5 C 4301.3779296875 -130.5 4293.86865234375 -128.9703979492188 4286.80078125 -125.9536590576172 C 4283.40283203125 -124.5035018920898 4280.12548828125 -122.7084197998047 4277.0595703125 -120.618278503418 C 4274.02197265625 -118.5474395751953 4271.16552734375 -116.1690826416016 4268.5693359375 -113.5492401123047 C 4265.97314453125 -110.9291000366211 4263.61572265625 -108.0459823608398 4261.5634765625 -104.97998046875 C 4259.4912109375 -101.884765625 4257.71142578125 -98.57588195800781 4256.27392578125 -95.14530181884766 C 4253.2822265625 -88.00717926025391 4251.76513671875 -80.42320251464844 4251.76513671875 -72.60399627685547 C 4251.76513671875 -64.94232177734375 4253.2265625 -57.49868011474609 4256.10888671875 -50.47984313964844 C 4258.890625 -43.70559692382813 4262.880859375 -37.58704376220703 4267.9697265625 -32.29409790039063 L 4268.80908203125 -31.42086029052734 L 4268.42431640625 -30.27230072021484 C 4268.40771484375 -30.22402191162109 4266.76904296875 -25.38140106201172 4263.583984375 -19.93018341064453 C 4261.03466796875 -15.56708526611328 4258.271484375 -12.08951568603516 4255.32373046875 -9.527297973632813 C 4267.20751953125 -9.677719116210938 4275.63134765625 -10.65646362304688 4286.14990234375 -17.02484130859375 C 4286.56982421875 -17.27860260009766 4286.9375 -17.54872131347656 4287.306640625 -17.87490081787109 L 4288.20458984375 -18.66793823242188 L 4289.3271484375 -18.25081634521484 C 4295.65576171875 -15.89997863769531 4302.31494140625 -14.70800018310547 4309.1201171875 -14.70800018310547 C 4316.861328125 -14.70800018310547 4324.3701171875 -16.23760223388672 4331.43798828125 -19.25434112548828 C 4334.8359375 -20.70452117919922 4338.11328125 -22.49960327148438 4341.17919921875 -24.5897216796875 C 4344.216796875 -26.66058349609375 4347.0732421875 -29.03896331787109 4349.66943359375 -31.65879821777344 C 4352.26611328125 -34.27896118164063 4354.62353515625 -37.16207885742188 4356.67578125 -40.22808074951172 C 4358.748046875 -43.32331848144531 4360.5283203125 -46.6322021484375 4361.9658203125 -50.06275939941406 C 4364.9580078125 -57.20095825195313 4366.47509765625 -64.78491973876953 4366.47509765625 -72.60399627685547 C 4366.47509765625 -80.42308044433594 4364.9580078125 -88.00703430175781 4361.9658203125 -95.14524078369141 C 4360.5283203125 -98.5758056640625 4358.748046875 -101.8846817016602 4356.67578125 -104.9799194335938 C 4354.62353515625 -108.0459213256836 4352.26611328125 -110.9290390014648 4349.66943359375 -113.549201965332 C 4347.0732421875 -116.1690368652344 4344.216796875 -118.5474243164063 4341.17919921875 -120.618278503418 C 4338.11328125 -122.7084045410156 4334.8359375 -124.5034790039063 4331.43798828125 -125.9536590576172 C 4324.3701171875 -128.9703979492188 4316.861328125 -130.5 4309.1201171875 -130.5 M 4309.1201171875 -132.5 C 4341.89990234375 -132.5 4368.47509765625 -105.6839981079102 4368.47509765625 -72.60399627685547 C 4368.47509765625 -39.52400207519531 4341.89990234375 -12.70800018310547 4309.1201171875 -12.70800018310547 C 4301.91796875 -12.70800018310547 4295.01611328125 -14.00399780273438 4288.630859375 -16.37599945068359 C 4288.22900390625 -16.02100372314453 4287.77001953125 -15.66699981689453 4287.18408203125 -15.31300354003906 C 4274.27978515625 -7.5 4264.38818359375 -7.5 4248.47509765625 -7.5 C 4260.19677734375 -12.44599914550781 4266.4208984375 -30.58899688720703 4266.52783203125 -30.90799713134766 C 4256.16015625 -41.69200134277344 4249.76513671875 -56.39099884033203 4249.76513671875 -72.60399627685547 C 4249.76513671875 -105.6839981079102 4276.3369140625 -132.5 4309.1201171875 -132.5 Z" stroke="none" fill="#64b8df"/>
    </g>
    <g id="Group_7331" data-name="Group 7331">
      <rect id="Rectangle_6412" data-name="Rectangle 6412" width="7" height="25" transform="translate(4305.475 -77.5)" fill="none" stroke="#64b8df" stroke-miterlimit="10" stroke-width="2"/>
      <circle id="Ellipse_1345" data-name="Ellipse 1345" cx="5.5" cy="5.5" r="5.5" transform="translate(4303.475 -94.5)" fill="none" stroke="#64b8df" stroke-miterlimit="10" stroke-width="2"/>
    </g>
  </g>
</svg>
