<svg id="SysSetting_Icon" data-name="SysSetting Icon" xmlns="http://www.w3.org/2000/svg" width="17.001" height="17" viewBox="0 0 17.001 17">
  <path id="Exclusion_26" data-name="Exclusion 26" d="M8.612,16c-.024,0-.048,0-.072,0H7.493a1.417,1.417,0,0,1-1.041-.457A1.511,1.511,0,0,1,6.042,14.5v-.8a.947.947,0,0,0-.3-.116.54.54,0,0,1-.224-.092l-.591.492a1.471,1.471,0,0,1-1.076.468H3.793a1.471,1.471,0,0,1-1.076-.468l-.705-.7a1.469,1.469,0,0,1-.365-.5,1.413,1.413,0,0,1-.129-.574A1.544,1.544,0,0,1,2.007,11.1l.612-.607c-.052-.079-.111-.17-.153-.247A.479.479,0,0,1,2.409,10H1.45A1.462,1.462,0,0,1,.412,9.579,1.476,1.476,0,0,1,0,8.5V7.5A1.464,1.464,0,0,1,.412,6.4a1.481,1.481,0,0,1,1.03-.412l.069,0h.8a1.064,1.064,0,0,0,.1-.28A.379.379,0,0,1,2.5,5.5l-.5-.608a1.723,1.723,0,0,1-.367-.516,1.4,1.4,0,0,1,0-1.172,1.711,1.711,0,0,1,.367-.51L2.712,2a1.508,1.508,0,0,1,1.066-.443h.079A1.488,1.488,0,0,1,4.924,2l.591.609a.452.452,0,0,1,.224-.188c.076-.027.164-.062.294-.116V1.5A1.469,1.469,0,0,1,6.446.412,1.476,1.476,0,0,1,7.472,0l.071,0h.991l.072,0A1.468,1.468,0,0,1,9.631.412,1.465,1.465,0,0,1,10.046,1.5v.8a1.384,1.384,0,0,0,.294.094.416.416,0,0,1,.224.118L11.153,2a1.52,1.52,0,0,1,1.07-.443H12.3A1.5,1.5,0,0,1,13.37,2l.7.7a1.5,1.5,0,0,1,.448,1.1,1.5,1.5,0,0,1-.438,1.1l-.612.61c.076.113.12.185.153.245a.518.518,0,0,1,.056.244h.863a1.436,1.436,0,0,1,1.041.446A1.482,1.482,0,0,1,16,7.5V8.5a1.416,1.416,0,0,1-.448,1.076A1.5,1.5,0,0,1,14.5,10h-.82a1.017,1.017,0,0,0-.1.28.317.317,0,0,1-.116.211l.614.607a1.545,1.545,0,0,1,0,2.18l-.7.7a1.475,1.475,0,0,1-1.075.468h-.061a1.486,1.486,0,0,1-1.079-.468l-.589-.587a1.881,1.881,0,0,0-.259.128.5.5,0,0,1-.239.061h-.022v.8a1.628,1.628,0,0,1-.413,1.185A1.451,1.451,0,0,1,8.612,16ZM8,6a2,2,0,1,0,2,2A2,2,0,0,0,8,6Z" transform="translate(0.5 0.5)" fill="#006ce0" stroke="rgba(0,0,0,0)" stroke-miterlimit="10" stroke-width="1"/>
</svg>