<svg id="Component_2433_105" data-name="Component 2433 – 105" xmlns="http://www.w3.org/2000/svg" width="24" height="24" viewBox="0 0 24 24">
  <rect id="Rectangle_39404" data-name="Rectangle 39404" width="24" height="24" fill="none"/>
  <path id="Path_11238" data-name="Path 11238" d="M-.4-5.391H-.609a7.57,7.57,0,0,1-2.156-.3A7.233,7.233,0,0,1-4.7-6.539,7.729,7.729,0,0,1-6.328-7.9,7.8,7.8,0,0,1-7.594-9.7l-.117-.187.117-.211a7.523,7.523,0,0,1,1.266-1.758,8.127,8.127,0,0,1,1.664-1.359,8.045,8.045,0,0,1,1.945-.867,7.406,7.406,0,0,1,2.109-.3h0a7.814,7.814,0,0,1,2.18.3,7.944,7.944,0,0,1,1.969.867A7.6,7.6,0,0,1,5.18-11.859,7.352,7.352,0,0,1,6.4-10.1l.094.211L6.4-9.7A6.939,6.939,0,0,1,5.3-7.922,7.7,7.7,0,0,1,3.7-6.586,8.288,8.288,0,0,1,1.781-5.7,7.814,7.814,0,0,1-.4-5.391ZM-.4-6.4h0a6.854,6.854,0,0,0,3.527-.926A6.513,6.513,0,0,0,5.6-9.891a6.6,6.6,0,0,0-1.1-1.453,7.06,7.06,0,0,0-1.406-1.09,7.181,7.181,0,0,0-1.664-.715A6.542,6.542,0,0,0-.4-13.406a6.912,6.912,0,0,0-3.492.926A6.4,6.4,0,0,0-6.4-9.891,5.733,5.733,0,0,0-3.926-7.359,7.968,7.968,0,0,0-.4-6.4Zm0-7.008a3.247,3.247,0,0,0-1.184.223,2.783,2.783,0,0,0-1.02.691h.211a1.078,1.078,0,0,1,.773.316,1.047,1.047,0,0,1,.328.785,1.058,1.058,0,0,1-.328.773,1.058,1.058,0,0,1-.773.328,1.214,1.214,0,0,1-.586-.152A.962.962,0,0,1-3.4-10.9v.492a2.976,2.976,0,0,0,.844,2.1,2.716,2.716,0,0,0,2.063.9H-.4A2.976,2.976,0,0,0,1.7-8.25a2.69,2.69,0,0,0,.9-2.039v-.117a2.955,2.955,0,0,0-.855-2.1,2.727,2.727,0,0,0-2.051-.9H-.4Z" transform="translate(12.609 21.391)"/>
</svg>
