<svg xmlns="http://www.w3.org/2000/svg" width="20" height="20" viewBox="0 0 21 21"><defs><style>.a{fill:#8095b3;}.b,.c{fill:none;}.b{stroke:#8095b3;stroke-miterlimit:10;}</style></defs><g transform="translate(0)"><path class="a" d="M17,3V1H14V3H6V1H3V3H0V20H20V3ZM15,2h1V5H15ZM4,2H5V5H4ZM19,19H1V8H19ZM19,7H1V4H3V6H6V4h8V6h3V4h2Z"/><g transform="translate(11 10)"><path class="b" d="M10.5,10v7" transform="translate(-8 -10)"/><path class="b" d="M13,16.5H8" transform="translate(-8 -10)"/><path class="b" d="M11,11.5H8" transform="translate(-8 -10)"/></g><rect class="c" width="20" height="20"/><path class="a" d="M3.372-4.8a5.594,5.594,0,0,1,.8.462,3.338,3.338,0,0,1,.71.657,2.557,2.557,0,0,1,.452.857,2.014,2.014,0,0,1,.017,1.058l-.02.029a2.6,2.6,0,0,1-.891,1.27A2.633,2.633,0,0,1,2.982.052H2.85a2.811,2.811,0,0,1-.786-.109,2.94,2.94,0,0,1-.7-.3A2.636,2.636,0,0,1,.787-.829a2.261,2.261,0,0,1-.406-.61l.9-.324a1.365,1.365,0,0,0,.264.4,1.617,1.617,0,0,0,.386.3A1.879,1.879,0,0,0,2.4-.876a1.866,1.866,0,0,0,.525.05,1.539,1.539,0,0,0,.911-.312A1.646,1.646,0,0,0,4.4-1.969,1.6,1.6,0,0,0,3.63-3.625q-.218-.141-.426-.253a3.8,3.8,0,0,0-.376-.18q-.168-.068-.274-.106A.81.81,0,0,0,2.434-4.2l-.64-.206L3.55-6.382H1V-7.26H5.346v.212Z" transform="translate(3.592 17.26)"/></g></svg>