<?xml version="1.0" encoding="utf-8"?>
<!-- Generator: Adobe Illustrator 23.1.0, SVG Export Plug-In . SVG Version: 6.00 Build 0)  -->
<svg version="1.1" id="Layer_1" xmlns="http://www.w3.org/2000/svg" xmlns:xlink="http://www.w3.org/1999/xlink" x="0px" y="0px"
	 viewBox="0 0 134 139" style="enable-background:new 0 0 134 139;" xml:space="preserve">
<style type="text/css">
	.st0{opacity:0.1;fill:#64B8DF;}
	.st1{fill:#64B8DF;}
	.st2{fill:none;stroke:#64B8DF;stroke-width:2;stroke-miterlimit:10;}
	.st3{fill:#55BAE3;}
</style>
<g>
	<path class="st0" d="M4,138.1c11.2-7.4,17.1-24.5,17.1-24.7l0.2-0.6l-0.4-0.4C9,100,2.5,83.8,2.5,66.7c0-36.2,29.3-65.6,65.3-65.6
		c36,0,65.3,29.4,65.3,65.6c0,36.2-29.3,65.6-65.3,65.6c-7.7,0-15.3-1.4-22.5-4l-0.6-0.2l-0.4,0.4c-0.5,0.4-0.9,0.8-1.5,1.1
		C29.6,137.4,19.5,138,4,138.1z"/>
	<path class="st1" d="M67.7,2.1c35.4,0,64.3,29,64.3,64.6c0,35.6-28.8,64.6-64.3,64.6c-7.6,0-15.1-1.3-22.2-4l-1.1-0.4l-0.9,0.8
		c-0.4,0.4-0.8,0.7-1.3,1c-12,7.2-21.5,8.2-35.2,8.4c9.8-8.1,14.8-22.6,15-23.4l0.4-1.2l-0.8-0.9C9.9,99.5,3.5,83.6,3.5,66.7
		C3.5,31.1,32.3,2.1,67.7,2.1 M67.7,0.1C31.1,0.1,1.5,29.9,1.5,66.7c0,18,7.1,34.4,18.7,46.4c-0.1,0.4-7.1,20.5-20.2,26
		c17.8,0,28.8,0,43.2-8.7c0.7-0.4,1.2-0.8,1.6-1.2c7.1,2.6,14.8,4.1,22.9,4.1c36.6,0,66.3-29.8,66.3-66.6
		C134,29.9,104.4,0.1,67.7,0.1L67.7,0.1z"/>
</g>
<path class="st2" d="M85.8,75.5V40.3h-37v47h13.7"/>
<rect x="55.8" y="64.3" class="st1" width="4" height="2"/>
<rect x="55.8" y="57.3" class="st1" width="4" height="2"/>
<rect x="55.8" y="50.3" class="st1" width="4" height="2"/>
<rect x="62.8" y="57.3" class="st1" width="15" height="2"/>
<rect x="62.8" y="64.3" class="st1" width="15" height="2"/>
<rect x="62.8" y="50.3" class="st1" width="15" height="2"/>
<g>
	<path class="st3" d="M77.5,74.3c7.2,0,13,5.8,13,13s-5.8,13-13,13s-13-5.8-13-13S70.3,74.3,77.5,74.3 M77.5,72.3
		c-8.3,0-15,6.7-15,15s6.7,15,15,15s15-6.7,15-15S85.8,72.3,77.5,72.3L77.5,72.3z"/>
</g>
<g>
	<path class="st3" d="M81.4,78.9c-1-0.4-2.1-0.1-2.9,0.6l-2.2,2.2c0,0,0,0,0,0c-0.8,0.8-1,2-0.6,3c0.1,0.1,0.1,0.3,0.2,0.5l-4.7,4.7
		c-0.2,0.2-0.3,0.5-0.3,0.7l0,2.5c0,0.5,0.5,1,1,1l2.5,0c0.3,0,0.5-0.1,0.7-0.3l5.2-5.2c0.4-0.4,0.4-1,0-1.4s-1-0.4-1.4,0L74,92.2
		l-1.1,0l0-1.1l4.9-4.9c0.3-0.3,0.4-0.8,0.1-1.2c-0.2-0.3-0.3-0.6-0.5-1c-0.1-0.2,0-0.5,0.2-0.7c0,0,0,0,0,0l2.2-2.2
		c0.2-0.2,0.5-0.3,0.7-0.2c0.6,0.2,1.5,0.7,2.2,1.4c0.7,0.7,1.2,1.6,1.4,2.3c0.1,0.3,0,0.5-0.2,0.7c0,0,0,0,0,0l-2.3,2.3
		c-0.2,0.2-0.5,0.3-0.8,0.1c-0.3-0.1-0.6-0.3-0.9-0.5c-0.5-0.3-1.1-0.1-1.4,0.3c-0.3,0.5-0.1,1.1,0.3,1.4c0.4,0.3,0.8,0.5,1.2,0.6
		c1,0.4,2.2,0.2,3-0.6l2.3-2.3c0,0,0,0,0,0c0.8-0.8,1-1.9,0.6-2.9c-0.3-0.8-0.9-2-1.9-3C83.3,79.8,82.2,79.2,81.4,78.9z"/>
</g>
<g>
	<path class="st3" d="M81.4,82.6c-0.3,0-0.5,0.1-0.7,0.3c-0.4,0.4-0.4,1,0,1.4c0.2,0.2,0.5,0.3,0.7,0.3s0.5-0.1,0.7-0.3
		c0.4-0.4,0.4-1,0-1.4C81.9,82.7,81.7,82.6,81.4,82.6L81.4,82.6z"/>
</g>
</svg>
