<svg xmlns="http://www.w3.org/2000/svg" width="16" height="16" viewBox="0 0 16 16"><defs><style>.a{fill:#8095b3;}.b,.c{fill:none;}.b{stroke:#8095b3;stroke-miterlimit:10;}</style></defs><path class="a" d="M14.5,14l-.9-2.5H10L9.1,14H8.2l3.2-8.4h.8L15.4,14ZM12,7.1c0-.1-.1-.2-.1-.3s-.1-.2-.1-.3h0a.367.367,0,0,1-.1.3c-.1.1,0,.2-.1.3l-1.4,3.7h3.1Z" transform="translate(0.301 1)"/><line class="b" x2="10" transform="translate(0.301 2.5)"/><line class="b" y2="2" transform="translate(4.801 1)"/><path class="b" d="M1.5,11.5S6.2,7.2,8,2" transform="translate(0.301 1)"/><path class="b" d="M3,4.5a24.292,24.292,0,0,0,4.5,5.6" transform="translate(0.301 1)"/><rect class="c" width="16" height="16"/></svg>