<svg width="16" height="16" viewBox="0 0 16 16" fill="none" xmlns="http://www.w3.org/2000/svg">
	<path fill-rule="evenodd" clip-rule="evenodd" d="M7.33268 7.33333C8.80544 7.33333 9.99935 6.13943 9.99935 4.66667C9.99935 3.19391 8.80544 2 7.33268 2C5.85992 2 4.66602 3.19391 4.66602 4.66667C4.66602 6.13943 5.85992 7.33333 7.33268 7.33333ZM9.66755 13L9.66753 13L9.66752 13C9.54181 12.9096 9.42156 12.8121 9.30736 12.7081C9.19446 12.6053 9 12.6815 9 12.8342C9 12.9258 8.92578 13 8.83423 13H2.2C2.08954 13 2 12.9105 2 12.8V11.6667C2 10.9594 2.28095 10.2811 2.78105 9.78105C3.28115 9.28095 3.95942 9 4.66667 9H7.82869C7.95409 9 8.04828 9.1141 8.0324 9.23849C8.01102 9.40598 8 9.57671 8 9.75002C8 11.0888 8.65767 12.2739 9.66755 13ZM12 11.08C12.7345 11.08 13.33 10.4845 13.33 9.75C13.33 9.01546 12.7345 8.42 12 8.42C11.2655 8.42 10.67 9.01546 10.67 9.75C10.67 10.4845 11.2655 11.08 12 11.08ZM12 12.75C13.6569 12.75 15 11.4069 15 9.75C15 8.09315 13.6569 6.75 12 6.75C10.3431 6.75 9 8.09315 9 9.75C9 11.4069 10.3431 12.75 12 12.75ZM10 13.2148V15.75L12 14.75L14 15.75V13.2148C13.4117 13.5552 12.7286 13.75 12 13.75C11.2714 13.75 10.5883 13.5552 10 13.2148Z" fill="#0D2E4E"/>
</svg>
