<svg width="16" height="16" viewBox="0 0 16 16" fill="none" xmlns="http://www.w3.org/2000/svg">
	<path fill-rule="evenodd" clip-rule="evenodd" d="M2 3H14C14.5523 3 15 3.44772 15 4V6C15 6.03332 14.9984 6.06625 14.9952 6.09873C14.2624 5.27147 13.1921 4.75 12 4.75C10.4184 4.75 9.05126 5.66788 8.40212 7H2C1.44772 7 1 6.55228 1 6V4C1 3.44772 1.44772 3 2 3ZM10 12.2149C8.8722 11.5625 8.09249 10.3752 8.00769 9H2C1.44772 9 1 9.44772 1 10V12C1 12.5523 1.44772 13 2 13H9V11.396C9.28596 11.72 9.6236 11.9973 10 12.215V14.75L12 13.75L14 14.75V12.215C14.3764 11.9973 14.714 11.72 15 11.396V11.3958C14.714 11.7198 14.3764 11.9971 14 12.2149V12.2148C13.4117 12.5552 12.7286 12.75 12 12.75C11.2714 12.75 10.5883 12.5552 10 12.2148V12.2149ZM5 5C5 5.55228 4.55228 6 4 6C3.44772 6 3 5.55228 3 5C3 4.44772 3.44772 4 4 4C4.55228 4 5 4.44772 5 5ZM4 12C4.55228 12 5 11.5523 5 11C5 10.4477 4.55228 10 4 10C3.44772 10 3 10.4477 3 11C3 11.5523 3.44772 12 4 12ZM12 10.08C12.7345 10.08 13.33 9.48454 13.33 8.75C13.33 8.01546 12.7345 7.42 12 7.42C11.2655 7.42 10.67 8.01546 10.67 8.75C10.67 9.48454 11.2655 10.08 12 10.08ZM12 11.75C13.6569 11.75 15 10.4069 15 8.75C15 7.09315 13.6569 5.75 12 5.75C10.3431 5.75 9 7.09315 9 8.75C9 10.4069 10.3431 11.75 12 11.75Z" fill="#0D2E4E"/>
</svg>
