<svg xmlns="http://www.w3.org/2000/svg" width="120" height="125">
	<g stroke-miterlimit="10" fill="#eff8fc">
		<path d="M3.9 124c3.7-2.5 7.2-6.5 10.3-12a61 61 0 0 0 4.8-10l.2-.7-.4-.4a58.8 58.8 0 0 1-6.5-74A59.2 59.2 0 0 1 37.9 5.7a57.5 57.5 0 0 1 64 12.6 59.2 59.2 0 0 1-18.5 96 57.5 57.5 0 0 1-42.9 1l-.6-.2-.4.4-1.3 1c-11.6 7-20.6 7.5-34.3 7.6Z"/>
		<path d="M60.6 2a56.5 56.5 0 0 0-47.5 25.5 58 58 0 0 0 6.4 72.7l.8.9-.4 1.1c0 .2-1.6 5-4.8 10.4A41.2 41.2 0 0 1 6.8 123a53.9 53.9 0 0 0 32-8.4l1-.8 1 .4a56.7 56.7 0 0 0 67.4-22A58 58 0 0 0 60.6 2m0-2A59.6 59.6 0 0 1 120 59.9a59.6 59.6 0 0 1-79.8 56.2c-.4.4-1 .7-1.5 1C25.8 125 16 125 0 125c11.7-5 18-23 18-23.4A60 60 0 0 1 60.7 0Z" fill="#64b8df"/>
	</g>
	<g stroke-miterlimit="10" fill="none" stroke="#64b8df" stroke-width="2px">
		<path class="b" d="M40 45v5.9l17 17.6V89l6-5V68.5l17-17.6V45Z"/>
		<path class="b" d="M80 50.9V45H40v5.9m0-.9h40"/>
	</g>
</svg>
