<svg xmlns="http://www.w3.org/2000/svg" width="16" height="16" viewBox="0 0 16 16"><defs><style>.aul_disable,.bul,.cul{fill:none;}.aul_disable{stroke:#ccc;}.aul_disable,.bul{stroke-miterlimit:10;}.bul{stroke:red;}.dul{stroke:none;}</style></defs><g transform="translate(-1887.884 140.528)"><path class="aul_disable" d="M1903.384-127.755a2.757,2.757,0,0,1-2.786,2.727h-7.428a2.757,2.757,0,0,1-2.786-2.727V-132.3a2.758,2.758,0,0,1,2.786-2.728h7.428a2.758,2.758,0,0,1,2.786,2.728Z"/><g class="aul_disable" transform="translate(1900.384 -131.528) rotate(90)"><rect class="dul" width="1" height="7"/><rect class="cul" x="0.5" y="0.5" height="6"/></g><g class="aul_disable" transform="translate(1900.384 -129.528) rotate(90)"><rect class="dul" width="1" height="7"/><rect class="cul" x="0.5" y="0.5" height="6"/></g><path class="aul_disable" d="M1900.384-135.028v-2c0-1.64-1.009-3-2.5-3h-2c-1.491,0-2.5,1.25-2.5,3v2" transform="translate(-5)"/><g class="bul" transform="translate(1900.419 -134.27) rotate(45)"><rect class="dul" width="1" height="11"/><rect class="cul" x="0.5" y="0.5" height="10"/></g></g><rect class="cul" width="16" height="16"/></svg>
