<svg xmlns="http://www.w3.org/2000/svg" width="16" height="16" viewBox="0 0 16 16">
	<path fill="transparent" d="M0 0h16v16H0z"/>
	<path fill="#006ce0" d="M8.54 16h-.99a1.41 1.41 0 0 1-1.1-.45 1.51 1.51 0 0 1-.41-1.05v-.8a.96.96 0 0 0-.3-.11.54.54 0 0 1-.22-.1l-.6.5a1.48 1.48 0 0 1-1.1.47 1.47 1.47 0 0 1-1.1-.47l-.7-.7a1.48 1.48 0 0 1-.37-.5 1.4 1.4 0 0 1-.13-.58 1.46 1.46 0 0 1 .13-.6 1.46 1.46 0 0 1 .36-.5l.61-.61q-.1-.14-.15-.25A.5.5 0 0 1 2.4 10h-.9a1.47 1.47 0 0 1-1.1-.42A1.48 1.48 0 0 1 0 8.5v-1a1.47 1.47 0 0 1 .41-1.1 1.49 1.49 0 0 1 1.1-.4h.8a1.03 1.03 0 0 0 .1-.28.37.37 0 0 1 .1-.22L2 4.9a1.78 1.78 0 0 1-.37-.52 1.38 1.38 0 0 1-.13-.59 1.38 1.38 0 0 1 .13-.58A1.77 1.77 0 0 1 2 2.7l.7-.7a1.51 1.51 0 0 1 1.1-.45A1.51 1.51 0 0 1 4.93 2l.6.6a.45.45 0 0 1 .22-.18l.3-.12v-.8a1.47 1.47 0 0 1 .4-1.09 1.49 1.49 0 0 1 1.1-.4h1a1.48 1.48 0 0 1 1.1.4 1.46 1.46 0 0 1 .41 1.1v.8a1.43 1.43 0 0 0 .3.09.41.41 0 0 1 .22.11l.6-.51a1.51 1.51 0 0 1 1.1-.45 1.51 1.51 0 0 1 1.11.45l.7.7a1.5 1.5 0 0 1 .45 1.1 1.5 1.5 0 0 1-.43 1.1l-.62.6.16.25a.5.5 0 0 1 .05.25h.8a1.43 1.43 0 0 1 1.1.44 1.49 1.49 0 0 1 .42 1.06v1a1.42 1.42 0 0 1-.45 1.08 1.5 1.5 0 0 1-1.06.42h-.8a1 1 0 0 0-.1.29.32.32 0 0 1-.12.2l.61.62a1.48 1.48 0 0 1 .45 1.09 1.48 1.48 0 0 1-.45 1.09l-.7.7a1.48 1.48 0 0 1-1.1.46 1.48 1.48 0 0 1-1.12-.46l-.59-.59a1.83 1.83 0 0 0-.26.13.5.5 0 0 1-.26.06v.8a1.65 1.65 0 0 1-.4 1.18 1.45 1.45 0 0 1-1.12.43Zm-3.3-3.9.4.2a2.06 2.06 0 0 0 .5.24l.6.16.4.1v1.59a.58.58 0 0 0 .13.34.43.43 0 0 0 .37.17h1.01a.54.54 0 0 0 .32-.14.46.46 0 0 0 .18-.37v-1.6l.4-.09a2.32 2.32 0 0 0 .55-.2 2.33 2.33 0 0 1 .56-.2l.4-.2 1.1 1.2a.43.43 0 0 0 .33.16.3.3 0 0 0 .29-.17l.68-.68a.5.5 0 0 0 .17-.35.26.26 0 0 0-.17-.26l-1.2-1.1.21-.4a2.64 2.64 0 0 0 .24-.52q.1-.28.16-.59l.1-.4h1.6a.56.56 0 0 0 .34-.14.43.43 0 0 0 .18-.35v-1a.52.52 0 0 0-.15-.32.46.46 0 0 0-.37-.18h-1.6l-.1-.4a2.48 2.48 0 0 0-.2-.56 2.67 2.67 0 0 1-.2-.54l-.21-.4 1.2-1.22a.42.42 0 0 0 .17-.33.26.26 0 0 0-.17-.25l-.68-.7a.54.54 0 0 0-.36-.14.26.26 0 0 0-.26.14l-1.1 1.2-.4-.19a1.75 1.75 0 0 0-.53-.25l-.59-.15-.5-.12V1.5a.48.48 0 0 0-.17-.31.5.5 0 0 0-.35-.18h-.99a.5.5 0 0 0-.34.18.48.48 0 0 0-.18.31v1.6l-.4.12a2.64 2.64 0 0 0-.55.18 4.22 4.22 0 0 1-.55.21l-.29.29-1.1-1.2a.54.54 0 0 0-.36-.15.26.26 0 0 0-.26.15l-.8.7a.42.42 0 0 0-.16.33.3.3 0 0 0 .16.28l1.21 1.1-.19.5a1.73 1.73 0 0 0-.24.51l-.18.59-.19.3h-1.6a.5.5 0 0 0-.35.17.48.48 0 0 0-.18.32v1a.48.48 0 0 0 .18.32.51.51 0 0 0 .34.18h1.6l.1.4a2.32 2.32 0 0 0 .2.56 2.25 2.25 0 0 1 .2.55l.22.4-1.2 1.1a.24.24 0 0 0-.1.15 1.27 1.27 0 0 0-.02.15.84.84 0 0 0 .01.14.33.33 0 0 0 .1.17l.7.68a.5.5 0 0 0 .35.16.26.26 0 0 0 .26-.16ZM8 11a2.86 2.86 0 0 1-2.13-.89A2.92 2.92 0 0 1 5 8.01a2.88 2.88 0 0 1 .9-2.1A2.88 2.88 0 0 1 8 5a2.88 2.88 0 0 1 2.1.9A2.88 2.88 0 0 1 11 8a2.92 2.92 0 0 1-.86 2.1A2.86 2.86 0 0 1 8 11Zm0-4.99a1.92 1.92 0 0 0-1.4.59A1.92 1.92 0 0 0 6 8a1.95 1.95 0 0 0 .59 1.43 1.92 1.92 0 0 0 1.4.59 1.92 1.92 0 0 0 1.4-.59A1.95 1.95 0 0 0 10 8a1.92 1.92 0 0 0-.6-1.4A1.92 1.92 0 0 0 8 6Z"/>
</svg>
