<svg xmlns="http://www.w3.org/2000/svg" width="16" height="16" viewBox="0 0 16 16"><defs><style>.al,.bl{fill:none;}.al{stroke:#54657d;stroke-miterlimit:10;}.cl{stroke:none;}</style></defs><g transform="translate(-1888.884 140.528)"><path class="al" d="M1903.384-127.755a2.757,2.757,0,0,1-2.786,2.727h-7.428a2.757,2.757,0,0,1-2.786-2.727V-132.3a2.758,2.758,0,0,1,2.786-2.728h7.428a2.758,2.758,0,0,1,2.786,2.728Z"/><g class="al" transform="translate(1900.384 -131.528) rotate(90)"><rect class="cl" width="1" height="7"/><rect class="bl" x="0.5" y="0.5" height="6"/></g><g class="al" transform="translate(1900.384 -129.528) rotate(90)"><rect class="cl" width="1" height="7"/><rect class="bl" x="0.5" y="0.5" height="6"/></g><path class="al" d="M1900.384-135.028v-2c0-1.64-1.009-3-2.5-3h-2c-1.491,0-2.5,1.25-2.5,3v2"/></g><rect class="bl" width="16" height="16"/></svg>
