<svg xmlns="http://www.w3.org/2000/svg" width="16" height="16" viewBox="0 0 16 16"><defs><style>.w-item-service-a,.w-item-service-b{fill:none;}.w-item-service-a{stroke:#006ce0;stroke-miterlimit:10;}</style></defs><g transform="translate(530.326 -546.593)"><path class="w-item-service-a" d="M-515.826,554.693a6.5,6.5,0,0,1-6.5,6.5,6.5,6.5,0,0,1-6.5-6.5,6.5,6.5,0,0,1,6.5-6.5A6.5,6.5,0,0,1-515.826,554.693Z" transform="translate(0 -0.099)"/><path class="w-item-service-a" d="M-519.826,554.593c0,3.534-1.119,6.4-2.5,6.4s-2.5-2.866-2.5-6.4,1.119-6.4,2.5-6.4S-519.826,551.058-519.826,554.593Z"/><line class="w-item-service-a" x2="12" transform="translate(-528.326 552.093)"/><line class="w-item-service-a" x2="12" transform="translate(-528.326 557.093)"/></g><rect class="w-item-service-b" width="16" height="16"/></svg>