<svg xmlns="http://www.w3.org/2000/svg" width="16" height="16" viewbox="0 0 16 16"><defs/><g transform="translate(0)"><g transform="translate(-44.188 305.066)"><g transform="translate(-2 -10)" style="fill: none; stroke-miterlimit: 10;"><path d="M62.188-288.066h-7v-7h3l1,1h3Z" style="stroke: none;"/><path d="M 61.18750381469727 -289.0664367675781 L 61.18750381469727 -293.06640625 L 59.18750381469727 -293.06640625 L 58.77328491210938 -293.06640625 L 58.48038482666016 -293.3593139648438 L 57.77327346801758 -294.0664367675781 L 56.18750381469727 -294.0664367675781 L 56.18750381469727 -289.0664367675781 L 61.18750381469727 -289.0664367675781 M 62.18750381469727 -288.0664367675781 L 55.18750381469727 -288.0664367675781 L 55.18750381469727 -295.0664367675781 L 58.18750381469727 -295.0664367675781 L 59.18750381469727 -294.06640625 L 62.18750381469727 -294.06640625 L 62.18750381469727 -288.0664367675781 Z" style="fill: #999; stroke: none;"/></g><g transform="translate(-2 -1)" style="fill: none; stroke-miterlimit: 10;"><path d="M62.188-288.066h-7v-7h3l1,1h3Z" style="stroke: none;"/><path d="M 61.18750381469727 -289.0664367675781 L 61.18750381469727 -293.06640625 L 59.18750381469727 -293.06640625 L 58.77328491210938 -293.06640625 L 58.48038482666016 -293.3593139648438 L 57.77327346801758 -294.0664367675781 L 56.18750381469727 -294.0664367675781 L 56.18750381469727 -289.0664367675781 L 61.18750381469727 -289.0664367675781 M 62.18750381469727 -288.0664367675781 L 55.18750381469727 -288.0664367675781 L 55.18750381469727 -295.0664367675781 L 58.18750381469727 -295.0664367675781 L 59.18750381469727 -294.06640625 L 62.18750381469727 -294.06640625 L 62.18750381469727 -288.0664367675781 Z" style="fill: #999; stroke: none;"/></g></g><rect width="16" height="16" transform="translate(0 0)" style="fill: none;"/><g transform="translate(0.5 3)"><path d="M-489.054,769.463v-.5a2.007,2.007,0,0,1,2-2h3" transform="translate(489.054 -765.463)" style="fill: none; stroke-miterlimit: 10; stroke: #999;"/><path d="M4,1.5,0,3V0L4,1.5" transform="translate(4.5)" style="fill: #999;"/><path d="M-.5,5.5V2a2.007,2.007,0,0,1,2-2H6.266" transform="translate(0 10) rotate(-90)" style="fill: none; stroke-miterlimit: 10; stroke: #999;"/></g></g></svg>
