<svg width="17" height="16" viewBox="0 0 17 16" fill="none" xmlns="http://www.w3.org/2000/svg">
<path d="M4.04284 9.8384C4.04284 10.0354 3.96457 10.2244 3.82526 10.3637C3.68595 10.503 3.497 10.5813 3.29998 10.5813C3.10297 10.5813 2.91402 10.503 2.77471 10.3637C2.63539 10.2244 2.55713 10.0354 2.55713 9.8384V6.49554C2.55713 6.29852 2.63539 6.10958 2.77471 5.97026C2.91402 5.83095 3.10297 5.75269 3.29998 5.75269C3.497 5.75269 3.68595 5.83095 3.82526 5.97026C3.96457 6.10958 4.04284 6.29852 4.04284 6.49554V9.8384ZM14.4428 9.8384C14.4428 10.0354 14.3645 10.2244 14.2252 10.3637C14.0859 10.503 13.897 10.5813 13.7 10.5813C13.5029 10.5813 13.314 10.503 13.1747 10.3637C13.0354 10.2244 12.9571 10.0354 12.9571 9.8384V6.49554C12.9571 6.29852 13.0354 6.10958 13.1747 5.97026C13.314 5.83095 13.5029 5.75269 13.7 5.75269C13.897 5.75269 14.0859 5.83095 14.2252 5.97026C14.3645 6.10958 14.4428 6.29852 14.4428 6.49554V9.8384ZM7.75711 13.9237C7.75711 14.1208 7.67885 14.3097 7.53954 14.449C7.40022 14.5883 7.21128 14.6666 7.01426 14.6666C6.81724 14.6666 6.62829 14.5883 6.48898 14.449C6.34967 14.3097 6.2714 14.1208 6.2714 13.9237V10.5809C6.2714 10.3839 6.34967 10.1949 6.48898 10.0556C6.62829 9.9163 6.81724 9.83803 7.01426 9.83803C7.21128 9.83803 7.40022 9.9163 7.53954 10.0556C7.67885 10.1949 7.75711 10.3839 7.75711 10.5809V13.9237ZM10.7285 13.9237C10.7285 14.1208 10.6503 14.3097 10.511 14.449C10.3716 14.5883 10.1827 14.6666 9.98568 14.6666C9.78866 14.6666 9.59971 14.5883 9.4604 14.449C9.32109 14.3097 9.24282 14.1208 9.24282 13.9237V10.5809C9.24282 10.3839 9.32109 10.1949 9.4604 10.0556C9.59971 9.9163 9.78866 9.83803 9.98568 9.83803C10.1827 9.83803 10.3716 9.9163 10.511 10.0556C10.6503 10.1949 10.7285 10.3839 10.7285 10.5809V13.9237Z" fill="#7CB342"/>
<path d="M4.78613 5.75274V11.3238C4.78613 11.5208 4.8644 11.7098 5.00371 11.8491C5.14302 11.9884 5.33197 12.0667 5.52899 12.0667H11.4718C11.6688 12.0667 11.8578 11.9884 11.9971 11.8491C12.1364 11.7098 12.2147 11.5208 12.2147 11.3238V5.75274H4.78613ZM8.50041 2.03809C6.27184 2.03809 4.91428 3.39194 4.78613 5.00952H12.2147C12.0862 3.39194 10.729 2.03809 8.50041 2.03809ZM7.0147 4.11734C6.91619 4.11734 6.82171 4.07821 6.75206 4.00855C6.6824 3.9389 6.64327 3.84442 6.64327 3.74591C6.64327 3.64741 6.6824 3.55293 6.75206 3.48328C6.82171 3.41362 6.91619 3.37449 7.0147 3.37449C7.11321 3.37449 7.20768 3.41362 7.27734 3.48328C7.34699 3.55293 7.38613 3.64741 7.38613 3.74591C7.38613 3.84442 7.34699 3.9389 7.27734 4.00855C7.20768 4.07821 7.11321 4.11734 7.0147 4.11734ZM9.98612 4.11734C9.88761 4.11734 9.79313 4.07821 9.72348 4.00855C9.65382 3.9389 9.61469 3.84442 9.61469 3.74591C9.61469 3.64741 9.65382 3.55293 9.72348 3.48328C9.79313 3.41362 9.88761 3.37449 9.98612 3.37449C10.0846 3.37449 10.1791 3.41362 10.2488 3.48328C10.3184 3.55293 10.3575 3.64741 10.3575 3.74591C10.3575 3.84442 10.3184 3.9389 10.2488 4.00855C10.1791 4.07821 10.0846 4.11734 9.98612 4.11734Z" fill="#7CB342"/>
<path d="M10.7286 1.66663L10.1098 2.59483M6.27148 1.66663L6.7666 2.43994" stroke="#7CB342" stroke-width="0.742856" stroke-linecap="round"/>
</svg>
