<svg width="17" height="17" viewBox="0 0 17 17" fill="none" xmlns="http://www.w3.org/2000/svg">
<path d="M8.5 1.56641C7.21442 1.56641 5.95772 1.94762 4.8888 2.66185C3.81988 3.37608 2.98676 4.39124 2.49479 5.57896C2.00282 6.76668 1.87409 8.07362 2.1249 9.33449C2.3757 10.5954 2.99477 11.7536 3.90381 12.6626C4.81285 13.5716 5.97104 14.1907 7.23192 14.4415C8.49279 14.6923 9.79973 14.5636 10.9874 14.0716C12.1752 13.5797 13.1903 12.7465 13.9046 11.6776C14.6188 10.6087 15 9.35198 15 8.06641C14.9967 6.34351 14.3108 4.69213 13.0925 3.47386C11.8743 2.25559 10.2229 1.56971 8.5 1.56641ZM11.4625 8.26016C11.4352 8.32074 11.3971 8.37582 11.35 8.42266L9.23125 10.5414C9.18587 10.5881 9.13139 10.6249 9.07118 10.6496C9.01098 10.6744 8.94633 10.6865 8.88125 10.6852C8.81523 10.6866 8.74961 10.6746 8.68837 10.6499C8.62713 10.6251 8.57155 10.5882 8.525 10.5414C8.4315 10.4477 8.37898 10.3207 8.37898 10.1883C8.37898 10.0559 8.4315 9.92889 8.525 9.83516L9.79375 8.56641H6C5.86739 8.56641 5.74022 8.51373 5.64645 8.41996C5.55268 8.32619 5.5 8.19901 5.5 8.06641C5.5 7.9338 5.55268 7.80662 5.64645 7.71285C5.74022 7.61908 5.86739 7.56641 6 7.56641H9.79375L8.525 6.29766C8.43882 6.20254 8.39252 6.07793 8.39568 5.94962C8.39884 5.82131 8.45122 5.69913 8.54197 5.60838C8.63273 5.51762 8.75491 5.46524 8.88322 5.46208C9.01153 5.45892 9.13614 5.50523 9.23125 5.59141L11.35 7.71016C11.3971 7.757 11.4352 7.81207 11.4625 7.87266C11.5126 7.99697 11.5126 8.13584 11.4625 8.26016Z" fill="currentColor"/>
</svg>