<svg width="16" height="17" viewBox="0 0 16 17" fill="none" xmlns="http://www.w3.org/2000/svg">
<path fill-rule="evenodd" clip-rule="evenodd" d="M4.5 2.39844C3.67157 2.39844 3 3.07001 3 3.89844V12.8984C3 13.7269 3.67157 14.3984 4.5 14.3984H11.5C12.3284 14.3984 13 13.7269 13 12.8984V3.89844C13 3.07001 12.3284 2.39844 11.5 2.39844H4.5ZM4.99805 3.89844C4.7219 3.89844 4.49805 4.1223 4.49805 4.39844V6.39844C4.49805 6.67458 4.7219 6.89844 4.99805 6.89844H11.0029C11.2791 6.89844 11.5029 6.67458 11.5029 6.39844V4.39844C11.5029 4.1223 11.2791 3.89844 11.0029 3.89844H4.99805ZM4.99414 8.39844C4.718 8.39844 4.49414 8.6223 4.49414 8.89844V9.56844C4.49414 9.84458 4.718 10.0684 4.99414 10.0684H5.66414C5.94028 10.0684 6.16414 9.84458 6.16414 9.56844V8.89844C6.16414 8.6223 5.94028 8.39844 5.66414 8.39844H4.99414ZM7.16406 8.89844C7.16406 8.6223 7.38792 8.39844 7.66406 8.39844H8.33406C8.6102 8.39844 8.83406 8.6223 8.83406 8.89844V9.56844C8.83406 9.84458 8.6102 10.0684 8.33406 10.0684H7.66406C7.38792 10.0684 7.16406 9.84458 7.16406 9.56844V8.89844ZM10.334 8.39844C10.0578 8.39844 9.83398 8.6223 9.83398 8.89844V9.56844C9.83398 9.84458 10.0578 10.0684 10.334 10.0684H11.004C11.2801 10.0684 11.504 9.84458 11.504 9.56844V8.89844C11.504 8.6223 11.2801 8.39844 11.004 8.39844H10.334ZM4.49414 11.5684C4.49414 11.2922 4.718 11.0684 4.99414 11.0684H5.66414C5.94028 11.0684 6.16414 11.2922 6.16414 11.5684V12.2384C6.16414 12.5145 5.94028 12.7384 5.66414 12.7384H4.99414C4.718 12.7384 4.49414 12.5145 4.49414 12.2384V11.5684ZM7.66406 11.0684C7.38792 11.0684 7.16406 11.2922 7.16406 11.5684V12.2384C7.16406 12.5145 7.38792 12.7384 7.66406 12.7384H8.33406C8.6102 12.7384 8.83406 12.5145 8.83406 12.2384V11.5684C8.83406 11.2922 8.6102 11.0684 8.33406 11.0684H7.66406ZM9.83398 11.5684C9.83398 11.2922 10.0578 11.0684 10.334 11.0684H11.004C11.2801 11.0684 11.504 11.2922 11.504 11.5684V12.2384C11.504 12.5145 11.2801 12.7384 11.004 12.7384H10.334C10.0578 12.7384 9.83398 12.5145 9.83398 12.2384V11.5684Z" fill="currentColor"/>
</svg>
