<svg width="16" height="17" viewBox="0 0 16 17" fill="none" xmlns="http://www.w3.org/2000/svg">
<path fill-rule="evenodd" clip-rule="evenodd" d="M3.5 2.39844C2.67157 2.39844 2 3.07154 2 3.90186V10.2872C2 11.1175 2.67157 11.7907 3.5 11.7907H4.84368V13.8964C4.84368 14.3117 5.31887 14.5468 5.6478 14.2942L8.9074 11.7907H12.5C13.3284 11.7907 14 11.1175 14 10.2872V3.90186C14 3.07154 13.3284 2.39844 12.5 2.39844H3.5ZM7.99663 3.89101C8.45779 3.89101 8.83163 4.26571 8.83163 4.72792V6.35663C8.83163 6.81884 8.45779 7.19353 7.99663 7.19353C7.53547 7.19353 7.16163 6.81884 7.16163 6.35663V4.72792C7.16163 4.26571 7.53547 3.89101 7.99663 3.89101ZM6.99663 9.25516C6.99663 8.70161 7.44434 8.25288 7.99663 8.25288H8.00329C8.55558 8.25288 9.00329 8.70161 9.00329 9.25516C9.00329 9.80871 8.55558 10.2574 8.00329 10.2574H7.99663C7.44434 10.2574 6.99663 9.80871 6.99663 9.25516Z" fill="currentColor"/>
</svg>
