<svg width="16" height="16" viewBox="0 0 16 16" fill="none" xmlns="http://www.w3.org/2000/svg">
<path d="M8.90992 2.91063C8.90992 2.4077 8.50222 2 7.99929 2C7.49636 2 7.08865 2.4077 7.08865 2.91063V7.09079H2.91063C2.4077 7.09079 2 7.49849 2 8.00142C2 8.50435 2.4077 8.91205 2.91063 8.91205H7.08865V13.0894C7.08865 13.5923 7.49636 14 7.99929 14C8.50222 14 8.90992 13.5923 8.90992 13.0894V8.91205H13.0894C13.5923 8.91205 14 8.50435 14 8.00142C14 7.49849 13.5923 7.09079 13.0894 7.09079H8.90992V2.91063Z" fill="currentColor"/>
</svg>
