<svg width="16" height="16" viewBox="0 0 16 16" fill="none" xmlns="http://www.w3.org/2000/svg">
	<path d="M7.32983 7.32574C8.8018 7.32574 9.99507 6.13354 9.99507 4.66287C9.99507 3.19221 8.8018 2 7.32983 2C5.85786 2 4.66459 3.19221 4.66459 4.66287C4.66459 6.13354 5.85786 7.32574 7.32983 7.32574Z" fill="currentColor"/>
	<path d="M6.14491 12.729C6.14491 13.2464 6.36108 13.6765 6.69464 14H2V12.6686C2 11.9623 2.2808 11.285 2.78063 10.7856C3.28046 10.2862 3.95837 10.0057 4.66524 10.0057H6.36533C6.22594 10.2526 6.14491 10.5366 6.14491 10.8534V12.729Z" fill="currentColor"/>
	<path fill-rule="evenodd" clip-rule="evenodd" d="M12.7466 9.40608V8.47887C12.7466 7.99043 12.4629 7.60963 12.1287 7.37568C11.7926 7.14033 11.3601 7.01367 10.9108 7.01367H10.5202C10.0719 7.01367 9.63972 7.14052 9.30371 7.37542C8.97002 7.6087 8.68444 7.98933 8.68444 8.47887V9.40841C8.00114 9.46636 7.46462 10.0396 7.46462 10.7383V12.4271C7.46462 13.1643 8.06187 13.7618 8.79862 13.7618H12.6645C13.4012 13.7618 13.9985 13.1643 13.9985 12.4271V10.7383C13.9985 10.0287 13.4451 9.44851 12.7466 9.40608ZM9.88326 8.47338C9.88237 8.47641 9.88231 8.47887 9.88231 8.47887V9.21992H11.5487V8.47887C11.5487 8.47887 11.5486 8.47588 11.5477 8.47271C11.5467 8.4693 11.5442 8.46234 11.5379 8.45198C11.5249 8.43049 11.4965 8.39584 11.4419 8.35762C11.3303 8.2795 11.1444 8.21219 10.9108 8.21219H10.5202C10.2884 8.21219 10.1022 8.27931 9.9898 8.35788C9.93482 8.39631 9.90614 8.43116 9.89304 8.45277C9.88673 8.46318 9.88423 8.4701 9.88326 8.47338ZM10.1704 11.3319C10.1704 11.031 10.4143 10.7871 10.7152 10.7871C11.0161 10.7871 11.26 11.031 11.26 11.3319V11.8767C11.26 12.1775 11.0161 12.4214 10.7152 12.4214C10.4143 12.4214 10.1704 12.1775 10.1704 11.8767V11.3319Z" fill="currentColor"/>
</svg>
