<svg width="16" height="16" viewBox="0 0 16 16" fill="none" xmlns="http://www.w3.org/2000/svg">
<path fill-rule="evenodd" clip-rule="evenodd" d="M4.45117 2C4.17503 2 3.95117 2.22386 3.95117 2.5C3.95117 2.77614 4.17503 3 4.45117 3H10.6428C10.9189 3 11.1428 3.22386 11.1428 3.5V13.5001C11.1428 13.7762 11.3666 14.0001 11.6428 14.0001C11.6516 14.0001 11.6604 13.9998 11.6692 13.9994H14.201C14.6428 13.9994 15.001 13.6412 15.001 13.1994V6.17695C15.001 5.73513 14.6428 5.37695 14.201 5.37695H12.1428V3.5C12.1428 2.67157 11.4712 2 10.6428 2H4.45117ZM12.1428 6.37695V7.30664H12.8718C12.9822 7.30664 13.0718 7.39618 13.0718 7.50664V8.05944C13.0718 8.1699 12.9822 8.25944 12.8718 8.25944H12.1428V9.21094H12.8718C12.9822 9.21094 13.0718 9.30048 13.0718 9.41094V9.96374C13.0718 10.0742 12.9822 10.1637 12.8718 10.1637H12.1428V11.1191H12.8718C12.9822 11.1191 13.0718 11.2087 13.0718 11.3191V11.8719C13.0718 11.9824 12.9822 12.0719 12.8718 12.0719H12.1428V12.9994H14.001V6.37695H12.1428Z" fill="currentColor"/>
<path d="M10.2126 5.43444C10.2126 5.5449 10.123 5.63444 10.0126 5.63444H9.45977C9.34931 5.63444 9.25977 5.5449 9.25977 5.43444V4.88164C9.25977 4.77118 9.34931 4.68164 9.45977 4.68164H10.0126C10.123 4.68164 10.2126 4.77118 10.2126 4.88164V5.43444Z" fill="currentColor"/>
<path d="M6.10612 9.63592C7.24013 9.63592 8.15942 8.71662 8.15942 7.58261C8.15942 6.44859 7.24013 5.5293 6.10612 5.5293C4.97211 5.5293 4.05281 6.44859 4.05281 7.58261C4.05281 8.71662 4.97211 9.63592 6.10612 9.63592Z" fill="currentColor"/>
<path d="M9.21324 13.9992C9.76552 13.9992 10.2132 13.5515 10.2132 12.9992V12.9725C10.2132 12.428 9.99691 11.9057 9.61184 11.5206C9.22677 11.1356 8.7045 10.9192 8.15993 10.9192H4.05331C3.50874 10.9192 2.98647 11.1356 2.6014 11.5206C2.21633 11.9057 2 12.428 2 12.9725V12.9992C2 13.5515 2.44772 13.9992 3 13.9992H9.21324Z" fill="currentColor"/>
<path d="M10.2126 9.24694C10.2126 9.3574 10.123 9.44694 10.0126 9.44694H9.45977C9.34931 9.44694 9.25977 9.3574 9.25977 9.24694V8.69414C9.25977 8.58368 9.34931 8.49414 9.45977 8.49414H10.0126C10.123 8.49414 10.2126 8.58368 10.2126 8.69414V9.24694Z" fill="currentColor"/>
<path d="M10.0126 7.54265C10.123 7.54265 10.2126 7.4531 10.2126 7.34265V6.78984C10.2126 6.67939 10.123 6.58984 10.0126 6.58984H9.45977C9.34931 6.58984 9.25977 6.67939 9.25977 6.78984V7.34265C9.25977 7.4531 9.34931 7.54265 9.45977 7.54265H10.0126Z" fill="currentColor"/>
</svg>
