<svg width="16" height="16" viewBox="0 0 16 16" fill="none" xmlns="http://www.w3.org/2000/svg">
<path d="M8.38559 2.08797C8.1429 1.97068 7.85724 1.97068 7.61455 2.08797L2.54402 4.5386C1.90865 4.84567 1.90865 5.72211 2.54402 6.02919L7.61455 8.47981C7.85724 8.59711 8.1429 8.59711 8.38559 8.47981L13.4561 6.02919C14.0915 5.72211 14.0915 4.84567 13.4561 4.5386L8.38559 2.08797Z" fill="currentColor"/>
<path d="M2.07615 10.441C2.25393 10.0973 2.6863 9.95795 3.04187 10.1298L8 12.5261L12.9581 10.1298C13.3137 9.95795 13.7461 10.0973 13.9239 10.441C14.1016 10.7847 13.9575 11.2026 13.6019 11.3744L8.32191 13.9263C8.11926 14.0243 7.88074 14.0243 7.67809 13.9263L2.39806 11.3744C2.04249 11.2026 1.89836 10.7847 2.07615 10.441Z" fill="currentColor"/>
<path d="M3.04187 7.57826C2.6863 7.40641 2.25393 7.54573 2.07615 7.88943C1.89836 8.23313 2.04249 8.65106 2.39806 8.82291L7.67809 11.3748C7.88074 11.4727 8.11926 11.4727 8.32191 11.3748L13.6019 8.82291C13.9575 8.65106 14.1016 8.23313 13.9239 7.88943C13.7461 7.54573 13.3137 7.40641 12.9581 7.57826L8 9.97457L3.04187 7.57826Z" fill="currentColor"/>
</svg>
