<svg width="16" height="17" viewBox="0 0 16 17" fill="none" xmlns="http://www.w3.org/2000/svg">
<path fill-rule="evenodd" clip-rule="evenodd" d="M3 3.39844C2.44772 3.39844 2 3.84615 2 4.39844V12.3984C2 12.9507 2.44772 13.3984 3 13.3984H13C13.5523 13.3984 14 12.9507 14 12.3984V4.39844C14 3.84615 13.5523 3.39844 13 3.39844H3ZM6.20761 8.10056C6.46298 7.83354 6.60645 7.47137 6.60645 7.09375C6.60645 6.71613 6.46298 6.35402 6.20761 6.087C5.95224 5.81998 5.60589 5.66992 5.24475 5.66992C4.8836 5.66992 4.53725 5.81998 4.28188 6.087C4.02651 6.35402 3.88304 6.71613 3.88304 7.09375C3.88304 7.47137 4.02651 7.83354 4.28188 8.10056C4.53725 8.36758 4.8836 8.51758 5.24475 8.51758C5.60589 8.51758 5.95224 8.36758 6.20761 8.10056ZM3.55238 9.45556C3.31882 9.74861 3.15102 10.088 3.0564 10.4491C2.92418 10.9538 3.37751 11.3652 3.8992 11.3652H6.59023C7.11193 11.3652 7.56525 10.9538 7.43303 10.4491C7.33842 10.088 7.17061 9.74861 6.93706 9.45556C6.53463 8.95062 5.96758 8.62163 5.34753 8.53046C5.27937 8.52044 5.21006 8.52044 5.1419 8.53046C4.52185 8.62163 3.9548 8.95062 3.55238 9.45556ZM12.0703 5.89844H9.4668C9.19065 5.89844 8.9668 6.1223 8.9668 6.39844C8.9668 6.67458 9.19065 6.89844 9.4668 6.89844H12.0703C12.3465 6.89844 12.5703 6.67458 12.5703 6.39844C12.5703 6.1223 12.3465 5.89844 12.0703 5.89844ZM9.4668 7.89844H12.0703C12.3465 7.89844 12.5703 8.1223 12.5703 8.39844C12.5703 8.67458 12.3465 8.89844 12.0703 8.89844H9.4668C9.19065 8.89844 8.9668 8.67458 8.9668 8.39844C8.9668 8.1223 9.19065 7.89844 9.4668 7.89844ZM10.4487 9.89844H9.4668C9.19065 9.89844 8.9668 10.1223 8.9668 10.3984C8.9668 10.6746 9.19065 10.8984 9.4668 10.8984H10.4487C10.7249 10.8984 10.9487 10.6746 10.9487 10.3984C10.9487 10.1223 10.7249 9.89844 10.4487 9.89844Z" fill="currentColor"/>
</svg>
