<svg width="16" height="16" viewBox="0 0 16 16" fill="none" xmlns="http://www.w3.org/2000/svg">
<path d="M8.00004 13.9967C8.4612 13.9967 8.83504 13.6228 8.83504 13.1617V8.15833L10.2413 9.56627C10.5672 9.89256 11.0959 9.89288 11.4221 9.56699C11.7484 9.2411 11.7488 8.7124 11.4229 8.38612L8.59083 5.55065C8.43421 5.39384 8.22167 5.30573 8.00004 5.30573C7.77841 5.30573 7.56587 5.39384 7.40925 5.55065L4.57722 8.38612C4.25133 8.7124 4.25165 9.2411 4.57793 9.56699C4.90422 9.89288 5.43291 9.89256 5.7588 9.56627L7.16504 8.15833L7.16504 13.1617C7.16504 13.6228 7.53888 13.9967 8.00004 13.9967Z" fill="currentColor"/>
<path d="M2.83598 3.6675C2.37482 3.6675 2.00098 3.29366 2.00098 2.8325C2.00098 2.37134 2.37482 1.9975 2.83598 1.9975H13.166C13.6271 1.9975 14.001 2.37134 14.001 2.8325C14.001 3.29366 13.6271 3.6675 13.166 3.6675H2.83598Z" fill="currentColor"/>
</svg>
