<svg width="17" height="16" viewBox="0 0 17 16" fill="none" xmlns="http://www.w3.org/2000/svg">
<path fill-rule="evenodd" clip-rule="evenodd" d="M3.25 1H13.75C14.214 1.00049 14.6588 1.18503 14.9869 1.51311C15.315 1.84119 15.4995 2.28602 15.5 2.75V13.25C15.4995 13.714 15.315 14.1588 14.9869 14.4869C14.6588 14.815 14.214 14.9995 13.75 15H3.25C2.78602 14.9995 2.34119 14.815 2.01311 14.4869C1.68503 14.1588 1.50049 13.714 1.5 13.25V2.75C1.50025 2.28595 1.6847 1.84097 2.01284 1.51284C2.34097 1.1847 2.78595 1.00025 3.25 1ZM11.1255 6.28547V8.02893H13.302L12.4312 10.2055H11.1245V14.9981H8.51121V10.2055H6.76868V8.02893H8.51214V6.28547C8.51214 5.59237 8.78748 4.92766 9.27757 4.43756C9.76767 3.94747 10.4324 3.67213 11.1255 3.67213H12.8689V5.8496H11.9972C11.9586 5.8496 11.9207 5.84931 11.8834 5.84903C11.4556 5.8458 11.1255 5.8433 11.1255 6.28547Z" fill="#3B5999"/>
</svg>
