<svg width="16" height="17" viewBox="0 0 16 17" fill="none" xmlns="http://www.w3.org/2000/svg">
<path fill-rule="evenodd" clip-rule="evenodd" d="M6.42067 4.94605C6.00336 4.73894 5.52194 4.67299 5.05833 4.7594C4.59472 4.84582 4.17755 5.07927 3.87781 5.42004C3.57806 5.76081 3.41426 6.18784 3.41426 6.62848C3.41426 8.00236 4.52318 9.36165 5.82661 10.455C6.45693 10.9837 7.09048 11.415 7.56794 11.7146C7.73396 11.8188 7.88029 11.9066 8 11.9764C8.11971 11.9066 8.26604 11.8188 8.43206 11.7146C8.90952 11.415 9.54307 10.9837 10.1734 10.455C11.4768 9.36165 12.5857 8.00236 12.5857 6.62848C12.5857 6.18784 12.4219 5.76081 12.1222 5.42004C11.8224 5.07927 11.4053 4.84582 10.9417 4.7594C10.4781 4.67299 9.99664 4.73894 9.57933 4.94605C9.16201 5.15316 8.83458 5.48862 8.65273 5.89537C8.54294 6.14096 8.28547 6.30093 8 6.30093C7.71453 6.30093 7.45706 6.14096 7.34727 5.89537C7.16542 5.48862 6.83799 5.15316 6.42067 4.94605ZM8 12.7453C7.6545 13.3204 7.65432 13.3203 7.65412 13.3202L7.65228 13.3192L7.64813 13.317L7.6342 13.3096C7.62244 13.3034 7.60578 13.2945 7.58456 13.2829C7.54213 13.2599 7.48139 13.2264 7.40496 13.1831C7.25218 13.0964 7.0362 12.97 6.77804 12.808C6.26308 12.4848 5.57342 12.0159 4.88052 11.4347C3.53751 10.3082 2 8.60902 2 6.62848C2 5.88313 2.27708 5.1608 2.78411 4.58439C3.29113 4.00798 3.99677 3.61309 4.78097 3.46691C5.56518 3.32074 6.3795 3.4323 7.08539 3.78263C7.4302 3.95375 7.73873 4.17668 8 4.44016C8.26127 4.17668 8.5698 3.95375 8.91461 3.78263C9.6205 3.4323 10.4348 3.32074 11.219 3.46691C12.0032 3.61309 12.7089 4.00798 13.2159 4.58439C13.7229 5.1608 14 5.88313 14 6.62848C14 8.60902 12.4625 10.3082 11.1195 11.4347C10.4266 12.0159 9.73691 12.4848 9.22196 12.808C8.9638 12.97 8.74783 13.0964 8.59504 13.1831C8.51861 13.2264 8.45787 13.2599 8.41544 13.2829C8.39422 13.2945 8.37756 13.3034 8.3658 13.3096L8.35187 13.317L8.34772 13.3192L8.34637 13.3199C8.34618 13.32 8.34551 13.3204 8 12.7453ZM8 12.7453L8.34551 13.3204C8.13085 13.4324 7.86878 13.4322 7.65412 13.3202L8 12.7453Z" fill="currentColor"/>
</svg>
