<svg width="16" height="16" viewBox="0 0 16 16" fill="none" xmlns="http://www.w3.org/2000/svg">
<path d="M5.8916 2C5.01267 2 4.38547 2.14549 3.95353 2.31673C3.73826 2.40207 3.57486 2.4925 3.45582 2.57116C3.39644 2.61039 3.34853 2.64642 3.31105 2.67701C3.30175 2.6846 3.2931 2.69185 3.28509 2.69872L3.21158 2.76802C3.07586 2.91162 3 3.10126 3 3.29865V13.2238C3 13.6525 3.35065 14 3.78319 14C4.21574 14 4.56638 13.6525 4.56638 13.2238V10.0152C4.8003 9.92726 5.22011 9.82149 5.8916 9.82149C6.51049 9.82149 7.03608 10.0216 7.70913 10.2884L7.74944 10.3044C8.38677 10.5572 9.16596 10.8663 10.1084 10.8663C10.9873 10.8663 11.6145 10.7208 12.0465 10.5496C12.2617 10.4643 12.4251 10.3738 12.5442 10.2952C12.6036 10.2559 12.6515 10.2199 12.689 10.1893C12.7077 10.174 12.7238 10.1601 12.7373 10.1479C12.7441 10.1418 12.7503 10.1361 12.7558 10.1309L12.7637 10.1234L12.7673 10.1199L12.769 10.1182L12.7698 10.1174C12.7698 10.1174 12.7706 10.1166 12.2168 9.56768L12.7706 10.1166C12.9175 9.97099 13 9.77355 13 9.56768V3.29865C13 2.9847 12.8092 2.70165 12.5165 2.58151C12.2354 2.46609 11.9134 2.52283 11.69 2.72429C11.6869 2.72649 11.6821 2.72993 11.6753 2.73442C11.6461 2.75371 11.5789 2.79389 11.4647 2.83915C11.2378 2.92912 10.8108 3.04484 10.1084 3.04484C9.48951 3.04484 8.96392 2.84477 8.29087 2.57794L8.25056 2.56195C7.61323 2.30911 6.83404 2 5.8916 2Z" fill="currentColor"/>
</svg>
