<svg width="16" height="17" viewBox="0 0 16 17" fill="none" xmlns="http://www.w3.org/2000/svg">
<path fill-rule="evenodd" clip-rule="evenodd" d="M4.26218 3.42389C3.98012 3.98826 4.04835 4.60308 4.29168 5.10226C4.44974 5.42649 4.68743 5.71956 4.98324 5.95935H3.5C2.67157 5.95935 2 6.63136 2 7.46033V7.8868C2 8.53888 2.41554 9.09383 2.99609 9.30098V12.8975C2.99609 13.7264 3.66767 14.3984 4.49609 14.3984H11.4961C12.3245 14.3984 12.9961 13.7264 12.9961 12.8975V9.30375C13.5807 9.0988 14 8.5418 14 7.8868V7.46033C14 6.63136 13.3284 5.95935 12.5 5.95935H11.0278C11.3071 5.72517 11.532 5.44277 11.6837 5.13169C11.927 4.63251 11.9952 4.01769 11.7132 3.45332C11.4311 2.88895 10.8986 2.57476 10.3535 2.47015C9.80926 2.3657 9.21104 2.45605 8.66992 2.72684C8.42211 2.85085 8.19738 3.00715 8.00323 3.18803C7.80211 2.99465 7.56659 2.8281 7.30544 2.69741C6.76432 2.42662 6.1661 2.33627 5.62187 2.44072C5.07677 2.54534 4.54424 2.85952 4.26218 3.42389ZM6.17777 4.95372C5.90528 4.81736 5.72601 4.62096 5.63984 4.4442C5.55407 4.26825 5.57443 4.15396 5.60376 4.09526C5.6331 4.03657 5.71227 3.95171 5.90441 3.91483C6.09743 3.87779 6.36201 3.90351 6.6345 4.03987C6.90699 4.17623 7.08627 4.37263 7.17243 4.54939C7.25821 4.72535 7.23784 4.83964 7.20851 4.89833C7.17918 4.95702 7.10001 5.04189 6.90786 5.07876C6.71484 5.11581 6.45026 5.09009 6.17777 4.95372ZM8.80293 4.57882C8.71715 4.75478 8.73752 4.86907 8.76685 4.92776C8.79618 4.98645 8.87535 5.07132 9.0675 5.10819C9.26052 5.14524 9.5251 5.11952 9.79759 4.98315C10.0701 4.84679 10.2494 4.65039 10.3355 4.47363C10.4213 4.29767 10.4009 4.18338 10.3716 4.12469C10.3423 4.066 10.2631 3.98113 10.0709 3.94426C9.87793 3.90721 9.61335 3.93293 9.34086 4.0693C9.06837 4.20566 8.88909 4.40206 8.80293 4.57882ZM4.99609 12.0969C4.99609 12.2627 5.13041 12.3971 5.29609 12.3971H6.69609C6.86178 12.3971 6.99609 12.2627 6.99609 12.0969V9.69538C6.99609 9.52958 6.86178 9.39518 6.69609 9.39518H5.29609C5.13041 9.39518 4.99609 9.52958 4.99609 9.69538V12.0969ZM9.29609 12.3971C9.13041 12.3971 8.99609 12.2627 8.99609 12.0969V9.69538C8.99609 9.52958 9.13041 9.39518 9.29609 9.39518H10.6961C10.8618 9.39518 10.9961 9.52958 10.9961 9.69538V12.0969C10.9961 12.2627 10.8618 12.3971 10.6961 12.3971H9.29609Z" fill="currentColor"/>
</svg>
