<svg width="17" height="16" viewBox="0 0 17 16" fill="none" xmlns="http://www.w3.org/2000/svg">
<path fill-rule="evenodd" clip-rule="evenodd" d="M15.2 8.15911C15.2 7.66275 15.1554 7.18548 15.0727 6.72729H8.47998V9.43502H12.2473C12.085 10.31 11.5918 11.0514 10.8504 11.5477V13.3041H13.1127C14.4363 12.0855 15.2 10.2909 15.2 8.15911Z" fill="#4285F4"/>
<path fill-rule="evenodd" clip-rule="evenodd" d="M8.48006 15C10.3701 15 11.9546 14.3732 13.1128 13.3041L10.8505 11.5477C10.2237 11.9677 9.42188 12.2159 8.48006 12.2159C6.65688 12.2159 5.1137 10.9846 4.56325 9.33002H2.22461V11.1437C3.37643 13.4314 5.7437 15 8.48006 15Z" fill="#34A853"/>
<path fill-rule="evenodd" clip-rule="evenodd" d="M4.56316 9.33002C4.42316 8.91002 4.34362 8.46138 4.34362 8.00002C4.34362 7.53866 4.42316 7.09002 4.56316 6.67002V4.85638H2.22453C1.75043 5.80138 1.47998 6.87048 1.47998 8.00002C1.47998 9.12957 1.75043 10.1987 2.22453 11.1437L4.56316 9.33002Z" fill="#FBBC05"/>
<path fill-rule="evenodd" clip-rule="evenodd" d="M8.48006 3.78409C9.50779 3.78409 10.4305 4.13727 11.156 4.83091L13.1637 2.82318C11.9514 1.69364 10.3669 1 8.48006 1C5.7437 1 3.37643 2.56864 2.22461 4.85636L4.56325 6.67C5.1137 5.01545 6.65688 3.78409 8.48006 3.78409Z" fill="#EA4335"/>
</svg>
