<svg width="16" height="16" viewBox="0 0 16 16" fill="none" xmlns="http://www.w3.org/2000/svg">
<path fill-rule="evenodd" clip-rule="evenodd" d="M12.5704 5.59961V13.7C12.5704 14.0448 12.4335 14.3754 12.1899 14.6192C11.9463 14.863 11.616 15 11.2715 15H4.77706C4.43257 15 4.1022 14.863 3.85861 14.6192C3.61502 14.3754 3.47818 14.0448 3.47818 13.7V5.59961H3C2.44772 5.59961 2 5.15189 2 4.59961C2 4.04732 2.44772 3.59961 3 3.59961H5.4265V3.3C5.4265 2.95522 5.56335 2.62456 5.80693 2.38076C6.05052 2.13696 6.3809 2 6.72538 2H9.32315C9.66763 2 9.99801 2.13696 10.2416 2.38076C10.4852 2.62456 10.622 2.95522 10.622 3.3V3.59961H13C13.5523 3.59961 14 4.04732 14 4.59961C14 5.15189 13.5523 5.59961 13 5.59961H12.5704ZM6.72655 7.36328C6.99556 7.36328 7.21363 7.58154 7.21363 7.85078V11.7508C7.21363 12.02 6.99556 12.2383 6.72655 12.2383C6.45755 12.2383 6.23947 12.02 6.23947 11.7508V7.85078C6.23947 7.58154 6.45755 7.36328 6.72655 7.36328ZM9.32432 7.36328C9.59332 7.36328 9.8114 7.58154 9.8114 7.85078V11.7508C9.8114 12.02 9.59332 12.2383 9.32432 12.2383C9.05531 12.2383 8.83724 12.02 8.83724 11.7508V7.85078C8.83724 7.58154 9.05531 7.36328 9.32432 7.36328Z" fill="currentColor"/>
</svg>
