<svg width="17" height="16" viewBox="0 0 17 16" fill="none" xmlns="http://www.w3.org/2000/svg">
<path fill-rule="evenodd" clip-rule="evenodd" d="M2.61328 9.31433V3.67798C2.61328 3.16314 3.00418 2.73243 3.51662 2.68267L10.4966 2.00478C11.081 1.94801 11.5876 2.40448 11.5932 2.99023H11.6113H13.6015H13.6293V2.99061C14.1687 3.0053 14.6015 3.44722 14.6015 3.99023V10.6314L13.8014 10.1415C13.7358 10.1013 13.669 10.0664 13.6015 10.0365V9.99023H13.4851C13.1249 9.86275 12.7498 9.87303 12.4147 9.99023H11.6113V10.5923C11.5534 10.6737 11.5027 10.7611 11.4602 10.8537H10.9243C10.8173 10.8537 10.7126 10.864 10.6113 10.8837V10.8835C9.85751 11.03 9.28835 11.6951 9.28835 12.4935V13.4803C9.28835 13.6143 9.30439 13.7445 9.33463 13.8692L7.55227 13.6767L3.50857 13.2509C2.99964 13.1973 2.61328 12.7682 2.61328 12.2564V9.31433ZM5.28638 5.13986C5.54824 4.94402 5.93035 4.98371 6.13984 5.22851L7.00498 6.23944L7.98765 5.20599C8.21045 4.97169 8.59424 4.95058 8.84489 5.15885C9.09553 5.36712 9.1181 5.7259 8.89531 5.96021L7.77463 7.13879L8.91563 8.47207C9.12512 8.71686 9.08266 9.07406 8.8208 9.2699C8.55893 9.46573 8.17683 9.42605 7.96734 9.18125L6.9561 7.99961L6.11952 8.87941C5.89673 9.11372 5.51293 9.13482 5.26229 8.92655C5.01165 8.71828 4.98907 8.3595 5.21187 8.1252L6.18645 7.10025L5.19155 5.93769C4.98206 5.6929 5.02452 5.3357 5.28638 5.13986ZM11.6113 8.99023V6.99023H13.6015V8.99023H11.6113ZM13.6015 5.99023H11.6113V3.99023H13.6015V5.99023ZM13.1059 14.693C12.906 14.8154 12.6492 14.6716 12.6492 14.4372V13.7801H10.9249C10.7592 13.7801 10.6249 13.6458 10.6249 13.4801V12.4934C10.6249 12.3277 10.7592 12.1934 10.9249 12.1934H12.6492V11.5414C12.6492 11.3069 12.906 11.1631 13.1059 11.2855L15.4703 12.7334C15.6614 12.8505 15.6614 13.1281 15.4703 13.2451L13.1059 14.693Z" fill="currentColor"/>
</svg>
