<svg width="16" height="16" viewBox="0 0 16 16" fill="none" xmlns="http://www.w3.org/2000/svg">
<path d="M13.7335 1H2.26653C1.93063 1 1.60848 1.13344 1.37096 1.37096C1.13344 1.60848 1 1.93063 1 2.26653L1 13.7335C1 14.0694 1.13344 14.3915 1.37096 14.629C1.60848 14.8666 1.93063 15 2.26653 15H13.7335C14.0694 15 14.3915 14.8666 14.629 14.629C14.8666 14.3915 15 14.0694 15 13.7335V2.26653C15 1.93063 14.8666 1.60848 14.629 1.37096C14.3915 1.13344 14.0694 1 13.7335 1V1ZM5.33347 13.0885C5.33226 13.1859 5.29303 13.279 5.22415 13.3479C5.15527 13.4168 5.0622 13.456 4.9648 13.4572H3.39493C3.29753 13.456 3.20446 13.4168 3.13558 13.3479C3.06671 13.279 3.02748 13.1859 3.02627 13.0885V6.51227C3.02748 6.41487 3.06671 6.3218 3.13558 6.25292C3.20446 6.18404 3.29753 6.14481 3.39493 6.1436H4.96387C5.06127 6.14481 5.15434 6.18404 5.22322 6.25292C5.29209 6.3218 5.33132 6.41487 5.33253 6.51227L5.33347 13.0885ZM4.17893 5.52387C3.88322 5.52498 3.59384 5.43826 3.34747 5.27473C3.1011 5.11119 2.90882 4.87819 2.79502 4.60525C2.68122 4.33232 2.65101 4.03174 2.70822 3.74161C2.76543 3.45149 2.9075 3.18489 3.1164 2.97559C3.3253 2.7663 3.59164 2.62373 3.88165 2.56597C4.17167 2.50821 4.4723 2.53786 4.74545 2.65115C5.0186 2.76444 5.25196 2.95627 5.41596 3.20234C5.57996 3.44841 5.66722 3.73762 5.66667 4.03333C5.66593 4.42794 5.50904 4.80621 5.23027 5.0855C4.95151 5.36479 4.57353 5.52239 4.17893 5.52387ZM13.53 13.1184C13.53 13.2083 13.4943 13.2944 13.4308 13.358C13.3672 13.4215 13.2811 13.4572 13.1912 13.4572H11.5112C11.4213 13.4572 11.3352 13.4215 11.2716 13.358C11.2081 13.2944 11.1724 13.2083 11.1724 13.1184V10.0337C11.1724 9.5736 11.3077 8.0168 9.97027 8.0168C8.93333 8.0168 8.71867 9.08267 8.67667 9.56053V13.1184C8.67667 13.2083 8.64097 13.2944 8.57743 13.358C8.5139 13.4215 8.42772 13.4572 8.33787 13.4572H6.71013C6.62028 13.4572 6.5341 13.4215 6.47057 13.358C6.40703 13.2944 6.37133 13.2083 6.37133 13.1184V6.4824C6.37133 6.39254 6.40703 6.30637 6.47057 6.24283C6.5341 6.17929 6.62028 6.1436 6.71013 6.1436H8.33787C8.42772 6.1436 8.5139 6.17929 8.57743 6.24283C8.64097 6.30637 8.67667 6.39254 8.67667 6.4824V7.0564C8.90994 6.70232 9.23613 6.41925 9.61953 6.23816C10.0029 6.05708 10.4288 5.98497 10.8504 6.02973C13.5459 6.02973 13.5309 8.54973 13.5309 9.932V13.1147L13.53 13.1184Z" fill="currentColor"/>
</svg>
