<svg width="17" height="16" viewBox="0 0 17 16" fill="none" xmlns="http://www.w3.org/2000/svg">
<path d="M14.2335 1H2.76653C2.43063 1 2.10848 1.13344 1.87096 1.37096C1.63344 1.60848 1.5 1.93063 1.5 2.26653L1.5 13.7335C1.5 14.0694 1.63344 14.3915 1.87096 14.629C2.10848 14.8666 2.43063 15 2.76653 15H14.2335C14.5694 15 14.8915 14.8666 15.129 14.629C15.3666 14.3915 15.5 14.0694 15.5 13.7335V2.26653C15.5 1.93063 15.3666 1.60848 15.129 1.37096C14.8915 1.13344 14.5694 1 14.2335 1V1ZM5.83347 13.0885C5.83226 13.1859 5.79303 13.279 5.72415 13.3479C5.65527 13.4168 5.5622 13.456 5.4648 13.4572H3.89493C3.79753 13.456 3.70446 13.4168 3.63558 13.3479C3.56671 13.279 3.52748 13.1859 3.52627 13.0885V6.51227C3.52748 6.41487 3.56671 6.3218 3.63558 6.25292C3.70446 6.18404 3.79753 6.14481 3.89493 6.1436H5.46387C5.56127 6.14481 5.65434 6.18404 5.72322 6.25292C5.79209 6.3218 5.83132 6.41487 5.83253 6.51227L5.83347 13.0885ZM4.67893 5.52387C4.38322 5.52498 4.09384 5.43826 3.84747 5.27473C3.6011 5.11119 3.40882 4.87819 3.29502 4.60525C3.18122 4.33232 3.15101 4.03174 3.20822 3.74161C3.26543 3.45149 3.4075 3.18489 3.6164 2.97559C3.8253 2.7663 4.09164 2.62373 4.38165 2.56597C4.67167 2.50821 4.9723 2.53786 5.24545 2.65115C5.5186 2.76444 5.75196 2.95627 5.91596 3.20234C6.07996 3.44841 6.16722 3.73762 6.16667 4.03333C6.16593 4.42794 6.00904 4.80621 5.73027 5.0855C5.45151 5.36479 5.07353 5.52239 4.67893 5.52387ZM14.03 13.1184C14.03 13.2083 13.9943 13.2944 13.9308 13.358C13.8672 13.4215 13.7811 13.4572 13.6912 13.4572H12.0112C11.9213 13.4572 11.8352 13.4215 11.7716 13.358C11.7081 13.2944 11.6724 13.2083 11.6724 13.1184V10.0337C11.6724 9.5736 11.8077 8.0168 10.4703 8.0168C9.43333 8.0168 9.21867 9.08267 9.17667 9.56053V13.1184C9.17667 13.2083 9.14097 13.2944 9.07743 13.358C9.0139 13.4215 8.92772 13.4572 8.83787 13.4572H7.21013C7.12028 13.4572 7.0341 13.4215 6.97057 13.358C6.90703 13.2944 6.87133 13.2083 6.87133 13.1184V6.4824C6.87133 6.39254 6.90703 6.30637 6.97057 6.24283C7.0341 6.17929 7.12028 6.1436 7.21013 6.1436H8.83787C8.92772 6.1436 9.0139 6.17929 9.07743 6.24283C9.14097 6.30637 9.17667 6.39254 9.17667 6.4824V7.0564C9.40994 6.70232 9.73613 6.41925 10.1195 6.23816C10.5029 6.05708 10.9288 5.98497 11.3504 6.02973C14.0459 6.02973 14.0309 8.54973 14.0309 9.932V13.1147L14.03 13.1184Z" fill="#0077B7"/>
</svg>
