<svg width="16" height="17" viewBox="0 0 16 17" fill="none" xmlns="http://www.w3.org/2000/svg">
<path fill-rule="evenodd" clip-rule="evenodd" d="M12.5 14.4004C13.3284 14.4004 14 13.7288 14 12.9004V3.90039C14 3.07196 13.3284 2.40039 12.5 2.40039H3.5C2.67157 2.40039 2 3.07196 2 3.90039V12.9004C2 13.7288 2.67157 14.4004 3.5 14.4004H12.5ZM11.9688 5.36914C11.9688 4.81686 11.521 4.36914 10.9688 4.36914H8.96875C8.41647 4.36914 7.96875 4.81686 7.96875 5.36914C7.96875 5.92143 8.41647 6.36914 8.96875 6.36914H10.9688C11.521 6.36914 11.9688 5.92143 11.9688 5.36914ZM8.96875 7.36914C9.52103 7.36914 9.96875 7.81686 9.96875 8.36914C9.96875 8.92143 9.52103 9.36914 8.96875 9.36914H6.96875C6.41647 9.36914 5.96875 8.92143 5.96875 8.36914C5.96875 7.81686 6.41647 7.36914 6.96875 7.36914H8.96875ZM6.96875 12.3691C7.52103 12.3691 7.96875 11.9214 7.96875 11.3691C7.96875 10.8169 7.52103 10.3691 6.96875 10.3691H4.96875C4.41647 10.3691 3.96875 10.8169 3.96875 11.3691C3.96875 11.9214 4.41647 12.3691 4.96875 12.3691H6.96875Z" fill="currentColor"/>
</svg>
