<svg width="16" height="16" viewBox="0 0 16 16" fill="none" xmlns="http://www.w3.org/2000/svg">
<path fill-rule="evenodd" clip-rule="evenodd" d="M7.41476 3.46598C5.23391 3.46598 3.46598 5.23391 3.46598 7.41476C3.46598 9.59562 5.23391 11.3635 7.41476 11.3635C8.47502 11.3635 9.43768 10.9457 10.147 10.2657C10.1643 10.244 10.1829 10.223 10.203 10.203C10.223 10.1829 10.244 10.1643 10.2657 10.147C10.9457 9.43768 11.3635 8.47502 11.3635 7.41476C11.3635 5.23391 9.59562 3.46598 7.41476 3.46598ZM11.7268 10.6902C12.4188 9.78074 12.8295 8.64572 12.8295 7.41476C12.8295 4.42427 10.4053 2 7.41476 2C4.42427 2 2 4.42427 2 7.41476C2 10.4053 4.42427 12.8295 7.41476 12.8295C8.64572 12.8295 9.78074 12.4188 10.6902 11.7268L12.7487 13.7853C13.035 14.0716 13.4991 14.0716 13.7853 13.7853C14.0716 13.4991 14.0716 13.035 13.7853 12.7487L11.7268 10.6902Z" fill="currentColor"/>
</svg>
