<svg width="16" height="16" viewBox="0 0 16 16" fill="none" xmlns="http://www.w3.org/2000/svg">
<path d="M11.8532 2.11607C11.7151 1.97799 11.4943 1.95446 11.3563 2.09255L10.3717 3.07715C10.1764 3.27241 10.1764 3.589 10.3717 3.78426L12.2161 5.6287C12.4114 5.82396 12.7279 5.82396 12.9232 5.6287L13.9078 4.6441C14.0459 4.50601 14.0224 4.28526 13.8843 4.14718L11.8532 2.11607Z" fill="currentColor"/>
<path d="M13.9078 2.09255C13.9371 2.12182 13.9129 2.14602 13.8836 2.11675C13.8543 2.08748 13.8785 2.06328 13.9078 2.09255Z" fill="currentColor"/>
<path d="M8.81564 4.63316C9.0109 4.4379 9.32748 4.4379 9.52274 4.63317L11.3672 6.47761C11.5625 6.67287 11.5625 6.98945 11.3672 7.18471L5.39022 13.1617C5.32869 13.2232 5.25217 13.2676 5.16822 13.2905L2.63211 13.9822C2.25886 14.084 1.91637 13.7415 2.01817 13.3682L2.70984 10.8321C2.73273 10.7482 2.77714 10.6717 2.83867 10.6101L8.81564 4.63316Z" fill="currentColor"/>
</svg>
