<svg width="16" height="16" viewBox="0 0 16 16" fill="none" xmlns="http://www.w3.org/2000/svg">
<path d="M12.5 9.57695C12.5 9.96681 12.1566 10.2829 11.733 10.2829H8.53914V13.4995C8.53914 13.7759 8.29565 14 7.99529 14C7.69492 14 7.45143 13.7759 7.45143 13.4995V10.2829H4.26711C3.84345 10.2829 3.5 9.96677 3.5 9.57686C3.5 9.43755 3.54479 9.30134 3.62872 9.18541L5.31699 6.85347C5.43601 6.68908 5.49951 6.49595 5.49951 6.29841V3.38003C5.49951 3.12582 5.27539 2.91976 4.99918 2.91976C4.7232 2.91976 4.49927 2.71386 4.49927 2.45988C4.49927 2.20589 4.72299 2 4.99896 2H10.9998C11.2758 2 11.4995 2.20589 11.4995 2.45988C11.4995 2.71386 11.2756 2.91976 10.9996 2.91976C10.7234 2.91976 10.4993 3.12583 10.4993 3.38003V6.29826C10.4993 6.4959 10.5628 6.68911 10.682 6.85355L12.3712 9.18537C12.4552 9.30133 12.5 9.43758 12.5 9.57695Z" fill="currentColor"/>
</svg>
