<svg xmlns="http://www.w3.org/2000/svg" width="16" height="16" fill="none"><path fill="currentColor" fill-rule="evenodd" d="M3.875 12.835H2.5v-1.67h1.375c.46116 0 .835.3739.835.835 0 .4612-.37384.835-.835.835ZM5.79 12c0-.4611.37384-.835.835-.835h2.75c.46116 0 .835.3739.835.835 0 .4612-.37384.835-.835.835h-2.75c-.46116 0-.835-.3738-.835-.835Zm5.5 0c0-.4611.3738-.835.835-.835H13.5v1.67h-1.375c-.4612 0-.835-.3738-.835-.835Z" clip-rule="evenodd"/><path fill="currentColor" fill-rule="evenodd" d="m4.34568 11.6646-.625 1.0825-1.44627-.835.625-1.0825c.23058-.3994.74126-.5362 1.14064-.3057.39937.2306.53621.7413.30563 1.1407Zm.10937-1.85945c-.39938-.23058-.53621-.74126-.30564-1.14064l1.25-2.16506c.23058-.39937.74126-.53621 1.14064-.30563.39937.23058.53621.74126.30563 1.14063l-1.25 2.16506c-.23058.39938-.74126.53619-1.14063.30564Zm2.5-4.33013c-.39938-.23058-.53622-.74126-.30564-1.14063l.625-1.08254 1.44627.835-.625 1.08254c-.23058.39937-.74126.53621-1.14063.30563Z" clip-rule="evenodd"/><path fill="currentColor" fill-rule="evenodd" d="m13.0986 10.8295.625 1.0826-1.4463.835-.625-1.0826c-.2305-.3993-.0937-.91.3057-1.1406.3993-.2306.91-.0937 1.1406.3056ZM11.543 9.80511c-.3994.23059-.9101.09374-1.1407-.30563L9.15234 7.33441c-.23058-.39937-.09374-.91005.30563-1.14063.39938-.23058.91003-.09374 1.14063.30563l1.25 2.16507c.2306.39937.0937.91005-.3056 1.14063ZM9.04297 5.47498c-.39937.23058-.91005.09374-1.14063-.30563l-.625-1.08253 1.44627-.835.625 1.08253c.23057.39937.09374.91005-.30564 1.14063Z" clip-rule="evenodd"/><circle cx="8" cy="3.99805" r="2" fill="currentColor"/><circle cx="3" cy="12" r="2" fill="currentColor"/><circle cx="12.9971" cy="12" r="2" fill="currentColor"/></svg>
