<svg width="16" height="16" viewBox="0 0 16 16" fill="none" xmlns="http://www.w3.org/2000/svg">
<path fill-rule="evenodd" clip-rule="evenodd" d="M7.5 3.58183C6.91871 3.58183 6.34312 3.69619 5.80616 3.91836C5.2692 4.14052 4.7814 4.46614 4.37066 4.87659C4.06135 5.18569 3.55949 5.18605 3.24972 4.87741C2.93996 4.56876 2.93959 4.06798 3.24891 3.75888C3.80687 3.2013 4.46953 2.75896 5.19898 2.45715C5.92842 2.15535 6.71034 2 7.5 2C8.28966 2 9.07158 2.15535 9.80102 2.45715C10.5301 2.75881 11.1925 3.20086 11.7503 3.75804C11.7505 3.75832 11.7508 3.7586 11.7511 3.75888L12.4148 4.41915V3.48301C12.4148 3.0462 12.7696 2.69209 13.2074 2.69209C13.6451 2.69209 14 3.0462 14 3.48301V6.32463C14 6.76144 13.6451 7.11555 13.2074 7.11555H10.3596C9.92187 7.11555 9.567 6.76144 9.567 6.32463C9.567 5.88782 9.92187 5.53371 10.3596 5.53371H11.2898L10.6306 4.87782L10.6293 4.87659C10.2186 4.46614 9.7308 4.14052 9.19384 3.91836C8.65688 3.69619 8.08129 3.58183 7.5 3.58183ZM1 9.67537C1 9.23856 1.35487 8.88445 1.79263 8.88445H4.64038C5.07814 8.88445 5.433 9.23856 5.433 9.67537C5.433 10.1122 5.07814 10.4663 4.64038 10.4663H3.71018L4.37067 11.1234C4.7814 11.5339 5.2692 11.8595 5.80616 12.0816C6.34312 12.3038 6.91871 12.4182 7.5 12.4182C8.08129 12.4182 8.65688 12.3038 9.19384 12.0816C9.7308 11.8595 10.2186 11.5339 10.6293 11.1234C10.9387 10.8143 11.4405 10.8139 11.7503 11.1226C12.06 11.4312 12.0604 11.932 11.7511 12.2411C11.1931 12.7987 10.5305 13.241 9.80102 13.5428C9.07158 13.8447 8.28966 14 7.5 14C6.71034 14 5.92842 13.8447 5.19898 13.5428C4.46981 13.2412 3.80738 12.799 3.24955 12.2418C3.24933 12.2415 3.24976 12.242 3.24955 12.2418L2.58525 11.5808V12.517C2.58525 12.9538 2.23038 13.3079 1.79263 13.3079C1.35487 13.3079 1 12.9538 1 12.517V9.67537Z" fill="currentColor"/>
</svg>
