<svg width="16" height="16" viewBox="0 0 16 16" fill="none" xmlns="http://www.w3.org/2000/svg">
<path fill-rule="evenodd" clip-rule="evenodd" d="M10.8713 2.68803C11.0665 2.49276 11.0665 2.17618 10.8713 1.98092C10.676 1.78566 10.3594 1.78566 10.1642 1.98092L8.27562 3.86948C8.08036 4.06474 8.08036 4.38132 8.27562 4.57658L10.1642 6.46514C10.3594 6.6604 10.676 6.6604 10.8713 6.46514C11.0665 6.26988 11.0665 5.95329 10.8713 5.75803L9.83628 4.72303H12.4063C12.6076 4.72303 12.8007 4.803 12.943 4.94535C13.0854 5.08769 13.1653 5.28076 13.1653 5.48207V7.37062C13.1653 7.64677 13.3892 7.87062 13.6653 7.87062C13.9415 7.87062 14.1653 7.64677 14.1653 7.37062V5.48207C14.1653 5.01554 13.98 4.56812 13.6501 4.23824C13.3202 3.90836 12.8728 3.72303 12.4063 3.72303H9.83628L10.8713 2.68803ZM2.83398 8.62966C2.83398 8.35352 2.61013 8.12966 2.33398 8.12966C2.05784 8.12966 1.83398 8.35352 1.83398 8.62966V10.5182C1.83398 10.9847 2.01931 11.4322 2.34919 11.762C2.67908 12.0919 3.1265 12.2773 3.59302 12.2773H6.16303L5.12803 13.3123C4.93276 13.5075 4.93276 13.8241 5.12803 14.0194C5.32329 14.2146 5.63987 14.2146 5.83513 14.0194L7.72369 12.1308C7.91895 11.9355 7.91895 11.619 7.72369 11.4237L5.83513 9.53515C5.63987 9.33988 5.32329 9.33988 5.12803 9.53515C4.93276 9.73041 4.93276 10.047 5.12803 10.2423L6.16303 11.2773H3.59302C3.39171 11.2773 3.19865 11.1973 3.0563 11.0549C2.91395 10.9126 2.83398 10.7195 2.83398 10.5182V8.62966ZM2.9635 2.83447C2.89197 2.83447 2.83398 2.89246 2.83398 2.96399V5.48207C2.83398 5.5536 2.89197 5.61159 2.9635 5.61159H5.48158C5.55311 5.61159 5.6111 5.5536 5.6111 5.48207V2.96399C5.6111 2.89246 5.55311 2.83447 5.48158 2.83447H2.9635ZM1.83398 2.96399C1.83398 2.34018 2.33969 1.83447 2.9635 1.83447H5.48158C6.1054 1.83447 6.6111 2.34018 6.6111 2.96399V5.48207C6.6111 6.10588 6.1054 6.61159 5.48158 6.61159H2.9635C2.33969 6.61159 1.83398 6.10588 1.83398 5.48207V2.96399ZM10.5177 10.3886C10.4462 10.3886 10.3882 10.4466 10.3882 10.5182V13.0362C10.3882 13.1078 10.4462 13.1658 10.5177 13.1658H13.0358C13.1073 13.1658 13.1653 13.1078 13.1653 13.0362V10.5182C13.1653 10.4466 13.1073 10.3886 13.0358 10.3886H10.5177ZM9.38822 10.5182C9.38822 9.89435 9.89392 9.38864 10.5177 9.38864H13.0358C13.6596 9.38864 14.1653 9.89435 14.1653 10.5182V13.0362C14.1653 13.6601 13.6596 14.1658 13.0358 14.1658H10.5177C9.89392 14.1658 9.38822 13.6601 9.38822 13.0362V10.5182Z" fill="currentColor"/>
</svg>
