<svg width="16" height="16" viewBox="0 0 16 16" fill="none" xmlns="http://www.w3.org/2000/svg">
<path fill-rule="evenodd" clip-rule="evenodd" d="M3.69231 2C3.24348 2 2.81303 2.1783 2.49567 2.49567C2.1783 2.81303 2 3.24348 2 3.69231V12.3077C2 12.7565 2.1783 13.187 2.49567 13.5043C2.81303 13.8217 3.24348 14 3.69231 14H12.3077C12.7565 14 13.187 13.8217 13.5043 13.5043C13.8217 13.187 14 12.7565 14 12.3077V5.53846C14 5.41605 13.9514 5.29866 13.8648 5.2121L10.7879 2.13518C10.7013 2.04863 10.5839 2 10.4615 2H3.69231ZM4.90994 10.0052C4.90994 9.45288 5.35766 9.00517 5.90994 9.00517H10.0893C10.6416 9.00517 11.0893 9.45288 11.0893 10.0052V12.5857H4.90994V10.0052ZM5.75834 4.01758C5.75823 3.55642 5.3843 3.18267 4.92314 3.18278C4.46198 3.18289 4.08823 3.55682 4.08834 4.01798L4.08871 5.54033C4.08882 6.00141 4.46263 6.37513 4.92371 6.37513H9.84678C10.3079 6.37513 10.6818 6.00128 10.6818 5.54013C10.6818 5.07897 10.3079 4.70513 9.84678 4.70513H5.75851L5.75834 4.01758Z" fill="currentColor"/>
</svg>
