<svg width="16" height="16" viewBox="0 0 16 16" fill="none" xmlns="http://www.w3.org/2000/svg">
	<path d="M11.6934 5.35551C11.8887 5.16024 11.8887 4.84366 11.6934 4.6484C11.4981 4.45314 11.1816 4.45314 10.9863 4.6484L8.3418 7.29289L5.6973 4.6484C5.50204 4.45314 5.18546 4.45314 4.9902 4.6484C4.79493 4.84366 4.79493 5.16024 4.9902 5.35551L7.63469 8L4.9902 10.6445C4.79493 10.8398 4.79493 11.1563 4.9902 11.3516C5.18546 11.5469 5.50204 11.5469 5.6973 11.3516L8.3418 8.70711L10.9863 11.3516C11.1816 11.5469 11.4981 11.5469 11.6934 11.3516C11.8887 11.1563 11.8887 10.8398 11.6934 10.6445L9.0489 8L11.6934 5.35551Z" fill="currentColor"/>
</svg>
