<svg width="16" height="16" viewBox="0 0 16 16" fill="none" xmlns="http://www.w3.org/2000/svg">
<path d="M5.4967 4.64488C5.21891 4.46237 4.89482 4.36328 4.5609 4.36328C4.09668 4.36328 3.65147 4.55479 3.32321 4.89569C2.99496 5.23658 2.81055 5.69894 2.81055 6.18103C2.81055 6.66313 2.99496 7.12549 3.32321 7.46638C3.65147 7.80728 4.09668 7.99879 4.5609 7.99879C5.02512 7.99879 5.47033 7.80728 5.79858 7.46638C5.88834 7.37317 5.96734 7.27087 6.03476 7.16157C5.64849 6.61791 5.43643 5.95675 5.43643 5.27287C5.43643 5.0604 5.4569 4.85012 5.4967 4.64488Z" fill="currentColor"/>
<path d="M5.4152 9.38781C5.25478 9.36833 5.093 9.35954 4.93086 9.36163C3.40239 9.36163 2.30691 10.1477 2.01458 11.3938C1.92624 11.7703 2.25238 12.0883 2.64158 12.0883H3.76539C3.95054 11.0587 4.45484 10.1796 5.21838 9.54245C5.28248 9.48896 5.34811 9.43741 5.4152 9.38781Z" fill="currentColor"/>
<path d="M13.2339 12.0883H14.3584C14.7476 12.0883 15.0737 11.7703 14.9854 11.3938C14.6933 10.1477 13.5982 9.36164 12.0683 9.36164C11.9061 9.3595 11.7444 9.36827 11.584 9.38775C11.6511 9.43737 11.7167 9.48894 11.7809 9.54245C12.5444 10.1796 13.0487 11.0587 13.2339 12.0883Z" fill="currentColor"/>
<path d="M10.9645 7.16128C11.032 7.27069 11.111 7.37308 11.2009 7.46638C11.5291 7.80728 11.9743 7.99879 12.4386 7.99879C12.9028 7.99879 13.348 7.80728 13.6762 7.46638C14.0045 7.12549 14.1889 6.66313 14.1889 6.18103C14.1889 5.69894 14.0045 5.23658 13.6762 4.89569C13.348 4.55479 12.9028 4.36328 12.4386 4.36328C12.1045 4.36328 11.7803 4.46245 11.5024 4.6451C11.5422 4.85027 11.5626 5.06047 11.5626 5.27287C11.5626 5.95663 11.3507 6.61768 10.9645 7.16128Z" fill="currentColor"/>
<path d="M10.047 3.66747C10.4573 4.09359 10.6878 4.67152 10.6878 5.27415C10.6878 5.87677 10.4573 6.4547 10.047 6.88082C9.63666 7.30694 9.08016 7.54634 8.49988 7.54634C7.91961 7.54634 7.3631 7.30694 6.95279 6.88082C6.54247 6.4547 6.31195 5.87677 6.31195 5.27415C6.31195 4.67152 6.54247 4.09359 6.95279 3.66747C7.3631 3.24135 7.91961 3.00195 8.49988 3.00195C9.08016 3.00195 9.63666 3.24135 10.047 3.66747Z" fill="currentColor"/>
<path d="M12.3803 12.3014C12.4443 12.6827 12.1214 12.9988 11.7322 12.9988H5.26503C4.87583 12.9988 4.55293 12.6827 4.61692 12.3014C4.91796 10.5075 6.39665 9.36328 8.4986 9.36328C10.6005 9.36328 12.0792 10.5075 12.3803 12.3014Z" fill="currentColor"/>
</svg>
