<svg width="16" height="16" viewBox="0 0 16 16" fill="none" xmlns="http://www.w3.org/2000/svg">
	<path fill-rule="evenodd" clip-rule="evenodd" d="M8 2.00098C8.30437 2.00098 8.58234 2.1814 8.71706 2.46639L10.1381 5.47244L13.316 5.95747C13.6171 6.00343 13.8671 6.22387 13.961 6.52615C14.0549 6.82842 13.9763 7.16013 13.7583 7.38185L11.4594 9.71989L12.0019 13.023C12.0534 13.3362 11.9301 13.6528 11.6838 13.8397C11.4375 14.0265 11.111 14.0511 10.8416 13.9031L8 12.3427L5.15841 13.9031C4.88899 14.0511 4.56249 14.0265 4.31622 13.8397C4.06994 13.6528 3.9466 13.3362 3.99805 13.023L4.54059 9.71989L2.24173 7.38185C2.02373 7.16013 1.94515 6.82842 2.03901 6.52615C2.13287 6.22387 2.38291 6.00343 2.68403 5.95747L5.86192 5.47244L7.28294 2.46639C7.41766 2.1814 7.69563 2.00098 8 2.00098Z" fill="currentColor"/>
</svg>
