<svg width="16" height="16" viewBox="0 0 16 16" fill="none" xmlns="http://www.w3.org/2000/svg">
<path fill-rule="evenodd" clip-rule="evenodd" d="M3.72978 3C3.32565 3 2.99805 3.32761 2.99805 3.73173V8.1856C2.99805 8.37981 3.07526 8.56606 3.21267 8.70331L7.0383 12.5245C7.18891 12.6752 7.36773 12.7947 7.56455 12.8763C7.76152 12.958 7.97265 13 8.18587 13C8.39909 13 8.61022 12.958 8.8072 12.8763C9.00417 12.7947 9.18311 12.675 9.3338 12.5241L12.5269 9.33101L12.0095 8.81356L12.5285 9.32946C12.8307 9.02547 13.0003 8.61424 13.0003 8.1856C13.0003 7.75696 12.8307 7.34573 12.5285 7.04173L8.70106 3.21432C8.56383 3.07709 8.37771 3 8.18365 3H3.72978ZM5.71924 4.89062C5.26053 4.89062 4.88867 5.26372 4.88867 5.72396C4.88867 6.1842 5.26053 6.55729 5.71924 6.55729H5.72477C6.18348 6.55729 6.55534 6.1842 6.55534 5.72396C6.55534 5.26372 6.18348 4.89062 5.72477 4.89062H5.71924Z" fill="currentColor"/>
</svg>
