<svg width="17" height="16" viewBox="0 0 17 16" fill="none" xmlns="http://www.w3.org/2000/svg">
<path d="M16.5 3.41914C15.9356 3.66147 15.3387 3.82248 14.7277 3.89721C15.3716 3.52101 15.8529 2.9253 16.0805 2.22295C15.4777 2.57503 14.8182 2.82298 14.1305 2.95607C13.7087 2.5134 13.1614 2.20579 12.5599 2.07316C11.9583 1.94053 11.3301 1.98901 10.7568 2.21229C10.1836 2.43558 9.6917 2.82337 9.34501 3.32534C8.99832 3.82732 8.81283 4.42032 8.81261 5.02739C8.81018 5.25932 8.83402 5.49078 8.88371 5.7175C7.66032 5.65845 6.46337 5.34578 5.3711 4.79996C4.27883 4.25414 3.31584 3.48745 2.54509 2.55C2.1493 3.21621 2.02666 4.00606 2.2022 4.75829C2.37774 5.51052 2.83822 6.16841 3.48964 6.59764C3.00283 6.58479 2.5263 6.45684 2.10024 6.22458V6.25758C2.10117 6.95684 2.34667 7.63445 2.79543 8.17637C3.24419 8.71829 3.86881 9.09145 4.56419 9.23305C4.30107 9.30144 4.02989 9.33508 3.75777 9.33306C3.56245 9.33636 3.36733 9.31893 3.17581 9.28106C3.37462 9.88196 3.75765 10.4074 4.27218 10.7852C4.78672 11.1629 5.40748 11.3743 6.04906 11.3904C4.96063 12.2288 3.61822 12.6838 2.23634 12.6826C1.99023 12.6841 1.74428 12.6701 1.5 12.6406C2.90617 13.533 4.54477 14.0051 6.21765 13.9998C7.36917 14.0078 8.51083 13.7903 9.57629 13.3601C10.6418 12.9299 11.6098 12.2955 12.4241 11.4937C13.2385 10.692 13.883 9.73885 14.3201 8.68973C14.7572 7.64061 14.9783 6.51641 14.9704 5.38245C14.9704 5.24843 14.9704 5.11941 14.9593 4.99139C15.5656 4.56388 16.0877 4.03109 16.5 3.41914Z" fill="#03A9F4"/>
</svg>
