<svg width="16" height="16" viewBox="0 0 16 16" fill="none" xmlns="http://www.w3.org/2000/svg">
<path fill-rule="evenodd" clip-rule="evenodd" d="M2.83891 2.50414C2.37775 2.50414 2.00391 2.87799 2.00391 3.33914V6.33914C2.00391 6.8003 2.37775 7.17414 2.83891 7.17414H5.83891C6.30006 7.17414 6.67391 6.8003 6.67391 6.33914C6.67391 5.87799 6.30006 5.50414 5.83891 5.50414H3.67391V3.33914C3.67391 2.87799 3.30006 2.50414 2.83891 2.50414Z" fill="currentColor"/>
<path d="M11.1438 2.45626C10.0022 2.00228 8.74612 1.88374 7.53441 2.11565C6.323 2.3475 5.20972 2.91982 4.33653 3.75909L3.67391 4.42164V5.50414H4.82227L5.50125 4.87706C6.14432 4.25879 6.96384 3.83763 7.85612 3.66685C8.74841 3.49608 9.67337 3.58336 10.514 3.91767C11.3546 4.25198 12.0732 4.81828 12.5787 5.54494C13.0843 6.27161 13.3541 7.12599 13.3541 8C13.3541 8.87401 13.0843 9.72839 12.5787 10.4551C12.0732 11.1817 11.3546 11.748 10.514 12.0823C9.67337 12.4166 8.74841 12.5039 7.85612 12.3331C6.96384 12.1624 6.14432 11.7412 5.50125 11.1229C5.17988 10.814 4.65863 10.8138 4.337 11.1225C4.01537 11.4312 4.01516 11.9319 4.33653 12.2409C5.20982 13.0805 6.32271 13.6524 7.53441 13.8844C8.74612 14.1163 10.0022 13.9977 11.1438 13.5437C12.2853 13.0898 13.2611 12.3207 13.9476 11.3339C14.6342 10.3471 15.0006 9.1869 15.0006 8C15.0006 6.8131 14.6342 5.65287 13.9476 4.66607C13.2611 3.67927 12.2853 2.91024 11.1438 2.45626Z" fill="currentColor"/>
</svg>
