<svg width="16" height="17" viewBox="0 0 16 17" fill="none" xmlns="http://www.w3.org/2000/svg">
<path fill-rule="evenodd" clip-rule="evenodd" d="M14.8054 3.54116C15.0664 3.27893 15.0655 2.85471 14.8033 2.59364C14.5411 2.33256 14.1168 2.33349 13.8558 2.59572L13.0894 3.36548C12.848 3.19009 12.5809 3.04244 12.2943 2.95882C12.0236 2.87985 11.7237 2.85474 11.4149 2.92959C11.1043 3.00489 10.8272 3.17115 10.5891 3.40989L8.50246 5.50488C8.26429 5.744 8.09908 6.02184 8.02434 6.33239C7.95008 6.64101 7.97498 6.94087 8.05342 7.21173C8.20418 7.73228 8.56447 8.18891 8.91972 8.54519C9.27452 8.90182 9.72985 9.26456 10.2498 9.4164C10.5206 9.49549 10.8208 9.5206 11.1298 9.44543C11.4405 9.36985 11.7176 9.20319 11.9555 8.96413L14.0418 6.86944C14.2799 6.63038 14.4451 6.35262 14.5199 6.0421C14.5942 5.7335 14.5692 5.43367 14.4908 5.16285C14.4008 4.85233 14.2363 4.56451 14.0427 4.30714L14.8054 3.54116ZM12.1243 4.33479L11.3749 5.08754C11.1138 5.34976 11.1147 5.77398 11.377 6.03506C11.6392 6.29613 12.0634 6.2952 12.3245 6.03298L13.0814 5.27274C13.1403 5.36906 13.181 5.45731 13.2037 5.53572C13.2296 5.62497 13.2275 5.68522 13.2171 5.72848C13.2071 5.76981 13.1801 5.83569 13.0923 5.92382L11.006 8.0185C10.9181 8.10689 10.8527 8.13376 10.8131 8.1434C10.7716 8.15349 10.7132 8.15576 10.6254 8.13012C10.4282 8.07253 10.1664 7.89836 9.86944 7.59987C9.57303 7.30265 9.39836 7.03864 9.34053 6.83896C9.31466 6.74964 9.31672 6.68928 9.32715 6.64591C9.33712 6.60447 9.36416 6.53857 9.45188 6.4505L11.5379 4.35612C11.6256 4.26822 11.6908 4.24152 11.7306 4.23186C11.7723 4.22175 11.831 4.21953 11.919 4.24519C11.9813 4.26337 12.0501 4.29316 12.1243 4.33479Z" fill="currentColor"/>
<path fill-rule="evenodd" clip-rule="evenodd" d="M4.68883 14.8904C4.39456 14.8045 4.12097 14.651 3.87456 14.4693L3.1448 15.2023C2.88373 15.4645 2.45951 15.4655 2.19728 15.2044C1.93506 14.9433 1.93412 14.5191 2.1952 14.2569L2.92612 13.5227C2.73833 13.2699 2.57926 12.9881 2.49137 12.6847C2.41289 12.4137 2.38799 12.1137 2.46228 11.805C2.53704 11.4943 2.70232 11.2164 2.94059 10.9771L5.02824 8.88111C5.26643 8.64226 5.54401 8.47564 5.8547 8.40031C6.16356 8.32543 6.46362 8.35055 6.73441 8.42955C7.25451 8.58128 7.71012 8.94371 8.0653 9.30031C8.42058 9.65701 8.78117 10.1139 8.93203 10.6347C9.01052 10.9056 9.03545 11.2056 8.96113 11.5143C8.88634 11.8249 8.72104 12.1028 8.48283 12.342L6.39549 14.4377C6.15749 14.6768 5.88001 14.8439 5.56923 14.9195C5.26011 14.9947 4.95979 14.9696 4.68883 14.8904ZM5.97749 9.8269C6.06532 9.73887 6.13047 9.71227 6.17043 9.70258C6.21224 9.69245 6.27105 9.69023 6.35912 9.71592C6.55676 9.77358 6.81888 9.94774 7.11588 10.2459C7.41279 10.544 7.58706 10.8077 7.64496 11.0076C7.67085 11.0969 7.66879 11.1573 7.65835 11.2007C7.64837 11.2421 7.62129 11.3081 7.53341 11.3963L5.44577 13.4924C5.35774 13.5809 5.29224 13.6078 5.25248 13.6175C5.21093 13.6276 5.15238 13.6298 5.06447 13.6042C4.99616 13.5842 4.92011 13.5503 4.83756 13.5021L5.62511 12.7111C5.88618 12.4489 5.88525 12.0246 5.62303 11.7636C5.3608 11.5025 4.93658 11.5034 4.6755 11.7656L3.88909 12.5555C3.83644 12.4667 3.79967 12.385 3.77848 12.3119C3.75258 12.2225 3.75462 12.162 3.76509 12.1185C3.77508 12.0769 3.80218 12.0109 3.89001 11.9228L5.97749 9.8269Z" fill="currentColor"/>
</svg>
