<svg width="16" height="16" viewBox="0 0 16 16" fill="none" xmlns="http://www.w3.org/2000/svg">
<path fill-rule="evenodd" clip-rule="evenodd" d="M7.44079 3.21928C7.74963 2.92691 8.25037 2.92691 8.55921 3.21928L11.2415 5.75854C11.5503 6.05091 11.5503 6.52495 11.2415 6.81733C10.9326 7.1097 10.4319 7.1097 10.1231 6.81733L8.79084 5.55614V9.51541C8.79084 9.92889 8.43677 10.2641 8 10.2641C7.56323 10.2641 7.20916 9.92889 7.20916 9.51541V5.55614L5.87694 6.81733C5.5681 7.1097 5.06736 7.1097 4.75852 6.81733C4.44967 6.52495 4.44967 6.05091 4.75852 5.75854L7.44079 3.21928Z" fill="currentColor"/>
<path fill-rule="evenodd" clip-rule="evenodd" d="M2.79084 9.21504C3.22762 9.21504 3.58169 9.55024 3.58169 9.96372V11.4581C3.58169 12.035 4.0757 12.5026 4.68508 12.5026H11.3149C11.9243 12.5026 12.4183 12.035 12.4183 11.4581V9.96372C12.4183 9.55024 12.7724 9.21504 13.2092 9.21504C13.6459 9.21504 14 9.55024 14 9.96372V11.4581C14 12.8619 12.7978 14 11.3149 14H4.68508C3.20215 14 2 12.8619 2 11.4581V9.96372C2 9.55024 2.35407 9.21504 2.79084 9.21504Z" fill="currentColor"/>
</svg>
