<svg width="16" height="16" viewBox="0 0 16 16" fill="none" xmlns="http://www.w3.org/2000/svg">
<path d="M13.5 2H2.5C1.94772 2 1.5 2.44772 1.5 3V13C1.5 13.5523 1.94772 14 2.5 14H13.5C14.0523 14 14.5 13.5523 14.5 13V3C14.5 2.44772 14.0523 2 13.5 2Z" stroke="currentColor"/>
<path d="M12 8.5H8V9.5H12V8.5Z" fill="currentColor"/>
<path d="M15 5.5H1V6.5H15V5.5Z" fill="currentColor"/>
<path d="M7 8H3V12H7V8Z" fill="currentColor"/>
<path d="M12 10.5H8V11.5H12V10.5Z" fill="currentColor"/>
<path d="M5 3.5H3V4.5H5V3.5Z" fill="currentColor"/>
<path d="M8 3.5H6V4.5H8V3.5Z" fill="currentColor"/>
</svg>
