<svg width="16" height="16" viewBox="0 0 16 16" fill="none" xmlns="http://www.w3.org/2000/svg">
<path d="M6.83616 13.4885C5.72019 15.0807 3.54176 15.4807 1.96717 14.3731C0.400231 13.2655 0.0333366 11.058 1.13402 9.45042C1.79901 8.48896 2.82326 7.97362 3.87044 7.92747L3.90865 9.02737C3.21308 9.08122 2.54045 9.44272 2.10476 10.0734C1.3404 11.181 1.57735 12.6732 2.62452 13.4193C3.67934 14.1577 5.15456 13.8731 5.91893 12.7732C6.15588 12.4271 6.29346 12.0502 6.34697 11.6656V10.8888L10.6121 10.858L10.6656 10.7734C11.0707 10.0657 11.9497 9.81962 12.6377 10.2196C13.3256 10.6195 13.5625 11.5118 13.1574 12.2194C12.7523 12.9194 11.8657 13.1655 11.1777 12.7655C10.8644 12.5886 10.6427 12.304 10.5433 11.981L7.43236 11.9964C7.34828 12.5117 7.14955 13.0117 6.83616 13.4885ZM12.4007 7.99669C14.3346 8.23513 15.7104 9.98114 15.4735 11.8964C15.2365 13.8193 13.4785 15.1807 11.5446 14.9423C10.4057 14.8038 9.46557 14.15 8.92287 13.2424L9.87068 12.6886C10.2452 13.2809 10.8796 13.7039 11.644 13.8039C12.9816 13.9654 14.1664 13.0501 14.3269 11.7656C14.4874 10.4811 13.5396 9.30427 12.2173 9.14275C11.8045 9.0966 11.407 9.15044 11.0478 9.2812L10.3981 9.61963L8.42603 5.95071H8.25787C7.44765 5.91994 6.82087 5.25077 6.84381 4.45084C6.86674 3.6509 7.55466 3.02788 8.35724 3.05864C9.15982 3.10479 9.79424 3.75859 9.77131 4.55852C9.75603 4.89695 9.62608 5.20462 9.41971 5.44306L10.872 8.14283C11.3459 7.989 11.8657 7.93516 12.4007 7.99669ZM5.14692 5.90456C4.38256 4.09702 5.19278 2.02796 6.95846 1.27418C8.73178 0.520396 10.7803 1.37417 11.5446 3.18171C11.9956 4.23547 11.9039 5.38922 11.3918 6.31222L10.444 5.75842C10.765 5.13539 10.8185 4.37392 10.5127 3.65859C9.99298 2.42793 8.60948 1.83567 7.42472 2.33563C6.23231 2.84328 5.69726 4.25854 6.21703 5.48921C6.43105 5.99686 6.7903 6.38913 7.22599 6.65065L7.52409 6.81218L5.1775 10.6503C5.20043 10.6888 5.231 10.7349 5.25393 10.7965C5.62847 11.4964 5.36859 12.3809 4.66537 12.7578C3.9698 13.1347 3.09079 12.8578 2.7086 12.1348C2.33407 11.4195 2.59395 10.5349 3.29716 10.158C3.59527 9.99652 3.92394 9.95807 4.23733 10.0273L6.00301 7.12753C5.64376 6.79679 5.33801 6.38144 5.14692 5.90456Z" fill="currentColor"/>
</svg>
