<svg width="16" height="16" viewBox="0 0 16 16" fill="none" xmlns="http://www.w3.org/2000/svg">
<path fill-rule="evenodd" clip-rule="evenodd" d="M9.08247 2.00244C9.63475 2.00244 10.0825 2.45016 10.0825 3.00244V13C10.0825 13.5523 9.63475 14 9.08247 14H3C2.44772 14 2 13.5523 2 13V3.00244C2 2.45016 2.44772 2.00244 3 2.00244H9.08247ZM3.44871 12.2383C3.33825 12.2383 3.24871 12.1487 3.24871 12.0383V10.4383C3.24871 10.3278 3.33825 10.2383 3.44871 10.2383H5.02806C5.13852 10.2383 5.22806 10.3278 5.22806 10.4383V12.0383C5.22806 12.1487 5.13852 12.2383 5.02806 12.2383H3.44871ZM3.44871 8.99998C3.33825 8.99998 3.24871 8.91044 3.24871 8.79998V7.19998C3.24871 7.08952 3.33825 6.99998 3.44871 6.99998H5.02806C5.13852 6.99998 5.22806 7.08952 5.22806 7.19998V8.79998C5.22806 8.91044 5.13852 8.99998 5.02806 8.99998H3.44871ZM3.24871 5.56365C3.24871 5.67411 3.33825 5.76365 3.44871 5.76365H5.02806C5.13852 5.76365 5.22806 5.67411 5.22806 5.56365V3.96365C5.22806 3.8532 5.13852 3.76365 5.02806 3.76365H3.44871C3.33825 3.76365 3.24871 3.8532 3.24871 3.96365V5.56365ZM7.05531 12.2383C6.94485 12.2383 6.85531 12.1487 6.85531 12.0383V10.4383C6.85531 10.3278 6.94485 10.2383 7.05531 10.2383H8.63466C8.74512 10.2383 8.83466 10.3278 8.83466 10.4383V12.0383C8.83466 12.1487 8.74512 12.2383 8.63466 12.2383H7.05531ZM6.85531 8.79998C6.85531 8.91044 6.94485 8.99998 7.05531 8.99998H8.63466C8.74512 8.99998 8.83466 8.91044 8.83466 8.79998V7.19998C8.83466 7.08952 8.74512 6.99998 8.63466 6.99998H7.05531C6.94485 6.99998 6.85531 7.08952 6.85531 7.19998V8.79998ZM7.05531 5.76365C6.94485 5.76365 6.85531 5.67411 6.85531 5.56365V3.96365C6.85531 3.8532 6.94485 3.76365 7.05531 3.76365H8.63466C8.74512 3.76365 8.83466 3.8532 8.83466 3.96365V5.56365C8.83466 5.67411 8.74512 5.76365 8.63466 5.76365H7.05531Z" fill="currentColor"/>
<path d="M12.4981 3.99998H10.9415C10.831 3.99998 10.7415 4.08952 10.7415 4.19998V4.79998C10.7415 4.91044 10.831 4.99998 10.9415 4.99998H12.4981C12.7743 4.99998 12.9981 5.22384 12.9981 5.49998V12.5C12.9981 12.7761 12.7743 13 12.4981 13H10.9415C10.831 13 10.7415 13.0895 10.7415 13.2V13.8C10.7415 13.9104 10.831 14 10.9415 14H12.4981C13.3266 14 13.9981 13.3284 13.9981 12.5V5.49998C13.9981 4.67155 13.3266 3.99998 12.4981 3.99998Z" fill="currentColor"/>
<path d="M11.8454 6.35068H10.9415C10.831 6.35068 10.7415 6.44023 10.7415 6.55068V8.17193C10.7415 8.28239 10.831 8.37193 10.9415 8.37193H11.8454C11.9571 8.37193 12.0476 8.28144 12.0476 8.16981V6.55281C12.0476 6.44118 11.9571 6.35068 11.8454 6.35068Z" fill="currentColor"/>
<path d="M11.8454 9.64756H10.9415C10.831 9.64756 10.7415 9.7371 10.7415 9.84756V11.4688C10.7415 11.5793 10.831 11.6688 10.9415 11.6688H11.8454C11.9571 11.6688 12.0476 11.5783 12.0476 11.4667V9.84968C12.0476 9.73805 11.9571 9.64756 11.8454 9.64756Z" fill="currentColor"/>
</svg>
