<svg width="16" height="16" viewBox="0 0 16 16" fill="none" xmlns="http://www.w3.org/2000/svg">
<path d="M14.5 8C14.5 9.72391 13.8152 11.3772 12.5962 12.5962C11.3772 13.8152 9.72391 14.5 8 14.5C6.27609 14.5 4.6228 13.8152 3.40381 12.5962C2.18482 11.3772 1.5 9.72391 1.5 8C1.5 6.27609 2.18482 4.6228 3.40381 3.40381C4.6228 2.18482 6.27609 1.5 8 1.5C9.72391 1.5 11.3772 2.18482 12.5962 3.40381C13.8152 4.6228 14.5 6.27609 14.5 8Z" fill="#0048D1" stroke="white" stroke-miterlimit="10"/>
<path d="M10.5 7.99768C10.5 11.5317 9.381 14.3976 8 14.3976C6.619 14.3976 5.5 11.5317 5.5 7.99768C5.5 4.46368 6.619 1.59766 8 1.59766C9.381 1.59766 10.5 4.46268 10.5 7.99768Z" fill="#0048D1" stroke="white" stroke-miterlimit="10"/>
<path d="M2 5.5H14" stroke="white" stroke-miterlimit="10"/>
<path d="M2 10.5H14" stroke="white" stroke-miterlimit="10"/>
</svg>
