<svg width="16" height="16" viewBox="0 0 16 16" fill="none" xmlns="http://www.w3.org/2000/svg">
<path d="M4.99998 14C4.21898 14.782 3.28098 14.282 2.49998 13.5C1.71898 12.72 1.21898 11.781 1.99998 11L4.49998 8.50003C5.28098 7.72003 6.21898 8.21903 6.99998 9.00003C7.78098 9.78103 8.28098 10.719 7.49998 11.5L4.99998 14Z" stroke="#0D2E4E" stroke-miterlimit="10"/>
<path d="M11.5 7.50003C10.719 8.28203 9.78098 7.78203 8.99998 7.00003C8.21898 6.22003 7.71898 5.28103 8.49998 4.50003L11 2.00003C11.781 1.22003 12.719 1.71903 13.5 2.50003C14.281 3.28103 14.781 4.21903 14 5.00003L11.5 7.50003Z" stroke="#0D2E4E" stroke-miterlimit="10"/>
<path d="M5.5 10.5L10.5 5.5" stroke="#0D2E4E" stroke-miterlimit="10"/>
</svg>
