<?xml version="1.0" encoding="utf-8"?>
<!-- Generator: Adobe Illustrator 19.2.1, SVG Export Plug-In . SVG Version: 6.00 Build 0)  -->
<svg version="1.1" id="Layer_1" xmlns="http://www.w3.org/2000/svg" xmlns:xlink="http://www.w3.org/1999/xlink" x="0px" y="0px"
	 viewBox="0 0 42 42" style="enable-background:new 0 0 42 42;" xml:space="preserve">
<style type="text/css">
	.st0{fill:#FFFFFF;}
	.st1{fill:#E6C600;}
	.st2{fill:none;stroke:#FFFFFF;stroke-width:1.7726;stroke-miterlimit:10;}
</style>
<g>
	<g>
		<path class="st0" d="M39,42H3c-1.7,0-3-1.3-3-3V3c0-1.7,1.3-3,3-3h36c1.7,0,3,1.3,3,3v36C42,40.7,40.7,42,39,42z"/>
		<path class="st1" d="M39,0h-3v1.5h3V0L39,0L39,0z M33,0h-3v1.5h3V0L33,0z M27,0h-3v1.5h3V0L27,0z M21,0h-3v1.5h3V0L21,0z M15,0h-3
			v1.5h3V0L15,0z M9,0H6v1.5h3V0L9,0z M3,0L3,0L3,0L3,0L3,0L3,0L3,0L3,0L3,0L3,0L3,0L3,0L3,0L3,0L3,0L3,0L3,0L3,0L3,0L3,0L3,0
			C2.9,0,2.9,0,3,0C2.9,0,2.9,0,3,0C2.9,0,2.9,0,3,0C2.9,0,2.9,0,3,0C2.9,0,2.9,0,3,0C2.9,0,2.9,0,3,0C2.9,0,2.9,0,3,0
			C2.9,0,2.9,0,3,0C2.9,0,2.9,0,3,0C2.9,0,2.9,0,3,0C2.9,0,2.9,0,3,0C2.9,0,2.9,0,3,0C2.9,0,2.9,0,3,0C2.9,0,2.9,0,3,0
			C2.9,0,2.9,0,3,0C2.9,0,2.9,0,3,0C2.9,0,2.9,0,3,0C2.9,0,2.9,0,3,0C2.9,0,2.9,0,3,0C2.9,0,2.9,0,3,0C2.9,0,2.9,0,3,0L3,0L3,0L3,0
			L3,0L3,0L3,0L3,0L3,0L3,0L3,0L3,0L3,0L3,0L3,0L3,0L3,0L3,0L3,0L3,0L3,0L3,0L3,0L3,0L3,0L3,0L3,0L3,0L3,0L3,0L3,0L3,0L3,0L3,0L3,0
			L3,0L3,0L3,0L3,0L3,0L3,0L3,0L3,0L3,0L3,0L3,0L3,0L3,0L3,0L3,0L3,0L3,0L3,0L3,0L3,0L3,0L3,0L3,0L3,0L3,0L3,0L3,0L3,0L3,0L3,0L3,0
			L3,0L3,0L3,0L3,0L3,0L3,0L3,0L3,0L3,0L3,0L3,0L3,0L3,0L3,0L3,0L3,0L3,0L3,0L3,0L3,0L3,0L3,0L3,0L3,0L3,0L3,0L3,0L3,0L3,0L3,0L3,0
			L3,0L3,0L3,0L3,0L3,0L3,0L3,0L3,0L3,0L3,0L3,0L3,0L3,0L3,0L3,0L3,0L3,0L3,0L3,0L3,0L3,0L3,0L3,0L3,0L3,0L3,0L3,0L3,0L3,0L3,0L3,0
			L3,0L3,0L3,0L3,0L3,0L3,0L3,0L3,0L3,0L3,0L3,0L3,0L3,0L3,0L3,0L3,0L3,0L3,0L3,0L3,0L3,0L3,0L3,0L3,0L3,0L3,0L3,0L3,0L3,0L3,0L3,0
			L3,0L3,0L3,0L3,0L3,0L3,0L3,0L3,0L3,0L3,0L3,0L3,0L3,0L3,0L3,0L3,0L3,0L3,0L3,0L3,0L3,0L3,0L3,0L3,0L3,0L3,0L3,0L3,0L3,0L3,0L3,0
			L3,0L3,0L3,0L3,0L3,0L3,0L3,0L3,0L3,0L3,0L3,0L3,0L3,0L3,0L3,0L3,0L3,0L3,0L3,0L3,0L3,0L3,0L3,0L3,0L3,0L3,0L3,0L3,0L3,0L3,0L3,0
			L3,0L3,0L3,0L3,0L3,0L3,0L3,0L3,0L3,0L3,0L3,0L3,0L3,0L3,0L3,0L3,0L3,0L3,0L3,0L3,0L3,0L3,0L3,0L3,0L3,0L3,0L3,0L3,0L3,0L3,0L3,0
			L3,0L3,0L3,0L3,0L3,0L3,0L3,0L3,0L3,0L3,0L3,0L3,0L3,0L3,0L3,0L3,0L3,0L3,0L3,0L3,0L3,0L3,0L3,0L3,0L3,0L3,0L3,0L3,0L3,0L3,0L3,0
			L3,0L3,0L3,0L3,0L3,0L3,0L3,0L3,0L3,0L3,0L3,0L3,0L3,0L3,0L3,0L3,0L3,0L3,0L3,0L3,0L3,0L3,0L3,0L3,0L3,0L3,0L3,0L3,0L3,0L3,0L3,0
			L3,0L3,0L3,0L3,0L3,0L3,0L3,0L3,0L3,0L3,0L3,0L3,0L3,0L3,0L3,0L3,0L3,0L3,0L3,0L3,0L3,0L3,0L3,0L3,0L3,0L3,0L3,0L3,0L3,0L3,0L3,0
			L3,0L3,0L3,0L3,0L3,0L3,0L3,0L3,0L3,0L3,0L3,0L3,0L3,0L3,0L3,0L3,0L3,0L3,0L3,0L3,0L3,0L3,0L3,0L3,0L3,0L3,0L3,0L3,0L3,0L3,0L3,0
			L3,0L3,0L3,0L3,0L3,0L3,0L3,0L3,0L3,0L3,0L3,0L3,0L3,0L3,0L3,0L3,0L3,0L3,0L3,0L3,0L3,0L3,0L3,0L3,0L3,0L3,0L3,0L3,0L3,0L3,0L3,0
			L3,0L3,0L3,0L3,0L3,0L3,0L3,0L3,0L3,0L3,0L3,0L3,0L3,0L3,0L3,0L3,0L3,0L3,0L3,0L3,0L3,0L3,0L3,0L3,0L3,0L3,0L3,0L3,0L3,0L3,0L3,0
			L3,0L3,0L3,0L3,0L3,0L3,0L3,0L3,0L3,0L3,0L3,0L3,0L3,0L3,0L3,0L3,0L3,0L3,0L3,0L3,0L3,0L3,0L3,0L3,0L3,0L3,0L3,0L3,0L3,0L3,0L3,0
			L3,0L3,0L3,0L3,0L3,0L3,0L3,0L3,0L3,0L3,0L3,0L3,0L3,0L3,0L3,0L3,0L3,0L3,0L3,0L3,0L3,0L3,0L3,0L3,0L3,0L3,0L3,0L3,0L3,0L3,0L3,0
			L3,0L3,0L3,0L3,0L3,0L3,0L3,0L3,0L3,0L3,0L3,0L3,0L3,0L3,0L3,0L3,0L3,0L3,0L3,0L3,0L3,0L3,0L3,0L3,0L3,0L3,0L3,0L3,0L3,0L3,0L3,0
			L3,0L3,0L3,0L3,0L3,0L3,0L3,0L3,0L3,0L3,0L3,0L3,0L3,0L3,0L3,0L3,0L3,0L3,0L3,0L3,0L3,0L3,0L3,0L3,0L3,0L3,0L3,0L3,0L3,0L3,0L3,0
			L3,0L3,0L3,0L3,0L3,0L3,0L3,0L3,0L3,0L3,0L3,0L3,0L3,0L3,0L3,0L3,0L3,0L3,0L3,0L3,0L3,0L3,0L3,0L3,0L3,0L3,0L3,0L3,0L3,0L3,0L3,0
			L3,0L3,0L3,0L3,0L3,0L3,0L3,0L3,0L3,0L3,0L3,0L3,0L3,0L3,0L3,0L3,0L3,0L3,0L3,0L3,0L3,0L3,0L3,0L3,0L3,0L3,0L3,0L3,0L3,0L3,0L3,0
			L3,0L3,0L3,0L3,0L3,0L3,0L3,0L3,0L3,0L3,0L3,0L3,0L3,0L3,0L3,0L3,0L3,0L3,0L3,0L3,0L3,0L3,0L3,0L3,0L3,0L3,0L3,0L3,0L3,0L3,0L3,0
			L3,0L3,0L3,0L3,0L3,0L3,0L3,0L3,0L3,0L3,0L3,0L3,0L3,0L3,0L3,0L3,0L3,0L3,0L3,0L3,0L3,0L3,0L3,0L3,0L3,0L3,0L3,0L3,0L3,0L3,0L3,0
			L3,0L3,0L3,0L3,0L3,0L3,0L3,0L3,0L3,0L3,0L3,0L3,0L3,0L3,0L3,0L3,0L3,0L3,0L3,0L3,0L3,0L3,0L3,0L3,0L3,0L3,0L3,0L3,0L3,0L3,0L3,0
			L3,0L3,0L3,0L3,0L3,0L3,0L3,0L3,0L3,0L3,0L3,0L3,0L3,0L3,0L3,0L3,0L3,0L3,0L3,0L3,0L3,0L3,0L3,0L3,0L3,0L3,0L3,0L3,0L3,0L3,0L3,0
			L3,0L3,0L3,0L3,0L3,0L3,0L3,0L3,0L3,0L3,0L3,0L3,0L3,0L3,0L3,0L3,0L3,0L3,0L3,0L3,0L3,0L3,0L3,0L3,0L3,0L3,0L3,0L3,0L3,0L3,0L3,0
			L3,0L3,0L3,0L3,0L3,0L3,0L3,0L3,0L3,0L3,0L3,0L3,0L3,0L3,0L3,0L3,0L3,0L3,0L3,0L3,0L3,0L3,0L3,0L3,0L3,0L3,0L3,0L3,0L3,0L3,0L3,0
			L3,0L3,0L3,0L3,0L3,0L3,0L3,0L3,0L3,0L3,0L3,0L3,0L3,0L3,0L3,0L3,0L3,0L3,0L3,0L3,0L3,0L3,0L3,0L3,0L3,0L3,0L3,0L3,0L3,0L3,0L3,0
			L3,0L3,0L3,0L3,0L3,0L3,0L3,0L3,0L3,0L3,0L3,0L3,0L3,0L3,0L3,0L3,0L3,0L3,0L3,0L3,0L3,0L3,0L3,0L3,0L3,0L3,0L3,0L3,0L3,0L3,0L3,0
			L3,0L3,0L3,0L3,0L3,0L3,0L3,0L3,0L3,0L3,0L3,0L3,0L3,0L3,0L3,0L3,0L3,0L3,0L3,0L3,0L3,0L3,0L3,0L3,0L3,0L3,0L3,0L3,0L3,0L3,0L3,0
			L3,0L3,0L3,0L3,0L3,0L3,0L3,0L3,0L3,0L3,0L3,0L3,0L3,0L3,0L3,0L3,0L3,0L3,0L3,0L3,0L3,0L3,0L3,0L3,0L3,0L3,0L3,0L3,0L3,0L3,0L3,0
			L3,0L3,0L3,0L3,0L3,0L3,0L3,0L3,0L3,0L3,0L3,0L3,0L3,0L3,0L3,0L3,0L3,0L3,0L3,0L3,0L3,0L3,0L3,0L3,0L3,0L3,0L3,0L3,0L3,0L3,0L3,0
			L3,0L3,0L3,0L3,0L3,0L3,0L3,0L3,0L3,0L3,0L3,0L3,0L3,0L3,0L3,0L3,0L3,0L3,0L3,0L3,0L3,0L3,0L3,0L3,0L3,0L3,0L3,0L3,0L3,0L3,0L3,0
			L3,0L3,0L3,0L3,0L3,0L3,0L3,0L3,0L3,0L3,0L3,0L3,0L3,0L3,0L3,0L3,0L3,0L3,0L3,0L3,0L3,0L3,0L3,0L3,0L3,0L3,0L3,0L3,0L3,0L3,0L3,0
			L3,0L3,0L3,0L3,0L3,0L3,0L3,0L3,0L3,0L3,0L3,0L3,0L3,0L3,0L3,0L3,0L3,0L3,0L3,0L3,0L3,0L3,0L3,0L3,0L3,0L3,0L3,0L3,0L3,0L3,0L3,0
			L3,0L3,0L3,0L3,0L3,0L3,0L3,0L3,0L3,0L3,0L3,0L3,0L3,0L3,0L3,0L3,0L3,0L3,0L3,0L3,0L3,0L3,0L3,0L3,0L3,0L3,0L3,0L3,0L3,0L3,0L3,0
			L3,0L3,0L3,0L3,0L3,0L3,0L3,0L3,0L3,0L3,0L3,0L3,0L3,0L3,0L3,0L3,0L3,0L3,0L3,0L3,0L3,0L3,0L3,0L3,0L3,0L3,0L3,0L3,0L3,0L3,0L3,0
			L3,0L3,0L3,0L3,0L3,0L3,0L3,0L3,0L3,0L3,0L3,0L3,0L3,0L3,0L3,0L3,0L3,0L3,0L3,0L3,0L3,0L3,0L3,0L3,0L3,0L3,0L3,0L3,0L3,0L3,0L3,0
			L3,0L3,0L3,0L3,0L3,0L3,0L3,0L3,0L3,0L3,0L3,0L3,0L3,0L3,0L3,0L3,0L3,0L3,0L3,0L3,0L3,0L3,0L3,0L3,0l1.2,0.8C2,1.7,2.5,1.5,3,1.5
			V0L3,0z M1.5,4.3H0v3h1.5V4.3L1.5,4.3z M1.5,10.3H0v3h1.5V10.3L1.5,10.3z M1.5,16.3H0v3h1.5V16.3L1.5,16.3z M1.5,22.3H0v3h1.5
			V22.3L1.5,22.3z M1.5,28.3H0v3h1.5V28.3L1.5,28.3z M1.5,34.3H0v3h1.5V34.3L1.5,34.3z M1.6,39.6l-1.4,0.6c0.4,0.8,1.1,1.5,2,1.7
			l0,0l0,0l0,0l0,0l0,0l0,0l0,0l0,0l0,0l0,0l0,0l0,0l0,0l0,0l0,0l0,0l0,0l0,0l0,0l0,0l0,0l0,0l0,0l0,0l0,0l0,0l0,0l0,0l0,0l0,0l0,0
			l0,0l0,0l0,0l0,0l0,0l0,0l0,0l0,0l0,0l0,0l0,0l0,0l0,0l0,0l0,0l0,0l0,0l0,0l0,0l0,0l0,0l0,0l0,0l0,0l0,0l0,0l0,0l0,0l0,0l0,0l0,0
			l0,0l0,0l0,0l0,0l0,0l0,0l0,0l0,0l0,0l0,0l0,0l0,0l0,0l0,0l0,0l0,0l0,0l0,0l0,0l0,0l0,0l0,0l0,0l0,0l0.2-1.5
			C2.2,40.4,1.8,40.1,1.6,39.6L1.6,39.6z M8.5,40.5h-3V42h3V40.5L8.5,40.5z M14.5,40.5h-3V42h3V40.5L14.5,40.5z M20.5,40.5h-3V42h3
			V40.5L20.5,40.5z M26.5,40.5h-3V42h3V40.5L26.5,40.5z M32.5,40.5h-3V42h3V40.5L32.5,40.5z M38.5,40.5h-3V42h3V40.5L38.5,40.5z
			 M42,38.2h-1.5V39c0,0.4-0.1,0.7-0.4,1l1.1,1c0.1-0.1,0.2-0.2,0.3-0.3l0,0l0,0l0,0l0,0l0,0l0,0l0,0l0,0l0,0l0,0l0,0l0,0l0,0l0,0
			l0,0l0,0l0,0l0,0l0,0l0,0l0,0l0,0l0,0l0,0l0,0l0,0l0,0l0,0l0,0l0,0l0,0l0,0l0,0l0,0l0,0l0,0l0,0l0,0l0,0l0,0l0,0l0,0l0,0l0,0l0,0
			l0,0l0,0l0,0l0,0l0,0l0,0l0,0l0,0l0,0l0,0l0,0l0,0l0,0l0,0l0,0l0,0l0,0l0,0l0,0l0,0l0,0l0,0l0,0l0,0l0,0l0,0l0,0l0,0l0,0l0,0l0,0
			l0,0l0,0l0,0l0,0l0,0l0,0l0,0l0,0l0,0l0,0l0,0l0,0l0,0l0,0l0,0l0,0l0,0l0,0l0,0l0,0l0,0l0,0l0,0l0,0l0,0l0,0l0,0l0,0l0,0l0,0l0,0
			l0,0l0,0l0,0l0,0l0,0l0,0l0,0l0,0l0,0l0,0l0,0l0,0l0,0l0,0l0,0l0,0l0,0l0,0l0,0l0,0l0,0l0,0l0,0l0,0l0,0l0,0l0,0l0,0l0,0l0,0l0,0
			l0,0l0,0l0,0l0,0l0,0l0,0l0,0l0,0l0,0l0,0l0,0l0,0l0,0l0,0l0,0l0,0l0,0l0,0l0,0l0,0l0,0l0,0l0,0l0,0l0,0l0,0l0,0l0,0l0,0l0,0l0,0
			l0,0l0,0l0,0l0,0l0,0l0,0l0,0l0,0l0,0l0,0l0,0l0,0l0,0l0,0l0,0l0,0l0,0l0,0l0,0l0,0l0,0l0,0l0,0l0,0l0,0l0,0l0,0l0,0l0,0l0,0l0,0
			l0,0l0,0l0,0l0,0l0,0l0,0l0,0l0,0l0,0l0,0l0,0l0,0l0,0l0,0l0,0l0,0l0,0l0,0l0,0l0,0l0,0l0,0l0,0l0,0l0,0l0,0l0,0l0,0l0,0l0,0l0,0
			l0,0l0,0l0,0l0,0l0,0l0,0l0,0l0,0l0,0l0,0l0,0l0,0l0,0l0,0l0,0l0,0l0,0l0,0l0,0l0,0l0,0l0,0l0,0l0,0l0,0l0,0l0,0l0,0l0,0l0,0l0,0
			l0,0l0,0l0,0l0,0l0,0l0,0l0,0l0,0l0,0l0,0l0,0l0,0l0,0l0,0l0,0l0,0l0,0l0,0l0,0l0,0l0,0l0,0l0,0l0,0l0,0l0,0l0,0l0,0l0,0l0,0l0,0
			l0,0l0,0l0,0l0,0l0,0l0,0l0,0l0,0l0,0l0,0l0,0l0,0l0,0l0,0l0,0l0,0l0,0l0,0l0,0l0,0l0,0l0,0l0,0l0,0l0,0l0,0l0,0l0,0l0,0l0,0l0,0
			l0,0l0,0l0,0l0,0l0,0l0,0l0,0l0,0l0,0l0,0l0,0l0,0l0,0l0,0l0,0l0,0l0,0l0,0l0,0l0,0l0,0l0,0l0,0l0,0l0,0l0,0l0,0l0,0l0,0l0,0l0,0
			l0,0l0,0l0,0l0,0l0,0l0,0l0,0l0,0l0,0l0,0l0,0l0,0l0,0l0,0l0,0l0,0l0,0l0,0l0,0l0,0l0,0l0,0l0,0l0,0l0,0l0,0l0,0l0,0l0,0l0,0l0,0
			l0,0l0,0l0,0l0,0l0,0l0,0l0,0l0,0l0,0l0,0l0,0l0,0l0,0l0,0l0,0l0,0l0,0l0,0l0,0l0,0l0,0l0,0l0,0l0,0l0,0l0,0l0,0l0,0l0,0l0,0l0,0
			l0,0l0,0l0,0l0,0l0,0l0,0l0,0l0,0l0,0l0,0l0,0l0,0l0,0l0,0l0,0l0,0l0,0l0,0l0,0l0,0l0,0l0,0l0,0l0,0l0,0l0,0l0,0l0,0l0,0l0,0l0,0
			l0,0l0,0l0,0l0,0l0,0l0,0l0,0l0,0l0,0l0,0l0,0l0,0l0,0l0,0l0,0l0,0l0,0l0,0l0,0l0,0l0,0l0,0l0,0l0,0l0,0l0,0l0,0l0,0l0,0l0,0l0,0
			l0,0l0,0l0,0l0,0l0,0l0,0l0,0l0,0l0,0l0,0l0,0l0,0l0,0l0,0l0,0l0,0l0,0l0,0l0,0l0,0l0,0l0,0l0,0l0,0l0,0l0,0l0,0l0,0l0,0l0,0l0,0
			l0,0l0,0l0,0l0,0l0,0l0,0l0,0l0,0l0,0l0,0l0,0l0,0l0,0l0,0l0,0l0,0l0,0l0,0l0,0l0,0l0,0l0,0l0,0l0,0l0,0l0,0l0,0l0,0l0,0l0,0l0,0
			l0,0l0,0l0,0l0,0l0,0l0,0l0,0l0,0l0,0l0,0l0,0l0,0l0,0l0,0l0,0l0,0l0,0l0,0l0,0l0,0l0,0l0,0l0,0l0,0l0,0l0,0l0,0l0,0l0,0l0,0l0,0
			l0,0l0,0l0,0l0,0l0,0l0,0l0,0l0,0l0,0l0,0l0,0l0,0l0,0l0,0l0,0l0,0l0,0l0,0l0,0l0,0l0,0l0,0l0,0l0,0l0,0l0,0l0,0l0,0l0,0l0,0l0,0
			l0,0l0,0l0,0l0,0l0,0l0,0l0,0l0,0l0,0l0,0l0,0l0,0l0,0l0,0l0,0l0,0l0,0l0,0l0,0l0,0l0,0l0,0l0,0l0,0l0,0l0,0l0,0l0,0l0,0l0,0l0,0
			l0,0l0,0l0,0l0,0l0,0l0,0l0,0l0,0l0,0l0,0l0,0l0,0l0,0l0,0l0,0l0,0l0,0l0,0l0,0l0,0l0,0l0,0l0,0l0,0l0,0l0,0l0,0l0,0l0,0l0,0l0,0
			l0,0l0,0l0,0l0,0l0,0l0,0l0,0l0,0l0,0l0,0l0,0l0,0l0,0l0,0l0,0l0,0l0,0l0,0l0,0l0,0l0,0l0,0l0,0l0,0l0,0l0,0l0,0l0,0l0,0l0,0l0,0
			l0,0l0,0l0,0l0,0l0,0l0,0l0,0l0,0l0,0l0,0v-2.5H42z M42,32.2h-1.5v3H42V32.2L42,32.2z M42,26.2h-1.5v3H42V26.2L42,26.2z M42,20.2
			h-1.5v3H42V20.2L42,20.2z M42,14.2h-1.5v3H42V14.2L42,14.2z M42,8.2h-1.5v3H42V8.2L42,8.2z M41.9,2.2l-1.5,0.4
			c0,0.1,0.1,0.3,0.1,0.4v2.2H42V3l0,0l0,0l0,0l0,0l0,0l0,0l0,0l0,0l0,0l0,0l0,0l0,0l0,0l0,0l0,0l0,0l0,0l0,0l0,0l0,0l0,0l0,0l0,0
			l0,0l0,0l0,0l0,0l0,0l0,0l0,0l0,0l0,0l0,0l0,0l0,0l0,0l0,0l0,0l0,0l0,0l0,0l0,0l0,0l0,0l0,0l0,0l0,0l0,0l0,0l0,0l0,0l0,0l0,0l0,0
			l0,0l0,0l0,0l0,0l0,0l0,0l0,0l0,0l0,0l0,0l0,0l0,0l0,0l0,0l0,0l0,0l0,0l0,0l0,0l0,0l0,0l0,0l0,0l0,0l0,0l0,0l0,0l0,0l0,0l0,0l0,0
			l0,0l0,0l0,0l0,0l0,0l0,0l0,0l0,0l0,0l0,0l0,0l0,0l0,0l0,0l0,0l0,0l0,0l0,0l0,0l0,0l0,0l0,0l0,0l0,0l0,0l0,0l0,0l0,0l0,0l0,0l0,0
			l0,0l0,0l0,0l0,0l0,0l0,0l0,0l0,0l0,0l0,0l0,0l0,0l0,0l0,0l0,0l0,0l0,0l0,0l0,0l0,0l0,0l0,0l0,0l0,0l0,0l0,0l0,0l0,0l0,0l0,0l0,0
			l0,0l0,0l0,0l0,0l0,0l0,0l0,0l0,0l0,0l0,0l0,0l0,0l0,0l0,0l0,0l0,0l0,0l0,0l0,0l0,0l0,0l0,0l0,0l0,0l0,0l0,0l0,0l0,0l0,0l0,0l0,0
			l0,0l0,0l0,0l0,0l0,0l0,0l0,0l0,0l0,0l0,0l0,0l0,0l0,0l0,0l0,0l0,0l0,0l0,0l0,0l0,0l0,0l0,0l0,0l0,0l0,0l0,0l0,0l0,0l0,0l0,0l0,0
			l0,0l0,0l0,0l0,0l0,0l0,0l0,0l0,0l0,0l0,0l0,0l0,0l0,0l0,0l0,0l0,0l0,0l0,0l0,0l0,0l0,0l0,0l0,0l0,0C41.9,2.3,41.9,2.3,41.9,2.2
			L41.9,2.2z M39,0v1.5c0.2,0,0.3,0,0.5,0.1l0.4-1.4c-0.1,0-0.2-0.1-0.3-0.1l0,0l0,0l0,0l0,0l0,0l0,0l0,0l0,0l0,0l0,0l0,0l0,0l0,0
			l0,0l0,0l0,0l0,0l0,0l0,0l0,0l0,0l0,0l0,0l0,0l0,0l0,0l0,0l0,0l0,0l0,0l0,0l0,0l0,0l0,0l0,0l0,0l0,0l0,0l0,0l0,0l0,0l0,0l0,0l0,0
			l0,0l0,0l0,0l0,0l0,0l0,0l0,0l0,0l0,0l0,0l0,0l0,0l0,0l0,0l0,0l0,0l0,0l0,0l0,0l0,0l0,0l0,0l0,0l0,0l0,0l0,0l0,0l0,0l0,0l0,0l0,0
			l0,0l0,0l0,0l0,0l0,0l0,0l0,0l0,0l0,0l0,0l0,0l0,0l0,0l0,0l0,0l0,0l0,0l0,0l0,0l0,0l0,0l0,0l0,0l0,0l0,0l0,0l0,0l0,0l0,0l0,0l0,0
			l0,0l0,0l0,0l0,0l0,0l0,0l0,0l0,0l0,0l0,0l0,0l0,0l0,0l0,0l0,0l0,0l0,0l0,0l0,0l0,0l0,0l0,0l0,0l0,0l0,0l0,0l0,0l0,0l0,0l0,0l0,0
			l0,0l0,0l0,0l0,0l0,0l0,0l0,0l0,0l0,0l0,0l0,0l0,0l0,0l0,0l0,0l0,0l0,0l0,0l0,0l0,0l0,0l0,0l0,0l0,0l0,0l0,0l0,0l0,0l0,0l0,0l0,0
			l0,0l0,0l0,0l0,0l0,0l0,0l0,0l0,0l0,0l0,0C39.1,0,39.1,0,39,0C39.1,0,39.1,0,39,0C39.1,0,39.1,0,39,0C39.1,0,39.1,0,39,0
			C39.1,0,39.1,0,39,0C39.1,0,39.1,0,39,0C39.1,0,39.1,0,39,0C39.1,0,39.1,0,39,0C39.1,0,39.1,0,39,0C39.1,0,39.1,0,39,0
			C39.1,0,39.1,0,39,0C39.1,0,39.1,0,39,0C39.1,0,39.1,0,39,0C39.1,0,39.1,0,39,0C39.1,0,39.1,0,39,0C39.1,0,39.1,0,39,0
			C39.1,0,39.1,0,39,0C39.1,0,39.1,0,39,0C39.1,0,39.1,0,39,0C39.1,0,39.1,0,39,0C39.1,0,39.1,0,39,0C39.1,0,39,0,39,0L39,0L39,0
			L39,0L39,0L39,0L39,0L39,0L39,0L39,0L39,0L39,0L39,0L39,0L39,0L39,0L39,0L39,0L39,0L39,0L39,0z"/>
	</g>
	<g>
		<path class="st1" d="M26,30.8c0-1-0.8-1.8-1.8-1.8h-6.5c-1,0-1.8,0.8-1.8,1.8v6.5c0,1,0.8,1.8,1.8,1.8h6.5c1,0,1.8-0.8,1.8-1.8
			V30.8z"/>
	</g>
	<g>
		<line class="st2" x1="21" y1="30.8" x2="21" y2="37.3"/>
		<line class="st2" x1="24.2" y1="34" x2="17.7" y2="34"/>
	</g>
</g>
</svg>
