<?xml version="1.0" encoding="utf-8"?>
<!-- Generator: Adobe Illustrator 19.2.1, SVG Export Plug-In . SVG Version: 6.00 Build 0)  -->
<svg version="1.1" id="Layer_1" xmlns="http://www.w3.org/2000/svg" xmlns:xlink="http://www.w3.org/1999/xlink" x="0px" y="0px"
	 viewBox="0 0 29 29" style="enable-background:new 0 0 29 29;" xml:space="preserve">
<style type="text/css">
	.st0{fill:#FECD66;}
	.st1{fill:none;stroke:#FFFFFF;stroke-width:1.2;stroke-miterlimit:10;}
</style>
<g>
	<g>
		
			<rect x="4.2" y="4.2" transform="matrix(0.7071 -0.7071 0.7071 0.7071 -6.0062 14.4999)" class="st0" width="20.5" height="20.5"/>
		<g>
			<path class="st1" d="M14.5,6.5c-4.4,0-8,3.6-8,8s3.6,8,8,8s8-3.6,8-8S18.9,6.5,14.5,6.5z M14.5,20.7c-3.4,0-6.2-2.8-6.2-6.2
				s2.8-6.2,6.2-6.2s6.2,2.8,6.2,6.2S17.9,20.7,14.5,20.7z"/>
			<polygon class="st1" points="12.6,17.5 11,14 14.5,11 18,14 16.4,17.5 			"/>
		</g>
	</g>
</g>
</svg>
