<?xml version="1.0" encoding="utf-8"?>
<!-- Generator: Adobe Illustrator 19.2.1, SVG Export Plug-In . SVG Version: 6.00 Build 0)  -->
<svg version="1.1" id="Layer_1" xmlns="http://www.w3.org/2000/svg" xmlns:xlink="http://www.w3.org/1999/xlink" x="0px" y="0px"
	 viewBox="0 0 42 42" style="enable-background:new 0 0 42 42;" xml:space="preserve">
<style type="text/css">
	.st0{fill:#FFFFFF;}
	.st1{fill:none;stroke:#FECD66;stroke-width:0.9467;stroke-miterlimit:10;}
</style>
<g>
	<rect x="6.1" y="6.2" transform="matrix(0.7071 -0.7071 0.7071 0.7071 -8.7193 20.9498)" class="st0" width="29.7" height="29.7"/>
	<path class="st1" d="M21,8.5C14.1,8.5,8.5,14.1,8.5,21S14.1,33.5,21,33.5S33.5,27.9,33.5,21S27.9,8.5,21,8.5z M21,31.3
		c-5.7,0-10.3-4.6-10.3-10.3S15.3,10.7,21,10.7S31.3,15.3,31.3,21S26.7,31.3,21,31.3z"/>
	<polygon class="st1" points="17.2,26.6 14.9,19.5 21,15.1 27.1,19.5 24.8,26.6 	"/>
</g>
</svg>
