<svg xmlns="http://www.w3.org/2000/svg" width="24" height="24" viewBox="0 0 24 24"><defs><style>.a,.c{fill:none;}.a{stroke:#54657d;stroke-miterlimit:10;}.b{fill:#54657d;}</style></defs><rect class="a" width="6" height="6" rx="1" transform="translate(9.5 11.5)"/><rect class="b" width="3" height="1" transform="translate(11 14)"/><g transform="translate(857 -2067.926)"><path class="b" d="M-838,2074.926h-1v-1h1Zm-2,0h-1v-1h1Zm-2,0h-1v-1h1Zm-2,0h-1v-1h1Zm-2,0h-1v-1h1Zm-2,0h-1v-1h1Zm-2,0h-1v-1h1Z"/></g><g transform="translate(857 -2067.926)"><path class="b" d="M-838,2085.926h-1v-1h1Zm-2,0h-1v-1h1Zm-8,0h-1v-1h1Zm-2,0h-1v-1h1Z"/></g><g transform="translate(857 -2067.926)"><path class="b" d="M-837,2084.463h-1v-1h1Zm0-2h-1v-1h1Zm0-2h-1v-1h1Zm0-2h-1v-1h1Zm0-2h-1v-1h1Z"/></g><g transform="translate(857 -2067.926)"><path class="b" d="M-851,2084.463h-1v-1h1Zm0-2h-1v-1h1Zm0-2h-1v-1h1Zm0-2h-1v-1h1Zm0-2h-1v-1h1Z"/></g><rect class="c" width="24" height="24"/></svg>