<?xml version="1.0" encoding="utf-8"?>
<!-- Generator: Adobe Illustrator 19.2.1, SVG Export Plug-In . SVG Version: 6.00 Build 0)  -->
<svg version="1.1" id="Layer_1" xmlns="http://www.w3.org/2000/svg" xmlns:xlink="http://www.w3.org/1999/xlink" x="0px" y="0px"
	 viewBox="0 0 71 71" style="enable-background:new 0 0 71 71;" xml:space="preserve">
<style type="text/css">
	.st0{fill:#FECD66;}
	.st1{fill:none;stroke:#FFFFFF;stroke-width:1.6;stroke-miterlimit:10;}
</style>
<g>
	
		<rect x="10.4" y="10.4" transform="matrix(0.7071 -0.7071 0.7071 0.7071 -14.7045 35.5001)" class="st0" width="50.2" height="50.2"/>
	<g>
		<path class="st1" d="M35.5,14.3c-11.7,0-21.2,9.5-21.2,21.2s9.5,21.2,21.2,21.2c11.7,0,21.2-9.5,21.2-21.2S47.2,14.3,35.5,14.3z
			 M35.5,52.9c-9.6,0-17.4-7.8-17.4-17.4s7.8-17.4,17.4-17.4c9.6,0,17.4,7.8,17.4,17.4S45.1,52.9,35.5,52.9z"/>
		<polygon class="st1" points="29.2,45 25.2,32.9 35.5,25.5 45.8,32.9 41.8,45 		"/>
	</g>
</g>
</svg>
