<?xml version="1.0" encoding="utf-8"?>
<!-- Generator: Adobe Illustrator 19.2.0, SVG Export Plug-In . SVG Version: 6.00 Build 0)  -->
<svg version="1.1" id="Layer_1" xmlns="http://www.w3.org/2000/svg" xmlns:xlink="http://www.w3.org/1999/xlink" x="0px" y="0px"
	 viewBox="0 0 27 27" style="enable-background:new 0 0 27 27;" xml:space="preserve">
<style type="text/css">
	.st0{fill:#839DC3;}
	.st1{fill:#FFFFFF;}
</style>
<g>
	<path class="st0" d="M24,27H3c-1.7,0-3-1.3-3-3V3c0-1.7,1.3-3,3-3h21c1.7,0,3,1.3,3,3v21C27,25.7,25.7,27,24,27z"/>
	<g>
		<g>
			<path class="st1" d="M7.6,21.8c-0.4,0-0.7-0.1-1-0.2v-1.1c0.4,0.1,0.7,0.2,0.9,0.2c0.4,0,0.7-0.2,1-0.5c0.2-0.3,0.4-0.8,0.6-1.4
				l1.9-9H9.3l0.1-0.9h1.7l0.2-0.7c0.3-1.1,0.6-1.8,1.1-2.3c0.5-0.4,1.1-0.7,2-0.7c0.2,0,0.5,0,0.8,0.1c0.3,0.1,0.6,0.1,0.8,0.2
				l-0.4,1c-0.4-0.2-0.8-0.2-1.1-0.2c-0.5,0-0.9,0.1-1.1,0.4c-0.3,0.3-0.5,0.7-0.6,1.4l-0.2,0.8h2l-0.2,0.9h-2l-1.9,9.1
				c-0.2,1-0.6,1.8-1,2.2C8.9,21.6,8.3,21.8,7.6,21.8z"/>
		</g>
		<g>
			<path class="st1" d="M15.7,15l-1.9,2.2h-1.7l2.9-3.3l-1.4-3.2h1.5L16,13l1.8-2.3h1.7L16.7,14l1.5,3.2h-1.5L15.7,15z"/>
		</g>
	</g>
</g>
</svg>
