<svg xmlns="http://www.w3.org/2000/svg" width="24" height="24" viewBox="0 0 24 24"><defs><style>.a{fill:none;}.b{fill:#54657d;}</style></defs><rect class="a" width="24" height="24"/><g transform="translate(6.164 4.917)"><path class="b" d="M7.453,19.362a2.56,2.56,0,0,1-.853-.171v-.938a4.326,4.326,0,0,0,.768.171A1.186,1.186,0,0,0,8.221,18,5.5,5.5,0,0,0,8.733,16.8l1.621-7.678H8.9l.085-.768h1.45l.171-.6A4.206,4.206,0,0,1,11.548,5.8a2.559,2.559,0,0,1,1.706-.6,2.124,2.124,0,0,1,.683.085c.256.085.512.085.683.171l-.341.853a2,2,0,0,0-.938-.171,1.066,1.066,0,0,0-.938.341,1.954,1.954,0,0,0-.512,1.194l-.171.683h1.706l-.171.768H11.548L9.927,16.888a3.848,3.848,0,0,1-.853,1.877A2.4,2.4,0,0,1,7.453,19.362Z" transform="translate(-6.6 -5.198)"/><path class="b" d="M15.171,14.369,13.55,16.246H12.1l2.474-2.815L13.38,10.7h1.28l.768,1.962L16.963,10.7h1.45l-2.389,2.815,1.28,2.73h-1.28Z" transform="translate(-7.408 -6.006)"/></g></svg>