<?xml version="1.0" encoding="utf-8"?>
<!-- Generator: Adobe Illustrator 19.2.0, SVG Export Plug-In . SVG Version: 6.00 Build 0)  -->
<svg version="1.1" id="Layer_1" xmlns="http://www.w3.org/2000/svg" xmlns:xlink="http://www.w3.org/1999/xlink" x="0px" y="0px"
	 viewBox="0 0 69 55" style="enable-background:new 0 0 69 55;" xml:space="preserve">
<style type="text/css">
	.st0{fill:#839DC3;}
	.st1{fill:#FFFFFF;}
</style>
<g>
	<path class="st0" d="M59,55H10C4.5,55,0,50.5,0,45V10C0,4.5,4.5,0,10,0h49c5.5,0,10,4.5,10,10v35C69,50.5,64.5,55,59,55z"/>
	<g>
		<g>
			<path class="st1" d="M23.4,45.2c-0.8,0-1.5-0.1-2.1-0.4v-2.4c0.7,0.3,1.4,0.4,1.9,0.4c0.9,0,1.5-0.4,2-1.1c0.5-0.7,0.8-1.7,1.1-3
				l3.9-18.6h-3.3l0.2-2.1l3.5-0.2l0.4-1.7c0.5-2.3,1.3-3.9,2.2-4.9c0.9-0.9,2.3-1.4,4.2-1.4c0.5,0,1,0.1,1.7,0.2
				c0.7,0.1,1.2,0.3,1.5,0.4l-0.7,2.2c-0.9-0.3-1.7-0.5-2.4-0.5c-1,0-1.8,0.3-2.3,0.8c-0.5,0.6-1,1.6-1.3,3.1l-0.4,1.9h4.1l-0.4,2.2
				h-4.1l-4,18.9c-0.4,2.2-1.1,3.7-2.1,4.7C26.1,44.7,24.9,45.2,23.4,45.2z"/>
		</g>
		<g>
			<path class="st1" d="M40.2,31.1l-3.9,4.7h-3.4l6-6.9L36,22.1h3.1l1.8,4.8l3.6-4.8H48l-5.8,6.9l3.1,6.7h-3.1L40.2,31.1z"/>
		</g>
	</g>
</g>
</svg>
