<svg xmlns="http://www.w3.org/2000/svg" width="69" height="55" viewBox="0 0 69 55"><defs><style>.a{fill:#839dc3;}.b{fill:#fff;}</style></defs><path class="a" d="M650,462a5.015,5.015,0,0,1-5,5H586a5.015,5.015,0,0,1-5-5V417a5.015,5.015,0,0,1,5-5h59a5.015,5.015,0,0,1,5,5Z" transform="translate(-581 -412)"/><g transform="translate(25.093 15.677)"><path class="b" d="M8.084,29.842a4.453,4.453,0,0,1-1.484-.3V27.912a7.526,7.526,0,0,0,1.336.3,2.063,2.063,0,0,0,1.484-.742,9.574,9.574,0,0,0,.891-2.078l2.82-13.359H10.608l.148-1.336H13.28l.3-1.039A7.318,7.318,0,0,1,15.209,6.24,4.453,4.453,0,0,1,18.178,5.2a3.7,3.7,0,0,1,1.187.148c.445.148.891.148,1.187.3l-.594,1.484a3.473,3.473,0,0,0-1.633-.3,1.855,1.855,0,0,0-1.633.594A3.4,3.4,0,0,0,15.8,9.506l-.3,1.188h2.969l-.3,1.336H15.209l-2.82,13.508A6.7,6.7,0,0,1,10.9,28.8,4.171,4.171,0,0,1,8.084,29.842Z" transform="translate(-6.6 -5.198)"/><path class="b" d="M17.444,17.083l-2.82,3.266H12.1l4.3-4.9L14.327,10.7h2.227l1.336,3.414L20.561,10.7h2.523l-4.156,4.9,2.227,4.75H18.928Z" transform="translate(-3.936 -2.533)"/></g></svg>