<?xml version="1.0" encoding="utf-8"?>
<!-- Generator: Adobe Illustrator 19.2.0, SVG Export Plug-In . SVG Version: 6.00 Build 0)  -->
<svg version="1.1" id="Layer_1" xmlns="http://www.w3.org/2000/svg" xmlns:xlink="http://www.w3.org/1999/xlink" x="0px" y="0px"
	 viewBox="0 0 42 42" style="enable-background:new 0 0 42 42;" xml:space="preserve">
<style type="text/css">
	.st0{fill:#FFFFFF;}
	.st1{fill:#839DC3;}
</style>
<g>
	<path class="st0" d="M39,42H3c-1.7,0-3-1.3-3-3V3c0-1.7,1.3-3,3-3h36c1.7,0,3,1.3,3,3v36C42,40.7,40.7,42,39,42z"/>
	<g>
		<g>
			<path class="st1" d="M12.1,33.6c-0.6,0-1.1-0.1-1.5-0.3v-1.7c0.5,0.2,1,0.3,1.3,0.3c0.6,0,1.1-0.2,1.4-0.7
				c0.3-0.5,0.6-1.2,0.8-2.1l2.7-13h-2.3l0.2-1.4l2.5-0.2l0.3-1.2c0.4-1.6,0.9-2.7,1.5-3.4c0.7-0.7,1.6-1,2.9-1c0.3,0,0.7,0,1.2,0.1
				c0.5,0.1,0.8,0.2,1.1,0.3l-0.5,1.6c-0.6-0.2-1.2-0.3-1.6-0.3c-0.7,0-1.2,0.2-1.6,0.6c-0.4,0.4-0.7,1.1-0.9,2.1l-0.3,1.3h2.9
				l-0.3,1.5h-2.9l-2.8,13.2c-0.3,1.5-0.8,2.6-1.4,3.3C14.1,33.3,13.2,33.6,12.1,33.6z"/>
		</g>
		<g>
			<path class="st1" d="M23.9,23.8l-2.7,3.3h-2.4l4.2-4.8l-2-4.8h2.2l1.3,3.4l2.5-3.4h2.4l-4.1,4.9l2.2,4.7h-2.2L23.9,23.8z"/>
		</g>
	</g>
</g>
</svg>
