<?xml version="1.0" encoding="utf-8"?>
<!-- Generator: Adobe Illustrator 19.2.1, SVG Export Plug-In . SVG Version: 6.00 Build 0)  -->
<svg version="1.1" id="Layer_1" xmlns="http://www.w3.org/2000/svg" xmlns:xlink="http://www.w3.org/1999/xlink" x="0px" y="0px"
	 viewBox="0 0 42 42" style="enable-background:new 0 0 42 42;" xml:space="preserve">
<style type="text/css">
	.st0{fill:#FFFFFF;}
	.st1{fill:none;stroke:#F79552;stroke-miterlimit:10;}
	.st2{fill:#F79552;}
	.st3{fill:none;stroke:#FFFFFF;stroke-width:2;stroke-miterlimit:10;}
</style>
<g>
	<path class="st0" d="M42,21C42,9.4,32.6,0,21,0S0,9.4,0,21s9.4,21,21,21S42,32.6,42,21z"/>
	<path class="st1" d="M21,40.3C10.4,40.3,1.7,31.6,1.7,21S10.4,1.7,21,1.7S40.3,10.4,40.3,21S31.6,40.3,21,40.3z"/>
	<g>
		<g>
			<path class="st2" d="M34.1,26.1c0,1.9-1.5,3.4-3.4,3.4H11.4C9.5,29.5,8,28,8,26.1V14.7c0-1.9,1.5-3.4,3.4-3.4h19.3
				c1.9,0,3.4,1.5,3.4,3.4V26.1z"/>
		</g>
		<polyline class="st3" points="8.5,11.9 21,23.2 33.5,11.9 		"/>
	</g>
</g>
</svg>
