<?xml version="1.0" encoding="utf-8"?>
<!-- Generator: Adobe Illustrator 16.0.0, SVG Export Plug-In . SVG Version: 6.00 Build 0)  -->
<svg version="1.1" id="Layer_1" xmlns="http://www.w3.org/2000/svg" xmlns:xlink="http://www.w3.org/1999/xlink" x="0px" y="0px"
	 viewBox="0 0 27 27" style="enable-background:new 0 0 27 27;" xml:space="preserve">
<style type="text/css">
	.st0{fill:none;stroke:#FFFFFF;stroke-width:1.6;stroke-miterlimit:10;}
	.st1{fill:#F79552;}
	.st2{fill:#FFFFFF;}
	.st3{fill:none;}
	.st4{fill:none;stroke:#F79552;stroke-miterlimit:10;}
</style>
<g>
	<circle class="st2" cx="13.5" cy="13.5" r="13.5"/>
	<path class="st3" d="M23.5,13.5c0-5.521-4.477-10-10-10c-5.522,0-10,4.479-10,10c0,5.52,4.478,10,10,10
		C19.023,23.5,23.5,19.02,23.5,13.5z"/>
	<g>
		<path class="st4" d="M13.5,2.5c-6.074,0-11,4.927-11,11s4.926,11,11,11s11-4.927,11-11S19.574,2.5,13.5,2.5z"/>
		<path class="st4" d="M13.5,22.5c-4.971,0-9-4.032-9-9s4.029-9,9-9s9,4.032,9,9S18.471,22.5,13.5,22.5z"/>
	</g>
	<circle class="st1" cx="13.5" cy="13.5" r="6"/>
	<polyline class="st0" points="16.5,9.5 13.5,13.5 15.5,15.5"/>
	<line class="st3" x1="13.5" y1="7" x2="13.5" y2="9"/>
	<line class="st3" x1="13.5" y1="18" x2="13.5" y2="20"/>
	<line class="st3" x1="7" y1="13.5" x2="9" y2="13.5"/>
	<line class="st3" x1="18" y1="13.5" x2="20" y2="13.5"/>
</g>
</svg>
