<?xml version="1.0" encoding="utf-8"?>
<!-- Generator: Adobe Illustrator 19.2.1, SVG Export Plug-In . SVG Version: 6.00 Build 0)  -->
<svg version="1.1" id="Layer_1" xmlns="http://www.w3.org/2000/svg" xmlns:xlink="http://www.w3.org/1999/xlink" x="0px" y="0px"
	 viewBox="0 0 42 42" style="enable-background:new 0 0 42 42;" xml:space="preserve">
<style type="text/css">
	.st0{fill:#FFFFFF;}
	.st1{fill:none;stroke:#F79552;stroke-miterlimit:10;}
	.st2{fill:#F79552;}
	.st3{fill:none;}
	.st4{fill:none;stroke:#FFFFFF;stroke-width:2;stroke-miterlimit:10;}
</style>
<path class="st0" d="M41.7,21C41.7,9.6,32.4,0.3,21,0.3S0.3,9.6,0.3,21S9.6,41.7,21,41.7S41.7,32.4,41.7,21z"/>
<path class="st1" d="M21,40C10.5,40,2,31.5,2,21S10.5,2,21,2s19,8.6,19,19S31.5,40,21,40z"/>
<path class="st2" d="M21,33.9c-7.1,0-12.9-5.8-12.9-12.9S13.9,8.1,21,8.1S33.9,13.9,33.9,21S28.1,33.9,21,33.9z"/>
<line class="st3" x1="8.1" y1="21" x2="11.5" y2="21"/>
<line class="st3" x1="30.5" y1="21" x2="33.9" y2="21"/>
<line class="st3" x1="21" y1="33.9" x2="21" y2="30.5"/>
<line class="st3" x1="21" y1="11.5" x2="21" y2="8.1"/>
<polyline class="st4" points="27.2,11.5 21,21.6 27.7,26.6 "/>
</svg>
