<?xml version="1.0" encoding="utf-8"?>
<!-- Generator: Adobe Illustrator 19.2.0, SVG Export Plug-In . SVG Version: 6.00 Build 0)  -->
<svg version="1.1" id="Layer_1" xmlns="http://www.w3.org/2000/svg" xmlns:xlink="http://www.w3.org/1999/xlink" x="0px" y="0px"
	 viewBox="0 0 42 42" style="enable-background:new 0 0 42 42;" xml:space="preserve">
<style type="text/css">
	.st0{fill:#FFFFFF;}
	.st1{fill:#00AEF0;}
	.st2{fill:none;}
	.st3{fill:none;stroke:#00AEF0;stroke-miterlimit:10;}
</style>
<path class="st0" d="M39,42H3c-1.7,0-3-1.3-3-3V3c0-1.7,1.3-3,3-3h36c1.7,0,3,1.3,3,3v36C42,40.7,40.7,42,39,42z"/>
<g>
	<g>
		<path class="st1" d="M34,27.6v7h-7v-7H34 M35,26.6h-9v9h9V26.6L35,26.6z"/>
	</g>
	<g>
		<path class="st1" d="M10.5,8.6c1.9,0,3.5,1.6,3.5,3.5s-1.6,3.5-3.5,3.5S7,14.1,7,12.1S8.6,8.6,10.5,8.6 M10.5,7.6
			C8,7.6,6,9.7,6,12.1c0,2.5,2,4.5,4.5,4.5c2.5,0,4.5-2,4.5-4.5C15,9.7,13,7.6,10.5,7.6L10.5,7.6z"/>
	</g>
	<g>
		<path class="st1" d="M10.5,27.6c1.9,0,3.5,1.6,3.5,3.5s-1.6,3.5-3.5,3.5S7,33.1,7,31.1S8.6,27.6,10.5,27.6 M10.5,26.6
			c-2.5,0-4.5,2-4.5,4.5c0,2.5,2,4.5,4.5,4.5c2.5,0,4.5-2,4.5-4.5C15,28.7,13,26.6,10.5,26.6L10.5,26.6z"/>
	</g>
	<g>
		<path class="st1" d="M10.5,30.1c0.6,0,1,0.4,1,1s-0.4,1-1,1s-1-0.4-1-1S9.9,30.1,10.5,30.1 M10.5,29.1c-1.1,0-2,0.9-2,2
			c0,1.1,0.9,2,2,2c1.1,0,2-0.9,2-2C12.5,30,11.6,29.1,10.5,29.1L10.5,29.1z"/>
	</g>
	<g>
		<rect x="2" y="1.6" class="st2" width="38" height="38"/>
	</g>
	<g>
		<polygon class="st3" points="30.5,7.1 35.6,12.2 30.5,17.1 25.4,12.2"/>
		<g>
			<rect x="24" y="5.6" class="st2" width="13" height="13"/>
		</g>
	</g>
	<line class="st3" x1="24.3" y1="12.1" x2="15" y2="12.1"/>
	<g>
		<path class="st1" d="M22.6,14v-3.7l2.5,1.8L22.6,14z"/>
	</g>
	<line class="st3" x1="15.9" y1="31.1" x2="26" y2="31.1"/>
	<g>
		<path class="st1" d="M17.6,29.2v3.7l-2.5-1.8L17.6,29.2z"/>
	</g>
	<line class="st3" x1="30.6" y1="25.9" x2="30.6" y2="17"/>
	<g>
		<path class="st1" d="M28.7,24.2h3.7l-1.8,2.5L28.7,24.2z"/>
	</g>
</g>
</svg>
