<?xml version="1.0" encoding="utf-8"?>
<!-- Generator: Adobe Illustrator 19.2.0, SVG Export Plug-In . SVG Version: 6.00 Build 0)  -->
<svg version="1.1" id="Layer_1" xmlns="http://www.w3.org/2000/svg" xmlns:xlink="http://www.w3.org/1999/xlink" x="0px" y="0px"
	 viewBox="0 0 27 27" style="enable-background:new 0 0 27 27;" xml:space="preserve">
<style type="text/css">
	.st0{fill:#839DC3;}
	.st1{fill:#FFFFFF;}
</style>
<g>
	<path class="st0" d="M24,27H3c-1.7,0-3-1.3-3-3V3c0-1.7,1.3-3,3-3h21c1.7,0,3,1.3,3,3v21C27,25.7,25.7,27,24,27z"/>
	<g>
		<path class="st1" d="M7.9,10.4h8c-0.2-0.5-0.3-0.9-0.3-1.3c0-0.8,0.3-1.5,1-2.2c-0.5-0.1-1.1-0.2-1.6-0.2h-3.2
			C9.1,6.8,7,7.9,7,9.1C7,9.6,7.4,10.1,7.9,10.4z"/>
		<g>
			<path class="st1" d="M15,17.3c0-1.8,4.5-6,4.5-7.4c0-1.6-0.7-2.1-1.7-2.6c-0.6,0.4-1,1.1-1,1.8c0,1.1,0.7,2.4,0.7,2.4H9.3L7,16.7
				c0,0,0,0.5,0,0.8c0,1.3,1.2,2.3,2.6,2.3h6.6C15.5,19.3,15,18.4,15,17.3z"/>
			<path class="st1" d="M16.5,17.3c0,0.3,0.7,2.2,1.8,2.2c1.1,0,1.5-1.4,1.7-2.6h-3.1C16.9,17,16.5,16.8,16.5,17.3z"/>
		</g>
	</g>
</g>
</svg>
