<?xml version="1.0" encoding="utf-8"?>
<!-- Generator: Adobe Illustrator 19.2.0, SVG Export Plug-In . SVG Version: 6.00 Build 0)  -->
<svg version="1.1" id="Layer_1" xmlns="http://www.w3.org/2000/svg" xmlns:xlink="http://www.w3.org/1999/xlink" x="0px" y="0px"
	 viewBox="0 0 69 55" style="enable-background:new 0 0 69 55;" xml:space="preserve">
<style type="text/css">
	.st0{fill:#839DC3;}
	.st1{fill:#FFFFFF;}
</style>
<g>
	<path class="st0" d="M59,55H10C4.5,55,0,50.5,0,45V10C0,4.5,4.5,0,10,0h49c5.5,0,10,4.5,10,10v35C69,50.5,64.5,55,59,55z"/>
	<g>
		<path class="st1" d="M25.8,22.4h14.5c-0.7-0.9-1.2-2.1-1.2-3.4c0-2.3,1.3-3.9,3.5-4.6c-0.1,0-0.3,0-0.4,0H27.4
			c-2.5,0-4.6,1.9-4.6,4.2C22.8,20.3,24.1,21.8,25.8,22.4z"/>
		<g>
			<path class="st1" d="M42.2,34.7c-0.3,0.8-0.5,1.5-0.5,2c0,1.8,1,2.9,2.8,3.3c1.7-0.7,3-2.8,3.2-5.2H42.2z"/>
			<path class="st1" d="M40.1,36.7c0-5.3,6.7-12.3,6.7-16.8c0-2.7-1-4.6-1.8-4.6c-3,0-4.4,1.6-4.4,3.7c0,2,1.5,3.4,2,3.4l0.5,1.5
				H26.6l-3.9,10.8c0,0,0,0.9,0,1.4c0,2.3,2.1,4.2,4.6,4.2h14.3C40.7,39.4,40.1,38.2,40.1,36.7z"/>
		</g>
	</g>
</g>
</svg>
