<svg xmlns="http://www.w3.org/2000/svg" width="69" height="55" viewBox="0 0 69 55"><defs>
<style>.a{fill:#839dc3;}.b,.c{fill:none;stroke:#fff;stroke-miterlimit:10;}.c{stroke-linecap:round;}</style></defs><path class="a" d="M645,534H586a5.015,5.015,0,0,1-5-5V484a5.015,5.015,0,0,1,5-5h59a5.015,5.015,0,0,1,5,5v45A4.951,4.951,0,0,1,645,534Z" transform="translate(-581 -479)"/><path class="b" d="M621.3,510.5h5.3v2.8a3.222,3.222,0,0,1-3.2,3.2H608.9a3.222,3.222,0,0,1-3.2-3.2c0-3.2,2.6-7.1,3.9-11.1" transform="translate(-581 -479)"/><path class="b" d="M623.3,516.5a2.975,2.975,0,0,1-2.9-3.2c0-3.2,6.1-10.1,6.1-14.7a3.1,3.1,0,1,0-6.2,0,2.768,2.768,0,0,0,2.6,2.9H608.6a2.979,2.979,0,0,1-3.2-2.9,3.2,3.2,0,0,1,3.2-3.1h14.7" transform="translate(-581 -479)"/><line class="c" x2="7" transform="translate(31 26.5)"/><line class="c" x2="4" transform="translate(30 29.5)"/><line class="c" x2="2" transform="translate(35 29.5)"/></svg>