<svg xmlns="http://www.w3.org/2000/svg" xmlns:xlink="http://www.w3.org/1999/xlink" width="24" height="24" viewBox="0 0 24 24"><defs><style>.a,.c{fill:none;}.b{clip-path:url(#a);}.c{stroke:#54657d;stroke-miterlimit:10;}</style><clipPath id="a"><rect class="a" width="24" height="24"/></clipPath></defs><g class="b"><path class="c" d="M124.5,218.5h-9a2.006,2.006,0,0,1-2-2h0a2.006,2.006,0,0,1,2-2h9" transform="translate(-108 -209)"/><path class="c" d="M123,223.5h3.5v2a2.006,2.006,0,0,1-2,2h-9a2.006,2.006,0,0,1-2-2c0-2,1.5-4.5,2.3-7" transform="translate(-108 -209)"/><path class="c" d="M124.5,227.5a2.006,2.006,0,0,1-2-2c0-2,2.8-5.5,3.7-8a3.81,3.81,0,0,0,.3-1,2,2,0,1,0-2,2" transform="translate(-108 -209)"/><rect class="a" width="24" height="24"/></g></svg>