<?xml version="1.0" encoding="utf-8"?>
<!-- Generator: Adobe Illustrator 19.2.0, SVG Export Plug-In . SVG Version: 6.00 Build 0)  -->
<svg version="1.1" id="Layer_1" xmlns="http://www.w3.org/2000/svg" xmlns:xlink="http://www.w3.org/1999/xlink" x="0px" y="0px"
	 viewBox="0 0 42 42" style="enable-background:new 0 0 42 42;" xml:space="preserve">
<style type="text/css">
	.st0{fill:#FFFFFF;}
	.st1{fill:#839DC3;}
</style>
<g>
	<path class="st0" d="M39,42H3c-1.7,0-3-1.3-3-3V3c0-1.7,1.3-3,3-3h36c1.7,0,3,1.3,3,3v36C42,40.7,40.7,42,39,42z"/>
	<g>
		<path class="st1" d="M14.4,17.6h10.1c-0.5-0.6-0.8-1.5-0.8-2.4c0-1.6,0.9-2.8,2.4-3.2c-0.1,0-0.2,0-0.3,0H15.5
			c-1.8,0-3.2,1.3-3.2,2.9C12.3,16.1,13.2,17.2,14.4,17.6z"/>
		<g>
			<path class="st1" d="M25.9,26.2c-0.2,0.6-0.4,1.1-0.4,1.4c0,1.3,0.7,2,2,2.3c1.2-0.5,2.1-2,2.3-3.7H25.9z"/>
			<path class="st1" d="M24.4,27.6c0-3.7,4.7-8.6,4.7-11.7c0-1.9-0.7-3.2-1.2-3.2c-2.1,0-3.1,1.1-3.1,2.6c0,1.4,1.1,2.4,1.4,2.4
				l0.3,1H15l-2.7,7.6c0,0,0,0.6,0,1c0,1.6,1.5,2.9,3.2,2.9h10C24.8,29.5,24.4,28.6,24.4,27.6z"/>
		</g>
	</g>
</g>
</svg>
