<?xml version="1.0" encoding="utf-8"?>
<!-- Generator: Adobe Illustrator 16.0.0, SVG Export Plug-In . SVG Version: 6.00 Build 0)  -->
<svg version="1.1" id="Layer_1" xmlns="http://www.w3.org/2000/svg" xmlns:xlink="http://www.w3.org/1999/xlink" x="0px" y="0px"
	 viewBox="0 0 27 27" enable-background="new 0 0 27 27" xml:space="preserve">
<g>
	<circle fill="#FFFFFF" cx="13.5" cy="13.5" r="13.5"/>
	<path fill="none" d="M23.5,13.5c0-5.521-4.479-10-10-10c-5.522,0-10,4.479-10,10c0,5.52,4.478,10,10,10
		C19.021,23.5,23.5,19.02,23.5,13.5z"/>
	<polygon fill="none" stroke="#8ECB60" stroke-width="1.4" stroke-miterlimit="10" points="9,16.5 18,16.5 13.5,8.5 	"/>
	<g>
		<path fill="none" stroke="#8ECB60" stroke-width="1.4" stroke-miterlimit="10" d="M13.5,2.5c-6.075,0-11,4.927-11,11
			s4.925,11,11,11s11-4.927,11-11S19.575,2.5,13.5,2.5z"/>
		<path fill="none" d="M13.5,22.5c-4.97,0-9-4.032-9-9s4.03-9,9-9c4.971,0,9,4.032,9,9S18.471,22.5,13.5,22.5z"/>
	</g>
</g>
</svg>
