<?xml version="1.0" encoding="utf-8"?>
<!-- Generator: Adobe Illustrator 16.0.0, SVG Export Plug-In . SVG Version: 6.00 Build 0)  -->
<svg version="1.1" id="Layer_1" xmlns="http://www.w3.org/2000/svg" xmlns:xlink="http://www.w3.org/1999/xlink" x="0px" y="0px"
	 viewBox="0 0 45 45" enable-background="new 0 0 45 45" xml:space="preserve">
<g>
	<circle fill="#FFFFFF" cx="22.5" cy="22.5" r="22.5"/>
	<path fill="none" stroke="#8ECB60" stroke-width="1.4" stroke-miterlimit="10" d="M22.5,2.5c-11.044,0-20,8.957-20,20
		s8.956,20,20,20s20-8.957,20-20S33.545,2.5,22.5,2.5z"/>
	<path fill="none" d="M41,22.5C41,12.286,32.717,4,22.5,4C12.285,4,4,12.286,4,22.5S12.285,41,22.5,41C32.717,41,41,32.714,41,22.5z"/>
	<path fill="none" d="M22.5,39.5c-9.388,0-17-7.615-17-17s7.612-17,17-17c9.389,0,17,7.615,17,17S31.889,39.5,22.5,39.5z"/>
</g>
</svg>
