<?xml version="1.0" encoding="utf-8"?>
<!-- Generator: Adobe Illustrator 19.2.1, SVG Export Plug-In . SVG Version: 6.00 Build 0)  -->
<svg version="1.1" id="Layer_1" xmlns="http://www.w3.org/2000/svg" xmlns:xlink="http://www.w3.org/1999/xlink" x="0px" y="0px"
	 viewBox="0 0 69 55" style="enable-background:new 0 0 69 55;" xml:space="preserve">
<style type="text/css">
	.st0{fill:#E6C600;}
	.st1{fill:none;}
	.st2{fill:#FFFFFF;}
	.st3{fill:none;stroke:#E6C600;stroke-width:3;stroke-miterlimit:10;}
</style>
<g>
	<path class="st0" d="M69,45.2c0,5.4-4.5,9.8-10,9.8H10c-5.5,0-10-4.4-10-9.8V9.8C0,4.4,4.5,0,10,0h49c5.5,0,10,4.4,10,9.8V45.2z"/>
</g>
<g>
	<g>
		<path class="st1" d="M69,45c0,5.5-4.5,10-10,10H10C4.5,55,0,50.5,0,45V8.8c0-5.5,4.5-10,10-10h49c5.5,0,10,4.5,10,10V45z"/>
	</g>
</g>
<g>
	<g>
		<path class="st2" d="M44,36c0-1.7-1.3-3-3-3H30c-1.6,0-3,1.3-3,3v11c0,1.7,1.4,3,3,3h11c1.7,0,3-1.3,3-3V36z"/>
	</g>
	<g>
		<line class="st3" x1="35.5" y1="36" x2="35.5" y2="47"/>
		<line class="st3" x1="41" y1="41.5" x2="30" y2="41.5"/>
	</g>
</g>
</svg>
