<?xml version="1.0" encoding="utf-8"?>
<!-- Generator: Adobe Illustrator 19.2.1, SVG Export Plug-In . SVG Version: 6.00 Build 0)  -->
<svg version="1.1" id="Layer_1" xmlns="http://www.w3.org/2000/svg" xmlns:xlink="http://www.w3.org/1999/xlink" x="0px" y="0px"
	 viewBox="0 0 27 27" style="enable-background:new 0 0 27 27;" xml:space="preserve">
<style type="text/css">
	.st0{fill:#E6C600;}
	.st1{fill:#FFFFFF;}
	.st2{fill:none;stroke:#E6C600;stroke-width:2;stroke-miterlimit:10;}
</style>
<g>
	<g>
		<path class="st0" d="M27,21c0,3.3-2.7,6-6,6H6c-3.3,0-6-2.7-6-6V6c0-3.3,2.7-6,6-6h15c3.3,0,6,2.7,6,6V21z"/>
	</g>
	<g>
		<g>
			<path class="st1" d="M20,12c0-1.6-1.4-3-3-3h-7c-1.6,0-3,1.4-3,3v7c0,1.6,1.4,3,3,3h7c1.6,0,3-1.4,3-3V12z"/>
		</g>
		<line class="st2" x1="13.5" y1="11" x2="13.5" y2="20"/>
		<line class="st2" x1="18" y1="15.5" x2="9" y2="15.5"/>
	</g>
</g>
</svg>
