<?xml version="1.0" encoding="utf-8"?>
<!-- Generator: Adobe Illustrator 19.2.1, SVG Export Plug-In . SVG Version: 6.00 Build 0)  -->
<svg version="1.1" id="Layer_1" xmlns="http://www.w3.org/2000/svg" xmlns:xlink="http://www.w3.org/1999/xlink" x="0px" y="0px"
	 viewBox="0 0 42 42" style="enable-background:new 0 0 42 42;" xml:space="preserve">
<style type="text/css">
	.st0{fill:#FFFFFF;}
	.st1{fill:#E6C600;}
	.st2{fill:none;stroke:#FFFFFF;stroke-width:1.7726;stroke-miterlimit:10;}
</style>
<g>
	<path class="st0" d="M39,42H3c-1.7,0-3-1.3-3-3V3c0-1.7,1.3-3,3-3h36c1.7,0,3,1.3,3,3v36C42,40.7,40.7,42,39,42z"/>
	<g>
		<path class="st1" d="M26,30.8c0-1-0.8-1.8-1.8-1.8h-6.5c-1,0-1.8,0.8-1.8,1.8v6.5c0,1,0.8,1.8,1.8,1.8h6.5c1,0,1.8-0.8,1.8-1.8
			V30.8z"/>
	</g>
	<g>
		<line class="st2" x1="21" y1="30.8" x2="21" y2="37.3"/>
		<line class="st2" x1="24.2" y1="34" x2="17.7" y2="34"/>
	</g>
</g>
</svg>
