<?xml version="1.0" encoding="utf-8"?>
<!-- Generator: Adobe Illustrator 16.0.0, SVG Export Plug-In . SVG Version: 6.00 Build 0)  -->
<svg version="1.1" id="Layer_1" xmlns="http://www.w3.org/2000/svg" xmlns:xlink="http://www.w3.org/1999/xlink" x="0px" y="0px"
	 viewBox="0 0 45 45" style="enable-background:new 0 0 45 45;" xml:space="preserve">
<style type="text/css">
	.st0{fill:#FF9685;}
	.st1{fill:#FFFFFF;}
	.st2{fill:none;}
	.st3{fill:none;stroke:#FF9685;stroke-width:3;stroke-miterlimit:10;}
</style>
<g>
	<circle class="st1" cx="22.5" cy="22.5" r="22.5"/>
	<path class="st2" d="M22.5,2.5c-11.044,0-20,8.957-20,20s8.956,20,20,20c11.045,0,20-8.957,20-20S33.545,2.5,22.5,2.5z"/>
	<path class="st3" d="M41,22.5C41,12.286,32.717,4,22.5,4C12.285,4,4,12.286,4,22.5S12.285,41,22.5,41C32.717,41,41,32.714,41,22.5z"/>
	<path class="st2" d="M22.5,39.5c-9.388,0-17-7.615-17-17s7.612-17,17-17c9.389,0,17,7.615,17,17S31.889,39.5,22.5,39.5z"/>
	<circle class="st0" cx="22.5" cy="22.5" r="12.5"/>
</g>
</svg>
