<svg xmlns="http://www.w3.org/2000/svg" xmlns:xlink="http://www.w3.org/1999/xlink" width="24" height="24" viewBox="0 0 24 24"><defs><style>.a,.c{fill:none;}.b{clip-path:url(#a);}.c,.d{stroke:#54657d;stroke-miterlimit:10;}.d{fill:#fff;stroke-linecap:round;}</style><clipPath id="a"><rect class="a" width="24" height="24"/></clipPath></defs><g class="b"><rect class="a" width="24" height="24" transform="translate(24) rotate(90)"/><path class="c" d="M122.5,102.5a2.542,2.542,0,1,1-5,0" transform="translate(-108 -94)"/><path class="c" d="M117.3,103.2c-1.2-1.9.2-5.4,3.4-4.6,2.1-.1,2.6,2.2,1.8,4.3-.2-1.5-1.5-1.9-1.9-2.4C119.9,100.9,118,100.4,117.3,103.2Z" transform="translate(-108 -94)"/><path class="c" d="M126.5,112c-.5-2.4-1.4-5.2-4.2-5.2a3.891,3.891,0,0,1-2.3.7,4.756,4.756,0,0,1-2.3-.7c-2.8,0-3.7,2.8-4.2,5.2-.1.7.3,1.5,1,1.5h11A1.238,1.238,0,0,0,126.5,112Z" transform="translate(-108 -94)"/><line class="d" y1="2" transform="translate(8.5 17)"/><line class="d" y1="2" transform="translate(15.5 17)"/></g></svg>