<svg xmlns="http://www.w3.org/2000/svg" width="69" height="55" viewBox="0 0 69 55"><defs><style>.a{fill:#839dc3;}.b,.c,.d{fill:none;}.b,.c{stroke:#fff;stroke-miterlimit:10;}.c{stroke-linecap:round;}</style></defs><g transform="translate(-581 -207)"><path class="a" d="M650,257a5.015,5.015,0,0,1-5,5H586a5.015,5.015,0,0,1-5-5V212a5.015,5.015,0,0,1,5-5h59a5.015,5.015,0,0,1,5,5Z"/></g><g transform="translate(-581 -207)"><path class="b" d="M618.9,235.4a6.28,6.28,0,0,1-6.8,0,6.478,6.478,0,0,0-4.036,1.554A10.726,10.726,0,0,0,604.5,243.3a1.817,1.817,0,0,0,1.8,2.1h18.4a1.817,1.817,0,0,0,1.8-2.1C625.8,239.4,622.8,235.4,618.9,235.4Z"/><path class="b" d="M620.1,227.6c0,3.1-2,5.7-4.6,5.7s-4.6-2.5-4.6-5.7"/><path class="c" d="M610.3,241a7.84,7.84,0,0,0-1.1,4.1"/><path class="c" d="M620.6,241a7.84,7.84,0,0,1,1.1,4.1"/><path class="c" d="M611.2,228.3c-2.3-5.3,2.4-9.8,6.6-7.5,2.1-.2,3.7,3.8,2.1,7.3a16.4,16.4,0,0,0-2.3-4.6C616.5,224.2,611.7,224.1,611.2,228.3Z"/><line class="b" y2="9.2" transform="translate(615.5 235.9)"/><rect class="d" width="23" height="27" transform="translate(604 219)"/></g></svg>