<svg xmlns="http://www.w3.org/2000/svg" viewBox="0 0 42 42" enable-background="new 0 0 42 42"><path d="m39 42h-36c-1.7 0-3-1.3-3-3v-36c0-1.7 1.3-3 3-3h36c1.7 0 3 1.3 3 3v36c0 1.7-1.3 3-3 3" fill="#fff"/><path d="m31.8 20.3c.1-.4.2-.9.2-1.3 0-2.8-2.2-5-5-5-1.2 0-2.3.4-3.2 1.2-1.2-1.9-3.4-3.2-5.8-3.2-3.9 0-7 3.1-7 7 0 .1 0 .1 0 .2-2.3.7-4 2.8-4 5.3 0 2.9 2.3 5.3 5.2 5.5h17.9c2.7-.1 4.9-2.3 4.9-5 0-2.1-1.3-3.9-3.2-4.7m-12.8-.8l-.7.4v2.1l-.6.5.6.5v2.2l.7.5v1.2h-1c-.7 0-1.3-.6-1.3-1.4v-1.7l-1.4-1.3 1.4-1.3v-1.7c0-.8.6-1.4 1.3-1.4h1v1.4m6.3 4.3v1.7c0 .8-.6 1.4-1.3 1.4h-1v-1.1l.7-.6v-2.2l.6-.5-.6-.5v-2.2l-.7-.4v-1.2h1c.7 0 1.3.6 1.3 1.4v1.7l1.4 1.3-1.4 1.2" fill="#839dc3"/></svg>