<svg xmlns="http://www.w3.org/2000/svg" viewBox="0 0 69 55" enable-background="new 0 0 69 55"><path d="M59,55H10C4.5,55,0,50.5,0,45V10C0,4.5,4.5,0,10,0h49c5.5,0,10,4.5,10,10v35C69,50.5,64.5,55,59,55z" fill="#839dc3"/><path d="m50.7 27c.1-.5.2-1.1.2-1.7 0 0 0-.1 0-.1.1-.4.1-.8.1-1.2 0-4.4-3.6-8-8-8-1.9 0-3.6.7-5 1.8-2-2.9-5.3-4.8-9-4.8-6.1 0-11 4.9-11 11 0 .5 0 1 .1 1.4 0 .2 0 .3 0 .5-2.4 1-4.1 3.5-4.1 6.3 0 3.6 2.8 6.5 6.4 6.8h28.5c3.4 0 6.2-2.8 6.2-6.2-.1-2.7-1.9-5-4.4-5.8m-20.7 2.6v2.9c0 .3.1.7.6.9l.9.3v1.3h-1c-1.4 0-2.5-1.1-2.5-2.5v-2.1l-1.2-1.9 1.2-1.9v-2.1c0-1.4 1.1-2.5 2.5-2.5h1v1.3l-.9.3c-.5.2-.6.6-.6.9v2.9l-1.1 1.1 1.1 1.1m12.2-1.1l-1.2 1.9v2.1c0 1.4-1.1 2.5-2.5 2.5h-1v-1.3l.9-.3c.5-.2.6-.6.6-.9v-2.9l1.1-1.1-1.1-1.1v-2.9c0-.3-.1-.7-.6-.9l-.9-.3v-1.3h1c1.4 0 2.5 1.1 2.5 2.5v2.1l1.2 1.9" fill="#fff"/></svg>