<svg xmlns="http://www.w3.org/2000/svg" viewBox="0 0 32 32" enable-background="new 0 0 32 32"><path d="M28.3,32H3.6c-2,0-3.6-1.5-3.6-3.6V3.6C0,1.5,1.5,0,3.6,0h24.8c2,0,3.6,1.5,3.6,3.6v24.9C31.9,30.5,30.4,32,28.3,32z" fill="#839dc3"/><path d="m23.8 15.5c.1-.3.2-.6.2-1 0-1.9-1.6-3.5-3.5-3.5-.8 0-1.6.3-2.2.8-1-1.7-2.7-2.8-4.8-2.8-3 0-5.5 2.5-5.5 5.5 0 .6.1 1.2.3 1.7-1.3.5-2.3 1.8-2.3 3.3 0 1.9 1.6 3.5 3.5 3.5 0 0 12.5 0 12.5 0 2.2 0 4-1.8 4-4 0-1.5-.9-2.9-2.2-3.5m-8.8-.9c0 0-.9 0-.9.5 0 .3 0 1.5 0 1.5l-1.1.8 1.1.9c0 0 0 1.2 0 1.6 0 .4.9.4.9.4v.9h-.7c-.7 0-1.4-.6-1.4-1.4v-1.1l-1.4-1.4 1.4-1.4v-1c0-.7.6-1.4 1.4-1.4h.7v1.1m4.1 4.2v1.1c0 .8-.7 1.4-1.4 1.4h-.7v-.9c0 0 .9-.1.9-.4 0-.4 0-1.6 0-1.6l1.1-.9-1.1-.9c0 0 0-1.2 0-1.5 0-.5-.9-.5-.9-.5v-1h.7c.8 0 1.4.7 1.4 1.4v1l1.4 1.4-1.4 1.4" fill="#fff"/></svg>