<svg xmlns="http://www.w3.org/2000/svg" width="69" height="55" viewBox="0 0 69 55"><defs><style>.a{fill:#839dc3;}.b{fill:none;stroke:#fff;}.c{fill:#fff;font-size:12px;font-family:OpenSans, Open Sans;letter-spacing:-0.055em;}</style></defs><rect class="a" width="69" height="55" rx="5"/><path class="b" d="M32.235,18.58a4.422,4.422,0,0,0,.295-1.474,5.218,5.218,0,0,0-5.159-5.159,5.144,5.144,0,0,0-3.243,1.179A8.062,8.062,0,0,0,17.054,9a8.18,8.18,0,0,0-8.106,8.106,6.883,6.883,0,0,0,.442,2.506A5.306,5.306,0,0,0,6,24.476a5.218,5.218,0,0,0,5.159,5.159H29.582a5.9,5.9,0,0,0,5.9-5.9,5.748,5.748,0,0,0-3.243-5.159" transform="translate(14.263 8.684)"/><text class="c" transform="translate(35 33)"><tspan x="-5.445" y="0">{ }</tspan></text></svg>