<svg width="16" height="16" viewBox="0 0 16 16" fill="none" xmlns="http://www.w3.org/2000/svg">
<path fill-rule="evenodd" clip-rule="evenodd" d="M3 4V5H3.49609H12.4961H13V4H3ZM1 5.5C1 6.15165 1.41554 6.70624 1.99609 6.91326V12.5C1.99609 13.3284 2.66767 14 3.49609 14H12.4961C13.3245 14 13.9961 13.3284 13.9961 12.5V6.91602C14.5807 6.71121 15 6.15457 15 5.5V3.5C15 2.67157 14.3284 2 13.5 2H2.5C1.67157 2 1 2.67157 1 3.5V5.5ZM3.99609 12V7H11.9961V12H3.99609ZM7.00004 8.16504C6.53888 8.16504 6.16504 8.53888 6.16504 9.00004C6.16504 9.4612 6.53888 9.83504 7.00004 9.83504H9.00004C9.4612 9.83504 9.83504 9.4612 9.83504 9.00004C9.83504 8.53888 9.4612 8.16504 9.00004 8.16504H7.00004Z" fill="currentColor"/>
</svg>
