<svg width="16" height="16" viewBox="0 0 16 16" fill="none" xmlns="http://www.w3.org/2000/svg">
<path fill-rule="evenodd" clip-rule="evenodd" d="M1 3.86709C1 3.38821 1.38821 3 1.86709 3H9.39151C9.87039 3 10.2586 3.38821 10.2586 3.86709V5.25592H11.2833C11.4911 5.25592 11.692 5.33055 11.8494 5.46622L13.9433 7.27098C14.1344 7.4357 14.2443 7.67548 14.2443 7.92777V9.98936C14.6686 10.0314 15 10.3889 15 10.8236C15 11.2584 14.6686 11.6159 14.2443 11.6579V11.87C14.2443 12.0821 14.0724 12.254 13.8602 12.254H13.5903C13.5486 13.2253 12.7468 13.9999 11.7638 13.9999C10.7809 13.9999 9.97912 13.2253 9.93738 12.254H9.34729V12.2448H6.37304C6.33597 13.2204 5.53225 13.9999 4.5462 13.9999C3.56014 13.9999 2.75642 13.2204 2.71935 12.2448H1.86708C1.38821 12.2448 1 11.8566 1 11.3778V3.86709ZM10.2903 8.80879H13.1497V8.04413L11.2231 6.4189H10.2903V8.80879ZM12.4968 12.1793C12.4968 12.5836 12.1686 12.9113 11.7638 12.9113C11.359 12.9113 11.0308 12.5836 11.0308 12.1793C11.0308 11.7751 11.359 11.4474 11.7638 11.4474C12.1686 11.4474 12.4968 11.7751 12.4968 12.1793ZM4.54614 12.9113C4.95099 12.9113 5.27918 12.5836 5.27918 12.1793C5.27918 11.7751 4.95099 11.4474 4.54614 11.4474C4.1413 11.4474 3.81311 11.7751 3.81311 12.1793C3.81311 12.5836 4.1413 12.9113 4.54614 12.9113Z" fill="currentColor"/>
</svg>
