<svg width="16" height="16" viewBox="0 0 16 16" fill="none" xmlns="http://www.w3.org/2000/svg">
	<path fill-rule="evenodd" clip-rule="evenodd" d="M4.72332 4.72332C5.02107 4.42556 5.50383 4.42556 5.80158 4.72332L8 6.92174L10.1984 4.72332C10.4962 4.42556 10.9789 4.42556 11.2767 4.72332C11.5744 5.02107 11.5744 5.50383 11.2767 5.80158L9.07826 8L11.2767 10.1984C11.5744 10.4962 11.5744 10.9789 11.2767 11.2767C10.9789 11.5744 10.4962 11.5744 10.1984 11.2767L8 9.07826L5.80158 11.2767C5.50383 11.5744 5.02107 11.5744 4.72332 11.2767C4.42556 10.9789 4.42556 10.4962 4.72332 10.1984L6.92174 8L4.72332 5.80158C4.42556 5.50383 4.42556 5.02107 4.72332 4.72332Z" fill="currentColor"/>
</svg>
