<svg width="16" height="16" viewBox="0 0 16 16" fill="none" xmlns="http://www.w3.org/2000/svg">
<g clip-path="url(#clip0_5955_248193)">
<path d="M10.2951 4.74953L5.39827 9.62643C5.16966 9.86942 5.04238 10.1903 5.04238 10.5238C5.04238 10.8573 5.16966 11.1782 5.39827 11.4212C5.63756 11.651 5.95662 11.7794 6.28856 11.7794C6.6205 11.7794 6.93956 11.651 7.17884 11.4212L13.0316 5.59538C13.7279 4.89468 15.3692 3.46525 13.9213 2.00578C13.6433 1.68974 13.3009 1.43654 12.9172 1.2631C12.5334 1.08965 12.1171 0.999954 11.6959 0.999954C11.2747 0.999954 10.8583 1.08965 10.4746 1.2631C10.0908 1.43654 9.7485 1.68974 9.47043 2.00578L2.8091 8.78256C2.23895 9.48574 1.95264 10.3765 2.0064 11.2798C2.06017 12.1831 2.45014 13.0337 3.09969 13.6645C5.44738 16.0298 7.43836 14.7486 8.5105 13.6645C9.58265 12.5804 13.8522 8.28808 13.8522 8.28808" stroke="currentColor" stroke-width="2" stroke-miterlimit="10"/>
</g>
<defs>
<clipPath id="clip0_5955_248193">
<rect width="16" height="16" fill="white"/>
</clipPath>
</defs>
</svg>
