<svg width="16" height="16" viewBox="0 0 16 16" fill="none" xmlns="http://www.w3.org/2000/svg">
<path d="M13.6964 6.52539H7.83C7.11002 6.52539 6.52637 7.10905 6.52637 7.82903V13.6954C6.52637 14.4154 7.11002 14.999 7.83 14.999H13.6964C14.4163 14.999 15 14.4154 15 13.6954V7.82903C15 7.10905 14.4163 6.52539 13.6964 6.52539Z" fill="currentColor"/>
<path fill-rule="evenodd" clip-rule="evenodd" d="M3.29737 2.99904C3.21825 2.99904 3.14237 3.03048 3.08642 3.08642C3.03048 3.14237 2.99904 3.21825 2.99904 3.29737V9.12892C2.99904 9.20804 3.03047 9.28393 3.08642 9.33987C3.14237 9.39582 3.21825 9.42725 3.29737 9.42725H3.94532C4.49627 9.42725 4.94289 9.87388 4.94289 10.4248C4.94289 10.9758 4.49627 11.4224 3.94532 11.4224H3.29737C2.68911 11.4224 2.10576 11.1808 1.67565 10.7506C1.24554 10.3205 1.00391 9.73719 1.00391 9.12892V3.29737C1.00391 2.68911 1.24554 2.10576 1.67565 1.67565C2.10576 1.24554 2.68911 1.00391 3.29737 1.00391H9.12892C9.73719 1.00391 10.3205 1.24554 10.7506 1.67565C11.1808 2.10576 11.4224 2.68911 11.4224 3.29737V3.94532C11.4224 4.49627 10.9758 4.94289 10.4248 4.94289C9.87388 4.94289 9.42725 4.49627 9.42725 3.94532V3.29737C9.42725 3.21825 9.39582 3.14237 9.33987 3.08642C9.28393 3.03047 9.20804 2.99904 9.12892 2.99904H3.29737Z" fill="currentColor"/>
</svg>
