<svg width="16" height="16" viewBox="0 0 16 16" fill="none" xmlns="http://www.w3.org/2000/svg">
<path fill-rule="evenodd" clip-rule="evenodd" d="M8 3C8.43677 3 8.79084 3.33519 8.79084 3.74868V7.70794L10.1231 6.44676C10.4319 6.15438 10.9326 6.15438 11.2415 6.44676C11.5503 6.73914 11.5503 7.21317 11.2415 7.50555L8.55921 10.0448C8.4109 10.1852 8.20974 10.2641 8 10.2641C7.79026 10.2641 7.5891 10.1852 7.44079 10.0448L4.75852 7.50555C4.44967 7.21317 4.44967 6.73914 4.75852 6.44676C5.06736 6.15438 5.5681 6.15438 5.87694 6.44676L7.20916 7.70794V3.74868C7.20916 3.33519 7.56323 3 8 3Z" fill="currentColor"/>
<path fill-rule="evenodd" clip-rule="evenodd" d="M2.79084 9.21504C3.22762 9.21504 3.58169 9.55024 3.58169 9.96372V11.4581C3.58169 12.035 4.0757 12.5026 4.68508 12.5026H11.3149C11.9243 12.5026 12.4183 12.035 12.4183 11.4581V9.96372C12.4183 9.55024 12.7724 9.21504 13.2092 9.21504C13.6459 9.21504 14 9.55024 14 9.96372V11.4581C14 12.8619 12.7978 14 11.3149 14H4.68508C3.20215 14 2 12.8619 2 11.4581V9.96372C2 9.55024 2.35407 9.21504 2.79084 9.21504Z" fill="currentColor"/>
</svg>
