<svg width="16" height="16" viewBox="0 0 16 16" fill="none" xmlns="http://www.w3.org/2000/svg">
<path fill-rule="evenodd" clip-rule="evenodd" d="M4.96984 3.74943C4.29583 3.74943 3.74943 4.29583 3.74943 4.96984V11.0302C3.74943 11.7042 4.29583 12.2506 4.96984 12.2506H11.0302C11.7042 12.2506 12.2506 11.7042 12.2506 11.0302V9.94339C12.2506 9.4603 12.6422 9.06868 13.1253 9.06868C13.6084 9.06868 14 9.4603 14 9.94339V11.0302C14 12.6704 12.6704 14 11.0302 14H4.96984C3.32964 14 2 12.6704 2 11.0302V4.96984C2 3.32964 3.32964 2 4.96984 2H6.02272C6.50581 2 6.89743 2.39162 6.89743 2.87472C6.89743 3.35781 6.50581 3.74943 6.02272 3.74943H4.96984Z" fill="currentColor"/>
<path d="M11.872 2.36509C11.9877 2.24935 12.1252 2.15753 12.2764 2.09489C12.4276 2.03224 12.5897 2 12.7534 2C12.9171 2 13.0792 2.03224 13.2304 2.09489C13.3817 2.15753 13.5191 2.24935 13.6348 2.36509C13.7506 2.48084 13.8424 2.61826 13.905 2.76949C13.9677 2.92073 13.9999 3.08282 13.9999 3.24651C13.9999 3.41021 13.9677 3.5723 13.905 3.72353C13.8424 3.87477 13.7506 4.01218 13.6348 4.12793L7.68526 10.0775L5.26136 10.7386L5.92242 8.31466L11.872 2.36509Z" fill="currentColor"/>
</svg>
