<svg width="17" height="17" viewBox="0 0 17 17" fill="none" xmlns="http://www.w3.org/2000/svg">
<path d="M2.88443 6.58441C2.55401 6.34348 2.08984 6.57949 2.08984 6.98841V12.0664C2.08984 12.7539 2.62984 13.3164 3.28984 13.3164H12.8898C13.5498 13.3164 14.0898 12.7539 14.0898 12.0664V6.98709C14.0898 6.57817 13.6257 6.34216 13.2953 6.58309L8.5199 10.0651C8.26114 10.2538 7.91674 10.2538 7.65798 10.0651L2.88443 6.58441Z" fill="currentColor"/>
<path d="M13.7198 4.36244C13.8975 4.23283 13.9775 3.99519 13.8486 3.81694C13.6292 3.5135 13.2805 3.31641 12.8898 3.31641H3.28984C2.89866 3.31641 2.54964 3.51401 2.33021 3.81812C2.20159 3.99639 2.28163 4.23378 2.45925 4.3633L7.79435 8.25347C7.96989 8.38147 8.20799 8.38147 8.38352 8.25347L13.7198 4.36244Z" fill="currentColor"/>
</svg>
