<svg width="16" height="17" viewBox="0 0 16 17" fill="none" xmlns="http://www.w3.org/2000/svg">
<path d="M1.55518 2.63644C1.24856 2.94466 1.24856 3.44438 1.55518 3.75259L11.9225 14.1741C12.2291 14.4823 12.7262 14.4823 13.0328 14.1741C13.3395 13.8659 13.3395 13.3662 13.0328 13.058L2.66553 2.63644C2.35891 2.32822 1.86179 2.32822 1.55518 2.63644Z" fill="currentColor"/>
<path d="M6.31654 5.3074C6.40681 5.39814 6.54527 5.41686 6.66109 5.36293C7.06833 5.17332 7.52195 5.06749 8 5.06749C9.76177 5.06749 11.1916 6.50481 11.1916 8.27579C11.1916 8.75635 11.0863 9.21233 10.8977 9.6217C10.8441 9.73813 10.8627 9.87732 10.9529 9.96805L12.3606 11.383C12.4619 11.4849 12.6229 11.4965 12.7343 11.4059C13.7142 10.6094 14.4922 9.57105 14.9793 8.38135C15.0069 8.31373 15.0069 8.23776 14.9792 8.17014C13.8488 5.40913 11.1516 3.46334 8 3.46334C7.11231 3.46334 6.26067 3.61771 5.46994 3.90118C5.27792 3.97002 5.22992 4.21509 5.37407 4.36L6.31654 5.3074Z" fill="currentColor"/>
<path d="M7.44032 6.43691C7.63457 6.52576 7.79383 6.67788 7.89225 6.86727C7.9082 6.89795 7.92756 6.92685 7.95191 6.95132L9.49338 8.50085C9.64663 8.6549 9.90263 8.58592 9.91281 8.36829C9.91424 8.33764 9.91497 8.3068 9.91497 8.27579C9.91497 7.21063 9.05962 6.35081 8 6.35081C7.80526 6.35081 7.61742 6.37985 7.44052 6.43387L7.44032 6.43691Z" fill="currentColor"/>
<path d="M9.29894 12.5317C9.45889 12.6925 9.37914 12.9651 9.15558 12.9997C8.77889 13.058 8.39298 13.0882 8 13.0882C4.84844 13.0882 2.15123 11.1425 1.02078 8.38145C0.993099 8.31383 0.993059 8.23786 1.02074 8.17024C1.35014 7.36568 1.81257 6.63035 2.38052 5.99222C2.48758 5.87193 2.67257 5.87069 2.78611 5.98482L4.72444 7.93329C4.78372 7.99288 4.81342 8.07551 4.81044 8.15974C4.80907 8.19825 4.80839 8.23694 4.80839 8.27579C4.80839 10.0468 6.23823 11.4841 8 11.4841C8.03865 11.4841 8.07714 11.4834 8.11545 11.482C8.19924 11.479 8.28144 11.5089 8.34072 11.5685L9.29894 12.5317Z" fill="currentColor"/>
</svg>
