<svg width="16" height="17" viewBox="0 0 16 17" fill="none" xmlns="http://www.w3.org/2000/svg">
<path fill-rule="evenodd" clip-rule="evenodd" d="M8.46198 4.20411L6.9377 7.70053C6.86133 7.87569 6.82343 8.06398 6.82633 8.25372L6.88054 11.8025C6.88818 12.3027 7.31385 12.7046 7.83693 12.7061L8.14278 12.9984C8.41467 13.2583 8.78344 13.4043 9.16796 13.4043H12.1274C12.4136 13.4043 12.6935 13.3233 12.9316 13.1716L13.3535 12.9028C13.7568 12.6458 13.9991 12.2131 13.9991 11.7498V8.54961C13.9991 8.0863 13.7568 7.65365 13.3535 7.39665L12.9316 7.12787C12.6935 6.97612 12.4136 6.89515 12.1274 6.89515H11.5604C11.2935 6.89515 11.0771 6.68835 11.0771 6.43325V4.704C11.0771 3.98619 10.4683 3.4043 9.71724 3.4043C9.16826 3.4043 8.67313 3.71978 8.46198 4.20411ZM7.30955 8.24697C7.30762 8.12048 7.33289 7.99496 7.3838 7.87818L8.90808 4.38176C9.01821 4.12915 9.24819 3.94779 9.51944 3.88776C9.24867 3.94803 9.01916 4.12924 8.90918 4.38152L7.3849 7.87794C7.33399 7.99471 7.30872 8.12023 7.31065 8.24673L7.36486 11.7955C7.36866 12.0443 7.58071 12.244 7.84098 12.244C7.96726 12.244 8.08838 12.2919 8.17768 12.3773L8.4856 12.6716C8.66687 12.8448 8.91271 12.9422 9.16906 12.9422H12.1285C12.2043 12.9422 12.2795 12.9336 12.3525 12.917C12.2792 12.9338 12.2036 12.9424 12.1274 12.9424H9.16796C8.91162 12.9424 8.66577 12.8451 8.48451 12.6718L8.17658 12.3775C8.08728 12.2922 7.96617 12.2442 7.83988 12.2442C7.57961 12.2442 7.36756 12.0445 7.36376 11.7958L7.30955 8.24697Z" fill="currentColor"/>
<path d="M5.19192 7.28036H2.48328C2.21637 7.28036 2 7.48716 2 7.74226V12.8296C2 13.0847 2.21637 13.2915 2.48328 13.2915H5.19192C5.45882 13.2915 5.67519 13.0847 5.67519 12.8296V7.74226C5.67519 7.48716 5.45882 7.28036 5.19192 7.28036Z" fill="currentColor"/>
</svg>
