<svg width="16" height="16" viewBox="0 0 16 16" fill="none" xmlns="http://www.w3.org/2000/svg">
<path fill-rule="evenodd" clip-rule="evenodd" d="M9.40097 13.7872C9.35317 13.8241 9.29818 13.8501 9.23973 13.8634C8.42339 14.0455 7.57836 14.0455 6.76201 13.8634C6.7039 13.8511 6.64907 13.826 6.60126 13.79C6.55345 13.7539 6.51378 13.7078 6.48497 13.6546L5.79498 12.3802C5.65907 12.3052 5.52838 12.2302 5.40293 12.1499L3.98112 12.1713C3.92217 12.1724 3.86368 12.1605 3.80958 12.1365C3.75548 12.1125 3.70703 12.0769 3.66749 12.0321C3.10278 11.399 2.67839 10.6482 2.4234 9.83132C2.41135 9.78952 2.40433 9.74636 2.40249 9.70281C2.40156 9.62486 2.42341 9.5484 2.46522 9.48326L3.19704 8.23025V7.76975L2.46522 6.52209C2.43424 6.46957 2.41449 6.4109 2.40729 6.34998C2.40008 6.28906 2.40557 6.22726 2.4234 6.16868C2.67953 5.35347 3.1018 4.60331 3.66226 3.96788C3.70321 3.92347 3.75267 3.88819 3.80753 3.86423C3.86239 3.84028 3.92149 3.82817 3.98112 3.82866L5.40293 3.85543C5.52881 3.7704 5.65974 3.69349 5.79498 3.62518L6.48497 2.35075C6.51349 2.29681 6.55298 2.24977 6.60078 2.21282C6.64857 2.17587 6.70356 2.14986 6.76201 2.13656C7.57836 1.95448 8.42339 1.95448 9.23973 2.13656C9.29858 2.14883 9.35401 2.17443 9.40195 2.21149C9.44988 2.24855 9.48912 2.29613 9.51677 2.35075L10.2068 3.61982C10.3427 3.69479 10.4734 3.76975 10.5988 3.85543L12.0206 3.82866C12.0796 3.82758 12.1381 3.83945 12.1922 3.86347C12.2463 3.88748 12.2947 3.92308 12.3343 3.96788C12.899 4.60104 13.3233 5.35179 13.5783 6.16868C13.5962 6.22726 13.6017 6.28906 13.5945 6.34998C13.5872 6.4109 13.5675 6.46957 13.5365 6.52209L12.8047 7.76975C12.8099 7.92503 12.8099 8.07497 12.8047 8.23025L13.5365 9.47791C13.5675 9.53043 13.5872 9.5891 13.5945 9.65002C13.6017 9.71094 13.5962 9.77274 13.5783 9.83132C13.3235 10.6471 12.9011 11.3976 12.3395 12.0321C12.2985 12.0765 12.2491 12.1118 12.1942 12.1358C12.1394 12.1597 12.0803 12.1718 12.0206 12.1713L10.5988 12.1499C10.4734 12.232 10.3427 12.307 10.2068 12.3748L9.51677 13.6493C9.48826 13.7032 9.44876 13.7502 9.40097 13.7872ZM7.07593 9.60042C7.95977 10.1107 9.08993 9.80788 9.60021 8.92404C10.1105 8.04021 9.80767 6.91005 8.92383 6.39977C8.04 5.88948 6.90984 6.19231 6.39955 7.07614C5.88927 7.95998 6.1921 9.09014 7.07593 9.60042Z" fill="currentColor"/>
</svg>
