<svg width="16" height="17" viewBox="0 0 16 17" fill="none" xmlns="http://www.w3.org/2000/svg">
<path d="M12.3946 3.23734C12.3946 2.77619 12.0208 2.40234 11.5596 2.40234C11.0985 2.40234 10.7246 2.77619 10.7246 3.23734V5.67277H13.16C13.6212 5.67277 13.995 5.29892 13.995 4.83777C13.995 4.37661 13.6212 4.00277 13.16 4.00277H12.3946V3.23734Z" fill="currentColor"/>
<path d="M9.15336 4.79688C9.61452 4.79688 9.98836 5.17072 9.98836 5.63188V6.402H10.7585C11.2196 6.402 11.5935 6.77584 11.5935 7.237C11.5935 7.69815 11.2196 8.072 10.7585 8.072H9.4988L7.71059 9.8602C7.38451 10.1863 6.85581 10.1863 6.52972 9.8602C6.20364 9.53412 6.20364 9.00542 6.52972 8.67934L8.31836 6.8907V5.63188C8.31836 5.17072 8.6922 4.79688 9.15336 4.79688Z" fill="currentColor"/>
<path d="M6.92641 5.21492C6.08457 5.21492 5.26164 5.46456 4.56168 5.93226C3.86171 6.39996 3.31616 7.06471 2.994 7.84247C2.67184 8.62023 2.58755 9.47605 2.75179 10.3017C2.91602 11.1274 3.32141 11.8858 3.91667 12.4811C4.51194 13.0763 5.27036 13.4817 6.09602 13.6459C6.92169 13.8102 7.77751 13.7259 8.55526 13.4037C9.33302 13.0816 9.99778 12.536 10.4655 11.8361C10.9332 11.1361 11.1828 10.3132 11.1828 9.47133C11.1828 9.01017 11.5567 8.63633 12.0178 8.63633C12.479 8.63633 12.8528 9.01017 12.8528 9.47133C12.8528 10.6435 12.5052 11.7893 11.854 12.7639C11.2028 13.7385 10.2773 14.4981 9.19434 14.9466C8.11143 15.3952 6.91983 15.5125 5.77022 15.2839C4.62061 15.0552 3.56463 14.4908 2.73581 13.6619C1.90698 12.8331 1.34255 11.7771 1.11388 10.6275C0.885205 9.4779 1.00257 8.2863 1.45112 7.20339C1.89968 6.12048 2.65928 5.1949 3.63387 4.5437C4.60847 3.8925 5.75428 3.54492 6.92641 3.54492C7.38757 3.54492 7.76141 3.91876 7.76141 4.37992C7.76141 4.84108 7.38757 5.21492 6.92641 5.21492Z" fill="currentColor"/>
<path d="M6.4453 8.06351C6.88216 7.9158 7.11657 7.44192 6.96887 7.00505C6.82116 6.56819 6.34727 6.33378 5.91041 6.48149C5.6496 6.56967 5.40007 6.69211 5.16869 6.84671C4.65025 7.19312 4.24617 7.68549 4.00756 8.26155C3.76895 8.83761 3.70651 9.47149 3.82816 10.083C3.9498 10.6946 4.25006 11.2563 4.69096 11.6972C5.13185 12.1381 5.69359 12.4384 6.30514 12.56C6.91668 12.6817 7.55056 12.6192 8.12663 12.3806C8.70269 12.142 9.19505 11.7379 9.54147 11.2195C9.6995 10.983 9.82393 10.7275 9.91251 10.4604C10.0577 10.0226 9.82051 9.55013 9.3828 9.40497C8.94508 9.25981 8.47257 9.49697 8.32741 9.93469C8.28575 10.0603 8.22724 10.1804 8.15291 10.2917C7.99 10.5355 7.75845 10.7255 7.48754 10.8377C7.21663 10.95 6.91853 10.9793 6.63094 10.9221C6.34334 10.8649 6.07917 10.7237 5.87182 10.5164C5.66448 10.309 5.52328 10.0448 5.46607 9.75724C5.40886 9.46964 5.43822 9.17154 5.55044 8.90063C5.66265 8.62972 5.85268 8.39817 6.09649 8.23526C6.20531 8.16255 6.32264 8.10498 6.4453 8.06351Z" fill="currentColor"/>
</svg>
