<svg width="17" height="16" viewBox="0 0 17 16" fill="none" xmlns="http://www.w3.org/2000/svg">
<path d="M9.41992 7.98879L10.7847 9.54883L12.6201 10.7216L12.9394 7.99863L12.6201 5.3371L10.7496 6.36731L9.41992 7.98879Z" fill="#00832D"/>
<path d="M1.5 10.4682V12.7885C1.5 13.3183 1.93002 13.7485 2.45995 13.7485H4.78032L5.2608 11.9953L4.78032 10.4682L3.18839 9.98767L1.5 10.4682Z" fill="#0066DA"/>
<path d="M4.78032 2.22906L1.5 5.50938L3.18849 5.98875L4.78032 5.50938L5.25207 4.00305L4.78032 2.22906Z" fill="#F14336"/>
<path d="M1.5 10.4692H4.78032V5.50934H1.5V10.4692Z" fill="#518EF8"/>
<path d="M14.7156 3.61795L12.6201 5.33711V10.7215L14.7243 12.4474C15.0393 12.6941 15.5001 12.4692 15.5001 12.0688V3.98877C15.5001 3.58394 15.0283 3.36015 14.7156 3.61795Z" fill="#00AC47"/>
<path d="M9.41979 7.98877V10.4681H4.78027V13.7485H11.66C12.19 13.7485 12.62 13.3183 12.62 12.7885V10.7216L9.41979 7.98877Z" fill="#28B446"/>
<path d="M11.66 2.22906H4.78027V5.50938H9.41979V7.98876L12.62 5.33707V3.18901C12.62 2.65908 12.19 2.22906 11.66 2.22906Z" fill="#FBBB00"/>
</svg>
