<svg width="16" height="16" viewBox="0 0 16 16" fill="none" xmlns="http://www.w3.org/2000/svg">
<path d="M8 2.00195C8.46116 2.00195 8.835 2.3758 8.835 2.83695V7.83958L10.2414 6.43217C10.5674 6.10596 11.096 6.10577 11.4223 6.43174C11.7485 6.75771 11.7486 7.2864 11.4227 7.61261L8.59065 10.4467C8.43404 10.6034 8.22156 10.6915 8 10.6915C7.77844 10.6915 7.56596 10.6034 7.40935 10.4467L4.57732 7.61261C4.25135 7.2864 4.25154 6.75771 4.57775 6.43174C4.90396 6.10577 5.43265 6.10596 5.75862 6.43217L7.165 7.83958L7.165 2.83695C7.165 2.3758 7.53884 2.00195 8 2.00195Z" fill="currentColor"/>
<path d="M2.835 12.3296C2.37384 12.3296 2 12.7035 2 13.1646C2 13.6258 2.37384 13.9996 2.835 13.9996H13.165C13.6262 13.9996 14 13.6258 14 13.1646C14 12.7035 13.6262 12.3296 13.165 12.3296H2.835Z" fill="currentColor"/>
</svg>
