<svg width="17" height="16" viewBox="0 0 17 16" fill="none" xmlns="http://www.w3.org/2000/svg">
<path d="M3.515 7.98478C2.95691 7.99315 2.5 7.54304 2.5 6.98489V5.30391C2.5 4.83442 2.82661 4.42815 3.28514 4.32727L5.28514 3.88727C5.9091 3.75 6.5 4.22503 6.5 4.86391V6.95489C6.5 7.50132 6.06137 7.94658 5.515 7.95478L3.515 7.98478ZM12.6175 2.26869C13.2417 2.13074 13.8333 2.60586 13.8333 3.24513V6.84822C13.8333 7.39466 13.3947 7.83991 12.8483 7.84811L8.18166 7.91811C7.62358 7.92648 7.16667 7.47637 7.16667 6.91822V4.27646C7.16667 3.80733 7.49279 3.40126 7.95087 3.30002L12.6175 2.26869ZM2.5 9.68178C2.5 9.12363 2.95691 8.67352 3.515 8.68189L5.515 8.71189C6.06137 8.72009 6.5 9.16534 6.5 9.71178V12.0568C6.5 12.6846 5.92831 13.1571 5.31176 13.0389L3.31176 12.6556C2.84064 12.5653 2.5 12.1532 2.5 11.6735V9.68178ZM12.8483 8.81856C13.3947 8.82675 13.8333 9.27201 13.8333 9.81845V13.4576C13.8333 14.0851 13.2621 14.5576 12.6457 14.4398L7.97906 13.5485C7.50764 13.4585 7.16667 13.0462 7.16667 12.5663V9.74845C7.16667 9.19029 7.62358 8.74019 8.18166 8.74856L12.8483 8.81856Z" fill="#0D2E4E"/>
</svg>
