<svg width="12" height="12" viewBox="0 0 12 12" fill="none" xmlns="http://www.w3.org/2000/svg">
	<path d="M9.03579 6.34408C9.06292 6.11558 9.06557 5.88494 9.04371 5.65591L9.92298 4.97634C9.96201 4.94665 9.98858 4.904 9.99765 4.85645C10.0067 4.8089 9.99768 4.75975 9.97222 4.71828L9.12636 3.29033C9.10136 3.24901 9.06221 3.2177 9.01585 3.20195C8.96948 3.1862 8.91892 3.18704 8.87313 3.20431L7.82679 3.60431C7.63685 3.46739 7.43007 3.35439 7.2113 3.26797L7.04952 2.17206C7.04266 2.12389 7.01806 2.07982 6.98034 2.04814C6.94261 2.01646 6.89436 1.99935 6.84464 2.00002H5.15204C5.10283 2.00079 5.05545 2.01843 5.01817 2.04987C4.98089 2.08131 4.95608 2.12455 4.94805 2.17206L4.78099 3.25593C4.5681 3.34746 4.36538 3.46017 4.17605 3.59227L3.12972 3.19227C3.08415 3.1731 3.0329 3.1713 2.98604 3.18722C2.93918 3.20313 2.90011 3.23562 2.87649 3.27829L2.03678 4.71226C2.01132 4.75373 2.00227 4.80288 2.01135 4.85043C2.02042 4.89798 2.04698 4.94063 2.08602 4.97032L2.96529 5.65849C2.93816 5.88698 2.93551 6.11763 2.95738 6.34666L2.07811 7.02708C2.03907 7.05677 2.01251 7.09943 2.00343 7.14698C1.99436 7.19453 2.00341 7.24368 2.02887 7.28515L2.87121 8.70965C2.8962 8.75097 2.93536 8.78229 2.98172 8.79804C3.02808 8.81378 3.07865 8.81295 3.12444 8.79568L4.1655 8.39998C4.3554 8.53696 4.56219 8.64996 4.78099 8.73632L4.93926 9.82793C4.94593 9.87618 4.97048 9.92036 5.00825 9.95207C5.04601 9.98378 5.09437 10.0008 5.14413 9.99997H6.83673C6.88594 9.9992 6.93332 9.98156 6.9706 9.95012C7.00788 9.91868 7.0327 9.87544 7.04072 9.82793L7.20427 8.73976C7.41718 8.64825 7.61989 8.53554 7.80921 8.40342L8.85554 8.80342C8.90111 8.82259 8.95236 8.82439 8.99922 8.80847C9.04607 8.79255 9.08515 8.76007 9.10877 8.7174L9.95112 7.28515C9.97657 7.24368 9.98562 7.19453 9.97655 7.14698C9.96748 7.09943 9.94091 7.05677 9.90188 7.02708L9.03579 6.34408ZM6.0023 7.20429C5.75971 7.20429 5.52256 7.13391 5.32085 7.00205C5.11914 6.8702 4.96192 6.68278 4.86908 6.46351C4.77625 6.24424 4.75196 6.00296 4.79928 5.77019C4.84661 5.53741 4.96343 5.32359 5.13497 5.15577C5.30651 4.98795 5.52507 4.87366 5.76301 4.82736C6.00094 4.78106 6.24757 4.80482 6.4717 4.89565C6.69582 4.98647 6.88739 5.14028 7.02217 5.33761C7.15695 5.53495 7.22889 5.76696 7.22889 6.00429C7.22819 6.32195 7.09859 6.62633 6.86859 6.85054C6.63859 7.07475 6.32699 7.20044 6.0023 7.19999V7.20429Z" fill="currentColor"/>
</svg>
