<svg width="16" height="17" viewBox="0 0 16 17" fill="none" xmlns="http://www.w3.org/2000/svg">
<path d="M13.227 3.40234H2.80193C2.58924 3.40234 2.38527 3.48683 2.23488 3.63722C2.08449 3.78761 2 3.99159 2 4.20427V9.81777C2 10.0304 2.08449 10.2344 2.23488 10.3848C2.38527 10.5352 2.58924 10.6197 2.80193 10.6197H7.14648V9.81777H5.35807L2.80193 7.6275V6.39454L5.35807 4.20427H10.6708L13.1496 6.32819C13.4634 6.42038 13.759 6.53762 14.0289 6.67864V4.20427C14.0289 3.99159 13.9444 3.78761 13.794 3.63722C13.6436 3.48683 13.4397 3.40234 13.227 3.40234Z" fill="currentColor"/>
<path d="M8.63288 6.71362C9.00113 6.51275 9.42002 6.35738 9.8696 6.25092C9.76975 6.00722 9.62192 5.78323 9.43208 5.5934C9.0561 5.21742 8.54617 5.0062 8.01446 5.0062C7.61794 5.0062 7.23033 5.12378 6.90064 5.34407C6.57095 5.56436 6.31399 5.87747 6.16225 6.24381C6.01051 6.61014 5.9708 7.01324 6.04816 7.40214C6.12552 7.79104 6.31646 8.14826 6.59684 8.42864C6.75786 8.58967 6.94424 8.72119 7.1474 8.81865C7.17742 7.79047 7.93647 7.09348 8.63288 6.71362Z" fill="currentColor"/>
<path fill-rule="evenodd" clip-rule="evenodd" d="M9.16295 7.44198C8.55169 7.77539 8.06836 8.29332 8.06836 8.95022V12.3501C8.06836 13.0069 8.55173 13.5248 9.16295 13.8582C9.78739 14.1989 10.6262 14.3989 11.5337 14.3989C12.4412 14.3989 13.2801 14.1989 13.9045 13.8582C14.5157 13.5248 14.9991 13.0069 14.9991 12.3501V8.95022C14.9991 8.29332 14.5158 7.77539 13.9045 7.44198C13.28 7.10137 12.4412 6.90148 11.5337 6.90148C10.6262 6.90148 9.7874 7.10137 9.16295 7.44198ZM13.9045 10.4585C14.045 10.3818 14.1788 10.2954 14.3015 10.1997V10.6501C14.3015 10.9319 14.0872 11.264 13.5704 11.5459C13.0669 11.8206 12.3474 12.0013 11.5337 12.0013C10.72 12.0013 10.0006 11.8206 9.497 11.5459C8.98023 11.264 8.76591 10.9319 8.76591 10.6501V10.1997C8.88861 10.2954 9.0224 10.3818 9.16295 10.4585C9.7874 10.7991 10.6262 10.9989 11.5337 10.9989C12.4412 10.9989 13.28 10.7991 13.9045 10.4585ZM13.9045 12.1582C14.045 12.0816 14.1788 11.9952 14.3015 11.8995V12.3501C14.3015 12.6319 14.0872 12.964 13.5704 13.2459C13.0669 13.5206 12.3474 13.7013 11.5337 13.7013C10.72 13.7013 10.0006 13.5206 9.497 13.2459C8.98023 12.964 8.76591 12.6319 8.76591 12.3501V11.8995C8.88861 11.9952 9.0224 12.0816 9.16295 12.1582C9.78739 12.4989 10.6262 12.6989 11.5337 12.6989C12.4412 12.6989 13.2801 12.4989 13.9045 12.1582Z" fill="currentColor"/>
</svg>
