<svg width="14" height="14" viewBox="0 0 14 14" fill="none" xmlns="http://www.w3.org/2000/svg">
<path fill-rule="evenodd" clip-rule="evenodd" d="M7.3339 0.5C10.9233 0.5 13.8331 3.40978 13.8331 6.99918C13.8331 10.5886 10.9233 13.4984 7.3339 13.4984C3.7445 13.4984 0.834717 10.5886 0.834717 6.99918C0.834717 3.40978 3.7445 0.5 7.3339 0.5ZM5.06644 9.26667C4.75651 8.95674 4.75651 8.45424 5.06644 8.1443L6.2116 6.99914L5.06643 5.85397C4.7565 5.54404 4.7565 5.04154 5.06643 4.73161C5.37637 4.42167 5.87887 4.42167 6.1888 4.73161L7.33397 5.87678L8.47915 4.7316C8.78908 4.42166 9.29158 4.42166 9.60152 4.7316C9.91145 5.04153 9.91145 5.54403 9.60152 5.85396L8.45634 6.99914L9.60151 8.14431C9.91144 8.45425 9.91144 8.95675 9.60151 9.26668C9.29158 9.57661 8.78907 9.57661 8.47914 9.26668L7.33397 8.12151L6.18881 9.26667C5.87888 9.5766 5.37638 9.5766 5.06644 9.26667Z" fill="#CD2C0B"/>
</svg>
