<svg width="16" height="17" viewBox="0 0 16 17" fill="none" xmlns="http://www.w3.org/2000/svg">
<path d="M6.22916 4.17962C6.22916 3.19698 7.02178 2.40039 7.99953 2.40039C8.97728 2.40039 9.7699 3.19698 9.7699 4.17962C9.7699 4.9117 9.32996 5.54051 8.7013 5.81359V7.19384H10.9674C12.0517 7.19384 12.9307 8.07726 12.9307 9.16701V10.9869C13.5597 11.2598 14 11.8888 14 12.6212C14 13.6038 13.2074 14.4004 12.2296 14.4004C11.2519 14.4004 10.4593 13.6038 10.4593 12.6212C10.4593 11.8896 10.8986 11.2612 11.5265 10.9878V9.16701C11.5265 8.85665 11.2762 8.60505 10.9674 8.60505H8.7013V10.9872C9.32996 11.2603 9.7699 11.8891 9.7699 12.6212C9.7699 13.6038 8.97728 14.4004 7.99953 14.4004C7.02178 14.4004 6.22916 13.6038 6.22916 12.6212C6.22916 11.8893 6.6688 11.2607 7.29712 10.9875V8.60505H5.03105C4.72224 8.60505 4.4719 8.85665 4.4719 9.16701V10.9871C5.10069 11.2601 5.54073 11.889 5.54073 12.6212C5.54073 13.6038 4.74811 14.4004 3.77037 14.4004C2.79262 14.4004 2 13.6038 2 12.6212C2 11.8894 2.43952 11.2609 3.06772 10.9876V9.16701C3.06772 8.07726 3.94673 7.19384 5.03105 7.19384H7.29712V5.81331C6.6688 5.54008 6.22916 4.91145 6.22916 4.17962Z" fill="currentColor"/>
</svg>
