<svg width="16" height="17" viewBox="0 0 16 17" fill="none" xmlns="http://www.w3.org/2000/svg">
<path d="M11.5352 2.39844H4.53516C4.25901 2.39844 4.03516 2.6223 4.03516 2.89844V3.89844C4.03516 4.17458 4.25901 4.39844 4.53516 4.39844H11.5352C11.8113 4.39844 12.0352 4.17458 12.0352 3.89844V2.89844C12.0352 2.6223 11.8113 2.39844 11.5352 2.39844Z" fill="currentColor"/>
<path fill-rule="evenodd" clip-rule="evenodd" d="M3.5 5.38672C2.67157 5.38672 2 6.05829 2 6.88672V9.88672C2 10.7151 2.67157 11.3867 3.5 11.3867H4.03516V12.8984C4.03516 13.7269 4.70673 14.3984 5.53516 14.3984H10.5352C11.3636 14.3984 12.0352 13.7269 12.0352 12.8984V11.3867H12.5C13.3284 11.3867 14 10.7151 14 9.88672V6.88672C14 6.05829 13.3284 5.38672 12.5 5.38672H3.5ZM6.03516 10.6984V12.0984C6.03516 12.2641 6.16947 12.3984 6.33516 12.3984H9.73516C9.90084 12.3984 10.0352 12.2641 10.0352 12.0984V10.6984C10.0352 10.5328 9.90084 10.3984 9.73516 10.3984H6.33516C6.16947 10.3984 6.03516 10.5328 6.03516 10.6984ZM12.0352 7.39844C12.0352 7.95072 11.5874 8.39844 11.0352 8.39844C10.4829 8.39844 10.0352 7.95072 10.0352 7.39844C10.0352 6.84615 10.4829 6.39844 11.0352 6.39844C11.5874 6.39844 12.0352 6.84615 12.0352 7.39844Z" fill="currentColor"/>
</svg>
