<svg width="17" height="16" viewBox="0 0 17 16" fill="none" xmlns="http://www.w3.org/2000/svg">
<path d="M8.10462 2.72305C8.10462 2.32264 7.7668 1.99805 7.35009 1.99805C6.93337 1.99805 6.59555 2.32264 6.59556 2.72305V2.91077H3.36781C2.9511 2.91077 2.61328 3.23536 2.61328 3.63577C2.61328 4.03618 2.9511 4.36077 3.36781 4.36077H8.71788C8.58975 4.64655 8.45259 4.92552 8.30882 5.19677C7.89739 5.97305 7.43188 6.68611 6.96942 7.31489C6.6438 6.82801 6.33589 6.32084 6.03915 5.79971C5.83913 5.44845 5.38063 5.31949 5.01505 5.51168C4.64948 5.70387 4.51527 6.14443 4.71529 6.4957C5.10929 7.18763 5.53186 7.87339 5.99803 8.53245C5.62703 8.96248 5.2936 9.31285 5.03778 9.56925C4.87581 9.73159 4.74533 9.85587 4.65662 9.93845C4.61228 9.97973 4.57841 10.0106 4.5563 10.0305L4.53213 10.0521L4.52697 10.0567C4.21901 10.3261 4.19571 10.785 4.47594 11.0811C4.75628 11.3774 5.23348 11.3992 5.5418 11.1298L5.0342 10.5934C5.5418 11.1298 5.54165 11.13 5.5418 11.1298L5.54345 11.1284L5.54631 11.1259L5.55567 11.1176L5.58842 11.0883C5.61632 11.0632 5.65618 11.0269 5.70667 10.9799C5.80764 10.8859 5.95129 10.7489 6.12711 10.5727C6.34808 10.3512 6.62047 10.0671 6.92321 9.7276C7.16135 10.0072 7.41032 10.2786 7.67154 10.5401C7.96011 10.829 8.43775 10.8384 8.73839 10.5611C9.03902 10.2839 9.04881 9.82492 8.76025 9.53605C8.45422 9.22969 8.16471 8.90554 7.88885 8.56637C8.75519 7.44752 9.69336 6.00571 10.3463 4.36077H11.3283C11.7451 4.36077 12.0829 4.03618 12.0829 3.63577C12.0829 3.23536 11.7451 2.91077 11.3283 2.91077H9.83354C9.82183 2.91051 9.81015 2.91051 9.7985 2.91077H8.10462V2.72305Z" fill="currentColor"/>
<path fill-rule="evenodd" clip-rule="evenodd" d="M10.4978 7.44801C10.8292 6.67997 11.9649 6.6894 12.2825 7.46284L14.5604 13.0101C14.7134 13.3826 14.5231 13.8036 14.1355 13.9506C13.7478 14.0976 13.3096 13.9148 13.1567 13.5423L12.5281 12.0116L10.1619 12.0116L9.49627 13.5539C9.33665 13.9238 8.8952 14.0993 8.51027 13.9459C8.12534 13.7925 7.94269 13.3684 8.10231 12.9985L8.89025 11.1728C8.9092 11.0574 8.95646 10.9511 9.02499 10.8606L10.4978 7.44801ZM10.7877 10.5616H11.9327L11.3744 9.20208L10.7877 10.5616Z" fill="currentColor"/>
</svg>
