<svg width="17" height="17" viewBox="0 0 17 17" fill="none" xmlns="http://www.w3.org/2000/svg">
<path fill-rule="evenodd" clip-rule="evenodd" d="M2.5 3.31445C2.5 2.76217 2.94772 2.31445 3.5 2.31445H13.5C14.0523 2.31445 14.5 2.76217 14.5 3.31445V4.28496C14.5 4.83725 14.0523 5.28496 13.5 5.28496H3.5C2.94772 5.28496 2.5 4.83724 2.5 4.28496V3.31445ZM7.44922 7.32042C7.44922 6.76813 7.89693 6.31768 8.44922 6.31768H13.4492C14.0015 6.31768 14.4492 6.76813 14.4492 7.32042C14.4492 7.8727 14.0015 8.32316 13.4492 8.32316H8.44922C7.89693 8.32316 7.44922 7.8727 7.44922 7.32042ZM14.4492 10.3161C14.4492 9.76378 14.0015 9.31332 13.4492 9.31332H8.44922C7.89693 9.31332 7.44922 9.76378 7.44922 10.3161C7.44922 10.8683 7.89693 11.3188 8.44922 11.3188H13.4492C14.0015 11.3188 14.4492 10.8683 14.4492 10.3161ZM7.44922 13.3117C7.44922 12.7594 7.89693 12.309 8.44922 12.309H13.4492C14.0015 12.309 14.4492 12.7594 14.4492 13.3117C14.4492 13.864 14.0015 14.3145 13.4492 14.3145H8.44922C7.89693 14.3145 7.44922 13.864 7.44922 13.3117ZM6.5 7.29254C6.5 6.74025 6.05228 6.29254 5.5 6.29254H3.5C2.94772 6.29254 2.5 6.74025 2.5 7.29254V13.2139C2.5 13.7662 2.94772 14.2139 3.5 14.2139H5.5C6.05228 14.2139 6.5 13.7662 6.5 13.2139V7.29254Z" fill="currentColor"/>
</svg>
