<svg width="16" height="17" viewBox="0 0 16 17" fill="none" xmlns="http://www.w3.org/2000/svg">
<path d="M2 3.89648C2 3.62034 2.22386 3.39648 2.5 3.39648H7.5C7.77614 3.39648 8 3.62034 8 3.89648V5.90002C8 6.17617 7.77614 6.40002 7.5 6.40002H2.5C2.22386 6.40002 2 6.17617 2 5.90002V3.89648ZM8 9.89648C8 9.62034 8.22386 9.39648 8.5 9.39648H13.5C13.7761 9.39648 14 9.62034 14 9.89648V12.9C14 13.1762 13.7761 13.4 13.5 13.4H8.5C8.22386 13.4 8 13.1762 8 12.9V9.89648ZM11 3.89648C11 3.62034 11.2239 3.39648 11.5 3.39648H13.5C13.7761 3.39648 14 3.62034 14 3.89648V5.8999C14 6.17604 13.7761 6.3999 13.5 6.3999H11.5C11.2239 6.3999 11 6.17604 11 5.8999V3.89648ZM2 9.89648C2 9.62034 2.22386 9.39648 2.5 9.39648H4.5C4.77614 9.39648 5 9.62034 5 9.89648V12.8999C5 13.176 4.77614 13.3999 4.5 13.3999H2.5C2.22386 13.3999 2 13.176 2 12.8999V9.89648Z" fill="currentColor" stroke="currentColor" stroke-width="2"/>
</svg>
