<svg width="17" height="16" viewBox="0 0 17 16" fill="none" xmlns="http://www.w3.org/2000/svg">
<path fill-rule="evenodd" clip-rule="evenodd" d="M14.6159 7.9974C14.6159 11.3118 11.929 13.9987 8.61458 13.9987C5.30016 13.9987 2.61328 11.3118 2.61328 7.9974C2.61328 4.68297 5.30016 1.99609 8.61458 1.99609C11.929 1.99609 14.6159 4.68297 14.6159 7.9974ZM9.45023 4.39648C9.45023 3.93533 9.07639 3.56148 8.61523 3.56148C8.15408 3.56148 7.78023 3.93533 7.78023 4.39648V7.99727C7.78023 8.31354 7.95893 8.60267 8.24181 8.74411L10.6423 9.94437C11.0548 10.1506 11.5564 9.98342 11.7626 9.57095C11.9688 9.15848 11.8017 8.65691 11.3892 8.45068L9.45023 7.48121V4.39648Z" fill="currentColor"/>
</svg>
