<svg width="17" height="16" viewBox="0 0 17 16" fill="none" xmlns="http://www.w3.org/2000/svg">
<path d="M13.8378 2.65553C12.4194 1.27456 10.5173 0.501155 8.53647 0.500006C7.22902 0.498375 5.94415 0.840236 4.81077 1.49127C3.67738 2.14231 2.7353 3.07964 2.07918 4.20918C1.42306 5.33873 1.07593 6.62076 1.0726 7.92664C1.06926 9.23252 1.40989 10.5163 2.06023 11.6492L1 15.5L4.96537 14.468C6.06896 15.0486 7.295 15.3584 8.54223 15.372C10.0149 15.373 11.4549 14.9382 12.6803 14.1225C13.9058 13.3068 14.8618 12.1468 15.4277 10.7889C15.9936 9.43093 16.1441 7.93598 15.8601 6.49271C15.5761 5.04944 14.8704 3.72257 13.832 2.67959L13.8378 2.65553Z" fill="#ECEFF1"/>
<path d="M8.55013 14.0049H8.5366C7.35102 14.0024 6.19088 13.6613 5.19294 13.022L2.87963 13.6227L3.5004 11.3758L3.35192 11.1447C2.74061 10.1731 2.41654 9.04885 2.41699 7.90135C2.42715 6.69384 2.79384 5.51617 3.47111 4.51588C4.14838 3.51559 5.10611 2.73717 6.22435 2.27812C7.34258 1.81907 8.57153 1.69981 9.75732 1.93529C10.9431 2.17077 12.033 2.75051 12.8904 3.60188C13.7429 4.4566 14.3225 5.54464 14.5557 6.7284C14.789 7.91215 14.6655 9.13843 14.2009 10.2521C13.7362 11.3657 12.9513 12.3167 11.9454 12.9847C10.9396 13.6527 9.75805 14.0078 8.55013 14.0049Z" fill="#4CAF50"/>
<path d="M11.7395 9.53889L11.7347 9.58799C11.5583 9.49172 10.6986 9.01037 10.5386 8.94587C10.1791 8.79472 10.2803 8.9218 9.59013 9.81809C9.48699 9.94805 9.38572 9.95865 9.21126 9.86815C8.68421 9.62865 8.20609 9.29376 7.80111 8.88041C7.41371 8.46927 7.086 8.00586 6.82759 7.50374C6.65602 7.16679 7.0156 7.11865 7.34235 6.41587C7.36579 6.36027 7.37655 6.30016 7.37388 6.23989C7.37122 6.17962 7.35519 6.12069 7.32694 6.06737C7.28356 5.9711 6.93268 4.98911 6.78617 4.59921C6.63966 4.20931 6.49707 4.26035 6.39201 4.26035C6.25017 4.22117 6.10027 4.22183 5.95879 4.26226C5.8173 4.30268 5.68968 4.38131 5.59004 4.48948C4.64352 5.6688 4.88156 6.88661 5.69217 8.1805C7.28352 10.543 8.1327 10.9791 9.68261 11.5818C10.0368 11.7045 10.417 11.7324 10.7853 11.6626C11.0388 11.5981 11.2755 11.4801 11.4795 11.3165C11.6835 11.153 11.85 10.9476 11.9679 10.7144C12.0851 10.4128 12.1217 10.086 12.0739 9.76609C12.0306 9.67655 11.9159 9.62652 11.7395 9.53698V9.53889Z" fill="#FAFAFA"/>
</svg>
