<svg xmlns="http://www.w3.org/2000/svg" width="134" height="139" viewBox="0 0 134 139">
  <g id="Group_8212" data-name="Group 8212" transform="translate(-1640 -12722)">
    <g id="Path_7439" data-name="Path 7439" transform="translate(-232.569 12191.315)" fill="none" stroke-miterlimit="10">
      <path d="M1940.29,530.685a66.656,66.656,0,0,0-47.561,112.971c-.119.354-7.069,20.529-20.16,26.029,17.77,0,28.817,0,43.226-8.687a11.025,11.025,0,0,0,1.616-1.182,66.546,66.546,0,1,0,22.879-129.131Z" stroke="none"/>
      <path d="M 1940.290161132813 532.68505859375 C 1931.612182617188 532.68505859375 1923.194946289063 534.3924560546875 1915.272338867188 537.759765625 C 1911.463989257813 539.3783569335938 1907.790771484375 541.3818969726563 1904.354614257813 543.7147216796875 C 1900.950439453125 546.0258178710938 1897.749145507813 548.6800537109375 1894.839721679688 551.603759765625 C 1891.93017578125 554.527587890625 1889.288696289063 557.7448120117188 1886.988647460938 561.1661376953125 C 1884.666748046875 564.6199340820313 1882.672485351563 568.3120727539063 1881.061401367188 572.1400146484375 C 1877.709350585938 580.1044311523438 1876.009643554688 588.5661010742188 1876.009643554688 597.2900390625 C 1876.009643554688 605.8379516601563 1877.647216796875 614.1429443359375 1880.876831054688 621.9744262695313 C 1882.42919921875 625.7386474609375 1884.35205078125 629.3776245117188 1886.592041015625 632.7902221679688 C 1888.809326171875 636.1681518554688 1891.358276367188 639.3565673828125 1894.168212890625 642.2669067382813 L 1895.0126953125 643.1415405273438 L 1894.625 644.2938842773438 C 1894.60693359375 644.3472900390625 1892.785766601563 649.7080078125 1889.238891601563 655.7529907226563 C 1886.269165039063 660.8143310546875 1883.041748046875 664.796142578125 1879.59326171875 667.6619262695313 C 1893.236694335938 667.5200805664063 1902.781860351563 666.5079345703125 1914.761840820313 659.2850341796875 C 1915.24755859375 658.9920654296875 1915.669799804688 658.6834106445313 1916.0908203125 658.3135375976563 L 1916.986450195313 657.5267333984375 L 1918.1044921875 657.9402465820313 C 1925.197875976563 660.5636596679688 1932.662231445313 661.893798828125 1940.290161132813 661.893798828125 C 1948.967651367188 661.893798828125 1957.384521484375 660.1864013671875 1965.307006835938 656.819091796875 C 1969.115112304688 655.2005004882813 1972.788330078125 653.197021484375 1976.224365234375 650.8642578125 C 1979.628540039063 648.5531616210938 1982.829833984375 645.89892578125 1985.739135742188 642.9752807617188 C 1988.648681640625 640.0514526367188 1991.2900390625 636.834228515625 1993.590087890625 633.4129638671875 C 1995.911987304688 629.9592895507813 1997.906127929688 626.2672119140625 1999.517211914063 622.4393920898438 C 2002.869262695313 614.47509765625 2004.568969726563 606.0136108398438 2004.568969726563 597.2900390625 C 2004.568969726563 588.566162109375 2002.869262695313 580.1044311523438 1999.517211914063 572.1400146484375 C 1997.906127929688 568.3120727539063 1995.911987304688 564.6199340820313 1993.590087890625 561.1661376953125 C 1991.2900390625 557.7448120117188 1988.648681640625 554.527587890625 1985.739135742188 551.603759765625 C 1982.829833984375 548.6800537109375 1979.628540039063 546.0258178710938 1976.224365234375 543.7146606445313 C 1972.788330078125 541.3818969726563 1969.115112304688 539.3783569335938 1965.307006835938 537.759765625 C 1957.384643554688 534.3924560546875 1948.967651367188 532.68505859375 1940.290161132813 532.68505859375 M 1940.290161132813 530.68505859375 C 1976.896118164063 530.68505859375 2006.568969726563 560.5045776367188 2006.568969726563 597.2900390625 C 2006.568969726563 634.0742797851563 1976.896118164063 663.893798828125 1940.290161132813 663.893798828125 C 1932.248657226563 663.893798828125 1924.540893554688 662.4530639648438 1917.410766601563 659.8161010742188 C 1916.962036132813 660.2103271484375 1916.448608398438 660.603271484375 1915.794799804688 660.9976196289063 C 1901.385620117188 669.68505859375 1890.338745117188 669.68505859375 1872.568969726563 669.68505859375 C 1885.660766601563 664.1851806640625 1892.610229492188 644.0101318359375 1892.729370117188 643.6560668945313 C 1881.151733398438 631.6644897460938 1874.009643554688 615.3186645507813 1874.009643554688 597.2900390625 C 1874.009643554688 560.5045776367188 1903.682495117188 530.68505859375 1940.290161132813 530.68505859375 Z" stroke="none" fill="#006ce0"/>
    </g>
    <g id="Group_8210" data-name="Group 8210">
      <path id="Path_7441" data-name="Path 7441" d="M1949.569,607.685a35.251,35.251,0,0,0-27,0V568.716a24.62,24.62,0,0,1,27,0Z" transform="translate(-215.569 12202.315)" fill="none" stroke="#006ce0" stroke-miterlimit="10" stroke-width="2"/>
      <path id="Path_7489" data-name="Path 7489" d="M1949.569,607.685a35.251,35.251,0,0,0-27,0V568.716a24.62,24.62,0,0,1,27,0Z" transform="translate(-242.569 12202.315)" fill="none" stroke="#006ce0" stroke-miterlimit="10" stroke-width="2"/>
    </g>
  </g>
</svg>
