<?xml version="1.0" standalone="no"?>
<!DOCTYPE svg PUBLIC "-//W3C//DTD SVG 1.1//EN" "http://www.w3.org/Graphics/SVG/1.1/DTD/svg11.dtd" >
<svg xmlns="http://www.w3.org/2000/svg" xmlns:xlink="http://www.w3.org/1999/xlink" version="1.1">
<metadata>
Created by FontForge 20141024 at Thu Feb 25 12:50:22 2016
 By Jimmy Warting
Digitized data copyright (c) 2010-2011, Google Corporation.
</metadata>
<defs>
<font id="BpmonlineOpenSans" horiz-adv-x="1058" >
  <font-face 
    font-family="Bpm'online Open Sans"
    font-weight="400"
    font-stretch="normal"
    units-per-em="2048"
    panose-1="2 11 6 6 3 5 4 2 2 4"
    ascent="1638"
    descent="-410"
    x-height="1018"
    cap-height="1358"
    bbox="-1046 -515 2290 1993"
    underline-thickness="95"
    underline-position="-96"
    unicode-range="U+0020-FFFD"
  />
<missing-glyph horiz-adv-x="1141" 
d="M179 1358h781v-1358h-781v1358zM276 97h588v1164h-588v-1164z" />
    <glyph glyph-name="uniFB01" unicode="fi" horiz-adv-x="1126" 
d="M622 898h-259v-898h-154v898h-182v70l182 55v57q0 375 328 375q81 0 189 -32l-40 -124q-89 29 -152 29q-87 0 -129 -58t-42 -186v-66h259v-120zM963 0h-155v1018h155v-1018zM795 1294q0 53 26 77.5t65 24.5q38 0 64.5 -25t26.5 -77t-26.5 -77.5t-64.5 -25.5
q-39 0 -65 25.5t-26 77.5z" />
    <glyph glyph-name="uniFB02" unicode="fl" horiz-adv-x="1126" 
d="M622 898h-259v-898h-154v898h-182v70l182 55v57q0 375 328 375q81 0 189 -32l-40 -124q-89 29 -152 29q-87 0 -129 -58t-42 -186v-66h259v-120zM963 0h-155v1445h155v-1445z" />
    <glyph glyph-name="uniFB03" unicode="ffi" horiz-adv-x="1773" 
d="M1261 898h-259v-898h-154v898h-182v70l182 55v57q0 375 328 375q81 0 189 -32l-40 -124q-89 29 -152 29q-87 0 -129 -58t-42 -186v-66h259v-120zM622 898h-259v-898h-154v898h-182v70l182 55v57q0 375 328 375q81 0 189 -32l-40 -124q-89 29 -152 29q-87 0 -129 -58
t-42 -186v-66h259v-120zM1608 0h-155v1018h155v-1018zM1440 1294q0 53 26 77.5t65 24.5q38 0 64.5 -25t26.5 -77t-26.5 -77.5t-64.5 -25.5q-39 0 -65 25.5t-26 77.5z" />
    <glyph glyph-name="uniFB04" unicode="ffl" horiz-adv-x="1773" 
d="M1261 898h-259v-898h-154v898h-182v70l182 55v57q0 375 328 375q81 0 189 -32l-40 -124q-89 29 -152 29q-87 0 -129 -58t-42 -186v-66h259v-120zM622 898h-259v-898h-154v898h-182v70l182 55v57q0 375 328 375q81 0 189 -32l-40 -124q-89 29 -152 29q-87 0 -129 -58
t-42 -186v-66h259v-120zM1608 0h-155v1445h155v-1445z" />
    <glyph glyph-name="ff" unicode="ff" horiz-adv-x="1290" 
d="M1267 898h-259v-898h-154v898h-182v70l182 55v57q0 375 328 375q81 0 189 -32l-40 -124q-89 29 -152 29q-87 0 -129 -58t-42 -186v-66h259v-120zM622 898h-259v-898h-154v898h-182v70l182 55v57q0 375 328 375q81 0 189 -32l-40 -124q-89 29 -152 29q-87 0 -129 -58
t-42 -186v-66h259v-120z" />
    <glyph glyph-name=".notdef" horiz-adv-x="1141" 
d="M179 1358h781v-1358h-781v1358zM276 97h588v1164h-588v-1164z" />
    <glyph glyph-name="NULL" horiz-adv-x="0" 
 />
    <glyph glyph-name="nonmarkingreturn" horiz-adv-x="970" 
 />
    <glyph glyph-name="space" unicode=" " horiz-adv-x="494" 
 />
    <glyph glyph-name="exclam" unicode="!" horiz-adv-x="508" 
d="M303 374h-98l-47 984h192zM141 98q0 127 112 127q53 0 82.5 -32.5t29.5 -94.5q0 -59 -29.5 -92t-82.5 -33q-49 0 -80.5 29.5t-31.5 95.5z" />
    <glyph glyph-name="quotedbl" unicode="&#x22;" horiz-adv-x="762" 
d="M296 1358l-37 -491h-97l-38 491h172zM639 1358l-38 -491h-97l-38 491h173z" />
    <glyph glyph-name="numbersign" unicode="#" horiz-adv-x="1229" 
d="M911 835l-61 -316h263v-120h-286l-78 -399h-127l78 399h-281l-76 -399h-127l75 399h-244v120h267l63 316h-257v118h277l77 405h129l-76 -405h283l78 405h124l-78 -405h245v-118h-268zM441 519h282l61 316h-282z" />
    <glyph glyph-name="dollar" unicode="$" horiz-adv-x="1088" 
d="M962 417q0 -126 -94.5 -208.5t-264.5 -103.5v-216h-120v208q-104 0 -201.5 16t-159.5 45v145q77 -35 177.5 -56.5t183.5 -21.5v408q-190 61 -267 140.5t-77 206.5q0 121 94.5 199t249.5 95v169h120v-167q171 -5 329 -69l-48 -121q-138 54 -281 65v-403q146 -47 218 -91
t106.5 -101t34.5 -139zM804 405q0 67 -41 108t-160 82v-361q201 28 201 171zM296 982q0 -71 42 -113.5t145 -80.5v359q-92 -15 -139.5 -58t-47.5 -107z" />
    <glyph glyph-name="percent" unicode="%" horiz-adv-x="1566" 
d="M225 953q0 -158 34 -237t112 -79q152 0 152 316q0 314 -152 314q-78 0 -112 -78t-34 -236zM650 953q0 -212 -71 -320t-208 -108q-130 0 -202 110.5t-72 317.5q0 211 69 317.5t205 106.5q134 0 206.5 -110.5t72.5 -313.5zM1042 409q0 -159 34.5 -237.5t112.5 -78.5
t115 77.5t37 238.5q0 158 -37 235t-115 77t-112.5 -77t-34.5 -235zM1468 409q0 -211 -71 -319.5t-208 -108.5q-132 0 -203 110.5t-71 317.5q0 210 69 317t205 107q132 0 205.5 -109t73.5 -315zM1229 1358l-754 -1358h-136l753 1358h137z" />
    <glyph glyph-name="ampersand" unicode="&#x26;" horiz-adv-x="1388" 
d="M384 1088q0 -65 33.5 -123t114.5 -139q120 69 167 128t47 136q0 72 -48 117t-128 45q-82 0 -134 -44.5t-52 -119.5zM528 120q224 0 372 143l-406 394q-103 -64 -145.5 -105t-63 -88.5t-20.5 -107.5q0 -109 72 -172.5t191 -63.5zM105 352q0 121 64.5 213.5t231.5 187.5
q-79 88 -107 133.5t-45 95t-17 102.5q0 139 91 217t254 78q150 0 236.5 -77.5t86.5 -215.5q0 -100 -63 -184t-209 -170l378 -363q52 57 83 134.5t52 169.5h156q-63 -265 -190 -403l278 -270h-213l-172 165q-109 -98 -222.5 -141t-252.5 -43q-200 0 -310 98.5t-110 272.5z
" />
    <glyph glyph-name="quotesingle" unicode="'" horiz-adv-x="421" 
d="M296 1358l-37 -491h-97l-38 491h172z" />
    <glyph glyph-name="parenleft" unicode="(" horiz-adv-x="563" 
d="M76 521q0 246 72 460.5t208 376.5h150q-134 -179 -201 -394t-67 -441q0 -223 68.5 -435.5t197.5 -388.5h-148q-137 158 -208.5 369t-71.5 453z" />
    <glyph glyph-name="parenright" unicode=")" horiz-adv-x="563" 
d="M487 521q0 -244 -72 -455t-208 -367h-148q129 175 197.5 388t68.5 436q0 226 -67.5 441t-200.5 394h150q137 -163 208.5 -378t71.5 -459z" />
    <glyph glyph-name="asterisk" unicode="*" horiz-adv-x="1049" 
d="M610 1445l-40 -367l370 103l24 -169l-354 -28l230 -303l-159 -88l-164 337l-148 -337l-164 88l225 303l-350 28l27 169l363 -103l-40 367h180z" />
    <glyph glyph-name="plus" unicode="+" horiz-adv-x="1088" 
d="M606 735h383v-129h-383v-395h-129v395h-380v129h380v397h129v-397z" />
    <glyph glyph-name="comma" unicode="," horiz-adv-x="466" 
d="M325 221l14 -21q-24 -93 -69.5 -216t-94.5 -229h-116q25 96 55 238.5t42 227.5h169z" />
    <glyph glyph-name="hyphen" unicode="-" horiz-adv-x="612" 
d="M78 439v141h456v-141h-456z" />
    <glyph glyph-name="period" unicode="." horiz-adv-x="506" 
d="M141 98q0 63 28.5 95t81.5 32q54 0 84 -32t30 -95q0 -60 -30.5 -92.5t-83.5 -32.5q-48 0 -79 29.5t-31 95.5z" />
    <glyph glyph-name="slash" unicode="/" horiz-adv-x="698" 
d="M679 1358l-506 -1358h-154l506 1358h154z" />
    <glyph glyph-name="zero" unicode="0" horiz-adv-x="1088" 
d="M993 681q0 -352 -111 -526t-340 -174q-219 0 -333 178t-114 522q0 355 110.5 526.5t336.5 171.5q221 0 336 -179t115 -519zM251 681q0 -297 69.5 -432t221.5 -135q155 0 224 137t69 430q0 292 -69 428t-224 136q-152 0 -221.5 -134t-69.5 -430z" />
    <glyph glyph-name="one" unicode="1" horiz-adv-x="1088" 
d="M664 0h-150v968q0 120 7 228q-19 -19 -43.5 -40.5t-221.5 -181.5l-81 106l359 278h130v-1358z" />
    <glyph glyph-name="two" unicode="2" horiz-adv-x="1088" 
d="M985 0h-892v133l357 359q164 166 216 236.5t78 137t26 144.5q0 108 -66 171.5t-183 63.5q-85 0 -160.5 -27.5t-168.5 -101.5l-81 105q187 156 408 156q191 0 300 -98t109 -263q0 -129 -72.5 -255.5t-271.5 -319.5l-297 -291v-7h698v-143z" />
    <glyph glyph-name="three" unicode="3" horiz-adv-x="1088" 
d="M934 1038q0 -130 -73 -212.5t-206 -110.5v-7q163 -21 242 -104.5t79 -219.5q0 -194 -134.5 -298.5t-382.5 -104.5q-108 0 -197.5 16.5t-174.5 57.5v147q89 -44 188.5 -67t188.5 -23q352 0 352 276q0 247 -388 247h-134v133h136q159 0 252 70t93 195q0 99 -68.5 155.5
t-185.5 56.5q-89 0 -168 -24t-180 -89l-78 104q83 66 192.5 103.5t229.5 37.5q198 0 307.5 -90.5t109.5 -248.5z" />
    <glyph glyph-name="four" unicode="4" horiz-adv-x="1088" 
d="M1049 312h-201v-312h-148v312h-660v135l644 918h164v-913h201v-140zM700 452v452q0 132 10 300h-8q-44 -90 -83 -148l-425 -604h506z" />
    <glyph glyph-name="five" unicode="5" horiz-adv-x="1088" 
d="M517 829q215 0 338 -106t123 -291q0 -211 -134 -331t-370 -120q-230 0 -350 74v148q65 -41 161.5 -65t189.5 -24q164 0 254.5 77t90.5 223q0 284 -348 284q-88 0 -236 -27l-80 52l51 635h675v-142h-543l-34 -408q106 21 212 21z" />
    <glyph glyph-name="six" unicode="6" horiz-adv-x="1088" 
d="M109 580q0 401 155.5 599t459.5 198q105 0 166 -17v-133q-72 23 -164 23q-218 0 -333 -136t-126 -428h11q102 160 323 160q183 0 288.5 -110.5t105.5 -299.5q0 -212 -116 -333.5t-312 -121.5q-211 0 -334.5 158.5t-123.5 440.5zM565 112q132 0 204.5 83.5t72.5 240.5
q0 134 -67.5 211t-202.5 77q-83 0 -153 -34t-111 -94.5t-41 -125.5q0 -96 37 -178.5t105 -131t156 -48.5z" />
    <glyph glyph-name="seven" unicode="7" horiz-adv-x="1088" 
d="M265 0l562 1216h-740v142h904v-124l-555 -1234h-171z" />
    <glyph glyph-name="eight" unicode="8" horiz-adv-x="1088" 
d="M542 1377q186 0 294.5 -86t108.5 -239q0 -100 -62 -182.5t-199 -150.5q166 -79 235.5 -166t69.5 -201q0 -169 -118 -270t-323 -101q-217 0 -334 95.5t-117 269.5q0 234 284 364q-128 72 -184 156t-56 188q0 148 109 235.5t292 87.5zM249 343q0 -112 77.5 -174t217.5 -62
q139 0 216 65t77 178q0 90 -72.5 160t-252.5 136q-139 -59 -201 -131t-62 -172zM541 1252q-117 0 -182.5 -56t-65.5 -148q0 -86 54.5 -147t202.5 -123q133 56 188 120t55 150q0 93 -67.5 148.5t-184.5 55.5z" />
    <glyph glyph-name="nine" unicode="9" horiz-adv-x="1088" 
d="M985 778q0 -797 -616 -797q-108 0 -171 19v133q74 -24 169 -24q223 0 336.5 137.5t123.5 423.5h-11q-51 -77 -135.5 -117.5t-190.5 -40.5q-180 0 -286 107.5t-106 300.5q0 212 118.5 334.5t311.5 122.5q139 0 242.5 -71t159 -207t55.5 -321zM528 1245q-132 0 -204.5 -85
t-72.5 -238q0 -134 66.5 -210.5t203.5 -76.5q85 0 156 34.5t111.5 94t40.5 124.5q0 97 -38 180t-106 130t-157 47z" />
    <glyph glyph-name="colon" unicode=":" horiz-adv-x="506" 
d="M141 98q0 63 28.5 95t81.5 32q54 0 84 -32t30 -95q0 -60 -30.5 -92.5t-83.5 -32.5q-48 0 -79 29.5t-31 95.5zM141 918q0 126 110 126q114 0 114 -126q0 -60 -30.5 -92.5t-83.5 -32.5q-48 0 -79 29.5t-31 95.5z" />
    <glyph glyph-name="semicolon" unicode=";" horiz-adv-x="506" 
d="M325 221l14 -21q-24 -93 -69.5 -216t-94.5 -229h-116q25 96 55 238.5t42 227.5h169zM137 918q0 126 110 126q114 0 114 -126q0 -60 -30.5 -92.5t-83.5 -32.5q-54 0 -82 32.5t-28 92.5z" />
    <glyph glyph-name="less" unicode="&#x3c;" horiz-adv-x="1088" 
d="M989 225l-892 392v91l892 445v-139l-726 -344l726 -305v-140z" />
    <glyph glyph-name="equal" unicode="=" horiz-adv-x="1088" 
d="M111 797v127h863v-127h-863zM111 417v127h863v-127h-863z" />
    <glyph glyph-name="greater" unicode="&#x3e;" horiz-adv-x="1088" 
d="M97 365l727 303l-727 346v139l892 -445v-91l-892 -392v140z" />
    <glyph glyph-name="question" unicode="?" horiz-adv-x="816" 
d="M268 374v50q0 109 33.5 179t124.5 148q127 107 160 161t33 130q0 95 -61 146.5t-175 51.5q-74 0 -143.5 -17.5t-159.5 -62.5l-55 125q176 92 367 92q177 0 275.5 -87t98.5 -246q0 -68 -18 -119.5t-53.5 -97.5t-152.5 -148q-93 -80 -123.5 -133t-30.5 -141v-31h-120z
M223 98q0 127 111 127q54 0 83.5 -32.5t29.5 -94.5q0 -59 -30 -92t-83 -33q-48 0 -79.5 29.5t-31.5 95.5z" />
    <glyph glyph-name="at" unicode="@" horiz-adv-x="1710" 
d="M1597 677q0 -132 -40.5 -241.5t-115 -170t-171.5 -60.5q-79 0 -134 48.5t-65 123.5h-8q-37 -81 -106 -126.5t-164 -45.5q-139 0 -217.5 95.5t-78.5 258.5q0 190 109.5 308t287.5 118q64 0 143.5 -11.5t143.5 -31.5l-23 -437v-20q0 -166 124 -166q84 0 137 100t53 260
q0 168 -68.5 294.5t-195.5 194.5t-291 68q-207 0 -360.5 -86t-234.5 -245t-81 -368q0 -283 150 -435.5t431 -152.5q195 0 405 80v-124q-178 -78 -405 -78q-337 0 -523.5 185.5t-186.5 517.5q0 242 99.5 430.5t283.5 292t422 103.5q199 0 354.5 -84t240.5 -238.5t85 -356.5z
M637 555q0 -236 181 -236q192 0 209 291l13 243q-67 18 -146 18q-120 0 -188.5 -83.5t-68.5 -232.5z" />
    <glyph glyph-name="A" unicode="A" horiz-adv-x="1204" 
d="M1040 0l-169 432h-544l-167 -432h-160l537 1363h133l534 -1363h-164zM822 574l-158 421q-31 80 -63 196q-21 -90 -59 -196l-159 -421h439z" />
    <glyph glyph-name="B" unicode="B" horiz-adv-x="1232" 
d="M187 1358h383q270 0 391 -81t121 -255q0 -121 -67.5 -199.5t-196.5 -101.5v-10q309 -53 309 -325q0 -182 -123 -284t-344 -102h-473v1358zM345 776h260q167 0 240 52.5t73 177.5q0 114 -81.5 164.5t-259.5 50.5h-232v-445zM345 643v-508h283q164 0 247 63.5t83 198.5
q0 127 -85 186.5t-258 59.5h-270z" />
    <glyph glyph-name="C" unicode="C" horiz-adv-x="1200" 
d="M768 1236q-224 0 -353.5 -149t-129.5 -408q0 -267 125 -412t356 -145q142 0 324 51v-139q-141 -53 -348 -53q-300 0 -463 182t-163 518q0 210 78.5 367.5t226.5 243t349 85.5q214 0 373 -78l-67 -135q-154 72 -308 72z" />
    <glyph glyph-name="D" unicode="D" horiz-adv-x="1387" 
d="M1270 692q0 -336 -182.5 -514t-524.5 -178h-376v1358h416q316 0 491.5 -175.5t175.5 -490.5zM1103 686q0 266 -133 400.5t-396 134.5h-229v-1084h192q282 0 424 138.5t142 410.5z" />
    <glyph glyph-name="E" unicode="E" 
d="M944 0h-757v1358h757v-140h-599v-438h562v-139h-562v-500h599v-141z" />
    <glyph glyph-name="F" unicode="F" horiz-adv-x="982" 
d="M345 0h-158v1358h757v-140h-599v-497h562v-141h-562v-580z" />
    <glyph glyph-name="G" unicode="G" horiz-adv-x="1385" 
d="M784 711h461v-660q-107 -34 -218.5 -52t-258.5 -18q-308 0 -480 183.5t-172 514.5q0 212 85 371t245 243t374 84q217 0 405 -80l-61 -139q-184 78 -354 78q-248 0 -387.5 -147.5t-139.5 -409.5q0 -275 134.5 -417t394.5 -142q141 0 276 32v418h-304v141z" />
    <glyph glyph-name="H" unicode="H" horiz-adv-x="1403" 
d="M1218 0h-158v639h-715v-639h-158v1358h158v-578h715v578h158v-1358z" />
    <glyph glyph-name="I.alt" horiz-adv-x="633" 
d="M555 0h-477v91l160 33v1108l-160 35v91h477v-91l-159 -35v-1108l159 -33v-91z" />
    <glyph glyph-name="J" unicode="J" horiz-adv-x="508" 
d="M-11 -358q-87 0 -138 26v134q66 -18 138 -18q92 0 139.5 55.5t47.5 160.5v1358h158v-1345q0 -176 -89 -273.5t-256 -97.5z" />
    <glyph glyph-name="K" unicode="K" horiz-adv-x="1167" 
d="M1167 0h-185l-495 658l-142 -126v-532h-158v1358h158v-674l615 674h187l-546 -590z" />
    <glyph glyph-name="L" unicode="L" horiz-adv-x="987" 
d="M187 0v1358h158v-1215h599v-143h-757z" />
    <glyph glyph-name="M" unicode="M" horiz-adv-x="1717" 
d="M788 0l-461 1204h-8q13 -143 13 -340v-864h-145v1358h237l430 -1120h8l434 1120h235v-1358h-157v875q0 150 13 327h-8l-464 -1202h-127z" />
    <glyph glyph-name="N" unicode="N" horiz-adv-x="1434" 
d="M1247 0h-180l-742 1140h-7q14 -201 14 -368v-772h-145v1358h178l740 -1135h8q-2 25 -8.5 161t-4.5 195v779h147v-1358z" />
    <glyph glyph-name="O" unicode="O" horiz-adv-x="1481" 
d="M1365 681q0 -326 -164.5 -513t-458.5 -187q-300 0 -463 183.5t-163 518.5q0 331 163.5 513.5t464.5 182.5q292 0 456.5 -185.5t164.5 -512.5zM283 681q0 -276 117.5 -418.5t341.5 -142.5q226 0 341 142t115 419q0 274 -114.5 415.5t-339.5 141.5q-226 0 -343.5 -142.5
t-117.5 -414.5z" />
    <glyph glyph-name="P" unicode="P" horiz-adv-x="1145" 
d="M1048 962q0 -206 -141 -317t-403 -111h-159v-534h-158v1358h352q509 0 509 -396zM345 670h142q210 0 303.5 67.5t93.5 217.5q0 134 -88 200t-275 66h-176v-551z" />
    <glyph glyph-name="Q" unicode="Q" horiz-adv-x="1481" 
d="M1365 681q0 -261 -105 -434t-296 -234l323 -336h-229l-265 306l-51 -2q-300 0 -463 183.5t-163 518.5q0 331 163.5 513.5t464.5 182.5q292 0 456.5 -185.5t164.5 -512.5zM283 681q0 -276 117.5 -418.5t341.5 -142.5q226 0 341 142t115 419q0 274 -114.5 415.5
t-339.5 141.5q-226 0 -343.5 -142.5t-117.5 -414.5z" />
    <glyph glyph-name="R" unicode="R" horiz-adv-x="1176" 
d="M345 565v-565h-158v1358h372q250 0 369.5 -96t119.5 -288q0 -269 -273 -364l368 -610h-186l-329 565h-283zM345 700h216q167 0 245 66.5t78 199.5q0 135 -79.5 194t-254.5 59h-205v-519z" />
    <glyph glyph-name="S" unicode="S" horiz-adv-x="1044" 
d="M953 361q0 -179 -130 -279.5t-353 -100.5q-242 0 -372 63v152q84 -35 182.5 -55.5t194.5 -20.5q158 0 238 60t80 166q0 71 -28.5 116t-94.5 83t-202 87q-189 67 -270.5 160t-81.5 243q0 157 118 249.5t312 92.5q203 0 372 -74l-49 -137q-168 70 -327 70
q-125 0 -195.5 -54t-70.5 -149q0 -71 26 -116t87.5 -82.5t189.5 -83.5q213 -76 293.5 -163t80.5 -227z" />
    <glyph glyph-name="T" unicode="T" horiz-adv-x="1052" 
d="M605 0h-158v1218h-430v140h1018v-140h-430v-1218z" />
    <glyph glyph-name="U" unicode="U" horiz-adv-x="1385" 
d="M1212 1358v-879q0 -232 -140.5 -365t-385.5 -133t-379 134t-134 368v875h158v-886q0 -170 92.5 -261t273.5 -91q171 0 264 91.5t93 262.5v884h158z" />
    <glyph glyph-name="V" unicode="V" horiz-adv-x="1132" 
d="M962 1358h170l-489 -1358h-156l-487 1358h167l312 -879q54 -151 86 -294q33 150 87 300z" />
    <glyph glyph-name="W" unicode="W" horiz-adv-x="1761" 
d="M1372 0h-156l-274 909q-20 61 -44 152.5t-25 110.5q-20 -123 -65 -268l-266 -904h-156l-361 1358h167l215 -839q44 -176 65 -319q25 170 74 332l243 826h168l255 -833q45 -144 75 -325q18 132 67 321l214 837h167z" />
    <glyph glyph-name="X" unicode="X" horiz-adv-x="1098" 
d="M1090 0h-179l-365 597l-371 -597h-168l452 710l-421 648h175l337 -538l340 538h168l-421 -643z" />
    <glyph glyph-name="Y" unicode="Y" horiz-adv-x="1065" 
d="M532 679l362 679h171l-453 -831v-527h-160v519l-452 839h173z" />
    <glyph glyph-name="Z" unicode="Z" horiz-adv-x="1086" 
d="M1010 0h-934v124l721 1092h-699v142h891v-124l-721 -1091h742v-143z" />
    <glyph glyph-name="bracketleft" unicode="[" horiz-adv-x="626" 
d="M579 -301h-425v1659h425v-131h-269v-1396h269v-132z" />
    <glyph glyph-name="backslash" unicode="\" horiz-adv-x="698" 
d="M173 1358l508 -1358h-154l-506 1358h152z" />
    <glyph glyph-name="bracketright" unicode="]" horiz-adv-x="626" 
d="M47 -169h269v1396h-269v131h425v-1659h-425v132z" />
    <glyph glyph-name="asciicircum" unicode="^" horiz-adv-x="1031" 
d="M46 512l403 856h92l443 -856h-142l-345 692l-310 -692h-141z" />
    <glyph glyph-name="underscore" unicode="_" horiz-adv-x="853" 
d="M856 -293h-860v122h860v-122z" />
    <glyph glyph-name="grave" unicode="`" horiz-adv-x="1098" 
d="M730 1153h-102q-61 48 -143.5 137t-119.5 148v19h189q29 -64 82 -148t94 -133v-23z" />
    <glyph glyph-name="a" unicode="a" 
d="M789 0l-30 145h-8q-76 -96 -151.5 -130t-189.5 -34q-151 0 -237 78t-86 222q0 309 493 324l173 5v63q0 120 -51.5 177t-164.5 57q-127 0 -288 -78l-47 118q75 41 164.5 64.5t179.5 23.5q182 0 270 -81t88 -259v-695h-115zM441 109q144 0 226 79t82 221v92l-154 -7
q-184 -6 -265 -57t-81 -157q0 -84 50.5 -127.5t141.5 -43.5z" />
    <glyph glyph-name="b" unicode="b" horiz-adv-x="1166" 
d="M637 1035q201 0 312 -137t111 -388t-112 -390t-311 -139q-99 0 -181.5 37t-137.5 113h-12l-32 -131h-111v1445h155v-351q0 -118 -8 -212h8q107 153 319 153zM615 905q-158 0 -227.5 -90.5t-69.5 -304.5q0 -215 71.5 -307t229.5 -92q142 0 211.5 103.5t69.5 297.5
q0 198 -69.5 295.5t-215.5 97.5z" />
    <glyph glyph-name="c" unicode="c" horiz-adv-x="905" 
d="M570 -19q-221 0 -342 136.5t-121 384.5q0 256 123 395t350 139q74 0 147.5 -15.5t114.5 -36.5l-47 -131q-51 20 -111.5 33.5t-106.5 13.5q-310 0 -310 -396q0 -187 75.5 -287.5t224.5 -100.5q127 0 260 55v-137q-102 -53 -257 -53z" />
    <glyph glyph-name="d" unicode="d" horiz-adv-x="1166" 
d="M856 137h-8q-107 -156 -320 -156q-199 0 -310 136.5t-111 388.5t111.5 391t309.5 139q208 0 318 -150h12l-6 73l-4 72v414h154v-1445h-125zM548 111q158 0 229 85.5t71 277.5v32q0 217 -72 309t-230 92q-136 0 -207.5 -105t-71.5 -298q0 -195 71.5 -294t209.5 -99z" />
    <glyph glyph-name="e" unicode="e" horiz-adv-x="1067" 
d="M593 -19q-225 0 -355.5 137.5t-130.5 382.5q0 246 121 390.5t326 144.5q191 0 302.5 -125.5t111.5 -331.5v-98h-701q4 -179 90 -272t242 -93q164 0 325 69v-138q-82 -35 -154.5 -50.5t-176.5 -15.5zM552 907q-123 0 -196 -79.5t-86 -221.5h532q0 146 -65 223.5t-185 77.5
z" />
    <glyph glyph-name="f" unicode="f" horiz-adv-x="645" 
d="M622 898h-259v-898h-154v898h-182v70l182 55v57q0 375 328 375q81 0 189 -32l-40 -124q-89 29 -152 29q-87 0 -129 -58t-42 -186v-66h259v-120z" />
    <glyph glyph-name="g" unicode="g" horiz-adv-x="1042" 
d="M997 1018v-98l-189 -22q26 -32 46.5 -84.5t20.5 -118.5q0 -150 -102 -239t-281 -89q-45 0 -85 7q-99 -52 -99 -131q0 -41 34.5 -61t118.5 -20h180q165 0 254 -70t89 -203q0 -169 -136 -257.5t-396 -88.5q-199 0 -307.5 74.5t-108.5 209.5q0 93 59.5 161t167.5 92
q-39 18 -65.5 55t-26.5 86q0 56 29.5 97.5t93.5 80.5q-79 33 -128.5 111t-49.5 178q0 167 100.5 257.5t284.5 90.5q79 0 144 -18h352zM185 -171q0 -83 69.5 -125.5t199.5 -42.5q194 0 287.5 58t93.5 157q0 83 -51 115t-192 32h-185q-105 0 -163.5 -50t-58.5 -144zM268 692
q0 -107 60.5 -162t168.5 -55q226 0 226 220q0 229 -229 229q-109 0 -167.5 -58.5t-58.5 -173.5z" />
    <glyph glyph-name="h" unicode="h" horiz-adv-x="1167" 
d="M860 0v658q0 125 -56.5 186t-177.5 61q-161 0 -234.5 -87t-73.5 -286v-532h-155v1445h155v-437q0 -79 -8 -131h9q46 73 130 115.5t192 42.5q186 0 279.5 -89t93.5 -282v-664h-154z" />
    <glyph glyph-name="i" unicode="i" horiz-adv-x="481" 
d="M318 0h-155v1018h155v-1018zM150 1294q0 53 26 77.5t65 24.5q38 0 64.5 -25t26.5 -77t-26.5 -77.5t-64.5 -25.5q-39 0 -65 25.5t-26 77.5z" />
    <glyph glyph-name="j" unicode="j" horiz-adv-x="481" 
d="M40 -457q-88 0 -143 23v126q64 -19 126 -19q73 0 106.5 39.5t33.5 120.5v1185h155v-1174q0 -301 -278 -301zM150 1294q0 53 26 77.5t65 24.5q38 0 64.5 -25t26.5 -77t-26.5 -77.5t-64.5 -25.5q-39 0 -65 25.5t-26 77.5z" />
    <glyph glyph-name="k" unicode="k" horiz-adv-x="998" 
d="M316 521q40 57 121 149l329 348h183l-412 -434l441 -584h-187l-359 481l-116 -100v-381h-153v1445h153v-766q0 -51 -8 -158h8z" />
    <glyph glyph-name="l" unicode="l" horiz-adv-x="481" 
d="M318 0h-155v1445h155v-1445z" />
    <glyph glyph-name="m" unicode="m" horiz-adv-x="1769" 
d="M1461 0v662q0 122 -52 182.5t-162 60.5q-144 0 -212.5 -82.5t-68.5 -254.5v-568h-154v662q0 122 -52 182.5t-163 60.5q-145 0 -212 -86.5t-67 -284.5v-534h-155v1018h126l25 -139h7q44 74 123.5 115.5t177.5 41.5q239 0 312 -172h8q45 80 131.5 126t196.5 46
q173 0 259 -88.5t86 -283.5v-664h-154z" />
    <glyph glyph-name="n" unicode="n" horiz-adv-x="1167" 
d="M860 0v658q0 125 -56.5 186t-177.5 61q-160 0 -234 -86t-74 -285v-534h-155v1018h126l25 -139h7q48 75 133.5 116t190.5 41q183 0 276 -88.5t93 -283.5v-664h-154z" />
    <glyph glyph-name="o" unicode="o" horiz-adv-x="1149" 
d="M1042 510q0 -249 -125.5 -389t-346.5 -140q-136 0 -242 64.5t-163.5 184t-57.5 280.5q0 249 124.5 387.5t345.5 138.5q213 0 339 -142t126 -384zM267 510q0 -195 78 -297t229 -102t229.5 101.5t78.5 297.5q0 194 -78.5 294.5t-231.5 100.5q-151 0 -228 -99t-77 -296z" />
    <glyph glyph-name="p" unicode="p" horiz-adv-x="1166" 
d="M637 -19q-99 0 -181.5 37t-137.5 113h-12q12 -89 12 -169v-419h-155v1475h126l21 -139h8q59 83 138 120t181 37q203 0 313 -138t110 -388q0 -251 -112 -390t-311 -139zM615 905q-156 0 -226 -86t-71 -275v-34q0 -215 71.5 -307t229.5 -92q131 0 206 106.5t75 294.5
q0 190 -75 291.5t-210 101.5z" />
    <glyph glyph-name="q" unicode="q" horiz-adv-x="1166" 
d="M548 111q154 0 224.5 82.5t75.5 278.5v34q0 214 -72.5 307.5t-229.5 93.5q-136 0 -207.5 -105t-71.5 -298q0 -192 71 -292.5t210 -100.5zM525 -19q-197 0 -307.5 138.5t-110.5 386.5q0 250 111.5 390t309.5 140q209 0 322 -157h8l22 139h122v-1475h-154v436q0 93 10 158
h-12q-107 -156 -321 -156z" />
    <glyph glyph-name="r" unicode="r" horiz-adv-x="776" 
d="M628 1036q68 0 121 -11l-21 -143q-63 14 -111 14q-124 0 -211.5 -100t-87.5 -250v-546h-155v1018h128l17 -189h8q56 100 136 153.5t176 53.5z" />
    <glyph glyph-name="s" unicode="s" horiz-adv-x="907" 
d="M820 278q0 -142 -106 -219.5t-297 -77.5q-202 0 -316 65v143q74 -38 158 -59t162 -21q120 0 185 38.5t65 117.5q0 59 -51.5 101.5t-200.5 99.5q-142 53 -202 92.5t-89.5 89.5t-29.5 120q0 124 101.5 196t277.5 72q165 0 322 -66l-55 -126q-153 63 -278 63
q-109 0 -165 -34t-56 -95q0 -41 21 -69.5t67.5 -54.5t178.5 -75q181 -66 244.5 -133t63.5 -168z" />
    <glyph glyph-name="t" unicode="t" horiz-adv-x="671" 
d="M492 109q41 0 79 6t61 12v-118q-26 -12 -74.5 -20t-87.5 -8q-295 0 -295 312v605h-146v74l146 64l65 218h89v-236h295v-120h-295v-599q0 -92 43.5 -141t119.5 -49z" />
    <glyph glyph-name="u" unicode="u" horiz-adv-x="1167" 
d="M308 1018v-660q0 -125 57 -186t177 -61q160 0 234 87t74 285v535h154v-1018h-127l-23 137h-8q-47 -76 -131 -116t-192 -40q-186 0 -278.5 88.5t-92.5 282.5v666h156z" />
    <glyph glyph-name="v" unicode="v" horiz-adv-x="953" 
d="M386 0l-386 1018h165l219 -604q75 -212 88 -275h7q10 50 64.5 204.5t244.5 674.5h165l-386 -1018h-181z" />
    <glyph glyph-name="w" unicode="w" horiz-adv-x="1479" 
d="M995 0l-187 597q-18 55 -66 249h-7q-38 -162 -65 -251l-193 -595h-178l-278 1018h162q98 -384 149.5 -584.5t59.5 -270.5h7q11 53 33.5 137t39.5 134l186 584h168l182 -584q52 -160 70 -269h8q3 34 19.5 103.5t193.5 749.5h160l-281 -1018h-183z" />
    <glyph glyph-name="x" unicode="x" horiz-adv-x="997" 
d="M409 521l-354 497h175l269 -390l267 390h174l-354 -497l372 -521h-174l-285 412l-288 -412h-175z" />
    <glyph glyph-name="y" unicode="y" horiz-adv-x="958" 
d="M2 1018h165l223 -581q73 -198 91 -287h8q12 48 50.5 162.5t251.5 705.5h166l-438 -1159q-65 -172 -152 -244t-213 -72q-70 0 -139 16v123q51 -11 114 -11q159 0 227 179l56 144z" />
    <glyph glyph-name="z" unicode="z" horiz-adv-x="890" 
d="M814 0h-738v105l556 793h-521v120h690v-120l-548 -778h561v-120z" />
    <glyph glyph-name="braceleft" unicode="{" horiz-adv-x="721" 
d="M441 11q0 -95 54.5 -137.5t159.5 -44.5v-130q-177 2 -273.5 81t-96.5 222v281q0 97 -58.5 138t-169.5 41v131q120 2 174 45t54 132v284q0 144 100.5 224t269.5 80v-129q-214 -6 -214 -185v-274q0 -200 -207 -236v-11q207 -36 207 -236v-276z" />
    <glyph glyph-name="bar" unicode="|" horiz-adv-x="1048" 
d="M459 1445h131v-1906h-131v1906z" />
    <glyph glyph-name="braceright" unicode="}" horiz-adv-x="721" 
d="M485 534q-207 36 -207 236v274q0 179 -211 185v129q171 0 269 -81t98 -223v-284q0 -90 54.5 -132.5t175.5 -44.5v-131q-113 0 -171.5 -41t-58.5 -138v-281q0 -142 -95.5 -221.5t-271.5 -81.5v130q103 2 157 44.5t54 137.5v276q0 106 51 161.5t156 74.5v11z" />
    <glyph glyph-name="asciitilde" unicode="~" horiz-adv-x="1088" 
d="M314 662q-49 0 -108 -31t-109 -81v140q92 101 226 101q63 0 115.5 -13t135.5 -48q61 -26 106.5 -38.5t89.5 -12.5q50 0 109.5 29.5t109.5 82.5v-139q-95 -102 -227 -102q-66 0 -124.5 15t-125.5 45q-70 30 -112 41t-86 11z" />
    <glyph glyph-name="nonbreakingspace" unicode="&#xa0;" horiz-adv-x="494" 
 />
    <glyph glyph-name="exclamdown" unicode="&#xa1;" horiz-adv-x="508" 
d="M203 635h98l47 -981h-192zM365 913q0 -125 -112 -125q-56 0 -84 32.5t-28 92.5q0 58 29.5 91.5t82.5 33.5q47 0 79.5 -29.5t32.5 -95.5z" />
    <glyph glyph-name="cent" unicode="&#xa2;" horiz-adv-x="1088" 
d="M902 223q-98 -50 -234 -56v-186h-124v192q-188 29 -278 156t-90 359q0 472 368 530v159h126v-152q69 -3 135 -18t112 -37l-46 -130q-123 48 -225 48q-159 0 -234.5 -98t-75.5 -300q0 -197 74 -291t229 -94q131 0 263 54v-136z" />
    <glyph glyph-name="sterling" unicode="&#xa3;" horiz-adv-x="1088" 
d="M633 1375q177 0 335 -78l-57 -123q-143 71 -276 71q-114 0 -172 -57.5t-58 -187.5v-274h392v-118h-392v-205q0 -93 -30 -156t-99 -104h738v-143h-955v131q190 44 190 270v207h-184v118h184v294q0 165 104 260t280 95z" />
    <glyph glyph-name="currency" unicode="&#xa4;" horiz-adv-x="1088" 
d="M171 671q0 114 69 213l-126 130l88 86l125 -124q96 68 217 68q118 0 213 -68l127 124l88 -86l-124 -128q69 -105 69 -215q0 -121 -69 -217l122 -125l-86 -86l-127 124q-95 -66 -213 -66q-124 0 -217 68l-125 -124l-86 86l124 126q-69 99 -69 214zM291 671
q0 -104 72.5 -178t180.5 -74t181.5 74t73.5 178q0 106 -74.5 181.5t-180.5 75.5q-108 0 -180.5 -76.5t-72.5 -180.5z" />
    <glyph glyph-name="yen" unicode="&#xa5;" horiz-adv-x="1088" 
d="M542 683l352 675h162l-386 -715h243v-118h-294v-158h294v-118h-294v-249h-153v249h-293v118h293v158h-293v118h237l-381 715h165z" />
    <glyph glyph-name="brokenbar" unicode="&#xa6;" horiz-adv-x="1048" 
d="M459 1445h131v-721h-131v721zM459 261h131v-722h-131v722z" />
    <glyph glyph-name="section" unicode="&#xa7;" horiz-adv-x="982" 
d="M129 751q0 80 40 143.5t112 98.5q-68 37 -107 88.5t-39 130.5q0 112 96 176.5t279 64.5q87 0 161 -13.5t164 -49.5l-49 -121q-91 36 -154 48.5t-133 12.5q-108 0 -162 -27.5t-54 -86.5q0 -56 57 -95t201 -90q172 -63 242 -133.5t70 -169.5q0 -83 -38.5 -148.5
t-106.5 -104.5q142 -75 142 -210q0 -130 -109 -201t-305 -71q-203 0 -322 60v137q73 -34 163 -55t166 -21q124 0 189.5 35.5t65.5 101.5q0 42 -22 69t-72 54t-157 67q-132 48 -194.5 90t-93 95t-30.5 125zM265 770q0 -72 61 -120.5t216 -105.5l46 -17q127 74 127 177
q0 77 -68 129t-240 105q-63 -18 -102.5 -64.5t-39.5 -103.5z" />
    <glyph glyph-name="dieresis" unicode="&#xa8;" horiz-adv-x="1098" 
d="M287 1294q0 48 24.5 69.5t59.5 21.5t60.5 -21.5t25.5 -69.5q0 -47 -25.5 -69.5t-60.5 -22.5t-59.5 22.5t-24.5 69.5zM641 1294q0 48 24.5 69.5t58.5 21.5q35 0 60.5 -21.5t25.5 -69.5q0 -47 -25.5 -69.5t-60.5 -22.5q-34 0 -58.5 22.5t-24.5 69.5z" />
    <glyph glyph-name="copyright" unicode="&#xa9;" horiz-adv-x="1583" 
d="M829 984q-116 0 -178.5 -81t-62.5 -224q0 -156 59 -231.5t180 -75.5q80 0 196 42v-115q-44 -19 -91 -32t-112 -13q-180 0 -276.5 112t-96.5 313q0 194 102.5 308t279.5 114q119 0 229 -55l-54 -110q-100 48 -175 48zM93 679q0 186 93 348.5t255.5 256t349.5 93.5
q186 0 348.5 -92.5t256.5 -255.5t94 -350q0 -183 -90.5 -343.5t-253 -257.5t-355.5 -97q-192 0 -354.5 96.5t-253 257t-90.5 344.5zM190 679q0 -161 81 -300.5t221 -220t299 -80.5q162 0 300.5 81t219.5 218.5t81 301.5q0 161 -80.5 299.5t-218.5 220t-302 81.5
q-161 0 -299.5 -81t-220 -219t-81.5 -301z" />
    <glyph glyph-name="ordfeminine" unicode="&#xaa;" horiz-adv-x="673" 
d="M494 744l-22 78q-86 -90 -216 -90q-88 0 -139.5 46t-51.5 140q0 95 71.5 144t224.5 54l109 4v36q0 124 -138 124q-92 0 -189 -48l-40 90q106 52 229 52q121 0 184.5 -49t63.5 -161v-420h-86zM179 918q0 -92 104 -92q187 0 187 167v45l-91 -3q-104 -4 -152 -30.5
t-48 -86.5z" />
    <glyph glyph-name="guillemotleft" unicode="&#xab;" horiz-adv-x="945" 
d="M76 512l318 378l110 -64l-268 -325l268 -326l-110 -66l-318 378v25zM443 512l319 378l109 -64l-266 -325l266 -326l-109 -66l-319 378v25z" />
    <glyph glyph-name="logicalnot" unicode="&#xac;" horiz-adv-x="1088" 
d="M989 735v-490h-127v361h-765v129h892z" />
    <glyph glyph-name="uni00AD" unicode="&#xad;" horiz-adv-x="612" 
d="M78 439v141h456v-141h-456z" />
    <glyph glyph-name="registered" unicode="&#xae;" horiz-adv-x="1583" 
d="M671 708h101q74 0 119 38.5t45 97.5q0 70 -40 100t-126 30h-99v-266zM1075 848q0 -74 -39.5 -131.5t-111.5 -84.5l221 -367h-156l-192 328h-126v-328h-137v827h242q155 0 227 -60.5t72 -183.5zM93 679q0 186 93 348.5t255.5 256t349.5 93.5q186 0 348.5 -92.5
t256.5 -255.5t94 -350q0 -183 -90.5 -343.5t-253 -257.5t-355.5 -97q-192 0 -354.5 96.5t-253 257t-90.5 344.5zM190 679q0 -161 81 -300.5t221 -220t299 -80.5q162 0 300.5 81t219.5 218.5t81 301.5q0 161 -80.5 299.5t-218.5 220t-302 81.5q-161 0 -299.5 -81t-220 -219
t-81.5 -301z" />
    <glyph glyph-name="macron" unicode="&#xaf;" horiz-adv-x="951" 
d="M957 1445h-963v118h963v-118z" />
    <glyph glyph-name="degree" unicode="&#xb0;" horiz-adv-x="814" 
d="M118 1088q0 120 84 204.5t205 84.5t205.5 -84t84.5 -205q0 -78 -38.5 -144.5t-106 -105.5t-145.5 -39q-121 0 -205 83.5t-84 205.5zM225 1088q0 -77 54 -130t130 -53q74 0 127.5 52.5t53.5 130.5t-52.5 130t-128.5 52q-77 0 -130.5 -52.5t-53.5 -129.5z" />
    <glyph glyph-name="plusminus" unicode="&#xb1;" horiz-adv-x="1088" 
d="M606 735h383v-129h-383v-395h-129v395h-380v129h380v397h129v-397zM97 0v129h892v-129h-892z" />
    <glyph glyph-name="twosuperior" unicode="&#xb2;" horiz-adv-x="660" 
d="M606 544h-560v97l219 213q82 80 120 125t53.5 80.5t15.5 85.5q0 63 -37 95t-96 32q-48 0 -93.5 -17.5t-109.5 -63.5l-61 81q121 103 262 103q123 0 191.5 -60t68.5 -164q0 -75 -41.5 -145t-178.5 -198l-161 -153h408v-111z" />
    <glyph glyph-name="threesuperior" unicode="&#xb3;" horiz-adv-x="660" 
d="M582 1166q0 -75 -38 -122.5t-101 -69.5q163 -43 163 -194q0 -119 -85 -185.5t-241 -66.5q-142 0 -249 52v115q136 -63 250 -63q196 0 196 150q0 135 -214 135h-109v99h111q95 0 141 36.5t46 100.5q0 56 -37 87.5t-99 31.5t-114 -20t-104 -52l-64 83q59 42 124 67t152 25
q126 0 199 -55t73 -154z" />
    <glyph glyph-name="acute" unicode="&#xb4;" horiz-adv-x="1098" 
d="M365 1176q45 57 96.5 139t80.5 142h188v-19q-41 -61 -121.5 -149t-140.5 -136h-103v23z" />
    <glyph glyph-name="mu" unicode="&#xb5;" horiz-adv-x="1178" 
d="M318 354q0 -243 236 -243q158 0 232 87.5t74 284.5v535h154v-1018h-126l-24 137h-10q-103 -156 -315 -156q-140 0 -221 86h-10q10 -78 10 -227v-297h-155v1475h155v-664z" />
    <glyph glyph-name="paragraph" unicode="&#xb6;" horiz-adv-x="1245" 
d="M1040 -241h-106v1589h-198v-1589h-106v760q-58 -17 -136 -17q-201 0 -295 116.5t-94 349.5q0 241 101 359t317 118h517v-1686z" />
    <glyph glyph-name="periodcentered" unicode="&#xb7;" horiz-adv-x="506" 
d="M141 671q0 62 29 94t81 32q54 0 84 -32t30 -94q0 -60 -30.5 -92.5t-83.5 -32.5q-48 0 -79 29.5t-31 95.5z" />
    <glyph glyph-name="cedilla" unicode="&#xb8;" horiz-adv-x="432" 
d="M405 -268q0 -90 -71 -139.5t-210 -49.5q-48 0 -90 8v99q42 -8 97 -8q73 0 111 19t38 69q0 40 -37 64.5t-138 40.5l82 165h102l-51 -107q167 -36 167 -161z" />
    <glyph glyph-name="onesuperior" unicode="&#xb9;" horiz-adv-x="660" 
d="M314 1358h133v-814h-124v538q0 84 6 168q-21 -20 -46 -41t-150 -109l-62 89z" />
    <glyph glyph-name="ordmasculine" unicode="&#xba;" horiz-adv-x="713" 
d="M652 1054q0 -152 -79.5 -237t-218.5 -85q-136 0 -214.5 86.5t-78.5 235.5q0 151 78 235.5t219 84.5t217.5 -84.5t76.5 -235.5zM175 1054q0 -113 42 -170t139 -57t140 57t43 170q0 114 -43 169t-140 55q-96 0 -138.5 -55t-42.5 -169z" />
    <glyph glyph-name="guillemotright" unicode="&#xbb;" horiz-adv-x="945" 
d="M869 487l-319 -378l-109 66l267 326l-267 325l109 64l319 -378v-25zM502 487l-319 -378l-109 66l267 326l-267 325l109 64l319 -378v-25z" />
    <glyph glyph-name="onequarter" unicode="&#xbc;" horiz-adv-x="1483" 
d="M1205 1358l-838 -1358h-133l838 1358h133zM313 1358h133v-814h-124v538q0 84 6 168q-21 -20 -46 -41t-150 -109l-62 89zM1383 189h-116v-188h-135v188h-373v94l378 537h130v-523h116v-108zM1132 297v182q0 124 5 194q-4 -11 -15 -29.5t-25 -39t-28 -41.5t-24 -37
l-156 -229h243z" />
    <glyph glyph-name="onehalf" unicode="&#xbd;" horiz-adv-x="1483" 
d="M1142 1358l-838 -1358h-133l838 1358h133zM286 1358h133v-814h-124v538q0 84 6 168q-21 -20 -46 -41t-150 -109l-62 89zM1392 1h-560v97l219 213q82 80 120 125t53.5 80.5t15.5 85.5q0 63 -37 95t-96 32q-48 0 -93.5 -17.5t-109.5 -63.5l-61 81q121 103 262 103
q123 0 191.5 -60t68.5 -164q0 -75 -41.5 -145t-178.5 -198l-161 -153h408v-111z" />
    <glyph glyph-name="threequarters" unicode="&#xbe;" horiz-adv-x="1483" 
d="M575 1166q0 -75 -38 -122.5t-101 -69.5q163 -43 163 -194q0 -119 -85 -185.5t-241 -66.5q-142 0 -249 52v115q136 -63 250 -63q196 0 196 150q0 135 -214 135h-109v99h111q95 0 141 36.5t46 100.5q0 56 -37 87.5t-99 31.5t-114 -20t-104 -52l-64 83q59 42 124 67t152 25
q126 0 199 -55t73 -154zM1291 1358l-838 -1358h-133l838 1358h133zM1457 189h-116v-188h-135v188h-373v94l378 537h130v-523h116v-108zM1206 297v182q0 124 5 194q-4 -11 -15 -29.5t-25 -39t-28 -41.5t-24 -37l-156 -229h243z" />
    <glyph glyph-name="questiondown" unicode="&#xbf;" horiz-adv-x="816" 
d="M548 635v-47q0 -113 -35 -182t-125 -147q-112 -98 -140.5 -133t-40 -70.5t-11.5 -88.5q0 -92 61.5 -144.5t174.5 -52.5q74 0 143.5 17.5t160.5 62.5l55 -126q-183 -89 -367 -89q-176 0 -276.5 86.5t-100.5 244.5q0 65 16.5 113.5t46 90t71 79.5t91.5 82q94 81 124 135
t30 140v29h122zM593 913q0 -125 -112 -125q-55 0 -83.5 32t-28.5 93q0 59 30.5 92t81.5 33q47 0 79.5 -29.5t32.5 -95.5z" />
    <glyph glyph-name="Agrave" unicode="&#xc0;" horiz-adv-x="1204" 
d="M1040 0l-169 432h-544l-167 -432h-160l537 1363h133l534 -1363h-164zM822 574l-158 421q-31 80 -63 196q-21 -90 -59 -196l-159 -421h439zM672 1467h-102q-61 48 -143.5 137t-119.5 148v19h189q29 -64 82 -148t94 -133v-23z" />
    <glyph glyph-name="Aacute" unicode="&#xc1;" horiz-adv-x="1204" 
d="M1040 0l-169 432h-544l-167 -432h-160l537 1363h133l534 -1363h-164zM822 574l-158 421q-31 80 -63 196q-21 -90 -59 -196l-159 -421h439zM489 1490q45 57 96.5 139t80.5 142h188v-19q-41 -61 -121.5 -149t-140.5 -136h-103v23z" />
    <glyph glyph-name="Acircumflex" unicode="&#xc2;" horiz-adv-x="1204" 
d="M1040 0l-169 432h-544l-167 -432h-160l537 1363h133l534 -1363h-164zM822 574l-158 421q-31 80 -63 196q-21 -90 -59 -196l-159 -421h439zM282 1488q118 126 165.5 185.5t68.5 97.5h154q21 -39 71.5 -100.5t166.5 -182.5v-21h-111q-81 51 -205 172q-126 -124 -203 -172
h-107v21z" />
    <glyph glyph-name="Atilde" unicode="&#xc3;" horiz-adv-x="1204" 
d="M1040 0l-169 432h-544l-167 -432h-160l537 1363h133l534 -1363h-164zM822 574l-158 421q-31 80 -63 196q-21 -90 -59 -196l-159 -421h439zM736 1468q-40 0 -78 17.5t-75 38.5t-70.5 38t-65.5 17q-46 0 -70 -28t-37 -84h-91q12 112 65.5 175.5t138.5 63.5q42 0 82 -17
t76.5 -38t69.5 -38t63 -17q46 0 68 27t36 85h92q-12 -112 -64.5 -176t-139.5 -64z" />
    <glyph glyph-name="Adieresis" unicode="&#xc4;" horiz-adv-x="1204" 
d="M1040 0l-169 432h-544l-167 -432h-160l537 1363h133l534 -1363h-164zM822 574l-158 421q-31 80 -63 196q-21 -90 -59 -196l-159 -421h439zM338 1608q0 48 24.5 69.5t59.5 21.5t60.5 -21.5t25.5 -69.5q0 -47 -25.5 -69.5t-60.5 -22.5t-59.5 22.5t-24.5 69.5zM692 1608
q0 48 24.5 69.5t58.5 21.5q35 0 60.5 -21.5t25.5 -69.5q0 -47 -25.5 -69.5t-60.5 -22.5q-34 0 -58.5 22.5t-24.5 69.5z" />
    <glyph glyph-name="Aring" unicode="&#xc5;" horiz-adv-x="1204" 
d="M1040 0l-169 432h-544l-167 -432h-160l537 1363h133l534 -1363h-164zM822 574l-158 421q-31 80 -63 196q-21 -90 -59 -196l-159 -421h439zM808 1474q0 -91 -57 -146t-152 -55q-94 0 -149.5 54t-55.5 145t56 144.5t149 53.5q94 0 151.5 -55t57.5 -141zM708 1472
q0 52 -31 80.5t-78 28.5t-78 -28.5t-31 -80.5t28 -80t81 -28q48 0 78.5 28t30.5 80z" />
    <glyph glyph-name="AE" unicode="&#xc6;" horiz-adv-x="1661" 
d="M1546 0h-696v432h-478l-210 -432h-164l648 1358h900v-140h-538v-438h502v-139h-502v-500h538v-141zM436 574h414v644h-110z" />
    <glyph glyph-name="Ccedilla" unicode="&#xc7;" horiz-adv-x="1200" 
d="M768 1236q-224 0 -353.5 -149t-129.5 -408q0 -267 125 -412t356 -145q142 0 324 51v-139q-141 -53 -348 -53q-300 0 -463 182t-163 518q0 210 78.5 367.5t226.5 243t349 85.5q214 0 373 -78l-67 -135q-154 72 -308 72zM882 -268q0 -90 -71 -139.5t-210 -49.5q-48 0 -90 8
v99q42 -8 97 -8q73 0 111 19t38 69q0 40 -37 64.5t-138 40.5l82 165h102l-51 -107q167 -36 167 -161z" />
    <glyph glyph-name="Egrave" unicode="&#xc8;" 
d="M944 0h-757v1358h757v-140h-599v-438h562v-139h-562v-500h599v-141zM662 1467h-102q-61 48 -143.5 137t-119.5 148v19h189q29 -64 82 -148t94 -133v-23z" />
    <glyph glyph-name="Eacute" unicode="&#xc9;" 
d="M944 0h-757v1358h757v-140h-599v-438h562v-139h-562v-500h599v-141zM424 1490q45 57 96.5 139t80.5 142h188v-19q-41 -61 -121.5 -149t-140.5 -136h-103v23z" />
    <glyph glyph-name="Ecircumflex" unicode="&#xca;" 
d="M944 0h-757v1358h757v-140h-599v-438h562v-139h-562v-500h599v-141zM244 1488q118 126 165.5 185.5t68.5 97.5h154q21 -39 71.5 -100.5t166.5 -182.5v-21h-111q-81 51 -205 172q-126 -124 -203 -172h-107v21z" />
    <glyph glyph-name="Edieresis" unicode="&#xcb;" 
d="M944 0h-757v1358h757v-140h-599v-438h562v-139h-562v-500h599v-141zM304 1608q0 48 24.5 69.5t59.5 21.5t60.5 -21.5t25.5 -69.5q0 -47 -25.5 -69.5t-60.5 -22.5t-59.5 22.5t-24.5 69.5zM658 1608q0 48 24.5 69.5t58.5 21.5q35 0 60.5 -21.5t25.5 -69.5
q0 -47 -25.5 -69.5t-60.5 -22.5q-34 0 -58.5 22.5t-24.5 69.5z" />
    <glyph glyph-name="Igrave.alt" horiz-adv-x="633" 
d="M555 0h-477v91l160 33v1108l-160 35v91h477v-91l-159 -35v-1108l159 -33v-91zM421 1467h-102q-61 48 -143.5 137t-119.5 148v19h189q29 -64 82 -148t94 -133v-23z" />
    <glyph glyph-name="Iacute.alt" horiz-adv-x="633" 
d="M555 0h-477v91l160 33v1108l-160 35v91h477v-91l-159 -35v-1108l159 -33v-91zM217 1490q45 57 96.5 139t80.5 142h188v-19q-41 -61 -121.5 -149t-140.5 -136h-103v23z" />
    <glyph glyph-name="Icircumflex.alt" horiz-adv-x="633" 
d="M555 0h-477v91l160 33v1108l-160 35v91h477v-91l-159 -35v-1108l159 -33v-91zM-1 1488q118 126 165.5 185.5t68.5 97.5h154q21 -39 71.5 -100.5t166.5 -182.5v-21h-111q-81 51 -205 172q-126 -124 -203 -172h-107v21z" />
    <glyph glyph-name="Idieresis.alt" horiz-adv-x="633" 
d="M555 0h-477v91l160 33v1108l-160 35v91h477v-91l-159 -35v-1108l159 -33v-91zM56 1608q0 48 24.5 69.5t59.5 21.5t60.5 -21.5t25.5 -69.5q0 -47 -25.5 -69.5t-60.5 -22.5t-59.5 22.5t-24.5 69.5zM410 1608q0 48 24.5 69.5t58.5 21.5q35 0 60.5 -21.5t25.5 -69.5
q0 -47 -25.5 -69.5t-60.5 -22.5q-34 0 -58.5 22.5t-24.5 69.5z" />
    <glyph glyph-name="Eth" unicode="&#xd0;" horiz-adv-x="1374" 
d="M1256 692q0 -336 -182.5 -514t-525.5 -178h-361v603h-143v139h143v616h403q313 0 489.5 -174t176.5 -492zM1088 686q0 535 -529 535h-214v-479h352v-139h-352v-466h176q567 0 567 549z" />
    <glyph glyph-name="Ntilde" unicode="&#xd1;" horiz-adv-x="1434" 
d="M1247 0h-180l-742 1140h-7q14 -201 14 -368v-772h-145v1358h178l740 -1135h8q-2 25 -8.5 161t-4.5 195v779h147v-1358zM869 1468q-40 0 -78 17.5t-75 38.5t-70.5 38t-65.5 17q-46 0 -70 -28t-37 -84h-91q12 112 65.5 175.5t138.5 63.5q42 0 82 -17t76.5 -38t69.5 -38
t63 -17q46 0 68 27t36 85h92q-12 -112 -64.5 -176t-139.5 -64z" />
    <glyph glyph-name="Ograve" unicode="&#xd2;" horiz-adv-x="1481" 
d="M1365 681q0 -326 -164.5 -513t-458.5 -187q-300 0 -463 183.5t-163 518.5q0 331 163.5 513.5t464.5 182.5q292 0 456.5 -185.5t164.5 -512.5zM283 681q0 -276 117.5 -418.5t341.5 -142.5q226 0 341 142t115 419q0 274 -114.5 415.5t-339.5 141.5q-226 0 -343.5 -142.5
t-117.5 -414.5zM842 1467h-102q-61 48 -143.5 137t-119.5 148v19h189q29 -64 82 -148t94 -133v-23z" />
    <glyph glyph-name="Oacute" unicode="&#xd3;" horiz-adv-x="1481" 
d="M1365 681q0 -326 -164.5 -513t-458.5 -187q-300 0 -463 183.5t-163 518.5q0 331 163.5 513.5t464.5 182.5q292 0 456.5 -185.5t164.5 -512.5zM283 681q0 -276 117.5 -418.5t341.5 -142.5q226 0 341 142t115 419q0 274 -114.5 415.5t-339.5 141.5q-226 0 -343.5 -142.5
t-117.5 -414.5zM612 1490q45 57 96.5 139t80.5 142h188v-19q-41 -61 -121.5 -149t-140.5 -136h-103v23z" />
    <glyph glyph-name="Ocircumflex" unicode="&#xd4;" horiz-adv-x="1481" 
d="M1365 681q0 -326 -164.5 -513t-458.5 -187q-300 0 -463 183.5t-163 518.5q0 331 163.5 513.5t464.5 182.5q292 0 456.5 -185.5t164.5 -512.5zM283 681q0 -276 117.5 -418.5t341.5 -142.5q226 0 341 142t115 419q0 274 -114.5 415.5t-339.5 141.5q-226 0 -343.5 -142.5
t-117.5 -414.5zM416 1488q118 126 165.5 185.5t68.5 97.5h154q21 -39 71.5 -100.5t166.5 -182.5v-21h-111q-81 51 -205 172q-126 -124 -203 -172h-107v21z" />
    <glyph glyph-name="Otilde" unicode="&#xd5;" horiz-adv-x="1481" 
d="M1365 681q0 -326 -164.5 -513t-458.5 -187q-300 0 -463 183.5t-163 518.5q0 331 163.5 513.5t464.5 182.5q292 0 456.5 -185.5t164.5 -512.5zM283 681q0 -276 117.5 -418.5t341.5 -142.5q226 0 341 142t115 419q0 274 -114.5 415.5t-339.5 141.5q-226 0 -343.5 -142.5
t-117.5 -414.5zM875 1468q-40 0 -78 17.5t-75 38.5t-70.5 38t-65.5 17q-46 0 -70 -28t-37 -84h-91q12 112 65.5 175.5t138.5 63.5q42 0 82 -17t76.5 -38t69.5 -38t63 -17q46 0 68 27t36 85h92q-12 -112 -64.5 -176t-139.5 -64z" />
    <glyph glyph-name="Odieresis" unicode="&#xd6;" horiz-adv-x="1481" 
d="M1365 681q0 -326 -164.5 -513t-458.5 -187q-300 0 -463 183.5t-163 518.5q0 331 163.5 513.5t464.5 182.5q292 0 456.5 -185.5t164.5 -512.5zM283 681q0 -276 117.5 -418.5t341.5 -142.5q226 0 341 142t115 419q0 274 -114.5 415.5t-339.5 141.5q-226 0 -343.5 -142.5
t-117.5 -414.5zM485 1608q0 48 24.5 69.5t59.5 21.5t60.5 -21.5t25.5 -69.5q0 -47 -25.5 -69.5t-60.5 -22.5t-59.5 22.5t-24.5 69.5zM839 1608q0 48 24.5 69.5t58.5 21.5q35 0 60.5 -21.5t25.5 -69.5q0 -47 -25.5 -69.5t-60.5 -22.5q-34 0 -58.5 22.5t-24.5 69.5z" />
    <glyph glyph-name="multiply" unicode="&#xd7;" horiz-adv-x="1088" 
d="M873 1092l89 -92l-327 -329l325 -326l-89 -92l-329 326l-323 -326l-94 92l325 326l-326 327l92 94l328 -330z" />
    <glyph glyph-name="Oslash" unicode="&#xd8;" horiz-adv-x="1481" 
d="M1365 681q0 -326 -164.5 -513t-458.5 -187q-218 0 -356 93l-93 -131l-112 74l100 143q-165 184 -165 523q0 331 163.5 513.5t464.5 182.5q194 0 340 -87l90 125l111 -74l-98 -138q178 -187 178 -524zM1198 681q0 252 -102 395l-624 -880q107 -76 270 -76q226 0 341 142
t115 419zM283 681q0 -244 94 -387l621 876q-98 68 -254 68q-226 0 -343.5 -142.5t-117.5 -414.5z" />
    <glyph glyph-name="Ugrave" unicode="&#xd9;" horiz-adv-x="1385" 
d="M1212 1358v-879q0 -232 -140.5 -365t-385.5 -133t-379 134t-134 368v875h158v-886q0 -170 92.5 -261t273.5 -91q171 0 264 91.5t93 262.5v884h158zM795 1467h-102q-61 48 -143.5 137t-119.5 148v19h189q29 -64 82 -148t94 -133v-23z" />
    <glyph glyph-name="Uacute" unicode="&#xda;" horiz-adv-x="1385" 
d="M1212 1358v-879q0 -232 -140.5 -365t-385.5 -133t-379 134t-134 368v875h158v-886q0 -170 92.5 -261t273.5 -91q171 0 264 91.5t93 262.5v884h158zM557 1490q45 57 96.5 139t80.5 142h188v-19q-41 -61 -121.5 -149t-140.5 -136h-103v23z" />
    <glyph glyph-name="Ucircumflex" unicode="&#xdb;" horiz-adv-x="1385" 
d="M1212 1358v-879q0 -232 -140.5 -365t-385.5 -133t-379 134t-134 368v875h158v-886q0 -170 92.5 -261t273.5 -91q171 0 264 91.5t93 262.5v884h158zM365 1488q118 126 165.5 185.5t68.5 97.5h154q21 -39 71.5 -100.5t166.5 -182.5v-21h-111q-81 51 -205 172
q-126 -124 -203 -172h-107v21z" />
    <glyph glyph-name="Udieresis" unicode="&#xdc;" horiz-adv-x="1385" 
d="M1212 1358v-879q0 -232 -140.5 -365t-385.5 -133t-379 134t-134 368v875h158v-886q0 -170 92.5 -261t273.5 -91q171 0 264 91.5t93 262.5v884h158zM428 1608q0 48 24.5 69.5t59.5 21.5t60.5 -21.5t25.5 -69.5q0 -47 -25.5 -69.5t-60.5 -22.5t-59.5 22.5t-24.5 69.5z
M782 1608q0 48 24.5 69.5t58.5 21.5q35 0 60.5 -21.5t25.5 -69.5q0 -47 -25.5 -69.5t-60.5 -22.5q-34 0 -58.5 22.5t-24.5 69.5z" />
    <glyph glyph-name="Yacute" unicode="&#xdd;" horiz-adv-x="1065" 
d="M532 679l362 679h171l-453 -831v-527h-160v519l-452 839h173zM411 1490q45 57 96.5 139t80.5 142h188v-19q-41 -61 -121.5 -149t-140.5 -136h-103v23z" />
    <glyph glyph-name="Thorn" unicode="&#xde;" horiz-adv-x="1162" 
d="M1063 728q0 -211 -140.5 -321.5t-407.5 -110.5h-170v-296h-158v1358h158v-238h199q261 0 390 -96t129 -296zM345 432h156q209 0 303 66.5t94 218.5q0 138 -88 202.5t-276 64.5h-189v-552z" />
    <glyph glyph-name="germandbls" unicode="&#xdf;" horiz-adv-x="1183" 
d="M974 1176q0 -126 -133 -232q-81 -65 -107 -96.5t-26 -61.5t12.5 -49.5t45.5 -46t105 -73.5q130 -89 177.5 -161.5t47.5 -166.5q0 -149 -90 -228.5t-257 -79.5q-174 0 -274 65v143q59 -37 131.5 -58.5t139.5 -21.5q199 0 199 169q0 69 -38.5 119t-140.5 115
q-118 76 -162.5 133t-44.5 135q0 59 32 108t98 98q70 53 99.5 95t29.5 91q0 74 -63 113.5t-181 39.5q-256 0 -256 -207v-1118h-155v1116q0 166 102.5 252.5t308.5 86.5q191 0 295.5 -73t104.5 -206z" />
    <glyph glyph-name="agrave" unicode="&#xe0;" 
d="M789 0l-30 145h-8q-76 -96 -151.5 -130t-189.5 -34q-151 0 -237 78t-86 222q0 309 493 324l173 5v63q0 120 -51.5 177t-164.5 57q-127 0 -288 -78l-47 118q75 41 164.5 64.5t179.5 23.5q182 0 270 -81t88 -259v-695h-115zM441 109q144 0 226 79t82 221v92l-154 -7
q-184 -6 -265 -57t-81 -157q0 -84 50.5 -127.5t141.5 -43.5zM624 1153h-102q-61 48 -143.5 137t-119.5 148v19h189q29 -64 82 -148t94 -133v-23z" />
    <glyph glyph-name="aacute" unicode="&#xe1;" 
d="M789 0l-30 145h-8q-76 -96 -151.5 -130t-189.5 -34q-151 0 -237 78t-86 222q0 309 493 324l173 5v63q0 120 -51.5 177t-164.5 57q-127 0 -288 -78l-47 118q75 41 164.5 64.5t179.5 23.5q182 0 270 -81t88 -259v-695h-115zM441 109q144 0 226 79t82 221v92l-154 -7
q-184 -6 -265 -57t-81 -157q0 -84 50.5 -127.5t141.5 -43.5zM405 1176q45 57 96.5 139t80.5 142h188v-19q-41 -61 -121.5 -149t-140.5 -136h-103v23z" />
    <glyph glyph-name="acircumflex" unicode="&#xe2;" 
d="M789 0l-30 145h-8q-76 -96 -151.5 -130t-189.5 -34q-151 0 -237 78t-86 222q0 309 493 324l173 5v63q0 120 -51.5 177t-164.5 57q-127 0 -288 -78l-47 118q75 41 164.5 64.5t179.5 23.5q182 0 270 -81t88 -259v-695h-115zM441 109q144 0 226 79t82 221v92l-154 -7
q-184 -6 -265 -57t-81 -157q0 -84 50.5 -127.5t141.5 -43.5zM212 1174q118 126 165.5 185.5t68.5 97.5h154q21 -39 71.5 -100.5t166.5 -182.5v-21h-111q-81 51 -205 172q-126 -124 -203 -172h-107v21z" />
    <glyph glyph-name="atilde" unicode="&#xe3;" 
d="M789 0l-30 145h-8q-76 -96 -151.5 -130t-189.5 -34q-151 0 -237 78t-86 222q0 309 493 324l173 5v63q0 120 -51.5 177t-164.5 57q-127 0 -288 -78l-47 118q75 41 164.5 64.5t179.5 23.5q182 0 270 -81t88 -259v-695h-115zM441 109q144 0 226 79t82 221v92l-154 -7
q-184 -6 -265 -57t-81 -157q0 -84 50.5 -127.5t141.5 -43.5zM670 1154q-40 0 -78 17.5t-75 38.5t-70.5 38t-65.5 17q-46 0 -70 -28t-37 -84h-91q12 112 65.5 175.5t138.5 63.5q42 0 82 -17t76.5 -38t69.5 -38t63 -17q46 0 68 27t36 85h92q-12 -112 -64.5 -176t-139.5 -64z
" />
    <glyph glyph-name="adieresis" unicode="&#xe4;" 
d="M789 0l-30 145h-8q-76 -96 -151.5 -130t-189.5 -34q-151 0 -237 78t-86 222q0 309 493 324l173 5v63q0 120 -51.5 177t-164.5 57q-127 0 -288 -78l-47 118q75 41 164.5 64.5t179.5 23.5q182 0 270 -81t88 -259v-695h-115zM441 109q144 0 226 79t82 221v92l-154 -7
q-184 -6 -265 -57t-81 -157q0 -84 50.5 -127.5t141.5 -43.5zM259 1294q0 48 24.5 69.5t59.5 21.5t60.5 -21.5t25.5 -69.5q0 -47 -25.5 -69.5t-60.5 -22.5t-59.5 22.5t-24.5 69.5zM613 1294q0 48 24.5 69.5t58.5 21.5q35 0 60.5 -21.5t25.5 -69.5q0 -47 -25.5 -69.5
t-60.5 -22.5q-34 0 -58.5 22.5t-24.5 69.5z" />
    <glyph glyph-name="aring" unicode="&#xe5;" 
d="M789 0l-30 145h-8q-76 -96 -151.5 -130t-189.5 -34q-151 0 -237 78t-86 222q0 309 493 324l173 5v63q0 120 -51.5 177t-164.5 57q-127 0 -288 -78l-47 118q75 41 164.5 64.5t179.5 23.5q182 0 270 -81t88 -259v-695h-115zM441 109q144 0 226 79t82 221v92l-154 -7
q-184 -6 -265 -57t-81 -157q0 -84 50.5 -127.5t141.5 -43.5zM747 1354q0 -91 -57 -146t-152 -55q-94 0 -149.5 54t-55.5 145t56 144.5t149 53.5q94 0 151.5 -55t57.5 -141zM647 1352q0 52 -31 80.5t-78 28.5t-78 -28.5t-31 -80.5t28 -80t81 -28q48 0 78.5 28t30.5 80z" />
    <glyph glyph-name="ae" unicode="&#xe6;" horiz-adv-x="1632" 
d="M87 281q0 150 115.5 233t351.5 91l170 5v63q0 120 -53.5 177t-164.5 57q-134 0 -285 -78l-48 118q68 38 160.5 63t183.5 25q121 0 197.5 -40.5t114.5 -128.5q50 81 129 125.5t182 44.5q178 0 285.5 -124t107.5 -330v-99h-651q8 -367 299 -367q85 0 158 16.5t151 52.5
v-138q-80 -35 -149.5 -50.5t-162.5 -15.5q-269 0 -385 217q-75 -118 -166.5 -167.5t-216.5 -49.5q-151 0 -237 79t-86 221zM249 280q0 -89 49.5 -130t131.5 -41q135 0 213 78.5t78 221.5v92l-147 -7q-173 -7 -249 -58t-76 -156zM1138 907q-113 0 -177.5 -77t-74.5 -224h482
q0 145 -59.5 223t-170.5 78z" />
    <glyph glyph-name="ccedilla" unicode="&#xe7;" horiz-adv-x="905" 
d="M570 -19q-221 0 -342 136.5t-121 384.5q0 256 123 395t350 139q74 0 147.5 -15.5t114.5 -36.5l-47 -131q-51 20 -111.5 33.5t-106.5 13.5q-310 0 -310 -396q0 -187 75.5 -287.5t224.5 -100.5q127 0 260 55v-137q-102 -53 -257 -53zM708 -268q0 -90 -71 -139.5t-210 -49.5
q-48 0 -90 8v99q42 -8 97 -8q73 0 111 19t38 69q0 40 -37 64.5t-138 40.5l82 165h102l-51 -107q167 -36 167 -161z" />
    <glyph glyph-name="egrave" unicode="&#xe8;" horiz-adv-x="1067" 
d="M593 -19q-225 0 -355.5 137.5t-130.5 382.5q0 246 121 390.5t326 144.5q191 0 302.5 -125.5t111.5 -331.5v-98h-701q4 -179 90 -272t242 -93q164 0 325 69v-138q-82 -35 -154.5 -50.5t-176.5 -15.5zM552 907q-123 0 -196 -79.5t-86 -221.5h532q0 146 -65 223.5t-185 77.5
zM660 1153h-102q-61 48 -143.5 137t-119.5 148v19h189q29 -64 82 -148t94 -133v-23z" />
    <glyph glyph-name="eacute" unicode="&#xe9;" horiz-adv-x="1067" 
d="M593 -19q-225 0 -355.5 137.5t-130.5 382.5q0 246 121 390.5t326 144.5q191 0 302.5 -125.5t111.5 -331.5v-98h-701q4 -179 90 -272t242 -93q164 0 325 69v-138q-82 -35 -154.5 -50.5t-176.5 -15.5zM552 907q-123 0 -196 -79.5t-86 -221.5h532q0 146 -65 223.5t-185 77.5
zM437 1176q45 57 96.5 139t80.5 142h188v-19q-41 -61 -121.5 -149t-140.5 -136h-103v23z" />
    <glyph glyph-name="ecircumflex" unicode="&#xea;" horiz-adv-x="1067" 
d="M593 -19q-225 0 -355.5 137.5t-130.5 382.5q0 246 121 390.5t326 144.5q191 0 302.5 -125.5t111.5 -331.5v-98h-701q4 -179 90 -272t242 -93q164 0 325 69v-138q-82 -35 -154.5 -50.5t-176.5 -15.5zM552 907q-123 0 -196 -79.5t-86 -221.5h532q0 146 -65 223.5t-185 77.5
zM241 1174q118 126 165.5 185.5t68.5 97.5h154q21 -39 71.5 -100.5t166.5 -182.5v-21h-111q-81 51 -205 172q-126 -124 -203 -172h-107v21z" />
    <glyph glyph-name="edieresis" unicode="&#xeb;" horiz-adv-x="1067" 
d="M593 -19q-225 0 -355.5 137.5t-130.5 382.5q0 246 121 390.5t326 144.5q191 0 302.5 -125.5t111.5 -331.5v-98h-701q4 -179 90 -272t242 -93q164 0 325 69v-138q-82 -35 -154.5 -50.5t-176.5 -15.5zM552 907q-123 0 -196 -79.5t-86 -221.5h532q0 146 -65 223.5t-185 77.5
zM296 1294q0 48 24.5 69.5t59.5 21.5t60.5 -21.5t25.5 -69.5q0 -47 -25.5 -69.5t-60.5 -22.5t-59.5 22.5t-24.5 69.5zM650 1294q0 48 24.5 69.5t58.5 21.5q35 0 60.5 -21.5t25.5 -69.5q0 -47 -25.5 -69.5t-60.5 -22.5q-34 0 -58.5 22.5t-24.5 69.5z" />
    <glyph glyph-name="igrave" unicode="&#xec;" horiz-adv-x="481" 
d="M318 0h-155v1018h155v-1018zM330 1153h-102q-61 48 -143.5 137t-119.5 148v19h189q29 -64 82 -148t94 -133v-23z" />
    <glyph glyph-name="iacute" unicode="&#xed;" horiz-adv-x="481" 
d="M318 0h-155v1018h155v-1018zM157 1176q45 57 96.5 139t80.5 142h188v-19q-41 -61 -121.5 -149t-140.5 -136h-103v23z" />
    <glyph glyph-name="icircumflex" unicode="&#xee;" horiz-adv-x="481" 
d="M318 0h-155v1018h155v-1018zM-71 1174q118 126 165.5 185.5t68.5 97.5h154q21 -39 71.5 -100.5t166.5 -182.5v-21h-111q-81 51 -205 172q-126 -124 -203 -172h-107v21z" />
    <glyph glyph-name="idieresis" unicode="&#xef;" horiz-adv-x="481" 
d="M318 0h-155v1018h155v-1018zM-19 1294q0 48 24.5 69.5t59.5 21.5t60.5 -21.5t25.5 -69.5q0 -47 -25.5 -69.5t-60.5 -22.5t-59.5 22.5t-24.5 69.5zM335 1294q0 48 24.5 69.5t58.5 21.5q35 0 60.5 -21.5t25.5 -69.5q0 -47 -25.5 -69.5t-60.5 -22.5q-34 0 -58.5 22.5
t-24.5 69.5z" />
    <glyph glyph-name="eth" unicode="&#xf0;" horiz-adv-x="1134" 
d="M1042 523q0 -261 -121 -401.5t-351 -140.5q-206 0 -335.5 125t-129.5 335q0 214 122 335.5t327 121.5q209 0 302 -112l8 3q-53 199 -244 377l-251 -144l-68 100l216 123q-85 58 -172 103l64 109q145 -68 239 -137l221 128l71 -100l-192 -110q141 -133 217.5 -317.5
t76.5 -397.5zM886 475q0 137 -83.5 216t-228.5 79q-313 0 -313 -334q0 -156 81 -240.5t232 -84.5q162 0 237 93t75 271z" />
    <glyph glyph-name="ntilde" unicode="&#xf1;" horiz-adv-x="1167" 
d="M860 0v658q0 125 -56.5 186t-177.5 61q-160 0 -234 -86t-74 -285v-534h-155v1018h126l25 -139h7q48 75 133.5 116t190.5 41q183 0 276 -88.5t93 -283.5v-664h-154zM745 1154q-40 0 -78 17.5t-75 38.5t-70.5 38t-65.5 17q-46 0 -70 -28t-37 -84h-91q12 112 65.5 175.5
t138.5 63.5q42 0 82 -17t76.5 -38t69.5 -38t63 -17q46 0 68 27t36 85h92q-12 -112 -64.5 -176t-139.5 -64z" />
    <glyph glyph-name="ograve" unicode="&#xf2;" horiz-adv-x="1149" 
d="M1042 510q0 -249 -125.5 -389t-346.5 -140q-136 0 -242 64.5t-163.5 184t-57.5 280.5q0 249 124.5 387.5t345.5 138.5q213 0 339 -142t126 -384zM267 510q0 -195 78 -297t229 -102t229.5 101.5t78.5 297.5q0 194 -78.5 294.5t-231.5 100.5q-151 0 -228 -99t-77 -296z
M689 1153h-102q-61 48 -143.5 137t-119.5 148v19h189q29 -64 82 -148t94 -133v-23z" />
    <glyph glyph-name="oacute" unicode="&#xf3;" horiz-adv-x="1149" 
d="M1042 510q0 -249 -125.5 -389t-346.5 -140q-136 0 -242 64.5t-163.5 184t-57.5 280.5q0 249 124.5 387.5t345.5 138.5q213 0 339 -142t126 -384zM267 510q0 -195 78 -297t229 -102t229.5 101.5t78.5 297.5q0 194 -78.5 294.5t-231.5 100.5q-151 0 -228 -99t-77 -296z
M445 1176q45 57 96.5 139t80.5 142h188v-19q-41 -61 -121.5 -149t-140.5 -136h-103v23z" />
    <glyph glyph-name="ocircumflex" unicode="&#xf4;" horiz-adv-x="1149" 
d="M1042 510q0 -249 -125.5 -389t-346.5 -140q-136 0 -242 64.5t-163.5 184t-57.5 280.5q0 249 124.5 387.5t345.5 138.5q213 0 339 -142t126 -384zM267 510q0 -195 78 -297t229 -102t229.5 101.5t78.5 297.5q0 194 -78.5 294.5t-231.5 100.5q-151 0 -228 -99t-77 -296z
M262 1174q118 126 165.5 185.5t68.5 97.5h154q21 -39 71.5 -100.5t166.5 -182.5v-21h-111q-81 51 -205 172q-126 -124 -203 -172h-107v21z" />
    <glyph glyph-name="otilde" unicode="&#xf5;" horiz-adv-x="1149" 
d="M1042 510q0 -249 -125.5 -389t-346.5 -140q-136 0 -242 64.5t-163.5 184t-57.5 280.5q0 249 124.5 387.5t345.5 138.5q213 0 339 -142t126 -384zM267 510q0 -195 78 -297t229 -102t229.5 101.5t78.5 297.5q0 194 -78.5 294.5t-231.5 100.5q-151 0 -228 -99t-77 -296z
M718 1154q-40 0 -78 17.5t-75 38.5t-70.5 38t-65.5 17q-46 0 -70 -28t-37 -84h-91q12 112 65.5 175.5t138.5 63.5q42 0 82 -17t76.5 -38t69.5 -38t63 -17q46 0 68 27t36 85h92q-12 -112 -64.5 -176t-139.5 -64z" />
    <glyph glyph-name="odieresis" unicode="&#xf6;" horiz-adv-x="1149" 
d="M1042 510q0 -249 -125.5 -389t-346.5 -140q-136 0 -242 64.5t-163.5 184t-57.5 280.5q0 249 124.5 387.5t345.5 138.5q213 0 339 -142t126 -384zM267 510q0 -195 78 -297t229 -102t229.5 101.5t78.5 297.5q0 194 -78.5 294.5t-231.5 100.5q-151 0 -228 -99t-77 -296z
M312 1294q0 48 24.5 69.5t59.5 21.5t60.5 -21.5t25.5 -69.5q0 -47 -25.5 -69.5t-60.5 -22.5t-59.5 22.5t-24.5 69.5zM666 1294q0 48 24.5 69.5t58.5 21.5q35 0 60.5 -21.5t25.5 -69.5q0 -47 -25.5 -69.5t-60.5 -22.5q-34 0 -58.5 22.5t-24.5 69.5z" />
    <glyph glyph-name="divide" unicode="&#xf7;" horiz-adv-x="1088" 
d="M97 606v129h892v-129h-892zM437 346q0 56 27.5 84.5t77.5 28.5q49 0 76 -29.5t27 -83.5q0 -53 -27.5 -82.5t-75.5 -29.5t-76.5 29.5t-28.5 82.5zM437 995q0 55 27.5 83.5t77.5 28.5q49 0 76 -29t27 -83q0 -53 -27.5 -83t-75.5 -30t-76.5 29.5t-28.5 83.5z" />
    <glyph glyph-name="oslash" unicode="&#xf8;" horiz-adv-x="1149" 
d="M1042 510q0 -249 -125.5 -389t-346.5 -140q-143 0 -247 65l-78 -109l-106 72l88 122q-120 141 -120 379q0 249 124.5 387.5t345.5 138.5q143 0 250 -70l78 110l109 -70l-90 -124q118 -141 118 -372zM267 510q0 -159 49 -254l432 600q-70 49 -176 49q-151 0 -228 -99
t-77 -296zM882 510q0 152 -47 245l-432 -597q66 -47 171 -47q151 0 229.5 101.5t78.5 297.5z" />
    <glyph glyph-name="ugrave" unicode="&#xf9;" horiz-adv-x="1167" 
d="M308 1018v-660q0 -125 57 -186t177 -61q160 0 234 87t74 285v535h154v-1018h-127l-23 137h-8q-47 -76 -131 -116t-192 -40q-186 0 -278.5 88.5t-92.5 282.5v666h156zM674 1153h-102q-61 48 -143.5 137t-119.5 148v19h189q29 -64 82 -148t94 -133v-23z" />
    <glyph glyph-name="uacute" unicode="&#xfa;" horiz-adv-x="1167" 
d="M308 1018v-660q0 -125 57 -186t177 -61q160 0 234 87t74 285v535h154v-1018h-127l-23 137h-8q-47 -76 -131 -116t-192 -40q-186 0 -278.5 88.5t-92.5 282.5v666h156zM470 1176q45 57 96.5 139t80.5 142h188v-19q-41 -61 -121.5 -149t-140.5 -136h-103v23z" />
    <glyph glyph-name="ucircumflex" unicode="&#xfb;" horiz-adv-x="1167" 
d="M308 1018v-660q0 -125 57 -186t177 -61q160 0 234 87t74 285v535h154v-1018h-127l-23 137h-8q-47 -76 -131 -116t-192 -40q-186 0 -278.5 88.5t-92.5 282.5v666h156zM266 1174q118 126 165.5 185.5t68.5 97.5h154q21 -39 71.5 -100.5t166.5 -182.5v-21h-111
q-81 51 -205 172q-126 -124 -203 -172h-107v21z" />
    <glyph glyph-name="udieresis" unicode="&#xfc;" horiz-adv-x="1167" 
d="M308 1018v-660q0 -125 57 -186t177 -61q160 0 234 87t74 285v535h154v-1018h-127l-23 137h-8q-47 -76 -131 -116t-192 -40q-186 0 -278.5 88.5t-92.5 282.5v666h156zM318 1294q0 48 24.5 69.5t59.5 21.5t60.5 -21.5t25.5 -69.5q0 -47 -25.5 -69.5t-60.5 -22.5t-59.5 22.5
t-24.5 69.5zM672 1294q0 48 24.5 69.5t58.5 21.5q35 0 60.5 -21.5t25.5 -69.5q0 -47 -25.5 -69.5t-60.5 -22.5q-34 0 -58.5 22.5t-24.5 69.5z" />
    <glyph glyph-name="yacute" unicode="&#xfd;" horiz-adv-x="958" 
d="M2 1018h165l223 -581q73 -198 91 -287h8q12 48 50.5 162.5t251.5 705.5h166l-438 -1159q-65 -172 -152 -244t-213 -72q-70 0 -139 16v123q51 -11 114 -11q159 0 227 179l56 144zM382 1176q45 57 96.5 139t80.5 142h188v-19q-41 -61 -121.5 -149t-140.5 -136h-103v23z" />
    <glyph glyph-name="thorn" unicode="&#xfe;" horiz-adv-x="1166" 
d="M319 880q62 83 141 119.5t177 36.5q200 0 311.5 -139t111.5 -387q0 -249 -112 -389t-311 -140q-206 0 -319 150h-12l4 -32q8 -71 8 -130v-426h-155v1902h155v-433q0 -48 -6 -132h7zM617 905q-156 0 -227 -85t-72 -272v-38q0 -215 71.5 -307t229.5 -92q281 0 281 401
q0 199 -69 296t-214 97z" />
    <glyph glyph-name="ydieresis" unicode="&#xff;" horiz-adv-x="958" 
d="M2 1018h165l223 -581q73 -198 91 -287h8q12 48 50.5 162.5t251.5 705.5h166l-438 -1159q-65 -172 -152 -244t-213 -72q-70 0 -139 16v123q51 -11 114 -11q159 0 227 179l56 144zM217 1294q0 48 24.5 69.5t59.5 21.5t60.5 -21.5t25.5 -69.5q0 -47 -25.5 -69.5t-60.5 -22.5
t-59.5 22.5t-24.5 69.5zM571 1294q0 48 24.5 69.5t58.5 21.5q35 0 60.5 -21.5t25.5 -69.5q0 -47 -25.5 -69.5t-60.5 -22.5q-34 0 -58.5 22.5t-24.5 69.5z" />
    <glyph glyph-name="Amacron" unicode="&#x100;" horiz-adv-x="1204" 
d="M1040 0l-169 432h-544l-167 -432h-160l537 1363h133l534 -1363h-164zM822 574l-158 421q-31 80 -63 196q-21 -90 -59 -196l-159 -421h439zM339 1594h557v-127h-557v127z" />
    <glyph glyph-name="amacron" unicode="&#x101;" 
d="M789 0l-30 145h-8q-76 -96 -151.5 -130t-189.5 -34q-151 0 -237 78t-86 222q0 309 493 324l173 5v63q0 120 -51.5 177t-164.5 57q-127 0 -288 -78l-47 118q75 41 164.5 64.5t179.5 23.5q182 0 270 -81t88 -259v-695h-115zM441 109q144 0 226 79t82 221v92l-154 -7
q-184 -6 -265 -57t-81 -157q0 -84 50.5 -127.5t141.5 -43.5zM270 1280h557v-127h-557v127z" />
    <glyph glyph-name="Abreve" unicode="&#x102;" horiz-adv-x="1204" 
d="M1040 0l-169 432h-544l-167 -432h-160l537 1363h133l534 -1363h-164zM822 574l-158 421q-31 80 -63 196q-21 -90 -59 -196l-159 -421h439zM595 1467q-130 0 -202.5 63.5t-80.5 184.5h97q5 -45 24 -71t53 -38t113 -12q94 0 138.5 29.5t53.5 91.5h97q-9 -117 -86.5 -182.5
t-206.5 -65.5z" />
    <glyph glyph-name="abreve" unicode="&#x103;" 
d="M789 0l-30 145h-8q-76 -96 -151.5 -130t-189.5 -34q-151 0 -237 78t-86 222q0 309 493 324l173 5v63q0 120 -51.5 177t-164.5 57q-127 0 -288 -78l-47 118q75 41 164.5 64.5t179.5 23.5q182 0 270 -81t88 -259v-695h-115zM441 109q144 0 226 79t82 221v92l-154 -7
q-184 -6 -265 -57t-81 -157q0 -84 50.5 -127.5t141.5 -43.5zM529 1153q-130 0 -202.5 63.5t-80.5 184.5h97q5 -45 24 -71t53 -38t113 -12q94 0 138.5 29.5t53.5 91.5h97q-9 -117 -86.5 -182.5t-206.5 -65.5z" />
    <glyph glyph-name="Aogonek" unicode="&#x104;" horiz-adv-x="1204" 
d="M1040 0l-169 432h-544l-167 -432h-160l537 1363h133l534 -1363h-164zM822 574l-158 421q-31 80 -63 196q-21 -90 -59 -196l-159 -421h439zM1027 -221q0 -87 88 -87q39 0 90 12v-101q-61 -17 -116 -17q-193 0 -193 174q0 65 40 128t107 112h112q-64 -61 -96 -112t-32 -109
z" />
    <glyph glyph-name="aogonek" unicode="&#x105;" 
d="M789 0l-30 145h-8q-76 -96 -151.5 -130t-189.5 -34q-151 0 -237 78t-86 222q0 309 493 324l173 5v63q0 120 -51.5 177t-164.5 57q-127 0 -288 -78l-47 118q75 41 164.5 64.5t179.5 23.5q182 0 270 -81t88 -259v-695h-115zM441 109q144 0 226 79t82 221v92l-154 -7
q-184 -6 -265 -57t-81 -157q0 -84 50.5 -127.5t141.5 -43.5zM773 -221q0 -87 88 -87q39 0 90 12v-101q-61 -17 -116 -17q-193 0 -193 174q0 65 40 128t107 112h112q-64 -61 -96 -112t-32 -109z" />
    <glyph glyph-name="Cacute" unicode="&#x106;" horiz-adv-x="1200" 
d="M768 1236q-224 0 -353.5 -149t-129.5 -408q0 -267 125 -412t356 -145q142 0 324 51v-139q-141 -53 -348 -53q-300 0 -463 182t-163 518q0 210 78.5 367.5t226.5 243t349 85.5q214 0 373 -78l-67 -135q-154 72 -308 72zM610 1490q45 57 96.5 139t80.5 142h188v-19
q-41 -61 -121.5 -149t-140.5 -136h-103v23z" />
    <glyph glyph-name="cacute" unicode="&#x107;" horiz-adv-x="905" 
d="M570 -19q-221 0 -342 136.5t-121 384.5q0 256 123 395t350 139q74 0 147.5 -15.5t114.5 -36.5l-47 -131q-51 20 -111.5 33.5t-106.5 13.5q-310 0 -310 -396q0 -187 75.5 -287.5t224.5 -100.5q127 0 260 55v-137q-102 -53 -257 -53zM428 1176q45 57 96.5 139t80.5 142h188
v-19q-41 -61 -121.5 -149t-140.5 -136h-103v23z" />
    <glyph glyph-name="Ccircumflex" unicode="&#x108;" horiz-adv-x="1200" 
d="M768 1236q-224 0 -353.5 -149t-129.5 -408q0 -267 125 -412t356 -145q142 0 324 51v-139q-141 -53 -348 -53q-300 0 -463 182t-163 518q0 210 78.5 367.5t226.5 243t349 85.5q214 0 373 -78l-67 -135q-154 72 -308 72zM409 1488q118 126 165.5 185.5t68.5 97.5h154
q21 -39 71.5 -100.5t166.5 -182.5v-21h-111q-81 51 -205 172q-126 -124 -203 -172h-107v21z" />
    <glyph glyph-name="ccircumflex" unicode="&#x109;" horiz-adv-x="905" 
d="M570 -19q-221 0 -342 136.5t-121 384.5q0 256 123 395t350 139q74 0 147.5 -15.5t114.5 -36.5l-47 -131q-51 20 -111.5 33.5t-106.5 13.5q-310 0 -310 -396q0 -187 75.5 -287.5t224.5 -100.5q127 0 260 55v-137q-102 -53 -257 -53zM208 1174q118 126 165.5 185.5
t68.5 97.5h154q21 -39 71.5 -100.5t166.5 -182.5v-21h-111q-81 51 -205 172q-126 -124 -203 -172h-107v21z" />
    <glyph glyph-name="Cdot" unicode="&#x10a;" horiz-adv-x="1200" 
d="M768 1236q-224 0 -353.5 -149t-129.5 -408q0 -267 125 -412t356 -145q142 0 324 51v-139q-141 -53 -348 -53q-300 0 -463 182t-163 518q0 210 78.5 367.5t226.5 243t349 85.5q214 0 373 -78l-67 -135q-154 72 -308 72zM651 1608q0 53 26 77.5t65 24.5q38 0 64.5 -25
t26.5 -77t-26.5 -77.5t-64.5 -25.5q-39 0 -65 25.5t-26 77.5z" />
    <glyph glyph-name="cdot" unicode="&#x10b;" horiz-adv-x="905" 
d="M570 -19q-221 0 -342 136.5t-121 384.5q0 256 123 395t350 139q74 0 147.5 -15.5t114.5 -36.5l-47 -131q-51 20 -111.5 33.5t-106.5 13.5q-310 0 -310 -396q0 -187 75.5 -287.5t224.5 -100.5q127 0 260 55v-137q-102 -53 -257 -53zM462 1294q0 53 26 77.5t65 24.5
q38 0 64.5 -25t26.5 -77t-26.5 -77.5t-64.5 -25.5q-39 0 -65 25.5t-26 77.5z" />
    <glyph glyph-name="Ccaron" unicode="&#x10c;" horiz-adv-x="1200" 
d="M768 1236q-224 0 -353.5 -149t-129.5 -408q0 -267 125 -412t356 -145q142 0 324 51v-139q-141 -53 -348 -53q-300 0 -463 182t-163 518q0 210 78.5 367.5t226.5 243t349 85.5q214 0 373 -78l-67 -135q-154 72 -308 72zM428 1771h107q106 -69 203 -175q121 120 205 175
h111v-23l-61 -63q-134 -138 -177 -218h-154q-21 38 -68.5 96.5t-165.5 184.5v23z" />
    <glyph glyph-name="ccaron" unicode="&#x10d;" horiz-adv-x="905" 
d="M570 -19q-221 0 -342 136.5t-121 384.5q0 256 123 395t350 139q74 0 147.5 -15.5t114.5 -36.5l-47 -131q-51 20 -111.5 33.5t-106.5 13.5q-310 0 -310 -396q0 -187 75.5 -287.5t224.5 -100.5q127 0 260 55v-137q-102 -53 -257 -53zM237 1457h107q106 -69 203 -175
q121 120 205 175h111v-23l-61 -63q-134 -138 -177 -218h-154q-21 38 -68.5 96.5t-165.5 184.5v23z" />
    <glyph glyph-name="Dcaron" unicode="&#x10e;" horiz-adv-x="1387" 
d="M1270 692q0 -336 -182.5 -514t-524.5 -178h-376v1358h416q316 0 491.5 -175.5t175.5 -490.5zM1103 686q0 266 -133 400.5t-396 134.5h-229v-1084h192q282 0 424 138.5t142 410.5zM331 1771h107q106 -69 203 -175q121 120 205 175h111v-23l-61 -63q-134 -138 -177 -218
h-154q-21 38 -68.5 96.5t-165.5 184.5v23z" />
    <glyph glyph-name="dcaron" unicode="&#x10f;" horiz-adv-x="1166" 
d="M856 137h-8q-107 -156 -320 -156q-199 0 -310 136.5t-111 388.5t111.5 391t309.5 139q208 0 318 -150h12l-6 73l-4 72v414h154v-1445h-125zM548 111q158 0 229 85.5t71 277.5v32q0 217 -72 309t-230 92q-136 0 -207.5 -105t-71.5 -298q0 -195 71.5 -294t209.5 -99z
M1089 1164q18 51 36 128.5t27 152.5h156v-17q-10 -47 -51 -134.5t-84 -152.5h-84v23z" />
    <glyph glyph-name="Dcroat" unicode="&#x110;" horiz-adv-x="1374" 
d="M1256 692q0 -336 -182.5 -514t-525.5 -178h-361v603h-143v139h143v616h403q313 0 489.5 -174t176.5 -492zM1088 686q0 535 -529 535h-214v-479h352v-139h-352v-466h176q567 0 567 549z" />
    <glyph glyph-name="dcroat" unicode="&#x111;" horiz-adv-x="1166" 
d="M856 137h-8q-107 -156 -320 -156q-199 0 -310 136.5t-111 388.5t111.5 391t309.5 139q208 0 318 -150h12q-10 77 -10 145v123h-416v120h416v171h154v-171h145v-120h-145v-1154h-125zM548 111q158 0 229 85.5t71 277.5v32q0 217 -72 309t-230 92q-136 0 -207.5 -105
t-71.5 -298q0 -195 71.5 -294t209.5 -99z" />
    <glyph glyph-name="Emacron" unicode="&#x112;" 
d="M944 0h-757v1358h757v-140h-599v-438h562v-139h-562v-500h599v-141zM297 1594h557v-127h-557v127z" />
    <glyph glyph-name="emacron" unicode="&#x113;" horiz-adv-x="1067" 
d="M593 -19q-225 0 -355.5 137.5t-130.5 382.5q0 246 121 390.5t326 144.5q191 0 302.5 -125.5t111.5 -331.5v-98h-701q4 -179 90 -272t242 -93q164 0 325 69v-138q-82 -35 -154.5 -50.5t-176.5 -15.5zM552 907q-123 0 -196 -79.5t-86 -221.5h532q0 146 -65 223.5t-185 77.5
zM289 1280h557v-127h-557v127z" />
    <glyph glyph-name="Ebreve" unicode="&#x114;" 
d="M944 0h-757v1358h757v-140h-599v-438h562v-139h-562v-500h599v-141zM570 1467q-130 0 -202.5 63.5t-80.5 184.5h97q5 -45 24 -71t53 -38t113 -12q94 0 138.5 29.5t53.5 91.5h97q-9 -117 -86.5 -182.5t-206.5 -65.5z" />
    <glyph glyph-name="ebreve" unicode="&#x115;" horiz-adv-x="1067" 
d="M593 -19q-225 0 -355.5 137.5t-130.5 382.5q0 246 121 390.5t326 144.5q191 0 302.5 -125.5t111.5 -331.5v-98h-701q4 -179 90 -272t242 -93q164 0 325 69v-138q-82 -35 -154.5 -50.5t-176.5 -15.5zM552 907q-123 0 -196 -79.5t-86 -221.5h532q0 146 -65 223.5t-185 77.5
zM550 1153q-130 0 -202.5 63.5t-80.5 184.5h97q5 -45 24 -71t53 -38t113 -12q94 0 138.5 29.5t53.5 91.5h97q-9 -117 -86.5 -182.5t-206.5 -65.5z" />
    <glyph glyph-name="Edotaccent" unicode="&#x116;" 
d="M944 0h-757v1358h757v-140h-599v-438h562v-139h-562v-500h599v-141zM491 1581q0 53 26 77.5t65 24.5q38 0 64.5 -25t26.5 -77t-26.5 -77.5t-64.5 -25.5q-39 0 -65 25.5t-26 77.5z" />
    <glyph glyph-name="edotaccent" unicode="&#x117;" horiz-adv-x="1067" 
d="M593 -19q-225 0 -355.5 137.5t-130.5 382.5q0 246 121 390.5t326 144.5q191 0 302.5 -125.5t111.5 -331.5v-98h-701q4 -179 90 -272t242 -93q164 0 325 69v-138q-82 -35 -154.5 -50.5t-176.5 -15.5zM552 907q-123 0 -196 -79.5t-86 -221.5h532q0 146 -65 223.5t-185 77.5
zM466 1294q0 53 26 77.5t65 24.5q38 0 64.5 -25t26.5 -77t-26.5 -77.5t-64.5 -25.5q-39 0 -65 25.5t-26 77.5z" />
    <glyph glyph-name="Eogonek" unicode="&#x118;" 
d="M944 0h-757v1358h757v-140h-599v-438h562v-139h-562v-500h599v-141zM747 -221q0 -87 88 -87q39 0 90 12v-101q-61 -17 -116 -17q-193 0 -193 174q0 65 40 128t107 112h112q-64 -61 -96 -112t-32 -109z" />
    <glyph glyph-name="eogonek" unicode="&#x119;" horiz-adv-x="1067" 
d="M593 -19q-225 0 -355.5 137.5t-130.5 382.5q0 246 121 390.5t326 144.5q191 0 302.5 -125.5t111.5 -331.5v-98h-701q4 -179 90 -272t242 -93q164 0 325 69v-138q-82 -35 -154.5 -50.5t-176.5 -15.5zM552 907q-123 0 -196 -79.5t-86 -221.5h532q0 146 -65 223.5t-185 77.5
zM735 -192q0 -87 88 -87q39 0 90 12v-101q-61 -17 -116 -17q-193 0 -193 174q0 65 40 128t107 112h112q-64 -61 -96 -112t-32 -109z" />
    <glyph glyph-name="Ecaron" unicode="&#x11a;" 
d="M944 0h-757v1358h757v-140h-599v-438h562v-139h-562v-500h599v-141zM264 1771h107q106 -69 203 -175q121 120 205 175h111v-23l-61 -63q-134 -138 -177 -218h-154q-21 38 -68.5 96.5t-165.5 184.5v23z" />
    <glyph glyph-name="ecaron" unicode="&#x11b;" horiz-adv-x="1067" 
d="M593 -19q-225 0 -355.5 137.5t-130.5 382.5q0 246 121 390.5t326 144.5q191 0 302.5 -125.5t111.5 -331.5v-98h-701q4 -179 90 -272t242 -93q164 0 325 69v-138q-82 -35 -154.5 -50.5t-176.5 -15.5zM552 907q-123 0 -196 -79.5t-86 -221.5h532q0 146 -65 223.5t-185 77.5
zM244 1457h107q106 -69 203 -175q121 120 205 175h111v-23l-61 -63q-134 -138 -177 -218h-154q-21 38 -68.5 96.5t-165.5 184.5v23z" />
    <glyph glyph-name="Gcircumflex" unicode="&#x11c;" horiz-adv-x="1385" 
d="M784 711h461v-660q-107 -34 -218.5 -52t-258.5 -18q-308 0 -480 183.5t-172 514.5q0 212 85 371t245 243t374 84q217 0 405 -80l-61 -139q-184 78 -354 78q-248 0 -387.5 -147.5t-139.5 -409.5q0 -275 134.5 -417t394.5 -142q141 0 276 32v418h-304v141zM465 1488
q118 126 165.5 185.5t68.5 97.5h154q21 -39 71.5 -100.5t166.5 -182.5v-21h-111q-81 51 -205 172q-126 -124 -203 -172h-107v21z" />
    <glyph glyph-name="gcircumflex" unicode="&#x11d;" horiz-adv-x="1042" 
d="M997 1018v-98l-189 -22q26 -32 46.5 -84.5t20.5 -118.5q0 -150 -102 -239t-281 -89q-45 0 -85 7q-99 -52 -99 -131q0 -41 34.5 -61t118.5 -20h180q165 0 254 -70t89 -203q0 -169 -136 -257.5t-396 -88.5q-199 0 -307.5 74.5t-108.5 209.5q0 93 59.5 161t167.5 92
q-39 18 -65.5 55t-26.5 86q0 56 29.5 97.5t93.5 80.5q-79 33 -128.5 111t-49.5 178q0 167 100.5 257.5t284.5 90.5q79 0 144 -18h352zM185 -171q0 -83 69.5 -125.5t199.5 -42.5q194 0 287.5 58t93.5 157q0 83 -51 115t-192 32h-185q-105 0 -163.5 -50t-58.5 -144zM268 692
q0 -107 60.5 -162t168.5 -55q226 0 226 220q0 229 -229 229q-109 0 -167.5 -58.5t-58.5 -173.5zM199 1174q118 126 165.5 185.5t68.5 97.5h154q21 -39 71.5 -100.5t166.5 -182.5v-21h-111q-81 51 -205 172q-126 -124 -203 -172h-107v21z" />
    <glyph glyph-name="Gbreve" unicode="&#x11e;" horiz-adv-x="1385" 
d="M784 711h461v-660q-107 -34 -218.5 -52t-258.5 -18q-308 0 -480 183.5t-172 514.5q0 212 85 371t245 243t374 84q217 0 405 -80l-61 -139q-184 78 -354 78q-248 0 -387.5 -147.5t-139.5 -409.5q0 -275 134.5 -417t394.5 -142q141 0 276 32v418h-304v141zM793 1467
q-130 0 -202.5 63.5t-80.5 184.5h97q5 -45 24 -71t53 -38t113 -12q94 0 138.5 29.5t53.5 91.5h97q-9 -117 -86.5 -182.5t-206.5 -65.5z" />
    <glyph glyph-name="gbreve" unicode="&#x11f;" horiz-adv-x="1042" 
d="M997 1018v-98l-189 -22q26 -32 46.5 -84.5t20.5 -118.5q0 -150 -102 -239t-281 -89q-45 0 -85 7q-99 -52 -99 -131q0 -41 34.5 -61t118.5 -20h180q165 0 254 -70t89 -203q0 -169 -136 -257.5t-396 -88.5q-199 0 -307.5 74.5t-108.5 209.5q0 93 59.5 161t167.5 92
q-39 18 -65.5 55t-26.5 86q0 56 29.5 97.5t93.5 80.5q-79 33 -128.5 111t-49.5 178q0 167 100.5 257.5t284.5 90.5q79 0 144 -18h352zM185 -171q0 -83 69.5 -125.5t199.5 -42.5q194 0 287.5 58t93.5 157q0 83 -51 115t-192 32h-185q-105 0 -163.5 -50t-58.5 -144zM268 692
q0 -107 60.5 -162t168.5 -55q226 0 226 220q0 229 -229 229q-109 0 -167.5 -58.5t-58.5 -173.5zM509 1153q-130 0 -202.5 63.5t-80.5 184.5h97q5 -45 24 -71t53 -38t113 -12q94 0 138.5 29.5t53.5 91.5h97q-9 -117 -86.5 -182.5t-206.5 -65.5z" />
    <glyph glyph-name="Gdot" unicode="&#x120;" horiz-adv-x="1385" 
d="M784 711h461v-660q-107 -34 -218.5 -52t-258.5 -18q-308 0 -480 183.5t-172 514.5q0 212 85 371t245 243t374 84q217 0 405 -80l-61 -139q-184 78 -354 78q-248 0 -387.5 -147.5t-139.5 -409.5q0 -275 134.5 -417t394.5 -142q141 0 276 32v418h-304v141zM718 1608
q0 53 26 77.5t65 24.5q38 0 64.5 -25t26.5 -77t-26.5 -77.5t-64.5 -25.5q-39 0 -65 25.5t-26 77.5z" />
    <glyph glyph-name="gdot" unicode="&#x121;" horiz-adv-x="1042" 
d="M997 1018v-98l-189 -22q26 -32 46.5 -84.5t20.5 -118.5q0 -150 -102 -239t-281 -89q-45 0 -85 7q-99 -52 -99 -131q0 -41 34.5 -61t118.5 -20h180q165 0 254 -70t89 -203q0 -169 -136 -257.5t-396 -88.5q-199 0 -307.5 74.5t-108.5 209.5q0 93 59.5 161t167.5 92
q-39 18 -65.5 55t-26.5 86q0 56 29.5 97.5t93.5 80.5q-79 33 -128.5 111t-49.5 178q0 167 100.5 257.5t284.5 90.5q79 0 144 -18h352zM185 -171q0 -83 69.5 -125.5t199.5 -42.5q194 0 287.5 58t93.5 157q0 83 -51 115t-192 32h-185q-105 0 -163.5 -50t-58.5 -144zM268 692
q0 -107 60.5 -162t168.5 -55q226 0 226 220q0 229 -229 229q-109 0 -167.5 -58.5t-58.5 -173.5zM417 1294q0 53 26 77.5t65 24.5q38 0 64.5 -25t26.5 -77t-26.5 -77.5t-64.5 -25.5q-39 0 -65 25.5t-26 77.5z" />
    <glyph glyph-name="Gcommaaccent" unicode="&#x122;" horiz-adv-x="1385" 
d="M784 711h461v-660q-107 -34 -218.5 -52t-258.5 -18q-308 0 -480 183.5t-172 514.5q0 212 85 371t245 243t374 84q217 0 405 -80l-61 -139q-184 78 -354 78q-248 0 -387.5 -147.5t-139.5 -409.5q0 -275 134.5 -417t394.5 -142q141 0 276 32v418h-304v141zM617 -397
q26 59 49.5 145.5t30.5 135.5h156v-17q-11 -47 -56.5 -136.5t-96.5 -151.5h-83v24z" />
    <glyph glyph-name="gcommaaccent" unicode="&#x123;" horiz-adv-x="1042" 
d="M997 1018v-98l-189 -22q26 -32 46.5 -84.5t20.5 -118.5q0 -150 -102 -239t-281 -89q-45 0 -85 7q-99 -52 -99 -131q0 -41 34.5 -61t118.5 -20h180q165 0 254 -70t89 -203q0 -169 -136 -257.5t-396 -88.5q-199 0 -307.5 74.5t-108.5 209.5q0 93 59.5 161t167.5 92
q-39 18 -65.5 55t-26.5 86q0 56 29.5 97.5t93.5 80.5q-79 33 -128.5 111t-49.5 178q0 167 100.5 257.5t284.5 90.5q79 0 144 -18h352zM185 -171q0 -83 69.5 -125.5t199.5 -42.5q194 0 287.5 58t93.5 157q0 83 -51 115t-192 32h-185q-105 0 -163.5 -50t-58.5 -144zM268 692
q0 -107 60.5 -162t168.5 -55q226 0 226 220q0 229 -229 229q-109 0 -167.5 -58.5t-58.5 -173.5zM656 1434q-26 -57 -51 -146.5t-30 -134.5h-154v17q13 57 58.5 145.5t91.5 141.5h85v-23z" />
    <glyph glyph-name="Hcircumflex" unicode="&#x124;" horiz-adv-x="1403" 
d="M1218 0h-158v639h-715v-639h-158v1358h158v-578h715v578h158v-1358zM388 1488q118 126 165.5 185.5t68.5 97.5h154q21 -39 71.5 -100.5t166.5 -182.5v-21h-111q-81 51 -205 172q-126 -124 -203 -172h-107v21z" />
    <glyph glyph-name="hcircumflex" unicode="&#x125;" horiz-adv-x="1167" 
d="M860 0v658q0 125 -56.5 186t-177.5 61q-161 0 -234.5 -87t-73.5 -286v-532h-155v1445h155v-437q0 -79 -8 -131h9q46 73 130 115.5t192 42.5q186 0 279.5 -89t93.5 -282v-664h-154zM278 1539q118 126 165.5 185.5t68.5 97.5h154q21 -39 71.5 -100.5t166.5 -182.5v-21h-111
q-81 51 -205 172q-126 -124 -203 -172h-107v21z" />
    <glyph glyph-name="Hbar" unicode="&#x126;" horiz-adv-x="1403" 
d="M187 1127v231h158v-231h715v231h158v-231h185v-130h-185v-997h-158v639h-715v-639h-158v997h-187v130h187zM1060 780v217h-715v-217h715z" />
    <glyph glyph-name="hbar" unicode="&#x127;" horiz-adv-x="1167" 
d="M860 0v622q0 125 -56.5 186t-177.5 61q-162 0 -235 -86t-73 -284v-499h-155v1154h-144v118h144v173h155v-173h417v-118h-417v-182q0 -78 -8 -130h9q46 74 130 116t192 42q186 0 279.5 -88.5t93.5 -283.5v-628h-154z" />
    <glyph glyph-name="Itilde.alt" horiz-adv-x="633" 
d="M555 0h-477v91l160 33v1108l-160 35v91h477v-91l-159 -35v-1108l159 -33v-91zM459 1468q-40 0 -78 17.5t-75 38.5t-70.5 38t-65.5 17q-46 0 -70 -28t-37 -84h-91q12 112 65.5 175.5t138.5 63.5q42 0 82 -17t76.5 -38t69.5 -38t63 -17q46 0 68 27t36 85h92
q-12 -112 -64.5 -176t-139.5 -64z" />
    <glyph glyph-name="itilde" unicode="&#x129;" horiz-adv-x="481" 
d="M318 0h-155v1018h155v-1018zM383 1154q-40 0 -78 17.5t-75 38.5t-70.5 38t-65.5 17q-46 0 -70 -28t-37 -84h-91q12 112 65.5 175.5t138.5 63.5q42 0 82 -17t76.5 -38t69.5 -38t63 -17q46 0 68 27t36 85h92q-12 -112 -64.5 -176t-139.5 -64z" />
    <glyph glyph-name="Imacron.alt" horiz-adv-x="633" 
d="M555 0h-477v91l160 33v1108l-160 35v91h477v-91l-159 -35v-1108l159 -33v-91zM39 1594h557v-127h-557v127z" />
    <glyph glyph-name="imacron" unicode="&#x12b;" horiz-adv-x="481" 
d="M318 0h-155v1018h155v-1018zM-35 1280h557v-127h-557v127z" />
    <glyph glyph-name="Ibreve.alt" horiz-adv-x="633" 
d="M555 0h-477v91l160 33v1108l-160 35v91h477v-91l-159 -35v-1108l159 -33v-91zM311 1467q-130 0 -202.5 63.5t-80.5 184.5h97q5 -45 24 -71t53 -38t113 -12q94 0 138.5 29.5t53.5 91.5h97q-9 -117 -86.5 -182.5t-206.5 -65.5z" />
    <glyph glyph-name="ibreve" unicode="&#x12d;" horiz-adv-x="481" 
d="M318 0h-155v1018h155v-1018zM235 1153q-130 0 -202.5 63.5t-80.5 184.5h97q5 -45 24 -71t53 -38t113 -12q94 0 138.5 29.5t53.5 91.5h97q-9 -117 -86.5 -182.5t-206.5 -65.5z" />
    <glyph glyph-name="Iogonek.alt" horiz-adv-x="633" 
d="M555 0h-477v91l160 33v1108l-160 35v91h477v-91l-159 -35v-1108l159 -33v-91zM262 -221q0 -87 88 -87q39 0 90 12v-101q-61 -17 -116 -17q-193 0 -193 174q0 65 40 128t107 112h112q-64 -61 -96 -112t-32 -109z" />
    <glyph glyph-name="iogonek" unicode="&#x12f;" horiz-adv-x="481" 
d="M318 0h-155v1018h155v-1018zM150 1294q0 53 26 77.5t65 24.5q38 0 64.5 -25t26.5 -77t-26.5 -77.5t-64.5 -25.5q-39 0 -65 25.5t-26 77.5zM180 -221q0 -87 88 -87q39 0 90 12v-101q-61 -17 -116 -17q-193 0 -193 174q0 65 40 128t107 112h112q-64 -61 -96 -112t-32 -109z
" />
    <glyph glyph-name="Idotaccent.alt" horiz-adv-x="633" 
d="M555 0h-477v91l160 33v1108l-160 35v91h477v-91l-159 -35v-1108l159 -33v-91zM224 1608q0 53 26 77.5t65 24.5q38 0 64.5 -25t26.5 -77t-26.5 -77.5t-64.5 -25.5q-39 0 -65 25.5t-26 77.5z" />
    <glyph glyph-name="dotlessi" unicode="&#x131;" horiz-adv-x="481" 
d="M318 0h-155v1018h155v-1018z" />
    <glyph glyph-name="IJ.alt" horiz-adv-x="1141" 
d="M555 0h-477v91l160 33v1108l-160 35v91h477v-91l-159 -35v-1108l159 -33v-91zM621 -358q-87 0 -138 26v134q66 -18 138 -18q92 0 139.5 55.5t47.5 160.5v1358h158v-1345q0 -176 -89 -273.5t-256 -97.5z" />
    <glyph glyph-name="ij" unicode="&#x133;" horiz-adv-x="962" 
d="M318 0h-155v1018h155v-1018zM150 1294q0 53 26 77.5t65 24.5q38 0 64.5 -25t26.5 -77t-26.5 -77.5t-64.5 -25.5q-39 0 -65 25.5t-26 77.5zM521 -457q-88 0 -143 23v126q64 -19 126 -19q73 0 106.5 39.5t33.5 120.5v1185h155v-1174q0 -301 -278 -301zM631 1294
q0 53 26 77.5t65 24.5q38 0 64.5 -25t26.5 -77t-26.5 -77.5t-64.5 -25.5q-39 0 -65 25.5t-26 77.5z" />
    <glyph glyph-name="Jcircumflex" unicode="&#x134;" horiz-adv-x="508" 
d="M-11 -358q-87 0 -138 26v134q66 -18 138 -18q92 0 139.5 55.5t47.5 160.5v1358h158v-1345q0 -176 -89 -273.5t-256 -97.5zM-57 1488q118 126 165.5 185.5t68.5 97.5h154q21 -39 71.5 -100.5t166.5 -182.5v-21h-111q-81 51 -205 172q-126 -124 -203 -172h-107v21z" />
    <glyph glyph-name="jcircumflex" unicode="&#x135;" horiz-adv-x="481" 
d="M40 -457q-88 0 -143 23v126q64 -19 126 -19q73 0 106.5 39.5t33.5 120.5v1185h155v-1174q0 -301 -278 -301zM-77 1174q118 126 165.5 185.5t68.5 97.5h154q21 -39 71.5 -100.5t166.5 -182.5v-21h-111q-81 51 -205 172q-126 -124 -203 -172h-107v21z" />
    <glyph glyph-name="Kcommaaccent" unicode="&#x136;" horiz-adv-x="1167" 
d="M1167 0h-185l-495 658l-142 -126v-532h-158v1358h158v-674l615 674h187l-546 -590zM470 -397q26 59 49.5 145.5t30.5 135.5h156v-17q-11 -47 -56.5 -136.5t-96.5 -151.5h-83v24z" />
    <glyph glyph-name="kcommaaccent" unicode="&#x137;" horiz-adv-x="998" 
d="M316 521q40 57 121 149l329 348h183l-412 -434l441 -584h-187l-359 481l-116 -100v-381h-153v1445h153v-766q0 -51 -8 -158h8zM383 -397q26 59 49.5 145.5t30.5 135.5h156v-17q-11 -47 -56.5 -136.5t-96.5 -151.5h-83v24z" />
    <glyph glyph-name="kgreenlandic" unicode="&#x138;" horiz-adv-x="985" 
d="M757 1016h192l-384 -448l411 -568h-187l-335 468l-125 -105v-363h-166v1016h166v-263q0 -154 -11 -259z" />
    <glyph glyph-name="Lacute" unicode="&#x139;" horiz-adv-x="987" 
d="M187 0v1358h158v-1215h599v-143h-757zM219 1490q45 57 96.5 139t80.5 142h188v-19q-41 -61 -121.5 -149t-140.5 -136h-103v23z" />
    <glyph glyph-name="lacute" unicode="&#x13a;" horiz-adv-x="481" 
d="M318 0h-155v1445h155v-1445zM151 1543q45 57 96.5 139t80.5 142h188v-19q-41 -61 -121.5 -149t-140.5 -136h-103v23z" />
    <glyph glyph-name="Lcommaaccent" unicode="&#x13b;" horiz-adv-x="987" 
d="M187 0v1358h158v-1215h599v-143h-757zM389 -397q26 59 49.5 145.5t30.5 135.5h156v-17q-11 -47 -56.5 -136.5t-96.5 -151.5h-83v24z" />
    <glyph glyph-name="lcommaaccent" unicode="&#x13c;" horiz-adv-x="481" 
d="M318 0h-155v1445h155v-1445zM83 -397q26 59 49.5 145.5t30.5 135.5h156v-17q-11 -47 -56.5 -136.5t-96.5 -151.5h-83v24z" />
    <glyph glyph-name="Lcaron" unicode="&#x13d;" horiz-adv-x="987" 
d="M187 0v1358h158v-1215h599v-143h-757zM630 1078q18 51 36 128.5t27 152.5h156v-17q-10 -47 -51 -134.5t-84 -152.5h-84v23z" />
    <glyph glyph-name="lcaron" unicode="&#x13e;" horiz-adv-x="481" 
d="M318 0h-155v1445h155v-1445zM405 1164q18 51 36 128.5t27 152.5h156v-17q-10 -47 -51 -134.5t-84 -152.5h-84v23z" />
    <glyph glyph-name="Ldot" unicode="&#x13f;" horiz-adv-x="987" 
d="M187 0v1358h158v-1215h599v-143h-757zM629 676q0 53 26 77.5t65 24.5q38 0 64.5 -25t26.5 -77t-26.5 -77.5t-64.5 -25.5q-39 0 -65 25.5t-26 77.5z" />
    <glyph glyph-name="ldot" unicode="&#x140;" horiz-adv-x="597" 
d="M318 0h-155v1445h155v-1445zM449 633q0 53 26 77.5t65 24.5q38 0 64.5 -25t26.5 -77t-26.5 -77.5t-64.5 -25.5q-39 0 -65 25.5t-26 77.5z" />
    <glyph glyph-name="Lslash" unicode="&#x141;" horiz-adv-x="995" 
d="M187 0v472l-98 -55l-62 106l160 94v741h158v-648l275 161l63 -112l-338 -196v-420h599v-143h-757z" />
    <glyph glyph-name="lslash" unicode="&#x142;" horiz-adv-x="497" 
d="M318 802l127 88l67 -104l-194 -131v-655h-155v554l-102 -67l-65 105l167 110v743h155v-643z" />
    <glyph glyph-name="Nacute" unicode="&#x143;" horiz-adv-x="1434" 
d="M1247 0h-180l-742 1140h-7q14 -201 14 -368v-772h-145v1358h178l740 -1135h8q-2 25 -8.5 161t-4.5 195v779h147v-1358zM605 1490q45 57 96.5 139t80.5 142h188v-19q-41 -61 -121.5 -149t-140.5 -136h-103v23z" />
    <glyph glyph-name="nacute" unicode="&#x144;" horiz-adv-x="1167" 
d="M860 0v658q0 125 -56.5 186t-177.5 61q-160 0 -234 -86t-74 -285v-534h-155v1018h126l25 -139h7q48 75 133.5 116t190.5 41q183 0 276 -88.5t93 -283.5v-664h-154zM477 1176q45 57 96.5 139t80.5 142h188v-19q-41 -61 -121.5 -149t-140.5 -136h-103v23z" />
    <glyph glyph-name="Ncommaaccent" unicode="&#x145;" horiz-adv-x="1434" 
d="M1247 0h-180l-742 1140h-7q14 -201 14 -368v-772h-145v1358h178l740 -1135h8q-2 25 -8.5 161t-4.5 195v779h147v-1358zM533 -397q26 59 49.5 145.5t30.5 135.5h156v-17q-11 -47 -56.5 -136.5t-96.5 -151.5h-83v24z" />
    <glyph glyph-name="ncommaaccent" unicode="&#x146;" horiz-adv-x="1167" 
d="M860 0v658q0 125 -56.5 186t-177.5 61q-160 0 -234 -86t-74 -285v-534h-155v1018h126l25 -139h7q48 75 133.5 116t190.5 41q183 0 276 -88.5t93 -283.5v-664h-154zM423 -397q26 59 49.5 145.5t30.5 135.5h156v-17q-11 -47 -56.5 -136.5t-96.5 -151.5h-83v24z" />
    <glyph glyph-name="Ncaron" unicode="&#x147;" horiz-adv-x="1434" 
d="M1247 0h-180l-742 1140h-7q14 -201 14 -368v-772h-145v1358h178l740 -1135h8q-2 25 -8.5 161t-4.5 195v779h147v-1358zM403 1771h107q106 -69 203 -175q121 120 205 175h111v-23l-61 -63q-134 -138 -177 -218h-154q-21 38 -68.5 96.5t-165.5 184.5v23z" />
    <glyph glyph-name="ncaron" unicode="&#x148;" horiz-adv-x="1167" 
d="M860 0v658q0 125 -56.5 186t-177.5 61q-160 0 -234 -86t-74 -285v-534h-155v1018h126l25 -139h7q48 75 133.5 116t190.5 41q183 0 276 -88.5t93 -283.5v-664h-154zM278 1457h107q106 -69 203 -175q121 120 205 175h111v-23l-61 -63q-134 -138 -177 -218h-154
q-21 38 -68.5 96.5t-165.5 184.5v23z" />
    <glyph glyph-name="napostrophe" unicode="&#x149;" horiz-adv-x="1296" 
d="M985 0v658q0 125 -56.5 186t-177.5 61q-160 0 -234 -86t-74 -285v-534h-155v1018h126l25 -139h7q48 75 133.5 116t190.5 41q183 0 276 -88.5t93 -283.5v-664h-154zM265 1358l14 -21q-24 -93 -69.5 -216t-94.5 -229h-114q65 265 95 466h169z" />
    <glyph glyph-name="Eng" unicode="&#x14a;" horiz-adv-x="1434" 
d="M900 -358q-91 0 -141 26v134q66 -18 143 -18q97 0 146.5 56.5t49.5 159.5l-773 1140h-7q14 -246 14 -392v-748h-145v1358h178l740 -1117h8q-13 139 -13 347v770h147v-1345q0 -181 -89.5 -276t-257.5 -95z" />
    <glyph glyph-name="eng" unicode="&#x14b;" horiz-adv-x="1167" 
d="M748 -457q-80 0 -131 23v126q55 -19 113 -19q130 0 130 160v825q0 125 -56.5 186t-177.5 61q-160 0 -234 -86t-74 -285v-534h-155v1018h126l25 -139h9q48 76 132 116.5t186 40.5q188 0 280.5 -88.5t92.5 -283.5v-820q0 -143 -65 -222t-201 -79z" />
    <glyph glyph-name="Omacron" unicode="&#x14c;" horiz-adv-x="1481" 
d="M1365 681q0 -326 -164.5 -513t-458.5 -187q-300 0 -463 183.5t-163 518.5q0 331 163.5 513.5t464.5 182.5q292 0 456.5 -185.5t164.5 -512.5zM283 681q0 -276 117.5 -418.5t341.5 -142.5q226 0 341 142t115 419q0 274 -114.5 415.5t-339.5 141.5q-226 0 -343.5 -142.5
t-117.5 -414.5zM465 1594h557v-127h-557v127z" />
    <glyph glyph-name="omacron" unicode="&#x14d;" horiz-adv-x="1149" 
d="M1042 510q0 -249 -125.5 -389t-346.5 -140q-136 0 -242 64.5t-163.5 184t-57.5 280.5q0 249 124.5 387.5t345.5 138.5q213 0 339 -142t126 -384zM267 510q0 -195 78 -297t229 -102t229.5 101.5t78.5 297.5q0 194 -78.5 294.5t-231.5 100.5q-151 0 -228 -99t-77 -296z
M297 1280h557v-127h-557v127z" />
    <glyph glyph-name="Obreve" unicode="&#x14e;" horiz-adv-x="1481" 
d="M1365 681q0 -326 -164.5 -513t-458.5 -187q-300 0 -463 183.5t-163 518.5q0 331 163.5 513.5t464.5 182.5q292 0 456.5 -185.5t164.5 -512.5zM283 681q0 -276 117.5 -418.5t341.5 -142.5q226 0 341 142t115 419q0 274 -114.5 415.5t-339.5 141.5q-226 0 -343.5 -142.5
t-117.5 -414.5zM734 1467q-130 0 -202.5 63.5t-80.5 184.5h97q5 -45 24 -71t53 -38t113 -12q94 0 138.5 29.5t53.5 91.5h97q-9 -117 -86.5 -182.5t-206.5 -65.5z" />
    <glyph glyph-name="obreve" unicode="&#x14f;" horiz-adv-x="1149" 
d="M1042 510q0 -249 -125.5 -389t-346.5 -140q-136 0 -242 64.5t-163.5 184t-57.5 280.5q0 249 124.5 387.5t345.5 138.5q213 0 339 -142t126 -384zM267 510q0 -195 78 -297t229 -102t229.5 101.5t78.5 297.5q0 194 -78.5 294.5t-231.5 100.5q-151 0 -228 -99t-77 -296z
M568 1153q-130 0 -202.5 63.5t-80.5 184.5h97q5 -45 24 -71t53 -38t113 -12q94 0 138.5 29.5t53.5 91.5h97q-9 -117 -86.5 -182.5t-206.5 -65.5z" />
    <glyph glyph-name="Ohungarumlaut" unicode="&#x150;" horiz-adv-x="1481" 
d="M1365 681q0 -326 -164.5 -513t-458.5 -187q-300 0 -463 183.5t-163 518.5q0 331 163.5 513.5t464.5 182.5q292 0 456.5 -185.5t164.5 -512.5zM283 681q0 -276 117.5 -418.5t341.5 -142.5q226 0 341 142t115 419q0 274 -114.5 415.5t-339.5 141.5q-226 0 -343.5 -142.5
t-117.5 -414.5zM471 1490q33 44 84 130.5t80 150.5h173v-19q-35 -59 -114.5 -150t-132.5 -135h-90v23zM802 1490q46 63 92.5 145t71.5 136h172v-19q-34 -59 -113.5 -150t-133.5 -135h-89v23z" />
    <glyph glyph-name="ohungarumlaut" unicode="&#x151;" horiz-adv-x="1149" 
d="M1042 510q0 -249 -125.5 -389t-346.5 -140q-136 0 -242 64.5t-163.5 184t-57.5 280.5q0 249 124.5 387.5t345.5 138.5q213 0 339 -142t126 -384zM267 510q0 -195 78 -297t229 -102t229.5 101.5t78.5 297.5q0 194 -78.5 294.5t-231.5 100.5q-151 0 -228 -99t-77 -296z
M299 1176q33 44 84 130.5t80 150.5h173v-19q-35 -59 -114.5 -150t-132.5 -135h-90v23zM630 1176q46 63 92.5 145t71.5 136h172v-19q-34 -59 -113.5 -150t-133.5 -135h-89v23z" />
    <glyph glyph-name="OE" unicode="&#x152;" horiz-adv-x="1755" 
d="M1641 0h-713q-95 -19 -180 -19q-304 0 -468 182.5t-164 519.5q0 334 161.5 515t458.5 181q95 0 179 -21h726v-140h-547v-438h512v-139h-512v-500h547v-141zM753 1238q-231 0 -350.5 -141.5t-119.5 -415.5q0 -276 119.5 -418.5t348.5 -142.5q104 0 185 30v1060
q-81 28 -183 28z" />
    <glyph glyph-name="oe" unicode="&#x153;" horiz-adv-x="1791" 
d="M1328 -19q-272 0 -388 219q-58 -108 -155 -163.5t-224 -55.5q-207 0 -331.5 142t-124.5 387q0 246 121.5 385.5t340.5 139.5q121 0 216.5 -55.5t152.5 -161.5q54 104 143 160.5t206 56.5q187 0 297.5 -123.5t110.5 -332.5v-98h-677q7 -365 314 -365q87 0 162 16.5
t156 52.5v-138q-82 -36 -152.5 -51t-167.5 -15zM267 510q0 -196 70.5 -297.5t225.5 -101.5q151 0 222 98.5t71 292.5q0 206 -72 304.5t-225 98.5q-154 0 -223 -100t-69 -295zM1283 905q-117 0 -184.5 -76t-78.5 -223h505q0 147 -61.5 223t-180.5 76z" />
    <glyph glyph-name="Racute" unicode="&#x154;" horiz-adv-x="1176" 
d="M345 565v-565h-158v1358h372q250 0 369.5 -96t119.5 -288q0 -269 -273 -364l368 -610h-186l-329 565h-283zM345 700h216q167 0 245 66.5t78 199.5q0 135 -79.5 194t-254.5 59h-205v-519zM477 1490q45 57 96.5 139t80.5 142h188v-19q-41 -61 -121.5 -149t-140.5 -136h-103
v23z" />
    <glyph glyph-name="racute" unicode="&#x155;" horiz-adv-x="776" 
d="M628 1036q68 0 121 -11l-21 -143q-63 14 -111 14q-124 0 -211.5 -100t-87.5 -250v-546h-155v1018h128l17 -189h8q56 100 136 153.5t176 53.5zM332 1176q45 57 96.5 139t80.5 142h188v-19q-41 -61 -121.5 -149t-140.5 -136h-103v23z" />
    <glyph glyph-name="Rcommaaccent" unicode="&#x156;" horiz-adv-x="1176" 
d="M345 565v-565h-158v1358h372q250 0 369.5 -96t119.5 -288q0 -269 -273 -364l368 -610h-186l-329 565h-283zM345 700h216q167 0 245 66.5t78 199.5q0 135 -79.5 194t-254.5 59h-205v-519zM459 -397q26 59 49.5 145.5t30.5 135.5h156v-17q-11 -47 -56.5 -136.5
t-96.5 -151.5h-83v24z" />
    <glyph glyph-name="rcommaaccent" unicode="&#x157;" horiz-adv-x="776" 
d="M628 1036q68 0 121 -11l-21 -143q-63 14 -111 14q-124 0 -211.5 -100t-87.5 -250v-546h-155v1018h128l17 -189h8q56 100 136 153.5t176 53.5zM89 -397q26 59 49.5 145.5t30.5 135.5h156v-17q-11 -47 -56.5 -136.5t-96.5 -151.5h-83v24z" />
    <glyph glyph-name="Rcaron" unicode="&#x158;" horiz-adv-x="1176" 
d="M345 565v-565h-158v1358h372q250 0 369.5 -96t119.5 -288q0 -269 -273 -364l368 -610h-186l-329 565h-283zM345 700h216q167 0 245 66.5t78 199.5q0 135 -79.5 194t-254.5 59h-205v-519zM274 1771h107q106 -69 203 -175q121 120 205 175h111v-23l-61 -63
q-134 -138 -177 -218h-154q-21 38 -68.5 96.5t-165.5 184.5v23z" />
    <glyph glyph-name="rcaron" unicode="&#x159;" horiz-adv-x="776" 
d="M628 1036q68 0 121 -11l-21 -143q-63 14 -111 14q-124 0 -211.5 -100t-87.5 -250v-546h-155v1018h128l17 -189h8q56 100 136 153.5t176 53.5zM121 1457h107q106 -69 203 -175q121 120 205 175h111v-23l-61 -63q-134 -138 -177 -218h-154q-21 38 -68.5 96.5t-165.5 184.5
v23z" />
    <glyph glyph-name="Sacute" unicode="&#x15a;" horiz-adv-x="1044" 
d="M953 361q0 -179 -130 -279.5t-353 -100.5q-242 0 -372 63v152q84 -35 182.5 -55.5t194.5 -20.5q158 0 238 60t80 166q0 71 -28.5 116t-94.5 83t-202 87q-189 67 -270.5 160t-81.5 243q0 157 118 249.5t312 92.5q203 0 372 -74l-49 -137q-168 70 -327 70
q-125 0 -195.5 -54t-70.5 -149q0 -71 26 -116t87.5 -82.5t189.5 -83.5q213 -76 293.5 -163t80.5 -227zM439 1490q45 57 96.5 139t80.5 142h188v-19q-41 -61 -121.5 -149t-140.5 -136h-103v23z" />
    <glyph glyph-name="sacute" unicode="&#x15b;" horiz-adv-x="907" 
d="M820 278q0 -142 -106 -219.5t-297 -77.5q-202 0 -316 65v143q74 -38 158 -59t162 -21q120 0 185 38.5t65 117.5q0 59 -51.5 101.5t-200.5 99.5q-142 53 -202 92.5t-89.5 89.5t-29.5 120q0 124 101.5 196t277.5 72q165 0 322 -66l-55 -126q-153 63 -278 63
q-109 0 -165 -34t-56 -95q0 -41 21 -69.5t67.5 -54.5t178.5 -75q181 -66 244.5 -133t63.5 -168zM345 1176q45 57 96.5 139t80.5 142h188v-19q-41 -61 -121.5 -149t-140.5 -136h-103v23z" />
    <glyph glyph-name="Scircumflex" unicode="&#x15c;" horiz-adv-x="1044" 
d="M953 361q0 -179 -130 -279.5t-353 -100.5q-242 0 -372 63v152q84 -35 182.5 -55.5t194.5 -20.5q158 0 238 60t80 166q0 71 -28.5 116t-94.5 83t-202 87q-189 67 -270.5 160t-81.5 243q0 157 118 249.5t312 92.5q203 0 372 -74l-49 -137q-168 70 -327 70
q-125 0 -195.5 -54t-70.5 -149q0 -71 26 -116t87.5 -82.5t189.5 -83.5q213 -76 293.5 -163t80.5 -227zM229 1488q118 126 165.5 185.5t68.5 97.5h154q21 -39 71.5 -100.5t166.5 -182.5v-21h-111q-81 51 -205 172q-126 -124 -203 -172h-107v21z" />
    <glyph glyph-name="scircumflex" unicode="&#x15d;" horiz-adv-x="907" 
d="M820 278q0 -142 -106 -219.5t-297 -77.5q-202 0 -316 65v143q74 -38 158 -59t162 -21q120 0 185 38.5t65 117.5q0 59 -51.5 101.5t-200.5 99.5q-142 53 -202 92.5t-89.5 89.5t-29.5 120q0 124 101.5 196t277.5 72q165 0 322 -66l-55 -126q-153 63 -278 63
q-109 0 -165 -34t-56 -95q0 -41 21 -69.5t67.5 -54.5t178.5 -75q181 -66 244.5 -133t63.5 -168zM151 1174q118 126 165.5 185.5t68.5 97.5h154q21 -39 71.5 -100.5t166.5 -182.5v-21h-111q-81 51 -205 172q-126 -124 -203 -172h-107v21z" />
    <glyph glyph-name="Scedilla" unicode="&#x15e;" horiz-adv-x="1044" 
d="M953 361q0 -179 -130 -279.5t-353 -100.5q-242 0 -372 63v152q84 -35 182.5 -55.5t194.5 -20.5q158 0 238 60t80 166q0 71 -28.5 116t-94.5 83t-202 87q-189 67 -270.5 160t-81.5 243q0 157 118 249.5t312 92.5q203 0 372 -74l-49 -137q-168 70 -327 70
q-125 0 -195.5 -54t-70.5 -149q0 -71 26 -116t87.5 -82.5t189.5 -83.5q213 -76 293.5 -163t80.5 -227zM679 -268q0 -90 -71 -139.5t-210 -49.5q-48 0 -90 8v99q42 -8 97 -8q73 0 111 19t38 69q0 40 -37 64.5t-138 40.5l82 165h102l-51 -107q167 -36 167 -161z" />
    <glyph glyph-name="scedilla" unicode="&#x15f;" horiz-adv-x="907" 
d="M820 278q0 -142 -106 -219.5t-297 -77.5q-202 0 -316 65v143q74 -38 158 -59t162 -21q120 0 185 38.5t65 117.5q0 59 -51.5 101.5t-200.5 99.5q-142 53 -202 92.5t-89.5 89.5t-29.5 120q0 124 101.5 196t277.5 72q165 0 322 -66l-55 -126q-153 63 -278 63
q-109 0 -165 -34t-56 -95q0 -41 21 -69.5t67.5 -54.5t178.5 -75q181 -66 244.5 -133t63.5 -168zM603 -268q0 -90 -71 -139.5t-210 -49.5q-48 0 -90 8v99q42 -8 97 -8q73 0 111 19t38 69q0 40 -37 64.5t-138 40.5l82 165h102l-51 -107q167 -36 167 -161z" />
    <glyph glyph-name="Scaron" unicode="&#x160;" horiz-adv-x="1044" 
d="M953 361q0 -179 -130 -279.5t-353 -100.5q-242 0 -372 63v152q84 -35 182.5 -55.5t194.5 -20.5q158 0 238 60t80 166q0 71 -28.5 116t-94.5 83t-202 87q-189 67 -270.5 160t-81.5 243q0 157 118 249.5t312 92.5q203 0 372 -74l-49 -137q-168 70 -327 70
q-125 0 -195.5 -54t-70.5 -149q0 -71 26 -116t87.5 -82.5t189.5 -83.5q213 -76 293.5 -163t80.5 -227zM223 1771h107q106 -69 203 -175q121 120 205 175h111v-23l-61 -63q-134 -138 -177 -218h-154q-21 38 -68.5 96.5t-165.5 184.5v23z" />
    <glyph glyph-name="scaron" unicode="&#x161;" horiz-adv-x="907" 
d="M820 278q0 -142 -106 -219.5t-297 -77.5q-202 0 -316 65v143q74 -38 158 -59t162 -21q120 0 185 38.5t65 117.5q0 59 -51.5 101.5t-200.5 99.5q-142 53 -202 92.5t-89.5 89.5t-29.5 120q0 124 101.5 196t277.5 72q165 0 322 -66l-55 -126q-153 63 -278 63
q-109 0 -165 -34t-56 -95q0 -41 21 -69.5t67.5 -54.5t178.5 -75q181 -66 244.5 -133t63.5 -168zM153 1457h107q106 -69 203 -175q121 120 205 175h111v-23l-61 -63q-134 -138 -177 -218h-154q-21 38 -68.5 96.5t-165.5 184.5v23z" />
    <glyph glyph-name="Tcommaaccent" unicode="&#x21a;" horiz-adv-x="1052" 
d="M605 0h-158v1218h-430v140h1018v-140h-430v-1218zM366 -397q26 59 49.5 145.5t30.5 135.5h156v-17q-11 -47 -56.5 -136.5t-96.5 -151.5h-83v24z" />
    <glyph glyph-name="tcommaaccent" unicode="&#x21b;" horiz-adv-x="671" 
d="M492 109q41 0 79 6t61 12v-118q-26 -12 -74.5 -20t-87.5 -8q-295 0 -295 312v605h-146v74l146 64l65 218h89v-236h295v-120h-295v-599q0 -92 43.5 -141t119.5 -49zM226 -397q26 59 49.5 145.5t30.5 135.5h156v-17q-11 -47 -56.5 -136.5t-96.5 -151.5h-83v24z" />
    <glyph glyph-name="Tcaron" unicode="&#x164;" horiz-adv-x="1052" 
d="M605 0h-158v1218h-430v140h1018v-140h-430v-1218zM216 1771h107q106 -69 203 -175q121 120 205 175h111v-23l-61 -63q-134 -138 -177 -218h-154q-21 38 -68.5 96.5t-165.5 184.5v23z" />
    <glyph glyph-name="tcaron" unicode="&#x165;" horiz-adv-x="671" 
d="M492 109q41 0 79 6t61 12v-118q-26 -12 -74.5 -20t-87.5 -8q-295 0 -295 312v605h-146v74l146 64l65 218h89v-236h295v-120h-295v-599q0 -92 43.5 -141t119.5 -49zM456 1164q18 51 36 128.5t27 152.5h156v-17q-10 -47 -51 -134.5t-84 -152.5h-84v23z" />
    <glyph glyph-name="Tbar" unicode="&#x166;" horiz-adv-x="1052" 
d="M447 757v461h-430v140h1018v-140h-430v-461h287v-131h-287v-626h-158v626h-291v131h291z" />
    <glyph glyph-name="tbar" unicode="&#x167;" horiz-adv-x="671" 
d="M497 109q79 0 135 18v-118q-30 -13 -79.5 -20.5t-88.5 -7.5q-289 0 -289 324v236h-131v119h131v238h-146v74l146 64l65 218h89v-236h295v-120h-295v-238h279v-119h-279v-227q0 -205 168 -205z" />
    <glyph glyph-name="Utilde" unicode="&#x168;" horiz-adv-x="1385" 
d="M1212 1358v-879q0 -232 -140.5 -365t-385.5 -133t-379 134t-134 368v875h158v-886q0 -170 92.5 -261t273.5 -91q171 0 264 91.5t93 262.5v884h158zM835 1468q-40 0 -78 17.5t-75 38.5t-70.5 38t-65.5 17q-46 0 -70 -28t-37 -84h-91q12 112 65.5 175.5t138.5 63.5
q42 0 82 -17t76.5 -38t69.5 -38t63 -17q46 0 68 27t36 85h92q-12 -112 -64.5 -176t-139.5 -64z" />
    <glyph glyph-name="utilde" unicode="&#x169;" horiz-adv-x="1167" 
d="M308 1018v-660q0 -125 57 -186t177 -61q160 0 234 87t74 285v535h154v-1018h-127l-23 137h-8q-47 -76 -131 -116t-192 -40q-186 0 -278.5 88.5t-92.5 282.5v666h156zM724 1154q-40 0 -78 17.5t-75 38.5t-70.5 38t-65.5 17q-46 0 -70 -28t-37 -84h-91q12 112 65.5 175.5
t138.5 63.5q42 0 82 -17t76.5 -38t69.5 -38t63 -17q46 0 68 27t36 85h92q-12 -112 -64.5 -176t-139.5 -64z" />
    <glyph glyph-name="Umacron" unicode="&#x16a;" horiz-adv-x="1385" 
d="M1212 1358v-879q0 -232 -140.5 -365t-385.5 -133t-379 134t-134 368v875h158v-886q0 -170 92.5 -261t273.5 -91q171 0 264 91.5t93 262.5v884h158zM415 1594h557v-127h-557v127z" />
    <glyph glyph-name="umacron" unicode="&#x16b;" horiz-adv-x="1167" 
d="M308 1018v-660q0 -125 57 -186t177 -61q160 0 234 87t74 285v535h154v-1018h-127l-23 137h-8q-47 -76 -131 -116t-192 -40q-186 0 -278.5 88.5t-92.5 282.5v666h156zM303 1280h557v-127h-557v127z" />
    <glyph glyph-name="Ubreve" unicode="&#x16c;" horiz-adv-x="1385" 
d="M1212 1358v-879q0 -232 -140.5 -365t-385.5 -133t-379 134t-134 368v875h158v-886q0 -170 92.5 -261t273.5 -91q171 0 264 91.5t93 262.5v884h158zM684 1467q-130 0 -202.5 63.5t-80.5 184.5h97q5 -45 24 -71t53 -38t113 -12q94 0 138.5 29.5t53.5 91.5h97
q-9 -117 -86.5 -182.5t-206.5 -65.5z" />
    <glyph glyph-name="ubreve" unicode="&#x16d;" horiz-adv-x="1167" 
d="M308 1018v-660q0 -125 57 -186t177 -61q160 0 234 87t74 285v535h154v-1018h-127l-23 137h-8q-47 -76 -131 -116t-192 -40q-186 0 -278.5 88.5t-92.5 282.5v666h156zM572 1153q-130 0 -202.5 63.5t-80.5 184.5h97q5 -45 24 -71t53 -38t113 -12q94 0 138.5 29.5t53.5 91.5
h97q-9 -117 -86.5 -182.5t-206.5 -65.5z" />
    <glyph glyph-name="Uring" unicode="&#x16e;" horiz-adv-x="1385" 
d="M1212 1358v-879q0 -232 -140.5 -365t-385.5 -133t-379 134t-134 368v875h158v-886q0 -170 92.5 -261t273.5 -91q171 0 264 91.5t93 262.5v884h158zM900 1668q0 -91 -57 -146t-152 -55q-94 0 -149.5 54t-55.5 145t56 144.5t149 53.5q94 0 151.5 -55t57.5 -141zM800 1666
q0 52 -31 80.5t-78 28.5t-78 -28.5t-31 -80.5t28 -80t81 -28q48 0 78.5 28t30.5 80z" />
    <glyph glyph-name="uring" unicode="&#x16f;" horiz-adv-x="1167" 
d="M308 1018v-660q0 -125 57 -186t177 -61q160 0 234 87t74 285v535h154v-1018h-127l-23 137h-8q-47 -76 -131 -116t-192 -40q-186 0 -278.5 88.5t-92.5 282.5v666h156zM788 1354q0 -91 -57 -146t-152 -55q-94 0 -149.5 54t-55.5 145t56 144.5t149 53.5q94 0 151.5 -55
t57.5 -141zM688 1352q0 52 -31 80.5t-78 28.5t-78 -28.5t-31 -80.5t28 -80t81 -28q48 0 78.5 28t30.5 80z" />
    <glyph glyph-name="Uhungarumlaut" unicode="&#x170;" horiz-adv-x="1385" 
d="M1212 1358v-879q0 -232 -140.5 -365t-385.5 -133t-379 134t-134 368v875h158v-886q0 -170 92.5 -261t273.5 -91q171 0 264 91.5t93 262.5v884h158zM424 1490q33 44 84 130.5t80 150.5h173v-19q-35 -59 -114.5 -150t-132.5 -135h-90v23zM755 1490q46 63 92.5 145t71.5 136
h172v-19q-34 -59 -113.5 -150t-133.5 -135h-89v23z" />
    <glyph glyph-name="uhungarumlaut" unicode="&#x171;" horiz-adv-x="1167" 
d="M308 1018v-660q0 -125 57 -186t177 -61q160 0 234 87t74 285v535h154v-1018h-127l-23 137h-8q-47 -76 -131 -116t-192 -40q-186 0 -278.5 88.5t-92.5 282.5v666h156zM312 1176q33 44 84 130.5t80 150.5h173v-19q-35 -59 -114.5 -150t-132.5 -135h-90v23zM643 1176
q46 63 92.5 145t71.5 136h172v-19q-34 -59 -113.5 -150t-133.5 -135h-89v23z" />
    <glyph glyph-name="Uogonek" unicode="&#x172;" horiz-adv-x="1385" 
d="M1212 1358v-879q0 -232 -140.5 -365t-385.5 -133t-379 134t-134 368v875h158v-886q0 -170 92.5 -261t273.5 -91q171 0 264 91.5t93 262.5v884h158zM671 -221q0 -87 88 -87q39 0 90 12v-101q-61 -17 -116 -17q-193 0 -193 174q0 65 40 128t107 112h112q-64 -61 -96 -112
t-32 -109z" />
    <glyph glyph-name="uogonek" unicode="&#x173;" horiz-adv-x="1167" 
d="M308 1018v-660q0 -125 57 -186t177 -61q160 0 234 87t74 285v535h154v-1018h-127l-23 137h-8q-47 -76 -131 -116t-192 -40q-186 0 -278.5 88.5t-92.5 282.5v666h156zM867 -221q0 -87 88 -87q39 0 90 12v-101q-61 -17 -116 -17q-193 0 -193 174q0 65 40 128t107 112h112
q-64 -61 -96 -112t-32 -109z" />
    <glyph glyph-name="Wcircumflex" unicode="&#x174;" horiz-adv-x="1761" 
d="M1372 0h-156l-274 909q-20 61 -44 152.5t-25 110.5q-20 -123 -65 -268l-266 -904h-156l-361 1358h167l215 -839q44 -176 65 -319q25 170 74 332l243 826h168l255 -833q45 -144 75 -325q18 132 67 321l214 837h167zM565 1488q118 126 165.5 185.5t68.5 97.5h154
q21 -39 71.5 -100.5t166.5 -182.5v-21h-111q-81 51 -205 172q-126 -124 -203 -172h-107v21z" />
    <glyph glyph-name="wcircumflex" unicode="&#x175;" horiz-adv-x="1479" 
d="M995 0l-187 597q-18 55 -66 249h-7q-38 -162 -65 -251l-193 -595h-178l-278 1018h162q98 -384 149.5 -584.5t59.5 -270.5h7q11 53 33.5 137t39.5 134l186 584h168l182 -584q52 -160 70 -269h8q3 34 19.5 103.5t193.5 749.5h160l-281 -1018h-183zM428 1174
q118 126 165.5 185.5t68.5 97.5h154q21 -39 71.5 -100.5t166.5 -182.5v-21h-111q-81 51 -205 172q-126 -124 -203 -172h-107v21z" />
    <glyph glyph-name="Ycircumflex" unicode="&#x176;" horiz-adv-x="1065" 
d="M532 679l362 679h171l-453 -831v-527h-160v519l-452 839h173zM219 1488q118 126 165.5 185.5t68.5 97.5h154q21 -39 71.5 -100.5t166.5 -182.5v-21h-111q-81 51 -205 172q-126 -124 -203 -172h-107v21z" />
    <glyph glyph-name="ycircumflex" unicode="&#x177;" horiz-adv-x="958" 
d="M2 1018h165l223 -581q73 -198 91 -287h8q12 48 50.5 162.5t251.5 705.5h166l-438 -1159q-65 -172 -152 -244t-213 -72q-70 0 -139 16v123q51 -11 114 -11q159 0 227 179l56 144zM172 1174q118 126 165.5 185.5t68.5 97.5h154q21 -39 71.5 -100.5t166.5 -182.5v-21h-111
q-81 51 -205 172q-126 -124 -203 -172h-107v21z" />
    <glyph glyph-name="Ydieresis" unicode="&#x178;" horiz-adv-x="1065" 
d="M532 679l362 679h171l-453 -831v-527h-160v519l-452 839h173zM273 1608q0 48 24.5 69.5t59.5 21.5t60.5 -21.5t25.5 -69.5q0 -47 -25.5 -69.5t-60.5 -22.5t-59.5 22.5t-24.5 69.5zM627 1608q0 48 24.5 69.5t58.5 21.5q35 0 60.5 -21.5t25.5 -69.5q0 -47 -25.5 -69.5
t-60.5 -22.5q-34 0 -58.5 22.5t-24.5 69.5z" />
    <glyph glyph-name="Zacute" unicode="&#x179;" horiz-adv-x="1086" 
d="M1010 0h-934v124l721 1092h-699v142h891v-124l-721 -1091h742v-143zM426 1490q45 57 96.5 139t80.5 142h188v-19q-41 -61 -121.5 -149t-140.5 -136h-103v23z" />
    <glyph glyph-name="zacute" unicode="&#x17a;" horiz-adv-x="890" 
d="M814 0h-738v105l556 793h-521v120h690v-120l-548 -778h561v-120zM343 1176q45 57 96.5 139t80.5 142h188v-19q-41 -61 -121.5 -149t-140.5 -136h-103v23z" />
    <glyph glyph-name="Zdotaccent" unicode="&#x17b;" horiz-adv-x="1086" 
d="M1010 0h-934v124l721 1092h-699v142h891v-124l-721 -1091h742v-143zM451 1608q0 53 26 77.5t65 24.5q38 0 64.5 -25t26.5 -77t-26.5 -77.5t-64.5 -25.5q-39 0 -65 25.5t-26 77.5z" />
    <glyph glyph-name="zdotaccent" unicode="&#x17c;" horiz-adv-x="890" 
d="M814 0h-738v105l556 793h-521v120h690v-120l-548 -778h561v-120zM357 1294q0 53 26 77.5t65 24.5q38 0 64.5 -25t26.5 -77t-26.5 -77.5t-64.5 -25.5q-39 0 -65 25.5t-26 77.5z" />
    <glyph glyph-name="Zcaron" unicode="&#x17d;" horiz-adv-x="1086" 
d="M1010 0h-934v124l721 1092h-699v142h891v-124l-721 -1091h742v-143zM231 1771h107q106 -69 203 -175q121 120 205 175h111v-23l-61 -63q-134 -138 -177 -218h-154q-21 38 -68.5 96.5t-165.5 184.5v23z" />
    <glyph glyph-name="zcaron" unicode="&#x17e;" horiz-adv-x="890" 
d="M814 0h-738v105l556 793h-521v120h690v-120l-548 -778h561v-120zM136 1457h107q106 -69 203 -175q121 120 205 175h111v-23l-61 -63q-134 -138 -177 -218h-154q-21 38 -68.5 96.5t-165.5 184.5v23z" />
    <glyph glyph-name="longs" unicode="&#x17f;" horiz-adv-x="608" 
d="M318 0h-155v1096q0 359 334 359q89 0 182 -34l-40 -124q-81 28 -149 28q-90 0 -131 -57t-41 -170v-1098z" />
    <glyph glyph-name="florin" unicode="&#x192;" horiz-adv-x="1098" 
d="M305 -457q-64 0 -124 18v129q65 -17 122 -17q88 0 123.5 47.5t35.5 152.5v903h-206v70l206 56v129q0 181 75.5 263.5t244.5 82.5q79 0 190 -40l-20 -59l-20 -60q-94 29 -150 29q-91 0 -128 -48.5t-37 -163.5v-139h262v-120h-259v-900q0 -170 -73 -251.5t-242 -81.5z" />
    <glyph glyph-name="Aringacute" unicode="&#x1fa;" horiz-adv-x="1207" 
d="M810 1328q0 -123 -97 -175l494 -1153h-161l-164 372h-566l-154 -372h-162l494 1151q-98 48 -98 174q0 94 56.5 147t148.5 53q93 0 151 -54.5t58 -142.5zM835 515l-165 402q-24 54 -67 188q-13 -44 -35.5 -107t-30.5 -85l-165 -398h463zM514 1590q45 55 92.5 124t68.5 108
h189v-15q-30 -42 -108 -117t-139 -117h-103v17zM710 1325q0 53 -31 81t-78 28t-78 -28t-31 -81q0 -51 28 -79t81 -28q49 0 79 28t30 79z" />
    <glyph glyph-name="aringacute" unicode="&#x1fb;" 
d="M437 1628v15q43 39 92.5 94.5t69.5 84.5h241v-11q-19 -22 -95 -71t-195 -112h-113zM789 0l-30 145h-8q-76 -96 -151.5 -130t-189.5 -34q-151 0 -237 78t-86 222q0 309 499 324l167 5v63q0 121 -55 177.5t-179 56.5q-89 0 -166.5 -24t-143.5 -54l-51 118q78 40 174.5 64
t190.5 24q194 0 287.5 -81t93.5 -259v-695h-115zM441 109q144 0 226 79t82 221v92l-154 -7q-184 -6 -265 -57t-81 -157q0 -84 50.5 -127.5t141.5 -43.5zM746 1354q0 -91 -57 -146t-152 -55q-94 0 -150 53.5t-56 145.5q0 91 56 144.5t150 53.5t151.5 -55t57.5 -141zM645 1352
q0 52 -30.5 80.5t-77.5 28.5q-48 0 -78.5 -28.5t-30.5 -80.5t28 -80t81 -28q48 0 78 28t30 80z" />
    <glyph glyph-name="AEacute" unicode="&#x1fc;" horiz-adv-x="1661" 
d="M1546 0h-696v432h-478l-210 -432h-164l648 1358h900v-140h-538v-438h502v-139h-502v-500h538v-141zM436 574h414v644h-110zM911 1490q45 57 96.5 139t80.5 142h188v-19q-41 -61 -121.5 -149t-140.5 -136h-103v23z" />
    <glyph glyph-name="aeacute" unicode="&#x1fd;" horiz-adv-x="1632" 
d="M87 281q0 150 115.5 233t351.5 91l170 5v63q0 120 -53.5 177t-164.5 57q-134 0 -285 -78l-48 118q68 38 160.5 63t183.5 25q121 0 197.5 -40.5t114.5 -128.5q50 81 129 125.5t182 44.5q178 0 285.5 -124t107.5 -330v-99h-651q8 -367 299 -367q85 0 158 16.5t151 52.5
v-138q-80 -35 -149.5 -50.5t-162.5 -15.5q-269 0 -385 217q-75 -118 -166.5 -167.5t-216.5 -49.5q-151 0 -237 79t-86 221zM249 280q0 -89 49.5 -130t131.5 -41q135 0 213 78.5t78 221.5v92l-147 -7q-173 -7 -249 -58t-76 -156zM1138 907q-113 0 -177.5 -77t-74.5 -224h482
q0 145 -59.5 223t-170.5 78zM726 1176q45 57 96.5 139t80.5 142h188v-19q-41 -61 -121.5 -149t-140.5 -136h-103v23z" />
    <glyph glyph-name="Oslashacute" unicode="&#x1fe;" horiz-adv-x="1481" 
d="M1365 681q0 -326 -164.5 -513t-458.5 -187q-218 0 -356 93l-93 -131l-112 74l100 143q-165 184 -165 523q0 331 163.5 513.5t464.5 182.5q194 0 340 -87l90 125l111 -74l-98 -138q178 -187 178 -524zM1198 681q0 252 -102 395l-624 -880q107 -76 270 -76q226 0 341 142
t115 419zM283 681q0 -244 94 -387l621 876q-98 68 -254 68q-226 0 -343.5 -142.5t-117.5 -414.5zM626 1490q45 57 96.5 139t80.5 142h188v-19q-41 -61 -121.5 -149t-140.5 -136h-103v23z" />
    <glyph glyph-name="oslashacute" unicode="&#x1ff;" horiz-adv-x="1149" 
d="M1042 510q0 -249 -125.5 -389t-346.5 -140q-143 0 -247 65l-78 -109l-106 72l88 122q-120 141 -120 379q0 249 124.5 387.5t345.5 138.5q143 0 250 -70l78 110l109 -70l-90 -124q118 -141 118 -372zM267 510q0 -159 49 -254l432 600q-70 49 -176 49q-151 0 -228 -99
t-77 -296zM882 510q0 152 -47 245l-432 -597q66 -47 171 -47q151 0 229.5 101.5t78.5 297.5zM445 1176q45 57 96.5 139t80.5 142h188v-19q-41 -61 -121.5 -149t-140.5 -136h-103v23z" />
    <glyph glyph-name="Scommaaccent" unicode="&#x218;" horiz-adv-x="1044" 
d="M953 361q0 -179 -130 -279.5t-353 -100.5q-242 0 -372 63v152q84 -35 182.5 -55.5t194.5 -20.5q158 0 238 60t80 166q0 71 -28.5 116t-94.5 83t-202 87q-189 67 -270.5 160t-81.5 243q0 157 118 249.5t312 92.5q203 0 372 -74l-49 -137q-168 70 -327 70
q-125 0 -195.5 -54t-70.5 -149q0 -71 26 -116t87.5 -82.5t189.5 -83.5q213 -76 293.5 -163t80.5 -227zM349 -397q26 59 49.5 145.5t30.5 135.5h156v-17q-11 -47 -56.5 -136.5t-96.5 -151.5h-83v24z" />
    <glyph glyph-name="scommaaccent" unicode="&#x219;" horiz-adv-x="907" 
d="M820 278q0 -142 -106 -219.5t-297 -77.5q-202 0 -316 65v143q74 -38 158 -59t162 -21q120 0 185 38.5t65 117.5q0 59 -51.5 101.5t-200.5 99.5q-142 53 -202 92.5t-89.5 89.5t-29.5 120q0 124 101.5 196t277.5 72q165 0 322 -66l-55 -126q-153 63 -278 63
q-109 0 -165 -34t-56 -95q0 -41 21 -69.5t67.5 -54.5t178.5 -75q181 -66 244.5 -133t63.5 -168zM277 -397q26 59 49.5 145.5t30.5 135.5h156v-17q-11 -47 -56.5 -136.5t-96.5 -151.5h-83v24z" />
    <glyph glyph-name="circumflex" unicode="&#x2c6;" horiz-adv-x="1126" 
d="M249 1174q118 126 165.5 185.5t68.5 97.5h154q21 -39 71.5 -100.5t166.5 -182.5v-21h-111q-81 51 -205 172q-126 -124 -203 -172h-107v21z" />
    <glyph glyph-name="caron" unicode="&#x2c7;" horiz-adv-x="1126" 
d="M249 1457h107q106 -69 203 -175q121 120 205 175h111v-23l-61 -63q-134 -138 -177 -218h-154q-21 38 -68.5 96.5t-165.5 184.5v23z" />
    <glyph glyph-name="macron" unicode="&#x2c9;" horiz-adv-x="1116" 
d="M280 1280h557v-127h-557v127z" />
    <glyph glyph-name="breve" unicode="&#x2d8;" horiz-adv-x="1126" 
d="M555 1153q-130 0 -202.5 63.5t-80.5 184.5h97q5 -45 24 -71t53 -38t113 -12q94 0 138.5 29.5t53.5 91.5h97q-9 -117 -86.5 -182.5t-206.5 -65.5z" />
    <glyph glyph-name="dotaccent" unicode="&#x2d9;" horiz-adv-x="481" 
d="M150 1294q0 53 26 77.5t65 24.5q38 0 64.5 -25t26.5 -77t-26.5 -77.5t-64.5 -25.5q-39 0 -65 25.5t-26 77.5z" />
    <glyph glyph-name="ring" unicode="&#x2da;" horiz-adv-x="1098" 
d="M755 1354q0 -91 -57 -146t-152 -55q-94 0 -149.5 54t-55.5 145t56 144.5t149 53.5q94 0 151.5 -55t57.5 -141zM655 1352q0 52 -31 80.5t-78 28.5t-78 -28.5t-31 -80.5t28 -80t81 -28q48 0 78.5 28t30.5 80z" />
    <glyph glyph-name="ogonek" unicode="&#x2db;" horiz-adv-x="374" 
d="M165 -221q0 -87 88 -87q39 0 90 12v-101q-61 -17 -116 -17q-193 0 -193 174q0 65 40 128t107 112h112q-64 -61 -96 -112t-32 -109z" />
    <glyph glyph-name="tilde" unicode="&#x2dc;" horiz-adv-x="1126" 
d="M732 1154q-40 0 -78 17.5t-75 38.5t-70.5 38t-65.5 17q-46 0 -70 -28t-37 -84h-91q12 112 65.5 175.5t138.5 63.5q42 0 82 -17t76.5 -38t69.5 -38t63 -17q46 0 68 27t36 85h92q-12 -112 -64.5 -176t-139.5 -64z" />
    <glyph glyph-name="hungarumlaut" unicode="&#x2dd;" horiz-adv-x="1098" 
d="M215 1176q33 44 84 130.5t80 150.5h173v-19q-35 -59 -114.5 -150t-132.5 -135h-90v23zM546 1176q46 63 92.5 145t71.5 136h172v-19q-34 -59 -113.5 -150t-133.5 -135h-89v23z" />
    <glyph glyph-name="tonos" unicode="&#x384;" horiz-adv-x="1098" 
d="M472 1179q25 67 49.5 172.5t35.5 181.5h171v-21q-17 -69 -67.5 -179t-95.5 -180h-93v26z" />
    <glyph glyph-name="dieresistonos" unicode="&#x385;" horiz-adv-x="1098" 
d="M475 1312q61 157 90 282h175v-19q-30 -62 -86.5 -145t-103.5 -140h-75v22zM263 1294q0 48 24 69.5t59 21.5q38 0 61 -24.5t23 -66.5q0 -47 -25.5 -69.5t-58.5 -22.5q-35 0 -59 22.5t-24 69.5zM668 1294q0 48 24 69.5t59 21.5q38 0 61 -24.5t23 -66.5q0 -47 -25.5 -69.5
t-58.5 -22.5q-35 0 -59 22.5t-24 69.5z" />
    <glyph glyph-name="Alphatonos" unicode="&#x386;" horiz-adv-x="1204" 
d="M1040 0l-169 432h-544l-167 -432h-160l537 1363h133l534 -1363h-164zM822 574l-158 421q-31 80 -63 196q-21 -90 -59 -196l-159 -421h439zM26 1081q25 67 49.5 172.5t35.5 181.5h171v-21q-17 -69 -67.5 -179t-95.5 -180h-93v26z" />
    <glyph glyph-name="anoteleia" unicode="&#x387;" horiz-adv-x="506" 
d="M141 671q0 62 29 94t81 32q54 0 84 -32t30 -94q0 -60 -30.5 -92.5t-83.5 -32.5q-48 0 -79 29.5t-31 95.5z" />
    <glyph glyph-name="Epsilontonos" unicode="&#x388;" horiz-adv-x="1176" 
d="M1060 0h-757v1358h757v-140h-599v-438h562v-139h-562v-500h599v-141zM-41 1081q25 67 49.5 172.5t35.5 181.5h171v-21q-17 -69 -67.5 -179t-95.5 -180h-93v26z" />
    <glyph glyph-name="Etatonos" unicode="&#x389;" horiz-adv-x="1543" 
d="M1357 0h-158v639h-715v-639h-158v1358h158v-578h715v578h158v-1358zM-41 1081q25 67 49.5 172.5t35.5 181.5h171v-21q-17 -69 -67.5 -179t-95.5 -180h-93v26z" />
    <glyph glyph-name="Iotatonos.alt" horiz-adv-x="854" 
d="M776 0h-477v91l160 33v1108l-160 35v91h477v-91l-159 -35v-1108l159 -33v-91zM-26 1081q25 67 49.5 172.5t35.5 181.5h171v-21q-17 -69 -67.5 -179t-95.5 -180h-93v26z" />
    <glyph glyph-name="Omicrontonos" unicode="&#x38c;" horiz-adv-x="1546" 
d="M1428 681q0 -326 -164.5 -513t-458.5 -187q-300 0 -463 183.5t-163 518.5q0 331 163.5 513.5t464.5 182.5q292 0 456.5 -185.5t164.5 -512.5zM346 681q0 -276 117.5 -418.5t341.5 -142.5q226 0 341 142t115 419q0 274 -114.5 415.5t-339.5 141.5q-226 0 -343.5 -142.5
t-117.5 -414.5zM-26 1081q25 67 49.5 172.5t35.5 181.5h171v-21q-17 -69 -67.5 -179t-95.5 -180h-93v26z" />
    <glyph glyph-name="Upsilontonos" unicode="&#x38e;" horiz-adv-x="1312" 
d="M779 679l362 679h171l-453 -831v-527h-160v519l-452 839h173zM-41 1081q25 67 49.5 172.5t35.5 181.5h171v-21q-17 -69 -67.5 -179t-95.5 -180h-93v26z" />
    <glyph glyph-name="Omegatonos" unicode="&#x38f;" horiz-adv-x="1546" 
d="M803 1238q-221 0 -337 -119.5t-116 -354.5q0 -209 80 -363.5t248 -276.5v-124h-545v141h338q-140 110 -214 272.5t-74 350.5q0 288 164 451.5t456 163.5t456.5 -161t164.5 -452q0 -192 -73.5 -352.5t-213.5 -272.5h337v-141h-544v124q170 124 248.5 279t78.5 361
q0 234 -115.5 354t-338.5 120zM-26 1081q25 67 49.5 172.5t35.5 181.5h171v-21q-17 -69 -67.5 -179t-95.5 -180h-93v26z" />
    <glyph glyph-name="iotadieresistonos" unicode="&#x390;" horiz-adv-x="645" 
d="M310 1018v-719q0 -97 34 -143.5t115 -46.5q34 0 81 6t72 12v-118q-29 -12 -77.5 -20t-95.5 -8q-148 0 -215.5 78t-67.5 235v724h154zM191 1312q61 157 90 282h175v-19q-30 -62 -86.5 -145t-103.5 -140h-75v22zM-21 1294q0 48 24 69.5t59 21.5q38 0 61 -24.5t23 -66.5
q0 -47 -25.5 -69.5t-58.5 -22.5q-35 0 -59 22.5t-24 69.5zM384 1294q0 48 24 69.5t59 21.5q38 0 61 -24.5t23 -66.5q0 -47 -25.5 -69.5t-58.5 -22.5q-35 0 -59 22.5t-24 69.5z" />
    <glyph glyph-name="Alpha" unicode="&#x391;" horiz-adv-x="1204" 
d="M1040 0l-169 432h-544l-167 -432h-160l537 1363h133l534 -1363h-164zM822 574l-158 421q-31 80 -63 196q-21 -90 -59 -196l-159 -421h439z" />
    <glyph glyph-name="Beta" unicode="&#x392;" horiz-adv-x="1232" 
d="M187 1358h383q270 0 391 -81t121 -255q0 -121 -67.5 -199.5t-196.5 -101.5v-10q309 -53 309 -325q0 -182 -123 -284t-344 -102h-473v1358zM345 776h260q167 0 240 52.5t73 177.5q0 114 -81.5 164.5t-259.5 50.5h-232v-445zM345 643v-508h283q164 0 247 63.5t83 198.5
q0 127 -85 186.5t-258 59.5h-270z" />
    <glyph glyph-name="Gamma" unicode="&#x393;" horiz-adv-x="989" 
d="M944 1358v-142h-599v-1216h-158v1358h757z" />
    <glyph glyph-name="uni0394" unicode="&#x394;" horiz-adv-x="1088" 
d="M36 97l430 1261h154l432 -1263v-95h-1016v97zM542 1178q-56 -209 -93 -322l-242 -715h670l-240 707q-63 188 -95 330z" />
    <glyph glyph-name="Epsilon" unicode="&#x395;" 
d="M944 0h-757v1358h757v-140h-599v-438h562v-139h-562v-500h599v-141z" />
    <glyph glyph-name="Zeta" unicode="&#x396;" horiz-adv-x="1086" 
d="M1010 0h-934v124l721 1092h-699v142h891v-124l-721 -1091h742v-143z" />
    <glyph glyph-name="Eta" unicode="&#x397;" horiz-adv-x="1403" 
d="M1218 0h-158v639h-715v-639h-158v1358h158v-578h715v578h158v-1358z" />
    <glyph glyph-name="Theta" unicode="&#x398;" horiz-adv-x="1481" 
d="M449 761h584v-139h-584v139zM1365 681q0 -326 -164.5 -513t-458.5 -187q-300 0 -463 183.5t-163 518.5q0 331 163.5 513.5t464.5 182.5q292 0 456.5 -185.5t164.5 -512.5zM283 681q0 -275 116 -418t343 -143q226 0 341 141t115 420q0 277 -114.5 417t-339.5 140
q-228 0 -344.5 -142t-116.5 -415z" />
    <glyph glyph-name="Iota.alt" horiz-adv-x="633" 
d="M555 0h-477v91l160 33v1108l-160 35v91h477v-91l-159 -35v-1108l159 -33v-91z" />
    <glyph glyph-name="Kappa" unicode="&#x39a;" horiz-adv-x="1167" 
d="M1167 0h-185l-495 658l-142 -126v-532h-158v1358h158v-674l615 674h187l-546 -590z" />
    <glyph glyph-name="Lambda" unicode="&#x39b;" horiz-adv-x="1147" 
d="M1147 0h-169l-307 862q-80 234 -101 317q-30 -129 -96 -315l-305 -864h-169l490 1358h165z" />
    <glyph glyph-name="Mu" unicode="&#x39c;" horiz-adv-x="1717" 
d="M788 0l-461 1204h-8q13 -143 13 -340v-864h-145v1358h237l430 -1120h8l434 1120h235v-1358h-157v875q0 150 13 327h-8l-464 -1202h-127z" />
    <glyph glyph-name="Nu" unicode="&#x39d;" horiz-adv-x="1434" 
d="M1247 0h-180l-742 1140h-7q14 -201 14 -368v-772h-145v1358h178l740 -1135h8q-2 25 -8.5 161t-4.5 195v779h147v-1358z" />
    <glyph glyph-name="Xi" unicode="&#x39e;" horiz-adv-x="1052" 
d="M181 780h690v-139h-690v139zM105 1358h842v-140h-842v140zM985 141v-141h-918v141h918z" />
    <glyph glyph-name="Omicron" unicode="&#x39f;" horiz-adv-x="1481" 
d="M1365 681q0 -326 -164.5 -513t-458.5 -187q-300 0 -463 183.5t-163 518.5q0 331 163.5 513.5t464.5 182.5q292 0 456.5 -185.5t164.5 -512.5zM283 681q0 -276 117.5 -418.5t341.5 -142.5q226 0 341 142t115 419q0 274 -114.5 415.5t-339.5 141.5q-226 0 -343.5 -142.5
t-117.5 -414.5z" />
    <glyph glyph-name="Pi" unicode="&#x3a0;" horiz-adv-x="1387" 
d="M1200 0h-158v1218h-697v-1218h-158v1358h1013v-1358z" />
    <glyph glyph-name="Rho" unicode="&#x3a1;" horiz-adv-x="1145" 
d="M1048 962q0 -206 -141 -317t-403 -111h-159v-534h-158v1358h352q509 0 509 -396zM345 670h142q210 0 303.5 67.5t93.5 217.5q0 134 -88 200t-275 66h-176v-551z" />
    <glyph glyph-name="Sigma" unicode="&#x3a3;" horiz-adv-x="1078" 
d="M69 0v131l446 579l-435 515v133h902v-142h-628l-89 2l427 -507l-447 -570h791v-141h-967z" />
    <glyph glyph-name="Tau" unicode="&#x3a4;" horiz-adv-x="1052" 
d="M605 0h-158v1218h-430v140h1018v-140h-430v-1218z" />
    <glyph glyph-name="Upsilon" unicode="&#x3a5;" horiz-adv-x="1065" 
d="M532 679l362 679h171l-453 -831v-527h-160v519l-452 839h173z" />
    <glyph glyph-name="Phi" unicode="&#x3a6;" horiz-adv-x="1518" 
d="M679 1377h160v-167h65q158 0 275 -63t178.5 -178.5t61.5 -262.5q0 -154 -69 -274.5t-189.5 -181t-283.5 -60.5h-38v-209h-160v209h-42q-163 0 -283 61.5t-188 182t-68 270.5q0 147 63 262t180 179.5t276 64.5h62v167zM839 323h23q187 0 290.5 102t103.5 283
q0 171 -96 269t-268 98h-53v-752zM679 1075h-53q-169 0 -266 -98.5t-97 -268.5q0 -183 103 -284t291 -101h22v752z" />
    <glyph glyph-name="Chi" unicode="&#x3a7;" horiz-adv-x="1098" 
d="M1090 0h-179l-365 597l-371 -597h-168l452 710l-421 648h175l337 -538l340 538h168l-421 -643z" />
    <glyph glyph-name="Psi" unicode="&#x3a8;" horiz-adv-x="1514" 
d="M835 0h-158v414h-42q-163 0 -281.5 57t-185.5 171.5t-67 266.5v449h162v-445q0 -175 96 -268t293 -93h25v806h158v-806h27q196 0 292 92t96 265v449h163v-447q0 -153 -66.5 -268t-187 -172t-282.5 -57h-42v-414z" />
    <glyph glyph-name="uni03A9" unicode="&#x3a9;" horiz-adv-x="1488" 
d="M744 1238q-221 0 -337 -119.5t-116 -354.5q0 -209 80 -363.5t248 -276.5v-124h-545v141h338q-140 110 -214 272.5t-74 350.5q0 288 164 451.5t456 163.5t456.5 -161t164.5 -452q0 -192 -73.5 -352.5t-213.5 -272.5h337v-141h-544v124q170 124 248.5 279t78.5 361
q0 234 -115.5 354t-338.5 120z" />
    <glyph glyph-name="Iotadieresis.alt" horiz-adv-x="633" 
d="M555 0h-477v91l160 33v1108l-160 35v91h477v-91l-159 -35v-1108l159 -33v-91zM56 1608q0 48 24.5 69.5t59.5 21.5t60.5 -21.5t25.5 -69.5q0 -47 -25.5 -69.5t-60.5 -22.5t-59.5 22.5t-24.5 69.5zM410 1608q0 48 24.5 69.5t58.5 21.5q35 0 60.5 -21.5t25.5 -69.5
q0 -47 -25.5 -69.5t-60.5 -22.5q-34 0 -58.5 22.5t-24.5 69.5z" />
    <glyph glyph-name="Upsilondieresis" unicode="&#x3ab;" horiz-adv-x="1065" 
d="M532 679l362 679h171l-453 -831v-527h-160v519l-452 839h173zM271 1608q0 48 24.5 69.5t59.5 21.5t60.5 -21.5t25.5 -69.5q0 -47 -25.5 -69.5t-60.5 -22.5t-59.5 22.5t-24.5 69.5zM625 1608q0 48 24.5 69.5t58.5 21.5q35 0 60.5 -21.5t25.5 -69.5q0 -47 -25.5 -69.5
t-60.5 -22.5q-34 0 -58.5 22.5t-24.5 69.5z" />
    <glyph glyph-name="alphatonos" unicode="&#x3ac;" horiz-adv-x="1162" 
d="M550 111q157 0 226.5 90.5t69.5 292.5v14q0 213 -70.5 305t-227.5 92q-281 0 -281 -401q0 -197 68 -295t215 -98zM527 -19q-199 0 -309.5 138t-110.5 387q0 255 113 392.5t322 137.5q113 0 187.5 -39t124.5 -117h12q22 86 60 138h120q-20 -61 -33 -175.5t-13 -222.5v-407
q0 -106 78 -106q27 0 58 9v-110q-43 -25 -103 -25q-75 0 -116.5 38t-58.5 118h-12q-55 -80 -132.5 -118t-186.5 -38zM499 1179q25 67 49.5 172.5t35.5 181.5h171v-21q-17 -69 -67.5 -179t-95.5 -180h-93v26z" />
    <glyph glyph-name="epsilontonos" unicode="&#x3ad;" horiz-adv-x="904" 
d="M664 595v-131h-137q-289 0 -289 -181q0 -83 68 -128.5t204 -45.5q78 0 155 18t170 62v-138q-127 -70 -333 -70q-195 0 -306.5 78.5t-111.5 216.5q0 91 51 152t171 99v10q-91 26 -140.5 85t-49.5 144q0 124 104 197t282 73q91 0 167.5 -15t169.5 -57l-59 -124
q-87 39 -147.5 52t-133.5 13q-232 0 -232 -150q0 -160 294 -160h103zM420 1179q25 67 49.5 172.5t35.5 181.5h171v-21q-17 -69 -67.5 -179t-95.5 -180h-93v26z" />
    <glyph glyph-name="etatonos" unicode="&#x3ae;" horiz-adv-x="1167" 
d="M860 -457v1115q0 125 -56.5 186t-177.5 61q-160 0 -234 -86t-74 -285v-534h-155v1018h126l25 -139h7q48 75 133.5 116t190.5 41q183 0 276 -88.5t93 -283.5v-1121h-154zM527 1179q25 67 49.5 172.5t35.5 181.5h171v-21q-17 -69 -67.5 -179t-95.5 -180h-93v26z" />
    <glyph glyph-name="iotatonos" unicode="&#x3af;" horiz-adv-x="645" 
d="M310 1018v-719q0 -97 34 -143.5t115 -46.5q34 0 81 6t72 12v-118q-29 -12 -77.5 -20t-95.5 -8q-148 0 -215.5 78t-67.5 235v724h154zM179 1179q25 67 49.5 172.5t35.5 181.5h171v-21q-17 -69 -67.5 -179t-95.5 -180h-93v26z" />
    <glyph glyph-name="upsilondieresistonos" unicode="&#x3b0;" horiz-adv-x="1158" 
d="M582 -19q-214 0 -322 116.5t-108 363.5v557h154v-550q0 -178 73.5 -268.5t215.5 -90.5q155 0 230 110.5t75 343.5q0 121 -13 225t-45 230h155q33 -134 46 -233.5t13 -229.5q0 -295 -120 -434.5t-354 -139.5zM530 1312q61 157 90 282h175v-19q-30 -62 -86.5 -145
t-103.5 -140h-75v22zM318 1294q0 48 24 69.5t59 21.5q38 0 61 -24.5t23 -66.5q0 -47 -25.5 -69.5t-58.5 -22.5q-35 0 -59 22.5t-24 69.5zM723 1294q0 48 24 69.5t59 21.5q38 0 61 -24.5t23 -66.5q0 -47 -25.5 -69.5t-58.5 -22.5q-35 0 -59 22.5t-24 69.5z" />
    <glyph glyph-name="alpha" unicode="&#x3b1;" horiz-adv-x="1162" 
d="M550 111q157 0 226.5 90.5t69.5 292.5v14q0 213 -70.5 305t-227.5 92q-281 0 -281 -401q0 -197 68 -295t215 -98zM527 -19q-199 0 -309.5 138t-110.5 387q0 255 113 392.5t322 137.5q113 0 187.5 -39t124.5 -117h12q22 86 60 138h120q-20 -61 -33 -175.5t-13 -222.5v-407
q0 -106 78 -106q27 0 58 9v-110q-43 -25 -103 -25q-75 0 -116.5 38t-58.5 118h-12q-55 -80 -132.5 -118t-186.5 -38z" />
    <glyph glyph-name="beta" unicode="&#x3b2;" horiz-adv-x="1194" 
d="M612 1455q204 0 320 -96.5t116 -266.5q0 -273 -291 -320v-8q350 -39 350 -380q0 -194 -122.5 -298.5t-343.5 -104.5q-101 0 -175.5 14.5t-147.5 50.5v-503h-155v1475q0 209 117.5 323t331.5 114zM610 1325q-147 0 -219.5 -79.5t-72.5 -233.5v-823q86 -46 161 -63t154 -17
q159 0 239.5 69.5t80.5 215.5t-88.5 222t-252.5 76h-104v132h85q144 0 219.5 68t75.5 196q0 114 -72.5 175.5t-205.5 61.5z" />
    <glyph glyph-name="gamma" unicode="&#x3b3;" horiz-adv-x="974" 
d="M494 -457h-167q0 89 29.5 225.5t69.5 242.5l-417 1007h160l223 -543q87 -218 105 -313h7q5 27 24 93t39 126t237 637h160l-376 -993q-45 -115 -69.5 -250.5t-24.5 -231.5z" />
    <glyph glyph-name="delta" unicode="&#x3b4;" horiz-adv-x="1103" 
d="M506 869q-130 73 -184 146.5t-54 165.5q0 121 90.5 191.5t242.5 70.5q96 0 183.5 -21t204.5 -79l-67 -125q-104 57 -177.5 77.5t-149.5 20.5q-79 0 -124 -36.5t-45 -98.5q0 -66 50 -117.5t205 -135.5q195 -107 277 -219t82 -264q0 -218 -126 -341t-346 -123
q-210 0 -336.5 115.5t-126.5 310.5q0 164 105 285.5t296 176.5zM880 445q0 119 -57 204t-188 153q-191 -49 -279.5 -149.5t-88.5 -249.5q0 -134 82.5 -213t218.5 -79q151 0 231.5 86t80.5 248z" />
    <glyph glyph-name="epsilon" unicode="&#x3b5;" horiz-adv-x="904" 
d="M664 595v-131h-137q-289 0 -289 -181q0 -83 68 -128.5t204 -45.5q78 0 155 18t170 62v-138q-127 -70 -333 -70q-195 0 -306.5 78.5t-111.5 216.5q0 91 51 152t171 99v10q-91 26 -140.5 85t-49.5 144q0 124 104 197t282 73q91 0 167.5 -15t169.5 -57l-59 -124
q-87 39 -147.5 52t-133.5 13q-232 0 -232 -150q0 -160 294 -160h103z" />
    <glyph glyph-name="zeta" unicode="&#x3b6;" horiz-adv-x="918" 
d="M163 1314v131h699v-120q-200 -167 -333.5 -317t-197.5 -284t-64 -288q0 -91 27 -146t85 -89t218 -68q139 -29 202 -79.5t63 -135.5q0 -138 -118 -290h-154q116 149 116 248q0 52 -51.5 80.5t-184.5 52.5q-189 34 -276 135.5t-87 281.5q0 106 27.5 202.5t79.5 187t145 197
t318 309.5q-37 -8 -289 -8h-225z" />
    <glyph glyph-name="eta" unicode="&#x3b7;" horiz-adv-x="1167" 
d="M860 -457v1115q0 125 -56.5 186t-177.5 61q-160 0 -234 -86t-74 -285v-534h-155v1018h126l25 -139h7q48 75 133.5 116t190.5 41q183 0 276 -88.5t93 -283.5v-1121h-154z" />
    <glyph glyph-name="theta" unicode="&#x3b8;" horiz-adv-x="1126" 
d="M1020 724q0 -377 -113.5 -560t-345.5 -183q-223 0 -338.5 187.5t-115.5 555.5q0 378 113.5 560t340.5 182t343 -188t116 -554zM561 111q152 0 224.5 141.5t78.5 426.5h-601q4 -282 73.5 -425t224.5 -143zM561 1337q-150 0 -219.5 -133t-78.5 -394h599q-10 261 -81 394
t-220 133z" />
    <glyph glyph-name="iota" unicode="&#x3b9;" horiz-adv-x="645" 
d="M310 1018v-719q0 -97 34 -143.5t115 -46.5q34 0 81 6t72 12v-118q-29 -12 -77.5 -20t-95.5 -8q-148 0 -215.5 78t-67.5 235v724h154z" />
    <glyph glyph-name="kappa" unicode="&#x3ba;" horiz-adv-x="985" 
d="M757 1016h192l-384 -448l411 -568h-187l-335 468l-125 -105v-363h-166v1016h166v-263q0 -154 -11 -259z" />
    <glyph glyph-name="lambda" unicode="&#x3bb;" horiz-adv-x="1016" 
d="M-13 0l439 1002l-54 151q-27 78 -50.5 110.5t-54.5 49.5t-77 17q-53 0 -106 -12v123q63 16 121 16q85 0 141 -28t97 -88t91 -201l337 -940q18 -46 37.5 -69.5t51.5 -23.5q25 0 56 9v-112q-45 -23 -101 -23q-69 0 -107.5 35.5t-65.5 112.5l-145 405q-78 223 -98 312h-9
q-26 -108 -107 -302l-236 -544h-160z" />
    <glyph glyph-name="uni03BC" unicode="&#x3bc;" horiz-adv-x="1178" 
d="M318 354q0 -243 236 -243q158 0 232 87.5t74 284.5v535h154v-1018h-126l-24 137h-10q-103 -156 -315 -156q-140 0 -221 86h-10q10 -78 10 -227v-297h-155v1475h155v-664z" />
    <glyph glyph-name="nu" unicode="&#x3bd;" horiz-adv-x="1031" 
d="M0 1018h160l203 -548q24 -62 62.5 -172.5t53.5 -168.5h8q164 163 238 369.5t74 519.5h154q0 -337 -96 -573t-305 -445h-173z" />
    <glyph glyph-name="xi" unicode="&#x3be;" horiz-adv-x="904" 
d="M793 700h-165q-164 0 -262.5 -82.5t-98.5 -214.5q0 -74 23 -119.5t67 -74t107 -45t141 -33.5q131 -27 194 -78t63 -135q0 -60 -25 -129t-88 -161h-144q49 66 79.5 134t30.5 116q0 51 -53.5 79.5t-186.5 51.5q-185 32 -277.5 125t-92.5 256q0 130 73.5 227.5t192.5 133.5
v11q-202 60 -202 261q0 109 64.5 182.5t218.5 119.5q-119 -11 -225 -11h-64v131h649v-122h-48q-120 0 -224 -37t-163 -104t-59 -155q0 -107 77.5 -157t239.5 -50h158v-120z" />
    <glyph glyph-name="omicron" unicode="&#x3bf;" horiz-adv-x="1149" 
d="M1042 510q0 -249 -125.5 -389t-346.5 -140q-136 0 -242 64.5t-163.5 184t-57.5 280.5q0 249 124.5 387.5t345.5 138.5q213 0 339 -142t126 -384zM267 510q0 -195 78 -297t229 -102t229.5 101.5t78.5 297.5q0 194 -78.5 294.5t-231.5 100.5q-151 0 -228 -99t-77 -296z" />
    <glyph glyph-name="pi" unicode="&#x3c0;" horiz-adv-x="1236" 
d="M1067 109q35 0 80 16v-121q-40 -23 -118 -23q-203 0 -203 235v670h-443v-886h-155v886h-205v69l133 63h1022v-132h-198v-658q0 -68 23.5 -93.5t63.5 -25.5z" />
    <glyph glyph-name="rho" unicode="&#x3c1;" horiz-adv-x="1149" 
d="M1042 510q0 -252 -119 -390.5t-335 -138.5q-166 0 -278 88h-7q7 -57 7 -254v-272h-156v980q0 247 116.5 380t334.5 133q203 0 320 -140.5t117 -385.5zM597 905q-147 0 -217 -96t-70 -290v-314q113 -94 283 -94q148 0 218.5 96.5t70.5 302.5q0 199 -66.5 297t-218.5 98z
" />
    <glyph glyph-name="sigma1" unicode="&#x3c2;" horiz-adv-x="917" 
d="M267 485q0 -126 27 -187t93.5 -98t215.5 -69q137 -30 198 -79.5t61 -133.5q0 -61 -25 -131.5t-88 -158.5h-144q50 65 81 133.5t31 114.5q0 38 -23.5 59.5t-75 39.5t-141.5 34q-189 35 -279.5 153t-90.5 321q0 266 128 409.5t358 143.5q74 0 147.5 -15t123.5 -37l-50 -131
q-120 47 -226 47q-164 0 -242.5 -101.5t-78.5 -313.5z" />
    <glyph glyph-name="sigma" unicode="&#x3c3;" horiz-adv-x="1166" 
d="M1040 472q0 -146 -57 -258t-163.5 -172.5t-249.5 -60.5q-218 0 -340.5 134t-122.5 370q0 533 550 533h463v-132h-245q165 -155 165 -414zM267 485q0 -180 78.5 -277t228.5 -97q148 0 227 91t79 260q0 251 -161 424h-61q-206 0 -298.5 -96.5t-92.5 -304.5z" />
    <glyph glyph-name="tau" unicode="&#x3c4;" horiz-adv-x="900" 
d="M850 1018v-132h-401v-574q0 -207 190 -207q44 0 89.5 6t70.5 13v-117q-33 -14 -84.5 -22t-95.5 -8q-169 0 -247.5 79t-78.5 237v593h-276v69l137 63h696z" />
    <glyph glyph-name="upsilon" unicode="&#x3c5;" horiz-adv-x="1158" 
d="M582 -19q-214 0 -322 116.5t-108 363.5v557h154v-550q0 -178 73.5 -268.5t215.5 -90.5q155 0 230 110.5t75 343.5q0 121 -13 225t-45 230h155q33 -134 46 -233.5t13 -229.5q0 -295 -120 -434.5t-354 -139.5z" />
    <glyph glyph-name="phi" unicode="&#x3c6;" horiz-adv-x="1365" 
d="M597 -457v440q-241 10 -365.5 145.5t-124.5 386.5q0 275 192 510l122 -83q-83 -109 -120.5 -213t-37.5 -219q0 -367 334 -399v575q0 174 77 262t216 88q167 0 268 -136t101 -368q0 -165 -63 -286.5t-178 -188t-269 -74.5v-440h-152zM1100 530q0 172 -58 273.5t-152 101.5
q-68 0 -104.5 -55.5t-36.5 -161.5v-577q167 14 259 124t92 295z" />
    <glyph glyph-name="chi" unicode="&#x3c7;" horiz-adv-x="1038" 
d="M165 1023q50 0 86.5 -19.5t65 -62t69.5 -146.5l135 -343l295 566h168l-398 -717l176 -450q45 -113 83 -147.5t97 -34.5q42 0 83 8v-120q-55 -14 -110 -14q-107 0 -172.5 55t-120.5 202l-139 360l-336 -617h-166l431 776l-159 413q-36 92 -68.5 129t-72.5 37
q-34 0 -59 -10v120q45 15 112 15z" />
    <glyph glyph-name="psi" unicode="&#x3c8;" horiz-adv-x="1432" 
d="M797 1443v-1329q174 14 268.5 121.5t94.5 296.5q0 112 -12 221t-47 265h155q58 -253 58 -479q0 -257 -132.5 -399t-384.5 -157v-440h-152v440q-246 9 -369.5 143.5t-123.5 387.5v504h154v-510q0 -181 84 -282.5t255 -113.5v1331h152z" />
    <glyph glyph-name="omega" unicode="&#x3c9;" horiz-adv-x="1470" 
d="M464 -19q-169 0 -263 137.5t-94 373.5q0 145 25.5 264.5t88.5 261.5h160q-63 -145 -89.5 -263.5t-26.5 -264.5q0 -179 55.5 -279t154.5 -100q88 0 136.5 66t48.5 182v289h150v-289q0 -118 49 -183t136 -65q99 0 154.5 100t55.5 279q0 141 -25.5 261.5t-89.5 266.5h160
q60 -136 86.5 -258t26.5 -268q0 -234 -94 -372.5t-263 -138.5q-205 0 -268 169h-8q-60 -169 -266 -169z" />
    <glyph glyph-name="iotadieresis" unicode="&#x3ca;" horiz-adv-x="645" 
d="M310 1018v-719q0 -97 34 -143.5t115 -46.5q34 0 81 6t72 12v-118q-29 -12 -77.5 -20t-95.5 -8q-148 0 -215.5 78t-67.5 235v724h154zM8 1294q0 48 24.5 69.5t59.5 21.5t60.5 -21.5t25.5 -69.5q0 -47 -25.5 -69.5t-60.5 -22.5t-59.5 22.5t-24.5 69.5zM362 1294
q0 48 24.5 69.5t58.5 21.5q35 0 60.5 -21.5t25.5 -69.5q0 -47 -25.5 -69.5t-60.5 -22.5q-34 0 -58.5 22.5t-24.5 69.5z" />
    <glyph glyph-name="upsilondieresis" unicode="&#x3cb;" horiz-adv-x="1158" 
d="M582 -19q-214 0 -322 116.5t-108 363.5v557h154v-550q0 -178 73.5 -268.5t215.5 -90.5q155 0 230 110.5t75 343.5q0 121 -13 225t-45 230h155q33 -134 46 -233.5t13 -229.5q0 -295 -120 -434.5t-354 -139.5zM340 1294q0 48 24.5 69.5t59.5 21.5t60.5 -21.5t25.5 -69.5
q0 -47 -25.5 -69.5t-60.5 -22.5t-59.5 22.5t-24.5 69.5zM694 1294q0 48 24.5 69.5t58.5 21.5q35 0 60.5 -21.5t25.5 -69.5q0 -47 -25.5 -69.5t-60.5 -22.5q-34 0 -58.5 22.5t-24.5 69.5z" />
    <glyph glyph-name="omicrontonos" unicode="&#x3cc;" horiz-adv-x="1149" 
d="M1042 510q0 -249 -125.5 -389t-346.5 -140q-136 0 -242 64.5t-163.5 184t-57.5 280.5q0 249 124.5 387.5t345.5 138.5q213 0 339 -142t126 -384zM267 510q0 -195 78 -297t229 -102t229.5 101.5t78.5 297.5q0 194 -78.5 294.5t-231.5 100.5q-151 0 -228 -99t-77 -296z
M503 1179q25 67 49.5 172.5t35.5 181.5h171v-21q-17 -69 -67.5 -179t-95.5 -180h-93v26z" />
    <glyph glyph-name="upsilontonos" unicode="&#x3cd;" horiz-adv-x="1158" 
d="M582 -19q-214 0 -322 116.5t-108 363.5v557h154v-550q0 -178 73.5 -268.5t215.5 -90.5q155 0 230 110.5t75 343.5q0 121 -13 225t-45 230h155q33 -134 46 -233.5t13 -229.5q0 -295 -120 -434.5t-354 -139.5zM508 1179q25 67 49.5 172.5t35.5 181.5h171v-21
q-17 -69 -67.5 -179t-95.5 -180h-93v26z" />
    <glyph glyph-name="omegatonos" unicode="&#x3ce;" horiz-adv-x="1470" 
d="M464 -19q-169 0 -263 137.5t-94 373.5q0 145 25.5 264.5t88.5 261.5h160q-63 -145 -89.5 -263.5t-26.5 -264.5q0 -179 55.5 -279t154.5 -100q88 0 136.5 66t48.5 182v289h150v-289q0 -118 49 -183t136 -65q99 0 154.5 100t55.5 279q0 141 -25.5 261.5t-89.5 266.5h160
q60 -136 86.5 -258t26.5 -268q0 -234 -94 -372.5t-263 -138.5q-205 0 -268 169h-8q-60 -169 -266 -169zM659 1179q25 67 49.5 172.5t35.5 181.5h171v-21q-17 -69 -67.5 -179t-95.5 -180h-93v26z" />
    <glyph glyph-name="afii10023" unicode="&#x401;" 
d="M944 0h-757v1358h757v-140h-599v-438h562v-139h-562v-500h599v-141zM323 1608q0 48 24.5 69.5t59.5 21.5t60.5 -21.5t25.5 -69.5q0 -47 -25.5 -69.5t-60.5 -22.5t-59.5 22.5t-24.5 69.5zM677 1608q0 48 24.5 69.5t58.5 21.5q35 0 60.5 -21.5t25.5 -69.5
q0 -47 -25.5 -69.5t-60.5 -22.5q-34 0 -58.5 22.5t-24.5 69.5z" />
    <glyph glyph-name="afii10051" unicode="&#x402;" horiz-adv-x="1396" 
d="M905 -19q-89 0 -139 21v139q51 -17 136 -17q94 0 142 57.5t48 161.5v121q0 119 -60.5 171.5t-191.5 52.5h-353v-688h-158v1218h-312v140h883v-140h-413v-389h367q191 0 293.5 -88.5t102.5 -253.5v-133q0 -177 -91 -275t-254 -98z" />
    <glyph glyph-name="afii10052" unicode="&#x403;" horiz-adv-x="989" 
d="M944 1358v-142h-599v-1216h-158v1358h757zM449 1490q45 57 96.5 139t80.5 142h188v-19q-41 -61 -121.5 -149t-140.5 -136h-103v23z" />
    <glyph glyph-name="afii10053" unicode="&#x404;" horiz-adv-x="1216" 
d="M775 1236q-210 0 -335 -116t-153 -340h671v-139h-675q10 -255 134 -387t355 -132q150 0 337 51v-139q-150 -53 -360 -53q-308 0 -470.5 180.5t-162.5 519.5q0 326 175 512t485 186q221 0 386 -82l-66 -137q-157 76 -321 76z" />
    <glyph glyph-name="afii10054" unicode="&#x405;" horiz-adv-x="1044" 
d="M953 361q0 -179 -130 -279.5t-353 -100.5q-242 0 -372 63v152q84 -35 182.5 -55.5t194.5 -20.5q158 0 238 60t80 166q0 71 -28.5 116t-94.5 83t-202 87q-189 67 -270.5 160t-81.5 243q0 157 118 249.5t312 92.5q203 0 372 -74l-49 -137q-168 70 -327 70
q-125 0 -195.5 -54t-70.5 -149q0 -71 26 -116t87.5 -82.5t189.5 -83.5q213 -76 293.5 -163t80.5 -227z" />
    <glyph glyph-name="afii10055.alt" horiz-adv-x="633" 
d="M555 0h-477v91l160 33v1108l-160 35v91h477v-91l-159 -35v-1108l159 -33v-91z" />
    <glyph glyph-name="afii10056.alt" horiz-adv-x="633" 
d="M555 0h-477v91l160 33v1108l-160 35v91h477v-91l-159 -35v-1108l159 -33v-91zM56 1608q0 48 24.5 69.5t59.5 21.5t60.5 -21.5t25.5 -69.5q0 -47 -25.5 -69.5t-60.5 -22.5t-59.5 22.5t-24.5 69.5zM410 1608q0 48 24.5 69.5t58.5 21.5q35 0 60.5 -21.5t25.5 -69.5
q0 -47 -25.5 -69.5t-60.5 -22.5q-34 0 -58.5 22.5t-24.5 69.5z" />
    <glyph glyph-name="afii10057" unicode="&#x408;" horiz-adv-x="508" 
d="M-11 -358q-87 0 -138 26v134q66 -18 138 -18q92 0 139.5 55.5t47.5 160.5v1358h158v-1345q0 -176 -89 -273.5t-256 -97.5z" />
    <glyph glyph-name="afii10058" unicode="&#x409;" horiz-adv-x="1767" 
d="M1697 396q0 -192 -128 -294t-369 -102h-304v1218h-339q-53 -409 -92 -651.5t-76 -359t-101.5 -172.5t-163.5 -56q-65 0 -124 23v133q46 -24 105 -24q45 0 75 28.5t50 76.5t45.5 164t57 323t91.5 655h630v-580h113q530 0 530 -382zM1054 137h124q183 0 268 64.5t85 194.5
q0 128 -89 185.5t-293 57.5h-95v-502z" />
    <glyph glyph-name="afii10059" unicode="&#x40a;" horiz-adv-x="1813" 
d="M1742 396q0 -192 -126 -294t-369 -102h-305v639h-597v-639h-158v1358h158v-578h597v578h159v-580h113q528 0 528 -382zM1101 137h124q182 0 268 64.5t86 194.5q0 127 -89.5 185t-293.5 58h-95v-502z" />
    <glyph glyph-name="afii10060" unicode="&#x40b;" horiz-adv-x="1396" 
d="M487 829h371q191 0 291.5 -87t100.5 -255v-487h-158v466q0 117 -58 169.5t-188 52.5h-359v-688h-158v1218h-312v140h941v-140h-471v-389z" />
    <glyph glyph-name="afii10061" unicode="&#x40c;" horiz-adv-x="1164" 
d="M1164 0h-192l-627 688v-688h-158v1358h158v-658l612 658h181l-601 -660zM515 1490q45 57 96.5 139t80.5 142h188v-19q-41 -61 -121.5 -149t-140.5 -136h-103v23z" />
    <glyph glyph-name="afii10062" unicode="&#x40e;" horiz-adv-x="1181" 
d="M272 -19q-103 0 -181 28v154q86 -39 176 -39q102 0 163.5 46.5t123.5 175.5l-529 1012h175l401 -772q23 -45 36 -89h8q26 78 36 98l333 763h167l-433 -972q-78 -173 -141 -252t-141.5 -116t-193.5 -37zM605 1467q-171 0 -250 66t-89 219h145q9 -97 51 -135t147 -38
q96 0 142 41t56 132h146q-11 -147 -94 -216t-254 -69z" />
    <glyph glyph-name="afii10145" unicode="&#x40f;" horiz-adv-x="1387" 
d="M1200 0h-432v-354h-163v354h-418v1358h158v-1215h697v1215h158v-1358z" />
    <glyph glyph-name="afii10017" unicode="&#x410;" horiz-adv-x="1204" 
d="M1040 0l-169 432h-544l-167 -432h-160l537 1363h133l534 -1363h-164zM822 574l-158 421q-31 80 -63 196q-21 -90 -59 -196l-159 -421h439z" />
    <glyph glyph-name="afii10018" unicode="&#x411;" horiz-adv-x="1166" 
d="M1067 396q0 -203 -120 -299.5t-363 -96.5h-397v1358h800v-140h-642v-440h210q180 0 292 -41t166 -122t54 -219zM345 137h222q176 0 256.5 60t80.5 199q0 132 -82 187.5t-285 55.5h-192v-502z" />
    <glyph glyph-name="afii10019" unicode="&#x412;" horiz-adv-x="1232" 
d="M187 1358h383q270 0 391 -81t121 -255q0 -121 -67.5 -199.5t-196.5 -101.5v-10q309 -53 309 -325q0 -182 -123 -284t-344 -102h-473v1358zM345 776h260q167 0 240 52.5t73 177.5q0 114 -81.5 164.5t-259.5 50.5h-232v-445zM345 643v-508h283q164 0 247 63.5t83 198.5
q0 127 -85 186.5t-258 59.5h-270z" />
    <glyph glyph-name="afii10020" unicode="&#x413;" horiz-adv-x="989" 
d="M944 1358v-142h-599v-1216h-158v1358h757z" />
    <glyph glyph-name="afii10021" unicode="&#x414;" horiz-adv-x="1299" 
d="M1257 -354h-150v354h-944v-354h-150v497h105q143 241 244.5 585.5t112.5 629.5h611v-1215h171v-497zM928 143v1073h-309q-17 -225 -113 -540.5t-223 -532.5h645z" />
    <glyph glyph-name="afii10022" unicode="&#x415;" 
d="M944 0h-757v1358h757v-140h-599v-438h562v-139h-562v-500h599v-141z" />
    <glyph glyph-name="afii10024" unicode="&#x416;" horiz-adv-x="1606" 
d="M555 698l-534 660h177l528 -658v658h153v-658l529 658h176l-535 -658l552 -700h-182l-540 688v-688h-153v688l-539 -688h-185z" />
    <glyph glyph-name="afii10025" unicode="&#x417;" horiz-adv-x="1105" 
d="M974 1040q0 -134 -85 -217.5t-234 -105.5v-7q170 -24 257.5 -107.5t87.5 -218.5q0 -190 -142 -296.5t-401 -106.5q-237 0 -388 74v147q89 -43 192.5 -66.5t199.5 -23.5q184 0 278 70t94 201q0 124 -104.5 188t-311.5 64h-202v133h194q190 0 294.5 68.5t104.5 190.5
q0 100 -75 159t-203 59q-102 0 -184.5 -23t-191.5 -92l-78 106q94 70 210.5 105.5t241.5 35.5q209 0 327.5 -91.5t118.5 -245.5z" />
    <glyph glyph-name="afii10026" unicode="&#x418;" horiz-adv-x="1450" 
d="M189 1358h147v-755q0 -209 -13 -378h8l761 1133h173v-1358h-149v748q0 186 16 392h-8l-763 -1140h-172v1358z" />
    <glyph glyph-name="afii10027" unicode="&#x419;" horiz-adv-x="1450" 
d="M189 1358h147v-755q0 -209 -13 -378h8l761 1133h173v-1358h-149v748q0 186 16 392h-8l-763 -1140h-172v1358zM751 1467q-171 0 -250 66t-89 219h145q9 -97 51 -135t147 -38q96 0 142 41t56 132h146q-11 -147 -94 -216t-254 -69z" />
    <glyph glyph-name="afii10028" unicode="&#x41a;" horiz-adv-x="1164" 
d="M1164 0h-192l-627 688v-688h-158v1358h158v-658l612 658h181l-601 -660z" />
    <glyph glyph-name="afii10029" unicode="&#x41b;" horiz-adv-x="1339" 
d="M1153 0h-158v1218h-441l-29 -223q-57 -445 -100 -651t-113.5 -286.5t-187.5 -78.5q-69 0 -124 23v133q50 -24 105 -24q49 0 86 40t65 140t71.5 379t95.5 688h730v-1358z" />
    <glyph glyph-name="afii10030" unicode="&#x41c;" horiz-adv-x="1717" 
d="M788 0l-461 1204h-8q13 -143 13 -340v-864h-145v1358h237l430 -1120h8l434 1120h235v-1358h-157v875q0 150 13 327h-8l-464 -1202h-127z" />
    <glyph glyph-name="afii10031" unicode="&#x41d;" horiz-adv-x="1403" 
d="M1218 0h-158v639h-715v-639h-158v1358h158v-578h715v578h158v-1358z" />
    <glyph glyph-name="afii10032" unicode="&#x41e;" horiz-adv-x="1481" 
d="M1365 681q0 -326 -164.5 -513t-458.5 -187q-300 0 -463 183.5t-163 518.5q0 331 163.5 513.5t464.5 182.5q292 0 456.5 -185.5t164.5 -512.5zM283 681q0 -276 117.5 -418.5t341.5 -142.5q226 0 341 142t115 419q0 274 -114.5 415.5t-339.5 141.5q-226 0 -343.5 -142.5
t-117.5 -414.5z" />
    <glyph glyph-name="afii10033" unicode="&#x41f;" horiz-adv-x="1387" 
d="M1200 0h-158v1218h-697v-1218h-158v1358h1013v-1358z" />
    <glyph glyph-name="afii10034" unicode="&#x420;" horiz-adv-x="1145" 
d="M1048 962q0 -206 -141 -317t-403 -111h-159v-534h-158v1358h352q509 0 509 -396zM345 670h142q210 0 303.5 67.5t93.5 217.5q0 134 -88 200t-275 66h-176v-551z" />
    <glyph glyph-name="afii10035" unicode="&#x421;" horiz-adv-x="1200" 
d="M768 1236q-224 0 -353.5 -149t-129.5 -408q0 -267 125 -412t356 -145q142 0 324 51v-139q-141 -53 -348 -53q-300 0 -463 182t-163 518q0 210 78.5 367.5t226.5 243t349 85.5q214 0 373 -78l-67 -135q-154 72 -308 72z" />
    <glyph glyph-name="afii10036" unicode="&#x422;" horiz-adv-x="1052" 
d="M605 0h-158v1218h-430v140h1018v-140h-430v-1218z" />
    <glyph glyph-name="afii10037" unicode="&#x423;" horiz-adv-x="1181" 
d="M272 -19q-103 0 -181 28v154q86 -39 176 -39q102 0 163.5 46.5t123.5 175.5l-529 1012h175l401 -772q23 -45 36 -89h8q26 78 36 98l333 763h167l-433 -972q-78 -173 -141 -252t-141.5 -116t-193.5 -37z" />
    <glyph glyph-name="afii10038" unicode="&#x424;" horiz-adv-x="1518" 
d="M679 1377h160v-167h65q158 0 275 -63t178.5 -178.5t61.5 -262.5q0 -154 -69 -274.5t-189.5 -181t-283.5 -60.5h-38v-209h-160v209h-42q-163 0 -283 61.5t-188 182t-68 270.5q0 147 63 262t180 179.5t276 64.5h62v167zM839 323h23q187 0 290.5 102t103.5 283
q0 171 -96 269t-268 98h-53v-752zM679 1075h-53q-169 0 -266 -98.5t-97 -268.5q0 -183 103 -284t291 -101h22v752z" />
    <glyph glyph-name="afii10039" unicode="&#x425;" horiz-adv-x="1098" 
d="M1090 0h-179l-365 597l-371 -597h-168l452 710l-421 648h175l337 -538l340 538h168l-421 -643z" />
    <glyph glyph-name="afii10040" unicode="&#x426;" horiz-adv-x="1401" 
d="M1200 143h160v-497h-150v354h-1023v1358h158v-1215h697v1215h158v-1215z" />
    <glyph glyph-name="afii10041" unicode="&#x427;" horiz-adv-x="1322" 
d="M1136 0h-158v561q-138 -49 -230 -67.5t-191 -18.5q-192 0 -295.5 88.5t-103.5 254.5v540h158v-521q0 -113 59 -166.5t192 -53.5q90 0 172 13.5t239 64.5v663h158v-1358z" />
    <glyph glyph-name="afii10042" unicode="&#x428;" horiz-adv-x="1963" 
d="M1777 0h-1590v1358h158v-1215h557v1215h158v-1215h557v1215h160v-1358z" />
    <glyph glyph-name="afii10043" unicode="&#x429;" horiz-adv-x="1965" 
d="M187 0v1358h158v-1215h541v1215h160v-1215h542v1215h158v-1215h160v-497h-151v354h-1568z" />
    <glyph glyph-name="afii10044" unicode="&#x42a;" horiz-adv-x="1309" 
d="M1210 396q0 -192 -120 -294t-352 -102h-409v1218h-312v140h470v-580h226q243 0 370 -95t127 -287zM487 137h234q168 0 246.5 64.5t78.5 194.5q0 126 -81.5 184.5t-269.5 58.5h-208v-502z" />
    <glyph glyph-name="afii10045" unicode="&#x42b;" horiz-adv-x="1622" 
d="M187 0v1358h158v-580h222q242 0 369 -95t127 -287t-120 -294t-351 -102h-405zM345 135h229q168 0 247 65.5t79 195.5q0 127 -83 184t-269 57h-203v-502zM1436 0h-158v1358h158v-1358z" />
    <glyph glyph-name="afii10046" unicode="&#x42c;" horiz-adv-x="1223" 
d="M1124 396q0 -189 -126 -292.5t-359 -103.5h-452v1358h158v-580h270q248 0 378.5 -98t130.5 -284zM345 137h277q338 0 338 259q0 125 -86.5 184t-278.5 59h-250v-502z" />
    <glyph glyph-name="afii10047" unicode="&#x42d;" horiz-adv-x="1198" 
d="M434 1236q-160 0 -310 -70l-67 133q159 78 379 78q201 0 346.5 -81.5t220.5 -233t75 -356.5q0 -349 -169 -537t-486 -188q-211 0 -356 53v139q77 -20 157 -35.5t172 -15.5q251 0 379.5 134t135.5 387h-668v141h666q-20 213 -146 332.5t-329 119.5z" />
    <glyph glyph-name="afii10048" unicode="&#x42e;" horiz-adv-x="1997" 
d="M1879 681q0 -329 -158.5 -514.5t-440.5 -185.5q-280 0 -438 170.5t-169 487.5h-328v-639h-158v1358h158v-578h330q22 289 178.5 444t422.5 155q285 0 444 -186t159 -512zM839 681q0 -275 110.5 -418t324.5 -143q218 0 328 142t110 419t-109.5 417t-324.5 140
q-216 0 -327.5 -141.5t-111.5 -415.5z" />
    <glyph glyph-name="afii10049" unicode="&#x42f;" horiz-adv-x="1210" 
d="M590 567l-356 -567h-187l381 593q-149 48 -217 144t-68 243q0 182 126 280t381 98h373v-1358h-157v567h-276zM866 1221h-211q-170 0 -258.5 -58.5t-88.5 -190.5q0 -270 352 -270h206v519z" />
    <glyph glyph-name="afii10065" unicode="&#x430;" 
d="M789 0l-30 145h-8q-76 -96 -151.5 -130t-189.5 -34q-151 0 -237 78t-86 222q0 309 493 324l173 5v63q0 120 -51.5 177t-164.5 57q-127 0 -288 -78l-47 118q75 41 164.5 64.5t179.5 23.5q182 0 270 -81t88 -259v-695h-115zM441 109q144 0 226 79t82 221v92l-154 -7
q-184 -6 -265 -57t-81 -157q0 -84 50.5 -127.5t141.5 -43.5z" />
    <glyph glyph-name="afii10066" unicode="&#x431;" horiz-adv-x="1134" 
d="M111 610q0 334 98 521.5t312 233.5q266 57 468 92l29 -135q-322 -54 -461 -86q-134 -31 -201.5 -145t-74.5 -311h12q57 78 148 122.5t191 44.5q187 0 292 -121.5t105 -336.5q0 -239 -121.5 -373.5t-339.5 -134.5q-214 0 -335.5 164.5t-121.5 464.5zM582 111
q284 0 284 361q0 344 -258 344q-70 0 -135.5 -29t-120 -77.5t-84.5 -99.5q0 -244 77.5 -371.5t236.5 -127.5z" />
    <glyph glyph-name="afii10067" unicode="&#x432;" horiz-adv-x="1082" 
d="M989 762q0 -99 -57 -150.5t-160 -69.5v-8q130 -18 190 -76.5t60 -161.5q0 -142 -104.5 -219t-305.5 -77h-449v1018h447q379 0 379 -256zM867 306q0 83 -62.5 120.5t-207.5 37.5h-279v-335h283q266 0 266 177zM839 748q0 74 -57.5 105t-173.5 31h-290v-287h261
q143 0 201.5 35.5t58.5 115.5z" />
    <glyph glyph-name="afii10068" unicode="&#x433;" horiz-adv-x="814" 
d="M776 886h-458v-886h-155v1018h613v-132z" />
    <glyph glyph-name="afii10069" unicode="&#x434;" horiz-adv-x="1088" 
d="M1048 -352h-150v352h-711v-352h-149v485h80q124 169 195 396.5t73 488.5h516v-885h146v-485zM753 133v763h-228q-12 -206 -79.5 -417.5t-167.5 -345.5h475z" />
    <glyph glyph-name="afii10070" unicode="&#x435;" horiz-adv-x="1067" 
d="M593 -19q-225 0 -355.5 137.5t-130.5 382.5q0 246 121 390.5t326 144.5q191 0 302.5 -125.5t111.5 -331.5v-98h-701q4 -179 90 -272t242 -93q164 0 325 69v-138q-82 -35 -154.5 -50.5t-176.5 -15.5zM552 907q-123 0 -196 -79.5t-86 -221.5h532q0 146 -65 223.5t-185 77.5
z" />
    <glyph glyph-name="afii10072" unicode="&#x436;" horiz-adv-x="1400" 
d="M628 1016h142v-493l421 493h169l-426 -493l462 -523h-178l-448 515v-515h-142v515l-447 -515h-177l460 523l-424 493h169l419 -493v493z" />
    <glyph glyph-name="afii10073" unicode="&#x437;" horiz-adv-x="918" 
d="M358 595q288 0 288 160q0 150 -234 150q-71 0 -129.5 -13t-153.5 -52l-55 126q158 70 345 70q175 0 276.5 -72t101.5 -196q0 -171 -191 -224v-7q117 -35 171 -98.5t54 -158.5q0 -142 -113.5 -220.5t-314.5 -78.5q-220 0 -340 66v142q170 -80 344 -80q134 0 202 46t68 132
q0 177 -289 177h-141v131h111z" />
    <glyph glyph-name="afii10074" unicode="&#x438;" horiz-adv-x="1205" 
d="M308 1018v-646l-6 -169l-3 -53l551 868h192v-1018h-144v622l3 123l4 121l-549 -866h-193v1018h145z" />
    <glyph glyph-name="afii10075" unicode="&#x439;" horiz-adv-x="1205" 
d="M308 1018v-646l-6 -169l-3 -53l551 868h192v-1018h-144v622l3 123l4 121l-549 -866h-193v1018h145zM599 1153q-171 0 -250 66t-89 219h145q9 -97 51 -135t147 -38q96 0 142 41t56 132h146q-11 -147 -94 -216t-254 -69z" />
    <glyph glyph-name="afii10076" unicode="&#x43a;" horiz-adv-x="987" 
d="M757 1018h169l-439 -491l475 -527h-180l-464 515v-515h-155v1018h155v-495z" />
    <glyph glyph-name="afii10077" unicode="&#x43b;" horiz-adv-x="1086" 
d="M922 0h-156v886h-305q-25 -331 -70 -525t-116 -284t-180 -90q-50 0 -80 11v114q20 -5 46 -5q107 0 170 225.5t96 685.5h595v-1018z" />
    <glyph glyph-name="afii10078" unicode="&#x43c;" horiz-adv-x="1398" 
d="M692 149l29 86l40 110l275 671h196v-1016h-136v840l-19 -53l-54 -142l-262 -645h-129l-263 646q-50 125 -68 194v-840h-138v1016h189l267 -645q39 -103 73 -222z" />
    <glyph glyph-name="afii10079" unicode="&#x43d;" horiz-adv-x="1205" 
d="M318 1018v-426h570v426h154v-1018h-154v459h-570v-459h-155v1018h155z" />
    <glyph glyph-name="afii10080" unicode="&#x43e;" horiz-adv-x="1149" 
d="M1042 510q0 -249 -125.5 -389t-346.5 -140q-136 0 -242 64.5t-163.5 184t-57.5 280.5q0 249 124.5 387.5t345.5 138.5q213 0 339 -142t126 -384zM267 510q0 -195 78 -297t229 -102t229.5 101.5t78.5 297.5q0 194 -78.5 294.5t-231.5 100.5q-151 0 -228 -99t-77 -296z" />
    <glyph glyph-name="afii10081" unicode="&#x43f;" horiz-adv-x="1181" 
d="M318 0h-155v1018h855v-1018h-156v884h-544v-884z" />
    <glyph glyph-name="afii10082" unicode="&#x440;" horiz-adv-x="1166" 
d="M637 -19q-99 0 -181.5 37t-137.5 113h-12q12 -89 12 -169v-419h-155v1475h126l21 -139h8q59 83 138 120t181 37q203 0 313 -138t110 -388q0 -251 -112 -390t-311 -139zM615 905q-156 0 -226 -86t-71 -275v-34q0 -215 71.5 -307t229.5 -92q131 0 206 106.5t75 294.5
q0 190 -75 291.5t-210 101.5z" />
    <glyph glyph-name="afii10083" unicode="&#x441;" horiz-adv-x="905" 
d="M570 -19q-221 0 -342 136.5t-121 384.5q0 256 123 395t350 139q74 0 147.5 -15.5t114.5 -36.5l-47 -131q-51 20 -111.5 33.5t-106.5 13.5q-310 0 -310 -396q0 -187 75.5 -287.5t224.5 -100.5q127 0 260 55v-137q-102 -53 -257 -53z" />
    <glyph glyph-name="afii10084" unicode="&#x442;" horiz-adv-x="888" 
d="M850 886h-331v-886h-154v886h-327v132h812v-132z" />
    <glyph glyph-name="afii10085" unicode="&#x443;" horiz-adv-x="958" 
d="M2 1018h165l223 -581q73 -198 91 -287h8q12 48 50.5 162.5t251.5 705.5h166l-438 -1159q-65 -172 -152 -244t-213 -72q-70 0 -139 16v123q51 -11 114 -11q159 0 227 179l56 144z" />
    <glyph glyph-name="afii10086" unicode="&#x444;" horiz-adv-x="1360" 
d="M1254 510q0 -231 -131.5 -368t-367.5 -157v-442h-152v442q-231 18 -364.5 158t-133.5 367q0 231 133 367.5t370 155.5v412h147v-412q233 -22 366 -161t133 -362zM267 510q0 -178 81.5 -279.5t259.5 -118.5v792q-172 -16 -256.5 -112t-84.5 -282zM1094 510q0 356 -339 392
v-790q176 18 257.5 119t81.5 279z" />
    <glyph glyph-name="afii10087" unicode="&#x445;" horiz-adv-x="997" 
d="M409 521l-354 497h175l269 -390l267 390h174l-354 -497l372 -521h-174l-285 412l-288 -412h-175z" />
    <glyph glyph-name="afii10088" unicode="&#x446;" horiz-adv-x="1191" 
d="M1156 -352h-154v352h-839v1018h155v-885h540v885h154v-885h144v-485z" />
    <glyph glyph-name="afii10089" unicode="&#x447;" horiz-adv-x="1156" 
d="M299 1018v-372q0 -178 203 -178q85 0 162 26t175 88v436h154v-1018h-154v461q-98 -67 -181 -94.5t-188 -27.5q-152 0 -238.5 80t-86.5 216v383h154z" />
    <glyph glyph-name="afii10090" unicode="&#x448;" horiz-adv-x="1693" 
d="M922 133h452v885h156v-1018h-1367v1018h155v-885h450v885h154v-885z" />
    <glyph glyph-name="afii10091" unicode="&#x449;" horiz-adv-x="1706" 
d="M922 133h452v883h154v-883h146v-483h-156v350h-1355v1016h155v-883h450v883h154v-883z" />
    <glyph glyph-name="afii10092" unicode="&#x44a;" horiz-adv-x="1322" 
d="M517 597h291q208 0 308 -71.5t100 -215.5q0 -154 -103.5 -232t-308.5 -78h-441v886h-325v132h479v-421zM1063 301q0 86 -57.5 124.5t-203.5 38.5h-285v-335h291q255 0 255 172z" />
    <glyph glyph-name="afii10093" unicode="&#x44b;" horiz-adv-x="1465" 
d="M318 597h277q194 0 287.5 -72t93.5 -215q0 -153 -99 -231.5t-291 -78.5h-423v1018h155v-421zM1301 0h-154v1018h154v-1018zM318 464v-335h261q245 0 245 172q0 85 -57 124t-193 39h-256z" />
    <glyph glyph-name="afii10094" unicode="&#x44c;" horiz-adv-x="1126" 
d="M318 597h314q390 0 390 -287q0 -150 -102 -230t-298 -80h-459v1018h155v-421zM318 464v-335h297q122 0 187 43t65 129q0 84 -59.5 123.5t-197.5 39.5h-292z" />
    <glyph glyph-name="afii10095" unicode="&#x44d;" horiz-adv-x="936" 
d="M318 -19q-155 0 -265 53v137q56 -21 121 -38t149 -17q162 0 249.5 86.5t97.5 258.5h-516v131h514q-15 159 -93.5 233.5t-228.5 74.5q-95 0 -235 -50l-44 130q51 24 127 40t151 16q237 0 360.5 -136t123.5 -392q0 -250 -134 -388.5t-377 -138.5z" />
    <glyph glyph-name="afii10096" unicode="&#x44e;" horiz-adv-x="1581" 
d="M1474 510q0 -250 -119.5 -389.5t-327.5 -139.5q-198 0 -314 124t-129 354h-266v-459h-155v1018h155v-426h268q19 211 136 327.5t309 116.5q204 0 323.5 -141.5t119.5 -384.5zM744 510q0 -196 67.5 -297.5t217.5 -101.5q147 0 216 98.5t69 300.5q0 195 -67.5 295
t-217.5 100t-217.5 -100t-67.5 -295z" />
    <glyph glyph-name="afii10097" unicode="&#x44f;" horiz-adv-x="1056" 
d="M215 0h-181l293 430q-118 26 -180.5 101t-62.5 188q0 139 93.5 219t261.5 80h453v-1018h-154v407h-257zM234 717q0 -176 256 -176h248v343h-279q-225 0 -225 -167z" />
    <glyph glyph-name="afii10071" unicode="&#x451;" horiz-adv-x="1067" 
d="M593 -19q-225 0 -355.5 137.5t-130.5 382.5q0 246 121 390.5t326 144.5q191 0 302.5 -125.5t111.5 -331.5v-98h-701q4 -179 90 -272t242 -93q164 0 325 69v-138q-82 -35 -154.5 -50.5t-176.5 -15.5zM552 907q-123 0 -196 -79.5t-86 -221.5h532q0 146 -65 223.5t-185 77.5
zM294 1294q0 48 24.5 69.5t59.5 21.5t60.5 -21.5t25.5 -69.5q0 -47 -25.5 -69.5t-60.5 -22.5t-59.5 22.5t-24.5 69.5zM648 1294q0 48 24.5 69.5t58.5 21.5q35 0 60.5 -21.5t25.5 -69.5q0 -47 -25.5 -69.5t-60.5 -22.5q-34 0 -58.5 22.5t-24.5 69.5z" />
    <glyph glyph-name="afii10099" unicode="&#x452;" horiz-adv-x="1167" 
d="M757 -457q-73 0 -122 23v128q54 -19 105 -19q120 0 120 158v789q0 125 -56.5 186t-177.5 61q-161 0 -234 -87t-73 -283v-499h-156v1154h-144v118h144v173h155v-173h372v-118h-372v-182q0 -78 -8 -130h9q46 74 130 116t192 42q186 0 279.5 -88.5t93.5 -283.5v-782
q0 -145 -63.5 -224t-193.5 -79z" />
    <glyph glyph-name="afii10100" unicode="&#x453;" horiz-adv-x="814" 
d="M776 886h-458v-886h-155v1018h613v-132zM351 1176q45 57 96.5 139t80.5 142h188v-19q-41 -61 -121.5 -149t-140.5 -136h-103v23z" />
    <glyph glyph-name="afii10101" unicode="&#x454;" horiz-adv-x="936" 
d="M588 -19q-230 0 -355.5 135.5t-125.5 387.5q0 256 127.5 394t360.5 138q76 0 149.5 -14.5t126.5 -37.5l-45 -131q-133 47 -234 47q-153 0 -232 -75.5t-93 -232.5h513v-131h-515q8 -177 87 -261t234 -84q130 0 270 55v-137q-107 -53 -268 -53z" />
    <glyph glyph-name="afii10102" unicode="&#x455;" horiz-adv-x="907" 
d="M820 278q0 -142 -106 -219.5t-297 -77.5q-202 0 -316 65v143q74 -38 158 -59t162 -21q120 0 185 38.5t65 117.5q0 59 -51.5 101.5t-200.5 99.5q-142 53 -202 92.5t-89.5 89.5t-29.5 120q0 124 101.5 196t277.5 72q165 0 322 -66l-55 -126q-153 63 -278 63
q-109 0 -165 -34t-56 -95q0 -41 21 -69.5t67.5 -54.5t178.5 -75q181 -66 244.5 -133t63.5 -168z" />
    <glyph glyph-name="afii10103" unicode="&#x456;" horiz-adv-x="481" 
d="M318 0h-155v1018h155v-1018zM150 1294q0 53 26 77.5t65 24.5q38 0 64.5 -25t26.5 -77t-26.5 -77.5t-64.5 -25.5q-39 0 -65 25.5t-26 77.5z" />
    <glyph glyph-name="afii10104" unicode="&#x457;" horiz-adv-x="481" 
d="M318 0h-155v1018h155v-1018zM-19 1294q0 48 24.5 69.5t59.5 21.5t60.5 -21.5t25.5 -69.5q0 -47 -25.5 -69.5t-60.5 -22.5t-59.5 22.5t-24.5 69.5zM335 1294q0 48 24.5 69.5t58.5 21.5q35 0 60.5 -21.5t25.5 -69.5q0 -47 -25.5 -69.5t-60.5 -22.5q-34 0 -58.5 22.5
t-24.5 69.5z" />
    <glyph glyph-name="afii10105" unicode="&#x458;" horiz-adv-x="481" 
d="M40 -457q-88 0 -143 23v126q64 -19 126 -19q73 0 106.5 39.5t33.5 120.5v1185h155v-1174q0 -301 -278 -301zM150 1294q0 53 26 77.5t65 24.5q38 0 64.5 -25t26.5 -77t-26.5 -77.5t-64.5 -25.5q-39 0 -65 25.5t-26 77.5z" />
    <glyph glyph-name="afii10106" unicode="&#x459;" horiz-adv-x="1592" 
d="M877 597h226q196 0 290.5 -72t94.5 -215q0 -310 -406 -310h-382v886h-239q-38 -481 -122 -690t-242 -209q-52 0 -82 11v114q20 -5 46 -5q107 0 170 225.5t96 685.5h550v-421zM1334 301q0 84 -58 123.5t-205 39.5h-215v-335h220q258 0 258 172z" />
    <glyph glyph-name="afii10107" unicode="&#x45a;" horiz-adv-x="1686" 
d="M951 1016v-421h238q201 0 295.5 -71t94.5 -214q0 -310 -403 -310h-387v459h-466v-459h-160v1016h160v-424h470v424h158zM947 464v-335h223q256 0 256 172q0 85 -59 124t-201 39h-219z" />
    <glyph glyph-name="afii10108" unicode="&#x45b;" horiz-adv-x="1167" 
d="M860 0v622q0 125 -56.5 186t-177.5 61q-162 0 -235 -86t-73 -284v-499h-155v1154h-144v118h144v173h155v-173h417v-118h-417v-182q0 -78 -8 -130h9q46 74 130 116t192 42q186 0 279.5 -88.5t93.5 -283.5v-628h-154z" />
    <glyph glyph-name="afii10109" unicode="&#x45c;" horiz-adv-x="987" 
d="M757 1018h169l-439 -491l475 -527h-180l-464 515v-515h-155v1018h155v-495zM412 1176q45 57 96.5 139t80.5 142h188v-19q-41 -61 -121.5 -149t-140.5 -136h-103v23z" />
    <glyph glyph-name="afii10110" unicode="&#x45e;" horiz-adv-x="958" 
d="M2 1018h165l223 -581q73 -198 91 -287h8q12 48 50.5 162.5t251.5 705.5h166l-438 -1159q-65 -172 -152 -244t-213 -72q-70 0 -139 16v123q51 -11 114 -11q159 0 227 179l56 144zM474 1153q-171 0 -250 66t-89 219h145q9 -97 51 -135t147 -38q96 0 142 41t56 132h146
q-11 -147 -94 -216t-254 -69z" />
    <glyph glyph-name="afii10193" unicode="&#x45f;" horiz-adv-x="1181" 
d="M519 0h-356v1016h155v-883h544v883h154v-1016h-343v-350h-154v350z" />
    <glyph glyph-name="afii10050" unicode="&#x490;" horiz-adv-x="1002" 
d="M808 1358v279h150v-421h-613v-1216h-158v1358h621z" />
    <glyph glyph-name="afii10098" unicode="&#x491;" horiz-adv-x="814" 
d="M776 898h-458v-898h-155v1018h459v298h154v-418z" />
    <glyph glyph-name="Wgrave" unicode="&#x1e80;" horiz-adv-x="1761" 
d="M1372 0h-156l-274 909q-20 61 -44 152.5t-25 110.5q-20 -123 -65 -268l-266 -904h-156l-361 1358h167l215 -839q44 -176 65 -319q25 170 74 332l243 826h168l255 -833q45 -144 75 -325q18 132 67 321l214 837h167zM989 1467h-102q-61 48 -143.5 137t-119.5 148v19h189
q29 -64 82 -148t94 -133v-23z" />
    <glyph glyph-name="wgrave" unicode="&#x1e81;" horiz-adv-x="1479" 
d="M995 0l-187 597q-18 55 -66 249h-7q-38 -162 -65 -251l-193 -595h-178l-278 1018h162q98 -384 149.5 -584.5t59.5 -270.5h7q11 53 33.5 137t39.5 134l186 584h168l182 -584q52 -160 70 -269h8q3 34 19.5 103.5t193.5 749.5h160l-281 -1018h-183zM837 1153h-102
q-61 48 -143.5 137t-119.5 148v19h189q29 -64 82 -148t94 -133v-23z" />
    <glyph glyph-name="Wacute" unicode="&#x1e82;" horiz-adv-x="1761" 
d="M1372 0h-156l-274 909q-20 61 -44 152.5t-25 110.5q-20 -123 -65 -268l-266 -904h-156l-361 1358h167l215 -839q44 -176 65 -319q25 170 74 332l243 826h168l255 -833q45 -144 75 -325q18 132 67 321l214 837h167zM766 1490q45 57 96.5 139t80.5 142h188v-19
q-41 -61 -121.5 -149t-140.5 -136h-103v23z" />
    <glyph glyph-name="wacute" unicode="&#x1e83;" horiz-adv-x="1479" 
d="M995 0l-187 597q-18 55 -66 249h-7q-38 -162 -65 -251l-193 -595h-178l-278 1018h162q98 -384 149.5 -584.5t59.5 -270.5h7q11 53 33.5 137t39.5 134l186 584h168l182 -584q52 -160 70 -269h8q3 34 19.5 103.5t193.5 749.5h160l-281 -1018h-183zM628 1176q45 57 96.5 139
t80.5 142h188v-19q-41 -61 -121.5 -149t-140.5 -136h-103v23z" />
    <glyph glyph-name="Wdieresis" unicode="&#x1e84;" horiz-adv-x="1761" 
d="M1372 0h-156l-274 909q-20 61 -44 152.5t-25 110.5q-20 -123 -65 -268l-266 -904h-156l-361 1358h167l215 -839q44 -176 65 -319q25 170 74 332l243 826h168l255 -833q45 -144 75 -325q18 132 67 321l214 837h167zM618 1608q0 48 24.5 69.5t59.5 21.5t60.5 -21.5
t25.5 -69.5q0 -47 -25.5 -69.5t-60.5 -22.5t-59.5 22.5t-24.5 69.5zM972 1608q0 48 24.5 69.5t58.5 21.5q35 0 60.5 -21.5t25.5 -69.5q0 -47 -25.5 -69.5t-60.5 -22.5q-34 0 -58.5 22.5t-24.5 69.5z" />
    <glyph glyph-name="wdieresis" unicode="&#x1e85;" horiz-adv-x="1479" 
d="M995 0l-187 597q-18 55 -66 249h-7q-38 -162 -65 -251l-193 -595h-178l-278 1018h162q98 -384 149.5 -584.5t59.5 -270.5h7q11 53 33.5 137t39.5 134l186 584h168l182 -584q52 -160 70 -269h8q3 34 19.5 103.5t193.5 749.5h160l-281 -1018h-183zM479 1294q0 48 24.5 69.5
t59.5 21.5t60.5 -21.5t25.5 -69.5q0 -47 -25.5 -69.5t-60.5 -22.5t-59.5 22.5t-24.5 69.5zM833 1294q0 48 24.5 69.5t58.5 21.5q35 0 60.5 -21.5t25.5 -69.5q0 -47 -25.5 -69.5t-60.5 -22.5q-34 0 -58.5 22.5t-24.5 69.5z" />
    <glyph glyph-name="Ygrave" unicode="&#x1ef2;" horiz-adv-x="1065" 
d="M532 679l362 679h171l-453 -831v-527h-160v519l-452 839h173zM630 1467h-102q-61 48 -143.5 137t-119.5 148v19h189q29 -64 82 -148t94 -133v-23z" />
    <glyph glyph-name="ygrave" unicode="&#x1ef3;" horiz-adv-x="958" 
d="M2 1018h165l223 -581q73 -198 91 -287h8q12 48 50.5 162.5t251.5 705.5h166l-438 -1159q-65 -172 -152 -244t-213 -72q-70 0 -139 16v123q51 -11 114 -11q159 0 227 179l56 144zM582 1153h-102q-61 48 -143.5 137t-119.5 148v19h189q29 -64 82 -148t94 -133v-23z" />
    <glyph glyph-name="endash" unicode="&#x2013;" horiz-adv-x="951" 
d="M76 439v141h799v-141h-799z" />
    <glyph glyph-name="emdash" unicode="&#x2014;" horiz-adv-x="1902" 
d="M76 439v141h1750v-141h-1750z" />
    <glyph glyph-name="afii00208" unicode="&#x2015;" horiz-adv-x="1902" 
d="M76 439v141h1750v-141h-1750z" />
    <glyph glyph-name="underscoredbl" unicode="&#x2017;" horiz-adv-x="782" 
d="M786 -430h-790v129h790v-129zM786 -171h-790v129h790v-129z" />
    <glyph glyph-name="quoteleft" unicode="&#x2018;" horiz-adv-x="323" 
d="M34 892l-11 21q21 84 66.5 208t97.5 237h114q-61 -236 -96 -466h-171z" />
    <glyph glyph-name="quoteright" unicode="&#x2019;" horiz-adv-x="323" 
d="M287 1358l14 -21q-24 -93 -69.5 -216t-94.5 -229h-114q65 265 95 466h169z" />
    <glyph glyph-name="quotesinglbase" unicode="&#x201a;" horiz-adv-x="466" 
d="M325 221l14 -21q-24 -93 -69.5 -216t-94.5 -229h-116q25 96 55 238.5t42 227.5h169z" />
    <glyph glyph-name="quotereversed" unicode="&#x201b;" horiz-adv-x="323" 
d="M207 1358q34 -233 96 -466h-114q-42 88 -92.5 220t-73.5 225l13 21h171z" />
    <glyph glyph-name="quotedblleft" unicode="&#x201c;" horiz-adv-x="666" 
d="M377 892l-14 21q52 200 165 445h115q-28 -107 -55.5 -241t-39.5 -225h-171zM34 892l-11 21q21 84 66.5 208t97.5 237h114q-61 -236 -96 -466h-171z" />
    <glyph glyph-name="quotedblright" unicode="&#x201d;" horiz-adv-x="666" 
d="M287 1358l14 -21q-24 -93 -69.5 -216t-94.5 -229h-114q65 265 95 466h169zM630 1358l13 -21q-23 -84 -67.5 -207.5t-96.5 -237.5h-116q24 93 55 236t43 230h169z" />
    <glyph glyph-name="quotedblbase" unicode="&#x201e;" horiz-adv-x="770" 
d="M287 221l14 -21q-24 -93 -69.5 -216t-94.5 -229h-114q65 265 95 466h169zM630 221l13 -21q-23 -84 -67.5 -207.5t-96.5 -237.5h-116q24 93 55 236t43 230h169z" />
    <glyph glyph-name="dagger" unicode="&#x2020;" horiz-adv-x="955" 
d="M840 928l-326 29l45 -957h-182l46 957l-309 -29v158l309 -28l-46 387h182l-45 -387l326 28v-158z" />
    <glyph glyph-name="daggerdbl" unicode="&#x2021;" horiz-adv-x="970" 
d="M528 452l328 29v-156l-328 27l46 -352h-184l46 352l-322 -27v156l322 -29l-40 278l40 263l-322 -29v156l322 -28l-46 353h184l-46 -353l328 28v-156l-328 29l40 -263z" />
    <glyph glyph-name="bullet" unicode="&#x2022;" horiz-adv-x="715" 
d="M152 695q0 112 52.5 170.5t153.5 58.5q97 0 151 -57.5t54 -171.5q0 -111 -53.5 -171t-151.5 -60q-100 0 -153 61t-53 170z" />
    <glyph glyph-name="ellipsis" unicode="&#x2026;" horiz-adv-x="1492" 
d="M141 98q0 63 28.5 95t81.5 32q54 0 84 -32t30 -95q0 -60 -30.5 -92.5t-83.5 -32.5q-48 0 -79 29.5t-31 95.5zM633 98q0 63 28.5 95t81.5 32q54 0 84 -32t30 -95q0 -60 -30.5 -92.5t-83.5 -32.5q-48 0 -79 29.5t-31 95.5zM1126 98q0 63 28.5 95t81.5 32q54 0 84 -32
t30 -95q0 -60 -30.5 -92.5t-83.5 -32.5q-48 0 -79 29.5t-31 95.5z" />
    <glyph glyph-name="perthousand" unicode="&#x2030;" horiz-adv-x="2286" 
d="M219 953q0 -158 38.5 -237t125.5 -79q167 0 167 316q0 314 -167 314q-87 0 -125.5 -78t-38.5 -236zM677 953q0 -214 -74.5 -321t-219.5 -107q-139 0 -214.5 110.5t-75.5 317.5q0 424 290 424q141 0 217.5 -111.5t76.5 -312.5zM1250 1358l-753 -1358h-138l754 1358h137z
M1737 409q0 -159 38.5 -237.5t124.5 -78.5q85 0 126 77.5t41 238.5q0 158 -41 235t-126 77q-86 0 -124.5 -77t-38.5 -235zM2195 409q0 -214 -75.5 -321t-219.5 -107q-137 0 -213 111t-76 317q0 424 289 424q139 0 217 -109.5t78 -314.5zM1058 409q0 -159 37.5 -237.5
t123.5 -78.5q85 0 126.5 77.5t41.5 238.5q0 158 -41.5 235t-126.5 77q-86 0 -123.5 -77t-37.5 -235zM1514 409q0 -214 -75.5 -321t-219.5 -107q-138 0 -213.5 110.5t-75.5 317.5q0 424 289 424q140 0 217.5 -109.5t77.5 -314.5z" />
    <glyph glyph-name="minute" unicode="&#x2032;" horiz-adv-x="421" 
d="M296 1358l-37 -491h-97l-38 491h172z" />
    <glyph glyph-name="second" unicode="&#x2033;" horiz-adv-x="748" 
d="M296 1358l-37 -491h-97l-38 491h172zM639 1358l-38 -491h-97l-38 491h173z" />
    <glyph glyph-name="guilsinglleft" unicode="&#x2039;" horiz-adv-x="579" 
d="M76 512l318 378l110 -64l-268 -325l268 -326l-110 -66l-318 378v25z" />
    <glyph glyph-name="guilsinglright" unicode="&#x203a;" horiz-adv-x="579" 
d="M502 487l-319 -378l-109 66l267 326l-267 325l109 64l319 -378v-25z" />
    <glyph glyph-name="exclamdbl" unicode="&#x203c;" horiz-adv-x="924" 
d="M303 374h-98l-47 984h192zM141 98q0 127 112 127q53 0 82.5 -32.5t29.5 -94.5q0 -59 -29.5 -92t-82.5 -33q-49 0 -80.5 29.5t-31.5 95.5zM720 374h-98l-47 984h192zM558 98q0 127 112 127q53 0 82.5 -32.5t29.5 -94.5q0 -59 -29.5 -92t-82.5 -33q-49 0 -80.5 29.5
t-31.5 95.5z" />
    <glyph glyph-name="fraction" unicode="&#x2044;" horiz-adv-x="247" 
d="M608 1358l-838 -1358h-133l838 1358h133z" />
    <glyph glyph-name="nsuperior" unicode="&#x207f;" horiz-adv-x="749" 
d="M546 744v390q0 78 -36 111t-111 33q-106 0 -148 -49t-42 -162v-323h-108v617h89l13 -81h10q69 94 204 94q240 0 240 -233v-397h-111z" />
    <glyph glyph-name="franc" unicode="&#x20a3;" horiz-adv-x="1088" 
d="M409 367h286v-120h-286v-247h-155v247h-163v120h163v991h730v-140h-575v-497h538v-141h-538v-213z" />
    <glyph glyph-name="afii08941" unicode="&#x20a4;" horiz-adv-x="1088" 
d="M639 1375q187 0 333 -74l-55 -122q-142 66 -278 66q-113 0 -171.5 -62.5t-58.5 -182.5v-173h390v-119h-390v-154h390v-120h-390v-31q0 -93 -30.5 -156t-98.5 -104h738v-143h-955v131q191 45 191 270v33h-185v120h185v154h-185v119h185v193q0 165 104 260t281 95z" />
    <glyph glyph-name="peseta" unicode="&#x20a7;" horiz-adv-x="1452" 
d="M1261 109q32 0 72 6.5t50 9.5v-116q-56 -28 -158 -28q-101 0 -161 63.5t-60 191.5v430h-146v74l146 64l58 178h91v-196h205v-120h-205v-410q0 -71 24 -109t84 -38zM860 962q0 -211 -128.5 -319.5t-375.5 -108.5h-60v-534h-153v1358h243q238 0 356 -98t118 -298zM296 670
h49q185 0 271 67t86 218q0 134 -80 200t-250 66h-76v-551z" />
    <glyph glyph-name="Euro" unicode="&#x20ac;" horiz-adv-x="1122" 
d="M738 1238q-296 0 -369 -374h473v-120h-486l-2 -53v-59l2 -42h430v-120h-415q34 -167 128 -258.5t252 -91.5q145 0 287 61v-139q-135 -61 -294 -61q-220 0 -354.5 125t-176.5 364h-154v120h141l-2 39v41l2 74h-141v120h152q36 242 171.5 377.5t355.5 135.5q187 0 340 -90
l-66 -129q-154 80 -274 80z" />
    <glyph glyph-name="afii61248" unicode="&#x2105;" horiz-adv-x="1568" 
d="M1218 1358l-754 -1358h-137l753 1358h138zM1436 310q0 -147 -78.5 -232t-216.5 -85q-129 0 -208 85.5t-79 231.5q0 147 78 232.5t215 85.5q131 0 210 -86.5t79 -231.5zM980 310q0 -221 165 -221q164 0 164 221q0 218 -164 218q-165 0 -165 -218zM454 732
q-154 0 -238.5 82t-84.5 232q0 156 87.5 239t245.5 83q97 0 179 -33l-31 -95q-75 29 -150 29q-208 0 -208 -221q0 -219 205 -219q91 0 174 31v-94q-72 -34 -179 -34z" />
    <glyph glyph-name="afii61289" unicode="&#x2113;" horiz-adv-x="989" 
d="M592 103q161 0 178 198h88q-7 -154 -78 -237t-203 -83q-140 0 -214 84.5t-74 240.5v226q-89 -32 -178 -53v105q72 20 178 55v462q0 129 69.5 202.5t195.5 73.5q108 0 171 -74.5t63 -202.5q0 -172 -96 -313.5t-258 -209.5v-263q0 -97 38 -154t120 -57zM671 1094
q0 180 -117 180q-63 0 -91.5 -40t-28.5 -140v-406q237 127 237 406z" />
    <glyph glyph-name="afii61352" unicode="&#x2116;" horiz-adv-x="1938" 
d="M1136 0h-174l-643 1140h-7q15 -268 15 -368v-772h-140v1358h180l633 -1135h8q-13 227 -13 356v779h141v-1358zM1845 577q0 -152 -74.5 -237.5t-211.5 -85.5q-129 0 -204 87t-75 236q0 151 74.5 235t211.5 84q129 0 204 -86.5t75 -232.5zM1401 577q0 -106 38 -161t124 -55
q85 0 121.5 54.5t36.5 161.5t-36.5 159t-121.5 52t-123.5 -52t-38.5 -159zM1322 0v125h475v-125h-475z" />
    <glyph glyph-name="trademark" unicode="&#x2122;" horiz-adv-x="1476" 
d="M343 688h-115v571h-194v99h505v-99h-196v-571zM900 688l-187 519h-7l5 -119v-400h-110v670h174l182 -519l188 519h167v-670h-118v390l6 127h-8l-195 -517h-97z" />
    <glyph glyph-name="Omega" unicode="&#x2126;" horiz-adv-x="1488" 
d="M744 1238q-221 0 -337 -119.5t-116 -354.5q0 -209 80 -363.5t248 -276.5v-124h-545v141h338q-140 110 -214 272.5t-74 350.5q0 288 164 451.5t456 163.5t456.5 -161t164.5 -452q0 -192 -73.5 -352.5t-213.5 -272.5h337v-141h-544v124q170 124 248.5 279t78.5 361
q0 234 -115.5 354t-338.5 120z" />
    <glyph glyph-name="estimated" unicode="&#x212e;" horiz-adv-x="1178" 
d="M588 -33q-146 0 -258 68.5t-173.5 189.5t-61.5 267q0 159 64 277.5t177 183.5t252 65q141 0 254 -66t175.5 -186.5t62.5 -273.5h-768v-330q46 -50 123 -82.5t153 -32.5q122 0 206.5 49t160.5 169l67 -38q-91 -144 -192 -202t-242 -58zM866 572v257q-47 50 -122.5 80.5
t-157.5 30.5q-161 0 -274 -109v-259h554z" />
    <glyph glyph-name="oneeighth" unicode="&#x215b;" horiz-adv-x="1483" 
d="M1169 1358l-838 -1358h-133l838 1358h133zM309 1358h133v-814h-124v538q0 84 6 168q-21 -20 -46 -41t-150 -109l-62 89zM1133 827q115 0 185 -55t70 -152q0 -120 -137 -191q163 -69 163 -215q0 -105 -76.5 -169t-204.5 -64q-136 0 -210 59.5t-74 167.5q0 64 34 118
t113 97q-69 42 -95.5 85.5t-26.5 106.5q0 95 73 153.5t186 58.5zM971 208q0 -56 39 -89.5t119 -33.5q83 0 122.5 33.5t39.5 89.5q0 59 -43.5 95.5t-118.5 62.5l-26 9q-67 -31 -99.5 -70t-32.5 -97zM1131 725q-63 0 -98 -27.5t-35 -80.5q0 -44 31.5 -77t106.5 -64
q130 51 130 141q0 53 -36 80.5t-99 27.5z" />
    <glyph glyph-name="threeeighths" unicode="&#x215c;" horiz-adv-x="1483" 
d="M1234 1358l-838 -1358h-133l838 1358h133zM1153 827q115 0 185 -55t70 -152q0 -120 -137 -191q163 -69 163 -215q0 -105 -76.5 -169t-204.5 -64q-136 0 -210 59.5t-74 167.5q0 64 34 118t113 97q-69 42 -95.5 85.5t-26.5 106.5q0 95 73 153.5t186 58.5zM991 208
q0 -56 39 -89.5t119 -33.5q83 0 122.5 33.5t39.5 89.5q0 59 -43.5 95.5t-118.5 62.5l-26 9q-67 -31 -99.5 -70t-32.5 -97zM1151 725q-63 0 -98 -27.5t-35 -80.5q0 -44 31.5 -77t106.5 -64q130 51 130 141q0 53 -36 80.5t-99 27.5zM581 1166q0 -75 -38 -122.5t-101 -69.5
q163 -43 163 -194q0 -119 -85 -185.5t-241 -66.5q-142 0 -249 52v115q136 -63 250 -63q196 0 196 150q0 135 -214 135h-109v99h111q95 0 141 36.5t46 100.5q0 56 -37 87.5t-99 31.5t-114 -20t-104 -52l-64 83q59 42 124 67t152 25q126 0 199 -55t73 -154z" />
    <glyph glyph-name="fiveeighths" unicode="&#x215d;" horiz-adv-x="1483" 
d="M1228 1358l-838 -1358h-133l838 1358h133zM316 1048q134 0 216 -66.5t82 -180.5q0 -130 -79 -202t-233 -72q-69 0 -133.5 14t-102.5 36v121q52 -31 117 -48.5t115 -17.5q88 0 139 38.5t51 120.5q0 73 -50.5 113.5t-145.5 40.5q-53 0 -88 -7.5t-64 -15.5l-55 38l31 387
h460v-97h-354l-19 -214q58 12 113 12zM1149 827q115 0 185 -55t70 -152q0 -120 -137 -191q163 -69 163 -215q0 -105 -76.5 -169t-204.5 -64q-136 0 -210 59.5t-74 167.5q0 64 34 118t113 97q-69 42 -95.5 85.5t-26.5 106.5q0 95 73 153.5t186 58.5zM987 208q0 -56 39 -89.5
t119 -33.5q83 0 122.5 33.5t39.5 89.5q0 59 -43.5 95.5t-118.5 62.5l-26 9q-67 -31 -99.5 -70t-32.5 -97zM1147 725q-63 0 -98 -27.5t-35 -80.5q0 -44 31.5 -77t106.5 -64q130 51 130 141q0 53 -36 80.5t-99 27.5z" />
    <glyph glyph-name="seveneighths" unicode="&#x215e;" horiz-adv-x="1483" 
d="M1149 1358l-838 -1358h-133l838 1358h133zM1145 827q115 0 185 -55t70 -152q0 -120 -137 -191q163 -69 163 -215q0 -105 -76.5 -169t-204.5 -64q-136 0 -210 59.5t-74 167.5q0 64 34 118t113 97q-69 42 -95.5 85.5t-26.5 106.5q0 95 73 153.5t186 58.5zM983 208
q0 -56 39 -89.5t119 -33.5q83 0 122.5 33.5t39.5 89.5q0 59 -43.5 95.5t-118.5 62.5l-26 9q-67 -31 -99.5 -70t-32.5 -97zM1143 725q-63 0 -98 -27.5t-35 -80.5q0 -44 31.5 -77t106.5 -64q130 51 130 141q0 53 -36 80.5t-99 27.5zM196 544l325 706h-422v108h555v-88
l-327 -726h-131z" />
    <glyph glyph-name="partialdiff" unicode="&#x2202;" horiz-adv-x="1105" 
d="M1000 867q0 -243 -77.5 -456t-205.5 -321.5t-289 -108.5q-160 0 -246.5 93.5t-86.5 271.5q0 157 63 299.5t170.5 217.5t248.5 75q90 0 157.5 -43t107.5 -113l4 84q0 376 -262 376q-57 0 -124 -20.5t-112 -51.5v148q44 21 116 38.5t141 17.5q195 0 295 -128.5t100 -378.5z
M437 112q89 0 166 67t132.5 187.5t76.5 259.5q-24 90 -83 140t-134 50q-93 0 -170 -61t-124 -177t-47 -235q0 -110 47 -170.5t136 -60.5z" />
    <glyph glyph-name="Delta" unicode="&#x2206;" horiz-adv-x="1088" 
d="M36 97l430 1261h154l432 -1263v-95h-1016v97zM542 1178q-56 -209 -93 -322l-242 -715h670l-240 707q-63 188 -95 330z" />
    <glyph glyph-name="product" unicode="&#x220f;" horiz-adv-x="1405" 
d="M1062 -461v1677h-717v-1677h-158v1819h1032v-1819h-157z" />
    <glyph glyph-name="summation" unicode="&#x2211;" horiz-adv-x="1200" 
d="M71 -461v100l586 858l-572 760v101h1011v-140h-788l538 -717l-561 -820h871v-142h-1085z" />
    <glyph glyph-name="minus" unicode="&#x2212;" horiz-adv-x="1088" 
d="M97 606v129h892v-129h-892z" />
    <glyph glyph-name="radical" unicode="&#x221a;" horiz-adv-x="1044" 
d="M579 -13h-118l-259 726h-168v126h269l218 -636l477 1365h128z" />
    <glyph glyph-name="infinity" unicode="&#x221e;" horiz-adv-x="1341" 
d="M1231 668q0 -122 -78 -208t-196 -86q-87 0 -158 49.5t-131 156.5q-56 -96 -127 -148.5t-153 -52.5q-121 0 -199 80.5t-78 211.5q0 125 78 208t199 83q168 0 282 -203q115 199 287 199q123 0 198.5 -81t75.5 -209zM396 494q61 0 111.5 42.5t100.5 134.5q-46 91 -96.5 134
t-117.5 43q-71 0 -117.5 -49t-46.5 -129q0 -77 45 -126.5t121 -49.5zM945 844q-61 0 -111.5 -42.5t-101.5 -133.5q47 -90 98 -134t117 -44q71 0 117.5 50t46.5 128q0 79 -47 127.5t-119 48.5z" />
    <glyph glyph-name="integral" unicode="&#x222b;" horiz-adv-x="730" 
d="M592 1445q73 0 114 -15v-127q-46 20 -103 20q-164 0 -164 -225v-1218q0 -163 -76.5 -250t-227.5 -87q-69 0 -124 18v125q57 -20 111 -20q169 0 169 225v1218q0 336 301 336z" />
    <glyph glyph-name="approxequal" unicode="&#x2248;" horiz-adv-x="1088" 
d="M312 475q-50 0 -109 -29.5t-112 -82.5v139q100 103 238 103q62 0 114 -13t134 -48q71 -30 113.5 -42t84.5 -12q49 0 108.5 31t109.5 84v-141q-94 -101 -236 -101q-62 0 -113.5 13.5t-133.5 47.5q-68 28 -110 39.5t-88 11.5zM312 853q-53 0 -112.5 -32t-108.5 -81v139
q98 101 238 101q64 0 118 -15t130 -47q64 -26 108 -38.5t90 -12.5q51 0 110.5 31t107.5 82v-140q-93 -102 -236 -102q-64 0 -119 15t-128 46q-78 31 -117.5 42.5t-80.5 11.5z" />
    <glyph glyph-name="notequal" unicode="&#x2260;" horiz-adv-x="1088" 
d="M354 417h-257v127h315l118 253h-433v127h493l125 267l116 -53l-101 -214h259v-127h-318l-119 -253h437v-127h-497l-121 -263l-117 51z" />
    <glyph glyph-name="lessequal" unicode="&#x2264;" horiz-adv-x="1088" 
d="M989 225l-892 392v91l892 445v-139l-726 -344l726 -305v-140zM97 0v129h892v-129h-892z" />
    <glyph glyph-name="greaterequal" unicode="&#x2265;" horiz-adv-x="1088" 
d="M97 365l727 303l-727 346v139l892 -445v-91l-892 -392v140zM97 0v129h892v-129h-892z" />
    <glyph glyph-name="lozenge" unicode="&#x25ca;" horiz-adv-x="1109" 
d="M103 683l418 687h67l420 -687l-420 -683h-67zM850 684l-295 494l-294 -494l294 -494z" />
    <glyph glyph-name="cyrillicbreve" horiz-adv-x="1098" 
d="M542 1153q-171 0 -250 66t-89 219h145q9 -97 51 -135t147 -38q96 0 142 41t56 132h146q-11 -147 -94 -216t-254 -69z" />
    <glyph glyph-name="dotlessj" unicode="&#x237;" horiz-adv-x="481" 
d="M40 -457q-88 0 -143 23v126q64 -19 126 -19q73 0 106.5 39.5t33.5 120.5v1185h155v-1174q0 -301 -278 -301z" />
    <glyph glyph-name="caroncommaaccent" horiz-adv-x="951" 
d="M365 1164q18 51 36 128.5t27 152.5h156v-17q-10 -47 -51 -134.5t-84 -152.5h-84v23z" />
    <glyph glyph-name="commaaccent" horiz-adv-x="951" 
d="M343 -397q26 59 49.5 145.5t30.5 135.5h156v-17q-11 -47 -56.5 -136.5t-96.5 -151.5h-83v24z" />
    <glyph glyph-name="commaaccentrotate" horiz-adv-x="951" 
d="M593 1434q-26 -57 -51 -146.5t-30 -134.5h-154v17q13 57 58.5 145.5t91.5 141.5h85v-23z" />
    <glyph glyph-name="zerosuperior" unicode="&#x2070;" horiz-adv-x="660" 
d="M163 951q0 -156 38.5 -233t125.5 -77t127 76.5t40 235.5q0 158 -40 234t-127 76t-125.5 -76.5t-38.5 -235.5zM622 953q0 -425 -293 -425q-147 0 -220 110t-73 315q0 421 293 421q146 0 219.5 -108t73.5 -313z" />
    <glyph glyph-name="foursuperior" unicode="&#x2074;" horiz-adv-x="660" 
d="M643 732h-116v-188h-135v188h-373v94l378 537h130v-523h116v-108zM392 840v182q0 124 5 194q-4 -11 -15 -29.5t-25 -39t-28 -41.5t-24 -37l-156 -229h243z" />
    <glyph glyph-name="fivesuperior" unicode="&#x2075;" horiz-adv-x="660" 
d="M305 1048q134 0 216 -66.5t82 -180.5q0 -130 -79 -202t-233 -72q-69 0 -133.5 14t-102.5 36v121q52 -31 117 -48.5t115 -17.5q88 0 139 38.5t51 120.5q0 73 -50.5 113.5t-145.5 40.5q-53 0 -88 -7.5t-64 -15.5l-55 38l31 387h460v-97h-354l-19 -214q58 12 113 12z" />
    <glyph glyph-name="sixsuperior" unicode="&#x2076;" horiz-adv-x="660" 
d="M38 894q0 243 101.5 361.5t305.5 118.5q69 0 114 -14v-106q-48 16 -125 16q-131 0 -201 -71t-79 -225h8q27 40 79 67.5t131 27.5q117 0 185.5 -69t68.5 -186q0 -133 -77 -209.5t-208 -76.5q-142 0 -222.5 97.5t-80.5 268.5zM339 632q75 0 121 43t46 135q0 73 -41 115.5
t-120 42.5t-131 -42t-52 -97q0 -82 49 -139.5t128 -57.5z" />
    <glyph glyph-name="sevensuperior" unicode="&#x2077;" horiz-adv-x="660" 
d="M150 544l325 706h-422v108h555v-88l-327 -726h-131z" />
    <glyph glyph-name="eightsuperior" unicode="&#x2078;" horiz-adv-x="660" 
d="M331 1374q115 0 185 -55t70 -152q0 -120 -137 -191q163 -69 163 -215q0 -105 -76.5 -169t-204.5 -64q-136 0 -210 59.5t-74 167.5q0 64 34 118t113 97q-69 42 -95.5 85.5t-26.5 106.5q0 95 73 153.5t186 58.5zM169 755q0 -56 39 -89.5t119 -33.5q83 0 122.5 33.5
t39.5 89.5q0 59 -43.5 95.5t-118.5 62.5l-26 9q-67 -31 -99.5 -70t-32.5 -97zM329 1272q-63 0 -98 -27.5t-35 -80.5q0 -44 31.5 -77t106.5 -64q130 51 130 141q0 53 -36 80.5t-99 27.5z" />
    <glyph glyph-name="ninesuperior" unicode="&#x2079;" horiz-adv-x="660" 
d="M620 1016q0 -251 -101 -369.5t-298 -118.5q-77 0 -123 14v108q46 -18 132 -18q257 0 276 302h-9q-33 -47 -86.5 -71t-114.5 -24q-121 0 -192 67.5t-71 189.5q0 126 78 202.5t205 76.5q141 0 222.5 -93.5t81.5 -265.5zM316 1272q-75 0 -119.5 -44t-44.5 -125
q0 -75 39.5 -119t120.5 -44q78 0 131.5 39.5t53.5 96.5q0 90 -48 143t-133 53z" />
    <glyph glyph-name="uni2000" unicode="&#x2000;" horiz-adv-x="951" 
 />
    <glyph glyph-name="uni2001" unicode="&#x2001;" horiz-adv-x="1902" 
 />
    <glyph glyph-name="uni2002" unicode="&#x2002;" horiz-adv-x="951" 
 />
    <glyph glyph-name="uni2003" unicode="&#x2003;" horiz-adv-x="1902" 
 />
    <glyph glyph-name="uni2004" unicode="&#x2004;" horiz-adv-x="633" 
 />
    <glyph glyph-name="uni2005" unicode="&#x2005;" horiz-adv-x="475" 
 />
    <glyph glyph-name="uni2006" unicode="&#x2006;" horiz-adv-x="318" 
 />
    <glyph glyph-name="uni2007" unicode="&#x2007;" horiz-adv-x="1063" 
 />
    <glyph glyph-name="uni2008" unicode="&#x2008;" horiz-adv-x="506" 
 />
    <glyph glyph-name="uni2009" unicode="&#x2009;" horiz-adv-x="381" 
 />
    <glyph glyph-name="uni200A" unicode="&#x200a;" horiz-adv-x="190" 
 />
    <glyph glyph-name="uni200B" unicode="&#x200b;" horiz-adv-x="0" 
 />
    <glyph glyph-name="uniFEFF" unicode="&#xfeff;" horiz-adv-x="0" 
 />
    <glyph glyph-name="uniFFFC" unicode="&#xfffc;" horiz-adv-x="1902" 
d="M78 1127v283h281v-103h-178v-180h-103zM1561 1307v103h282v-283h-101v180h-181zM78 -356v282h103v-180h178v-102h-281zM1561 -356v102h181v180h101v-282h-282zM1198 -356v102h254v-102h-254zM472 -356v102h251v-102h-251zM472 1307v103h251v-103h-251zM1843 36h-101v251
h101v-251zM1843 764h-101v252h101v-252zM835 -356v102h253v-102h-253zM181 36h-103v251h103v-251zM835 1307v103h253v-103h-253zM1198 1307v103h254v-103h-254zM181 399h-103v253h103v-253zM181 764h-103v252h103v-252zM1843 399h-101v253h101v-253zM802 584
q0 -135 -62.5 -207t-180.5 -72t-180.5 72t-62.5 207q0 136 62.5 208t180.5 72q117 0 180 -71.5t63 -208.5zM434 584q0 -183 125 -183t125 183q0 182 -125 182t-125 -182zM880 856h160q101 0 153 -31t52 -108q0 -46 -21 -76.5t-62 -37.5v-8q56 -13 77.5 -44.5t21.5 -80.5
q0 -75 -50.5 -116.5t-137.5 -41.5h-193v544zM995 641h61q43 0 59.5 15.5t16.5 45.5q0 32 -19.5 45.5t-63.5 13.5h-54v-120zM995 550v-143h68q46 0 63 20t17 54q0 69 -83 69h-65zM1385 306q-49 0 -75 10v94q40 -7 64 -7q79 0 79 80v373h117v-369q0 -89 -49 -135t-136 -46z
" />
    <glyph glyph-name="uniFFFD" unicode="&#xfffd;" horiz-adv-x="1902" 
d="M949 1445l873 -871l-873 -870l-871 870zM1010 341v43q0 47 20 77t81 76q95 76 129 134.5t34 140.5q0 125 -86.5 196.5t-240.5 71.5q-73 0 -159.5 -26t-152.5 -65l76 -165q149 74 233 74q58 0 87 -27t29 -70q0 -50 -23 -84.5t-90 -84.5q-78 -64 -105.5 -116t-27.5 -120
v-55h196zM789 85q0 -58 33 -91.5t98 -33.5q62 0 95.5 34t33.5 91q0 60 -33 94t-96 34q-67 0 -99 -33.5t-32 -94.5z" />
    <glyph glyph-name="uni01F0" unicode="&#x1f0;" horiz-adv-x="481" 
d="M40 -457q-88 0 -143 23v126q64 -19 126 -19q73 0 106.5 39.5t33.5 120.5v1185h155v-1174q0 -301 -278 -301zM-70 1457h107q106 -69 203 -175q121 120 205 175h111v-23l-61 -63q-134 -138 -177 -218h-154q-21 38 -68.5 96.5t-165.5 184.5v23z" />
    <glyph glyph-name="uni02BC" unicode="&#x2bc;" horiz-adv-x="323" 
d="M287 1358l14 -21q-24 -93 -69.5 -216t-94.5 -229h-114q65 265 95 466h169z" />
    <glyph glyph-name="uni03D1" unicode="&#x3d1;" horiz-adv-x="1183" 
d="M1031 786q4 -43 4 -103q0 -328 -134 -515t-374 -187q-365 0 -365 320q0 53 14 167q14 113 14 135q0 43 -16.5 59.5t-46.5 16.5q-23 0 -48 -7t-39 -15l-31 109q77 36 166 36q81 0 124.5 -43t43.5 -129q0 -33 -14 -155q-15 -122 -15 -176q0 -192 216 -192q349 0 349 579
q0 59 -4 100q-207 2 -351.5 50.5t-219 136t-74.5 208.5q0 134 84.5 209.5t240.5 75.5q194 0 312.5 -142.5t157.5 -418.5h133v-119h-127zM867 905q-26 196 -111 315t-199 119q-86 0 -131 -44t-45 -114q0 -131 127.5 -202.5t358.5 -73.5z" />
    <glyph glyph-name="uni03D2" unicode="&#x3d2;" horiz-adv-x="1075" 
d="M528 666q114 270 179.5 414.5t101 194.5t78.5 72.5t97 22.5q44 0 81 -14v-125q-24 5 -53 5q-37 0 -64.5 -26t-67.5 -100.5t-97.5 -191.5t-104 -227t-75.5 -189v-502h-160v519l-443 839h173z" />
    <glyph glyph-name="uni03D6" unicode="&#x3d6;" horiz-adv-x="1597" 
d="M514 -19q-173 0 -265.5 107.5t-92.5 330.5t125 467h-264v69l132 63h1388v-132h-232q108 -234 108 -467q0 -223 -92.5 -330.5t-264.5 -107.5q-205 0 -268 169h-8q-63 -169 -266 -169zM434 886q-59 -123 -89.5 -242.5t-30.5 -215.5q0 -161 50 -239t159 -78q86 0 136.5 66
t50.5 182v175h150v-175q0 -113 49.5 -180.5t136.5 -67.5q108 0 159 78t51 239q0 236 -103 458h-719z" />
    <glyph glyph-name="uni1E3E" unicode="&#x1e3e;" horiz-adv-x="1717" 
d="M788 0l-461 1204h-8q13 -143 13 -340v-864h-145v1358h237l430 -1120h8l434 1120h235v-1358h-157v875q0 150 13 327h-8l-464 -1202h-127zM748 1492q45 57 96.5 139t80.5 142h188v-19q-41 -61 -121.5 -149t-140.5 -136h-103v23z" />
    <glyph glyph-name="uni1E3F" unicode="&#x1e3f;" horiz-adv-x="1769" 
d="M1461 0v662q0 122 -52 182.5t-162 60.5q-144 0 -212.5 -82.5t-68.5 -254.5v-568h-154v662q0 122 -52 182.5t-163 60.5q-145 0 -212 -86.5t-67 -284.5v-534h-155v1018h126l25 -139h7q44 74 123.5 115.5t177.5 41.5q239 0 312 -172h8q45 80 131.5 126t196.5 46
q173 0 259 -88.5t86 -283.5v-664h-154zM793 1176q45 57 96.5 139t80.5 142h188v-19q-41 -61 -121.5 -149t-140.5 -136h-103v23z" />
    <glyph glyph-name="uni1E00" unicode="&#x1e00;" horiz-adv-x="1204" 
d="M1040 0l-169 432h-544l-167 -432h-160l537 1363h133l534 -1363h-164zM822 574l-158 421q-31 80 -63 196q-21 -90 -59 -196l-159 -421h439zM812 -314q0 -90 -58 -145.5t-153 -55.5q-94 0 -149.5 54t-55.5 145t55.5 145.5t149.5 54.5t152.5 -55t58.5 -143zM710 -316
q0 53 -31 81t-78 28t-78 -28t-31 -81q0 -52 28 -80t81 -28q49 0 79 28t30 80z" />
    <glyph glyph-name="uni1E01" unicode="&#x1e01;" 
d="M789 0l-30 145h-8q-76 -96 -151.5 -130t-189.5 -34q-151 0 -237 78t-86 222q0 309 493 324l173 5v63q0 120 -51.5 177t-164.5 57q-127 0 -288 -78l-47 118q75 41 164.5 64.5t179.5 23.5q182 0 270 -81t88 -259v-695h-115zM441 109q144 0 226 79t82 221v92l-154 -7
q-184 -6 -265 -57t-81 -157q0 -84 50.5 -127.5t141.5 -43.5zM710 -314q0 -90 -58 -145.5t-153 -55.5q-94 0 -149.5 54t-55.5 145t55.5 145.5t149.5 54.5t152.5 -55t58.5 -143zM608 -316q0 53 -31 81t-78 28t-78 -28t-31 -81q0 -52 28 -80t81 -28q49 0 79 28t30 80z" />
    <glyph glyph-name="uni1F4D" unicode="&#x1f4d;" horiz-adv-x="1503" 
d="M1384 681q0 -326 -164.5 -513t-458.5 -187q-300 0 -463 183.5t-163 518.5q0 331 163.5 513.5t464.5 182.5q292 0 456.5 -185.5t164.5 -512.5zM302 681q0 -276 117.5 -418.5t341.5 -142.5q226 0 341 142t115 419q0 274 -114.5 415.5t-339.5 141.5q-226 0 -343.5 -142.5
t-117.5 -414.5zM-9 1076q65 168 91 282h176v-19q-38 -72 -93.5 -152t-100.5 -133h-73v22zM-269 1164q0 151 220 208v-67q-112 -38 -112 -87q0 -19 14.5 -28t31.5 -16.5t31.5 -19.5t14.5 -38q0 -68 -87 -68q-51 0 -82 31.5t-31 84.5z" />
    <glyph glyph-name="uni02F3" unicode="&#x2f3;" horiz-adv-x="633" 
d="M525 -314q0 -90 -58 -145.5t-153 -55.5q-94 0 -149.5 54t-55.5 145t55.5 145.5t149.5 54.5t152.5 -55t58.5 -143zM423 -316q0 53 -31 81t-78 28t-78 -28t-31 -81q0 -52 28 -80t81 -28q49 0 79 28t30 80z" />
    <glyph glyph-name="dasiaoxia" horiz-adv-x="761" 
d="M401 1076q65 168 91 282h176v-19q-38 -72 -93.5 -152t-100.5 -133h-73v22zM141 1164q0 151 220 208v-67q-112 -38 -112 -87q0 -19 14.5 -28t31.5 -16.5t31.5 -19.5t14.5 -38q0 -68 -87 -68q-51 0 -82 31.5t-31 84.5z" />
    <glyph glyph-name="Ohorn" unicode="&#x1a0;" horiz-adv-x="1483" 
d="M1363 681q0 -329 -164.5 -514.5t-456.5 -185.5q-300 0 -463 182.5t-163 519.5q0 334 164 515t464 181q302 0 468 -200q46 12 73 43t39.5 78.5t12.5 144.5h169l13 -20q-27 -144 -87.5 -224.5t-157.5 -116.5q89 -164 89 -403zM283 681q0 -277 116 -419t343 -142
q226 0 340 141.5t114 419.5q0 274 -113.5 415.5t-338.5 141.5q-226 0 -343.5 -140.5t-117.5 -416.5z" />
    <glyph glyph-name="ohorn" unicode="&#x1a1;" horiz-adv-x="1158" 
d="M1042 510q0 -249 -125.5 -389t-346.5 -140q-136 0 -242 64.5t-163.5 184t-57.5 280.5q0 249 124.5 387.5t345.5 138.5q201 0 328 -131q48 14 75 44.5t39 76.5t12 148h167l14 -21q-29 -145 -85 -226.5t-151 -116.5q66 -128 66 -300zM267 510q0 -196 73 -297.5t234 -101.5
q162 0 235 101.5t73 297.5q0 195 -73.5 295t-236.5 100q-161 0 -233 -100t-72 -295z" />
    <glyph glyph-name="Uhorn" unicode="&#x1af;" horiz-adv-x="1461" 
d="M1212 1358v-184q54 7 86.5 36t47 81t14.5 154h168l13 -20q-31 -169 -111 -254.5t-218 -108.5v-583q0 -239 -133.5 -368.5t-378.5 -129.5q-249 0 -388 133.5t-139 368.5v875h158v-886q0 -170 94.5 -261t278.5 -91q171 0 260.5 89.5t89.5 264.5v884h158z" />
    <glyph glyph-name="uhorn" unicode="&#x1b0;" horiz-adv-x="1265" 
d="M308 1016v-658q0 -125 57 -186t177 -61q160 0 234 87t74 285v533h154v-112q76 10 110.5 69.5t34.5 202.5h165l14 -22q-30 -172 -111.5 -261t-212.5 -102v-791h-127l-23 137h-8q-48 -77 -132 -116.5t-187 -39.5q-189 0 -282 88.5t-93 282.5v664h156z" />
    <glyph glyph-name="uni0300" unicode="&#x300;" horiz-adv-x="0" 
d="M-509 1153h-102q-61 48 -143.5 137t-119.5 148v19h189q29 -64 82 -148t94 -133v-23z" />
    <glyph glyph-name="uni0301" unicode="&#x301;" horiz-adv-x="0" 
d="M-701 1176q45 57 96.5 139t80.5 142h188v-19q-41 -61 -121.5 -149t-140.5 -136h-103v23z" />
    <glyph glyph-name="uni0303" unicode="&#x303;" horiz-adv-x="0" 
d="M-441 1154q-40 0 -78 17.5t-75 38.5t-70.5 38t-65.5 17q-46 0 -70 -28t-37 -84h-91q12 112 65.5 175.5t138.5 63.5q42 0 82 -17t76.5 -38t69.5 -38t63 -17q46 0 68 27t36 85h92q-12 -112 -64.5 -176t-139.5 -64z" />
    <glyph glyph-name="hook" unicode="&#x309;" horiz-adv-x="0" 
d="M-369 1388q0 -130 -154 -161l-9 -105h-98l-11 163q80 13 116 36.5t36 63.5t-31 59t-99 19q-57 0 -87 -6v93q35 9 100 9q237 0 237 -171z" />
    <glyph glyph-name="dotbelow" unicode="&#x323;" horiz-adv-x="0" 
d="M-658 -225q0 53 27 78t66 25q37 0 64 -25t27 -78q0 -51 -27 -76.5t-64 -25.5q-39 0 -66 25.5t-27 76.5z" />
    <glyph glyph-name="uni0400" unicode="&#x400;" 
d="M944 0h-757v1358h757v-140h-599v-438h562v-139h-562v-500h599v-141zM693 1467h-102q-61 48 -143.5 137t-119.5 148v19h189q29 -64 82 -148t94 -133v-23z" />
    <glyph glyph-name="uni040D" unicode="&#x40d;" horiz-adv-x="1450" 
d="M189 1358h147v-755q0 -209 -13 -378h8l761 1133h173v-1358h-149v748q0 186 16 392h-8l-763 -1140h-172v1358zM827 1467h-102q-61 48 -143.5 137t-119.5 148v19h189q29 -64 82 -148t94 -133v-23z" />
    <glyph glyph-name="uni0450" unicode="&#x450;" horiz-adv-x="1067" 
d="M593 -19q-225 0 -355.5 137.5t-130.5 382.5q0 246 121 390.5t326 144.5q191 0 302.5 -125.5t111.5 -331.5v-98h-701q4 -179 90 -272t242 -93q164 0 325 69v-138q-82 -35 -154.5 -50.5t-176.5 -15.5zM552 907q-123 0 -196 -79.5t-86 -221.5h532q0 146 -65 223.5t-185 77.5
zM662 1153h-102q-61 48 -143.5 137t-119.5 148v19h189q29 -64 82 -148t94 -133v-23z" />
    <glyph glyph-name="uni045D" unicode="&#x45d;" horiz-adv-x="1205" 
d="M308 1018v-646l-6 -169l-3 -53l551 868h192v-1018h-144v622l3 123l4 121l-549 -866h-193v1018h145zM697 1153h-102q-61 48 -143.5 137t-119.5 148v19h189q29 -64 82 -148t94 -133v-23z" />
    <glyph glyph-name="uni0460" unicode="&#x460;" horiz-adv-x="1923" 
d="M1341 1232q-56 0 -99.5 -19t-85.5 -47l-64 135q117 74 256 74q212 0 331.5 -174.5t119.5 -489.5q0 -344 -131.5 -537t-368.5 -193q-100 0 -180 21t-157 69h-7q-75 -47 -153.5 -68.5t-177.5 -21.5q-238 0 -369 191t-131 539q0 315 118 489.5t330 174.5q142 0 257 -74
l-65 -135q-41 28 -84.5 47t-99.5 19q-136 0 -212.5 -137.5t-76.5 -384.5q0 -280 96 -435t270 -155q129 0 223 70v425h158v-425q95 -70 227 -70q174 0 269.5 153.5t95.5 436.5q0 248 -76.5 385t-212.5 137z" />
    <glyph glyph-name="uni0461" unicode="&#x461;" horiz-adv-x="1557" 
d="M749 424q-9 -24 -18 -47.5t-176 -376.5h-197l-358 1018h160l228 -646q30 -86 73 -261h7q18 49 52 124.5t166 346.5l-159 436h165q246 -714 267 -781t30 -108h8q160 171 231 373t71 516h154q0 -336 -90.5 -570.5t-293.5 -447.5h-169l-116 321q-31 86 -35 103z" />
    <glyph glyph-name="uni0462" unicode="&#x462;" horiz-adv-x="1283" 
d="M21 1183h297v262h159v-262h389v-137h-389v-268h187q521 0 521 -382q0 -194 -123 -295t-365 -101h-379v1046h-297v137zM477 135h198q178 0 262.5 63.5t84.5 197.5q0 128 -86.5 184.5t-289.5 56.5h-169v-502z" />
    <glyph glyph-name="uni0463" unicode="&#x463;" horiz-adv-x="1202" 
d="M394 1018h319v-130h-319v-293h296q406 0 406 -285q0 -154 -103.5 -232t-308.5 -78h-444v888h-219v130h219v207h154v-207zM394 464v-335h283q267 0 267 172q0 85 -63 124t-208 39h-279z" />
    <glyph glyph-name="uni0464" unicode="&#x464;" horiz-adv-x="1748" 
d="M1322 1236q-211 0 -332 -116t-150 -340h653v-139h-656q7 -254 130 -386.5t353 -132.5q143 0 323 51v-139q-141 -53 -347 -53q-297 0 -458 171t-168 487h-325v-639h-158v1358h158v-578h330q28 285 199.5 440t453.5 157q198 0 367 -85l-67 -136q-93 45 -166 62.5t-140 17.5
z" />
    <glyph glyph-name="uni0465" unicode="&#x465;" horiz-adv-x="1400" 
d="M1062 -19q-219 0 -343.5 123.5t-134.5 354.5h-266v-459h-155v1018h155v-428h268q22 218 147 332t332 114q75 0 146.5 -14.5t122.5 -37.5l-47 -131q-128 47 -222 47q-151 0 -228.5 -76t-92.5 -234h498v-131h-500q8 -175 86.5 -259t231.5 -84q56 0 111.5 10.5t146.5 44.5
v-137q-102 -53 -256 -53z" />
    <glyph glyph-name="uni0466" unicode="&#x466;" horiz-adv-x="1290" 
d="M854 633h-137v-633h-145v633h-138l-269 -633h-165l572 1358h147l571 -1358h-170zM492 772h309l-77 192q-52 134 -79 227q-23 -91 -82 -244z" />
    <glyph glyph-name="uni0467" unicode="&#x467;" horiz-adv-x="1073" 
d="M632 1018l431 -1018h-159l-193 454h-105v-454h-140v454h-107l-190 -454h-160l432 1018h191zM410 584h252q-40 100 -66 164.5t-57 162.5h-9q-26 -85 -120 -327z" />
    <glyph glyph-name="uni0468" unicode="&#x468;" horiz-adv-x="1752" 
d="M1312 639h-133v-639h-143v639h-136l-265 -639h-173l270 639h-387v-639h-158v1358h158v-578h446l244 578h146l571 -1358h-175zM958 780h296q-110 287 -123 327t-24 84q-18 -63 -34 -111t-115 -300z" />
    <glyph glyph-name="uni0469" unicode="&#x469;" horiz-adv-x="1457" 
d="M1016 1018l429 -1018h-158l-193 459h-105v-459h-141v459h-102l-194 -459h-160l194 459h-268v-459h-155v1018h155v-428h325l183 428h190zM922 911h-7q-10 -32 -24.5 -76t-97.5 -245h249z" />
    <glyph glyph-name="uni046A" unicode="&#x46a;" horiz-adv-x="1372" 
d="M1227 1358v-124l-392 -459q109 -6 181 -39.5t118 -98t93 -216.5l123 -421h-161l-127 424q-33 104 -64.5 148.5t-78.5 62t-130 17.5h-25v-652h-158v652h-24q-84 0 -130 -18t-76.5 -62t-59.5 -148l-126 -424h-171l126 421q44 147 89.5 213t115 100t178.5 41l-381 459v124
h1080zM1036 1216h-704l352 -423z" />
    <glyph glyph-name="uni046B" unicode="&#x46b;" horiz-adv-x="1221" 
d="M1080 1018v-98l-314 -327q81 -6 132.5 -28.5t85.5 -59.5t56.5 -85.5t166.5 -419.5h-159l-124 312q-32 81 -58.5 114t-65.5 46t-110 13h-9v-485h-142v485h-11q-69 0 -107 -12t-64 -42t-63 -117l-125 -314h-158l122 312q22 57 44.5 105.5t56 85.5t85 60t131.5 30l-311 327
v98h941zM882 888h-546l272 -296z" />
    <glyph glyph-name="uni046C" unicode="&#x46c;" horiz-adv-x="1853" 
d="M1721 1358v-124l-389 -462q111 -6 182 -39.5t118 -100t89 -211.5l126 -421h-156l-128 424q-29 97 -61.5 143t-81 64.5t-137.5 18.5h-22v-650h-160v650h-23q-87 0 -133.5 -18.5t-77 -62.5t-61.5 -145l-125 -424h-166l126 414q51 171 103 225h-399v-639h-158v1358h158v-578
h675l-379 454v124h1080zM1533 1216h-704l352 -425z" />
    <glyph glyph-name="uni046D" unicode="&#x46d;" horiz-adv-x="1609" 
d="M1472 1018v-98l-314 -328q82 -7 133.5 -29.5t85.5 -59t56 -85t166 -418.5h-159l-124 312q-32 80 -58.5 112.5t-66.5 45.5t-109 13h-9v-483h-143v483h-10q-69 0 -108 -12.5t-64.5 -42t-61.5 -114.5l-125 -314h-158l122 312q43 111 78 149h-285v-461h-155v1018h155v-426
h524l-312 328v98h942zM1274 888h-546l272 -291z" />
    <glyph glyph-name="uni046E" unicode="&#x46e;" horiz-adv-x="1107" 
d="M223 -127q0 -51 40.5 -74.5t122.5 -23.5q90 0 202 7q111 5 176 5q144 0 210 -36v-154q-74 47 -223 47q-63 0 -160 -4q-98 -5 -195 -5q-167 0 -252 58t-85 182q0 117 100.5 176.5t315.5 68.5q190 7 274 71t84 195q0 249 -416 249h-202v133h194q190 0 294.5 68.5
t104.5 190.5q0 100 -75 159t-203 59q-98 0 -185 -25.5t-189 -89.5l-80 106q156 106 333 132q-53 61 -162 174l-45 48v25h114q85 -55 207 -181q85 107 146 147t120 40q47 0 91 -13v-105q-22 9 -62 9q-41 0 -92.5 -38t-95.5 -104q165 -22 254.5 -109.5t89.5 -220.5
q0 -130 -88.5 -215.5t-246.5 -109.5v-7q173 -23 267 -105.5t94 -216.5q0 -193 -131.5 -292t-393.5 -107q-128 -5 -190 -30.5t-62 -83.5z" />
    <glyph glyph-name="uni046F" unicode="&#x46f;" horiz-adv-x="918" 
d="M706 1261q47 0 89 -14v-104q-22 10 -60 10q-44 0 -92 -37t-89 -94q113 -26 178 -90.5t65 -163.5q0 -171 -196 -224v-7q230 -66 230 -254q0 -137 -112.5 -215t-321.5 -81q-86 -2 -136.5 -12.5t-73 -30t-22.5 -60.5q0 -46 35 -66t118 -20q79 0 193 5l162 5q116 0 153 -36
v-133q-20 17 -59 28.5t-90 11.5l-166 -5q-121 -5 -206 -5q-134 0 -208 55.5t-74 159.5q0 108 88.5 166t255.5 61q310 3 310 180q0 90 -72.5 131.5t-220.5 41.5h-137v131h111q288 0 288 160q0 150 -234 150q-68 0 -134.5 -15.5t-148.5 -49.5l-55 126q115 51 232 65
q-85 109 -181 200v25h115q69 -49 199 -176q82 102 144 141.5t123 39.5z" />
    <glyph glyph-name="uni0470" unicode="&#x470;" horiz-adv-x="1514" 
d="M835 0h-158v414h-42q-163 0 -281.5 57t-185.5 171.5t-67 266.5v449h162v-445q0 -175 96 -268t293 -93h25v806h158v-806h27q196 0 292 92t96 265v449h163v-447q0 -153 -66.5 -268t-187 -172t-282.5 -57h-42v-414z" />
    <glyph glyph-name="uni0471" unicode="&#x471;" horiz-adv-x="1432" 
d="M797 1443v-1329q174 14 268.5 121.5t94.5 296.5q0 112 -12 221t-47 265h155q58 -253 58 -479q0 -257 -132.5 -399t-384.5 -157v-440h-152v440q-246 9 -369.5 143.5t-123.5 387.5v504h154v-510q0 -181 84 -282.5t255 -113.5v1331h152z" />
    <glyph glyph-name="uni0472" unicode="&#x472;" horiz-adv-x="1483" 
d="M1365 681q0 -326 -164.5 -513t-458.5 -187q-300 0 -463 183.5t-163 518.5q0 331 163.5 513.5t464.5 182.5q292 0 456.5 -185.5t164.5 -512.5zM742 120q213 0 327.5 126.5t126.5 375.5h-911q12 -248 127.5 -375t329.5 -127zM744 1238q-208 0 -324.5 -120t-134.5 -357h909
q-15 236 -128.5 356.5t-321.5 120.5z" />
    <glyph glyph-name="uni0473" unicode="&#x473;" horiz-adv-x="1149" 
d="M1042 510q0 -249 -125.5 -389t-346.5 -140q-136 0 -242 64.5t-163.5 184t-57.5 280.5q0 249 124.5 387.5t345.5 138.5q213 0 339 -142t126 -384zM574 111q147 0 223 85t85 263h-615q8 -173 82 -260.5t225 -87.5zM572 905q-145 0 -218.5 -80t-85.5 -235h612
q-14 156 -88.5 235.5t-219.5 79.5z" />
    <glyph glyph-name="uni0474" unicode="&#x474;" horiz-adv-x="1191" 
d="M1160 1240q-55 0 -91 -48t-89 -216l-305 -976h-183l-492 1358h167l314 -871q67 -185 99 -318q30 134 95 341l151 481q54 177 93 247.5t90.5 101t133.5 30.5q39 0 113 -18v-131q-52 19 -96 19z" />
    <glyph glyph-name="uni0475" unicode="&#x475;" horiz-adv-x="962" 
d="M377 0l-377 1018h162l209 -569q92 -249 110 -342h8q21 109 97 357l89 287q35 114 67.5 171t75 81t120.5 24q42 0 70 -9v-118q-27 7 -63 7q-43 0 -70 -39t-53 -124l-230 -744h-215z" />
    <glyph glyph-name="uni0476" unicode="&#x476;" horiz-adv-x="1191" 
d="M1160 1240q-55 0 -91 -48t-89 -216l-305 -976h-183l-492 1358h167l314 -871q67 -185 99 -318q30 134 95 341l151 481q54 177 93 247.5t90.5 101t133.5 30.5q39 0 113 -18v-131q-52 19 -96 19zM843 1467h-89q-49 39 -131 132.5t-117 152.5v19h173q26 -57 72 -137.5
t92 -143.5v-23zM512 1467h-89q-52 40 -133 133t-115 152v19h174q26 -57 72 -137.5t91 -143.5v-23z" />
    <glyph glyph-name="uni0477" unicode="&#x477;" horiz-adv-x="962" 
d="M377 0l-377 1018h162l209 -569q92 -249 110 -342h8q21 109 97 357l89 287q35 114 67.5 171t75 81t120.5 24q42 0 70 -9v-118q-27 7 -63 7q-43 0 -70 -39t-53 -124l-230 -744h-215zM736 1153h-89q-49 39 -131 132.5t-117 152.5v19h173q26 -57 72 -137.5t92 -143.5v-23z
M405 1153h-89q-52 40 -133 133t-115 152v19h174q26 -57 72 -137.5t91 -143.5v-23z" />
    <glyph glyph-name="uni0478" unicode="&#x478;" horiz-adv-x="2299" 
d="M1267 681q0 -327 -152 -513.5t-423 -186.5q-276 0 -426 183.5t-150 518.5q0 332 150 514t429 182q270 0 421 -185.5t151 -512.5zM283 681q0 -276 103.5 -418.5t305.5 -142.5t305 141.5t103 419.5q0 276 -102.5 416.5t-302.5 140.5q-203 0 -307.5 -140t-104.5 -417z
M1337 1018h164l228 -584q73 -193 91 -287h8q10 41 48.5 157.5t250.5 713.5h163l-435 -1159q-64 -169 -151.5 -242.5t-213.5 -73.5q-71 0 -140 16v123q51 -11 113 -11q87 0 141.5 48t86.5 131l57 144z" />
    <glyph glyph-name="uni0479" unicode="&#x479;" horiz-adv-x="2018" 
d="M1042 510q0 -249 -125.5 -389t-346.5 -140q-136 0 -242 64.5t-163.5 184t-57.5 280.5q0 249 124.5 387.5t345.5 138.5q213 0 339 -142t126 -384zM267 510q0 -195 78 -297t229 -102t229.5 101.5t78.5 297.5q0 194 -78.5 294.5t-231.5 100.5q-151 0 -228 -99t-77 -296z
M1062 1018h165l223 -581q73 -198 91 -287h8q12 48 50.5 162.5t251.5 705.5h166l-438 -1159q-65 -172 -152 -244t-213 -72q-70 0 -139 16v123q51 -11 114 -11q159 0 227 179l56 144z" />
    <glyph glyph-name="uni047A" unicode="&#x47a;" horiz-adv-x="1557" 
d="M1441 681q0 -281 -140.5 -465t-385.5 -225q-24 -103 -135 -103q-115 0 -134 103q-249 38 -389.5 221t-140.5 471q0 283 139 463.5t391 221.5q19 100 134 100q112 0 133 -100q249 -41 388.5 -225.5t139.5 -461.5zM283 681q0 -227 94 -368.5t269 -179.5q16 44 50 62t84 18
q102 0 131 -80q176 38 269.5 179.5t93.5 368.5q0 226 -93.5 367t-269.5 177q-29 -82 -131 -82q-105 0 -134 80q-175 -36 -269 -176t-94 -366z" />
    <glyph glyph-name="uni047B" unicode="&#x47b;" horiz-adv-x="1250" 
d="M1143 510q0 -217 -104 -351t-293 -168q-9 -50 -38.5 -71t-81.5 -21q-53 0 -81.5 20t-36.5 72q-189 33 -295 169.5t-106 349.5q0 216 104 350t297 167q7 52 36 71.5t82 19.5q52 0 81.5 -20t38.5 -73q187 -35 292 -170.5t105 -344.5zM267 510q0 -165 58 -262.5t185 -125.5
q11 39 39 54.5t77 15.5q96 0 118 -68q124 28 182 125.5t58 260.5q0 327 -242 384q-12 -39 -40.5 -53.5t-75.5 -14.5q-49 0 -77 14.5t-39 55.5q-127 -29 -185 -126t-58 -260z" />
    <glyph glyph-name="uni047C" unicode="&#x47c;" horiz-adv-x="1900" 
d="M1339 1849v-112h-16q-78 0 -143.5 16.5t-121.5 36.5t-103.5 36.5t-87.5 16.5q-43 0 -71 -24t-28 -71v-15h-116v26q0 96 54 147t158 51q54 0 106 -17t107 -37.5t117 -37t134 -16.5h11zM652 120q82 0 161 30.5t136 89.5q51 -53 130.5 -86.5t165.5 -33.5q175 0 272.5 155
t97.5 435q0 248 -76.5 385t-213.5 137q-55 0 -99.5 -20t-84.5 -48l-65 135q113 76 256 76q212 0 331 -174.5t119 -489.5q0 -345 -133.5 -537.5t-374.5 -192.5q-96 0 -175 19t-150 63q-70 -42 -147.5 -62t-179.5 -20q-241 0 -373.5 192t-132.5 538q0 317 119.5 490.5
t331.5 173.5q143 0 255 -76l-65 -135q-40 28 -83.5 48t-99.5 20q-138 0 -214.5 -137t-76.5 -385q0 -282 97.5 -436t271.5 -154zM1073 1643q0 -151 -220 -207v67q111 38 111 87q0 19 -14.5 27t-31 16t-31 20t-14.5 38q0 68 85 68q52 0 83.5 -31.5t31.5 -84.5z" />
    <glyph glyph-name="uni047D" unicode="&#x47d;" horiz-adv-x="1537" 
d="M991 -19q-138 0 -225 61q-85 -61 -218 -61q-209 0 -325 135.5t-116 385.5q0 260 96 397t269 137q57 0 112.5 -14.5t92.5 -37.5l-53 -130q-83 48 -149 48q-107 0 -157.5 -99.5t-50.5 -298.5q0 -388 283 -388q114 0 218 74q58 -39 109.5 -56.5t113.5 -17.5q279 0 279 388
q0 199 -51 298.5t-157 99.5q-66 0 -149 -48l-53 130q37 23 92.5 37.5t112.5 14.5q174 0 269.5 -137.5t95.5 -396.5q0 -248 -114.5 -384.5t-324.5 -136.5zM1126 1561v-111h-15q-78 0 -144.5 16.5t-122.5 36t-102.5 36.5t-86.5 17q-100 0 -100 -95v-16h-116v29
q0 93 53.5 144.5t157.5 51.5q54 0 106.5 -17.5t107 -37t115.5 -37t134 -17.5h13zM860 1356q0 -150 -221 -207v67q110 37 110 89q0 18 -13.5 26t-30.5 16t-31 19.5t-14 36.5q0 69 86 69q52 0 83 -31.5t31 -84.5z" />
    <glyph glyph-name="uni047E" unicode="&#x47e;" horiz-adv-x="1871" 
d="M1318 1668v-25l-74 -160h-30l-47 96h-172l-46 -96h-31l-45 96h-175l-43 -96h-31l-74 160v25h768zM1325 1232q-55 0 -98.5 -19t-85.5 -47l-65 135q116 74 258 74q211 0 329.5 -174.5t118.5 -489.5q0 -346 -132.5 -538t-373.5 -192q-108 0 -187.5 22.5t-150.5 67.5h-8
q-73 -46 -153 -68t-184 -22q-241 0 -373.5 193.5t-132.5 536.5q0 317 119.5 490.5t332.5 173.5q139 0 256 -74l-65 -135q-42 28 -85 47t-99 19q-136 0 -213 -137.5t-77 -384.5q0 -282 97.5 -436t274.5 -154q60 0 120.5 17.5t107.5 52.5v425h158v-425q95 -70 230 -70
q174 0 272.5 153t98.5 437q0 248 -76.5 385t-213.5 137z" />
    <glyph glyph-name="uni047F" unicode="&#x47f;" horiz-adv-x="1557" 
d="M1120 1341v-25l-76 -160h-28l-46 96h-175l-46 -96h-28l-46 96h-174l-47 -96h-28l-74 160v25h768zM749 424l-36 -88l-158 -336h-197l-358 1018h160l228 -646q36 -103 74 -261h8q11 32 27.5 69.5t188.5 401.5l-159 436h165q246 -714 267 -781t30 -108h8q160 171 231 373
t71 516h154q0 -336 -90.5 -570.5t-293.5 -447.5h-169l-116 321q-31 86 -35 103z" />
    <glyph glyph-name="uni0480" unicode="&#x480;" horiz-adv-x="1216" 
d="M780 1236q-227 0 -361 -148.5t-134 -408.5q0 -273 123.5 -412.5t363.5 -139.5q103 0 156 22v-606h-158v438h-19q-307 0 -471 180.5t-164 519.5q0 208 81.5 366.5t233.5 244t353 85.5q220 0 378 -78l-66 -135q-159 72 -316 72z" />
    <glyph glyph-name="uni0481" unicode="&#x481;" horiz-adv-x="928" 
d="M584 -19q-236 0 -356.5 133.5t-120.5 387.5q0 257 126.5 395.5t359.5 138.5q74 0 150 -15.5t121 -36.5l-46 -131q-132 47 -228 47q-165 0 -244 -95t-79 -301q0 -204 79 -297t238 -93q49 0 86.5 8t90.5 32v-611h-155v438h-22z" />
    <glyph glyph-name="uni0482" unicode="&#x482;" horiz-adv-x="1158" 
d="M477 291l-169 -295l-112 63l169 299l-267 154l62 107l268 -157l191 331l-269 154l62 109l269 -156l172 294l109 -62l-171 -297l269 -154l-63 -107l-267 154l-189 -329l265 -156l-60 -106z" />
    <glyph glyph-name="uni0483" unicode="&#x483;" horiz-adv-x="1060" 
d="M363 1174q-5 -42 -24.5 -65t-64.5 -23q-47 0 -66 23t-19 72q0 50 19.5 69t69.5 19h417q5 42 25 64.5t64 22.5q47 0 68 -23t21 -70q0 -52 -20.5 -70.5t-70.5 -18.5h-419z" />
    <glyph glyph-name="uni0484" unicode="&#x484;" horiz-adv-x="1098" 
d="M241 1280q112 0 251 55q139 53 214 53q103 0 157 -51.5t54 -144.5v-28h-116v15q0 95 -99 95q-40 0 -87.5 -16.5t-103.5 -36.5t-122 -37t-144 -17h-15v113h11z" />
    <glyph glyph-name="uni0485" unicode="&#x485;" horiz-adv-x="1098" 
d="M445 1360q0 52 31 84t83 32q86 0 86 -71q0 -25 -14 -36.5t-31 -19t-31 -16t-14 -26.5q0 -50 111 -88v-68q-221 59 -221 209z" />
    <glyph glyph-name="uni0486" unicode="&#x486;" horiz-adv-x="1098" 
d="M668 1360q0 -150 -221 -209v68q110 38 110 88q0 18 -14 26.5t-30.5 16t-30.5 19t-14 36.5q0 71 86 71q52 0 83 -32t31 -84z" />
    </font>
</defs>
</svg>
