<svg width="16" height="16" viewBox="0 0 16 16" fill="none" xmlns="http://www.w3.org/2000/svg">
<path d="M9.32474 4.02428C9.95471 3.92818 10.5985 3.98315 11.203 4.18467C11.8076 4.38619 12.3556 4.72848 12.8019 5.18334C13.2482 5.63821 13.5801 6.19262 13.7701 6.80089C13.9601 7.40915 14.0028 8.05387 13.8948 8.6819C13.7867 9.30992 13.531 9.90329 13.1487 10.4131C12.8815 10.7693 12.9537 11.2747 13.3099 11.5419C13.6662 11.8091 14.1715 11.7369 14.4387 11.3806C14.9744 10.6664 15.3326 9.83514 15.484 8.95529C15.6354 8.07545 15.5755 7.17223 15.3093 6.32007C15.0431 5.46791 14.5782 4.69121 13.9529 4.05396C13.3277 3.41672 12.5599 2.93718 11.713 2.65486C10.866 2.37254 9.96411 2.29553 9.08155 2.43016C8.199 2.5648 7.36106 2.90723 6.63681 3.42925C5.95961 3.91734 5.39993 4.54938 4.9975 5.27909C4.87222 5.26804 4.7464 5.26251 4.62042 5.26254L4.78739 5.70088C4.78735 5.70097 4.78743 5.70079 4.78739 5.70088L4.62042 5.26254C3.51035 5.26262 2.44547 5.70363 1.66053 6.48857C0.875523 7.27358 0.434509 8.33828 0.434509 9.44845C0.434509 10.5586 0.875523 11.6233 1.66053 12.4083C2.44554 13.1933 3.51024 13.6344 4.62042 13.6344H6.06883C6.51412 13.6344 6.87511 13.2734 6.87511 12.8281C6.87511 12.3828 6.51412 12.0218 6.06883 12.0218H4.62042C3.93792 12.0218 3.28338 11.7507 2.80079 11.2681C2.31819 10.7855 2.04707 10.1309 2.04707 9.44845C2.04707 8.76596 2.31819 8.11142 2.80079 7.62882C3.23321 7.1964 3.80368 6.93377 4.40861 6.88383C4.3346 7.25002 4.29694 7.6239 4.29694 8.00004C4.29694 8.44534 4.65792 8.80632 5.10322 8.80632C5.54852 8.80632 5.9095 8.44534 5.9095 8.00004C5.9095 7.36279 6.06093 6.73465 6.35132 6.16741C6.6417 5.60016 7.06273 5.11003 7.5797 4.73742C8.09666 4.36482 8.69477 4.12039 9.32474 4.02428Z" fill="currentColor"/>
<path d="M10.2547 8.00004C10.2547 7.55474 9.89375 7.19376 9.44845 7.19376C9.00316 7.19376 8.64217 7.55474 8.64217 8.00004V10.8817L7.97268 10.2122C7.6578 9.89729 7.14729 9.89729 6.83242 10.2122C6.51755 10.527 6.51755 11.0375 6.83242 11.3524L8.8783 13.3983C9.19317 13.7132 9.70368 13.7132 10.0186 13.3983L12.0644 11.3524C12.3793 11.0375 12.3793 10.527 12.0644 10.2122C11.7496 9.89729 11.2391 9.89729 10.9242 10.2122L10.2547 10.8816V8.00004Z" fill="currentColor"/>
</svg>
