<svg xmlns="http://www.w3.org/2000/svg" width="134" height="138.999" viewBox="0 0 134 138.999">
  <g id="Group_8206" data-name="Group 8206" transform="translate(-2318.95 -12167.401)">
    <g id="Path_7436" data-name="Path 7436" transform="translate(804 11636.716)" fill="none" stroke-miterlimit="10">
      <path d="M1582.671,530.685a66.656,66.656,0,0,0-47.561,112.97c-.121.354-7.07,20.529-20.16,26.029,17.77,0,28.815,0,43.224-8.687a10.953,10.953,0,0,0,1.616-1.181,66.546,66.546,0,1,0,22.881-129.13Z" stroke="none"/>
      <path d="M 1582.671020507813 532.6849975585938 C 1573.993041992188 532.6849975585938 1565.575805664063 534.3923950195313 1557.653198242188 537.7597045898438 C 1553.844848632813 539.3782958984375 1550.171630859375 541.3817749023438 1546.735473632813 543.714599609375 C 1543.331176757813 546.0256958007813 1540.130004882813 548.679931640625 1537.220581054688 551.6035766601563 C 1534.31103515625 554.5274047851563 1531.669555664063 557.74462890625 1529.369506835938 561.1659545898438 C 1527.047607421875 564.6196899414063 1525.053344726563 568.311767578125 1523.442260742188 572.1397094726563 C 1520.090209960938 580.1041259765625 1518.390502929688 588.5657348632813 1518.390502929688 597.2896118164063 C 1518.390502929688 605.837890625 1520.027954101563 614.1428833007813 1523.257202148438 621.9739379882813 C 1524.809448242188 625.7381591796875 1526.732299804688 629.3770141601563 1528.972290039063 632.78955078125 C 1531.189697265625 636.16748046875 1533.73876953125 639.3558349609375 1536.548950195313 642.26611328125 L 1537.397094726563 643.1444091796875 L 1537.00341796875 644.3002319335938 C 1536.927978515625 644.5216674804688 1535.11572265625 649.7921142578125 1531.618774414063 655.7522583007813 C 1528.649291992188 660.8131713867188 1525.42138671875 664.7954711914063 1521.973510742188 667.6611328125 C 1535.618041992188 667.5194091796875 1545.16064453125 666.507568359375 1557.1416015625 659.2840576171875 C 1557.630249023438 658.9894409179688 1558.051879882813 658.6813354492188 1558.468383789063 658.3145141601563 L 1559.3642578125 657.5255126953125 L 1560.48388671875 657.9395141601563 C 1567.578735351563 660.5628051757813 1575.043579101563 661.8929443359375 1582.671020507813 661.8929443359375 C 1591.348266601563 661.8929443359375 1599.765014648438 660.1856079101563 1607.687377929688 656.8182983398438 C 1611.495483398438 655.19970703125 1615.168579101563 653.1962280273438 1618.604736328125 650.8634643554688 C 1622.008911132813 648.5523681640625 1625.210205078125 645.898193359375 1628.119506835938 642.9745483398438 C 1631.029052734375 640.05078125 1633.670532226563 636.8335571289063 1635.970703125 633.412353515625 C 1638.292602539063 629.9586791992188 1640.286865234375 626.2666015625 1641.89794921875 622.4387817382813 C 1645.250122070313 614.4745483398438 1646.949829101563 606.0131225585938 1646.949829101563 597.2896118164063 C 1646.949829101563 588.5657958984375 1645.250122070313 580.1041870117188 1641.89794921875 572.1397094726563 C 1640.286743164063 568.3118286132813 1638.292602539063 564.6196899414063 1635.970703125 561.1659545898438 C 1633.670532226563 557.74462890625 1631.029052734375 554.5274047851563 1628.119506835938 551.6035766601563 C 1625.210205078125 548.679931640625 1622.008911132813 546.0256958007813 1618.604736328125 543.7145385742188 C 1615.168579101563 541.3817749023438 1611.495483398438 539.3782958984375 1607.687377929688 537.7597045898438 C 1599.765014648438 534.3923950195313 1591.348266601563 532.6849975585938 1582.671020507813 532.6849975585938 M 1582.671020507813 530.6849975585938 C 1619.275756835938 530.6849975585938 1648.949829101563 560.5043334960938 1648.949829101563 597.2896118164063 C 1648.949829101563 634.07373046875 1619.275756835938 663.8929443359375 1582.671020507813 663.8929443359375 C 1574.628051757813 663.8929443359375 1566.921752929688 662.4522094726563 1559.790283203125 659.8153686523438 C 1559.3427734375 660.2095336914063 1558.828247070313 660.6025390625 1558.17431640625 660.996826171875 C 1543.765258789063 669.6842651367188 1532.7197265625 669.6842651367188 1514.949829101563 669.6842651367188 C 1528.040283203125 664.1845092773438 1534.989624023438 644.0093994140625 1535.110229492188 643.6553344726563 C 1523.53125 631.663818359375 1516.390502929688 615.3181762695313 1516.390502929688 597.2896118164063 C 1516.390502929688 560.5043334960938 1546.063354492188 530.6849975585938 1582.671020507813 530.6849975585938 Z" stroke="none" fill="#006ce0"/>
    </g>
    <path id="Path_7437" data-name="Path 7437" d="M1547.95,609.686h7v10l10-10h38v-43h-55Z" transform="translate(811 11644.715)" fill="none" stroke="#006ce0" stroke-miterlimit="10" stroke-width="2"/>
    <path id="Path_7487" data-name="Path 7487" d="M2391.95,12221.4v20" transform="translate(-5 -2.001)" fill="none" stroke="#006ce0" stroke-width="2"/>
    <path id="Path_7488" data-name="Path 7488" d="M2391.95,12221.4v5" transform="translate(-5 20.999)" fill="none" stroke="#006ce0" stroke-width="2"/>
  </g>
</svg>
