<svg xmlns="http://www.w3.org/2000/svg" xmlns:xlink="http://www.w3.org/1999/xlink" width="180.772" height="188" viewBox="0 0 180.772 188">
  <defs>
    <linearGradient id="linear-gradient" x1="0.042" y1="0.076" x2="1" y2="0.077" gradientUnits="objectBoundingBox">
      <stop offset="0" stop-color="#eb5c3d"/>
      <stop offset="0.502" stop-color="#d13224"/>
      <stop offset="1" stop-color="#eb5c3d"/>
    </linearGradient>
  </defs>
  <g id="Path_7382" data-name="Path 7382" transform="translate(-797.227 -133.09)" fill="url(#linear-gradient)">
    <path d="M 797.9991455078125 320.0899963378906 L 797.6129760742188 318.1675720214844 C 806.3582763671875 314.506103515625 812.9765014648438 305.6145324707031 816.9884643554688 298.8002014160156 C 820.7371215820312 292.4331665039062 822.9730834960938 286.6671752929688 823.6286010742188 284.8798828125 C 819.9080810546875 280.986083984375 816.5262451171875 276.740966796875 813.5698852539062 272.2529602050781 C 810.4674072265625 267.5431823730469 807.8041381835938 262.5207214355469 805.6539306640625 257.3250732421875 C 801.1802978515625 246.5150146484375 798.9119873046875 235.0531158447266 798.9119873046875 223.2577514648438 C 798.9119873046875 217.2084045410156 799.5205688476562 211.16259765625 800.7208862304688 205.2882843017578 C 801.8907470703125 199.5626831054688 803.6364135742188 193.9308471679688 805.9093627929688 188.5492095947266 C 808.1409912109375 183.2654266357422 810.903076171875 178.1693115234375 814.1189575195312 173.4024200439453 C 817.3040771484375 168.6810455322266 820.9619750976562 164.2413330078125 824.9910888671875 160.2065734863281 C 829.0202026367188 156.1717987060547 833.4537353515625 152.5086822509766 838.1685791015625 149.3190002441406 C 842.9288940429688 146.0985412597656 848.0180053710938 143.3324432373047 853.2946166992188 141.0976104736328 C 858.6690063476562 138.8213500976562 864.2932739257812 137.0731353759766 870.0111694335938 135.9015197753906 C 875.8776245117188 134.6994781494141 881.9154052734375 134.0899658203125 887.956787109375 134.0899658203125 C 893.9976806640625 134.0899658203125 900.0350341796875 134.6994781494141 905.9011840820312 135.9015197753906 C 911.6187744140625 137.0731353759766 917.2427368164062 138.8213500976562 922.6168823242188 141.0976104736328 C 927.893310546875 143.3324737548828 932.9822998046875 146.0985412597656 937.7424926757812 149.3190155029297 C 942.4572143554688 152.5087127685547 946.8907470703125 156.1717987060547 950.9197998046875 160.2065887451172 C 954.9488525390625 164.2413330078125 958.6067504882812 168.6810607910156 961.7919311523438 173.4024200439453 C 965.0078125 178.1693267822266 967.7698974609375 183.2654266357422 970.0015258789062 188.5492095947266 C 972.2745361328125 193.9308776855469 974.020263671875 199.5627136230469 975.190185546875 205.2882537841797 C 976.3905029296875 211.1626129150391 976.9991455078125 217.2084197998047 976.9991455078125 223.2577514648438 C 976.9991455078125 229.3067779541016 976.3905029296875 235.3523254394531 975.190185546875 241.2264556884766 C 974.020263671875 246.9518127441406 972.2745361328125 252.5834655761719 970.0015258789062 257.9650268554688 C 967.7698974609375 263.2486572265625 965.0078125 268.3446960449219 961.7919311523438 273.1115112304688 C 958.6067504882812 277.8328552246094 954.9488525390625 282.2725524902344 950.9197998046875 286.3073120117188 C 946.8907470703125 290.3421020507812 942.4572143554688 294.0052185058594 937.7424926757812 297.1949157714844 C 932.9822387695312 300.4154357910156 927.893310546875 303.1815490722656 922.6168823242188 305.4164123535156 C 917.2427368164062 307.6927490234375 911.6187133789062 309.4410095214844 905.9011840820312 310.6126403808594 C 900.0349731445312 311.8147277832031 893.9976196289062 312.4242553710938 887.956787109375 312.4242553710938 C 877.5875854492188 312.4242553710938 867.4331665039062 310.6547241210938 857.7656860351562 307.1640930175781 C 857.1896362304688 307.6318969726562 856.5857543945312 308.0545959472656 855.9329223632812 308.4474792480469 C 851.1943359375 311.2943725585938 846.6477661132812 313.4959106445312 842.0326538085938 315.17822265625 C 837.7344970703125 316.7450561523438 833.3208618164062 317.8774108886719 828.5394897460938 318.6401062011719 C 819.4496459960938 320.0899963378906 809.9835815429688 320.0899963378906 797.9991455078125 320.0899963378906 Z" stroke="none"/>
    <path d="M 887.956787109375 135.0899658203125 C 839.3282470703125 135.0899658203125 799.9119873046875 174.5626220703125 799.9119873046875 223.2577514648438 C 799.9119873046875 247.1234588623047 809.3989868164062 268.7600708007812 824.7787475585938 284.6330261230469 C 824.619384765625 285.1029663085938 815.3885498046875 311.8094482421875 797.9991455078125 319.0899658203125 C 821.6027221679688 319.0899658203125 836.277099609375 319.0899658203125 855.4172973632812 307.5906372070312 C 856.2860717773438 307.0678100585938 856.9689331054688 306.5475463867188 857.56396484375 306.0260314941406 C 867.0364990234375 309.5167236328125 877.2741088867188 311.4242553710938 887.956787109375 311.4242553710938 C 936.5813598632812 311.4242553710938 975.9991455078125 271.9502563476562 975.9991455078125 223.2577514648438 C 975.9991455078125 174.5626220703125 936.5813598632812 135.0899658203125 887.956787109375 135.0899658203125 M 887.956787109375 133.0899658203125 C 894.06494140625 133.0899658203125 900.1698608398438 133.706298828125 906.1019287109375 134.9218444824219 C 911.8842163085938 136.1067504882812 917.5718994140625 137.874755859375 923.0069580078125 140.1768188476562 C 928.3428344726562 142.4368591308594 933.4891357421875 145.2340698242188 938.3028564453125 148.4907531738281 C 943.0703125 151.7160949707031 947.5533447265625 155.420166015625 951.6273803710938 159.4999694824219 C 955.701416015625 163.5797424316406 959.400146484375 168.0690612792969 962.6209106445312 172.8431701660156 C 965.8728637695312 177.6635437011719 968.666015625 182.8169250488281 970.9227905273438 188.1601257324219 C 973.221435546875 193.6025390625 974.98681640625 199.2979125976562 976.169921875 205.0880737304688 C 977.3837280273438 211.0281524658203 977.9991455078125 217.1413116455078 977.9991455078125 223.2577514648438 C 977.9991455078125 229.3738861083984 977.3837280273438 235.4867858886719 976.169921875 241.4266510009766 C 974.98681640625 247.2165985107422 973.221435546875 252.9118041992188 970.9227905273438 258.3540649414062 C 968.666015625 263.6971740722656 965.8728637695312 268.8504638671875 962.6209106445312 273.6707763671875 C 959.400146484375 278.4448547363281 955.701416015625 282.9341430664062 951.6273803710938 287.013916015625 C 947.5533447265625 291.09375 943.0703125 294.7977905273438 938.3028564453125 298.023193359375 C 933.4891357421875 301.2799072265625 928.3428344726562 304.0771484375 923.0069580078125 306.3372192382812 C 917.5718994140625 308.6393432617188 911.8842163085938 310.4073791503906 906.1019287109375 311.59228515625 C 900.1698608398438 312.8079223632812 894.06494140625 313.4242553710938 887.956787109375 313.4242553710938 C 877.6578369140625 313.4242553710938 867.5682983398438 311.6978759765625 857.9484252929688 308.2914123535156 C 857.4717407226562 308.6521911621094 856.9750366210938 308.9874267578125 856.4486083984375 309.3042602539062 C 851.6539916992188 312.184814453125 847.0509643554688 314.4132995605469 842.3751220703125 316.1177368164062 C 838.0162963867188 317.7066650390625 833.5421142578125 318.854736328125 828.697021484375 319.6276245117188 C 819.5289306640625 321.0899658203125 810.0278930664062 321.0899658203125 797.9991455078125 321.0899658203125 L 797.2267456054688 317.2451782226562 C 811.8135986328125 311.1380004882812 820.534912109375 290.2108459472656 822.4727172851562 285.1145629882812 C 818.8812866210938 281.3029174804688 815.6089477539062 277.166259765625 812.7348022460938 272.8030395507812 C 809.5975341796875 268.0404663085938 806.904296875 262.9615478515625 804.72998046875 257.7074584960938 C 802.5143432617188 252.3537292480469 800.8131713867188 246.7584838867188 799.6737060546875 241.0771636962891 C 798.5046997070312 235.2488098144531 797.9119873046875 229.2535095214844 797.9119873046875 223.2577514648438 C 797.9119873046875 217.1413116455078 798.5274047851562 211.0281372070312 799.7411499023438 205.0880737304688 C 800.9241943359375 199.2979125976562 802.6895751953125 193.6025390625 804.9882202148438 188.1601257324219 C 807.2449340820312 182.81689453125 810.0380249023438 177.6635437011719 813.2899169921875 172.8431701660156 C 816.5106811523438 168.0690307617188 820.20947265625 163.5797424316406 824.283447265625 159.4999694824219 C 828.3575439453125 155.4201354980469 832.8406982421875 151.7160949707031 837.6082153320312 148.49072265625 C 842.422119140625 145.2340698242188 847.5685424804688 142.4368286132812 852.9046020507812 140.1768188476562 C 858.33984375 137.874755859375 864.0277709960938 136.1067199707031 869.8104248046875 134.9218444824219 C 875.7428588867188 133.706298828125 881.84814453125 133.0899658203125 887.956787109375 133.0899658203125 Z" stroke="none" fill="#fff"/>
  </g>
</svg>
