<svg xmlns="http://www.w3.org/2000/svg" width="134" height="139" viewBox="0 0 134 139">
  <g id="Group_9739" data-name="Group 9739" transform="translate(-4326.996 -66.72)">
    <g id="Path_7771" data-name="Path 7771" fill="none" stroke-miterlimit="10">
      <path d="M4394.717,66.72a66.656,66.656,0,0,0-47.561,112.97c-.121.355-7.069,20.53-20.16,26.03,17.77,0,28.817,0,43.225-8.687a11.034,11.034,0,0,0,1.616-1.182,66.546,66.546,0,1,0,22.88-129.131Z" stroke="none"/>
      <path d="M 4394.716796875 68.72000122070313 C 4386.03857421875 68.72000122070313 4377.62158203125 70.42741394042969 4369.69873046875 73.79478454589844 C 4365.890625 75.41339111328125 4362.21728515625 77.41696166992188 4358.78125 79.749755859375 C 4355.37744140625 82.06086730957031 4352.17578125 84.71514892578125 4349.2666015625 87.63885498046875 C 4346.35693359375 90.56269836425781 4343.7158203125 93.77998352050781 4341.41552734375 97.20130920410156 C 4339.09375 100.6550598144531 4337.099609375 104.3471984863281 4335.48876953125 108.1751251220703 C 4332.13671875 116.1395416259766 4330.43701171875 124.6011810302734 4330.43701171875 133.3249969482422 C 4330.43701171875 141.8732147216797 4332.07421875 150.17822265625 4335.3037109375 158.00927734375 C 4336.85595703125 161.7733917236328 4338.77880859375 165.4121704101563 4341.0185546875 168.8246154785156 C 4343.23583984375 172.2023620605469 4345.78466796875 175.390625 4348.5947265625 178.3008117675781 L 4349.44189453125 179.1783752441406 L 4349.04931640625 180.3333740234375 C 4348.974609375 180.5541687011719 4347.171875 185.8099365234375 4343.66455078125 191.7876739501953 C 4340.6953125 196.84912109375 4337.46826171875 200.8310546875 4334.01953125 203.6968994140625 C 4347.6650390625 203.5552062988281 4357.2080078125 202.5435180664063 4369.18701171875 195.3211517333984 C 4369.67578125 195.02587890625 4370.09814453125 194.7171325683594 4370.515625 194.3495178222656 L 4371.41162109375 193.5613098144531 L 4372.53076171875 193.9751586914063 C 4379.625 196.5987396240234 4387.08984375 197.9290008544922 4394.716796875 197.9290008544922 C 4403.39404296875 197.9290008544922 4411.81103515625 196.2216186523438 4419.7333984375 192.854248046875 C 4423.54150390625 191.2356262207031 4427.21484375 189.2320861816406 4430.65087890625 186.8992919921875 C 4434.05517578125 184.5881652832031 4437.25634765625 181.9339141845703 4440.16552734375 179.0102386474609 C 4443.0751953125 176.0864105224609 4445.716796875 172.8691711425781 4448.0166015625 169.4479064941406 C 4450.3388671875 165.9941558837891 4452.3330078125 162.3020935058594 4453.9443359375 158.4742431640625 C 4457.29638671875 150.5099182128906 4458.99609375 142.0484771728516 4458.99609375 133.3249969482422 C 4458.99609375 124.6012573242188 4457.29638671875 116.1396484375 4453.9443359375 108.1751708984375 C 4452.3330078125 104.3472595214844 4450.3388671875 100.6551361083984 4448.0166015625 97.20132446289063 C 4445.716796875 93.780029296875 4443.0751953125 90.562744140625 4440.16552734375 87.63887023925781 C 4437.25634765625 84.71517944335938 4434.05517578125 82.06089782714844 4430.65087890625 79.749755859375 C 4427.21484375 77.41696166992188 4423.54150390625 75.41339111328125 4419.7333984375 73.79478454589844 C 4411.81103515625 70.42739868164063 4403.39404296875 68.72000122070313 4394.716796875 68.72000122070313 M 4394.716796875 66.72000122070313 C 4431.32177734375 66.72000122070313 4460.99609375 96.54000854492188 4460.99609375 133.3249969482422 C 4460.99609375 170.1090087890625 4431.32177734375 199.9290008544922 4394.716796875 199.9290008544922 C 4386.6748046875 199.9290008544922 4378.9677734375 198.4880065917969 4371.8369140625 195.8509979248047 C 4371.38916015625 196.2449951171875 4370.875 196.6380004882813 4370.22119140625 197.0330047607422 C 4355.81298828125 205.7200012207031 4344.76611328125 205.7200012207031 4326.99609375 205.7200012207031 C 4340.0869140625 200.2200012207031 4347.03515625 180.0449981689453 4347.15576171875 179.6900024414063 C 4335.578125 167.6990051269531 4328.43701171875 151.35400390625 4328.43701171875 133.3249969482422 C 4328.43701171875 96.54000854492188 4358.10888671875 66.72000122070313 4394.716796875 66.72000122070313 Z" stroke="none" fill="#006ce0"/>
    </g>
    <g id="Group_7792" data-name="Group 7792">
      <path id="Path_2557" data-name="Path 2557" d="M4380.023,123.049v-1.388a7.11,7.11,0,0,1,6.936-6.936,7.452,7.452,0,0,1,4.158,1.388" fill="none" stroke="#006ce0" stroke-miterlimit="10" stroke-width="2"/>
      <circle id="Ellipse_455" data-name="Ellipse 455" cx="6.936" cy="6.936" r="6.936" transform="translate(4393.895 137.844)" fill="none" stroke="#006ce0" stroke-miterlimit="10" stroke-width="2"/>
      <path id="Path_2561" data-name="Path 2561" d="M4404.989,117.037h-2.312a18.165,18.165,0,0,0-3.7-6.473l2.777-4.624a2.435,2.435,0,0,0-.926-3.235l-4.163-2.312a2.437,2.437,0,0,0-3.238.923l-2.772,4.624a15.031,15.031,0,0,0-7.4,0l-2.777-4.624a2.653,2.653,0,0,0-3.238-.923l-4.158,2.312a2.646,2.646,0,0,0-.926,3.235l2.772,4.624a18.166,18.166,0,0,0-3.7,6.473h-5.084a2.182,2.182,0,0,0-2.312,2.045c0,.088,0,.179,0,.267v4.624a2.178,2.178,0,0,0,2.046,2.311,1.681,1.681,0,0,0,.266,0h5.549a18.057,18.057,0,0,0,3.7,6.475l-1.386,2.312" fill="none" stroke="#006ce0" stroke-miterlimit="10" stroke-width="2"/>
      <path id="Path_2562" data-name="Path 2562" d="M4421.637,140.156h-5.549a18.18,18.18,0,0,0-3.7-6.474l2.773-4.623a2.436,2.436,0,0,0-.926-3.236l-4.158-2.311a2.435,2.435,0,0,0-3.238.923l-2.772,4.624a15.027,15.027,0,0,0-7.4,0l-2.773-4.624a2.655,2.655,0,0,0-3.237-.923l-4.163,2.311a2.65,2.65,0,0,0-.921,3.236l2.772,4.623a18.179,18.179,0,0,0-3.7,6.474h-4.624a2.182,2.182,0,0,0-2.312,2.045c0,.088,0,.178,0,.267v4.623a2.179,2.179,0,0,0,2.046,2.312,1.688,1.688,0,0,0,.266,0h5.55a18.093,18.093,0,0,0,3.7,6.475l-2.777,4.624a2.436,2.436,0,0,0,.925,3.235l4.164,2.312a2.438,2.438,0,0,0,3.237-.924l2.773-4.623a15.031,15.031,0,0,0,7.4,0l2.777,4.623a2.654,2.654,0,0,0,3.237.924l4.159-2.312a2.652,2.652,0,0,0,.926-3.235l-2.773-4.624a18.16,18.16,0,0,0,3.7-6.475h5.55a2.182,2.182,0,0,0,2.311-2.043,2.472,2.472,0,0,0,0-.269v-4.623C4423.949,141.081,4423.023,140.156,4421.637,140.156Z" fill="none" stroke="#006ce0" stroke-miterlimit="10" stroke-width="2"/>
    </g>
  </g>
</svg>
