<svg xmlns="http://www.w3.org/2000/svg" width="162.811" height="79.334" viewBox="0 0 162.811 79.334"><defs><style>.a,.b{fill:none;}.a{stroke:#3ed685;stroke-width:16px;}.b{stroke:#fff;}</style></defs><g transform="translate(8 8)"><path class="a" d="M552.746,501.656c8.042-10.32,17.609-18.328,32.456-18.328a31.667,31.667,0,0,1,0,63.334h0c-20.5,0-30.934-15.267-41.187-30.809l-1.1-1.715c-10.253-15.543-20.688-30.81-41.188-30.81a31.667,31.667,0,0,0,0,63.334c14.847,0,24.415-8.009,32.458-18.331Z" transform="translate(-470.058 -483.328)"/><path class="b" d="M2499.842,716.805l10.041,14.748" transform="translate(-2426.406 -700.435)"/><path class="b" d="M2499.673,716.342l10.209,15.211" transform="translate(-2436.542 -683.995)"/></g></svg>