<svg xmlns="http://www.w3.org/2000/svg" width="15" height="15" viewBox="0 0 15 15">
  <path id="_174857" data-name="174857" d="M13.643,0H1.357A1.357,1.357,0,0,0,0,1.357V13.643A1.357,1.357,0,0,0,1.357,15H13.643A1.357,1.357,0,0,0,15,13.643V1.357A1.357,1.357,0,0,0,13.643,0Zm-9,12.952a.4.4,0,0,1-.395.4H2.566a.4.4,0,0,1-.395-.4V5.906a.4.4,0,0,1,.4-.395H4.247a.4.4,0,0,1,.395.395Zm-1.237-8.1A1.6,1.6,0,1,1,5,3.25a1.6,1.6,0,0,1-1.594,1.6Zm10.019,8.137a.363.363,0,0,1-.363.363h-1.8a.363.363,0,0,1-.363-.363v-3.3c0-.493.145-2.161-1.288-2.161C8.5,7.518,8.27,8.66,8.225,9.172v3.812a.363.363,0,0,1-.363.363H6.118a.363.363,0,0,1-.363-.363V5.874a.363.363,0,0,1,.363-.363H7.862a.363.363,0,0,1,.363.363v.615a2.476,2.476,0,0,1,2.329-1.1c2.888,0,2.872,2.7,2.872,4.181v3.41Z" fill="#0077b7"/>
</svg>
