<svg width="16" height="16" viewBox="0 0 16 16" fill="none" xmlns="http://www.w3.org/2000/svg">
<path fill-rule="evenodd" clip-rule="evenodd" d="M7.99996 1.75195C7.71968 1.75195 7.44439 1.826 7.20193 1.9666C6.96003 2.10687 6.75939 2.30843 6.62022 2.55094L6.61926 2.55261L1.52467 11.3523C1.38478 11.5946 1.31061 11.8701 1.31036 12.1499C1.31012 12.4297 1.3834 12.7046 1.52286 12.9472C1.66233 13.1897 1.86308 13.3914 2.10501 13.5319C2.34694 13.6724 2.62155 13.7469 2.90133 13.7479L2.90369 13.7479H13.0962L13.0986 13.7479C13.3784 13.7469 13.653 13.6724 13.8949 13.5319C14.1368 13.3914 14.3376 13.1897 14.4771 12.9472C14.6165 12.7046 14.6898 12.4297 14.6895 12.1499C14.6893 11.8701 14.6155 11.5953 14.4756 11.353L9.38065 2.55261L9.37969 2.55093C9.24052 2.30843 9.03988 2.10687 8.79798 1.9666C8.55553 1.826 8.28023 1.75195 7.99996 1.75195ZM8.00335 9.43805C7.54219 9.43805 7.16835 9.06421 7.16835 8.60305V6.48849C7.16835 6.02733 7.54219 5.65349 8.00335 5.65349C8.46451 5.65349 8.83835 6.02733 8.83835 6.48849V8.60305C8.83835 9.06421 8.46451 9.43805 8.00335 9.43805ZM8.00335 11.7759C8.46451 11.7759 8.83835 11.4021 8.83835 10.9409C8.83835 10.4798 8.46451 10.1059 8.00335 10.1059H7.99668C7.53552 10.1059 7.16168 10.4798 7.16168 10.9409C7.16168 11.4021 7.53552 11.7759 7.99668 11.7759H8.00335Z" fill="white"/>
</svg>
