<svg xmlns="http://www.w3.org/2000/svg" width="134" height="139" viewBox="0 0 134 139">
  <g id="Group_8200" data-name="Group 8200" transform="translate(-1955.996 -898.508)">
    <g id="Path_7444" data-name="Path 7444" transform="translate(-361 759.716)" fill="none" stroke-miterlimit="10">
      <path d="M2384.717,138.792a66.655,66.655,0,0,0-47.561,112.97c-.12.355-7.069,20.53-20.16,26.03,17.769,0,28.816,0,43.225-8.687a11.039,11.039,0,0,0,1.616-1.182,66.546,66.546,0,1,0,22.88-129.131Z" stroke="none"/>
      <path d="M 2384.717041015625 140.7919921875 C 2376.0390625 140.7919921875 2367.62158203125 142.4994201660156 2359.698974609375 145.8667602539063 C 2355.890625 147.4854125976563 2352.21728515625 149.4889526367188 2348.781005859375 151.82177734375 C 2345.376953125 154.1328735351563 2342.175537109375 156.7871704101563 2339.26611328125 159.7108764648438 C 2336.356689453125 162.6347045898438 2333.715087890625 165.8519897460938 2331.4150390625 169.2733154296875 C 2329.093017578125 172.7270812988281 2327.098876953125 176.4192047119141 2325.48779296875 180.2471466064453 C 2322.1357421875 188.2115631103516 2320.43603515625 196.6731872558594 2320.43603515625 205.3969879150391 C 2320.43603515625 213.9450988769531 2322.073486328125 222.2500762939453 2325.30322265625 230.0812377929688 C 2326.85546875 233.8453216552734 2328.7783203125 237.4841003417969 2331.0185546875 240.8965606689453 C 2333.23583984375 244.2742919921875 2335.78466796875 247.4625549316406 2338.5947265625 250.3727722167969 L 2339.44091796875 251.2491302490234 L 2339.050537109375 252.403076171875 C 2339.0322265625 252.4568786621094 2337.188720703125 257.8540649414063 2333.6650390625 263.8597106933594 C 2330.695556640625 268.921142578125 2327.46826171875 272.9030456542969 2324.019775390625 275.7688903808594 C 2337.66455078125 275.627197265625 2347.207275390625 274.615478515625 2359.18701171875 267.3930053710938 C 2359.675048828125 267.0982971191406 2360.097412109375 266.7894897460938 2360.51611328125 266.4211730957031 L 2361.411865234375 265.6334228515625 L 2362.530517578125 266.0471496582031 C 2369.62548828125 268.6707153320313 2377.090087890625 270.0010070800781 2384.717041015625 270.0010070800781 C 2393.394287109375 270.0010070800781 2401.81103515625 268.2936401367188 2409.733642578125 264.92626953125 C 2413.541748046875 263.3076171875 2417.21484375 261.3041076660156 2420.65087890625 258.9713134765625 C 2424.05517578125 256.6601867675781 2427.25634765625 254.0059204101563 2430.165771484375 251.0822601318359 C 2433.075439453125 248.1584320068359 2435.716796875 244.9411926269531 2438.016845703125 241.5199127197266 C 2440.3388671875 238.066162109375 2442.3330078125 234.3740997314453 2443.944091796875 230.5462493896484 C 2447.29638671875 222.5819091796875 2448.99609375 214.1204986572266 2448.99609375 205.3969879150391 C 2448.99609375 196.6732482910156 2447.29638671875 188.2116241455078 2443.944091796875 180.2471466064453 C 2442.3330078125 176.4192352294922 2440.3388671875 172.7270965576172 2438.016845703125 169.2733154296875 C 2435.716796875 165.8519897460938 2433.0751953125 162.6347351074219 2430.165771484375 159.7108764648438 C 2427.25634765625 156.7871704101563 2424.05517578125 154.1328735351563 2420.65087890625 151.8217468261719 C 2417.21484375 149.4889526367188 2413.541748046875 147.4853820800781 2409.733642578125 145.8667602539063 C 2401.81103515625 142.4993896484375 2393.394287109375 140.7919921875 2384.717041015625 140.7919921875 M 2384.717041015625 138.7919921875 C 2421.322021484375 138.7919921875 2450.99609375 168.6119995117188 2450.99609375 205.3969879150391 C 2450.99609375 242.1809997558594 2421.322021484375 272.0010070800781 2384.717041015625 272.0010070800781 C 2376.675048828125 272.0010070800781 2368.968017578125 270.5599975585938 2361.8369140625 267.9229736328125 C 2361.388916015625 268.3169860839844 2360.875 268.7099914550781 2360.220947265625 269.1050109863281 C 2345.81201171875 277.7919921875 2334.764892578125 277.7919921875 2316.99609375 277.7919921875 C 2330.0869140625 272.2919921875 2337.035888671875 252.1169891357422 2337.156005859375 251.7619934082031 C 2325.577880859375 239.77099609375 2318.43603515625 223.4259948730469 2318.43603515625 205.3969879150391 C 2318.43603515625 168.6119995117188 2348.10888671875 138.7919921875 2384.717041015625 138.7919921875 Z" stroke="none" fill="#006ce0"/>
    </g>
    <path id="Path_7445" data-name="Path 7445" d="M2404.688,227.1a32.835,32.835,0,0,0-7.309.973,12.264,12.264,0,0,0-4.265-8.54c13.075-1.282,20.51-8.716,21.264-19.229a24.207,24.207,0,0,0-6.138-17.432s3.076-7.947,0-13.075c-6.409-.256-13.075,5.641-13.075,5.641s-3.333-1.795-12.307-1.795-10.766,1.795-10.766,1.795a20.292,20.292,0,0,0-13.844-5.641,15.549,15.549,0,0,0,.512,13.332s-7.947,8.2-5.292,19.262c3.421,14.245,21.7,17.142,21.7,17.142-3.914,2.936-5.526,9.722-4.887,14.241,0,0-2.785.987-2.693,2.694.146,2.71,3.231,2.912,5.464,2.919a3.925,3.925,0,0,0-.078.689c0,2.469.555,4.471,5,4.471,4.769,0,5.063-2,5-4.471,0-.024-.009-.047-.011-.071.378.014.775.038,1.113.038.148,0,.293,0,.441,0,0,.027-.009.051-.009.078,0,2.446.555,4.429,5,4.429,4.769,0,5.063-1.984,5-4.429a3.745,3.745,0,0,0-.187-1.018c2.407.387,5.507.169,5.58-2.632.036-1.36-1.787-2.129-2.507-2.572a22.888,22.888,0,0,1,7.788-.492c4.768.625,10.859,6.347,12.2.584C2418.379,229.743,2412.362,227.038,2404.688,227.1Z" transform="translate(-361 759.716)" fill="rgba(100,184,223,0.1)" stroke="#006ce0" stroke-miterlimit="10" stroke-width="2"/>
    <path id="Path_7446" data-name="Path 7446" d="M2369.261,205.756a25.222,25.222,0,0,0-6.129,2.97,1.171,1.171,0,0,0,.7,2.114,1.161,1.161,0,0,0,.694-.229,23.293,23.293,0,0,1,5.339-2.591,1.171,1.171,0,1,0-.6-2.264Z" transform="translate(-361 759.716)" fill="#006ce0"/>
    <path id="Path_7447" data-name="Path 7447" d="M2372.948,198.3a1.172,1.172,0,0,0-1.172,1.172V201.4a1.172,1.172,0,0,0,2.343,0v-1.923A1.172,1.172,0,0,0,2372.948,198.3Z" transform="translate(-361 759.716)" fill="#006ce0"/>
    <path id="Path_7448" data-name="Path 7448" d="M2380.709,203.755a1.172,1.172,0,0,0,1.653-.114,2.878,2.878,0,0,1,4.343,0,1.171,1.171,0,1,0,1.766-1.539,5.22,5.22,0,0,0-7.875,0A1.172,1.172,0,0,0,2380.709,203.755Z" transform="translate(-361 759.716)" fill="#006ce0"/>
    <path id="Path_7449" data-name="Path 7449" d="M2368.3,203.991a1.172,1.172,0,1,0,.307-2.323,25.182,25.182,0,0,0-6.8.411,1.171,1.171,0,1,0,.568,2.273A23.291,23.291,0,0,1,2368.3,203.991Z" transform="translate(-361 759.716)" fill="#006ce0"/>
    <path id="Path_7450" data-name="Path 7450" d="M2400.764,203.991a23.3,23.3,0,0,1,5.924.361,1.171,1.171,0,1,0,.568-2.273,25.147,25.147,0,0,0-6.8-.411,1.172,1.172,0,0,0,.306,2.323Z" transform="translate(-361 759.716)" fill="#006ce0"/>
    <path id="Path_7451" data-name="Path 7451" d="M2399.2,208.02a23.279,23.279,0,0,1,5.34,2.591,1.171,1.171,0,0,0,1.391-1.885,25.147,25.147,0,0,0-6.129-2.97,1.171,1.171,0,0,0-.6,2.264Z" transform="translate(-361 759.716)" fill="#006ce0"/>
    <path id="Path_7452" data-name="Path 7452" d="M2396.12,202.566a1.171,1.171,0,0,0,1.171-1.171v-1.923a1.172,1.172,0,1,0-2.343,0V201.4A1.171,1.171,0,0,0,2396.12,202.566Z" transform="translate(-361 759.716)" fill="#006ce0"/>
  </g>
</svg>
