<svg xmlns="http://www.w3.org/2000/svg" width="144.46" height="42.65"><g fill="#e8e8e8"><path d="M8.021 35.42a12.244 12.244 0 0 1 16.693-17.918h5.163c-.045-.07-.115-.162-.162-.23a16.249 16.249 0 1 0-.022 18.148c.092-.137.185-.3.278-.439h-4.816a12.216 12.216 0 0 1-17.134.439ZM143.464 25.003a12.637 12.637 0 0 0-11.645-7.709 12.38 12.38 0 0 0-4.909.99 12.636 12.636 0 1 0 16.554 6.719ZM131.773 38.71a8.822 8.822 0 1 1 8.821-8.818 8.818 8.818 0 0 1-8.821 8.818ZM55.971 17.294a12.164 12.164 0 0 0-12.456 11.855v.787c0 7.408 5.349 12.689 13.359 12.689a12.428 12.428 0 0 0 9.794-4.029l-2.478-2.893a9.3 9.3 0 0 1-7.177 3.008c-4.907 0-8.427-2.891-9.006-7.271h20.144c.046-.416.092-.971.092-1.365-.001-7.617-5.117-12.781-12.272-12.781Zm-7.965 10.93a8.014 8.014 0 0 1 15.93 0ZM44.161 17.294c-4.352 0-7.455 1.508-9.051 4.4v-4.168h-4.307v24.822h4.491V29.983c0-5.439 3.01-8.379 7.826-8.379a8.05 8.05 0 0 1 1.041.045ZM107.046 38.846c-2.478 0-3.266-1.508-3.266-4.166V21.223h7.132v-3.7h-7.154v-7.291h-4.492v7.291h-1.551v3.7h1.551v13.641c0 5.02 2.246 7.781 7.246 7.781a6.86 6.86 0 0 0 4.816-1.738l-1.413-3.217a4.057 4.057 0 0 1-2.869 1.156Z"/><path d="M112.996 17.525h4.492v24.82h-4.492zM91.209 20.994a12.533 12.533 0 0 0-8.913-3.705 12.373 12.373 0 0 0-4.908.99 12.646 12.646 0 0 0 9.792 23.32 12.3 12.3 0 0 0 4.053-2.73v3.494h3.888v-24.82h-3.888v3.451Zm-8.937 17.711a8.822 8.822 0 1 1 8.822-8.818 8.832 8.832 0 0 1-8.822 8.818ZM125.381 10.073 107.97 14.1l5.187-4.027L91.927-.001Z"/><path d="M125.381 10.073h-12.224L91.927-.001Z"/></g></svg>
