<svg xmlns="http://www.w3.org/2000/svg" width="195.792" height="57.805" viewBox="0 0 195.792 57.805">
  <g id="logo_7" data-name="logo 7" transform="translate(-862 -401)">
    <path id="Path_6363" d="M4183.727,19664.363a16.6,16.6,0,0,1,22.624-24.285h7c-.061-.094-.155-.219-.22-.312a22.024,22.024,0,1,0-.03,24.6c.125-.184.25-.4.377-.594h-6.527A16.557,16.557,0,0,1,4183.727,19664.363Z" transform="translate(-3310.855 -19215.355)" fill="#fff" opacity="0.501"/>
    <path id="Path_6364" d="M4720.546,19671.549a17.124,17.124,0,0,0-15.783-10.449,16.764,16.764,0,0,0-6.652,1.344,17.125,17.125,0,1,0,22.436,9.105Zm-15.846,18.578a11.957,11.957,0,1,1,11.955-11.953h0a11.952,11.952,0,0,1-11.955,11.953Z" transform="translate(-3664.104 -19236.66)" fill="#fff" opacity="0.896"/>
    <path id="Path_6365" d="M4377.682,19661.088a16.484,16.484,0,0,0-16.882,16.066h0v1.066c0,10.043,7.249,17.2,18.105,17.2a16.846,16.846,0,0,0,13.274-5.461l-3.358-3.922a12.623,12.623,0,0,1-9.728,4.078c-6.65,0-11.422-3.918-12.207-9.855h27.3c.063-.562.125-1.316.125-1.852C4394.314,19668.084,4387.379,19661.088,4377.682,19661.088Zm-10.795,14.813a10.861,10.861,0,0,1,21.591,0Z" transform="translate(-3439.823 -19236.648)" fill="#fff" opacity="0.504"/>
    <path id="Path_6366" d="M4324,19661.1c-5.9,0-10.1,2.043-12.268,5.961v-5.648H4305.9v33.641h6.087v-16.758c0-7.371,4.08-11.355,10.607-11.355a11.329,11.329,0,0,1,1.41.059Z" transform="translate(-3402.151 -19236.66)" fill="#fff" opacity="0.504"/>
    <path id="Path_6367" d="M4607.546,19669.385c-3.358,0-4.426-2.043-4.426-5.645V19645.5h9.666v-5.016h-9.7v-9.883H4597v9.883h-2.1v5.016h2.1v18.488c0,6.8,3.044,10.547,9.82,10.547a9.3,9.3,0,0,0,6.527-2.355l-1.914-4.359A5.492,5.492,0,0,1,4607.546,19669.385Z" transform="translate(-3600.463 -19215.734)" fill="#fff" opacity="0.504"/>
    <rect id="Rectangle_6703" width="6.088" height="33.639" transform="translate(1015.146 424.754)" fill="#fff" opacity="0.693"/>
    <path id="Path_6368" d="M4502.857,19666.119a16.987,16.987,0,0,0-12.08-5.02,16.753,16.753,0,0,0-6.652,1.344,17.14,17.14,0,0,0,13.272,31.605,16.646,16.646,0,0,0,5.493-3.7v4.738h5.27v-33.641h-5.27v4.676Zm-12.112,24.008a11.957,11.957,0,1,1,11.956-11.953h0a11.972,11.972,0,0,1-11.956,11.953Z" transform="translate(-3517.238 -19236.66)" fill="#fff" opacity="0.504"/>
    <path id="Path_5977" d="M4615.243,19643.652l-23.6,5.461,7.03-5.461L4569.9,19630Z" transform="translate(-3583.308 -19229)" fill="#fff" opacity="0.693"/>
  </g>
</svg>
