<svg width="16" height="16" viewBox="0 0 16 16" fill="none" xmlns="http://www.w3.org/2000/svg">
<path d="M2.24295 7.41198C2.09279 7.56296 2 7.77104 2 8.00079C2 8.2416 2.10193 8.45859 2.265 8.61098L6.2337 12.7434C6.55313 13.076 7.08171 13.0867 7.41432 12.7672C7.74693 12.4478 7.75761 11.9192 7.43818 11.5866L4.79633 8.83579L13.165 8.83579C13.6262 8.83579 14 8.46195 14 8.00079C14 7.53964 13.6262 7.16579 13.165 7.16579L4.79481 7.16579L7.43818 4.41339C7.75761 4.08078 7.74693 3.55219 7.41432 3.23276C7.08171 2.91333 6.55313 2.92401 6.2337 3.25662L2.24295 7.41198Z" fill="currentColor"/>
</svg>
