<svg width="16" height="16" viewBox="0 0 16 16" fill="none" xmlns="http://www.w3.org/2000/svg">
<path fill-rule="evenodd" clip-rule="evenodd" d="M12 2C12.5523 2 13 2.42415 13 2.94737V13.0526C13 13.5758 12.5523 14 12 14C11.4477 14 11 13.5758 11 13.0526V2.94737C11 2.42415 11.4477 2 12 2ZM8 5.78947C8.55228 5.78947 9 6.21362 9 6.73684V13.0526C9 13.5758 8.55228 14 8 14C7.44772 14 7 13.5758 7 13.0526V6.73684C7 6.21362 7.44772 5.78947 8 5.78947ZM4 9.57895C4.55228 9.57895 5 10.0031 5 10.5263V13.0526C5 13.5758 4.55228 14 4 14C3.44772 14 3 13.5758 3 13.0526V10.5263C3 10.0031 3.44772 9.57895 4 9.57895Z" fill="currentColor"/>
</svg>
