<svg width="16" height="17" viewBox="0 0 16 17" fill="none" xmlns="http://www.w3.org/2000/svg">
<path d="M10.7544 3.47349C11.4848 4.16059 11.8952 5.09249 11.8952 6.06419C11.8952 8.29457 12.4254 9.69367 12.9325 10.5217C13.1422 10.8642 12.8534 11.5599 12.4518 11.5599H3.54897C3.14741 11.5599 2.85862 10.8642 3.06833 10.5217C3.57543 9.69367 4.10565 8.29457 4.10565 6.06419C4.10565 5.09249 4.51599 4.16059 5.2464 3.47349C5.9768 2.7864 6.96745 2.40039 8.0004 2.40039C9.03336 2.40039 10.024 2.7864 10.7544 3.47349Z" fill="currentColor"/>
<path d="M7.59135 12.5168C7.3493 12.1243 6.83487 12.0023 6.44234 12.2443C6.04982 12.4864 5.92783 13.0008 6.16988 13.3934C6.36309 13.7067 6.63651 13.9606 6.95784 14.1347C7.27892 14.3087 7.63937 14.3985 8.0036 14.3985C8.36784 14.3985 8.72828 14.3087 9.04937 14.1347C9.37069 13.9606 9.64411 13.7067 9.83732 13.3934C10.0794 13.0008 9.95739 12.4864 9.56486 12.2443C9.17234 12.0023 8.65791 12.1243 8.41586 12.5168C8.38082 12.5736 8.32663 12.6269 8.25379 12.6664C8.1807 12.706 8.09425 12.7285 8.0036 12.7285C7.91296 12.7285 7.8265 12.706 7.75342 12.6664C7.68057 12.6269 7.62638 12.5736 7.59135 12.5168Z" fill="currentColor"/>
</svg>
