<svg width="16" height="16" viewBox="0 0 16 16" fill="none" xmlns="http://www.w3.org/2000/svg">
<path d="M6.33531 2.83815C6.13282 2.33194 5.64254 2 5.09734 2H3.26316C2.56554 2 2 2.56556 2 3.26319C2 9.19299 6.8072 14 12.737 14C13.4346 14 14 13.4345 14 12.7369L14 10.9027C14 10.3575 13.668 9.86726 13.1618 9.66477L11.4048 8.96193C10.9501 8.78005 10.4324 8.86203 10.0561 9.17555L9.60207 9.55383C9.0723 9.99531 8.29333 9.96 7.80571 9.47238L6.52759 8.19435C6.03996 7.70673 6.00482 6.9277 6.4463 6.39793L6.82455 5.94399C7.13808 5.56776 7.22003 5.04996 7.03814 4.59525L6.33531 2.83815Z" fill="currentColor"/>
</svg>
