<svg width="16" height="17" viewBox="0 0 16 17" fill="none" xmlns="http://www.w3.org/2000/svg">
<path fill-rule="evenodd" clip-rule="evenodd" d="M9.91327 3.69279C9.53448 3.69279 9.17121 3.84326 8.90337 4.1111L4.46517 8.54931C3.98313 9.03135 3.71232 9.68513 3.71232 10.3668C3.71232 11.0485 3.98313 11.7023 4.46517 12.1844C4.94721 12.6664 5.60099 12.9372 6.2827 12.9372C6.96441 12.9372 7.6182 12.6664 8.10024 12.1844L12.5384 7.74617C12.8728 7.41182 13.4149 7.41182 13.7492 7.74617C14.0836 8.08052 14.0836 8.62261 13.7492 8.95696L9.31103 13.3952C8.50787 14.1983 7.41854 14.6495 6.2827 14.6495C5.14686 14.6495 4.05754 14.1983 3.25437 13.3952C2.45121 12.592 2 11.5027 2 10.3668C2 9.231 2.45121 8.14168 3.25437 7.33851L7.69258 2.90031C8.28154 2.31134 9.08035 1.98047 9.91327 1.98047C10.7462 1.98047 11.545 2.31134 12.1339 2.90031C12.7229 3.48927 13.0538 4.28807 13.0538 5.12099C13.0538 5.95391 12.7229 6.75271 12.1339 7.34167L7.69003 11.7799C7.3153 12.1544 6.80683 12.3652 6.27699 12.3652C5.747 12.3652 5.23871 12.1546 4.86395 11.7799C4.48919 11.4051 4.27865 10.8968 4.27865 10.3668C4.27865 9.83685 4.48919 9.32856 4.86395 8.9538L8.90298 4.92049C9.23753 4.58633 9.77962 4.58665 10.1138 4.9212C10.4479 5.25575 10.4476 5.79784 10.1131 6.13199L6.07475 10.1646C6.02116 10.2182 5.99097 10.291 5.99097 10.3668C5.99097 10.4427 6.02111 10.5154 6.07475 10.5691C6.12839 10.6227 6.20114 10.6529 6.27699 10.6529C6.35285 10.6529 6.4256 10.6227 6.47924 10.5691L10.9232 6.13088C11.191 5.86305 11.3415 5.49974 11.3415 5.12099C11.3415 4.74221 11.191 4.37894 10.9232 4.1111C10.6553 3.84326 10.292 3.69279 9.91327 3.69279Z" fill="currentColor"/>
</svg>
