<svg width="17" height="16" viewBox="0 0 17 16" fill="none" xmlns="http://www.w3.org/2000/svg">
<path d="M8.1125 7.50518C9.63128 7.50518 10.8625 6.27281 10.8625 4.75259C10.8625 3.23238 9.63128 2 8.1125 2C6.59371 2 5.3625 3.23238 5.3625 4.75259C5.3625 6.27281 6.59371 7.50518 8.1125 7.50518Z" fill="currentColor"/>
<path d="M12.6132 14C13.1655 14 13.6132 13.5523 13.6132 13V12.6237C13.6132 11.8937 13.3234 11.1935 12.8077 10.6773C12.292 10.1611 11.5925 9.87111 10.8632 9.87111L5.37061 9.87111C4.64126 9.87111 3.94179 10.1611 3.42606 10.6773C2.91034 11.1935 2.62061 11.8937 2.62061 12.6237L2.62083 13.0006C2.62116 13.5527 3.06878 14 3.62083 14H12.6132Z" fill="currentColor"/>
</svg>
