<svg width="16" height="16" viewBox="0 0 16 16" fill="none" xmlns="http://www.w3.org/2000/svg">
<path fill-rule="evenodd" clip-rule="evenodd" d="M1.97154 3.71165C1.97154 3.18608 2.3636 2.74645 2.87742 2.69586L9.89598 2.00483C10.485 1.94684 10.9948 2.41818 10.9948 3.02062V13.2034C10.9948 13.8102 10.4779 14.283 9.88528 14.2181L7.20246 13.9243C7.53551 13.1934 7.32413 12.257 6.56834 11.7869L4.19135 10.3086C3.39595 9.81388 2.43711 10.1016 1.97154 10.7966V3.71165ZM4.66325 5.20188C4.93294 4.99741 5.32648 5.03885 5.54224 5.29444L6.43325 6.34995L7.44532 5.27093C7.67478 5.02629 8.07005 5.00425 8.32819 5.22171C8.58633 5.43917 8.60958 5.81377 8.38013 6.05841L7.22592 7.28897L8.40105 8.68105C8.61681 8.93664 8.57308 9.30959 8.30338 9.51406C8.03369 9.71854 7.64015 9.6771 7.42439 9.42151L6.38292 8.18775L5.52131 9.10636C5.29186 9.35099 4.89658 9.37303 4.63844 9.15557C4.3803 8.93812 4.35705 8.56351 4.58651 8.31888L5.59024 7.24873L4.56558 6.0349C4.34983 5.77931 4.39355 5.40635 4.66325 5.20188Z" fill="currentColor"/>
<path d="M10.9929 3.00975H12.9976V4.03027H10.9929V3.00975Z" fill="currentColor"/>
<path d="M10.9929 9.13289H11.0105H12.9976V10.1534H11.0105H10.9929V9.13289Z" fill="currentColor"/>
<path d="M10.9929 12.1945H12.9976V13.215H10.9929V12.1945Z" fill="currentColor"/>
<path d="M12.9976 4.03027V6.07132V7.09184V9.13289V10.1534V12.1945V13.215C13.5512 13.215 14 12.7581 14 12.1945V4.03027C14 3.46665 13.5512 3.00975 12.9976 3.00975V4.03027Z" fill="currentColor"/>
<path d="M3.03401 14.6934C3.03401 14.9324 3.2911 15.0793 3.49148 14.9546L5.86847 13.4763C6.0604 13.3569 6.0604 13.0731 5.86847 12.9538L3.49148 11.4754C3.2911 11.3508 3.03401 11.4976 3.03401 11.7367V12.4028H1.30071C1.13463 12.4028 1 12.5399 1 12.7089V13.7159C1 13.885 1.13463 14.0221 1.30071 14.0221H3.03401V14.6934Z" fill="currentColor"/>
<path fill-rule="evenodd" clip-rule="evenodd" d="M11.0105 6.07132H10.9929V7.09184H11.0105V6.07132ZM12.9976 9.13289H11.0105V10.1534H12.9976V9.13289Z" fill="currentColor"/>
<path d="M12.9976 7.09184V6.07132H11.0105V7.09184H12.9976Z" fill="currentColor"/>
</svg>
