<svg width="16" height="16" viewBox="0 0 16 16" fill="none" xmlns="http://www.w3.org/2000/svg">
	<path d="M6.66667 12C6.66667 12.5523 7.11438 13 7.66667 13H8.33333C8.88562 13 9.33333 12.5523 9.33333 12V12C9.33333 11.4477 8.88562 11 8.33333 11H7.66667C7.11438 11 6.66667 11.4477 6.66667 12V12ZM3 3C2.44772 3 2 3.44772 2 4V4C2 4.55228 2.44772 5 3 5H13C13.5523 5 14 4.55228 14 4V4C14 3.44772 13.5523 3 13 3H3ZM4 8C4 8.55228 4.44772 9 5 9H11C11.5523 9 12 8.55228 12 8V8C12 7.44772 11.5523 7 11 7H5C4.44772 7 4 7.44772 4 8V8Z" fill="currentColor"/>
</svg>
