<svg width="16" height="16" viewBox="0 0 16 16" fill="none" xmlns="http://www.w3.org/2000/svg">
	<path fill-rule="evenodd" clip-rule="evenodd" d="M13.6095 13.1095C13.8595 12.8594 14 12.5203 14 12.1667V5.83333C14 5.47971 13.8595 5.14057 13.6095 4.89052C13.3594 4.64048 13.0203 4.5 12.6667 4.5H8L6.66667 2.5H3.33333C2.97971 2.5 2.64057 2.64048 2.39052 2.89052C2.14048 3.14057 2 3.47971 2 3.83333V12.1667C2 12.5203 2.14048 12.8594 2.39052 13.1095C2.64057 13.3595 2.97971 13.5 3.33333 13.5H12.6667C13.0203 13.5 13.3594 13.3595 13.6095 13.1095ZM8.00226 6.5796C8.40892 6.5796 8.73859 6.90927 8.73859 7.31593V8.34327H9.76593C10.1726 8.34327 10.5023 8.67294 10.5023 9.0796C10.5023 9.48627 10.1726 9.81593 9.76593 9.81593H8.73859V10.8433C8.73859 11.2499 8.40892 11.5796 8.00226 11.5796C7.59559 11.5796 7.26593 11.2499 7.26593 10.8433V9.81593H6.23859C5.83192 9.81593 5.50226 9.48627 5.50226 9.0796C5.50226 8.67294 5.83192 8.34327 6.23859 8.34327H7.26593V7.31593C7.26593 6.90927 7.59559 6.5796 8.00226 6.5796Z" fill="currentColor"/>
</svg>
