<svg width="16" height="16" viewBox="0 0 16 16" fill="none" xmlns="http://www.w3.org/2000/svg">
<path d="M9.5 2H3.5C2.67157 2 2 2.67157 2 3.5V5.40578C2 6.23421 2.67157 6.90578 3.5 6.90578H9.5C10.3284 6.90578 11 6.23421 11 5.40578V5.16031H12.168C12.3503 5.16031 12.498 5.30806 12.498 5.49031V7.43955C12.498 7.6218 12.3503 7.76955 12.168 7.76955H5.32527C4.40296 7.76955 3.65527 8.51723 3.65527 9.43955V11.037C3.65527 11.9593 4.40296 12.707 5.32527 12.707H7.77734V13.0008C7.77734 13.5531 8.22506 14.0008 8.77734 14.0008H13C13.5523 14.0008 14 13.5531 14 13.0008V11.0762C14 10.5239 13.5523 10.0762 13 10.0762H8.77734C8.22506 10.0762 7.77734 10.5239 7.77734 11.0762V11.367H5.32527C5.14302 11.367 4.99527 11.2192 4.99527 11.037V9.43955C4.99527 9.25729 5.14302 9.10955 5.32527 9.10955H12.168C13.0904 9.10955 13.838 8.36186 13.838 7.43955V5.49031C13.838 4.568 13.0904 3.82031 12.168 3.82031H11V3.5C11 2.67157 10.3284 2 9.5 2Z" fill="currentColor"/>
</svg>
