<svg width="16" height="16" viewBox="0 0 16 16" fill="none" xmlns="http://www.w3.org/2000/svg">
<path fill-rule="evenodd" clip-rule="evenodd" d="M2 3.67798C2 3.16314 2.3909 2.73243 2.90334 2.68267L9.88331 2.00478C10.4678 1.94801 10.9743 2.40448 10.9799 2.99023H13.016C13.5554 3.00492 13.9882 3.44722 13.9882 3.99023V10.6314L13.1881 10.1415C13.1225 10.1013 13.0557 10.0664 12.9882 10.0365V9.99023H12.8719C12.5116 9.86275 12.1365 9.87303 11.8014 9.99023H10.998V10.5923C10.9401 10.6737 10.8894 10.7611 10.8469 10.8537H10.311C10.204 10.8537 10.0993 10.864 9.99801 10.8837C9.24423 11.0301 8.67507 11.6951 8.67507 12.4935V13.4803C8.67507 13.6143 8.69111 13.7445 8.72135 13.8692L6.93899 13.6767L2.89529 13.2509C2.38636 13.1973 2 12.7682 2 12.2564V3.67798ZM4.6731 5.13986C4.93496 4.94402 5.31707 4.98371 5.52656 5.22851L6.3917 6.23944L7.37437 5.20599C7.59716 4.97169 7.98096 4.95058 8.2316 5.15885C8.48225 5.36712 8.50482 5.7259 8.28203 5.96021L7.16135 7.13879L8.30235 8.47207C8.51184 8.71686 8.46938 9.07406 8.20752 9.2699C7.94565 9.46573 7.56354 9.42605 7.35405 9.18125L6.34282 7.99961L5.50624 8.87941C5.28345 9.11372 4.89965 9.13482 4.64901 8.92655C4.39837 8.71828 4.37579 8.3595 4.59859 8.1252L5.57317 7.10025L4.57827 5.93769C4.36878 5.6929 4.41123 5.3357 4.6731 5.13986ZM10.998 8.99023V6.99023H12.9882V8.99023H10.998ZM12.9882 5.99023H10.998V3.99023H12.9882V5.99023Z" fill="currentColor"/>
<path d="M12.4926 14.693C12.2927 14.8154 12.0359 14.6716 12.0359 14.4372V13.7801H10.3116C10.146 13.7801 10.0116 13.6458 10.0116 13.4801V12.4934C10.0116 12.3277 10.146 12.1934 10.3116 12.1934H12.0359V11.5414C12.0359 11.3069 12.2927 11.1631 12.4926 11.2855L14.857 12.7334C15.0482 12.8505 15.0482 13.1281 14.857 13.2451L12.4926 14.693Z" fill="currentColor"/>
</svg>
