<svg width="16" height="16" viewBox="0 0 16 16" fill="none" xmlns="http://www.w3.org/2000/svg">
<path fill-rule="evenodd" clip-rule="evenodd" d="M7.99992 1.50079C11.5893 1.50079 14.4991 4.41058 14.4991 7.99998C14.4991 11.5894 11.5893 14.4992 7.99992 14.4992C4.41051 14.4992 1.50073 11.5894 1.50073 7.99998C1.50073 4.41058 4.41051 1.50079 7.99992 1.50079Z" fill="currentColor"/>
<path fill-rule="evenodd" clip-rule="evenodd" d="M5.91659 9.28984C5.63686 9.56956 5.63686 10.0231 5.91659 10.3028C6.19631 10.5825 6.64983 10.5825 6.92955 10.3028L7.96308 9.26928L8.99663 10.3028C9.27635 10.5826 9.72987 10.5826 10.0096 10.3028C10.2893 10.0231 10.2893 9.56959 10.0096 9.28987L8.97604 8.25631L10.0096 7.22276C10.2893 6.94303 10.2893 6.48951 10.0096 6.20979C9.72988 5.93007 9.27636 5.93007 8.99664 6.20979L7.96308 7.24335L6.92954 6.20982C6.64982 5.93009 6.1963 5.93009 5.91658 6.20982C5.63686 6.48954 5.63686 6.94306 5.91658 7.22278L6.95011 8.25631L5.91659 9.28984Z" fill="white"/>
</svg>
