<svg width="16" height="16" viewBox="0 0 16 16" fill="none" xmlns="http://www.w3.org/2000/svg">
<path fill-rule="evenodd" clip-rule="evenodd" d="M6.56185 3.24038C6.94344 2.8631 7.46098 2.65115 8.00062 2.65115C8.54026 2.65115 9.0578 2.8631 9.43938 3.24038C9.82096 3.61765 10.0353 4.12935 10.0353 4.6629V6.10674H5.9659V4.6629C5.9659 4.12935 6.18027 3.61765 6.56185 3.24038ZM11.7053 4.6629V6.10674H12.0181C13.1132 6.10674 14.001 6.98448 14.001 8.06724V12.0395C14.001 13.1223 13.1132 14 12.0181 14H3.98289C2.88777 14 2 13.1223 2 12.0395V8.06724C2 6.98448 2.88777 6.10674 3.98289 6.10674H4.2959V4.6629C4.2959 3.69144 4.68622 2.75977 5.38099 2.07284C6.07576 1.38591 7.01806 1 8.00062 1C8.98317 1 9.92548 1.38591 10.6202 2.07284C11.315 2.75977 11.7053 3.69144 11.7053 4.6629ZM8.00004 8.56983C7.53888 8.56983 7.16504 8.93945 7.16504 9.3954V10.7104C7.16504 11.1663 7.53888 11.536 8.00004 11.536C8.4612 11.536 8.83504 11.1663 8.83504 10.7104V9.3954C8.83504 8.93945 8.4612 8.56983 8.00004 8.56983Z" fill="currentColor"/>
</svg>
