<svg width="10" height="11" viewBox="0 0 10 11" fill="none" xmlns="http://www.w3.org/2000/svg">
<path d="M5.93712 3.94478C5.93712 4.81175 5.23756 5.51456 4.37462 5.51456C3.51167 5.51456 2.81212 4.81175 2.81212 3.94478C2.81212 3.07782 3.51167 2.375 4.37462 2.375C5.23756 2.375 5.93712 3.07782 5.93712 3.94478Z" fill="#0058EF"/>
<path d="M7.5 7.84011C7.5 8.27359 7.14859 8.625 6.71511 8.625H2.03489C1.60141 8.625 1.25 8.27359 1.25 7.84011C1.25 7.42378 1.41462 7.0245 1.70765 6.73011C2.00067 6.43572 2.3981 6.27033 2.8125 6.27033H3.50352C3.55739 6.27033 3.6052 6.30484 3.62216 6.35597L4.25636 8.26742C4.29424 8.3816 4.45576 8.3816 4.49364 8.26742L5.12784 6.35597C5.1448 6.30484 5.19261 6.27033 5.24648 6.27033H5.9375C6.3519 6.27033 6.74933 6.43572 7.04235 6.73011C7.33538 7.0245 7.5 7.42378 7.5 7.84011Z" fill="#0058EF"/>
<path d="M7.89002 7.85764C7.89002 7.94829 7.96351 8.02177 8.05416 8.02177H8.85421C9.14183 8.02177 9.375 7.78861 9.375 7.50098C9.375 7.22474 9.26526 6.95981 9.06993 6.76447C8.87459 6.56914 8.60966 6.4594 8.33342 6.4594C7.95606 6.4594 7.71927 6.96953 7.81929 7.3334C7.86584 7.50273 7.89002 7.67894 7.89002 7.85764Z" fill="#0058EF"/>
<path d="M7.29158 5.80841C7.86683 5.80841 8.33316 5.34208 8.33316 4.76683C8.33316 4.19158 7.86683 3.72525 7.29158 3.72525C6.71633 3.72525 6.25 4.19158 6.25 4.76683C6.25 5.34208 6.71633 5.80841 7.29158 5.80841Z" fill="#0058EF"/>
</svg>
