<svg width="16" height="16" viewBox="0 0 16 16" fill="none" xmlns="http://www.w3.org/2000/svg">
<path d="M6.22916 3.77923C6.22916 2.79659 7.02178 2 7.99953 2C8.97728 2 9.7699 2.79659 9.7699 3.77923C9.7699 4.51131 9.32996 5.14011 8.7013 5.4132V6.79345H10.9674C12.0517 6.79345 12.9307 7.67687 12.9307 8.76661V10.5865C13.5597 10.8594 14 11.4884 14 12.2208C14 13.2034 13.2074 14 12.2296 14C11.2519 14 10.4593 13.2034 10.4593 12.2208C10.4593 11.4892 10.8986 10.8608 11.5265 10.5874V8.76661C11.5265 8.45626 11.2762 8.20466 10.9674 8.20466H8.7013V10.5868C9.32996 10.8599 9.7699 11.4887 9.7699 12.2208C9.7699 13.2034 8.97728 14 7.99953 14C7.02178 14 6.22916 13.2034 6.22916 12.2208C6.22916 11.4889 6.6688 10.8603 7.29712 10.5871V8.20466H5.03105C4.72224 8.20466 4.4719 8.45626 4.4719 8.76661V10.5867C5.10069 10.8597 5.54073 11.4886 5.54073 12.2208C5.54073 13.2034 4.74811 14 3.77037 14C2.79262 14 2 13.2034 2 12.2208C2 11.489 2.43952 10.8605 3.06772 10.5872V8.76661C3.06772 7.67687 3.94673 6.79345 5.03105 6.79345H7.29712V5.41292C6.6688 5.13969 6.22916 4.51106 6.22916 3.77923Z" fill="currentColor"/>
</svg>
