<svg width="17" height="16" viewBox="0 0 17 16" fill="none" xmlns="http://www.w3.org/2000/svg">
<path fill-rule="evenodd" clip-rule="evenodd" d="M2.5 4.49805C2.5 3.66962 3.17157 2.99805 4 2.99805H13C13.8284 2.99805 14.5 3.66962 14.5 4.49805V11.502C14.5 12.3304 13.8284 13.002 13 13.002H4C3.17157 13.002 2.5 12.3304 2.5 11.502V4.49805ZM12.6809 12.0013H4.1095C3.71501 12.0013 3.39522 11.6655 3.39522 11.2513V10.4038C3.39522 10.2026 3.45591 10.0061 3.56936 9.83992L5.3777 7.19142C5.63858 6.78053 6.19988 6.74193 6.50958 7.11356L8.77048 9.82665C8.90203 9.98451 9.12285 10.035 9.30994 9.95002L10.1809 9.56383L11.5062 8.86808C11.7812 8.72371 12.1133 8.7803 12.3307 9.00857L13.1595 9.99103C13.3117 10.1714 13.3952 10.3998 13.3952 10.6359V11.2513C13.3952 11.6655 13.0754 12.0013 12.6809 12.0013ZM11.7285 7.4631C12.4189 7.4631 12.9785 6.90345 12.9785 6.2131C12.9785 5.52274 12.4189 4.9631 11.7285 4.9631C11.0382 4.9631 10.4785 5.52274 10.4785 6.2131C10.4785 6.90345 11.0382 7.4631 11.7285 7.4631Z" fill="#22AC14"/>
</svg>
