<svg width="16" height="17" viewBox="0 0 16 17" fill="none" xmlns="http://www.w3.org/2000/svg">
<path fill-rule="evenodd" clip-rule="evenodd" d="M10.2867 2.40249C8.58933 2.46471 7.2676 3.89462 7.32942 5.59157C7.39123 7.28851 8.81348 8.61784 10.5108 8.55562C11.0875 8.53448 11.6209 8.35544 12.0713 8.06168L13.7462 9.60773C14.0505 9.88866 14.525 9.86964 14.806 9.56525C15.087 9.26085 15.068 8.78636 14.7637 8.50543L13.091 6.96134C13.3502 6.48943 13.4891 5.94342 13.4681 5.36655C13.4062 3.6696 11.984 2.34027 10.2867 2.40249ZM8.82841 5.53662C8.79659 4.66316 9.4762 3.9332 10.3413 3.90149C11.2063 3.86978 11.9373 4.54803 11.9691 5.42149C12.0009 6.29495 11.3213 7.02491 10.4562 7.05662C9.59113 7.08833 8.86023 6.41008 8.82841 5.53662Z" fill="currentColor"/>
<path fill-rule="evenodd" clip-rule="evenodd" d="M6.32087 4.64861C6.33616 4.58421 6.28823 4.52106 6.22204 4.52106H3.5C2.67157 4.52106 2 5.19263 2 6.02106V11.5721C2 12.4005 2.67157 13.0721 3.5 13.0721H4.48685C4.54208 13.0721 4.58685 13.1169 4.58685 13.1721V14.8987C4.58685 15.3135 5.06273 15.5479 5.39157 15.2951L8.25659 13.0928C8.27407 13.0794 8.29549 13.0721 8.31753 13.0721H11.4162C12.2446 13.0721 12.9162 12.4005 12.9162 11.5721V10.3307C12.9162 10.3052 12.9064 10.2806 12.8889 10.2621L11.9688 9.2871C11.9396 9.25618 11.8941 9.24721 11.855 9.26386C11.3363 9.48475 10.7631 9.60007 10.163 9.58364C9.4116 9.56307 8.71362 9.33857 8.12027 8.96441C8.07962 8.93878 8.02682 8.94501 7.99013 8.97605C7.84469 9.09908 7.65659 9.17325 7.45117 9.17325C6.99001 9.17325 6.61617 8.79941 6.61617 8.33825V7.2938C6.61617 7.27892 6.61284 7.26424 6.60651 7.25077C6.34479 6.69346 6.2059 6.06778 6.22391 5.40985C6.23129 5.14035 6.26441 4.88653 6.32087 4.64861ZM6.45117 10.9756C6.45117 10.4234 6.89889 9.97564 7.45117 9.97564H7.45784C8.01012 9.97564 8.45784 10.4234 8.45784 10.9756C8.45784 11.5279 8.01012 11.9756 7.45784 11.9756H7.45117C6.89889 11.9756 6.45117 11.5279 6.45117 10.9756Z" fill="currentColor"/>
</svg>
