<svg width="16" height="16" viewBox="0 0 16 16" fill="none" xmlns="http://www.w3.org/2000/svg">
<path fill-rule="evenodd" clip-rule="evenodd" d="M1.49902 2.96403C1.49902 2.1552 2.15471 1.49951 2.96354 1.49951H5.48162C6.29045 1.49951 6.94613 2.1552 6.94613 2.96403V5.4821C6.94613 6.29094 6.29045 6.94662 5.48162 6.94662H2.96354C2.15471 6.94662 1.49902 6.29094 1.49902 5.4821V2.96403ZM3.16902 3.16951V5.27662H5.27613V3.16951H3.16902Z" fill="currentColor"/>
<path fill-rule="evenodd" clip-rule="evenodd" d="M9.05325 10.5183C9.05325 9.70942 9.70894 9.05374 10.5178 9.05374H13.0358C13.8447 9.05374 14.5004 9.70942 14.5004 10.5183V13.0363C14.5004 13.8452 13.8447 14.5008 13.0358 14.5008H10.5178C9.70894 14.5008 9.05325 13.8452 9.05325 13.0363V10.5183ZM10.7232 10.7237V12.8308H12.8304V10.7237H10.7232Z" fill="currentColor"/>
<path d="M11.1082 2.92495C11.4343 2.59886 11.4343 2.07017 11.1082 1.74408C10.7821 1.41799 10.2534 1.41799 9.92733 1.74408L8.03877 3.63263C7.71269 3.95872 7.71269 4.48741 8.03877 4.8135L9.92733 6.70206C10.2534 7.02814 10.7821 7.02814 11.1082 6.70206C11.4343 6.37597 11.4343 5.84728 11.1082 5.52119L10.6451 5.05807H12.4063C12.5188 5.05807 12.6266 5.10274 12.7062 5.18227C12.7857 5.26179 12.8304 5.36964 12.8304 5.4821V7.37066C12.8304 7.83182 13.2042 8.20566 13.6654 8.20566C14.1265 8.20566 14.5004 7.83182 14.5004 7.37066V5.4821C14.5004 4.92673 14.2797 4.3941 13.887 4.0014C13.4943 3.60869 12.9617 3.38807 12.4063 3.38807H10.6451L11.1082 2.92495Z" fill="currentColor"/>
<path d="M3.16902 8.6297C3.16902 8.16854 2.79518 7.7947 2.33402 7.7947C1.87287 7.7947 1.49902 8.16854 1.49902 8.6297V10.5183C1.49902 11.0736 1.71964 11.6063 2.11235 11.999C2.50506 12.3917 3.03769 12.6123 3.59306 12.6123H5.3543L4.89118 13.0754C4.56509 13.4015 4.56509 13.9302 4.89118 14.2563C5.21727 14.5824 5.74596 14.5824 6.07205 14.2563L7.96061 12.3677C8.28669 12.0416 8.28669 11.5129 7.96061 11.1869L6.07205 9.2983C5.74596 8.97221 5.21727 8.97221 4.89118 9.2983C4.56509 9.62439 4.56509 10.1531 4.89118 10.4792L5.3543 10.9423H3.59306C3.4806 10.9423 3.37274 10.8976 3.29322 10.8181C3.2137 10.7386 3.16902 10.6307 3.16902 10.5183V8.6297Z" fill="currentColor"/>
</svg>
