<svg width="16" height="16" viewBox="0 0 16 16" fill="none" xmlns="http://www.w3.org/2000/svg">
<path d="M13.108 6.56648C13.0415 6.67987 12.9091 6.73592 12.7801 6.71069C12.1941 6.59606 11.6018 6.57502 10.9608 6.70273C10.5852 6.77756 10.2237 6.90276 9.8855 7.07342C9.79562 7.11877 9.69 7.11894 9.59661 7.08135C9.49357 7.03988 9.38538 7.00849 9.27328 6.98842C9.18426 6.97249 9.10354 6.92481 9.04748 6.85385C8.90659 6.6755 8.7302 6.52033 8.52137 6.39977C7.63753 5.88948 6.50737 6.19231 5.99709 7.07614C5.48681 7.95998 5.78963 9.09014 6.67347 9.60042C6.8259 9.68843 6.98567 9.75225 7.14831 9.79308C7.25072 9.81879 7.32856 9.90708 7.32856 10.0127C7.32856 10.2111 7.3643 10.4079 7.43408 10.5936C7.52297 10.8302 7.69154 10.985 7.88935 11.0851C8.17212 11.2281 8.46261 11.9187 8.34824 12.2142C8.23306 12.5119 8.21135 12.854 8.41109 13.2067C8.41978 13.222 8.4278 13.2385 8.43409 13.255C8.55627 13.5746 8.62456 13.6417 8.75403 13.7688C8.76925 13.7837 8.78532 13.7995 8.80242 13.8166C8.81485 13.8291 8.82736 13.8414 8.83994 13.8537C8.84321 13.8569 8.84172 13.8624 8.83726 13.8634C8.02092 14.0455 7.17589 14.0455 6.35955 13.8634C6.30143 13.8511 6.2466 13.826 6.19879 13.79C6.15098 13.7539 6.11132 13.7078 6.0825 13.6546L5.43439 12.4575C5.40705 12.407 5.36571 12.3655 5.31562 12.3374C5.23413 12.2917 5.15457 12.2456 5.07694 12.1979C5.02678 12.167 4.96908 12.1504 4.91021 12.1513L3.57866 12.1713C3.51971 12.1724 3.46121 12.1605 3.40712 12.1365C3.35302 12.1125 3.30457 12.0769 3.26502 12.0321C2.70032 11.399 2.27593 10.6482 2.02094 9.83132C2.00889 9.78952 2.00187 9.74636 2.00003 9.70281C1.9991 9.62486 2.02094 9.5484 2.06276 9.48326L2.75362 8.30036C2.78044 8.25445 2.79457 8.20223 2.79457 8.14906V7.85124C2.79457 7.79788 2.78034 7.74548 2.75334 7.69945L2.06276 6.52209C2.03178 6.46957 2.01203 6.4109 2.00482 6.34998C1.99761 6.28906 2.00311 6.22726 2.02094 6.16868C2.27706 5.35347 2.69934 4.60331 3.25979 3.96788C3.30075 3.92347 3.3502 3.88819 3.40506 3.86423C3.45993 3.84028 3.51902 3.82817 3.57866 3.82866L4.90555 3.85364C4.96732 3.85481 5.02774 3.83655 5.07982 3.80333C5.15467 3.75558 5.2312 3.71064 5.30925 3.66862C5.36309 3.63963 5.40811 3.59636 5.43722 3.54259L6.0825 2.35075C6.11102 2.29681 6.15051 2.24977 6.19831 2.21282C6.24611 2.17587 6.30109 2.14986 6.35955 2.13656C7.17589 1.95448 8.02092 1.95448 8.83726 2.13656C8.89611 2.14883 8.95154 2.17443 8.99948 2.21149C9.04742 2.24855 9.08665 2.29613 9.11431 2.35075L9.76242 3.54279C9.78977 3.59309 9.83102 3.63439 9.88092 3.66247C9.96131 3.70769 10.0398 3.75365 10.1164 3.80266C10.1689 3.83622 10.2298 3.8548 10.2921 3.85363L11.6182 3.82866C11.6771 3.82758 11.7356 3.83945 11.7897 3.86347C11.8438 3.88748 11.8922 3.92308 11.9318 3.96788C12.4965 4.60104 12.9209 5.35179 13.1759 6.16868C13.1937 6.22726 13.1992 6.28906 13.192 6.34998C13.1848 6.4109 13.165 6.46957 13.1341 6.52209L13.108 6.56648Z" fill="currentColor"/>
<path d="M13.0316 7.85271C12.4482 7.61121 11.8063 7.54815 11.1871 7.67152C10.6762 7.7733 10.1997 7.99819 9.79801 8.32459C9.67057 8.09228 9.42369 7.9348 9.14001 7.9348C8.7258 7.9348 8.39001 8.27058 8.39001 8.6848V10.0167C8.39001 10.4309 8.7258 10.7667 9.14001 10.7667H10.4719C10.8861 10.7667 11.2219 10.4309 11.2219 10.0167C11.2219 9.75352 11.0864 9.52202 10.8813 9.38817C11.0624 9.26912 11.2655 9.18537 11.4802 9.14261C11.8084 9.07722 12.1486 9.11064 12.4578 9.23865C12.767 9.36665 13.0313 9.58349 13.2173 9.86173C13.4032 10.14 13.5025 10.4671 13.5025 10.8018C13.5025 11.1364 13.4032 11.4636 13.2173 11.7418C13.0313 12.02 12.767 12.2369 12.4578 12.3649C12.1486 12.4929 11.8084 12.5263 11.4802 12.4609C11.152 12.3955 10.8505 12.2343 10.614 11.9975C10.3212 11.7045 9.84632 11.7043 9.55331 11.9971C9.2603 12.2899 9.26011 12.7648 9.55288 13.0578C9.99915 13.5044 10.5679 13.8087 11.1871 13.932C11.8063 14.0554 12.4482 13.9923 13.0316 13.7508C13.6149 13.5093 14.1136 13.1002 14.4644 12.5753C14.8152 12.0504 15.0025 11.4332 15.0025 10.8018C15.0025 10.1704 14.8152 9.55319 14.4644 9.02825C14.1136 8.50331 13.6149 8.09421 13.0316 7.85271Z" fill="currentColor"/>
</svg>
