<svg width="16" height="16" viewBox="0 0 16 16" fill="none" xmlns="http://www.w3.org/2000/svg">
<path fill-rule="evenodd" clip-rule="evenodd" d="M3.69231 2C3.24348 2 2.81303 2.1783 2.49567 2.49567C2.1783 2.81303 2 3.24348 2 3.69231V12.3077C2 12.7565 2.1783 13.187 2.49567 13.5043C2.81303 13.8217 3.24348 14 3.69231 14H12.3077C12.7565 14 13.187 13.8217 13.5043 13.5043C13.8217 13.187 14 12.7565 14 12.3077V5.53846C14 5.41605 13.9514 5.29866 13.8648 5.2121L10.7879 2.13518C10.7013 2.04863 10.5839 2 10.4615 2H3.69231ZM11.2653 7.25728C11.6058 6.95867 11.6397 6.44059 11.3411 6.10011C11.0425 5.75963 10.5244 5.72569 10.1839 6.0243L6.7897 9.00114L5.80197 8.05396C5.4751 7.74051 4.95601 7.75139 4.64257 8.07826C4.32912 8.40514 4.34 8.92422 4.66687 9.23767L6.19742 10.7054C6.5045 10.9998 6.98579 11.0105 7.30565 10.73L11.2653 7.25728Z" fill="currentColor"/>
</svg>
