<svg width="16" height="17" viewBox="0 0 16 17" fill="none" xmlns="http://www.w3.org/2000/svg">
<path fill-rule="evenodd" clip-rule="evenodd" d="M4 2.70117C4.55228 2.70117 5 3.14889 5 3.70117V11.287L5.29289 10.9941C5.68342 10.6035 6.31658 10.6035 6.70711 10.9941C7.09763 11.3846 7.09763 12.0178 6.70711 12.4083L4.70711 14.4083C4.31658 14.7988 3.68342 14.7988 3.29289 14.4083L1.29289 12.4083C0.902369 12.0178 0.902369 11.3846 1.29289 10.9941C1.68342 10.6035 2.31658 10.6035 2.70711 10.9941L3 11.287V3.70117C3 3.14889 3.44772 2.70117 4 2.70117ZM8 3.70117C8 3.14889 8.44772 2.70117 9 2.70117H14C14.5523 2.70117 15 3.14889 15 3.70117C15 4.25346 14.5523 4.70117 14 4.70117H9C8.44772 4.70117 8 4.25346 8 3.70117ZM8 7.70117C8 7.14889 8.44772 6.70117 9 6.70117H12.5C13.0523 6.70117 13.5 7.14889 13.5 7.70117C13.5 8.25346 13.0523 8.70117 12.5 8.70117H9C8.44772 8.70117 8 8.25346 8 7.70117ZM8 11.7012C8 11.1489 8.44772 10.7012 9 10.7012H11C11.5523 10.7012 12 11.1489 12 11.7012C12 12.2535 11.5523 12.7012 11 12.7012H9C8.44772 12.7012 8 12.2535 8 11.7012Z" fill="currentColor"/>
</svg>
