<svg width="16" height="16" viewBox="0 0 16 16" fill="none" xmlns="http://www.w3.org/2000/svg">
<path fill-rule="evenodd" clip-rule="evenodd" d="M7.99954 2C8.31736 2 8.60762 2.18042 8.74829 2.46541L10.2321 5.47147L13.5504 5.95649C13.8649 6.00245 14.126 6.22289 14.224 6.52517C14.322 6.82745 14.2399 7.15915 14.0123 7.38087L11.6118 9.71891L12.1783 13.022C12.2321 13.3353 12.1033 13.6519 11.8461 13.8387C11.589 14.0255 11.248 14.0501 10.9667 13.9022L7.99954 12.3418L5.03236 13.9022C4.75104 14.0501 4.41012 14.0255 4.15295 13.8387C3.89579 13.6519 3.767 13.3353 3.82073 13.022L4.38724 9.71891L1.98679 7.38087C1.75916 7.15915 1.6771 6.82745 1.77511 6.52517C1.87312 6.22289 2.13421 6.00245 2.44863 5.95649L5.76697 5.47147L7.25079 2.46541C7.39146 2.18042 7.68172 2 7.99954 2ZM7.99954 4.72148L7.07038 6.60386C6.94885 6.85006 6.71406 7.02078 6.44239 7.06049L4.36332 7.36438L5.86708 8.82903C6.06403 9.02086 6.15393 9.29736 6.10745 9.56834L5.75274 11.6365L7.61089 10.6593C7.85419 10.5313 8.14489 10.5313 8.38819 10.6593L10.2463 11.6365L9.89162 9.56834C9.84515 9.29736 9.93505 9.02086 10.132 8.82903L11.6358 7.36438L9.55669 7.06049C9.28502 7.02078 9.05023 6.85006 8.9287 6.60386L7.99954 4.72148Z" fill="currentColor"/>
</svg>
