<svg width="16" height="16" viewBox="0 0 16 16" fill="none" xmlns="http://www.w3.org/2000/svg">
<path fill-rule="evenodd" clip-rule="evenodd" d="M8 2.00195C8.30437 2.00195 8.58234 2.18237 8.71706 2.46736L10.1381 5.47342L13.316 5.95844C13.6171 6.0044 13.8671 6.22485 13.961 6.52712C14.0549 6.8294 13.9763 7.16111 13.7583 7.38282L11.4594 9.72086L12.0019 13.0239C12.0534 13.3372 11.9301 13.6538 11.6838 13.8406C11.4375 14.0275 11.111 14.0521 10.8416 13.9041L8 12.3437L5.15841 13.9041C4.88899 14.0521 4.56249 14.0275 4.31622 13.8406C4.06994 13.6538 3.9466 13.3372 3.99805 13.0239L4.54059 9.72086L2.24173 7.38282C2.02373 7.16111 1.94515 6.8294 2.03901 6.52712C2.13287 6.22485 2.38291 6.0044 2.68403 5.95844L5.86192 5.47342L7.28294 2.46736C7.41766 2.18237 7.69563 2.00195 8 2.00195ZM8 4.72343L7.11016 6.60581C6.99378 6.85201 6.76893 7.02273 6.50876 7.06244L4.51768 7.36633L5.95779 8.83098C6.14641 9.02282 6.2325 9.29931 6.18799 9.57029L5.8483 11.6384L7.6278 10.6612C7.8608 10.5333 8.1392 10.5333 8.3722 10.6612L10.1517 11.6384L9.81201 9.57029C9.7675 9.29931 9.85359 9.02282 10.0422 8.83098L11.4823 7.36633L9.49124 7.06244C9.23107 7.02273 9.00622 6.85201 8.88984 6.60581L8 4.72343Z" fill="currentColor"/>
</svg>
