<svg width="17" height="16" viewBox="0 0 17 16" fill="none" xmlns="http://www.w3.org/2000/svg">
<path d="M11.247 5.93658C10.907 7.03585 9.85619 7.83681 8.61261 7.83681C7.09383 7.83681 5.86261 6.64213 5.86261 5.16841C5.86261 3.69469 7.09383 2.5 8.61261 2.5C9.92879 2.5 11.029 3.39721 11.2991 4.5957H12.4561C13.0845 4.5957 13.6875 5.09583 13.616 5.80782C13.5599 6.36645 13.3769 7.3142 12.7666 8.17228C12.1353 9.05968 11.082 9.79891 9.4135 9.94573L9.2887 8.61034C10.5432 8.49995 11.2279 7.97486 11.6293 7.41059C11.9768 6.92205 12.136 6.36735 12.2065 5.93658H11.247Z" fill="currentColor"/>
<path d="M14.1133 12.1658V12.5C14.1133 13.0523 13.6656 13.5 13.1133 13.5H4.11328C3.561 13.5 3.11328 13.0523 3.11328 12.5V12.1658C3.11328 11.4581 3.40301 10.7794 3.91874 10.2789C4.46045 9.75331 4.857 9.92532 5.53388 10.2189C6.18066 10.4995 7.08339 10.891 8.61328 10.891C10.1432 10.891 11.0459 10.4995 11.6927 10.2189C12.3696 9.92532 12.7661 9.75331 13.3078 10.2789C13.8236 10.7794 14.1133 11.4581 14.1133 12.1658Z" fill="currentColor"/>
</svg>
