<svg width="17" height="16" viewBox="0 0 17 16" fill="none" xmlns="http://www.w3.org/2000/svg">
<path fill-rule="evenodd" clip-rule="evenodd" d="M8.77539 3.53924C11.3285 3.53924 13.3982 5.60894 13.3982 8.16205C13.3982 10.7152 11.3285 12.7849 8.77539 12.7849C6.22228 12.7849 4.15258 10.7152 4.15258 8.16205C4.15258 5.60894 6.22228 3.53924 8.77539 3.53924ZM14.7754 8.16205C14.7754 4.84834 12.0891 2.16205 8.77539 2.16205C5.46168 2.16205 2.77539 4.84834 2.77539 8.16205C2.77539 11.4758 5.46168 14.162 8.77539 14.162C12.0891 14.162 14.7754 11.4758 14.7754 8.16205Z" fill="currentColor"/>
<path d="M8.77196 5.18905C8.29801 5.18905 7.91379 5.57327 7.91379 6.04723C7.91379 6.52118 8.29801 6.9054 8.77196 6.9054H8.77882C9.25277 6.9054 9.63699 6.52118 9.63699 6.04723C9.63699 5.57327 9.25277 5.18905 8.77882 5.18905H8.77196Z" fill="currentColor"/>
<path d="M9.63062 8.4502C9.63062 7.97624 9.2464 7.59202 8.77245 7.59202C8.29849 7.59202 7.91427 7.97624 7.91427 8.4502L7.91427 10.2769C7.91427 10.7508 8.29849 11.135 8.77245 11.135C9.2464 11.135 9.63062 10.7508 9.63062 10.2769L9.63062 8.4502Z" fill="currentColor"/>
</svg>
