<svg width="16" height="16" viewBox="0 0 16 16" fill="none" xmlns="http://www.w3.org/2000/svg">
<path d="M2.67519 2C2.30229 2 2 2.29968 2 2.66935C2 3.03902 2.30229 3.33869 2.67519 3.33869H3.41703L4.79989 10.8761C4.44948 11.2061 4.23101 11.6724 4.23101 12.1893C4.23101 13.1893 5.04877 14 6.05754 14C7.0663 14 7.88407 13.1893 7.88407 12.1893C7.88407 12.0274 7.86264 11.8705 7.82243 11.7211H9.78896C9.74876 11.8705 9.72733 12.0274 9.72733 12.1893C9.72733 13.1893 10.5451 14 11.5539 14C12.5626 14 13.3804 13.1893 13.3804 12.1893C13.3804 11.1892 12.5626 10.3785 11.5539 10.3785C11.5133 10.3785 11.473 10.3798 11.4331 10.3824H6.17829C6.14613 10.3804 6.11374 10.3791 6.08115 10.3787L5.87492 9.25463H11.7859C12.1386 9.25534 12.4895 9.14536 12.7763 8.93101C13.0645 8.71567 13.2749 8.40346 13.348 8.03955L13.3483 8.03809L13.985 4.9112C14.0299 4.69093 13.9727 4.46233 13.8291 4.28842C13.6856 4.11451 13.4709 4.01366 13.2442 4.01366H4.91339L4.70871 2.89802L4.70841 2.89639C4.66333 2.64709 4.53196 2.42115 4.3369 2.25753C4.14141 2.09355 3.89426 2.00243 3.63819 2H2.67519Z" fill="currentColor"/>
</svg>
