<svg width="16" height="17" viewBox="0 0 16 17" fill="none" xmlns="http://www.w3.org/2000/svg">
<path d="M2.67519 2.39844C2.30229 2.39844 2 2.69811 2 3.06778C2 3.43745 2.30229 3.73713 2.67519 3.73713H3.41703L4.79989 11.2746C4.44948 11.6045 4.23101 12.0708 4.23101 12.5877C4.23101 13.5877 5.04877 14.3984 6.05754 14.3984C7.0663 14.3984 7.88407 13.5877 7.88407 12.5877C7.88407 12.4258 7.86264 12.2689 7.82243 12.1196H9.78896C9.74876 12.2689 9.72733 12.4258 9.72733 12.5877C9.72733 13.5877 10.5451 14.3984 11.5539 14.3984C12.5626 14.3984 13.3804 13.5877 13.3804 12.5877C13.3804 11.5877 12.5626 10.777 11.5539 10.777C11.5133 10.777 11.473 10.7783 11.4331 10.7809H6.17829C6.14613 10.7788 6.11374 10.7775 6.08115 10.7771L5.87492 9.65307H11.7859C12.1386 9.65378 12.4895 9.5438 12.7763 9.32945C13.0645 9.11411 13.2749 8.8019 13.348 8.43798L13.3483 8.43653L13.985 5.30963C14.0299 5.08936 13.9727 4.86077 13.8291 4.68686C13.6856 4.51295 13.4709 4.4121 13.2442 4.4121H4.91339L4.70871 3.29645L4.70841 3.29483C4.66333 3.04553 4.53196 2.81959 4.3369 2.65596C4.14141 2.49198 3.89426 2.40087 3.63819 2.39844H2.67519Z" fill="currentColor"/>
</svg>
