<svg width="16" height="16" viewBox="0 0 16 16" fill="none" xmlns="http://www.w3.org/2000/svg">
<path fill-rule="evenodd" clip-rule="evenodd" d="M3 1.99805C1.89543 1.99805 1 2.89348 1 3.99805V12.002C1 13.1065 1.89543 14.002 3 14.002H12C13.1046 14.002 14 13.1065 14 12.002V3.99805C14 2.89348 13.1046 1.99805 12 1.99805H3ZM2.83008 4.00008C2.83008 3.63005 3.13005 3.33008 3.50008 3.33008H4.00008C4.37011 3.33008 4.67008 3.63005 4.67008 4.00008C4.67008 4.37011 4.37011 4.67008 4.00008 4.67008H3.50008C3.13005 4.67008 2.83008 4.37011 2.83008 4.00008ZM8.50008 7.83008C8.13005 7.83008 7.83008 8.13005 7.83008 8.50008C7.83008 8.87011 8.13005 9.17008 8.50008 9.17008H11.5001C11.8701 9.17008 12.1701 8.87011 12.1701 8.50008C12.1701 8.13005 11.8701 7.83008 11.5001 7.83008H8.50008ZM8.50008 10.3301C8.13005 10.3301 7.83008 10.63 7.83008 11.0001C7.83008 11.3701 8.13005 11.6701 8.50008 11.6701H11.5001C11.8701 11.6701 12.1701 11.3701 12.1701 11.0001C12.1701 10.63 11.8701 10.3301 11.5001 10.3301H8.50008ZM6.00008 3.33008C5.63005 3.33008 5.33008 3.63005 5.33008 4.00008C5.33008 4.37011 5.63005 4.67008 6.00008 4.67008H6.50008C6.87011 4.67008 7.17008 4.37011 7.17008 4.00008C7.17008 3.63005 6.87011 3.33008 6.50008 3.33008H6.00008ZM3.00008 8.50008C3.00008 7.94779 3.44779 7.50008 4.00008 7.50008H5.00008C5.55236 7.50008 6.00008 7.94779 6.00008 8.50008V11.0001C6.00008 11.5524 5.55236 12.0001 5.00008 12.0001H4.00008C3.44779 12.0001 3.00008 11.5524 3.00008 11.0001V8.50008Z" fill="currentColor"/>
</svg>
