<svg width="16" height="17" viewBox="0 0 16 17" fill="none" xmlns="http://www.w3.org/2000/svg">
<path fill-rule="evenodd" clip-rule="evenodd" d="M9.08247 2.40186C9.63475 2.40186 10.0825 2.84957 10.0825 3.40186V13.3994C10.0825 13.9517 9.63475 14.3994 9.08247 14.3994H3C2.44772 14.3994 2 13.9517 2 13.3994V3.40186C2 2.84957 2.44772 2.40186 3 2.40186H9.08247ZM3.44871 12.6377C3.33825 12.6377 3.24871 12.5481 3.24871 12.4377V10.8377C3.24871 10.7272 3.33825 10.6377 3.44871 10.6377H5.02806C5.13852 10.6377 5.22806 10.7272 5.22806 10.8377V12.4377C5.22806 12.5481 5.13852 12.6377 5.02806 12.6377H3.44871ZM3.44871 9.39939C3.33825 9.39939 3.24871 9.30985 3.24871 9.19939V7.59939C3.24871 7.48894 3.33825 7.39939 3.44871 7.39939H5.02806C5.13852 7.39939 5.22806 7.48894 5.22806 7.59939V9.19939C5.22806 9.30985 5.13852 9.39939 5.02806 9.39939H3.44871ZM3.24871 5.96307C3.24871 6.07352 3.33825 6.16307 3.44871 6.16307H5.02806C5.13852 6.16307 5.22806 6.07352 5.22806 5.96307V4.36307C5.22806 4.25261 5.13852 4.16307 5.02806 4.16307H3.44871C3.33825 4.16307 3.24871 4.25261 3.24871 4.36307V5.96307ZM7.05531 12.6377C6.94485 12.6377 6.85531 12.5481 6.85531 12.4377V10.8377C6.85531 10.7272 6.94485 10.6377 7.05531 10.6377H8.63466C8.74512 10.6377 8.83466 10.7272 8.83466 10.8377V12.4377C8.83466 12.5481 8.74512 12.6377 8.63466 12.6377H7.05531ZM6.85531 9.19939C6.85531 9.30985 6.94485 9.39939 7.05531 9.39939H8.63466C8.74512 9.39939 8.83466 9.30985 8.83466 9.19939V7.59939C8.83466 7.48894 8.74512 7.39939 8.63466 7.39939H7.05531C6.94485 7.39939 6.85531 7.48894 6.85531 7.59939V9.19939ZM7.05531 6.16307C6.94485 6.16307 6.85531 6.07352 6.85531 5.96307V4.36307C6.85531 4.25261 6.94485 4.16307 7.05531 4.16307H8.63466C8.74512 4.16307 8.83466 4.25261 8.83466 4.36307V5.96307C8.83466 6.07352 8.74512 6.16307 8.63466 6.16307H7.05531Z" fill="currentColor"/>
<path d="M12.4981 4.39939H10.9415C10.831 4.39939 10.7415 4.48894 10.7415 4.59939V5.19939C10.7415 5.30985 10.831 5.39939 10.9415 5.39939H12.4981C12.7743 5.39939 12.9981 5.62325 12.9981 5.89939V12.8994C12.9981 13.1755 12.7743 13.3994 12.4981 13.3994H10.9415C10.831 13.3994 10.7415 13.4889 10.7415 13.5994V14.1994C10.7415 14.3099 10.831 14.3994 10.9415 14.3994H12.4981C13.3266 14.3994 13.9981 13.7278 13.9981 12.8994V5.89939C13.9981 5.07097 13.3266 4.39939 12.4981 4.39939Z" fill="currentColor"/>
<path d="M11.8454 6.7501H10.9415C10.831 6.7501 10.7415 6.83964 10.7415 6.9501V8.57135C10.7415 8.68181 10.831 8.77135 10.9415 8.77135H11.8454C11.9571 8.77135 12.0476 8.68085 12.0476 8.56922V6.95222C12.0476 6.84059 11.9571 6.7501 11.8454 6.7501Z" fill="currentColor"/>
<path d="M11.8454 10.047H10.9415C10.831 10.047 10.7415 10.1365 10.7415 10.247V11.8682C10.7415 11.9787 10.831 12.0682 10.9415 12.0682H11.8454C11.9571 12.0682 12.0476 11.9777 12.0476 11.8661V10.2491C12.0476 10.1375 11.9571 10.047 11.8454 10.047Z" fill="currentColor"/>
</svg>
