<svg width="16" height="16" viewBox="0 0 16 16" fill="none" xmlns="http://www.w3.org/2000/svg">
	<path d="M12.1076 4.77935L12.1076 10.9558C12.1076 11.9748 11.7028 12.952 10.9823 13.6725C10.2618 14.393 9.28461 14.7977 8.26567 14.7977C7.24674 14.7977 6.26954 14.393 5.54904 13.6725C4.82855 12.952 4.42378 11.9748 4.42378 10.9558L4.42378 4.77935C4.42378 4.10006 4.69362 3.44859 5.17395 2.96826C5.65428 2.48793 6.30575 2.21808 6.98504 2.21808C7.66433 2.21808 8.3158 2.48793 8.79613 2.96826C9.27646 3.44859 9.54631 4.10006 9.54631 4.77935L9.54178 10.9603C9.54178 11.3 9.40686 11.6257 9.16669 11.8659C8.92653 12.1061 8.60079 12.241 8.26115 12.241C7.9215 12.241 7.59577 12.1061 7.3556 11.8659C7.11544 11.6257 6.98052 11.3 6.98052 10.9603L6.98504 5.42192" stroke="currentColor" stroke-linecap="square" stroke-linejoin="round"/>
</svg>
