<svg xmlns="http://www.w3.org/2000/svg" width="16" height="16" viewBox="0 0 16 16">
  <g transform="translate(387.197 -811.635)">
    <path d="M-385.2,823.635c0-4.443,1.967-1,1.967-5.881,0-2.659.479-4.026,2.208-4.026a1.517,1.517,0,0,0,.782-.417v-1.676h1.986v1.676a1.512,1.512,0,0,0,.782.417c1.729,0,2.195,1.368,2.195,4.026,0,5.233,2.081,1.438,2.081,5.881Z" transform="translate(0.5 0.5)" fill="none" stroke="currentColor" stroke-width="1"/>
    <g transform="translate(0.479 -0.461)" fill="none">
      <path d="M-377.676,826.1c0,.973-.715,2-1.446,2s-1.554-1.027-1.554-2Z" stroke="none"/>
      <path d="M -380.6760559082031 826.0960693359375 L -377.6760559082031 826.0960693359375 C -377.6760559082031 827.06884765625 -378.391357421875 828.0960693359375 -379.1218872070312 828.0960693359375 C -379.8513793945312 828.0960693359375 -380.6760559082031 827.06884765625 -380.6760559082031 826.0960693359375 Z" stroke="none" fill="currentColor"/>
    </g>
  </g>
  <rect width="16" height="16" fill="none"/>
</svg>
