<svg width="16" height="16" viewBox="0 0 16 16" fill="none" xmlns="http://www.w3.org/2000/svg">
<path d="M14.943 11.797C16.304 12.897 14.817 14.263 14.215 14.98C13.759 15.517 13.187 16.156 9.17197 13.948C7.73224 13.121 6.39989 12.1198 5.20499 10.967C5.17899 10.938 5.06299 10.823 5.03599 10.793C3.88345 9.59641 2.8823 8.26275 2.055 6.822C-0.151002 2.804 0.486992 2.23104 1.02399 1.77604C1.73899 1.16504 3.07099 -0.285002 4.20499 1.046C6.09599 3.269 6.28197 4.319 5.58597 4.861C5.37205 5.0455 5.1774 5.25124 5.00498 5.47501C4.26898 6.20901 4.443 7.47505 6.197 9.22605L6.50397 9.59299C7.80397 10.893 9.52999 11.599 10.265 10.863C10.504 10.622 10.597 10.384 10.927 10.053C11.565 9.40902 12.249 9.62404 14.943 11.797Z" stroke="currentColor" stroke-miterlimit="10"/>
</svg>
