<svg width="14" height="15" viewBox="0 0 14 15" fill="none" xmlns="http://www.w3.org/2000/svg">
<path d="M8.99999 4.05707L3.49999 9.49106C3.24344 9.76079 3.10037 10.1188 3.10037 10.4911C3.10037 10.8633 3.24344 11.2213 3.49999 11.4911C3.76983 11.7474 4.1278 11.8903 4.49999 11.8903C4.87217 11.8903 5.23014 11.7474 5.49999 11.4911L12.074 5.00006C12.4536 4.59281 12.6646 4.05678 12.6646 3.50006C12.6646 2.94334 12.4536 2.40732 12.074 2.00006C11.6667 1.62048 11.1307 1.40942 10.574 1.40942C10.0173 1.40942 9.48125 1.62048 9.07399 2.00006L1.592 9.55109C1.27549 10.0852 1.13652 10.706 1.1951 11.3241C1.25368 11.9422 1.50677 12.5259 1.91799 12.9911C2.15766 13.3049 2.4665 13.5593 2.82048 13.7344C3.17447 13.9095 3.56407 14.0006 3.95899 14.0006C4.3539 14.0006 4.7435 13.9095 5.09749 13.7344C5.45148 13.5593 5.76031 13.3049 5.99999 12.9911C7.20899 11.7821 12 7.00006 12 7.00006" stroke="currentColor" stroke-miterlimit="10"/>
</svg>
