<svg width="16" height="17" viewBox="0 0 16 17" fill="none" xmlns="http://www.w3.org/2000/svg">
<path d="M4.80737 14.2046C5.22894 14.0786 5.61859 14.039 5.94226 14.039C6.10547 14.039 6.25537 14.0491 6.38892 14.0645L14.5857 5.867L13.1437 4.42538L4.95258 12.6171C5.00537 13.0684 4.98346 13.6213 4.80737 14.2046ZM3.71484 16.0112C3.42413 15.7214 3.30188 15.5992 3 15.2973C4.42975 13.8694 3.8623 12.2932 3.8623 12.2932L13.1436 3.01123L16 5.86688L6.71771 15.1499C6.71777 15.1498 5.14355 14.5834 3.71484 16.0112Z" fill="currentColor"/>
<path d="M11 6.01074L13 8.01074" stroke="currentColor"/>
<path d="M3.66014 15.5107H0.5V0.510742H15.5V3.12076" stroke="currentColor"/>
</svg>
