<svg xmlns="http://www.w3.org/2000/svg" width="16" height="16" viewBox="0 0 16 16">
  <path d="M-248.99,857.45h5.555a.8.8,0,0,1,.789.8v10.4a.8.8,0,0,1-.789.8h-13.421a.8.8,0,0,1-.789-.8v-10.4a.8.8,0,0,1,.789-.8h5.483" transform="translate(258.146 -853.95)" fill="none" stroke="currentColor" stroke-width="1"/>
  <path d="M-251.446,861.35a1.5,1.5,0,0,1-1.5,1.5,1.5,1.5,0,0,1-1.5-1.5,1.5,1.5,0,0,1,1.5-1.5A1.5,1.5,0,0,1-251.446,861.35Z" transform="translate(257.946 -853.35)" fill="none" stroke="currentColor" stroke-width="1"/>
  <path d="M-250.246,866.85h-5a2.784,2.784,0,0,1,2.5-3A2.784,2.784,0,0,1-250.246,866.85Z" transform="translate(257.746 -854.35)" fill="none" stroke="currentColor" stroke-width="1"/>
  <rect width="5" height="1" transform="translate(9 6)" fill="currentColor"/>
  <rect width="5" height="1" transform="translate(9 8)" fill="currentColor"/>
  <rect width="5" height="1" transform="translate(9 10)" fill="currentColor"/>
  <rect width="3.2" height="1" transform="translate(9 12)" fill="currentColor"/>
  <g transform="translate(257.446 -854.65)" fill="none">
    <path d="M-248.447,859.65h-2l-2-5h6Z" stroke="none"/>
    <path d="M -249.1237335205078 858.650390625 L -247.9234924316406 855.650390625 L -250.9691925048828 855.650390625 L -249.7689208984375 858.650390625 L -249.1237335205078 858.650390625 M -248.4467468261719 859.650390625 L -250.4458923339844 859.650390625 L -252.4463500976562 854.650390625 L -246.4463500976562 854.650390625 L -248.4467468261719 859.650390625 Z" stroke="none" fill="currentColor"/>
  </g>
  <rect width="16" height="16" fill="none"/>
</svg>
