<svg id="Component_5489_10" data-name="Component 5489 – 10" xmlns="http://www.w3.org/2000/svg" width="16" height="16" viewBox="0 0 16 16">
  <path id="Subtraction_1013" data-name="Subtraction 1013" d="M1422.268-109.33h-.208a7.417,7.417,0,0,1-2.125-.3,7.126,7.126,0,0,1-1.906-.844,7.711,7.711,0,0,1-1.606-1.359,7.848,7.848,0,0,1-1.247-1.805l-.115-.187.115-.211a7.56,7.56,0,0,1,1.247-1.758,8.221,8.221,0,0,1,.856-.8l.735.735a6.43,6.43,0,0,0-1.661,2.034,5.727,5.727,0,0,0,2.437,2.532,7.813,7.813,0,0,0,3.477.96,7.38,7.38,0,0,0,1.18-.093l.835.835A7.67,7.67,0,0,1,1422.268-109.33Zm4.787-1.736h0l-.646-.646a6.561,6.561,0,0,0,1.775-2.117,6.627,6.627,0,0,0-1.086-1.453,6.967,6.967,0,0,0-1.386-1.09,7.05,7.05,0,0,0-1.64-.715,6.376,6.376,0,0,0-1.519-.251,2.683,2.683,0,0,1,1.83.9,2.991,2.991,0,0,1,.843,2.1v.117a2.753,2.753,0,0,1-.223,1.109h0l-3.973-3.973.052-.022.022-.009a3.17,3.17,0,0,1,1.166-.222c.094,0,.189,0,.284.006-.063,0-.127-.006-.191-.006h-.093a6.964,6.964,0,0,0-1.36.132l-.838-.838a7.225,7.225,0,0,1,1.99-.279,7.629,7.629,0,0,1,2.149.305,7.815,7.815,0,0,1,1.94.867,7.563,7.563,0,0,1,1.617,1.36,7.391,7.391,0,0,1,1.2,1.758l.093.211-.093.187a7,7,0,0,1-1.085,1.782,7.62,7.62,0,0,1-.827.794Zm-4.787-.279h-.092a2.672,2.672,0,0,1-2.033-.9,3.012,3.012,0,0,1-.832-2.1v-.221l3.212,3.212C1422.429-111.348,1422.346-111.345,1422.268-111.345Z" transform="translate(-1414.061 121.939)" fill="currentColor"/>
  <rect id="Rectangle_44636" data-name="Rectangle 44636" width="16" height="16" fill="none"/>
  <path id="Path_11999" data-name="Path 11999" d="M768,8279l12,12" transform="translate(-766 -8277)" fill="none" stroke="currentColor" stroke-width="1"/>
</svg>
