<svg width="16" height="17" viewBox="0 0 16 17" fill="none" xmlns="http://www.w3.org/2000/svg">
<path d="M8 4.20797C7.7345 3.76615 7.37428 3.38777 6.9445 3.1006C6.46592 2.78083 5.91587 2.58401 5.34306 2.5276C4.77025 2.47118 4.19237 2.5569 3.66061 2.77716C3.12884 2.99743 2.65961 3.34544 2.29446 3.79037C1.92932 4.23529 1.67954 4.76341 1.56725 5.32793C1.45496 5.89245 1.48363 6.47595 1.65071 7.02674C1.81779 7.57753 2.11813 8.07862 2.52513 8.48562L7.64645 13.6069L8 13.9605L8.35355 13.6069L13.4749 8.48562C13.8819 8.07862 14.1822 7.57753 14.3493 7.02674C14.5164 6.47594 14.545 5.89245 14.4327 5.32793C14.3205 4.76341 14.0707 4.23529 13.7055 3.79037C13.3404 3.34544 12.8712 2.99743 12.3394 2.77716C11.8076 2.5569 11.2297 2.47118 10.6569 2.5276C10.0841 2.58401 9.53408 2.78083 9.0555 3.1006C8.62572 3.38777 8.2655 3.76615 8 4.20797Z" fill="currentColor"/>
</svg>
