<svg width="16" height="17" viewBox="0 0 16 17" fill="none" xmlns="http://www.w3.org/2000/svg">
<path d="M8 6.01074C8 5.51739 7.87833 5.03165 7.64576 4.59655C7.4132 4.16145 7.07692 3.79043 6.66671 3.51633C6.2565 3.24224 5.78503 3.07355 5.29405 3.02519C4.80307 2.97683 4.30775 3.05031 3.85195 3.2391C3.39615 3.4279 2.99395 3.7262 2.68097 4.10756C2.36799 4.48893 2.15389 4.9416 2.05764 5.42547C1.9614 5.90935 1.98597 6.40949 2.12918 6.8816C2.27239 7.35371 2.52983 7.78321 2.87868 8.13206L8 13.2534L13.1213 8.13206" stroke="currentColor"/>
<path d="M8 6.01074C8 5.51739 8.12167 5.03165 8.35424 4.59655C8.5868 4.16145 8.92308 3.79043 9.33329 3.51633C9.7435 3.24224 10.215 3.07355 10.7059 3.02519C11.1969 2.97683 11.6923 3.05031 12.148 3.2391C12.6038 3.4279 13.0061 3.7262 13.319 4.10756C13.632 4.48893 13.8461 4.9416 13.9424 5.42547C14.0386 5.90934 14.014 6.40949 13.8708 6.8816C13.7276 7.35371 13.4702 7.78321 13.1213 8.13206" stroke="currentColor"/>
</svg>
