<svg id="Component_5493_1" data-name="Component 5493 – 1" xmlns="http://www.w3.org/2000/svg" width="16" height="16" viewBox="0 0 16 16">
  <g id="Path_1" data-name="Path 1" transform="translate(-590.943 -1855.995) rotate(30)" fill="none" stroke-miterlimit="10">
    <path d="M1455.264,1317.911h-9v-1l2-3v-4h-1v-1h7v1h-1v4l2,3Z" stroke="none"/>
    <path d="M 1454.061279296875 1316.911010742188 L 1452.262939453125 1314.213500976562 L 1452.262939453125 1309.911010742188 L 1449.26318359375 1309.911010742188 L 1449.26318359375 1314.21337890625 L 1447.4658203125 1316.911010742188 L 1454.061279296875 1316.911010742188 M 1455.263671875 1317.911010742188 L 1446.263671875 1317.911010742188 L 1446.263671875 1316.911743164062 L 1448.26318359375 1313.910766601562 L 1448.26318359375 1309.910400390625 L 1447.262939453125 1309.910400390625 L 1447.262939453125 1308.911010742188 L 1454.26318359375 1308.911010742188 L 1454.26318359375 1309.910400390625 L 1453.262939453125 1309.910400390625 L 1453.262939453125 1313.910766601562 L 1455.263671875 1316.911743164062 L 1455.263671875 1317.911010742188 Z" stroke="none" fill="currentColor"/>
  </g>
  <path id="Path_3" data-name="Path 3" d="M1452.465,1317.284v5" transform="translate(-592.729 -1856.302) rotate(30)" fill="none" stroke="currentColor" stroke-width="1"/>
  <rect id="Rectangle_2" data-name="Rectangle 2" width="16" height="16" fill="none"/>
</svg>
