<svg xmlns="http://www.w3.org/2000/svg" width="16" height="16">
  <g>
    <path d="M10 11.5 6 10v3l4-1.5" fill="currentColor"/>
    <g fill="none" stroke="currentColor">
      <path d="M.5.5h8v8h-8Z"/>
      <path d="M8 3.5h7.5v12h-10V14"/>
      <path d="m3 7 3-5"/>
      <path d="m3 2 3 5"/>
    </g>
    <g fill="currentColor">
      <path d="M10 6h4v1h-4Z"/>
      <path d="M10 8h4v1h-4Z"/>
      <path d="M11 10h3v1h-3Z"/>
      <path d="M11 12h3v1h-3Z"/>
    </g>
    <path d="M3.5 9v.5a2.007 2.007 0 0 0 2 2H6" fill="none" stroke="currentColor"/>
    <path fill="none" d="M0 0h16v16H0z"/>
  </g>
</svg>
