<svg width="16" height="16" viewBox="0 0 16 16" fill="none" xmlns="http://www.w3.org/2000/svg">
<path d="M4.54952 13.1508V2.73169C4.54952 2.63552 4.47046 2.55003 4.36881 2.53934L3.70243 2.45385C3.64596 2.44317 3.57819 2.46454 3.53301 2.4966C3.48784 2.52866 3.46525 2.58209 3.45395 2.6462V13.2362C3.45395 13.2897 3.47654 13.3431 3.52172 13.3859C3.5669 13.4179 3.62337 13.4393 3.69114 13.4286L4.35752 13.3324C4.47046 13.3324 4.54952 13.2469 4.54952 13.1508ZM2.58427 12.1676V3.6614C2.58427 3.56522 2.50521 3.47973 2.39227 3.46904L1.72589 3.40493C1.66942 3.39424 1.61295 3.41561 1.56777 3.44767C1.52259 3.47973 1.5 3.53316 1.5 3.59728V12.2424C1.5 12.2959 1.52259 12.3493 1.56777 12.392C1.61295 12.4241 1.66942 12.4455 1.72589 12.4348L2.39227 12.36C2.50521 12.3493 2.58427 12.2745 2.58427 12.1676ZM14.3306 2.81718L5.66768 1.50278C5.61121 1.49209 5.54344 1.51347 5.49826 1.54553C5.45308 1.57758 5.4192 1.63101 5.4192 1.69513V14.3049C5.4192 14.3583 5.45308 14.4117 5.49826 14.4545C5.54344 14.4865 5.61121 14.5079 5.66768 14.4972L14.3306 13.076C14.4322 13.0653 14.5 12.9798 14.5 12.8836V2.99885C14.5 2.91336 14.4322 2.82787 14.3306 2.81718ZM13.4044 11.986C13.4044 12.0821 13.3254 12.1676 13.2237 12.1783L7.11338 12.9905C7.05691 13.0012 6.98914 12.9798 6.94396 12.9477C6.89878 12.9157 6.87619 12.8622 6.87619 12.7981V3.33012C6.87619 3.27669 6.89878 3.22326 6.94396 3.18052C6.98914 3.14846 7.04561 3.12709 7.10209 3.13777L13.2124 3.84306C13.3141 3.85375 13.3931 3.93924 13.3931 4.03541L13.4044 11.986Z" fill="#0D2E4E"/>
</svg>
