<svg width="16" height="16" viewBox="0 0 16 16" fill="none" xmlns="http://www.w3.org/2000/svg">
<mask id="path-1-inside-1_4832_50662" fill="white">
<path fill-rule="evenodd" clip-rule="evenodd" d="M15 8C15 11.866 11.866 15 8 15C4.13401 15 1 11.866 1 8C1 4.13401 4.13401 1 8 1C11.866 1 15 4.13401 15 8ZM8 8.70711L5.32279 11.3843L4.61568 10.6772L7.29289 8L4.61568 5.32279L5.32279 4.61568L8 7.29289L10.6772 4.61568L11.3843 5.32279L8.70711 8L11.3843 10.6772L10.6772 11.3843L8 8.70711Z"/>
</mask>
<path fill-rule="evenodd" clip-rule="evenodd" d="M15 8C15 11.866 11.866 15 8 15C4.13401 15 1 11.866 1 8C1 4.13401 4.13401 1 8 1C11.866 1 15 4.13401 15 8ZM8 8.70711L5.32279 11.3843L4.61568 10.6772L7.29289 8L4.61568 5.32279L5.32279 4.61568L8 7.29289L10.6772 4.61568L11.3843 5.32279L8.70711 8L11.3843 10.6772L10.6772 11.3843L8 8.70711Z" fill="#0D2E4E"/>
<path d="M5.32279 11.3843L4.61568 12.0914L5.32279 12.7985L6.0299 12.0914L5.32279 11.3843ZM8 8.70711L8.70711 8L8 7.29289L7.29289 8L8 8.70711ZM4.61568 10.6772L3.90858 9.9701L3.20147 10.6772L3.90858 11.3843L4.61568 10.6772ZM7.29289 8L8 8.70711L8.70711 8L8 7.29289L7.29289 8ZM4.61568 5.32279L3.90858 4.61568L3.20147 5.32279L3.90858 6.0299L4.61568 5.32279ZM5.32279 4.61568L6.0299 3.90858L5.32279 3.20147L4.61568 3.90858L5.32279 4.61568ZM8 7.29289L7.29289 8L8 8.70711L8.70711 8L8 7.29289ZM10.6772 4.61568L11.3843 3.90858L10.6772 3.20147L9.9701 3.90858L10.6772 4.61568ZM11.3843 5.32279L12.0914 6.0299L12.7985 5.32279L12.0914 4.61568L11.3843 5.32279ZM8.70711 8L8 7.29289L7.29289 8L8 8.70711L8.70711 8ZM11.3843 10.6772L12.0914 11.3843L12.7985 10.6772L12.0914 9.9701L11.3843 10.6772ZM10.6772 11.3843L9.9701 12.0914L10.6772 12.7985L11.3843 12.0914L10.6772 11.3843ZM8 16C12.4183 16 16 12.4183 16 8H14C14 11.3137 11.3137 14 8 14V16ZM0 8C0 12.4183 3.58172 16 8 16V14C4.68629 14 2 11.3137 2 8H0ZM8 0C3.58172 0 0 3.58172 0 8H2C2 4.68629 4.68629 2 8 2V0ZM16 8C16 3.58172 12.4183 0 8 0V2C11.3137 2 14 4.68629 14 8H16ZM6.0299 12.0914L8.70711 9.41421L7.29289 8L4.61568 10.6772L6.0299 12.0914ZM3.90858 11.3843L4.61568 12.0914L6.0299 10.6772L5.32279 9.9701L3.90858 11.3843ZM6.58579 7.29289L3.90858 9.9701L5.32279 11.3843L8 8.70711L6.58579 7.29289ZM8 7.29289L5.32279 4.61568L3.90858 6.0299L6.58579 8.70711L8 7.29289ZM5.32279 6.0299L6.0299 5.32279L4.61568 3.90858L3.90858 4.61568L5.32279 6.0299ZM4.61568 5.32279L7.29289 8L8.70711 6.58579L6.0299 3.90858L4.61568 5.32279ZM9.9701 3.90858L7.29289 6.58579L8.70711 8L11.3843 5.32279L9.9701 3.90858ZM12.0914 4.61568L11.3843 3.90858L9.9701 5.32279L10.6772 6.0299L12.0914 4.61568ZM9.41421 8.70711L12.0914 6.0299L10.6772 4.61568L8 7.29289L9.41421 8.70711ZM8 8.70711L10.6772 11.3843L12.0914 9.9701L9.41421 7.29289L8 8.70711ZM10.6772 9.9701L9.9701 10.6772L11.3843 12.0914L12.0914 11.3843L10.6772 9.9701ZM11.3843 10.6772L8.70711 8L7.29289 9.41421L9.9701 12.0914L11.3843 10.6772Z" fill="#0D2E4E" mask="url(#path-1-inside-1_4832_50662)"/>
</svg>
