<svg width="17" height="16" viewBox="0 0 17 16" fill="none" xmlns="http://www.w3.org/2000/svg">
<path fill-rule="evenodd" clip-rule="evenodd" d="M9.8434 3.71049L8.61763 4.93626C8.35598 5.19791 7.93176 5.19791 7.67011 4.93626C7.40846 4.67461 7.40846 4.25039 7.67011 3.98874L8.90761 2.75124C8.91492 2.74393 8.9224 2.73678 8.93004 2.72982C9.58135 2.13619 10.4363 1.81634 11.3174 1.83673C12.1984 1.85713 13.0376 2.21621 13.6608 2.83934C14.2839 3.46248 14.643 4.30175 14.6634 5.18277C14.6838 6.06378 14.3639 6.91877 13.7703 7.57008C13.7631 7.57801 13.7556 7.58577 13.748 7.59335L11.981 9.35412C11.9807 9.35444 11.9804 9.35476 11.9801 9.35508C11.6631 9.67298 11.2865 9.92524 10.872 10.0974C10.4569 10.2698 10.012 10.3585 9.56262 10.3585C9.11325 10.3585 8.66829 10.2698 8.25329 10.0974C7.83828 9.92507 7.46139 9.67247 7.14422 9.35412C6.88306 9.09198 6.88386 8.66776 7.146 8.4066C7.40814 8.14544 7.83236 8.14623 8.09352 8.40837C8.28618 8.60176 8.51513 8.75521 8.76724 8.85991C9.01934 8.96461 9.28964 9.01851 9.56262 9.01851C9.8356 9.01851 10.1059 8.96461 10.358 8.85991C10.6101 8.75521 10.8391 8.60176 11.0317 8.40837L11.0334 8.40665L12.79 6.65631C13.145 6.26114 13.336 5.74523 13.3237 5.21378C13.3113 4.67733 13.0927 4.16629 12.7133 3.78686C12.3338 3.40744 11.8228 3.18879 11.2863 3.17638C10.7547 3.16407 10.2386 3.35524 9.8434 3.71049ZM7.43762 6.98149C7.16464 6.98149 6.89434 7.03539 6.64224 7.14009C6.39013 7.24479 6.16118 7.39823 5.96852 7.59162L5.9668 7.59335L5.96679 7.59335L4.21024 9.34369C3.85523 9.73886 3.66419 10.2548 3.6765 10.7862C3.68892 11.3227 3.90756 11.8337 4.28699 12.2131C4.66642 12.5926 5.17745 12.8112 5.7139 12.8236C6.24554 12.8359 6.76162 12.6448 7.15684 12.2895L8.38261 11.0637C8.64426 10.8021 9.06848 10.8021 9.33013 11.0637C9.59178 11.3254 9.59178 11.7496 9.33013 12.0113L8.09263 13.2488C8.08532 13.2561 8.07784 13.2632 8.0702 13.2702C7.41889 13.8638 6.5639 14.1837 5.68289 14.1633C4.80188 14.1429 3.9626 13.7838 3.33946 13.1607C2.71633 12.5375 2.35725 11.6982 2.33686 10.8172C2.31646 9.93622 2.63631 9.08122 3.22994 8.42992C3.23717 8.42199 3.24459 8.41423 3.2522 8.40665L5.01922 6.64587C5.01952 6.64558 5.01981 6.64528 5.02011 6.64499C5.33708 6.32706 5.71366 6.07477 6.12829 5.90257C6.54329 5.73021 6.98825 5.64149 7.43762 5.64149C7.887 5.64149 8.33195 5.73021 8.74696 5.90257C9.16196 6.07493 9.53886 6.32752 9.85602 6.64587C10.1172 6.90801 10.1164 7.33223 9.85425 7.5934C9.59211 7.85456 9.16789 7.85376 8.90672 7.59162C8.71406 7.39823 8.48511 7.24479 8.233 7.14009C7.9809 7.03539 7.7106 6.98149 7.43762 6.98149Z" fill="#0D2E4E"/>
</svg>
