<svg width="16" height="17" viewBox="0 0 16 17" fill="none" xmlns="http://www.w3.org/2000/svg">
<path d="M8 9.01465V12.0146" stroke="currentColor"/>
<path d="M11.8889 6.51465H4.11111C3.27218 6.51465 2.5 7.13797 2.5 8.01465V13.0146C2.5 13.8913 3.27218 14.5146 4.11111 14.5146H11.8889C12.7278 14.5146 13.5 13.8913 13.5 13.0146V8.01465C13.5 7.13797 12.7278 6.51465 11.8889 6.51465Z" stroke="currentColor" stroke-miterlimit="10"/>
<mask id="path-3-outside-1_6960_310228" maskUnits="userSpaceOnUse" x="4" y="1.01465" width="8" height="5" fill="black">
<rect fill="white" x="4" y="1.01465" width="8" height="5"/>
<path d="M5 6.01465V4.01465C5 3.48422 5.25289 2.97551 5.70298 2.60043C6.15307 2.22536 6.76348 2.01465 7.4 2.01465H8.6C9.23652 2.01465 9.84693 2.22536 10.297 2.60043C10.7471 2.97551 11 3.48422 11 4.01465V6.01465"/>
</mask>
<path d="M6 6.01465V4.01465H4V6.01465H6ZM6 4.01465C6 3.81443 6.09407 3.57623 6.34316 3.36865L5.06279 1.83221C4.41171 2.37478 4 3.154 4 4.01465H6ZM6.34316 3.36865C6.59755 3.15667 6.97572 3.01465 7.4 3.01465V1.01465C6.55124 1.01465 5.70859 1.29405 5.06279 1.83221L6.34316 3.36865ZM7.4 3.01465H8.6V1.01465H7.4V3.01465ZM8.6 3.01465C9.02428 3.01465 9.40245 3.15667 9.65684 3.36865L10.9372 1.83221C10.2914 1.29405 9.44876 1.01465 8.6 1.01465V3.01465ZM9.65684 3.36865C9.90593 3.57623 10 3.81443 10 4.01465H12C12 3.154 11.5883 2.37478 10.9372 1.83221L9.65684 3.36865ZM10 4.01465V6.01465H12V4.01465H10Z" fill="currentColor" mask="url(#path-3-outside-1_6960_310228)"/>
</svg>
