<svg width="16" height="16" viewBox="0 0 16 16" fill="none" xmlns="http://www.w3.org/2000/svg">
<path fill-rule="evenodd" clip-rule="evenodd" d="M5.63221 3C5.29687 3 4.97526 3.13182 4.73814 3.36646C4.50102 3.6011 4.36781 3.91934 4.36781 4.25117V11.0435C4.36691 11.147 4.32496 11.246 4.25096 11.3192C4.17755 11.3919 4.07846 11.4333 3.97475 11.4348C3.87105 11.4333 3.77195 11.3919 3.69854 11.3192C3.62454 11.246 3.58259 11.147 3.5817 11.0435V5.65698C3.5817 5.22478 3.22762 4.87441 2.79085 4.87441C2.35408 4.87441 2.00001 5.22478 2.00001 5.65698L2 11.0459L2.00002 11.0498C2.00261 11.5662 2.21108 12.0608 2.58012 12.426C2.9483 12.7903 3.44661 12.9965 3.96718 13L3.97083 13L3.97279 13L3.97475 13H12.262C12.723 13 13.165 12.8188 13.491 12.4963C13.8169 12.1738 14 11.7363 14 11.2802V4.25117C14 3.91934 13.8668 3.6011 13.6297 3.36646C13.3925 3.13182 13.0709 3 12.7356 3H5.63221ZM7.1824 6.20151C6.83194 6.20151 6.54783 6.48265 6.54783 6.82944C6.54783 7.17624 6.83194 7.45737 7.1824 7.45737H11.4444C11.7949 7.45737 12.079 7.17624 12.079 6.82944C12.079 6.48265 11.7949 6.20151 11.4444 6.20151H7.1824ZM7.1824 8.54453C6.83194 8.54453 6.54783 8.82566 6.54783 9.17246C6.54783 9.51926 6.83194 9.80039 7.1824 9.80039H11.4444C11.7949 9.80039 12.079 9.51926 12.079 9.17246C12.079 8.82566 11.7949 8.54453 11.4444 8.54453H7.1824Z" fill="currentColor"/>
</svg>
