<svg width="20" height="20" viewBox="0 0 20 24" fill="none" xmlns="http://www.w3.org/2000/svg">
<rect x="0.00390625" y="0.523438" width="20" height="20" rx="10" fill="url(#paint0_linear_1881_205271)"/>
<path d="M14.1537 12.7958C14.9995 13.4743 14.0976 14.2674 13.7027 14.72C13.4208 15.0593 13.082 15.3985 10.6601 14.0415C9.77937 13.5695 8.98029 12.9581 8.29366 12.2306C7.56592 11.53 6.93944 10.7307 6.43232 9.8559C5.13482 7.42213 5.4735 7.02588 5.81157 6.80266C6.26255 6.40642 7.05231 5.55758 7.72911 6.35006C8.8569 7.70706 8.9698 8.33131 8.57494 8.67055C8.29299 8.84018 8.34912 8.89717 8.18009 9.0098C7.72911 9.46236 7.84201 10.1985 8.913 11.2739L9.08203 11.5005C9.87176 12.293 10.8867 12.6893 11.3383 12.293C11.4834 12.1342 11.6155 11.9638 11.7332 11.7835C12.128 11.3872 12.5229 11.5005 14.1585 12.8012" fill="white"/>
<defs>
<linearGradient id="paint0_linear_1881_205271" x1="18.8239" y1="1.80344" x2="0.923907" y2="20.5234" gradientUnits="userSpaceOnUse">
<stop stop-color="#22AC14"/>
<stop offset="1" stop-color="#0B8500"/>
</linearGradient>
</defs>
</svg>
