<svg id="Component_5492_1" data-name="Component 5492 – 1" xmlns="http://www.w3.org/2000/svg" width="16" height="16" viewBox="0 0 16 16">
  <g id="Path_1" data-name="Path 1" transform="translate(-1443.264 -1307.911)" fill="currentColor" stroke-miterlimit="10">
    <path d="M 1454.763671875 1317.411010742188 L 1446.763671875 1317.411010742188 L 1446.763671875 1317.063110351562 L 1448.679321289062 1314.18798828125 L 1448.76318359375 1314.062133789062 L 1448.76318359375 1313.910766601562 L 1448.76318359375 1309.910400390625 L 1448.76318359375 1309.411010742188 L 1452.762939453125 1309.411010742188 L 1452.762939453125 1309.910400390625 L 1452.762939453125 1313.910766601562 L 1452.762939453125 1314.062133789062 L 1452.846923828125 1314.188110351562 L 1454.763671875 1317.063110351562 L 1454.763671875 1317.411010742188 Z" stroke="none"/>
    <path d="M 1454.061279296875 1316.911010742188 L 1452.262939453125 1314.213500976562 L 1452.262939453125 1309.911010742188 L 1449.26318359375 1309.911010742188 L 1449.26318359375 1314.21337890625 L 1447.4658203125 1316.911010742188 L 1454.061279296875 1316.911010742188 M 1455.263671875 1317.911010742188 L 1446.263671875 1317.911010742188 L 1446.263671875 1316.911743164062 L 1448.26318359375 1313.910766601562 L 1448.26318359375 1309.910400390625 L 1447.262939453125 1309.910400390625 L 1447.262939453125 1308.911010742188 L 1454.26318359375 1308.911010742188 L 1454.26318359375 1309.910400390625 L 1453.262939453125 1309.910400390625 L 1453.262939453125 1313.910766601562 L 1455.263671875 1316.911743164062 L 1455.263671875 1317.911010742188 Z" stroke="none" fill="currentColor"/>
  </g>
  <path id="Path_3" data-name="Path 3" d="M1452.465,1317.284v5" transform="translate(-1444.965 -1307.284)" fill="none" stroke="currentColor" stroke-width="1"/>
  <rect id="Rectangle_2" data-name="Rectangle 2" width="16" height="16" fill="none"/>
</svg>
