<svg width="17" height="16" viewBox="0 0 17 16" fill="none" xmlns="http://www.w3.org/2000/svg">
<path d="M5.0994 12.6979C5.09935 12.5322 4.96505 12.398 4.7994 12.398H3.8C3.08203 12.398 2.5 11.8159 2.5 11.098V4.15096C2.5 3.43299 3.08203 2.85096 3.8 2.85096H8.1047C8.33897 2.85096 8.48613 3.10998 8.38954 3.3234C8.13957 3.87574 8.00756 4.47625 8.00448 5.08684C8.00494 6.2436 8.46406 7.35344 9.28086 8.17114C10.0977 8.98885 11.2052 9.44781 12.36 9.44758C12.9821 9.44554 13.5941 9.30885 14.155 9.04929C14.3689 8.9503 14.6309 9.09747 14.6309 9.33317V11.0963C14.6309 11.8142 14.0489 12.3963 13.3309 12.3963H8.2093C8.137 12.3963 8.06713 12.4224 8.01255 12.4698L5.59668 14.5686C5.40252 14.7373 5.10002 14.5995 5.09993 14.3423L5.0994 12.6979ZM11.5083 6.81874C11.4633 6.63694 11.6054 6.46668 11.7927 6.46668H12.9236C13.111 6.46668 13.2532 6.63705 13.208 6.81889C12.9933 7.6842 12.6408 8.17792 12.3583 8.17792C12.0757 8.17792 11.7229 7.68651 11.5083 6.81874ZM13.8113 6.46668H14.6718C14.896 6.46668 15.0377 6.70274 14.9058 6.88402C14.7559 7.09011 14.5811 7.27759 14.385 7.44223C14.2521 7.55375 14.1106 7.65379 13.962 7.74149C13.7303 7.87817 13.4999 7.6199 13.5902 7.36651C13.6936 7.07585 13.7683 6.77509 13.8128 6.46841C13.8129 6.4675 13.8122 6.46668 13.8113 6.46668ZM9.80963 6.88381C9.67782 6.70257 9.81945 6.46668 10.0435 6.46668H10.6442C10.7935 6.46668 10.919 6.57675 10.9483 6.72317C10.9921 6.94201 11.0513 7.1572 11.1257 7.36714C11.2153 7.62053 10.9848 7.87838 10.7533 7.74176C10.6047 7.65401 10.4632 7.5539 10.3303 7.44223C10.1344 7.27756 9.95955 7.08996 9.80963 6.88381ZM14.2186 5.94543C14.0406 5.94543 13.9023 5.79141 13.9137 5.61383C13.9248 5.44015 13.9305 5.26617 13.9309 5.09193C13.9305 4.91669 13.9248 4.74144 13.9136 4.56654C13.9022 4.38899 14.0406 4.23504 14.2185 4.23504H15.1503C15.2828 4.23504 15.4011 4.32161 15.4296 4.45094C15.476 4.66123 15.4997 4.87621 15.5 5.09193C15.4996 5.3068 15.476 5.52049 15.4297 5.7297C15.4011 5.85896 15.2828 5.94543 15.1505 5.94543H14.2186ZM11.6329 5.94543C11.4801 5.94543 11.3511 5.8306 11.3393 5.67824C11.3242 5.48321 11.3164 5.28775 11.316 5.09193C11.3164 4.8952 11.3242 4.69847 11.3393 4.50231C11.3511 4.34992 11.4801 4.23504 11.633 4.23504H13.0889C13.2417 4.23504 13.3707 4.3499 13.3825 4.50228C13.3976 4.69845 13.4053 4.89519 13.4058 5.09193C13.4053 5.28776 13.3976 5.48323 13.3825 5.67826C13.3708 5.83061 13.2417 5.94543 13.0889 5.94543H11.6329ZM9.573 5.94543C9.44063 5.94543 9.32237 5.85897 9.29377 5.72973C9.24748 5.5205 9.22389 5.30681 9.22354 5.09193C9.22384 4.8762 9.24747 4.66121 9.29387 4.45092C9.32241 4.32159 9.44071 4.23504 9.57315 4.23504H10.5057C10.6834 4.23504 10.8216 4.38858 10.8106 4.5659C10.7998 4.74102 10.7944 4.91649 10.7944 5.09193C10.7944 5.26638 10.7998 5.44057 10.8106 5.61448C10.8216 5.79184 10.6833 5.94543 10.5056 5.94543H9.573ZM14.0757 3.71039C13.9264 3.71039 13.8009 3.60046 13.7716 3.45414C13.7277 3.23501 13.6682 3.01954 13.5938 2.80931C13.5041 2.55603 13.7346 2.29833 13.9661 2.43469C14.1153 2.52259 14.2574 2.62291 14.3907 2.73484C14.5867 2.89938 14.7615 3.08683 14.9114 3.29281C15.0434 3.47414 14.9017 3.71039 14.6774 3.71039H14.0757ZM11.7974 3.71039C11.61 3.71039 11.4678 3.53994 11.5131 3.35808C11.7278 2.49479 12.0802 2 12.3626 2C12.645 2 12.9974 2.49479 13.2122 3.35808C13.2574 3.53994 13.1152 3.71039 12.9278 3.71039H11.7974ZM10.0486 3.71039C9.82432 3.71039 9.68267 3.47418 9.81472 3.29291C9.96481 3.08687 10.1398 2.89945 10.336 2.73484C10.4699 2.62255 10.6126 2.52189 10.7625 2.43375C10.994 2.29764 11.2241 2.55519 11.1344 2.8083C11.0598 3.01885 11.0002 3.23466 10.9562 3.45413C10.9269 3.60046 10.8014 3.71039 10.6521 3.71039H10.0486Z" fill="url(#paint0_linear_14146_2821)"/>
<defs>
<linearGradient id="paint0_linear_14146_2821" x1="9" y1="2" x2="9" y2="15" gradientUnits="userSpaceOnUse">
<stop stop-color="#7F53AC"/>
<stop offset="1" stop-color="#647DEE"/>
</linearGradient>
</defs>
</svg>
