<svg xmlns="http://www.w3.org/2000/svg" viewBox="0 0 16 16">
	<path fill="currentColor" d="M8.542 15.998h-.99a1.408 1.408 0 0 1-1.1-.458 1.513 1.513 0 0 1-.413-1.042v-.8a.946.946 0 0 0-.3-.118.528.528 0 0 1-.224-.09l-.59.491a1.539 1.539 0 0 1-2.214 0l-.705-.7a1.478 1.478 0 0 1-.366-.5 1.427 1.427 0 0 1-.129-.575A1.542 1.542 0 0 1 2 11.097l.613-.608q-.094-.142-.153-.246a.5.5 0 0 1-.058-.246h-.9a1.43 1.43 0 0 1-1.51-1.5V7.489a1.466 1.466 0 0 1 .412-1.091 1.491 1.491 0 0 1 1.1-.409h.8a.947.947 0 0 0 .095-.282.376.376 0 0 1 .095-.21l-.5-.608a1.734 1.734 0 0 1-.365-.517 1.382 1.382 0 0 1 0-1.17 1.747 1.747 0 0 1 .365-.513l.705-.7a1.6 1.6 0 0 1 2.214 0l.59.608a.459.459 0 0 1 .224-.186c.087-.032.186-.071.3-.118v-.8A1.469 1.469 0 0 1 6.44.404a1.491 1.491 0 0 1 1.1-.411h.991a1.492 1.492 0 0 1 1.1.411 1.462 1.462 0 0 1 .413 1.089v.8a1.453 1.453 0 0 0 .295.095.408.408 0 0 1 .224.116l.59-.515a1.6 1.6 0 0 1 2.215 0l.7.7a1.591 1.591 0 0 1 .013 2.2l-.613.608q.094.142.153.246a.51.51 0 0 1 .057.246h.805a1.423 1.423 0 0 1 1.1.445 1.493 1.493 0 0 1 .412 1.055v1.014a1.413 1.413 0 0 1-.448 1.078 1.5 1.5 0 0 1-1.062.422h-.805a.961.961 0 0 0-.094.281.323.323 0 0 1-.118.211l.615.608a1.552 1.552 0 0 1 0 2.18l-.705.7a1.54 1.54 0 0 1-2.215 0l-.59-.586a2.168 2.168 0 0 0-.26.129.477.477 0 0 1-.258.059v.8a1.651 1.651 0 0 1-.413 1.183 1.449 1.449 0 0 1-1.1.43Zm-3.3-3.913.4.211a2.032 2.032 0 0 0 .5.235c.2.062.4.117.6.163l.4.095v1.592a.589.589 0 0 0 .13.341.427.427 0 0 0 .366.175h1.015a.533.533 0 0 0 .318-.141.453.453 0 0 0 .177-.375v-1.59l.4-.093a2.327 2.327 0 0 0 .554-.2 2.394 2.394 0 0 1 .555-.2l.4-.211 1.108 1.2a.429.429 0 0 0 .33.164.3.3 0 0 0 .283-.164l.685-.681a.489.489 0 0 0 .165-.352.257.257 0 0 0-.168-.262l-1.2-1.1.213-.4a2.632 2.632 0 0 0 .236-.517c.062-.187.118-.382.165-.585l.091-.4h1.6a.556.556 0 0 0 .342-.142.433.433 0 0 0 .178-.351V7.49a.53.53 0 0 0-.143-.316.458.458 0 0 0-.377-.176h-1.6l-.094-.4a2.578 2.578 0 0 0-.2-.562 2.617 2.617 0 0 1-.2-.539l-.212-.4 1.208-1.219a.421.421 0 0 0 .165-.327.26.26 0 0 0-.165-.259l-.685-.7a.536.536 0 0 0-.354-.141.263.263 0 0 0-.26.141l-1.113 1.2-.4-.187a1.806 1.806 0 0 0-.519-.246c-.189-.054-.385-.1-.59-.152l-.495-.117v-1.6a.487.487 0 0 0-.177-.316.505.505 0 0 0-.343-.176h-.99a.5.5 0 0 0-.343.176.482.482 0 0 0-.177.316v1.592l-.4.118a2.67 2.67 0 0 0-.555.188 4.241 4.241 0 0 1-.554.211l-.283.28-1.107-1.2a.537.537 0 0 0-.355-.142.266.266 0 0 0-.256.15l-.8.7a.418.418 0 0 0-.165.328.3.3 0 0 0 .165.28l1.208 1.1-.189.493a1.762 1.762 0 0 0-.248.515c-.054.188-.114.383-.176.586l-.189.3H1.511a.506.506 0 0 0-.343.175.486.486 0 0 0-.177.316v1.009a.486.486 0 0 0 .177.316.509.509 0 0 0 .343.181h1.6l.095.4a2.249 2.249 0 0 0 .2.55 2.268 2.268 0 0 1 .2.552l.213.4-1.2 1.1a.234.234 0 0 0-.106.151 1.317 1.317 0 0 0-.012.152.835.835 0 0 0 .012.142.329.329 0 0 0 .106.163l.685.681a.5.5 0 0 0 .354.163.26.26 0 0 0 .261-.163Zm2.761-1.088a2.858 2.858 0 0 1-2.133-.891A2.925 2.925 0 0 1 5 8.003a3 3 0 0 1 6 0 2.925 2.925 0 0 1-.867 2.108A2.858 2.858 0 0 1 8 10.997Zm0-4.989a2 2 0 0 0-1.992 1.99 1.949 1.949 0 0 0 .586 1.43 1.98 1.98 0 0 0 2.812 0 1.949 1.949 0 0 0 .586-1.43 2 2 0 0 0-1.992-1.99Z"/>
</svg>
