<svg width="17" height="16" viewBox="0 0 17 16" fill="none" xmlns="http://www.w3.org/2000/svg">
<path fill-rule="evenodd" clip-rule="evenodd" d="M14.8784 9.14031C14.9346 8.79124 14.9629 8.43828 14.9633 8.08472C14.9633 6.35065 14.2745 4.68759 13.0484 3.46132C11.8223 2.23506 10.1593 1.54603 8.42527 1.54578C8.07293 1.54562 7.7212 1.57403 7.37345 1.63072C6.75403 1.21724 6.02559 0.99729 5.28085 0.998849C4.278 0.999096 3.31635 1.39766 2.60732 2.10687C1.89828 2.81608 1.50001 3.77787 1.50001 4.78072C1.49845 5.46127 1.682 6.12941 2.03105 6.71363C1.93511 7.16434 1.88689 7.62392 1.88727 8.08472C1.8885 9.8179 2.57786 11.4797 3.80383 12.7048C5.02981 13.9299 6.69209 14.6181 8.42527 14.6181C8.88728 14.6179 9.34805 14.5697 9.80009 14.4743C10.3812 14.8159 11.0431 14.9958 11.7171 14.9951C12.7202 14.9951 13.6823 14.5967 14.3917 13.8875C15.1011 13.1783 15.4998 12.2163 15.5 11.2132C15.5002 10.4763 15.284 9.75554 14.8784 9.14031ZM10.4133 11.8227C9.38782 12.2065 8.27102 12.2751 7.20631 12.0197C6.73861 11.966 6.29668 11.7775 5.93426 11.477C5.57183 11.1766 5.30464 10.7772 5.16521 10.3275C5.12512 10.1431 5.15065 9.95049 5.23756 9.78297C5.32447 9.61545 5.46725 9.48357 5.64111 9.41016C5.81496 9.33674 6.00902 9.32638 6.18969 9.3809C6.37036 9.43542 6.52627 9.55139 6.6305 9.70872C6.75929 9.85898 6.87692 10.0167 7.00385 10.1679C7.18365 10.3609 7.39993 10.5164 7.64016 10.6253C7.8804 10.7342 8.13986 10.7945 8.40351 10.8025C8.66716 10.8106 8.92975 10.7664 9.1762 10.6723C9.42265 10.5783 9.64801 10.4363 9.83928 10.2547C9.93952 10.1194 9.99307 9.95516 9.99173 9.78679C9.99038 9.61841 9.93427 9.45505 9.83188 9.32137C9.59575 9.02177 9.32969 9.02365 7.07289 8.44965C6.69856 8.39722 6.34387 8.24994 6.04249 8.02181C5.74111 7.79367 5.50311 7.49228 5.35104 7.14624C5.19896 6.80019 5.13789 6.421 5.17364 6.04471C5.2094 5.66842 5.34079 5.30751 5.55532 4.99631C5.8527 4.63456 6.22681 4.34348 6.65055 4.14412C7.07428 3.94476 7.53703 3.84214 8.00532 3.84365C9.60598 3.72139 11.3653 4.48017 11.5258 5.52364C11.5459 5.61831 11.5467 5.71607 11.5281 5.81104C11.5095 5.906 11.4718 5.9962 11.4174 6.07624C11.363 6.15628 11.2929 6.22448 11.2115 6.27676C11.13 6.32904 11.0388 6.3643 10.9434 6.38044C10.3377 6.52044 10.1295 6.13405 9.79633 5.77845C9.46061 5.46917 9.03409 5.27643 8.5801 5.22884C8.12612 5.18126 7.66894 5.28138 7.27638 5.51433C7.18759 5.57587 7.11392 5.65674 7.06093 5.75088C7.00794 5.84502 6.97703 5.94996 6.97047 6.05778C6.96391 6.16561 6.98191 6.27351 7.02311 6.37338C7.0643 6.47324 7.12758 6.56246 7.20825 6.63431C7.76825 7.08511 9.61432 7.20832 10.5113 7.60498C10.9194 7.75672 11.2698 8.0323 11.5135 8.39314C11.7572 8.75398 11.882 9.182 11.8702 9.61726C11.8866 10.0907 11.755 10.5574 11.4939 10.9526C11.2328 11.3479 10.8551 11.652 10.4133 11.8227Z" fill="url(#paint0_linear_14146_2769)"/>
<defs>
<linearGradient id="paint0_linear_14146_2769" x1="8.50001" y1="0.99884" x2="8.50001" y2="14.9951" gradientUnits="userSpaceOnUse">
<stop stop-color="#00B7F0"/>
<stop offset="1" stop-color="#0089CB"/>
</linearGradient>
</defs>
</svg>
