<svg xmlns="http://www.w3.org/2000/svg" viewBox="0 0 16 16">
  <g>
    <g>
      <g fill="none" stroke="currentColor" stroke-miterlimit="10">
        <path d="M10.5 5A2.5 2.5 0 0 0 8 2.5 2.5 2.5 0 0 0 5.5 5 2.5 2.5 0 0 0 8 7.5 2.5 2.5 0 0 0 10.5 5Z"/>
        <path d="M11.893 12.5H15.5c0-1.806-1.368-3-3.422-3a4.294 4.294 0 0 0-1.578.279"/>
        <path d="M14.501 6a2 2 0 0 0-2-2 2 2 0 0 0-2 2 2 2 0 0 0 2 2 2 2 0 0 0 2-2Z"/>
        <path d="M4.106 12.5H.5c0-1.806 1.369-3 3.421-3a4.306 4.306 0 0 1 1.579.279"/>
        <path d="M1.501 6a2 2 0 0 1 2-2 2 2 0 0 1 2 2 2 2 0 0 1-2 2 2 2 0 0 1-2-2Z"/>
        <path d="M12.5 13.5c0-2.409-1.8-4-4.5-4s-4.5 1.591-4.5 4Z"/>
      </g>
    </g>
    <path fill="none" d="M0 0h16v16H0z"/>
  </g>
</svg>
