<svg xmlns="http://www.w3.org/2000/svg" viewBox="0 0 16 16" enable-background="new 0 0 16 16" widht="16" height="16">
	<g fill="#eeaf4b">
		<path d="M1.8,5.2L1.8,5.2L0.5,5.9L0.2,5.1L2,4.2h0.9V12h-1V5.2z"/>
		<path d="M4.6,12v-0.6l0.8-0.8c2-1.9,2.9-2.9,2.9-4.1c0-0.8-0.4-1.5-1.5-1.5c-0.7,0-1.3,0.4-1.7,0.7L4.8,4.9C5.3,4.4,6.1,4.1,7,4.1c1.7,0,2.4,1.2,2.4,2.3c0,1.4-1,2.6-2.7,4.2l-0.6,0.6v0h3.5V12H4.6z"/>
		<path d="M10.7,10.8c0.3,0.2,1,0.5,1.7,0.5c1.4,0,1.8-0.9,1.8-1.5c0-1.1-1-1.6-2-1.6h-0.6V7.4h0.6c0.8,0,1.7-0.4,1.7-1.3c0-0.6-0.4-1.2-1.4-1.2c-0.6,0-1.2,0.3-1.6,0.5l-0.3-0.8c0.4-0.3,1.2-0.6,2-0.6c1.5,0,2.2,0.9,2.2,1.9c0,0.8-0.5,1.5-1.4,1.8v0c1,0.2,1.7,0.9,1.7,2c0,1.2-1,2.3-2.8,2.3c-0.9,0-1.6-0.3-2-0.5L10.7,10.8z"/>
	</g>
</svg>