<svg xmlns="http://www.w3.org/2000/svg" width="16" height="16" fill="none">
<g fill="#0D2E4E">
<path d="M7.86 6.48C7.76 6.3 7.8 6 8 6c1.06 0 1.91.9 1.91 2S9.06 10 8 10s-1.91-.9-1.91-2c0-.2.28-.26.45-.15.15.1.32.15.5.15.53 0 .96-.45.96-1 0-.2-.05-.37-.14-.52Z"/>
<path fill-rule="evenodd" d="M1.02 8.11a.3.3 0 0 1 0-.22A7.56 7.56 0 0 1 8 3a7.56 7.56 0 0 1 6.98 4.89.3.3 0 0 1 0 .22A7.56 7.56 0 0 1 8 13a7.56 7.56 0 0 1-6.98-4.89ZM4.81 8A3.27 3.27 0 0 0 8 11.33c1.76 0 3.2-1.49 3.2-3.33A3.27 3.27 0 0 0 8 4.67 3.27 3.27 0 0 0 4.8 8Z" clip-rule="evenodd"/>
</g>
</svg>