<?xml version="1.0" standalone="no"?>
<!DOCTYPE svg PUBLIC "-//W3C//DTD SVG 1.1//EN" "http://www.w3.org/Graphics/SVG/1.1/DTD/svg11.dtd" >
<svg xmlns="http://www.w3.org/2000/svg" xmlns:xlink="http://www.w3.org/1999/xlink" version="1.1">
<metadata>
Created by FontForge 20161116 at Tue Jul 11 10:17:13 2017
 By Jimmy Wärting
Copyright 2015 The Rubik Project Authors
</metadata>
<defs>
<font id="BpmonlineRubik-Regular" horiz-adv-x="0" >
  <font-face 
    font-family="Bpm'online Rubik"
    font-weight="400"
    font-stretch="normal"
    units-per-em="1000"
    panose-1="0 0 5 0 0 0 0 0 0 0"
    ascent="800"
    descent="-200"
    x-height="483"
    cap-height="650"
    bbox="-451 -252 1021 847"
    underline-thickness="46"
    underline-position="-116"
    unicode-range="U+000D-FB4B"
  />
<missing-glyph horiz-adv-x="269" 
 />
    <glyph glyph-name="fi" unicode="fi" horiz-adv-x="504" 
d="M118 21v391h-80q-9 0 -15 5.5t-6 14.5v30q0 9 6 15t15 6h80v47q0 75 36.5 116t120.5 41h139q10 0 15.5 -6t5.5 -15v-30q0 -9 -5.5 -14.5t-15.5 -5.5h-137q-43 0 -59.5 -22.5t-16.5 -68.5v-42h213q10 0 15.5 -6t5.5 -15v-441q0 -9 -5.5 -15t-15.5 -6h-41q-9 0 -15 6t-6 15
v391h-151v-391q0 -9 -6 -15t-16 -6h-40q-9 0 -15 6t-6 15z" />
    <glyph glyph-name="fl" unicode="fl" horiz-adv-x="553" 
d="M118 21v391h-80q-9 0 -15 5.5t-6 14.5v30q0 9 6 15t15 6h80v47q0 75 36.5 116t120.5 41h52q9 0 14.5 -6t5.5 -15v-30q0 -9 -5.5 -14.5t-14.5 -5.5h-50q-43 0 -59.5 -22.5t-16.5 -68.5v-42h199v183q0 9 6 15t15 6h41q9 0 15 -6t6 -15v-645q0 -9 -6 -15t-15 -6h-41
q-9 0 -15 6t-6 15v391h-199v-391q0 -9 -6 -15t-16 -6h-40q-9 0 -15 6t-6 15z" />
    <glyph glyph-name="f_f" unicode="ff" horiz-adv-x="637" 
d="M118 21v391h-80q-9 0 -15 5.5t-6 14.5v30q0 9 6 15t15 6h80v47q0 75 36.5 116t120.5 41h55q9 0 15 -6t6 -15v-30q0 -9 -6 -14.5t-15 -5.5h-53q-43 0 -59.5 -22.5t-16.5 -68.5v-42h199v47q0 75 37 116t120 41h55q10 0 15.5 -6t5.5 -15v-30q0 -9 -5.5 -14.5t-15.5 -5.5h-53
q-42 0 -59 -22.5t-17 -68.5v-42h120q9 0 14.5 -6t5.5 -15v-30q0 -9 -5.5 -14.5t-14.5 -5.5h-120v-391q0 -9 -6 -15t-15 -6h-41q-9 0 -15 6t-6 15v391h-199v-391q0 -9 -6 -15t-16 -6h-40q-9 0 -15 6t-6 15z" />
    <glyph glyph-name="f_f_i" unicode="ffi" horiz-adv-x="787" 
d="M118 21v391h-80q-9 0 -15 5.5t-6 14.5v30q0 9 6 15t15 6h80v47q0 75 36.5 116t120.5 41h55q9 0 15 -6t6 -15v-30q0 -9 -6 -14.5t-15 -5.5h-53q-43 0 -59.5 -22.5t-16.5 -68.5v-42h199v47q0 75 37 116t120 41h139q10 0 15.5 -5.5t5.5 -15.5v-30q0 -9 -6 -14.5t-15 -5.5
h-137q-42 0 -59 -22.5t-17 -68.5v-42h213q10 0 15.5 -5.5t5.5 -15.5v-441q0 -9 -6 -15t-15 -6h-40q-9 0 -15 6t-6 15v391h-152v-391q0 -9 -6 -15t-15 -6h-41q-9 0 -15 6t-6 15v391h-199v-391q0 -9 -6 -15t-16 -6h-40q-9 0 -15 6t-6 15z" />
    <glyph glyph-name="f_f_l" unicode="ffl" horiz-adv-x="835" 
d="M118 21v391h-80q-9 0 -15 5.5t-6 14.5v30q0 9 6 15t15 6h80v47q0 75 36.5 116t120.5 41h55q9 0 15 -6t6 -15v-30q0 -9 -6 -14.5t-15 -5.5h-53q-43 0 -59.5 -22.5t-16.5 -68.5v-42h199v47q0 75 37 116t120 41h51q11 0 16.5 -5.5t5.5 -15.5v-30q0 -9 -6 -14.5t-16 -5.5h-49
q-42 0 -59 -22.5t-17 -68.5v-42h199v183q0 9 6 15t15 6h40q10 0 16 -5.5t6 -15.5v-645q0 -9 -6.5 -15t-15.5 -6h-40q-9 0 -15 6t-6 15v391h-199v-391q0 -9 -6 -15t-15 -6h-41q-9 0 -15 6t-6 15v391h-199v-391q0 -9 -6 -15t-16 -6h-40q-9 0 -15 6t-6 15z" />
    <glyph glyph-name=".notdef" horiz-adv-x="269" 
 />
    <glyph glyph-name="glyph1" 
 />
    <glyph glyph-name="nonmarkingreturn" unicode="&#xd;" horiz-adv-x="229" 
 />
    <glyph glyph-name="NULL" 
 />
    <glyph glyph-name="NULL" 
 />
    <glyph glyph-name="space" unicode=" " horiz-adv-x="229" 
 />
    <glyph glyph-name="exclam" unicode="!" horiz-adv-x="226" 
d="M72 174v455q0 10 6 15.5t15 5.5h40q9 0 15 -6t6 -15v-455q0 -10 -6 -16t-15 -6h-40q-9 0 -15 6t-6 16zM63 21v57q0 9 6 15t16 6h55q10 0 16.5 -6t6.5 -15v-57q0 -9 -6.5 -15t-16.5 -6h-55q-10 0 -16 6t-6 15z" />
    <glyph glyph-name="quotedbl" unicode="&#x22;" horiz-adv-x="344" 
d="M69 477l-16 161v4q0 8 5 13t14 5h58q9 0 14.5 -6t4.5 -16l-16 -161q-2 -21 -19 -21h-27q-16 0 -18 21zM211 477l-16 161v2q0 9 5 14.5t14 5.5h58q9 0 14.5 -6t4.5 -16l-16 -161q-2 -21 -19 -21h-27q-16 0 -18 21z" />
    <glyph glyph-name="numbersign" unicode="#" horiz-adv-x="648" 
d="M143 56l18 113h-93q-9 0 -15.5 5.5t-6.5 15.5v29q0 10 6.5 15.5t15.5 5.5h103l24 165h-103q-9 0 -15 5.5t-6 14.5v30q0 9 6 15t15 6h114l17 113q2 8 7.5 13.5t13.5 5.5h32q8 0 13.5 -5.5t4.5 -13.5l-16 -113h139l17 113q2 8 7.5 13.5t13.5 5.5h32q8 0 13.5 -5.5
t4.5 -13.5l-16 -113h92q9 0 14.5 -6t5.5 -15v-30q0 -9 -5.5 -14.5t-14.5 -5.5h-103l-24 -165h102q10 0 15.5 -5.5t5.5 -15.5v-29q0 -10 -5.5 -15.5t-15.5 -5.5h-113l-17 -113q-1 -9 -7 -14.5t-14 -5.5h-32q-8 0 -14 5.5t-5 14.5l18 113h-140l-16 -113q-2 -9 -7.5 -14.5
t-14.5 -5.5h-31q-9 0 -15 5.5t-5 14.5zM243 240h139l24 165h-138z" />
    <glyph glyph-name="dollar" unicode="$" horiz-adv-x="571" 
d="M248 -72v65q-65 6 -112 30.5t-71.5 61.5t-26.5 79q0 7 5.5 12.5t14.5 5.5h44q18 0 24 -18q9 -40 48.5 -68t112.5 -28q79 0 118 28t39 77q0 31 -19 51.5t-56.5 36t-113.5 37.5q-71 21 -114 44t-64 57t-21 86q0 70 51 117t141 56v64q0 10 6 15.5t15 5.5h34q9 0 14.5 -6
t5.5 -15v-65q60 -8 102.5 -34t64.5 -60.5t24 -70.5q0 -8 -5.5 -13.5t-14.5 -5.5h-46q-8 0 -15 4.5t-8 13.5q-6 40 -45 66t-98 26q-63 0 -100 -24.5t-37 -72.5q0 -33 17 -53.5t53 -36t104 -36.5q79 -22 124.5 -44t67.5 -55t22 -85q0 -79 -56 -127.5t-154 -55.5v-65
q0 -9 -5.5 -15t-14.5 -6h-34q-9 0 -15 5.5t-6 15.5z" />
    <glyph glyph-name="percent" unicode="%" horiz-adv-x="705" 
d="M46 445v41v44q3 57 36.5 91t96.5 34t97 -34t37 -91q2 -34 2 -44q0 -9 -2 -41q-3 -57 -38 -89t-96 -32q-60 0 -95 32t-38 89zM82 19q0 5 3 10l459 604q8 10 14 13.5t17 3.5h30q8 0 13 -5t5 -13q0 -6 -3 -10l-458 -604q-8 -10 -14 -14t-17 -4h-30q-8 0 -13.5 5t-5.5 14z
M247 449q2 33 2 39q0 8 -2 38q-2 29 -18 49t-50 20q-33 0 -49 -20t-18 -49q-1 -15 -1 -38t1 -39q3 -28 18.5 -48t48.5 -20q34 0 49.5 19.5t18.5 48.5zM392 120q-2 28 -2 37t2 46q3 58 36.5 92t96.5 34t97 -34t37 -92q2 -33 2 -42q0 -10 -2 -41q-3 -57 -38.5 -91.5
t-95.5 -34.5q-61 0 -95.5 34.5t-37.5 91.5zM593 123q2 33 2 40t-2 37q-2 29 -18.5 48.5t-49.5 19.5q-34 0 -49.5 -19.5t-17.5 -48.5q-1 -15 -1 -37q0 -24 1 -40q2 -28 17.5 -48t49.5 -20q33 0 49 19.5t19 48.5z" />
    <glyph glyph-name="ampersand" unicode="&#x26;" horiz-adv-x="643" 
d="M53 174q0 58 34.5 99.5t96.5 77.5q-45 48 -63 82.5t-18 73.5q0 41 21.5 76t61 56t90.5 21q49 0 88 -20t60.5 -54.5t21.5 -77.5q0 -57 -36.5 -95.5t-105.5 -77.5l160 -157q37 62 50 143q1 9 6 14t14 5h38q9 0 14.5 -5.5t5.5 -13.5q-2 -42 -21 -94t-54 -102l95 -93
q8 -6 8 -14q0 -18 -18 -18h-49q-16 0 -25 9l-62 62q-81 -80 -200 -80q-63 0 -111 23t-75 65t-27 95zM367 506q0 38 -26 61t-66 23q-37 0 -64 -23.5t-27 -60.5q0 -25 14.5 -50t55.5 -68q55 30 84 56t29 62zM412 126l-177 171q-48 -27 -74 -54.5t-26 -66.5q0 -52 38.5 -82.5
t92.5 -30.5q39 0 77 16t69 47z" />
    <glyph glyph-name="quotesingle" unicode="'" horiz-adv-x="202" 
d="M69 477l-16 161v4q0 8 5 13t14 5h58q9 0 14.5 -6t4.5 -16l-16 -161q-2 -21 -19 -21h-27q-16 0 -18 21z" />
    <glyph glyph-name="parenleft" unicode="(" horiz-adv-x="312" 
d="M54 287q0 155 20.5 249.5t67.5 139.5t126 45q10 0 16 -6t6 -15v-31q0 -8 -5.5 -14.5t-13.5 -6.5q-53 0 -82.5 -35t-42.5 -112.5t-13 -213.5q0 -137 13 -214.5t42.5 -112t82.5 -35.5q8 0 13.5 -6t5.5 -15v-30q0 -10 -6 -16t-16 -6q-79 0 -126 45t-67.5 140t-20.5 250z" />
    <glyph glyph-name="parenright" unicode=")" horiz-adv-x="312" 
d="M23 -126v30q0 9 5.5 15t13.5 6q52 1 82 35.5t43 112.5t13 214t-13 213.5t-43 112.5t-82 35q-8 0 -13.5 6.5t-5.5 14.5v31q0 9 6 15t15 6q80 0 126.5 -45t67 -139.5t20.5 -249.5t-20.5 -250t-67 -140t-126.5 -45q-9 0 -15 6t-6 16z" />
    <glyph glyph-name="asterisk" unicode="*" horiz-adv-x="414" 
d="M96 413q-9 6 -9 17q0 6 4 11q0 1 6 7l67 62l-92 10l-7 2q-7 2 -11 10t-2 16l16 47q2 8 9.5 11.5t15.5 1.5l7 -3l80 -45l-17 90l-1 8q0 7 6 13.5t14 6.5h50q9 0 15 -6.5t6 -13.5l-1 -8l-20 -91l82 46l7 3q2 1 5 1q8 0 14 -3.5t7 -10.5l15 -47l1 -5q0 -7 -4 -13t-10 -8
l-7 -2l-93 -11l69 -61q5 -6 5 -7q4 -5 4 -11q0 -11 -8 -17l-40 -29q-6 -3 -12 -3q-12 0 -17 7l-4 7l-39 85l-39 -85q-2 -4 -4 -7q-5 -7 -17 -7q-7 0 -12 3z" />
    <glyph glyph-name="plus" unicode="+" horiz-adv-x="578" 
d="M253 52v194h-193q-9 0 -15 6t-6 16v27q0 10 6 16t15 6h193v188q0 11 6 16.5t15 5.5h30q10 0 15.5 -5.5t5.5 -16.5v-188h192q10 0 16 -6t6 -16v-27q0 -10 -6 -16t-16 -6h-192v-194q0 -9 -6 -15t-15 -6h-30q-9 0 -15 6t-6 15z" />
    <glyph glyph-name="comma" unicode="," horiz-adv-x="230" 
d="M48 -50l21 131q3 27 26 27h59q7 0 11.5 -5t4.5 -11q0 -7 -4 -16l-48 -124q-8 -22 -26 -22h-29q-8 0 -12.5 5.5t-2.5 14.5z" />
    <glyph glyph-name="hyphen" unicode="-" horiz-adv-x="450" 
d="M64 262v33q0 10 6 16t15 6h279q9 0 15.5 -6t6.5 -16v-33q0 -9 -6.5 -14.5t-15.5 -5.5h-279q-9 0 -15 5.5t-6 14.5z" />
    <glyph glyph-name="period" unicode="." horiz-adv-x="232" 
d="M63 21v64q0 10 6 16.5t16 6.5h64q9 0 15 -6.5t6 -16.5v-64q0 -9 -6 -15t-15 -6h-64q-10 0 -16 6t-6 15z" />
    <glyph glyph-name="slash" unicode="/" horiz-adv-x="445" 
d="M24 -59q0 3 3 11l318 762q8 16 24 16h34q8 0 13.5 -5.5t5.5 -12.5q0 -4 -3 -12l-319 -762q-2 -6 -8 -11t-16 -5h-33q-8 0 -13.5 5.5t-5.5 13.5z" />
    <glyph glyph-name="zero" unicode="0" horiz-adv-x="588" 
d="M59 244v80v83q3 112 59.5 182.5t175.5 70.5t175.5 -70.5t59.5 -182.5q1 -26 1 -83q0 -55 -1 -80q-4 -113 -59.5 -183t-175.5 -70t-175.5 70t-59.5 183zM439 249q1 27 1 77q0 51 -1 76q-1 86 -38 133.5t-107 47.5q-71 0 -107.5 -47.5t-37.5 -133.5l-1 -76l1 -77
q1 -86 37.5 -133.5t107.5 -47.5t107.5 47.5t37.5 133.5z" />
    <glyph glyph-name="one" unicode="1" horiz-adv-x="395" 
d="M236 21v524l-156 -120q-7 -5 -14 -5q-8 0 -16 9l-22 29q-5 6 -5 13q0 10 10 17l201 156q10 6 24 6h44q9 0 15 -6t6 -15v-608q0 -9 -6 -15t-15 -6h-46q-9 0 -14.5 6t-5.5 15z" />
    <glyph glyph-name="two" unicode="2" horiz-adv-x="543" 
d="M46 21v28q0 22 23 41l202 202q69 58 95 95.5t26 78.5q0 55 -30.5 86t-89.5 31q-56 0 -88.5 -32.5t-39.5 -86.5q-2 -11 -9.5 -16.5t-14.5 -5.5h-45q-8 0 -13.5 5.5t-5.5 13.5q2 49 26.5 95t72.5 75.5t117 29.5q104 0 156.5 -54.5t52.5 -138.5q0 -58 -28 -105t-89 -99
l-183 -186h293q10 0 15.5 -5.5t5.5 -15.5v-36q0 -9 -6 -15t-15 -6h-407q-9 0 -15 6t-6 15z" />
    <glyph glyph-name="three" unicode="3" horiz-adv-x="556" 
d="M40 155q0 9 5.5 14t13.5 5h42q10 0 16.5 -4.5t10.5 -16.5q12 -47 52.5 -66.5t95.5 -19.5q67 0 106.5 32t39.5 91q0 114 -139 114h-87q-9 0 -15 6t-6 15v24q0 14 10 24l181 201h-275q-9 0 -15 5.5t-6 15.5v33q0 10 6 16t15 6h368q10 0 16 -6t6 -16v-31q0 -10 -9 -21
l-181 -203h15q94 -3 149.5 -49.5t55.5 -135.5q0 -62 -30 -106t-84 -67.5t-122 -23.5q-72 0 -125 23.5t-80.5 61.5t-29.5 79z" />
    <glyph glyph-name="four" unicode="4" horiz-adv-x="574" 
d="M352 21v136h-302q-9 0 -15 6t-6 15v35q0 13 10 28l280 394q4 7 13.5 11t20.5 4h63q10 0 16 -5.5t6 -15.5v-394h84q9 0 15 -6t6 -15v-36q0 -9 -6 -15t-15 -6h-84v-136q0 -9 -6.5 -15t-15.5 -6h-43q-9 0 -15 6t-6 15zM125 233h228v323z" />
    <glyph glyph-name="five" unicode="5" horiz-adv-x="550" 
d="M43 168v2q0 7 5.5 12t12.5 5h46q19 0 25 -21q14 -50 51.5 -74.5t86.5 -24.5q64 0 105.5 38.5t41.5 106.5q0 62 -41.5 98.5t-105.5 36.5q-33 0 -53.5 -8t-41.5 -24q-12 -9 -20 -13.5t-18 -4.5h-44q-8 0 -14.5 6t-6.5 15l29 309q3 23 23 23h322q10 0 15.5 -5.5t5.5 -15.5
v-34q0 -10 -6 -15.5t-15 -5.5h-268l-16 -187q44 32 119 32q63 0 114 -24.5t81 -72t30 -112.5q0 -69 -30 -118.5t-83.5 -75t-122.5 -25.5t-120.5 25t-78 65.5t-28.5 86.5z" />
    <glyph glyph-name="six" unicode="6" horiz-adv-x="557" 
d="M46 214q0 80 64 171l177 247q1 1 5 6.5t10.5 8.5t15.5 3h45q9 0 14 -6t5 -14q0 -5 -5 -12l-135 -190q24 6 53 6q68 0 119.5 -30.5t80 -80t28.5 -108.5q0 -60 -28.5 -111.5t-82 -82t-127.5 -30.5t-128.5 30t-82.5 81t-28 112zM435 214q0 45 -21 78t-55.5 50.5t-74.5 17.5
t-74 -17.5t-54.5 -50.5t-20.5 -78q0 -47 20.5 -80t54.5 -49.5t74 -16.5q41 0 75.5 16.5t55 49.5t20.5 80z" />
    <glyph glyph-name="seven" unicode="7" horiz-adv-x="474" 
d="M121 20l2 9l232 543h-307q-9 0 -15 6t-6 16v34q0 10 5.5 16t15.5 6h379q11 0 16.5 -6t5.5 -16v-32q0 -16 -8 -36l-229 -537q-5 -10 -10.5 -16.5t-15.5 -6.5h-47q-8 0 -13 6t-5 14z" />
    <glyph glyph-name="eight" unicode="8" horiz-adv-x="589" 
d="M52 187q0 55 27.5 96t73.5 64q-37 21 -57.5 56t-20.5 82q0 81 60.5 128t158.5 47q99 0 159 -46.5t60 -128.5q0 -47 -20.5 -81.5t-56.5 -56.5q46 -23 73.5 -64t27.5 -97q0 -60 -30.5 -104t-86 -67.5t-126.5 -23.5q-70 0 -125.5 23.5t-86 68t-30.5 104.5zM429 483
q0 47 -38.5 75.5t-96.5 28.5t-96 -28.5t-38 -75.5t38 -75.5t96 -28.5q57 2 96 30t39 74zM449 186q0 56 -44.5 89t-110.5 33t-110.5 -33t-44.5 -89t44.5 -89.5t110.5 -33.5t110.5 33.5t44.5 89.5z" />
    <glyph glyph-name="nine" unicode="9" horiz-adv-x="549" 
d="M162 20q0 7 3 13l143 198q-22 -5 -52 -5q-66 1 -116.5 31t-77 79t-26.5 104q0 56 26.5 106t79 82t126.5 32q75 0 128 -31t80 -80.5t27 -106.5q0 -51 -18.5 -90t-47.5 -81l-181 -252q-6 -9 -12 -14t-17 -5h-47q-8 0 -13 6t-5 14zM414 440q0 43 -19.5 75.5t-53 50
t-73.5 17.5q-39 0 -71.5 -17.5t-52.5 -50t-20 -75.5q0 -41 20 -73.5t52.5 -50t71.5 -17.5q40 0 73.5 17.5t53 50t19.5 73.5z" />
    <glyph glyph-name="colon" unicode=":" horiz-adv-x="237" 
d="M65 347v62q0 10 5.5 16t14.5 6h65q10 0 16 -6t6 -16v-62q0 -10 -6.5 -16t-15.5 -6h-65q-9 0 -14.5 6t-5.5 16zM65 21v63q0 10 5.5 16t14.5 6h65q10 0 16 -6t6 -16v-63q0 -9 -6.5 -15t-15.5 -6h-65q-9 0 -14.5 6t-5.5 15z" />
    <glyph glyph-name="semicolon" unicode=";" horiz-adv-x="251" 
d="M76 347v62q0 10 6 16t16 6h64q9 0 15 -6.5t6 -15.5v-62q0 -10 -6 -16t-15 -6h-64q-10 0 -16 6t-6 16zM60 -50l21 131q4 27 26 27h59q7 0 11 -5t4 -11t-3 -16l-48 -124q-5 -11 -10.5 -16.5t-16.5 -5.5h-29q-7 0 -11 5.5t-3 14.5z" />
    <glyph glyph-name="less" unicode="&#x3c;" horiz-adv-x="456" 
d="M351 77l-290 200q-15 9 -21 19t-6 23v15q0 13 6 23t21 20l290 200q2 1 9.5 5t12.5 4q9 0 14.5 -5t5.5 -13v-38q0 -11 -5 -17.5t-16 -13.5l-251 -172l251 -172q12 -8 16.5 -14.5t4.5 -16.5v-38q0 -9 -5.5 -14t-14.5 -5q-6 0 -22 10z" />
    <glyph glyph-name="equal" unicode="=" horiz-adv-x="530" 
d="M67 381v29q0 9 6 14.5t15 5.5h353q10 0 16 -5.5t6 -14.5v-29q0 -9 -6 -15t-16 -6h-353q-9 0 -15 6t-6 15zM67 149v28q0 10 6 15.5t15 5.5h353q10 0 16 -5.5t6 -15.5v-28q0 -10 -6 -16t-16 -6h-353q-9 0 -15 6t-6 16z" />
    <glyph glyph-name="greater" unicode="&#x3e;" horiz-adv-x="455" 
d="M63 86v38q0 10 4.5 16.5t17.5 14.5l250 172l-250 172q-12 7 -17 13.5t-5 17.5v38q0 8 5 13t14 5q5 0 13 -4l10 -5l290 -200q15 -10 21 -20t6 -23v-15q0 -13 -6 -23t-21 -19l-290 -200q-15 -10 -23 -10t-13.5 5.5t-5.5 13.5z" />
    <glyph glyph-name="question" unicode="?" horiz-adv-x="491" 
d="M206 170v38q2 49 25.5 85.5t67.5 80.5q34 35 50 57t19 48q1 4 1 12q0 43 -36.5 68t-84.5 25q-52 0 -87 -27t-45 -86q-4 -20 -24 -20h-41q-8 0 -14 5.5t-6 14.5q2 51 29 94t77 69t114 26q68 0 114.5 -23.5t68.5 -61t22 -79.5q0 -47 -21.5 -81.5t-63.5 -80.5
q-36 -38 -53.5 -64.5t-20.5 -58.5q-2 -26 -2 -39q-4 -22 -23 -22h-45q-10 0 -15.5 5.5t-5.5 14.5zM197 21v54q0 10 6 16.5t15 6.5h58q9 0 15.5 -6.5t6.5 -16.5v-54q0 -9 -6.5 -15t-15.5 -6h-58q-9 0 -15 6t-6 15z" />
    <glyph glyph-name="at" unicode="@" horiz-adv-x="772" 
d="M56 174q-3 27 -3 81t3 78q15 131 97.5 208t224.5 77q164 0 246 -74t89 -211q2 -43 2 -65q0 -39 -2 -57q-3 -67 -36 -102.5t-89 -35.5q-40 0 -65 17.5t-37 35.5q-16 -26 -42.5 -44t-74.5 -18q-71 0 -111.5 50t-40.5 140q0 89 41 139.5t110 50.5q34 0 56 -12t39 -33v16
q0 10 6 16t15 6h24q9 0 15.5 -6t6.5 -16v-199q0 -38 16 -58.5t42 -20.5q34 0 46.5 25t13.5 55q1 23 1 58q0 16 -1 53q-9 113 -71.5 169.5t-198.5 56.5q-113 0 -177.5 -59t-77.5 -167q-3 -23 -3 -73t3 -77q12 -107 77.5 -165.5t180.5 -58.5q61 0 100.5 10.5t56.5 20t44 30.5
q1 2 7.5 7t16.5 5h35q8 0 14 -5.5t6 -14.5q0 -7 -4 -14q-44 -47 -109.5 -75t-166.5 -28q-146 0 -228.5 74t-96.5 210zM463 254q0 61 -21 94t-69 33q-90 0 -90 -127q0 -56 22.5 -91t67.5 -35q49 0 69.5 32.5t20.5 93.5z" />
    <glyph glyph-name="A" unicode="A" horiz-adv-x="621" 
d="M19 19l1 10l231 601q7 20 30 20h59q22 0 30 -20l230 -601l2 -10q0 -8 -6 -13.5t-14 -5.5h-43q-9 0 -15.5 5t-7.5 11l-52 134h-308l-51 -134q-7 -16 -23 -16h-45q-7 0 -12.5 5.5t-5.5 13.5zM183 227h255l-128 333z" />
    <glyph glyph-name="B" unicode="B" horiz-adv-x="620" 
d="M82 21v607q0 10 5.5 16t14.5 6h254q98 0 148.5 -47t50.5 -124q0 -52 -24.5 -86.5t-56.5 -50.5q40 -20 67 -60.5t27 -93.5q0 -52 -24 -95t-70.5 -68t-110.5 -25h-261q-9 0 -14.5 6t-5.5 15zM342 374q60 0 91.5 27.5t31.5 76.5t-31 74t-92 25h-173v-203h173zM351 73
q60 0 93.5 32t33.5 83t-33.5 82.5t-93.5 31.5h-182v-229h182z" />
    <glyph glyph-name="C" unicode="C" horiz-adv-x="618" 
d="M57 242q-1 26 -1 82q0 58 1 84q4 117 68.5 184.5t188.5 67.5q83 0 140.5 -29.5t86.5 -77t32 -101.5q0 -8 -6 -13t-14 -5h-47q-9 0 -14.5 4.5t-8.5 15.5q-16 72 -57 100.5t-112 28.5q-162 0 -168 -180q-1 -25 -1 -77t1 -79q6 -179 168 -179q70 0 111.5 28.5t57.5 99.5
q3 11 8.5 15.5t14.5 4.5h47q8 0 14 -5t6 -13q-3 -54 -32 -101.5t-86.5 -76.5t-140.5 -29q-124 0 -188.5 67t-68.5 184z" />
    <glyph glyph-name="D" unicode="D" horiz-adv-x="639" 
d="M82 21v607q0 10 5.5 16t14.5 6h210q140 0 202.5 -62.5t64.5 -188.5q1 -27 1 -73q0 -45 -1 -73q-2 -89 -28.5 -144t-83 -82t-150.5 -27h-215q-9 0 -14.5 6t-5.5 15zM312 77q65 0 103.5 18t56 56.5t19.5 104.5q1 56 1 70q0 15 -1 69q-2 93 -44.5 136t-139.5 43h-138v-497
h143z" />
    <glyph glyph-name="E" unicode="E" horiz-adv-x="562" 
d="M82 21v607q0 10 5.5 16t14.5 6h382q10 0 16 -6t6 -16v-33q0 -10 -6 -15.5t-16 -5.5h-317v-207h297q10 0 16 -6t6 -16v-32q0 -9 -6 -15t-16 -6h-297v-215h324q11 0 17 -6t6 -16v-34q0 -9 -6.5 -15t-16.5 -6h-389q-9 0 -14.5 6t-5.5 15z" />
    <glyph glyph-name="F" unicode="F" horiz-adv-x="542" 
d="M82 21v607q0 10 5.5 16t14.5 6h377q11 0 17 -6t6 -16v-34q0 -10 -6 -16t-17 -6h-311v-220h293q10 0 16 -6t6 -15v-36q0 -9 -6.5 -15t-15.5 -6h-293v-253q0 -9 -6.5 -15t-15.5 -6h-44q-9 0 -14.5 6t-5.5 15z" />
    <glyph glyph-name="G" unicode="G" horiz-adv-x="631" 
d="M58 239q-1 28 -1 87q0 60 1 87q3 114 70.5 180.5t188.5 66.5q82 0 138.5 -30t85 -71.5t30.5 -76.5v-2q0 -7 -6 -12t-13 -5h-52q-9 0 -13 3.5t-8 13.5q-15 44 -54.5 73.5t-107.5 29.5q-78 0 -122.5 -42.5t-47.5 -131.5q-1 -27 -1 -83q0 -55 1 -83q3 -90 47.5 -132.5
t122.5 -42.5q79 0 126.5 43t47.5 130v40h-143q-9 0 -15 6.5t-6 15.5v28q0 9 6 15.5t15 6.5h208q11 0 17 -6t6 -16v-89q0 -75 -31 -132t-90.5 -88t-140.5 -31q-121 0 -188 66.5t-71 181.5z" />
    <glyph glyph-name="H" unicode="H" horiz-adv-x="661" 
d="M82 21v607q0 10 5.5 16t14.5 6h45q10 0 16 -6t6 -16v-258h323v258q0 10 6 16t16 6h44q11 0 17 -6t6 -16v-607q0 -9 -6.5 -15t-16.5 -6h-44q-10 0 -16 6t-6 15v268h-323v-268q0 -9 -6.5 -15t-15.5 -6h-45q-9 0 -14.5 6t-5.5 15z" />
    <glyph glyph-name="I" unicode="I" horiz-adv-x="252" 
d="M82 21v608q0 9 5.5 15t14.5 6h47q10 0 15.5 -5.5t5.5 -15.5v-608q0 -9 -6 -15t-15 -6h-47q-9 0 -14.5 6t-5.5 15z" />
    <glyph glyph-name="J" unicode="J" horiz-adv-x="587" 
d="M36 187q0 8 5.5 14t14.5 6h47q21 0 23 -21q6 -61 47 -89.5t102 -28.5q71 0 109.5 46.5t38.5 125.5v332h-332q-9 0 -15 6t-6 16v35q0 9 6 15t15 6h399q10 0 16 -6t6 -16v-390q0 -74 -28.5 -130t-82.5 -86.5t-127 -30.5q-101 0 -167.5 49.5t-70.5 146.5z" />
    <glyph glyph-name="K" unicode="K" horiz-adv-x="556" 
d="M82 21v607q0 10 5.5 16t14.5 6h44q10 0 16 -6t6 -16v-231l252 238q15 15 36 15h47q7 0 12.5 -5.5t5.5 -12.5q0 -8 -4 -12l-290 -281l309 -307q5 -6 5 -13q0 -8 -5.5 -13.5t-13.5 -5.5h-48q-13 0 -20.5 4t-15.5 11l-270 263v-257q0 -9 -6.5 -15t-15.5 -6h-44q-9 0 -14.5 6
t-5.5 15z" />
    <glyph glyph-name="L" unicode="L" horiz-adv-x="521" 
d="M82 21v608q0 9 5.5 15t14.5 6h47q9 0 14.5 -6t5.5 -15v-551h310q11 0 17 -6t6 -15v-36q0 -9 -6.5 -15t-16.5 -6h-377q-9 0 -14.5 6t-5.5 15z" />
    <glyph glyph-name="M" unicode="M" horiz-adv-x="737" 
d="M82 21v607q0 10 5.5 16t15.5 6h44q17 0 23 -14l198 -380l200 380q7 14 22 14h44q10 0 15.5 -6t5.5 -16v-607q0 -9 -6 -15t-15 -6h-43q-9 0 -15 6t-6 15v462l-158 -307q-10 -20 -30 -20h-28q-20 0 -30 20l-158 307v-462q0 -9 -6 -15t-15 -6h-42q-9 0 -15 6t-6 15z" />
    <glyph glyph-name="N" unicode="N" horiz-adv-x="644" 
d="M82 21v607q0 10 5.5 16t14.5 6h41q9 0 14 -3.5t9 -9.5l312 -479v470q0 10 6 16t15 6h42q10 0 16 -6t6 -16v-606q0 -9 -6 -15.5t-15 -6.5h-42q-16 0 -22 13l-312 475v-467q0 -9 -6 -15t-15 -6h-43q-9 0 -14.5 6t-5.5 15z" />
    <glyph glyph-name="O" unicode="O" horiz-adv-x="627" 
d="M58 246q-1 28 -1 79t1 78q3 127 71.5 192t184.5 65t184 -65t71 -192q2 -54 2 -78q0 -23 -2 -79q-3 -128 -68.5 -191.5t-186.5 -63.5t-187 63.5t-69 191.5zM481 251q2 56 2 74q0 21 -2 74q-3 93 -48 138.5t-119 45.5t-119 -45.5t-48 -138.5q-1 -26 -1 -74q0 -46 1 -74
q3 -93 47.5 -138t119.5 -45q74 0 119 45t48 138z" />
    <glyph glyph-name="P" unicode="P" horiz-adv-x="595" 
d="M82 21v607q0 10 5.5 16t14.5 6h235q105 0 165 -50.5t60 -147.5q0 -96 -60 -146.5t-165 -50.5h-167v-234q0 -9 -6 -15t-15 -6h-47q-9 0 -14.5 6t-5.5 15zM333 331q140 0 140 121q0 60 -35 91.5t-105 31.5h-163v-244h163z" />
    <glyph glyph-name="Q" unicode="Q" horiz-adv-x="627" 
d="M469 -39l-38 53q-49 -23 -117 -23q-121 0 -187 63.5t-69 191.5q-1 28 -1 79t1 78q3 127 71.5 192t184.5 65t184 -65t71 -192q2 -54 2 -78q0 -23 -2 -79q-3 -128 -67 -190l62 -88q3 -5 3 -10q0 -7 -5.5 -12.5t-13.5 -5.5h-47q-10 0 -17.5 6t-14.5 15zM480 251q2 56 2 74
q0 21 -2 74q-2 93 -47 138.5t-119 45.5t-119 -45.5t-48 -138.5q-1 -26 -1 -74q0 -46 1 -74q3 -93 47.5 -138t119.5 -45q74 0 119 45t47 138z" />
    <glyph glyph-name="R" unicode="R" horiz-adv-x="608" 
d="M82 21v607q0 10 5.5 16t14.5 6h227q106 0 166 -49.5t60 -144.5q0 -70 -35.5 -116t-98.5 -63l143 -248q3 -6 3 -10q0 -8 -5.5 -13.5t-13.5 -5.5h-41q-14 0 -21.5 6.5t-14.5 18.5l-137 238h-165v-242q0 -9 -6.5 -15t-15.5 -6h-45q-9 0 -14.5 6t-5.5 15zM325 339
q140 0 140 118t-140 118h-156v-236h156z" />
    <glyph glyph-name="S" unicode="S" horiz-adv-x="576" 
d="M40 164q0 7 5.5 12.5t13.5 5.5h46q17 0 23 -18q9 -40 48.5 -68t112.5 -28q79 0 118 28t39 77q0 31 -19 51.5t-56.5 36t-113.5 37.5q-71 21 -113.5 44t-63.5 57t-21 86q0 50 26.5 89.5t78 62.5t120.5 23q73 0 124.5 -26t78.5 -64.5t29 -77.5q0 -8 -6 -13.5t-14 -5.5h-46
q-8 0 -14.5 4.5t-9.5 13.5q-5 40 -44 66t-98 26q-63 0 -100 -24.5t-37 -72.5q0 -33 17 -53.5t53 -36t104 -36.5q79 -22 124.5 -44t67.5 -55t22 -85q0 -88 -66.5 -136.5t-179.5 -48.5q-76 0 -132.5 24t-85.5 63.5t-31 85.5z" />
    <glyph glyph-name="T" unicode="T" horiz-adv-x="536" 
d="M224 21v549h-179q-10 0 -16 6t-6 16v36q0 10 6 16t16 6h446q10 0 15.5 -6t5.5 -16v-36q0 -10 -6 -16t-15 -6h-179v-549q0 -9 -6.5 -15t-15.5 -6h-45q-9 0 -15 6t-6 15z" />
    <glyph glyph-name="U" unicode="U" horiz-adv-x="650" 
d="M76 251v377q0 10 5.5 16t15.5 6h44q10 0 16.5 -6t6.5 -16v-379q0 -91 42 -135.5t120 -44.5q77 0 119.5 45t42.5 135v379q0 10 5.5 16t15.5 6h45q9 0 15 -6t6 -16v-377q0 -131 -64.5 -195.5t-184.5 -64.5t-185 64.5t-65 195.5z" />
    <glyph glyph-name="V" unicode="V" horiz-adv-x="607" 
d="M242 24l-209 598l-2 10q0 7 6 12.5t13 5.5h45q10 0 16 -5t8 -11l184 -532l185 532q2 6 8 11t16 5h44q8 0 13.5 -5.5t5.5 -12.5t-1 -10l-209 -598q-9 -24 -33 -24h-57q-24 0 -33 24z" />
    <glyph glyph-name="W" unicode="W" horiz-adv-x="742" 
d="M163 24l-120 598l-2 10q0 7 5.5 12.5t12.5 5.5h46q19 0 22 -15l96 -485l103 334q6 22 29 22h32q23 0 30 -22l102 -334l96 485q3 15 23 15h45q7 0 12.5 -5.5t5.5 -12.5q0 -6 -1 -10l-120 -598q-5 -24 -29 -24h-34q-23 0 -30 23l-115 358l-117 -358q-6 -23 -29 -23h-35
q-23 0 -28 24z" />
    <glyph glyph-name="X" unicode="X" horiz-adv-x="586" 
d="M23 19q0 6 4 12l213 300l-203 289q-4 5 -4 12t6 12.5t13 5.5h53q13 0 24 -15l166 -236l165 236q9 15 24 15h49q8 0 13.5 -5.5t5.5 -12.5t-4 -12l-201 -290l213 -299q4 -6 4 -12q0 -8 -6 -13.5t-14 -5.5h-53q-13 0 -24 15l-175 245l-175 -245q-10 -15 -24 -15h-51
q-8 0 -13.5 5.5t-5.5 13.5z" />
    <glyph glyph-name="Y" unicode="Y" horiz-adv-x="599" 
d="M255 21v221l-223 378q-3 5 -3 12t5.5 12.5t12.5 5.5h45q17 0 24 -15l184 -304l183 304q9 15 24 15h45q7 0 13 -5.5t6 -12.5q0 -5 -3 -12l-224 -378v-221q0 -9 -6 -15t-17 -6h-44q-9 0 -15.5 6t-6.5 15z" />
    <glyph glyph-name="Z" unicode="Z" horiz-adv-x="556" 
d="M38 22v37q0 16 6.5 25.5t7.5 10.5l348 477h-332q-9 0 -15.5 6t-6.5 16v34q0 10 6.5 16t15.5 6h418q10 0 16 -6t6 -16v-37q0 -17 -12 -33l-345 -480h345q10 0 16 -6t6 -15v-36q0 -9 -6.5 -15t-15.5 -6h-437q-9 0 -15 6t-6 16z" />
    <glyph glyph-name="bracketleft" unicode="[" horiz-adv-x="300" 
d="M69 -126v826q0 9 5.5 15t14.5 6h165q9 0 15 -6t6 -15v-31q0 -9 -6 -15t-15 -6h-105v-720h105q9 0 15 -6t6 -15v-33q0 -10 -6 -16t-15 -6h-165q-9 0 -14.5 6t-5.5 16z" />
    <glyph glyph-name="backslash" unicode="\" horiz-adv-x="445" 
d="M345 -62l-319 762q-3 8 -3 12q0 7 5.5 12.5t13.5 5.5h34q17 0 24 -16l318 -762q3 -8 3 -11q0 -8 -5.5 -13.5t-13.5 -5.5h-33q-10 0 -16 5t-8 11z" />
    <glyph glyph-name="bracketright" unicode="]" horiz-adv-x="300" 
d="M25 -126v33q0 9 6 15t15 6h105v720h-105q-9 0 -15 6t-6 15v31q0 9 6 15t15 6h165q9 0 14.5 -6t5.5 -15v-826q0 -10 -5.5 -16t-14.5 -6h-165q-9 0 -15 6t-6 16z" />
    <glyph glyph-name="asciicircum" unicode="^" horiz-adv-x="399" 
d="M61 548q0 8 11 18l84 84q9 10 15 12t16 2h26q9 0 15 -2t15 -12l85 -84q10 -10 10 -18q0 -11 -13 -11h-23q-15 0 -26 6l-76 53l-76 -53q-11 -6 -26 -6h-23q-14 0 -14 11z" />
    <glyph glyph-name="underscore" unicode="_" horiz-adv-x="695" 
d="M57 -16v34q0 9 6 14.5t15 5.5h539q9 0 15 -5.5t6 -14.5v-34q0 -9 -6 -15t-15 -6h-539q-9 0 -15 6t-6 15z" />
    <glyph glyph-name="grave" unicode="`" horiz-adv-x="310" 
d="M175 563l-108 88q-5 5 -5 11q0 18 18 18h60q13 0 19.5 -3t15.5 -14l69 -83q5 -5 5 -12q0 -15 -15 -15h-30q-10 0 -16 1.5t-13 8.5z" />
    <glyph glyph-name="a" unicode="a" horiz-adv-x="511" 
d="M35 131q0 61 50.5 100t136.5 52l139 20v27q0 95 -110 95q-43 0 -69 -17t-38 -40q-4 -9 -8 -12.5t-12 -3.5h-36q-8 0 -14 6t-6 15q0 21 20 49.5t61.5 49t102.5 20.5q104 0 149 -48t45 -121v-302q0 -9 -6 -15t-15 -6h-41q-10 0 -15.5 6t-5.5 15v41q-20 -30 -59 -50.5
t-101 -20.5q-45 0 -83.5 18.5t-61.5 50.5t-23 71zM361 215v26l-108 -16q-67 -9 -101.5 -31.5t-34.5 -56.5q0 -38 31 -58t74 -20q61 0 100 39.5t39 116.5z" />
    <glyph glyph-name="b" unicode="b" horiz-adv-x="552" 
d="M152 61v-40q0 -9 -6 -15t-15 -6h-39q-9 0 -15 6t-6 15v617q0 10 6 16t15 6h42q9 0 15 -6t6 -16v-214q52 68 151 68q97 0 146 -63.5t52 -159.5v-27v-28q-3 -96 -52 -159.5t-146 -63.5q-101 0 -154 70zM419 215q1 9 1 27q0 178 -132 178q-63 0 -97 -41.5t-36 -97.5
q-1 -11 -1 -37q0 -25 1 -35q2 -59 35 -102.5t98 -43.5q67 0 97.5 42t33.5 110z" />
    <glyph glyph-name="c" unicode="c" horiz-adv-x="511" 
d="M49 204l-1 38l1 37q3 101 59 157t155 56q67 0 113 -23.5t68.5 -59t24.5 -70.5q1 -8 -6 -14.5t-15 -6.5h-41q-9 0 -14 4t-9 15q-17 46 -46.5 65t-73.5 19q-59 0 -93 -36.5t-37 -110.5l-1 -32l1 -33q3 -74 37 -110.5t93 -36.5q45 0 74 19t46 65q4 11 9 15t14 4h41
q8 0 15 -6.5t6 -14.5q-2 -34 -24.5 -69.5t-68.5 -59.5t-113 -24q-99 0 -155 56t-59 157z" />
    <glyph glyph-name="d" unicode="d" horiz-adv-x="552" 
d="M47 214l-1 28l1 27q4 96 53.5 159.5t145.5 63.5q97 0 151 -68v214q0 10 6 16t15 6h42q9 0 15 -6t6 -16v-617q0 -9 -6 -15t-15 -6h-40q-9 0 -15 6t-6 15v40q-52 -70 -153 -70q-97 0 -146 63t-53 160zM397 209q1 10 1 35q0 26 -1 37q-2 56 -36 97.5t-97 41.5
q-67 0 -97.5 -42t-33.5 -110l-1 -26q0 -179 132 -179q65 0 97.5 43.5t35.5 102.5z" />
    <glyph glyph-name="e" unicode="e" horiz-adv-x="519" 
d="M47 211l-1 31l1 31q6 100 62.5 159.5t151.5 59.5q102 0 158.5 -65t56.5 -176v-17q0 -9 -6 -15t-16 -6h-322v-9q3 -60 37 -102.5t91 -42.5q44 0 71.5 17t41.5 35q8 12 12.5 14t15.5 2h41q9 0 15 -4.5t6 -11.5q0 -21 -25.5 -49.5t-71 -49.5t-105.5 -21q-95 0 -151.5 59
t-62.5 161zM391 276v3q0 65 -35 105.5t-95 40.5t-94.5 -40.5t-34.5 -105.5v-3h259z" />
    <glyph glyph-name="f" unicode="f" horiz-adv-x="355" 
d="M118 21v391h-80q-9 0 -15 5.5t-6 14.5v30q0 9 6 15t15 6h80v47q0 75 36.5 116t120.5 41h55q9 0 15 -6t6 -15v-30q0 -9 -6 -14.5t-15 -5.5h-53q-43 0 -59.5 -22.5t-16.5 -68.5v-42h120q9 0 15 -6t6 -15v-30q0 -9 -6 -14.5t-15 -5.5h-120v-391q0 -9 -6 -15t-16 -6h-40
q-9 0 -15 6t-6 15z" />
    <glyph glyph-name="g" unicode="g" horiz-adv-x="553" 
d="M58 -61q0 8 6.5 14t14.5 6h41q8 0 13.5 -4t9.5 -15q26 -75 118 -75q70 0 103.5 30t33.5 105v64q-54 -69 -151 -69q-98 0 -147 63.5t-52 159.5l-1 26l1 25q3 96 52 159.5t147 63.5t152 -71v40q0 9 6.5 15.5t15.5 6.5h40q9 0 15 -6.5t6 -15.5v-451q0 -214 -216 -214
q-77 0 -123.5 26t-65.5 59.5t-19 57.5zM398 212q1 8 1 32t-1 32q-3 59 -36 101.5t-98 42.5q-67 0 -97 -42.5t-33 -109.5l-1 -24l1 -25q3 -67 33 -109t97 -42q65 0 98 42t36 102z" />
    <glyph glyph-name="h" unicode="h" horiz-adv-x="564" 
d="M71 21v617q0 10 6 16t15 6h43q10 0 15.5 -6t5.5 -16v-216q27 34 63.5 52t90.5 18q89 0 139 -57t50 -151v-263q0 -9 -6 -15t-15 -6h-44q-9 0 -15.5 6t-6.5 15v258q0 67 -32.5 104t-93.5 37q-59 0 -94.5 -37.5t-35.5 -103.5v-258q0 -9 -6 -15t-15 -6h-43q-9 0 -15 6t-6 15z
" />
    <glyph glyph-name="i" unicode="i" horiz-adv-x="223" 
d="M62 595v49q0 9 6 15.5t16 6.5h54q10 0 16.5 -6.5t6.5 -15.5v-49q0 -9 -6.5 -15t-16.5 -6h-54q-10 0 -16 6t-6 15zM70 21v441q0 9 6 15t15 6h41q9 0 15 -6t6 -15v-441q0 -9 -6 -15t-15 -6h-41q-9 0 -15 6t-6 15z" />
    <glyph glyph-name="j" unicode="j" horiz-adv-x="234" 
d="M71 595v49q0 9 6 15.5t15 6.5h58q9 0 15 -6.5t6 -15.5v-49q0 -9 -6 -15t-15 -6h-58q-9 0 -15 6t-6 15zM-31 -155v30q0 9 5.5 14.5t15.5 5.5h13q45 0 60.5 23.5t15.5 69.5v474q0 10 6 15.5t15 5.5h42q9 0 15.5 -6t6.5 -15v-475q0 -164 -157 -164h-17q-10 0 -15.5 6.5
t-5.5 15.5z" />
    <glyph glyph-name="k" unicode="k" horiz-adv-x="477" 
d="M71 21v617q0 10 6 16t15 6h40q9 0 15 -6t6 -16v-324l186 153q14 11 19.5 13.5t17.5 2.5h47q8 0 13 -5t5 -14t-10 -18l-217 -178l240 -231q10 -10 10 -17q0 -9 -5 -14.5t-13 -5.5h-46q-14 0 -20 3t-17 13l-210 199v-194q0 -9 -6 -15t-15 -6h-40q-9 0 -15 6t-6 15z" />
    <glyph glyph-name="l" unicode="l" horiz-adv-x="224" 
d="M71 21v617q0 10 6 16t15 6h41q9 0 15 -6t6 -16v-617q0 -9 -6 -15t-15 -6h-41q-9 0 -15 6t-6 15z" />
    <glyph glyph-name="m" unicode="m" horiz-adv-x="825" 
d="M70 21v441q0 9 6 15t15 6h39q9 0 14.5 -6t5.5 -15v-32q51 62 136 62q102 0 145 -85q22 39 63.5 62t92.5 23q76 0 124.5 -52t48.5 -150v-269q0 -9 -6 -15t-15 -6h-40q-10 0 -16 6t-6 15v260q0 75 -30.5 107t-80.5 32q-45 0 -77 -33t-32 -106v-260q0 -9 -6 -15t-15 -6h-41
q-9 0 -15.5 6t-6.5 15v260q0 74 -32 106.5t-79 32.5q-45 0 -77 -32.5t-32 -105.5v-261q0 -9 -6 -15t-15 -6h-41q-9 0 -15 6t-6 15z" />
    <glyph glyph-name="n" unicode="n" horiz-adv-x="561" 
d="M70 21v441q0 9 6 15t15 6h40q10 0 15.5 -5.5t5.5 -15.5v-41q28 34 65 52.5t91 18.5q90 0 139 -57t49 -151v-263q0 -9 -6 -15t-15 -6h-43q-9 0 -15 6t-6 15v258q0 67 -32.5 104t-93.5 37q-59 0 -94.5 -37.5t-35.5 -103.5v-258q0 -9 -6 -15t-15 -6h-43q-9 0 -15 6t-6 15z
" />
    <glyph glyph-name="o" unicode="o" horiz-adv-x="531" 
d="M49 202l-1 40l1 39q4 96 60 153.5t157 57.5q100 0 156 -57.5t60 -153.5q2 -20 2 -39q0 -20 -2 -40q-4 -96 -59 -153.5t-157 -57.5t-157.5 57.5t-59.5 153.5zM398 206q1 10 1 36t-1 35q-3 70 -38 108t-94 38q-60 0 -94.5 -38t-37.5 -108l-1 -35l1 -36q3 -70 37.5 -108
t94.5 -38q59 0 94 38t38 108z" />
    <glyph glyph-name="p" unicode="p" horiz-adv-x="552" 
d="M71 -155v617q0 10 6 15.5t15 5.5h39q10 0 15.5 -5.5t5.5 -15.5v-41q54 71 154 71q97 0 146 -61.5t52 -157.5v-31v-32q-3 -95 -52 -157t-146 -62q-100 0 -151 70v-216q0 -9 -6 -15.5t-15 -6.5h-42q-9 0 -15 6t-6 16zM419 215q1 9 1 27q0 178 -132 178q-65 0 -98 -43
t-35 -102q-1 -10 -1 -36t1 -36q2 -57 36 -98.5t97 -41.5q67 0 97.5 42t33.5 110z" />
    <glyph glyph-name="q" unicode="q" horiz-adv-x="552" 
d="M398 -155v216q-53 -70 -151 -70q-97 0 -146.5 62t-52.5 157l-1 32l1 31q4 96 53 157.5t146 61.5q100 0 152 -71v41q0 9 6.5 15t15.5 6h40q9 0 15 -6t6 -15v-617q0 -9 -6 -15.5t-15 -6.5h-42q-9 0 -15 6t-6 16zM398 203q1 10 1 36t-1 36q-3 59 -35.5 102t-97.5 43
q-67 0 -97.5 -42t-33.5 -110l-1 -26q0 -179 132 -179q63 0 97 41.5t36 98.5z" />
    <glyph glyph-name="r" unicode="r" horiz-adv-x="349" 
d="M70 21v440q0 9 6 15.5t15 6.5h39q10 0 16 -6t6 -16v-41q38 63 129 63h37q10 0 15.5 -5.5t5.5 -15.5v-35q0 -9 -5.5 -15t-15.5 -6h-53q-51 0 -80.5 -29.5t-29.5 -81.5v-274q0 -9 -6.5 -15t-15.5 -6h-42q-9 0 -15 6t-6 15z" />
    <glyph glyph-name="s" unicode="s" horiz-adv-x="472" 
d="M40 104q0 9 6.5 14.5t13.5 5.5h39q6 0 9 -2t9 -9q21 -26 47.5 -40.5t71.5 -14.5q50 0 80.5 18.5t30.5 53.5q0 23 -13 37t-43.5 25t-89.5 24q-81 18 -114.5 51.5t-33.5 86.5q0 34 20.5 66t61 52t95.5 20q59 0 100.5 -19.5t62 -45.5t20.5 -43q0 -9 -6 -14.5t-14 -5.5h-35
q-13 0 -19 10q-16 18 -26.5 28t-31 16.5t-51.5 6.5q-45 0 -69 -19t-24 -50q0 -20 10 -33.5t39 -25t85 -23.5q89 -19 125.5 -53t36.5 -88q0 -40 -23 -72.5t-68 -51t-107 -18.5q-64 0 -108 21t-65.5 47.5t-21.5 44.5z" />
    <glyph glyph-name="t" unicode="t" horiz-adv-x="360" 
d="M111 163v249h-73q-9 0 -14.5 5.5t-5.5 14.5v30q0 9 5.5 15t14.5 6h73v155q0 10 6 16t15 6h41q9 0 15 -6t6 -16v-155h115q10 0 16 -6t6 -15v-30q0 -9 -6 -14.5t-16 -5.5h-115v-243q0 -47 15.5 -71.5t52.5 -24.5h57q9 0 14.5 -6t5.5 -15v-31q0 -9 -5.5 -15t-14.5 -6h-64
q-144 0 -144 163z" />
    <glyph glyph-name="u" unicode="u" horiz-adv-x="557" 
d="M65 200v262q0 9 6 15t15 6h43q9 0 15 -6t6 -15v-258q0 -141 123 -141q60 0 94.5 37.5t34.5 103.5v258q0 9 6 15t16 6h42q10 0 16 -6t6 -15v-441q0 -9 -6 -15t-16 -6h-40q-9 0 -15 6t-6 15v42q-27 -36 -63 -54t-92 -18q-88 0 -136.5 57t-48.5 152z" />
    <glyph glyph-name="v" unicode="v" horiz-adv-x="513" 
d="M203 23l-172 431q-1 3 -1 10q0 8 5.5 13.5t12.5 5.5h43q15 0 22 -15l143 -370l143 370q2 6 8 10.5t15 4.5h42q8 0 13.5 -5.5t5.5 -13.5l-2 -10l-172 -431q-10 -23 -34 -23h-37q-24 0 -35 23z" />
    <glyph glyph-name="w" unicode="w" horiz-adv-x="743" 
d="M168 23l-132 431l-2 10q0 8 6 13.5t14 5.5h38q9 0 15 -5t7 -10l105 -355l112 351q2 7 8.5 13t17.5 6h29q12 0 18.5 -6t7.5 -13l112 -351l105 355q1 5 7 10t15 5h38q9 0 14.5 -5.5t5.5 -13.5l-2 -10l-132 -431q-4 -12 -10.5 -17.5t-19.5 -5.5h-33q-24 0 -32 23l-108 337
l-109 -337q-8 -23 -32 -23h-33q-13 0 -19.5 5.5t-10.5 17.5z" />
    <glyph glyph-name="x" unicode="x" horiz-adv-x="499" 
d="M28 20q0 8 6 17l162 210l-151 200q-8 10 -8 17q0 8 6 13.5t14 5.5h44q14 0 24 -15l126 -162l125 162q6 8 11 11.5t13 3.5h43q8 0 13.5 -5.5t5.5 -13.5q0 -9 -7 -17l-153 -202l162 -208q6 -9 6 -17q0 -9 -5.5 -14.5t-13.5 -5.5h-46q-14 0 -24 14l-133 172l-133 -172
q-5 -7 -10.5 -10.5t-13.5 -3.5h-44q-8 0 -13.5 5.5t-5.5 14.5z" />
    <glyph glyph-name="y" unicode="y" horiz-adv-x="510" 
d="M135 -158q0 3 4 17l73 170l-178 419q-5 11 -5 16q1 8 6.5 13.5t12.5 5.5h43q15 0 22 -15l143 -342l147 342q8 15 22 15h42q8 0 13.5 -5.5t5.5 -13.5q0 -6 -5 -16l-263 -610q-4 -7 -9.5 -11t-13.5 -4h-41q-8 0 -13.5 6t-5.5 13z" />
    <glyph glyph-name="z" unicode="z" horiz-adv-x="471" 
d="M38 21v31q0 7 4 15t9 15l259 330h-242q-9 0 -15 6t-6 15v29q0 9 6 15t15 6h329q9 0 15 -6t6 -15v-33q0 -10 -13 -29l-255 -328h265q10 0 16 -6t6 -16v-29q0 -9 -6 -15t-16 -6h-356q-9 0 -15 6t-6 15z" />
    <glyph glyph-name="braceleft" unicode="{" horiz-adv-x="340" 
d="M109 122q0 47 -12 73.5t-39 44.5l-7 3q-13 8 -18 16t-5 20v16q0 12 5 20t18 16l8 4q26 18 38 44t12 73q0 92 15 150.5t54.5 88.5t111.5 30h4q10 0 15.5 -5.5t5.5 -15.5v-31q0 -9 -5.5 -15t-14.5 -6h-4q-45 0 -66.5 -22t-28.5 -65.5t-7 -125.5q0 -109 -69 -148
q69 -39 69 -148q0 -82 7 -126t28.5 -65t66.5 -22h4q9 -1 14.5 -6.5t5.5 -14.5v-32q0 -10 -5.5 -15.5t-15.5 -5.5h-4q-71 0 -110.5 31t-55 89t-15.5 150z" />
    <glyph glyph-name="bar" unicode="|" horiz-adv-x="215" 
d="M70 -172v983q0 9 5.5 15t14.5 6h34q10 0 16 -6t6 -15v-983q0 -9 -6 -15t-16 -6h-34q-9 0 -14.5 6t-5.5 15z" />
    <glyph glyph-name="braceright" unicode="}" horiz-adv-x="340" 
d="M230 451q0 -47 12.5 -73.5t39.5 -43.5l7 -4q13 -8 18 -15.5t5 -19.5v-17q0 -11 -5 -19t-18 -17l-8 -3q-26 -19 -38.5 -45t-12.5 -73q0 -92 -15 -149.5t-54.5 -88.5t-110.5 -31h-5q-9 0 -15 5.5t-6 15.5v32q0 9 6 14.5t15 6.5h4q45 1 66.5 22t28.5 65t7 126q0 108 69 147
q-69 39 -69 148q0 82 -7 126t-28.5 65.5t-66.5 22.5h-4q-9 0 -15 6t-6 15v31q0 10 6 15.5t15 5.5h4q71 0 111 -30.5t55 -89t15 -150.5z" />
    <glyph glyph-name="asciitilde" unicode="~" horiz-adv-x="521" 
d="M68 243v35q0 13 14.5 26t38 21.5t49.5 8.5q27 0 48 -5t50 -13q27 -9 45 -13t40 -4q20 0 34 6t23.5 13t14.5 10q9 4 13 4q16 0 16 -19v-34q0 -13 -14.5 -25.5t-38 -21t-49.5 -8.5t-46.5 4t-48.5 13q-25 8 -45 12t-43 4q-20 0 -34 -6t-24 -12.5t-13 -9.5q-8 -4 -14 -4
q-8 0 -12 5t-4 13z" />
    <glyph glyph-name="uni00A0" unicode="&#xa0;" horiz-adv-x="229" 
 />
    <glyph glyph-name="exclamdown" unicode="&#xa1;" horiz-adv-x="218" 
d="M159 461v-57q0 -9 -6 -15t-16 -6h-55q-10 0 -16.5 6t-6.5 15v57q0 9 6.5 15t16.5 6h55q10 0 16 -6t6 -15zM150 308v-455q0 -10 -5.5 -15.5t-15.5 -5.5h-40q-9 0 -15 6t-6 15v455q0 10 6 16t15 6h40q10 0 15.5 -5.5t5.5 -16.5z" />
    <glyph glyph-name="cent" unicode="&#xa2;" horiz-adv-x="518" 
d="M221 -72v66q-78 11 -122.5 66t-46.5 144l-1 38l1 37q2 89 47 144t122 66v56q0 11 6 16.5t15 5.5h36q9 0 15 -6t6 -16v-55q60 -8 99 -35t56.5 -59.5t17.5 -58.5q0 -8 -6.5 -13.5t-14.5 -5.5h-41q-10 0 -14.5 4t-9.5 15q-31 84 -125 84q-54 0 -88 -36.5t-36 -110.5l-1 -32
l1 -33q2 -74 36 -110.5t88 -36.5q46 0 77.5 19.5t47.5 64.5q5 11 9.5 15t14.5 4h41q8 0 14.5 -5.5t6.5 -13.5q0 -26 -17.5 -59t-56.5 -60t-99 -34v-65q0 -9 -6 -15t-15 -6h-36q-9 0 -15 5.5t-6 15.5z" />
    <glyph glyph-name="sterling" unicode="&#xa3;" horiz-adv-x="627" 
d="M290 51q-31 22 -50 32t-42 10q-36 0 -51.5 -19t-22.5 -56q-1 -8 -5 -13t-14 -5h-41q-8 0 -13 5t-5 13q2 61 31.5 97.5t76.5 48.5q-1 30 -11 86q-1 10 -5 32h-70q-9 0 -15.5 6t-6.5 16v30q0 9 6.5 15t15.5 6h59q-3 31 -3 67q0 106 56.5 172.5t165.5 66.5q69 0 119.5 -27.5
t77 -74.5t27.5 -104q0 -8 -5.5 -14t-13.5 -6h-46q-8 0 -15 5.5t-9 14.5q-23 129 -136 129q-64 0 -97.5 -44.5t-33.5 -118.5q0 -35 2 -66h182q9 0 15 -6t6 -15v-30q0 -10 -6 -16t-15 -6h-173q11 -78 13 -120q26 -5 46.5 -17t48.5 -33q27 -21 46 -31t43 -10q37 0 53.5 20
t25.5 59q1 4 5.5 9.5t10.5 5.5h40q9 0 13.5 -5t4.5 -12q-1 -73 -42.5 -113.5t-104.5 -40.5q-41 0 -71 14.5t-67 42.5z" />
    <glyph glyph-name="currency" unicode="&#xa4;" horiz-adv-x="545" 
d="M68 95q-7 8 -7 15q0 8 7 14l40 40q-36 50 -36 115q0 64 36 115l-40 39q-7 8 -7 16q0 6 7 15l20 20q7 7 15 7q9 0 15 -7l40 -41q52 37 115 37q62 0 114 -37l40 41q7 7 15 7q9 0 15 -7l21 -20q7 -7 7 -15q0 -10 -7 -16l-40 -39q36 -53 36 -115q0 -63 -36 -115l40 -40
q7 -5 7 -14t-7 -15l-21 -22q-6 -6 -15 -6q-6 0 -15 6l-40 41q-50 -37 -114 -37q-65 0 -115 37l-40 -41q-7 -6 -15 -6q-6 0 -15 6zM403 279q0 35 -17.5 65t-47.5 47.5t-65 17.5t-65.5 -17.5t-47.5 -47.5t-17 -65q0 -36 17 -65.5t47.5 -47t65.5 -17.5t65 17.5t47.5 47
t17.5 65.5z" />
    <glyph glyph-name="yen" unicode="&#xa5;" horiz-adv-x="569" 
d="M535 620l-188 -327h115q9 0 15 -6t6 -16v-30q0 -10 -6 -16t-15 -6h-133v-46h133q9 0 15 -5.5t6 -15.5v-30q0 -10 -6 -16t-15 -6h-133v-79q0 -9 -6 -15t-16 -6h-45q-9 0 -15 6t-6 15v79h-133q-10 0 -15.5 6t-5.5 16v30q0 10 5.5 15.5t15.5 5.5h133v46h-133q-10 0 -15.5 6
t-5.5 16v30q0 10 5.5 16t15.5 6h115l-188 327q-3 7 -3 12q0 7 5.5 12.5t12.5 5.5h47q16 0 24 -15l164 -282l164 282q9 15 25 15h45q8 0 14 -5.5t6 -12.5q0 -5 -4 -12z" />
    <glyph glyph-name="brokenbar" unicode="&#xa6;" horiz-adv-x="220" 
d="M72 463v286q0 9 6 15t15 6h34q10 0 16 -6t6 -15v-286q0 -10 -6 -16t-16 -6h-34q-9 0 -15 6t-6 16zM72 21v286q0 10 6 16t15 6h34q10 0 16 -6t6 -16v-286q0 -9 -6 -15t-16 -6h-34q-9 0 -15 6t-6 15z" />
    <glyph glyph-name="section" unicode="&#xa7;" horiz-adv-x="527" 
d="M66 -2v2q0 7 6 12t14 5h39q9 0 14.5 -4t9.5 -14q10 -28 33.5 -44.5t74.5 -16.5q49 0 74 24t25 61q0 26 -10.5 41t-35.5 26.5t-78 26.5q-71 21 -112.5 45t-60.5 57t-19 82q0 69 71 123q-23 28 -23 79q0 40 20.5 76t61.5 58.5t98 22.5q62 0 105 -20t64.5 -49.5t23.5 -58.5
v-2q0 -8 -6 -12.5t-15 -4.5h-39q-8 0 -13.5 4t-9.5 13q-10 28 -33.5 45t-75.5 17q-48 0 -73 -24.5t-25 -61.5q0 -26 10 -40.5t35.5 -26.5t77.5 -27q72 -21 113.5 -44.5t60.5 -56.5t19 -82q0 -69 -71 -122q22 -30 22 -80q0 -41 -20 -76.5t-61 -58t-99 -22.5q-61 0 -104 20
t-64.5 49t-23.5 59zM408 228q0 27 -11 46t-42 35.5t-89 34.5q-55 15 -93 34q-28 -17 -41 -34t-13 -41q0 -27 11 -46t42 -36.5t89 -34.5q53 -16 93 -35q28 17 41 34.5t13 42.5z" />
    <glyph glyph-name="dieresis" unicode="&#xa8;" horiz-adv-x="370" 
d="M62 598v49q0 9 5.5 15t15.5 6h48q9 0 15 -6t6 -15v-49q0 -9 -6 -14.5t-15 -5.5h-48q-10 0 -15.5 5.5t-5.5 14.5zM217 598v49q0 9 6 15t15 6h49q9 0 15 -6t6 -15v-49q0 -9 -6 -14.5t-15 -5.5h-49q-9 0 -15 5.5t-6 14.5z" />
    <glyph glyph-name="copyright" unicode="&#xa9;" horiz-adv-x="768" 
d="M50 325q0 91 45 167.5t122 122t168 45.5t167.5 -45.5t121.5 -122t45 -167.5t-45 -167.5t-121.5 -121.5t-167.5 -45t-168 45t-122 121.5t-45 167.5zM657 325q0 74 -37 138t-99 101.5t-136 37.5q-75 0 -137.5 -37.5t-99.5 -101.5t-37 -138t37 -137.5t99.5 -101.5t137.5 -38
q74 0 136 38t99 101.5t37 137.5zM231 294l-1 32l1 33q3 63 44 104.5t110 41.5q48 0 82 -15.5t50.5 -39.5t17.5 -48q0 -9 -5.5 -14.5t-14.5 -5.5h-29q-8 0 -13 4.5t-9 13.5q-8 22 -27 33t-52 11q-45 0 -64 -25.5t-21 -60.5l-1 -32l1 -32q2 -35 21 -60.5t64 -25.5q33 0 52 11
t27 33q4 9 9 13.5t13 4.5h29q9 0 14.5 -5.5t5.5 -14.5q-1 -24 -17.5 -48t-50.5 -39.5t-82 -15.5q-69 0 -110 41.5t-44 105.5z" />
    <glyph glyph-name="ordfeminine" unicode="&#xaa;" horiz-adv-x="338" 
d="M48 470q0 35 28 58t77 30l58 9q0 32 -42 32q-19 0 -28.5 -5t-11.5 -6q-11 -7 -19 -7h-27q-8 0 -13.5 3.5t-5.5 10.5q0 10 14 25t38.5 25t55.5 10q49 0 77 -27.5t28 -72.5v-132q0 -9 -5.5 -14.5t-14.5 -5.5h-27q-8 0 -13.5 5.5t-5.5 14.5v7q-8 -13 -29.5 -22t-45.5 -9
q-40 0 -64 20t-24 51zM211 517l-41 -6q-33 -6 -44.5 -15t-11.5 -23q0 -9 10 -15t25 -6q31 0 46.5 18.5t15.5 46.5z" />
    <glyph glyph-name="guillemotleft" unicode="&#xab;" horiz-adv-x="565" 
d="M234 89l-179 174q-13 13 -15 31v23q2 18 15 31l179 174q12 10 21 10q8 0 13.5 -5.5t5.5 -13.5v-35q0 -11 -3.5 -18.5t-13.5 -16.5l-142 -137l142 -138q10 -9 13.5 -16t3.5 -19v-35q0 -8 -5.5 -13.5t-13.5 -5.5q-7 0 -21 10zM472 89l-179 174q-15 15 -15 31v23q0 17 15 31
l179 174q12 10 20 10q9 0 14.5 -5.5t5.5 -13.5v-35q0 -11 -4 -18.5t-13 -16.5l-142 -137l142 -138q9 -9 13 -16t4 -19v-35q0 -8 -5.5 -13.5t-14.5 -5.5q-6 0 -20 10z" />
    <glyph glyph-name="logicalnot" unicode="&#xac;" horiz-adv-x="537" 
d="M396 161v93h-310q-9 0 -15 6t-6 15v29q0 9 6 15t15 6h363q10 0 15.5 -5.5t5.5 -15.5v-143q0 -10 -6 -15.5t-15 -5.5h-32q-9 0 -15 5.5t-6 15.5z" />
    <glyph glyph-name="uni00AD" unicode="&#xad;" horiz-adv-x="232" 
 />
    <glyph glyph-name="registered" unicode="&#xae;" horiz-adv-x="768" 
d="M50 325q0 91 45 167.5t122 122t168 45.5t167.5 -45.5t121.5 -122t45 -167.5t-45 -167.5t-121.5 -121.5t-167.5 -45t-168 45t-122 121.5t-45 167.5zM657 325q0 74 -37 138t-99 101.5t-136 37.5q-75 0 -137.5 -37.5t-99.5 -101.5t-37 -138t37 -137.5t99.5 -101.5t137.5 -38
q74 0 136 38t99 101.5t37 137.5zM256 177v299q0 9 6 14.5t15 5.5h122q58 0 94 -26t36 -83q0 -36 -18 -60.5t-47 -36.5l60 -100q4 -6 4 -13q0 -9 -5.5 -15t-15.5 -6h-24q-17 0 -27 18l-60 104h-73v-101q0 -10 -5.5 -15.5t-14.5 -5.5h-26q-9 0 -15 5.5t-6 15.5zM397 338
q63 0 63 49q0 22 -14.5 36t-48.5 14h-74v-99h74z" />
    <glyph glyph-name="macron" unicode="&#xaf;" horiz-adv-x="370" 
d="M62 595v27q0 9 5.5 14.5t15.5 5.5h204q9 0 14.5 -5.5t5.5 -14.5v-27q0 -10 -5.5 -15.5t-14.5 -5.5h-204q-10 0 -15.5 5.5t-5.5 15.5z" />
    <glyph glyph-name="degree" unicode="&#xb0;" horiz-adv-x="360" 
d="M44 529q0 37 18 66.5t49 47t68 17.5t68.5 -17.5t49.5 -47t18 -66.5t-18 -67t-49.5 -47t-68.5 -17t-68 17t-49 47t-18 67zM250 529q0 31 -19.5 50.5t-51.5 19.5q-31 0 -50.5 -19.5t-19.5 -50.5q0 -32 19.5 -51.5t50.5 -19.5q32 0 51.5 19.5t19.5 51.5z" />
    <glyph glyph-name="plusminus" unicode="&#xb1;" horiz-adv-x="519" 
d="M223 200v144h-142q-9 0 -15.5 6t-6.5 15v28q0 9 6.5 14.5t15.5 5.5h142v141q0 9 6 15t15 6h32q9 0 15 -6t6 -15v-141h142q10 0 15.5 -5.5t5.5 -14.5v-28q0 -9 -5.5 -15t-15.5 -6h-142v-144q0 -10 -6 -16t-15 -6h-32q-9 0 -15 6t-6 16zM69 21v28q0 10 6 16t15 6h340
q9 0 15 -6t6 -16v-28q0 -9 -6 -15t-15 -6h-340q-9 0 -15 6t-6 15z" />
    <glyph glyph-name="uni00B2" unicode="&#xb2;" horiz-adv-x="317" 
d="M28 346v19q0 8 4.5 14.5t17.5 17.5l43 30q49 35 71.5 53t34 34.5t11.5 36.5q0 21 -15.5 33.5t-37.5 12.5q-20 0 -32 -6.5t-15 -11.5t-10 -18q-5 -10 -10 -13.5t-12 -3.5h-25q-17 0 -17 16q0 24 17 46t44 35.5t60 13.5q53 0 85.5 -30t32.5 -73q0 -33 -14.5 -57.5
t-42.5 -48t-83 -61.5h133q10 0 15.5 -6t5.5 -15v-18q0 -10 -5.5 -15.5t-15.5 -5.5h-220q-9 0 -14.5 5.5t-5.5 15.5z" />
    <glyph glyph-name="uni00B3" unicode="&#xb3;" horiz-adv-x="317" 
d="M25 398v1q0 7 5.5 11.5t10.5 4.5h23q12 0 23 -11l10 -10t20.5 -11t34.5 -4q29 0 47.5 11t18.5 31q0 22 -15.5 32t-45.5 10h-38q-9 0 -15 5.5t-6 14.5v18q0 9 12 20l75 69h-125q-9 0 -14.5 5.5t-5.5 14.5v20q0 9 5.5 14.5t14.5 5.5h191q9 0 14.5 -5.5t5.5 -14.5v-18
q0 -10 -2.5 -17.5t-12.5 -15.5l-66 -61q47 -3 70.5 -29t23.5 -68q0 -48 -34 -74t-97 -26q-60 0 -93 22.5t-35 54.5z" />
    <glyph glyph-name="acute" unicode="&#xb4;" horiz-adv-x="310" 
d="M62 568q0 7 5 12l69 83q9 11 15.5 14t18.5 3h60q18 0 18 -18q0 -6 -5 -11l-106 -88q-8 -7 -14.5 -8.5t-16.5 -1.5h-29q-15 0 -15 15z" />
    <glyph glyph-name="uni00B5" unicode="&#xb5;" horiz-adv-x="562" 
d="M67 -164v626q0 9 6 15t15 6h44q9 0 15 -6t6 -15v-258q0 -42 18.5 -74t48 -49.5t61.5 -17.5q33 0 62.5 17.5t48 49.5t18.5 74v258q0 9 6 15t15 6h43q9 0 15 -6t6 -15v-441q0 -9 -6 -15t-15 -6h-40q-9 0 -15.5 6t-6.5 15v42q-25 -32 -56.5 -50t-77.5 -18q-42 0 -71.5 15.5
t-53.5 43.5v-218q0 -10 -6 -16t-15 -6h-44q-9 0 -15 6t-6 16z" />
    <glyph glyph-name="paragraph" unicode="&#xb6;" horiz-adv-x="490" 
d="M196 -72v387q-46 0 -84.5 22.5t-60.5 61.5t-22 84q0 46 22 84.5t60.5 60.5t84.5 22h201q9 0 15 -6t6 -15v-701q0 -9 -6 -15t-15 -6h-32q-9 0 -15 5.5t-6 15.5v654h-74v-654q0 -9 -6 -15t-15 -6h-32q-9 0 -15 5.5t-6 15.5z" />
    <glyph glyph-name="periodcentered" unicode="&#xb7;" horiz-adv-x="307" 
d="M54 286q0 41 29 70.5t70 29.5t70.5 -29.5t29.5 -70.5t-29.5 -69.5t-70.5 -28.5t-70 28.5t-29 69.5z" />
    <glyph glyph-name="cedilla" unicode="&#xb8;" horiz-adv-x="292" 
d="M62 -164q0 4 4 7l14 13q4 4 8 4t13.5 -5.5t17.5 -9.5t22 -4q17 0 27.5 10t10.5 25t-10.5 24t-27.5 9q-10 0 -23.5 -4t-18.5 -4q-8 0 -13 5l-15 17q-3 4 -3 8q0 5 6 20l33 74h56l-39 -77q13 7 34 7q32 0 51.5 -21.5t19.5 -56.5t-22 -58t-64 -23q-32 0 -56.5 13.5
t-24.5 26.5z" />
    <glyph glyph-name="uni00B9" unicode="&#xb9;" horiz-adv-x="225" 
d="M115 346v223l-56 -42q-4 -4 -12 -4q-9 0 -16 8l-11 15q-5 7 -5 13q0 10 8 16l92 69q9 6 22 6h24q9 0 14.5 -5.5t5.5 -14.5v-284q0 -10 -5.5 -15.5t-14.5 -5.5h-25q-10 0 -15.5 5.5t-5.5 15.5z" />
    <glyph glyph-name="ordmasculine" unicode="&#xba;" horiz-adv-x="334" 
d="M51 502l-1 25l1 25q3 50 35 76.5t81 26.5t81.5 -26.5t34.5 -76.5q1 -5 1 -25q0 -21 -1 -25q-2 -51 -32.5 -77t-83.5 -26q-52 0 -82.5 26t-33.5 77zM216 506q1 5 1 21t-1 20q-1 23 -13.5 36.5t-35.5 13.5t-35 -13.5t-14 -36.5l-1 -20l1 -21q3 -50 49 -50q47 0 49 50z" />
    <glyph glyph-name="guillemotright" unicode="&#xbb;" horiz-adv-x="565" 
d="M53 98v35q0 12 3.5 19t13.5 16l142 138l-142 137q-10 9 -13.5 16.5t-3.5 18.5v35q0 8 5.5 13.5t13.5 5.5q9 0 21 -10l179 -174q15 -14 15 -31v-23q0 -16 -15 -31l-179 -174q-14 -10 -21 -10q-8 0 -13.5 5.5t-5.5 13.5zM291 98v35q0 12 3.5 19t12.5 16l143 138l-143 137
q-9 9 -12.5 16.5t-3.5 18.5v35q0 8 5.5 13.5t13.5 5.5q9 0 21 -10l179 -174q13 -13 15 -31v-23q-2 -18 -15 -31l-179 -174q-14 -10 -21 -10q-8 0 -13.5 5.5t-5.5 13.5z" />
    <glyph glyph-name="onequarter" unicode="&#xbc;" horiz-adv-x="677" 
d="M115 346v223l-56 -42q-4 -4 -12 -4q-9 0 -16 8l-11 15q-5 7 -5 13q0 10 8 16l92 69q9 6 22 6h24q9 0 14.5 -5.5t5.5 -14.5v-284q0 -10 -5.5 -15.5t-14.5 -5.5h-25q-10 0 -15.5 5.5t-5.5 15.5zM31 19q0 5 4 10l458 604q7 10 13 13.5t17 3.5h25q9 0 14.5 -5t5.5 -13
q0 -6 -4 -10l-459 -604q-7 -10 -13 -14t-17 -4h-26q-8 0 -13 5t-5 14zM509 19v44h-136q-9 0 -15 5.5t-6 15.5v20q0 13 12 28l125 174q12 17 28 17h37q9 0 14.5 -5.5t5.5 -14.5v-180h33q9 0 14.5 -5.5t5.5 -14.5v-19q0 -10 -5.5 -15.5t-14.5 -5.5h-33v-44q0 -10 -5.5 -15.5
t-14.5 -5.5h-24q-9 0 -15 5.5t-6 15.5zM430 123h80v116z" />
    <glyph glyph-name="onehalf" unicode="&#xbd;" horiz-adv-x="684" 
d="M115 346v223l-56 -42q-4 -4 -12 -4q-9 0 -16 8l-11 15q-5 7 -5 13q0 10 8 16l92 69q9 6 22 6h24q9 0 14.5 -5.5t5.5 -14.5v-284q0 -10 -5.5 -15.5t-14.5 -5.5h-25q-10 0 -15.5 5.5t-5.5 15.5zM31 19q0 5 4 10l458 604q7 10 13 13.5t17 3.5h25q9 0 14.5 -5t5.5 -13
q0 -6 -4 -10l-459 -604q-7 -10 -13 -14t-17 -4h-26q-8 0 -13 5t-5 14zM367 21v19q0 7 4.5 14t17.5 18l43 30q49 35 71.5 53t34 34.5t11.5 36.5q0 21 -15.5 33.5t-37.5 12.5q-20 0 -32 -6.5t-15 -11.5t-10 -18q-5 -10 -10 -13.5t-12 -3.5h-25q-17 0 -17 16q0 24 17 46
t44 35.5t60 13.5q53 0 85.5 -30.5t32.5 -72.5q0 -33 -14.5 -57.5t-42.5 -48t-83 -61.5h133q10 0 15.5 -6t5.5 -15v-18q0 -10 -5.5 -15.5t-15.5 -5.5h-220q-9 0 -14.5 5.5t-5.5 15.5z" />
    <glyph glyph-name="threequarters" unicode="&#xbe;" horiz-adv-x="754" 
d="M25 398v1q0 7 5.5 11.5t10.5 4.5h23q12 0 23 -11l10 -10t20.5 -11t34.5 -4q29 0 47.5 11t18.5 31q0 22 -15.5 32t-45.5 10h-38q-9 0 -15 5.5t-6 14.5v18q0 9 12 20l75 69h-125q-9 0 -14.5 5.5t-5.5 14.5v20q0 9 5.5 14.5t14.5 5.5h191q9 0 14.5 -5.5t5.5 -14.5v-18
q0 -10 -2.5 -17.5t-12.5 -15.5l-66 -61q47 -3 70.5 -29t23.5 -68q0 -48 -34 -74t-97 -26q-60 0 -93 22.5t-35 54.5zM123 19q0 5 4 10l458 604q7 10 13 13.5t17 3.5h25q9 0 14.5 -5t5.5 -13q0 -6 -4 -10l-459 -604q-7 -10 -13 -14t-17 -4h-26q-8 0 -13 5t-5 14zM602 19v44
h-136q-9 0 -15 5.5t-6 15.5v20q0 13 12 28l125 174q12 17 28 17h37q9 0 14.5 -5.5t5.5 -14.5v-180h33q9 0 14.5 -5.5t5.5 -14.5v-19q0 -10 -5.5 -15.5t-14.5 -5.5h-33v-44q0 -10 -5.5 -15.5t-14.5 -5.5h-24q-9 0 -15 5.5t-6 15.5zM523 123h80v116z" />
    <glyph glyph-name="questiondown" unicode="&#xbf;" horiz-adv-x="485" 
d="M291 462v-54q0 -9 -6 -15.5t-16 -6.5h-57q-9 0 -15.5 6.5t-6.5 15.5v54q0 9 6.5 15t15.5 6h57q10 0 16 -6t6 -15zM281 313v-38q-1 -49 -25 -85.5t-67 -80.5q-34 -35 -50 -57t-19 -48q-1 -4 -1 -12q0 -43 36 -68t85 -25q52 0 86.5 27.5t45.5 85.5q3 21 24 21h41q8 0 14 -6
t6 -15q-2 -51 -29.5 -94t-77 -69t-113.5 -26q-68 0 -114.5 23.5t-68.5 61t-22 79.5q0 47 21 81.5t64 80.5q35 38 53 64.5t20 58.5q2 26 2 39q5 23 24 23h45q9 0 14.5 -6t5.5 -15z" />
    <glyph glyph-name="Agrave" unicode="&#xc0;" horiz-adv-x="621" 
d="M19 19l1 10l231 601q7 20 30 20h59q22 0 30 -20l230 -601l2 -10q0 -8 -6 -13.5t-14 -5.5h-43q-9 0 -15.5 5t-7.5 11l-52 134h-308l-51 -134q-7 -16 -23 -16h-45q-7 0 -12.5 5.5t-5.5 13.5zM183 227h255l-128 333zM276 707l-107 88q-4 5 -4 11q0 18 17 18h66q12 0 18.5 -3
t16.5 -14l68 -83q5 -5 5 -12q0 -15 -15 -15h-34q-10 0 -16.5 1.5t-14.5 8.5z" />
    <glyph glyph-name="Aacute" unicode="&#xc1;" horiz-adv-x="621" 
d="M19 19l1 10l231 601q7 20 30 20h59q22 0 30 -20l230 -601l2 -10q0 -8 -6 -13.5t-14 -5.5h-43q-9 0 -15.5 5t-7.5 11l-52 134h-308l-51 -134q-7 -16 -23 -16h-45q-7 0 -12.5 5.5t-5.5 13.5zM183 227h255l-128 333zM272 712q0 7 5 12l68 83q10 11 16.5 14t18.5 3h66
q17 0 17 -18q0 -6 -4 -11l-107 -88q-8 -7 -14.5 -8.5t-16.5 -1.5h-34q-15 0 -15 15z" />
    <glyph glyph-name="Acircumflex" unicode="&#xc2;" horiz-adv-x="621" 
d="M19 19l1 10l231 601q7 20 30 20h59q22 0 30 -20l230 -601l2 -10q0 -8 -6 -13.5t-14 -5.5h-43q-9 0 -15.5 5t-7.5 11l-52 134h-308l-51 -134q-7 -16 -23 -16h-45q-7 0 -12.5 5.5t-5.5 13.5zM183 227h255l-128 333zM171 708q0 8 10 18l85 84q9 9 15 11.5t15 2.5h28
q9 0 15.5 -2.5t14.5 -11.5l86 -84q9 -10 9 -18q0 -11 -13 -11h-24q-16 0 -25 6l-77 53l-76 -53q-11 -6 -26 -6h-24q-13 0 -13 11z" />
    <glyph glyph-name="Atilde" unicode="&#xc3;" horiz-adv-x="621" 
d="M19 19l1 10l231 601q7 20 30 20h59q22 0 30 -20l230 -601l2 -10q0 -8 -6 -13.5t-14 -5.5h-43q-9 0 -15.5 5t-7.5 11l-52 134h-308l-51 -134q-7 -16 -23 -16h-45q-7 0 -12.5 5.5t-5.5 13.5zM183 227h255l-128 333zM300 711l-17 8.5t-18 4.5q-7 0 -12 -4t-9 -10
q-8 -13 -18 -13h-29q-6 0 -10.5 4.5t-4.5 10.5q0 30 22 57.5t57 27.5q16 0 29 -5t29 -14q8 -5 17.5 -9t17.5 -4q9 0 13 3.5t9 10.5q4 8 8 10.5t10 2.5h29q7 0 11 -4.5t4 -9.5q0 -19 -10 -39t-28.5 -33.5t-40.5 -13.5q-17 0 -29 4.5t-30 14.5z" />
    <glyph glyph-name="Adieresis" unicode="&#xc4;" horiz-adv-x="621" 
d="M19 19l1 10l231 601q7 20 30 20h59q22 0 30 -20l230 -601l2 -10q0 -8 -6 -13.5t-14 -5.5h-43q-9 0 -15.5 5t-7.5 11l-52 134h-308l-51 -134q-7 -16 -23 -16h-45q-7 0 -12.5 5.5t-5.5 13.5zM183 227h255l-128 333zM174 717v49q0 10 5.5 16t14.5 6h48q10 0 16 -6t6 -16v-49
q0 -9 -6 -14.5t-16 -5.5h-48q-9 0 -14.5 5.5t-5.5 14.5zM357 717v49q0 10 5.5 16t14.5 6h49q10 0 16 -6t6 -16v-49q0 -9 -6 -14.5t-16 -5.5h-49q-9 0 -14.5 5.5t-5.5 14.5z" />
    <glyph glyph-name="Aring" unicode="&#xc5;" horiz-adv-x="621" 
d="M19 19l1 10l231 601q7 20 30 20h59q22 0 30 -20l230 -601l2 -10q0 -8 -6 -13.5t-14 -5.5h-43q-9 0 -15.5 5t-7.5 11l-52 134h-308l-51 -134q-7 -16 -23 -16h-45q-7 0 -12.5 5.5t-5.5 13.5zM183 227h255l-128 333zM234 760q0 32 22 52.5t55 20.5q32 0 54.5 -20.5
t22.5 -52.5q0 -31 -22.5 -52t-54.5 -21q-33 0 -55 21t-22 52zM339 760q0 12 -8 20t-20 8t-20 -8t-8 -20t8 -20t20 -8t20 8t8 20z" />
    <glyph glyph-name="AE" unicode="&#xc6;" horiz-adv-x="868" 
d="M5 19q0 2 1 6t1 6q13 33 70 142.5t249 457.5q9 19 27 19h438q10 0 15.5 -6t5.5 -16v-33q0 -10 -6 -15.5t-15 -5.5h-313v-207h292q9 0 15.5 -6t6.5 -16v-32q0 -9 -6 -15t-16 -6h-292v-215h320q9 0 15 -6t6 -16v-34q0 -9 -6 -15t-15 -6h-385q-9 0 -15 6t-6 15v129h-226
q-72 -130 -73 -134q-8 -16 -23 -16h-47q-7 0 -12.5 5.5t-5.5 13.5zM201 227h191v342h-6z" />
    <glyph glyph-name="Ccedilla" unicode="&#xc7;" horiz-adv-x="618" 
d="M231 -164q0 4 4 7l14 13q4 4 8 4t13.5 -5.5t17.5 -9.5t22 -4q17 0 27.5 10t10.5 25t-10.5 24t-27.5 9q-10 0 -23.5 -4t-18.5 -4q-8 0 -13 5l-14 17q-4 4 -4 8q0 5 6 20l19 43q-98 14 -149.5 79t-55.5 169q-1 26 -1 82q0 58 1 84q4 117 68.5 184.5t188.5 67.5
q83 0 140.5 -29.5t86.5 -77t32 -101.5q0 -8 -6 -13t-14 -5h-47q-9 0 -14.5 4.5t-8.5 15.5q-16 72 -57 100.5t-112 28.5q-162 0 -168 -180q-1 -25 -1 -77t1 -79q6 -179 168 -179q70 0 111.5 28.5t57.5 99.5q3 11 8.5 15.5t14.5 4.5h47q8 0 14 -5t6 -13q-3 -54 -32 -101.5
t-86.5 -76.5t-140.5 -29l-20 -43q12 7 33 7q32 0 52 -21.5t20 -56.5t-22.5 -58t-64.5 -23q-31 0 -56 13.5t-25 26.5z" />
    <glyph glyph-name="Egrave" unicode="&#xc8;" horiz-adv-x="562" 
d="M82 21v607q0 10 5.5 16t14.5 6h382q10 0 16 -6t6 -16v-33q0 -10 -6 -15.5t-16 -5.5h-317v-207h297q10 0 16 -6t6 -16v-32q0 -9 -6 -15t-16 -6h-297v-215h324q11 0 17 -6t6 -16v-34q0 -9 -6.5 -15t-16.5 -6h-389q-9 0 -14.5 6t-5.5 15zM246 707l-107 88q-4 5 -4 11
q0 18 17 18h66q12 0 18.5 -3t16.5 -14l68 -83q5 -5 5 -12q0 -15 -15 -15h-34q-10 0 -16.5 1.5t-14.5 8.5z" />
    <glyph glyph-name="Eacute" unicode="&#xc9;" horiz-adv-x="562" 
d="M82 21v607q0 10 5.5 16t14.5 6h382q10 0 16 -6t6 -16v-33q0 -10 -6 -15.5t-16 -5.5h-317v-207h297q10 0 16 -6t6 -16v-32q0 -9 -6 -15t-16 -6h-297v-215h324q11 0 17 -6t6 -16v-34q0 -9 -6.5 -15t-16.5 -6h-389q-9 0 -14.5 6t-5.5 15zM243 712q0 7 5 12l68 83
q10 11 16.5 14t18.5 3h66q17 0 17 -18q0 -6 -4 -11l-107 -88q-8 -7 -14.5 -8.5t-16.5 -1.5h-34q-15 0 -15 15z" />
    <glyph glyph-name="Ecircumflex" unicode="&#xca;" horiz-adv-x="562" 
d="M82 21v607q0 10 5.5 16t14.5 6h382q10 0 16 -6t6 -16v-33q0 -10 -6 -15.5t-16 -5.5h-317v-207h297q10 0 16 -6t6 -16v-32q0 -9 -6 -15t-16 -6h-297v-215h324q11 0 17 -6t6 -16v-34q0 -9 -6.5 -15t-16.5 -6h-389q-9 0 -14.5 6t-5.5 15zM141 708q0 8 10 18l85 84
q9 9 15 11.5t15 2.5h28q9 0 15.5 -2.5t14.5 -11.5l86 -84q9 -10 9 -18q0 -11 -13 -11h-24q-16 0 -25 6l-77 53l-76 -53q-11 -6 -26 -6h-24q-13 0 -13 11z" />
    <glyph glyph-name="Edieresis" unicode="&#xcb;" horiz-adv-x="562" 
d="M82 21v607q0 10 5.5 16t14.5 6h382q10 0 16 -6t6 -16v-33q0 -10 -6 -15.5t-16 -5.5h-317v-207h297q10 0 16 -6t6 -16v-32q0 -9 -6 -15t-16 -6h-297v-215h324q11 0 17 -6t6 -16v-34q0 -9 -6.5 -15t-16.5 -6h-389q-9 0 -14.5 6t-5.5 15zM144 717v49q0 10 5.5 16t14.5 6h48
q10 0 16 -6t6 -16v-49q0 -9 -6 -14.5t-16 -5.5h-48q-9 0 -14.5 5.5t-5.5 14.5zM327 717v49q0 10 5.5 16t14.5 6h49q10 0 16 -6t6 -16v-49q0 -9 -6 -14.5t-16 -5.5h-49q-9 0 -14.5 5.5t-5.5 14.5z" />
    <glyph glyph-name="Igrave" unicode="&#xcc;" horiz-adv-x="252" 
d="M82 21v608q0 9 5.5 15t14.5 6h47q10 0 15.5 -5.5t5.5 -15.5v-608q0 -9 -6 -15t-15 -6h-47q-9 0 -14.5 6t-5.5 15zM92 707l-107 88q-4 5 -4 11q0 18 17 18h66q12 0 18.5 -3t16.5 -14l68 -83q5 -5 5 -12q0 -15 -15 -15h-34q-10 0 -16.5 1.5t-14.5 8.5z" />
    <glyph glyph-name="Iacute" unicode="&#xcd;" horiz-adv-x="252" 
d="M82 21v608q0 9 5.5 15t14.5 6h47q10 0 15.5 -5.5t5.5 -15.5v-608q0 -9 -6 -15t-15 -6h-47q-9 0 -14.5 6t-5.5 15zM88 712q0 7 5 12l68 83q10 11 16.5 14t18.5 3h66q17 0 17 -18q0 -6 -4 -11l-107 -88q-8 -7 -14.5 -8.5t-16.5 -1.5h-34q-15 0 -15 15z" />
    <glyph glyph-name="Icircumflex" unicode="&#xce;" horiz-adv-x="252" 
d="M82 21v608q0 9 5.5 15t14.5 6h47q10 0 15.5 -5.5t5.5 -15.5v-608q0 -9 -6 -15t-15 -6h-47q-9 0 -14.5 6t-5.5 15zM-13 708q0 8 10 18l85 84q9 9 15 11.5t15 2.5h28q9 0 15.5 -2.5t14.5 -11.5l86 -84q9 -10 9 -18q0 -11 -13 -11h-24q-16 0 -25 6l-77 53l-76 -53
q-11 -6 -26 -6h-24q-13 0 -13 11z" />
    <glyph glyph-name="Idieresis" unicode="&#xcf;" horiz-adv-x="252" 
d="M82 21v608q0 9 5.5 15t14.5 6h47q10 0 15.5 -5.5t5.5 -15.5v-608q0 -9 -6 -15t-15 -6h-47q-9 0 -14.5 6t-5.5 15zM-10 717v49q0 10 5.5 16t14.5 6h48q10 0 16 -6t6 -16v-49q0 -9 -6 -14.5t-16 -5.5h-48q-9 0 -14.5 5.5t-5.5 14.5zM173 717v49q0 10 5.5 16t14.5 6h49
q10 0 16 -6t6 -16v-49q0 -9 -6 -14.5t-16 -5.5h-49q-9 0 -14.5 5.5t-5.5 14.5z" />
    <glyph glyph-name="Eth" unicode="&#xd0;" horiz-adv-x="648" 
d="M90 21v271h-55q-9 0 -15 6t-6 15v28q0 9 6 15t15 6h55v266q0 10 5.5 16t15.5 6h210q140 0 202 -62.5t64 -188.5q1 -27 1 -73t-1 -73q-2 -88 -28 -143.5t-83.5 -82.5t-151.5 -27h-213q-10 0 -15.5 6t-5.5 15zM321 77q65 0 103.5 18t55.5 56.5t19 104.5v139q-2 93 -44 136
t-138 43h-140v-212h125q9 0 15 -6t6 -15v-28q0 -9 -6 -15t-15 -6h-125v-215h144z" />
    <glyph glyph-name="Ntilde" unicode="&#xd1;" horiz-adv-x="644" 
d="M82 21v607q0 10 5.5 16t14.5 6h41q9 0 14 -3.5t9 -9.5l312 -479v470q0 10 6 16t15 6h42q10 0 16 -6t6 -16v-606q0 -9 -6 -15.5t-15 -6.5h-42q-16 0 -22 13l-312 475v-467q0 -9 -6 -15t-15 -6h-43q-9 0 -14.5 6t-5.5 15zM312 711l-17 8.5t-18 4.5q-7 0 -12 -4t-9 -10
q-8 -13 -18 -13h-29q-6 0 -10.5 4.5t-4.5 10.5q0 30 22 57.5t57 27.5q16 0 29 -5t29 -14q8 -5 17.5 -9t17.5 -4q9 0 13 3.5t9 10.5q4 8 8 10.5t10 2.5h29q7 0 11 -4.5t4 -9.5q0 -19 -10 -39t-28.5 -33.5t-40.5 -13.5q-17 0 -29 4.5t-30 14.5z" />
    <glyph glyph-name="Ograve" unicode="&#xd2;" horiz-adv-x="627" 
d="M58 246q-1 28 -1 79t1 78q3 127 71.5 192t184.5 65t184 -65t71 -192q2 -54 2 -78q0 -23 -2 -79q-3 -128 -68.5 -191.5t-186.5 -63.5t-187 63.5t-69 191.5zM481 251q2 56 2 74q0 21 -2 74q-3 93 -48 138.5t-119 45.5t-119 -45.5t-48 -138.5q-1 -26 -1 -74q0 -46 1 -74
q3 -93 47.5 -138t119.5 -45q74 0 119 45t48 138zM279 707l-107 88q-4 5 -4 11q0 18 17 18h66q12 0 18.5 -3t16.5 -14l68 -83q5 -5 5 -12q0 -15 -15 -15h-34q-10 0 -16.5 1.5t-14.5 8.5z" />
    <glyph glyph-name="Oacute" unicode="&#xd3;" horiz-adv-x="627" 
d="M58 246q-1 28 -1 79t1 78q3 127 71.5 192t184.5 65t184 -65t71 -192q2 -54 2 -78q0 -23 -2 -79q-3 -128 -68.5 -191.5t-186.5 -63.5t-187 63.5t-69 191.5zM481 251q2 56 2 74q0 21 -2 74q-3 93 -48 138.5t-119 45.5t-119 -45.5t-48 -138.5q-1 -26 -1 -74q0 -46 1 -74
q3 -93 47.5 -138t119.5 -45q74 0 119 45t48 138zM276 712q0 7 5 12l68 83q10 11 16.5 14t18.5 3h66q17 0 17 -18q0 -6 -4 -11l-107 -88q-8 -7 -14.5 -8.5t-16.5 -1.5h-34q-15 0 -15 15z" />
    <glyph glyph-name="Ocircumflex" unicode="&#xd4;" horiz-adv-x="627" 
d="M58 246q-1 28 -1 79t1 78q3 127 71.5 192t184.5 65t184 -65t71 -192q2 -54 2 -78q0 -23 -2 -79q-3 -128 -68.5 -191.5t-186.5 -63.5t-187 63.5t-69 191.5zM481 251q2 56 2 74q0 21 -2 74q-3 93 -48 138.5t-119 45.5t-119 -45.5t-48 -138.5q-1 -26 -1 -74q0 -46 1 -74
q3 -93 47.5 -138t119.5 -45q74 0 119 45t48 138zM175 708q0 8 10 18l85 84q9 9 15 11.5t15 2.5h28q9 0 15.5 -2.5t14.5 -11.5l86 -84q9 -10 9 -18q0 -11 -13 -11h-24q-16 0 -25 6l-77 53l-76 -53q-11 -6 -26 -6h-24q-13 0 -13 11z" />
    <glyph glyph-name="Otilde" unicode="&#xd5;" horiz-adv-x="627" 
d="M58 246q-1 28 -1 79t1 78q3 127 71.5 192t184.5 65t184 -65t71 -192q2 -54 2 -78q0 -23 -2 -79q-3 -128 -68.5 -191.5t-186.5 -63.5t-187 63.5t-69 191.5zM481 251q2 56 2 74q0 21 -2 74q-3 93 -48 138.5t-119 45.5t-119 -45.5t-48 -138.5q-1 -26 -1 -74q0 -46 1 -74
q3 -93 47.5 -138t119.5 -45q74 0 119 45t48 138zM303 711l-17 8.5t-18 4.5q-7 0 -12 -4t-9 -10q-8 -13 -18 -13h-29q-6 0 -10.5 4.5t-4.5 10.5q0 30 22 57.5t57 27.5q16 0 29 -5t29 -14q8 -5 17.5 -9t17.5 -4q9 0 13 3.5t9 10.5q4 8 8 10.5t10 2.5h29q7 0 11 -4.5t4 -9.5
q0 -19 -10 -39t-28.5 -33.5t-40.5 -13.5q-17 0 -29 4.5t-30 14.5z" />
    <glyph glyph-name="Odieresis" unicode="&#xd6;" horiz-adv-x="627" 
d="M58 246q-1 28 -1 79t1 78q3 127 71.5 192t184.5 65t184 -65t71 -192q2 -54 2 -78q0 -23 -2 -79q-3 -128 -68.5 -191.5t-186.5 -63.5t-187 63.5t-69 191.5zM481 251q2 56 2 74q0 21 -2 74q-3 93 -48 138.5t-119 45.5t-119 -45.5t-48 -138.5q-1 -26 -1 -74q0 -46 1 -74
q3 -93 47.5 -138t119.5 -45q74 0 119 45t48 138zM178 717v49q0 10 5.5 16t14.5 6h48q10 0 16 -6t6 -16v-49q0 -9 -6 -14.5t-16 -5.5h-48q-9 0 -14.5 5.5t-5.5 14.5zM361 717v49q0 10 5.5 16t14.5 6h49q10 0 16 -6t6 -16v-49q0 -9 -6 -14.5t-16 -5.5h-49q-9 0 -14.5 5.5
t-5.5 14.5z" />
    <glyph glyph-name="multiply" unicode="&#xd7;" horiz-adv-x="517" 
d="M64 141q-6 7 -6 16q0 8 6 15l137 136l-137 139q-6 6 -6 15t6 15l28 27q6 7 15 7q8 0 15 -7l136 -138l139 138q6 7 15 7t14 -7l28 -27q7 -6 7 -15t-7 -15l-137 -139l137 -136q7 -7 7 -15t-7 -15l-28 -28q-5 -6 -14 -6t-15 6l-139 137l-136 -138q-9 -6 -15 -6q-7 0 -15 6z
" />
    <glyph glyph-name="Oslash" unicode="&#xd8;" horiz-adv-x="648" 
d="M75 196l-35 -13q-7 -3 -11 -3q-19 0 -19 17v32q0 11 4.5 15.5t16.5 9.5l38 14q-1 17 -1 52q0 24 2 83q3 127 71.5 192t184.5 65q99 0 164 -50t83 -146l35 14q8 2 12 2q18 0 18 -16v-32q0 -10 -4 -15t-16 -9l-36 -14q1 -52 1 -74t-1 -74q-4 -128 -69.5 -191.5
t-186.5 -63.5q-221 0 -251 205zM490 432q-11 76 -54 113.5t-110 37.5q-74 0 -119 -45.5t-48 -138.5q-3 -58 -2 -96zM492 251q1 30 1 77v32l-333 -131q8 -82 51.5 -121.5t114.5 -39.5q74 0 119 45t47 138z" />
    <glyph glyph-name="Ugrave" unicode="&#xd9;" horiz-adv-x="650" 
d="M76 251v377q0 10 5.5 16t15.5 6h44q10 0 16.5 -6t6.5 -16v-379q0 -91 42 -135.5t120 -44.5q77 0 119.5 45t42.5 135v379q0 10 5.5 16t15.5 6h45q9 0 15 -6t6 -16v-377q0 -131 -64.5 -195.5t-184.5 -64.5t-185 64.5t-65 195.5zM291 707l-107 88q-4 5 -4 11q0 18 17 18h66
q12 0 18.5 -3t16.5 -14l68 -83q5 -5 5 -12q0 -15 -15 -15h-34q-10 0 -16.5 1.5t-14.5 8.5z" />
    <glyph glyph-name="Uacute" unicode="&#xda;" horiz-adv-x="650" 
d="M76 251v377q0 10 5.5 16t15.5 6h44q10 0 16.5 -6t6.5 -16v-379q0 -91 42 -135.5t120 -44.5q77 0 119.5 45t42.5 135v379q0 10 5.5 16t15.5 6h45q9 0 15 -6t6 -16v-377q0 -131 -64.5 -195.5t-184.5 -64.5t-185 64.5t-65 195.5zM288 712q0 7 5 12l68 83q10 11 16.5 14
t18.5 3h66q17 0 17 -18q0 -6 -4 -11l-107 -88q-8 -7 -14.5 -8.5t-16.5 -1.5h-34q-15 0 -15 15z" />
    <glyph glyph-name="Ucircumflex" unicode="&#xdb;" horiz-adv-x="650" 
d="M76 251v377q0 10 5.5 16t15.5 6h44q10 0 16.5 -6t6.5 -16v-379q0 -91 42 -135.5t120 -44.5q77 0 119.5 45t42.5 135v379q0 10 5.5 16t15.5 6h45q9 0 15 -6t6 -16v-377q0 -131 -64.5 -195.5t-184.5 -64.5t-185 64.5t-65 195.5zM187 708q0 8 10 18l85 84q9 9 15 11.5
t15 2.5h28q9 0 15.5 -2.5t14.5 -11.5l86 -84q9 -10 9 -18q0 -11 -13 -11h-24q-16 0 -25 6l-77 53l-76 -53q-11 -6 -26 -6h-24q-13 0 -13 11z" />
    <glyph glyph-name="Udieresis" unicode="&#xdc;" horiz-adv-x="650" 
d="M76 251v377q0 10 5.5 16t15.5 6h44q10 0 16.5 -6t6.5 -16v-379q0 -91 42 -135.5t120 -44.5q77 0 119.5 45t42.5 135v379q0 10 5.5 16t15.5 6h45q9 0 15 -6t6 -16v-377q0 -131 -64.5 -195.5t-184.5 -64.5t-185 64.5t-65 195.5zM190 717v49q0 10 5.5 16t14.5 6h48
q10 0 16 -6t6 -16v-49q0 -9 -6 -14.5t-16 -5.5h-48q-9 0 -14.5 5.5t-5.5 14.5zM373 717v49q0 10 5.5 16t14.5 6h49q10 0 16 -6t6 -16v-49q0 -9 -6 -14.5t-16 -5.5h-49q-9 0 -14.5 5.5t-5.5 14.5z" />
    <glyph glyph-name="Yacute" unicode="&#xdd;" horiz-adv-x="599" 
d="M255 21v221l-223 378q-3 5 -3 12t5.5 12.5t12.5 5.5h45q17 0 24 -15l184 -304l183 304q9 15 24 15h45q7 0 13 -5.5t6 -12.5q0 -5 -3 -12l-224 -378v-221q0 -9 -6 -15t-17 -6h-44q-9 0 -15.5 6t-6.5 15zM262 712q0 7 5 12l68 83q10 11 16.5 14t18.5 3h66q17 0 17 -18
q0 -6 -4 -11l-107 -88q-8 -7 -14.5 -8.5t-16.5 -1.5h-34q-15 0 -15 15z" />
    <glyph glyph-name="Thorn" unicode="&#xde;" horiz-adv-x="599" 
d="M82 21v608q0 9 5.5 15t14.5 6h48q9 0 14.5 -6t5.5 -15v-105h167q105 0 165 -50.5t60 -147.5t-60 -147t-165 -50h-167v-108q0 -9 -6 -15t-15 -6h-47q-9 0 -14.5 6t-5.5 15zM333 204q69 0 104.5 31.5t35.5 90.5q0 60 -35 91.5t-105 31.5h-163v-245h163z" />
    <glyph glyph-name="germandbls" unicode="&#xdf;" horiz-adv-x="545" 
d="M71 21v438q0 87 49.5 144t151.5 57q69 0 114 -25.5t66.5 -65t21.5 -82.5q0 -52 -23.5 -86t-55.5 -51q106 -36 106 -160q0 -46 -22.5 -89.5t-70 -72t-117.5 -28.5h-64q-10 0 -16.5 6t-6.5 15v29q0 9 6.5 15.5t16.5 5.5h51q65 0 101 34t36 86q0 54 -35.5 88t-102.5 34h-50
q-11 0 -17 5.5t-6 15.5v26q0 10 6 16t17 6h42q123 1 123 103q0 45 -33 74.5t-87 29.5q-55 0 -87 -34t-32 -99v-435q0 -9 -5.5 -15t-14.5 -6h-41q-9 0 -15 6t-6 15z" />
    <glyph glyph-name="agrave" unicode="&#xe0;" horiz-adv-x="511" 
d="M35 131q0 61 50.5 100t136.5 52l139 20v27q0 95 -110 95q-43 0 -69 -17t-38 -40q-4 -9 -8 -12.5t-12 -3.5h-36q-8 0 -14 6t-6 15q0 21 20 49.5t61.5 49t102.5 20.5q104 0 149 -48t45 -121v-302q0 -9 -6 -15t-15 -6h-41q-10 0 -15.5 6t-5.5 15v41q-20 -30 -59 -50.5
t-101 -20.5q-45 0 -83.5 18.5t-61.5 50.5t-23 71zM361 215v26l-108 -16q-67 -9 -101.5 -31.5t-34.5 -56.5q0 -38 31 -58t74 -20q61 0 100 39.5t39 116.5zM221 563l-108 88q-5 5 -5 11q0 18 18 18h60q13 0 19.5 -3t15.5 -14l69 -83q5 -5 5 -12q0 -15 -15 -15h-30
q-10 0 -16 1.5t-13 8.5z" />
    <glyph glyph-name="aacute" unicode="&#xe1;" horiz-adv-x="511" 
d="M35 131q0 61 50.5 100t136.5 52l139 20v27q0 95 -110 95q-43 0 -69 -17t-38 -40q-4 -9 -8 -12.5t-12 -3.5h-36q-8 0 -14 6t-6 15q0 21 20 49.5t61.5 49t102.5 20.5q104 0 149 -48t45 -121v-302q0 -9 -6 -15t-15 -6h-41q-10 0 -15.5 6t-5.5 15v41q-20 -30 -59 -50.5
t-101 -20.5q-45 0 -83.5 18.5t-61.5 50.5t-23 71zM361 215v26l-108 -16q-67 -9 -101.5 -31.5t-34.5 -56.5q0 -38 31 -58t74 -20q61 0 100 39.5t39 116.5zM199 568q0 7 5 12l69 83q9 11 15.5 14t18.5 3h60q18 0 18 -18q0 -6 -5 -11l-106 -88q-8 -7 -14.5 -8.5t-16.5 -1.5h-29
q-15 0 -15 15z" />
    <glyph glyph-name="acircumflex" unicode="&#xe2;" horiz-adv-x="511" 
d="M35 131q0 61 50.5 100t136.5 52l139 20v27q0 95 -110 95q-43 0 -69 -17t-38 -40q-4 -9 -8 -12.5t-12 -3.5h-36q-8 0 -14 6t-6 15q0 21 20 49.5t61.5 49t102.5 20.5q104 0 149 -48t45 -121v-302q0 -9 -6 -15t-15 -6h-41q-10 0 -15.5 6t-5.5 15v41q-20 -30 -59 -50.5
t-101 -20.5q-45 0 -83.5 18.5t-61.5 50.5t-23 71zM361 215v26l-108 -16q-67 -9 -101.5 -31.5t-34.5 -56.5q0 -38 31 -58t74 -20q61 0 100 39.5t39 116.5zM111 564q0 8 10 18l85 84q9 9 15 11.5t16 2.5h26q9 0 15 -2.5t15 -11.5l85 -84q10 -11 10 -18q0 -11 -14 -11h-23
q-16 0 -25 6l-76 53l-77 -53q-11 -6 -26 -6h-23q-13 0 -13 11z" />
    <glyph glyph-name="atilde" unicode="&#xe3;" horiz-adv-x="511" 
d="M35 131q0 61 50.5 100t136.5 52l139 20v27q0 95 -110 95q-43 0 -69 -17t-38 -40q-4 -9 -8 -12.5t-12 -3.5h-36q-8 0 -14 6t-6 15q0 21 20 49.5t61.5 49t102.5 20.5q104 0 149 -48t45 -121v-302q0 -9 -6 -15t-15 -6h-41q-10 0 -15.5 6t-5.5 15v41q-20 -30 -59 -50.5
t-101 -20.5q-45 0 -83.5 18.5t-61.5 50.5t-23 71zM361 215v26l-108 -16q-67 -9 -101.5 -31.5t-34.5 -56.5q0 -38 31 -58t74 -20q61 0 100 39.5t39 116.5zM242 567q-8 4 -16.5 8.5t-16.5 4.5t-12.5 -4t-8.5 -10q-8 -13 -18 -13h-29q-6 0 -10.5 4.5t-4.5 10.5q0 30 21 55
t55 25q17 0 28 -4.5t27 -13.5q2 -1 12.5 -7t21.5 -6q8 0 12 3.5t9 11.5q5 7 8.5 10t10.5 3h27q8 0 12 -5t4 -10q0 -31 -21 -56.5t-56 -25.5q-17 0 -28 4.5t-27 14.5z" />
    <glyph glyph-name="adieresis" unicode="&#xe4;" horiz-adv-x="511" 
d="M35 131q0 61 50.5 100t136.5 52l139 20v27q0 95 -110 95q-43 0 -69 -17t-38 -40q-4 -9 -8 -12.5t-12 -3.5h-36q-8 0 -14 6t-6 15q0 21 20 49.5t61.5 49t102.5 20.5q104 0 149 -48t45 -121v-302q0 -9 -6 -15t-15 -6h-41q-10 0 -15.5 6t-5.5 15v41q-20 -30 -59 -50.5
t-101 -20.5q-45 0 -83.5 18.5t-61.5 50.5t-23 71zM361 215v26l-108 -16q-67 -9 -101.5 -31.5t-34.5 -56.5q0 -38 31 -58t74 -20q61 0 100 39.5t39 116.5zM130 598v49q0 9 5.5 15t15.5 6h48q9 0 15 -6t6 -15v-49q0 -9 -6 -14.5t-15 -5.5h-48q-10 0 -15.5 5.5t-5.5 14.5z
M285 598v49q0 9 6 15t15 6h49q9 0 15 -6t6 -15v-49q0 -9 -6 -14.5t-15 -5.5h-49q-9 0 -15 5.5t-6 14.5z" />
    <glyph glyph-name="aring" unicode="&#xe5;" horiz-adv-x="511" 
d="M35 131q0 61 50.5 100t136.5 52l139 20v27q0 95 -110 95q-43 0 -69 -17t-38 -40q-4 -9 -8 -12.5t-12 -3.5h-36q-8 0 -14 6t-6 15q0 21 20 49.5t61.5 49t102.5 20.5q104 0 149 -48t45 -121v-302q0 -9 -6 -15t-15 -6h-41q-10 0 -15.5 6t-5.5 15v41q-20 -30 -59 -50.5
t-101 -20.5q-45 0 -83.5 18.5t-61.5 50.5t-23 71zM361 215v26l-108 -16q-67 -9 -101.5 -31.5t-34.5 -56.5q0 -38 31 -58t74 -20q61 0 100 39.5t39 116.5zM172 621q0 31 22.5 52t54.5 21q33 0 55 -21t22 -52t-22 -52t-55 -21q-32 0 -54.5 21t-22.5 52zM277 621q0 12 -8 19.5
t-20 7.5t-20 -7.5t-8 -19.5q0 -13 8 -20.5t20 -7.5t20 7.5t8 20.5z" />
    <glyph glyph-name="ae" unicode="&#xe6;" horiz-adv-x="827" 
d="M36 131q0 62 50.5 102t136.5 52l139 20v25q0 95 -110 95q-43 0 -69.5 -17t-38.5 -40q-4 -9 -8 -12.5t-12 -3.5h-36q-8 0 -14 6t-6 15q0 21 20.5 49.5t62 49t102.5 20.5q63 0 103 -20t58 -53q57 73 159 73q117 0 163.5 -72.5t46.5 -168.5v-17q0 -9 -6 -15t-15 -6h-314v-9
q2 -74 38 -109.5t86 -35.5q34 0 63.5 13t48.5 39q7 11 12 13.5t17 2.5h38q8 0 13.5 -5t5.5 -13q0 -19 -23.5 -47.5t-68 -49.5t-106.5 -21q-63 0 -106.5 25t-68.5 69q-57 -94 -189 -94q-50 0 -89.5 18.5t-61 50.5t-21.5 71zM699 276v4q0 66 -32 105.5t-94 39.5q-51 0 -87 -37
t-38 -108v-4h251zM362 215v26l-108 -16q-67 -9 -101.5 -31.5t-34.5 -56.5q0 -38 31 -58t74 -20q61 0 100 39.5t39 116.5z" />
    <glyph glyph-name="ccedilla" unicode="&#xe7;" horiz-adv-x="511" 
d="M182 -164q0 4 4 7l14 13q3 4 8 4q4 0 13 -5.5t17.5 -9.5t22.5 -4q16 0 27 10t11 25t-10.5 24t-27.5 9q-11 0 -24 -4t-18 -4q-8 0 -13 5l-16 17q-2 4 -2 8q0 5 6 20l20 44q-77 13 -120 67.5t-45 141.5l-1 38l1 37q3 101 59 157t155 56q67 0 113 -23.5t68.5 -59t24.5 -70.5
q1 -8 -6 -14.5t-15 -6.5h-41q-9 0 -14 4t-9 15q-17 46 -46.5 65t-73.5 19q-59 0 -93 -36.5t-37 -110.5l-1 -32l1 -33q3 -74 37 -110.5t93 -36.5q45 0 74 19t46 65q4 11 9 15t14 4h41q8 0 15 -6.5t6 -14.5q-2 -34 -24 -69.5t-68 -59.5t-112 -24l-22 -43q12 7 35 7
q31 0 51 -21.5t20 -56.5t-22 -58t-64 -23q-32 0 -56.5 13.5t-24.5 26.5z" />
    <glyph glyph-name="egrave" unicode="&#xe8;" horiz-adv-x="519" 
d="M47 211l-1 31l1 31q6 100 62.5 159.5t151.5 59.5q102 0 158.5 -65t56.5 -176v-17q0 -9 -6 -15t-16 -6h-322v-9q3 -60 37 -102.5t91 -42.5q44 0 71.5 17t41.5 35q8 12 12.5 14t15.5 2h41q9 0 15 -4.5t6 -11.5q0 -21 -25.5 -49.5t-71 -49.5t-105.5 -21q-95 0 -151.5 59
t-62.5 161zM391 276v3q0 65 -35 105.5t-95 40.5t-94.5 -40.5t-34.5 -105.5v-3h259zM229 563l-108 88q-5 5 -5 11q0 18 18 18h60q13 0 19.5 -3t15.5 -14l69 -83q5 -5 5 -12q0 -15 -15 -15h-30q-10 0 -16 1.5t-13 8.5z" />
    <glyph glyph-name="eacute" unicode="&#xe9;" horiz-adv-x="519" 
d="M47 211l-1 31l1 31q6 100 62.5 159.5t151.5 59.5q102 0 158.5 -65t56.5 -176v-17q0 -9 -6 -15t-16 -6h-322v-9q3 -60 37 -102.5t91 -42.5q44 0 71.5 17t41.5 35q8 12 12.5 14t15.5 2h41q9 0 15 -4.5t6 -11.5q0 -21 -25.5 -49.5t-71 -49.5t-105.5 -21q-95 0 -151.5 59
t-62.5 161zM391 276v3q0 65 -35 105.5t-95 40.5t-94.5 -40.5t-34.5 -105.5v-3h259zM222 568q0 7 5 12l69 83q9 11 15.5 14t18.5 3h60q18 0 18 -18q0 -6 -5 -11l-106 -88q-8 -7 -14.5 -8.5t-16.5 -1.5h-29q-15 0 -15 15z" />
    <glyph glyph-name="ecircumflex" unicode="&#xea;" horiz-adv-x="519" 
d="M47 211l-1 31l1 31q6 100 62.5 159.5t151.5 59.5q102 0 158.5 -65t56.5 -176v-17q0 -9 -6 -15t-16 -6h-322v-9q3 -60 37 -102.5t91 -42.5q44 0 71.5 17t41.5 35q8 12 12.5 14t15.5 2h41q9 0 15 -4.5t6 -11.5q0 -21 -25.5 -49.5t-71 -49.5t-105.5 -21q-95 0 -151.5 59
t-62.5 161zM391 276v3q0 65 -35 105.5t-95 40.5t-94.5 -40.5t-34.5 -105.5v-3h259zM122 564q0 8 10 18l85 84q9 9 15 11.5t16 2.5h26q9 0 15 -2.5t15 -11.5l85 -84q10 -11 10 -18q0 -11 -14 -11h-23q-16 0 -25 6l-76 53l-77 -53q-11 -6 -26 -6h-23q-13 0 -13 11z" />
    <glyph glyph-name="edieresis" unicode="&#xeb;" horiz-adv-x="519" 
d="M47 211l-1 31l1 31q6 100 62.5 159.5t151.5 59.5q102 0 158.5 -65t56.5 -176v-17q0 -9 -6 -15t-16 -6h-322v-9q3 -60 37 -102.5t91 -42.5q44 0 71.5 17t41.5 35q8 12 12.5 14t15.5 2h41q9 0 15 -4.5t6 -11.5q0 -21 -25.5 -49.5t-71 -49.5t-105.5 -21q-95 0 -151.5 59
t-62.5 161zM391 276v3q0 65 -35 105.5t-95 40.5t-94.5 -40.5t-34.5 -105.5v-3h259zM138 598v49q0 9 5.5 15t15.5 6h48q9 0 15 -6t6 -15v-49q0 -9 -6 -14.5t-15 -5.5h-48q-10 0 -15.5 5.5t-5.5 14.5zM293 598v49q0 9 6 15t15 6h49q9 0 15 -6t6 -15v-49q0 -9 -6 -14.5
t-15 -5.5h-49q-9 0 -15 5.5t-6 14.5z" />
    <glyph glyph-name="igrave" unicode="&#xec;" horiz-adv-x="223" 
d="M70 21v441q0 9 6 15t15 6h41q9 0 15 -6t6 -15v-441q0 -9 -6 -15t-15 -6h-41q-9 0 -15 6t-6 15zM79 563l-108 88q-5 5 -5 11q0 18 18 18h60q13 0 19.5 -3t15.5 -14l69 -83q5 -5 5 -12q0 -15 -15 -15h-30q-10 0 -16 1.5t-13 8.5z" />
    <glyph glyph-name="iacute" unicode="&#xed;" horiz-adv-x="223" 
d="M70 21v441q0 9 6 15t15 6h41q9 0 15 -6t6 -15v-441q0 -9 -6 -15t-15 -6h-41q-9 0 -15 6t-6 15zM71 568q0 7 5 12l69 83q9 11 15.5 14t18.5 3h60q18 0 18 -18q0 -6 -5 -11l-106 -88q-8 -7 -14.5 -8.5t-16.5 -1.5h-29q-15 0 -15 15z" />
    <glyph glyph-name="icircumflex" unicode="&#xee;" horiz-adv-x="223" 
d="M70 21v441q0 9 6 15t15 6h41q9 0 15 -6t6 -15v-441q0 -9 -6 -15t-15 -6h-41q-9 0 -15 6t-6 15zM-26 564q0 8 10 18l85 84q9 9 15 11.5t16 2.5h26q9 0 15 -2.5t15 -11.5l85 -84q10 -11 10 -18q0 -11 -14 -11h-23q-16 0 -25 6l-76 53l-77 -53q-11 -6 -26 -6h-23
q-13 0 -13 11z" />
    <glyph glyph-name="idieresis" unicode="&#xef;" horiz-adv-x="223" 
d="M70 21v441q0 9 6 15t15 6h41q9 0 15 -6t6 -15v-441q0 -9 -6 -15t-15 -6h-41q-9 0 -15 6t-6 15zM-11 598v49q0 9 5.5 15t15.5 6h48q9 0 15 -6t6 -15v-49q0 -9 -6 -14.5t-15 -5.5h-48q-10 0 -15.5 5.5t-5.5 14.5zM144 598v49q0 9 6 15t15 6h49q9 0 15 -6t6 -15v-49
q0 -9 -6 -14.5t-15 -5.5h-49q-9 0 -15 5.5t-6 14.5z" />
    <glyph glyph-name="eth" unicode="&#xf0;" horiz-adv-x="525" 
d="M46 215q0 100 57 161t157 61q61 0 105 -30q-20 58 -56 102l-92 -35q-6 -3 -12 -3q-8 0 -12.5 4t-4.5 13v19q0 10 4 15t16 9l60 24q-26 24 -66 56q-15 11 -15 21q0 8 5 13t13 5h45q21 0 36 -12l17 -15q22 -19 42 -39l85 33q8 3 12 3q9 0 13.5 -4.5t4.5 -12.5v-20
q0 -10 -4.5 -14.5t-16.5 -9.5l-53 -21q42 -54 64.5 -129t24.5 -185v-12q-1 -101 -57.5 -161t-157.5 -60t-157.5 61.5t-56.5 162.5zM389 208q1 5 0 11q0 65 -33 106.5t-96 41.5q-62 0 -95.5 -41.5t-33.5 -106.5v-13q2 -65 35 -105.5t94 -40.5q62 0 95 41.5t34 106.5z" />
    <glyph glyph-name="ntilde" unicode="&#xf1;" horiz-adv-x="561" 
d="M70 21v441q0 9 6 15t15 6h40q10 0 15.5 -5.5t5.5 -15.5v-41q28 34 65 52.5t91 18.5q90 0 139 -57t49 -151v-263q0 -9 -6 -15t-15 -6h-43q-9 0 -15 6t-6 15v258q0 67 -32.5 104t-93.5 37q-59 0 -94.5 -37.5t-35.5 -103.5v-258q0 -9 -6 -15t-15 -6h-43q-9 0 -15 6t-6 15z
M275 567q-8 4 -16.5 8.5t-16.5 4.5t-12.5 -4t-8.5 -10q-8 -13 -18 -13h-29q-6 0 -10.5 4.5t-4.5 10.5q0 30 21 55t55 25q17 0 28 -4.5t27 -13.5q2 -1 12.5 -7t21.5 -6q8 0 12 3.5t9 11.5q5 7 8.5 10t10.5 3h27q8 0 12 -5t4 -10q0 -31 -21 -56.5t-56 -25.5q-17 0 -28 4.5
t-27 14.5z" />
    <glyph glyph-name="ograve" unicode="&#xf2;" horiz-adv-x="531" 
d="M49 202l-1 40l1 39q4 96 60 153.5t157 57.5q100 0 156 -57.5t60 -153.5q2 -20 2 -39q0 -20 -2 -40q-4 -96 -59 -153.5t-157 -57.5t-157.5 57.5t-59.5 153.5zM398 206q1 10 1 36t-1 35q-3 70 -38 108t-94 38q-60 0 -94.5 -38t-37.5 -108l-1 -35l1 -36q3 -70 37.5 -108
t94.5 -38q59 0 94 38t38 108zM234 563l-108 88q-5 5 -5 11q0 18 18 18h60q13 0 19.5 -3t15.5 -14l69 -83q5 -5 5 -12q0 -15 -15 -15h-30q-10 0 -16 1.5t-13 8.5z" />
    <glyph glyph-name="oacute" unicode="&#xf3;" horiz-adv-x="531" 
d="M49 202l-1 40l1 39q4 96 60 153.5t157 57.5q100 0 156 -57.5t60 -153.5q2 -20 2 -39q0 -20 -2 -40q-4 -96 -59 -153.5t-157 -57.5t-157.5 57.5t-59.5 153.5zM398 206q1 10 1 36t-1 35q-3 70 -38 108t-94 38q-60 0 -94.5 -38t-37.5 -108l-1 -35l1 -36q3 -70 37.5 -108
t94.5 -38q59 0 94 38t38 108zM225 568q0 7 5 12l69 83q9 11 15.5 14t18.5 3h60q18 0 18 -18q0 -6 -5 -11l-106 -88q-8 -7 -14.5 -8.5t-16.5 -1.5h-29q-15 0 -15 15z" />
    <glyph glyph-name="ocircumflex" unicode="&#xf4;" horiz-adv-x="531" 
d="M49 202l-1 40l1 39q4 96 60 153.5t157 57.5q100 0 156 -57.5t60 -153.5q2 -20 2 -39q0 -20 -2 -40q-4 -96 -59 -153.5t-157 -57.5t-157.5 57.5t-59.5 153.5zM398 206q1 10 1 36t-1 35q-3 70 -38 108t-94 38q-60 0 -94.5 -38t-37.5 -108l-1 -35l1 -36q3 -70 37.5 -108
t94.5 -38q59 0 94 38t38 108zM127 564q0 8 10 18l85 84q9 9 15 11.5t16 2.5h26q9 0 15 -2.5t15 -11.5l85 -84q10 -11 10 -18q0 -11 -14 -11h-23q-16 0 -25 6l-76 53l-77 -53q-11 -6 -26 -6h-23q-13 0 -13 11z" />
    <glyph glyph-name="otilde" unicode="&#xf5;" horiz-adv-x="531" 
d="M49 202l-1 40l1 39q4 96 60 153.5t157 57.5q100 0 156 -57.5t60 -153.5q2 -20 2 -39q0 -20 -2 -40q-4 -96 -59 -153.5t-157 -57.5t-157.5 57.5t-59.5 153.5zM398 206q1 10 1 36t-1 35q-3 70 -38 108t-94 38q-60 0 -94.5 -38t-37.5 -108l-1 -35l1 -36q3 -70 37.5 -108
t94.5 -38q59 0 94 38t38 108zM258 567q-8 4 -16.5 8.5t-16.5 4.5t-12.5 -4t-8.5 -10q-8 -13 -18 -13h-29q-6 0 -10.5 4.5t-4.5 10.5q0 30 21 55t55 25q17 0 28 -4.5t27 -13.5q2 -1 12.5 -7t21.5 -6q8 0 12 3.5t9 11.5q5 7 8.5 10t10.5 3h27q8 0 12 -5t4 -10q0 -31 -21 -56.5
t-56 -25.5q-17 0 -28 4.5t-27 14.5z" />
    <glyph glyph-name="odieresis" unicode="&#xf6;" horiz-adv-x="531" 
d="M49 202l-1 40l1 39q4 96 60 153.5t157 57.5q100 0 156 -57.5t60 -153.5q2 -20 2 -39q0 -20 -2 -40q-4 -96 -59 -153.5t-157 -57.5t-157.5 57.5t-59.5 153.5zM398 206q1 10 1 36t-1 35q-3 70 -38 108t-94 38q-60 0 -94.5 -38t-37.5 -108l-1 -35l1 -36q3 -70 37.5 -108
t94.5 -38q59 0 94 38t38 108zM143 598v49q0 9 5.5 15t15.5 6h48q9 0 15 -6t6 -15v-49q0 -9 -6 -14.5t-15 -5.5h-48q-10 0 -15.5 5.5t-5.5 14.5zM298 598v49q0 9 6 15t15 6h49q9 0 15 -6t6 -15v-49q0 -9 -6 -14.5t-15 -5.5h-49q-9 0 -15 5.5t-6 14.5z" />
    <glyph glyph-name="divide" unicode="&#xf7;" horiz-adv-x="517" 
d="M209 417v55q0 10 6 16t15 6h56q10 0 16 -6t6 -16v-55q0 -9 -6.5 -15t-15.5 -6h-56q-9 0 -15 6t-6 15zM61 265v29q0 10 6 15.5t16 5.5h353q9 0 14.5 -6t5.5 -15v-29q0 -10 -5.5 -15.5t-14.5 -5.5h-353q-10 0 -16 5.5t-6 15.5zM209 87v55q0 9 6 15.5t15 6.5h56
q9 0 15.5 -6.5t6.5 -15.5v-55q0 -9 -6 -15t-16 -6h-56q-9 0 -15 6t-6 15z" />
    <glyph glyph-name="oslash" unicode="&#xf8;" horiz-adv-x="563" 
d="M77 127l-34 -13q-7 -3 -12 -3q-9 0 -13.5 4.5t-4.5 12.5v25q0 11 4 16t16 9l33 12q-2 18 -2 52q0 26 1 39q3 90 56.5 150.5t159.5 60.5q84 0 134 -38t70 -101l35 14q8 3 12 3q9 0 13.5 -4.5t4.5 -12.5v-26q0 -10 -4 -15t-16 -9l-32 -12q2 -28 2 -53l-1 -36
q-3 -91 -56 -151t-162 -60q-83 0 -133 37.5t-71 98.5zM408 323q-11 51 -45 75.5t-82 24.5q-55 0 -91.5 -34.5t-39.5 -106.5v-27v-32zM413 203q1 6 1 26q0 21 -1 29l-258 -100q12 -50 46 -74t80 -24q58 0 94 34.5t38 108.5z" />
    <glyph glyph-name="ugrave" unicode="&#xf9;" horiz-adv-x="557" 
d="M65 200v262q0 9 6 15t15 6h43q9 0 15 -6t6 -15v-258q0 -141 123 -141q60 0 94.5 37.5t34.5 103.5v258q0 9 6 15t16 6h42q10 0 16 -6t6 -15v-441q0 -9 -6 -15t-16 -6h-40q-9 0 -15 6t-6 15v42q-27 -36 -63 -54t-92 -18q-88 0 -136.5 57t-48.5 152zM244 563l-108 88
q-5 5 -5 11q0 18 18 18h60q13 0 19.5 -3t15.5 -14l69 -83q5 -5 5 -12q0 -15 -15 -15h-30q-10 0 -16 1.5t-13 8.5z" />
    <glyph glyph-name="uacute" unicode="&#xfa;" horiz-adv-x="557" 
d="M65 200v262q0 9 6 15t15 6h43q9 0 15 -6t6 -15v-258q0 -141 123 -141q60 0 94.5 37.5t34.5 103.5v258q0 9 6 15t16 6h42q10 0 16 -6t6 -15v-441q0 -9 -6 -15t-16 -6h-40q-9 0 -15 6t-6 15v42q-27 -36 -63 -54t-92 -18q-88 0 -136.5 57t-48.5 152zM235 568q0 7 5 12l69 83
q9 11 15.5 14t18.5 3h60q18 0 18 -18q0 -6 -5 -11l-106 -88q-8 -7 -14.5 -8.5t-16.5 -1.5h-29q-15 0 -15 15z" />
    <glyph glyph-name="ucircumflex" unicode="&#xfb;" horiz-adv-x="557" 
d="M65 200v262q0 9 6 15t15 6h43q9 0 15 -6t6 -15v-258q0 -141 123 -141q60 0 94.5 37.5t34.5 103.5v258q0 9 6 15t16 6h42q10 0 16 -6t6 -15v-441q0 -9 -6 -15t-16 -6h-40q-9 0 -15 6t-6 15v42q-27 -36 -63 -54t-92 -18q-88 0 -136.5 57t-48.5 152zM138 564q0 8 10 18
l85 84q9 9 15 11.5t16 2.5h26q9 0 15 -2.5t15 -11.5l85 -84q10 -11 10 -18q0 -11 -14 -11h-23q-16 0 -25 6l-76 53l-77 -53q-11 -6 -26 -6h-23q-13 0 -13 11z" />
    <glyph glyph-name="udieresis" unicode="&#xfc;" horiz-adv-x="557" 
d="M65 200v262q0 9 6 15t15 6h43q9 0 15 -6t6 -15v-258q0 -141 123 -141q60 0 94.5 37.5t34.5 103.5v258q0 9 6 15t16 6h42q10 0 16 -6t6 -15v-441q0 -9 -6 -15t-16 -6h-40q-9 0 -15 6t-6 15v42q-27 -36 -63 -54t-92 -18q-88 0 -136.5 57t-48.5 152zM153 598v49q0 9 5.5 15
t15.5 6h48q9 0 15 -6t6 -15v-49q0 -9 -6 -14.5t-15 -5.5h-48q-10 0 -15.5 5.5t-5.5 14.5zM308 598v49q0 9 6 15t15 6h49q9 0 15 -6t6 -15v-49q0 -9 -6 -14.5t-15 -5.5h-49q-9 0 -15 5.5t-6 14.5z" />
    <glyph glyph-name="yacute" unicode="&#xfd;" horiz-adv-x="510" 
d="M135 -158q0 3 4 17l73 170l-178 419q-5 11 -5 16q1 8 6.5 13.5t12.5 5.5h43q15 0 22 -15l143 -342l147 342q8 15 22 15h42q8 0 13.5 -5.5t5.5 -13.5q0 -6 -5 -16l-263 -610q-4 -7 -9.5 -11t-13.5 -4h-41q-8 0 -13.5 6t-5.5 13zM216 568q0 7 5 12l69 83q9 11 15.5 14
t18.5 3h60q18 0 18 -18q0 -6 -5 -11l-106 -88q-8 -7 -14.5 -8.5t-16.5 -1.5h-29q-15 0 -15 15z" />
    <glyph glyph-name="thorn" unicode="&#xfe;" horiz-adv-x="553" 
d="M71 -155v793q0 10 6 16t15 6h42q9 0 15 -6t6 -16v-215q51 69 151 69q97 0 146 -61.5t52 -157.5q1 -10 1 -31q0 -22 -1 -32q-3 -95 -52 -157t-146 -62q-100 0 -151 70v-216q0 -9 -6 -15.5t-15 -6.5h-42q-9 0 -15 6.5t-6 15.5zM419 215q1 9 1 27q0 178 -132 178
q-65 0 -97.5 -43t-35.5 -102l-1 -36l1 -36q2 -57 36 -98.5t97 -41.5q67 0 97.5 42t33.5 110z" />
    <glyph glyph-name="ydieresis" unicode="&#xff;" horiz-adv-x="510" 
d="M135 -158q0 3 4 17l73 170l-178 419q-5 11 -5 16q1 8 6.5 13.5t12.5 5.5h43q15 0 22 -15l143 -342l147 342q8 15 22 15h42q8 0 13.5 -5.5t5.5 -13.5q0 -6 -5 -16l-263 -610q-4 -7 -9.5 -11t-13.5 -4h-41q-8 0 -13.5 6t-5.5 13zM134 598v49q0 9 5.5 15t15.5 6h48
q9 0 15 -6t6 -15v-49q0 -9 -6 -14.5t-15 -5.5h-48q-10 0 -15.5 5.5t-5.5 14.5zM289 598v49q0 9 6 15t15 6h49q9 0 15 -6t6 -15v-49q0 -9 -6 -14.5t-15 -5.5h-49q-9 0 -15 5.5t-6 14.5z" />
    <glyph glyph-name="Amacron" unicode="&#x100;" horiz-adv-x="621" 
d="M19 19l1 10l231 601q7 20 30 20h59q22 0 30 -20l230 -601l2 -10q0 -8 -6 -13.5t-14 -5.5h-43q-9 0 -15.5 5t-7.5 11l-52 134h-308l-51 -134q-7 -16 -23 -16h-45q-7 0 -12.5 5.5t-5.5 13.5zM183 227h255l-128 333zM183 717v34q0 9 5.5 14.5t15.5 5.5h212q10 0 15.5 -5.5
t5.5 -14.5v-34q0 -9 -5.5 -14.5t-15.5 -5.5h-212q-10 0 -15.5 5.5t-5.5 14.5z" />
    <glyph glyph-name="amacron" unicode="&#x101;" horiz-adv-x="511" 
d="M35 131q0 61 50.5 100t136.5 52l139 20v27q0 95 -110 95q-43 0 -69 -17t-38 -40q-4 -9 -8 -12.5t-12 -3.5h-36q-8 0 -14 6t-6 15q0 21 20 49.5t61.5 49t102.5 20.5q104 0 149 -48t45 -121v-302q0 -9 -6 -15t-15 -6h-41q-10 0 -15.5 6t-5.5 15v41q-20 -30 -59 -50.5
t-101 -20.5q-45 0 -83.5 18.5t-61.5 50.5t-23 71zM361 215v26l-108 -16q-67 -9 -101.5 -31.5t-34.5 -56.5q0 -38 31 -58t74 -20q61 0 100 39.5t39 116.5zM127 595v27q0 9 5.5 14.5t15.5 5.5h204q9 0 14.5 -5.5t5.5 -14.5v-27q0 -10 -5.5 -15.5t-14.5 -5.5h-204
q-10 0 -15.5 5.5t-5.5 15.5z" />
    <glyph glyph-name="Abreve" unicode="&#x102;" horiz-adv-x="621" 
d="M19 19l1 10l231 601q7 20 30 20h59q22 0 30 -20l230 -601l2 -10q0 -8 -6 -13.5t-14 -5.5h-43q-9 0 -15.5 5t-7.5 11l-52 134h-308l-51 -134q-7 -16 -23 -16h-45q-7 0 -12.5 5.5t-5.5 13.5zM183 227h255l-128 333zM195 803q0 7 4.5 12t12.5 5h27q8 0 13 -5t5 -12
q0 -26 12 -43.5t42 -17.5q29 0 41.5 17.5t12.5 43.5q0 7 4.5 12t12.5 5h27q8 0 13 -5t5 -12q0 -51 -27 -83t-89 -32q-63 0 -89.5 32t-26.5 83z" />
    <glyph glyph-name="abreve" unicode="&#x103;" horiz-adv-x="511" 
d="M35 131q0 61 50.5 100t136.5 52l139 20v27q0 95 -110 95q-43 0 -69 -17t-38 -40q-4 -9 -8 -12.5t-12 -3.5h-36q-8 0 -14 6t-6 15q0 21 20 49.5t61.5 49t102.5 20.5q104 0 149 -48t45 -121v-302q0 -9 -6 -15t-15 -6h-41q-10 0 -15.5 6t-5.5 15v41q-20 -30 -59 -50.5
t-101 -20.5q-45 0 -83.5 18.5t-61.5 50.5t-23 71zM361 215v26l-108 -16q-67 -9 -101.5 -31.5t-34.5 -56.5q0 -38 31 -58t74 -20q61 0 100 39.5t39 116.5zM138 662q0 8 4.5 13t13.5 5h26q8 0 12.5 -5t4.5 -13q0 -59 50 -59q51 0 51 59q0 8 4.5 13t12.5 5h27q9 0 13.5 -5
t4.5 -13q0 -49 -26.5 -81.5t-86.5 -32.5q-58 0 -84.5 32.5t-26.5 81.5z" />
    <glyph glyph-name="Aogonek" unicode="&#x104;" horiz-adv-x="621" 
d="M424 -72q0 47 22 77t61 38q-4 3 -6 10l-37 97h-308l-51 -134q-7 -16 -23 -16h-45q-7 0 -12.5 5.5t-5.5 13.5l1 10l231 601q7 20 30 20h59q22 0 30 -20l230 -601l2 -10q0 -8 -6 -13.5t-14 -5.5h-26q-30 0 -48 -20t-18 -52q0 -31 18.5 -50t47.5 -19h13q10 0 16 -6t6 -16
v-20q0 -9 -6 -15t-16 -6h-16q-61 0 -95 36t-34 96zM183 227h255l-128 333z" />
    <glyph glyph-name="aogonek" unicode="&#x105;" horiz-adv-x="511" 
d="M302 -77q0 36 19.5 63.5t44.5 40.5q-3 3 -3 6v29q-20 -30 -59 -50.5t-101 -20.5q-45 0 -83.5 18.5t-61.5 50.5t-23 71q0 61 50.5 100t136.5 52l139 20v27q0 95 -110 95q-43 0 -69 -17t-38 -40q-4 -9 -8 -12.5t-12 -3.5h-36q-8 0 -14 6t-6 15q0 21 20 49.5t61.5 49
t102.5 20.5q104 0 149 -48t45 -121v-302q0 -13 -16 -20l-4 -1q-30 -12 -44 -30.5t-14 -46.5q0 -32 13 -48t38 -16h6q9 0 15 -6t6 -16v-20q0 -9 -6 -15t-15 -6h-10q-50 0 -81.5 33.5t-31.5 93.5zM361 215v26l-108 -16q-67 -9 -101.5 -31.5t-34.5 -56.5q0 -38 31 -58t74 -20
q61 0 100 39.5t39 116.5z" />
    <glyph glyph-name="Cacute" unicode="&#x106;" horiz-adv-x="618" 
d="M57 242q-1 26 -1 82q0 58 1 84q4 117 68.5 184.5t188.5 67.5q83 0 140.5 -29.5t86.5 -77t32 -101.5q0 -8 -6 -13t-14 -5h-47q-9 0 -14.5 4.5t-8.5 15.5q-16 72 -57 100.5t-112 28.5q-162 0 -168 -180q-1 -25 -1 -77t1 -79q6 -179 168 -179q70 0 111.5 28.5t57.5 99.5
q3 11 8.5 15.5t14.5 4.5h47q8 0 14 -5t6 -13q-3 -54 -32 -101.5t-86.5 -76.5t-140.5 -29q-124 0 -188.5 67t-68.5 184zM271 712q0 7 5 12l68 83q10 11 16.5 14t18.5 3h66q17 0 17 -18q0 -6 -4 -11l-107 -88q-8 -7 -14.5 -8.5t-16.5 -1.5h-34q-15 0 -15 15z" />
    <glyph glyph-name="cacute" unicode="&#x107;" horiz-adv-x="511" 
d="M49 204l-1 38l1 37q3 101 59 157t155 56q67 0 113 -23.5t68.5 -59t24.5 -70.5q1 -8 -6 -14.5t-15 -6.5h-41q-9 0 -14 4t-9 15q-17 46 -46.5 65t-73.5 19q-59 0 -93 -36.5t-37 -110.5l-1 -32l1 -33q3 -74 37 -110.5t93 -36.5q45 0 74 19t46 65q4 11 9 15t14 4h41
q8 0 15 -6.5t6 -14.5q-2 -34 -24.5 -69.5t-68.5 -59.5t-113 -24q-99 0 -155 56t-59 157zM215 568q0 7 5 12l69 83q9 11 15.5 14t18.5 3h60q18 0 18 -18q0 -6 -5 -11l-106 -88q-8 -7 -14.5 -8.5t-16.5 -1.5h-29q-15 0 -15 15z" />
    <glyph glyph-name="Ccircumflex" unicode="&#x108;" horiz-adv-x="618" 
d="M57 242q-1 26 -1 82q0 58 1 84q4 117 68.5 184.5t188.5 67.5q83 0 140.5 -29.5t86.5 -77t32 -101.5q0 -8 -6 -13t-14 -5h-47q-9 0 -14.5 4.5t-8.5 15.5q-16 72 -57 100.5t-112 28.5q-162 0 -168 -180q-1 -25 -1 -77t1 -79q6 -179 168 -179q70 0 111.5 28.5t57.5 99.5
q3 11 8.5 15.5t14.5 4.5h47q8 0 14 -5t6 -13q-3 -54 -32 -101.5t-86.5 -76.5t-140.5 -29q-124 0 -188.5 67t-68.5 184zM170 708q0 8 10 18l85 84q9 9 15 11.5t15 2.5h28q9 0 15.5 -2.5t14.5 -11.5l86 -84q9 -10 9 -18q0 -11 -13 -11h-24q-16 0 -25 6l-77 53l-76 -53
q-11 -6 -26 -6h-24q-13 0 -13 11z" />
    <glyph glyph-name="ccircumflex" unicode="&#x109;" horiz-adv-x="511" 
d="M49 204l-1 38l1 37q3 101 59 157t155 56q67 0 113 -23.5t68.5 -59t24.5 -70.5q1 -8 -6 -14.5t-15 -6.5h-41q-9 0 -14 4t-9 15q-17 46 -46.5 65t-73.5 19q-59 0 -93 -36.5t-37 -110.5l-1 -32l1 -33q3 -74 37 -110.5t93 -36.5q45 0 74 19t46 65q4 11 9 15t14 4h41
q8 0 15 -6.5t6 -14.5q-2 -34 -24.5 -69.5t-68.5 -59.5t-113 -24q-99 0 -155 56t-59 157zM121 571q0 8 10 18l85 84q9 9 15 11.5t16 2.5h26q9 0 15 -2.5t15 -11.5l85 -84q10 -11 10 -18q0 -11 -14 -11h-23q-16 0 -25 6l-76 53l-77 -53q-11 -6 -26 -6h-23q-13 0 -13 11z" />
    <glyph glyph-name="Cdotaccent" unicode="&#x10a;" horiz-adv-x="618" 
d="M57 242q-1 26 -1 82q0 58 1 84q4 117 68.5 184.5t188.5 67.5q83 0 140.5 -29.5t86.5 -77t32 -101.5q0 -8 -6 -13t-14 -5h-47q-9 0 -14.5 4.5t-8.5 15.5q-16 72 -57 100.5t-112 28.5q-162 0 -168 -180q-1 -25 -1 -77t1 -79q6 -179 168 -179q70 0 111.5 28.5t57.5 99.5
q3 11 8.5 15.5t14.5 4.5h47q8 0 14 -5t6 -13q-3 -54 -32 -101.5t-86.5 -76.5t-140.5 -29q-124 0 -188.5 67t-68.5 184zM259 717v59q0 9 6 15t15 6h58q10 0 16 -6t6 -15v-59q0 -9 -6 -14.5t-16 -5.5h-58q-9 0 -15 5.5t-6 14.5z" />
    <glyph glyph-name="cdotaccent" unicode="&#x10b;" horiz-adv-x="511" 
d="M49 204l-1 38l1 37q3 101 59 157t155 56q67 0 113 -23.5t68.5 -59t24.5 -70.5q1 -8 -6 -14.5t-15 -6.5h-41q-9 0 -14 4t-9 15q-17 46 -46.5 65t-73.5 19q-59 0 -93 -36.5t-37 -110.5l-1 -32l1 -33q3 -74 37 -110.5t93 -36.5q45 0 74 19t46 65q4 11 9 15t14 4h41
q8 0 15 -6.5t6 -14.5q-2 -34 -24.5 -69.5t-68.5 -59.5t-113 -24q-99 0 -155 56t-59 157zM210 591v57q0 9 5.5 15t15.5 6h57q10 0 16 -6t6 -15v-57q0 -9 -6 -15.5t-16 -6.5h-57q-10 0 -15.5 6.5t-5.5 15.5z" />
    <glyph glyph-name="Ccaron" unicode="&#x10c;" horiz-adv-x="618" 
d="M57 242q-1 26 -1 82q0 58 1 84q4 117 68.5 184.5t188.5 67.5q83 0 140.5 -29.5t86.5 -77t32 -101.5q0 -8 -6 -13t-14 -5h-47q-9 0 -14.5 4.5t-8.5 15.5q-16 72 -57 100.5t-112 28.5q-162 0 -168 -180q-1 -25 -1 -77t1 -79q6 -179 168 -179q70 0 111.5 28.5t57.5 99.5
q3 11 8.5 15.5t14.5 4.5h47q8 0 14 -5t6 -13q-3 -54 -32 -101.5t-86.5 -76.5t-140.5 -29q-124 0 -188.5 67t-68.5 184zM265 711l-85 84q-10 10 -10 18q0 11 13 11h24q15 0 26 -6l76 -53l77 53q9 6 25 6h24q13 0 13 -11q0 -8 -9 -18l-86 -84q-8 -10 -14.5 -12t-15.5 -2h-28
q-9 0 -15 2t-15 12z" />
    <glyph glyph-name="ccaron" unicode="&#x10d;" horiz-adv-x="511" 
d="M49 204l-1 38l1 37q3 101 59 157t155 56q67 0 113 -23.5t68.5 -59t24.5 -70.5q1 -8 -6 -14.5t-15 -6.5h-41q-9 0 -14 4t-9 15q-17 46 -46.5 65t-73.5 19q-59 0 -93 -36.5t-37 -110.5l-1 -32l1 -33q3 -74 37 -110.5t93 -36.5q45 0 74 19t46 65q4 11 9 15t14 4h41
q8 0 15 -6.5t6 -14.5q-2 -34 -24.5 -69.5t-68.5 -59.5t-113 -24q-99 0 -155 56t-59 157zM216 567l-85 84q-10 10 -10 18q0 11 13 11h23q15 0 26 -6l77 -53l76 53q9 6 25 6h23q14 0 14 -11q0 -8 -10 -18l-85 -84q-9 -10 -15 -12t-15 -2h-26q-10 0 -16 2t-15 12z" />
    <glyph glyph-name="Dcaron" unicode="&#x10e;" horiz-adv-x="639" 
d="M82 21v607q0 10 5.5 16t14.5 6h210q140 0 202.5 -62.5t64.5 -188.5q1 -27 1 -73q0 -45 -1 -73q-2 -89 -28.5 -144t-83 -82t-150.5 -27h-215q-9 0 -14.5 6t-5.5 15zM312 77q65 0 103.5 18t56 56.5t19.5 104.5q1 56 1 70q0 15 -1 69q-2 93 -44.5 136t-139.5 43h-138v-497
h143zM268 711l-85 84q-10 10 -10 18q0 11 13 11h24q15 0 26 -6l76 -53l77 53q9 6 25 6h24q13 0 13 -11q0 -8 -9 -18l-86 -84q-8 -10 -14.5 -12t-15.5 -2h-28q-9 0 -15 2t-15 12z" />
    <glyph glyph-name="dcaron" unicode="&#x10f;" horiz-adv-x="552" 
d="M47 214l-1 28l1 27q4 96 53.5 159.5t145.5 63.5q97 0 151 -68v214q0 10 6 16t15 6h42q9 0 15 -6t6 -16v-617q0 -9 -6 -15t-15 -6h-40q-9 0 -15 6t-6 15v40q-52 -70 -153 -70q-97 0 -146 63t-53 160zM397 209q1 10 1 35q0 26 -1 37q-2 56 -36 97.5t-97 41.5
q-67 0 -97.5 -42t-33.5 -110l-1 -26q0 -179 132 -179q65 0 97.5 43.5t35.5 102.5zM531 524l17 109q4 27 26 27h57q6 0 10.5 -5t4.5 -11q0 -8 -4 -15l-39 -103q-5 -11 -10.5 -16.5t-16.5 -5.5h-31q-7 0 -11 6t-3 14z" />
    <glyph glyph-name="Dcroat" unicode="&#x110;" horiz-adv-x="648" 
d="M90 21v271h-55q-9 0 -15 6t-6 15v28q0 10 6 15.5t15 5.5h55v266q0 10 5.5 16t15.5 6h210q140 0 202 -62.5t64 -188.5q1 -27 1 -73q0 -45 -1 -73q-2 -89 -28.5 -144t-83.5 -82t-151 -27h-213q-10 0 -15.5 6t-5.5 15zM321 77q65 0 103.5 18t55.5 56.5t19 104.5q2 56 2 70
q0 15 -2 69q-2 93 -44 136t-138 43h-140v-212h125q9 0 15 -6t6 -15v-28q0 -9 -6 -15t-15 -6h-125v-215h144z" />
    <glyph glyph-name="dcroat" unicode="&#x111;" horiz-adv-x="552" 
d="M48 214l-1 28l1 27q4 92 49 157.5t150 65.5q97 0 151 -68v103h-50q-9 0 -15 6t-6 15v19q0 10 6 15.5t15 5.5h50v50q0 10 6 16t15 6h42q9 0 15 -6t6 -16v-50h49q10 0 16 -6t6 -15v-19q0 -9 -6 -15t-16 -6h-49v-506q0 -9 -6 -15t-15 -6h-40q-9 0 -15.5 6t-6.5 15v41
q-52 -71 -152 -71q-105 0 -150 65.5t-49 157.5zM398 209q1 10 1 35q0 26 -1 37q-2 56 -36 97.5t-97 41.5q-67 0 -97.5 -42.5t-33.5 -109.5l-1 -26l1 -27q3 -67 33.5 -109.5t97.5 -42.5q65 0 97.5 43.5t35.5 102.5z" />
    <glyph glyph-name="Emacron" unicode="&#x112;" horiz-adv-x="562" 
d="M82 21v607q0 10 5.5 16t14.5 6h382q10 0 16 -6t6 -16v-33q0 -10 -6 -15.5t-16 -5.5h-317v-207h297q10 0 16 -6t6 -16v-32q0 -9 -6 -15t-16 -6h-297v-215h324q11 0 17 -6t6 -16v-34q0 -9 -6.5 -15t-16.5 -6h-389q-9 0 -14.5 6t-5.5 15zM153 717v34q0 9 5.5 14.5t15.5 5.5
h212q10 0 15.5 -5.5t5.5 -14.5v-34q0 -9 -5.5 -14.5t-15.5 -5.5h-212q-10 0 -15.5 5.5t-5.5 14.5z" />
    <glyph glyph-name="emacron" unicode="&#x113;" horiz-adv-x="519" 
d="M47 211l-1 31l1 31q6 100 62.5 159.5t151.5 59.5q102 0 158.5 -65t56.5 -176v-17q0 -9 -6 -15t-16 -6h-322v-9q3 -60 37 -102.5t91 -42.5q44 0 71.5 17t41.5 35q8 12 12.5 14t15.5 2h41q9 0 15 -4.5t6 -11.5q0 -21 -25.5 -49.5t-71 -49.5t-105.5 -21q-95 0 -151.5 59
t-62.5 161zM391 276v3q0 65 -35 105.5t-95 40.5t-94.5 -40.5t-34.5 -105.5v-3h259zM138 595v27q0 9 5.5 14.5t15.5 5.5h204q9 0 14.5 -5.5t5.5 -14.5v-27q0 -10 -5.5 -15.5t-14.5 -5.5h-204q-10 0 -15.5 5.5t-5.5 15.5z" />
    <glyph glyph-name="Ebreve" unicode="&#x114;" horiz-adv-x="562" 
d="M82 21v607q0 10 5.5 16t14.5 6h382q10 0 16 -6t6 -16v-33q0 -10 -6 -15.5t-16 -5.5h-317v-207h297q10 0 16 -6t6 -16v-32q0 -9 -6 -15t-16 -6h-297v-215h324q11 0 17 -6t6 -16v-34q0 -9 -6.5 -15t-16.5 -6h-389q-9 0 -14.5 6t-5.5 15zM165 803q0 7 4.5 12t12.5 5h27
q8 0 13 -5t5 -12q0 -26 12 -43.5t42 -17.5q29 0 41.5 17.5t12.5 43.5q0 7 4.5 12t12.5 5h27q8 0 13 -5t5 -12q0 -51 -27 -83t-89 -32q-63 0 -89.5 32t-26.5 83z" />
    <glyph glyph-name="ebreve" unicode="&#x115;" horiz-adv-x="519" 
d="M47 211l-1 31l1 31q6 100 62.5 159.5t151.5 59.5q102 0 158.5 -65t56.5 -176v-17q0 -9 -6 -15t-16 -6h-322v-9q3 -60 37 -102.5t91 -42.5q44 0 71.5 17t41.5 35q8 12 12.5 14t15.5 2h41q9 0 15 -4.5t6 -11.5q0 -21 -25.5 -49.5t-71 -49.5t-105.5 -21q-95 0 -151.5 59
t-62.5 161zM391 276v3q0 65 -35 105.5t-95 40.5t-94.5 -40.5t-34.5 -105.5v-3h259zM149 662q0 8 4.5 13t13.5 5h26q8 0 12.5 -5t4.5 -13q0 -59 50 -59q51 0 51 59q0 8 4.5 13t12.5 5h27q9 0 13.5 -5t4.5 -13q0 -49 -26.5 -81.5t-86.5 -32.5q-58 0 -84.5 32.5t-26.5 81.5z
" />
    <glyph glyph-name="Edotaccent" unicode="&#x116;" horiz-adv-x="562" 
d="M82 21v607q0 10 5.5 16t14.5 6h382q10 0 16 -6t6 -16v-33q0 -10 -6 -15.5t-16 -5.5h-317v-207h297q10 0 16 -6t6 -16v-32q0 -9 -6 -15t-16 -6h-297v-215h324q11 0 17 -6t6 -16v-34q0 -9 -6.5 -15t-16.5 -6h-389q-9 0 -14.5 6t-5.5 15zM230 717v59q0 9 6 15t15 6h58
q10 0 16 -6t6 -15v-59q0 -9 -6 -14.5t-16 -5.5h-58q-9 0 -15 5.5t-6 14.5z" />
    <glyph glyph-name="edotaccent" unicode="&#x117;" horiz-adv-x="519" 
d="M47 211l-1 31l1 31q6 100 62.5 159.5t151.5 59.5q102 0 158.5 -65t56.5 -176v-17q0 -9 -6 -15t-16 -6h-322v-9q3 -60 37 -102.5t91 -42.5q44 0 71.5 17t41.5 35q8 12 12.5 14t15.5 2h41q9 0 15 -4.5t6 -11.5q0 -21 -25.5 -49.5t-71 -49.5t-105.5 -21q-95 0 -151.5 59
t-62.5 161zM391 276v3q0 65 -35 105.5t-95 40.5t-94.5 -40.5t-34.5 -105.5v-3h259zM212 591v57q0 9 5.5 15t15.5 6h57q10 0 16 -6t6 -15v-57q0 -9 -6 -15.5t-16 -6.5h-57q-10 0 -15.5 6.5t-5.5 15.5z" />
    <glyph glyph-name="Eogonek" unicode="&#x118;" horiz-adv-x="562" 
d="M347 -72q0 42 16 72h-261q-9 0 -14.5 6t-5.5 15v607q0 10 5.5 16t14.5 6h382q10 0 16 -6t6 -16v-33q0 -10 -6 -15.5t-16 -5.5h-317v-207h297q10 0 16 -6t6 -16v-32q0 -9 -6 -15t-16 -6h-297v-215h324q11 0 17 -6t6 -16v-34q0 -9 -6.5 -15t-16.5 -6h-17q-28 -2 -45 -21
t-17 -51q0 -31 18.5 -50t48.5 -19h13q10 0 16 -6t6 -16v-20q0 -9 -6 -15t-16 -6h-16q-61 0 -95 36t-34 96z" />
    <glyph glyph-name="eogonek" unicode="&#x119;" horiz-adv-x="520" 
d="M180 -72q0 42 16 71q-66 18 -105 73.5t-44 138.5v62q7 100 63.5 159.5t150.5 59.5q102 0 159 -65t57 -176v-17q0 -9 -6.5 -15t-16.5 -6h-321v-9q2 -60 36.5 -102.5t91.5 -42.5q44 0 71.5 17t40.5 35q9 12 13 14t15 2h42q8 0 14 -4.5t6 -11.5q0 -18 -19 -42t-55 -45
t-82 -30q-30 -5 -45.5 -21t-15.5 -45q0 -31 18.5 -50t48.5 -19h13q9 0 15 -6t6 -16v-20q0 -10 -5.5 -15.5t-15.5 -5.5h-17q-60 0 -94.5 36t-34.5 96zM391 276v3q0 65 -35 105.5t-95 40.5t-94.5 -40.5t-34.5 -105.5v-3h259z" />
    <glyph glyph-name="Ecaron" unicode="&#x11a;" horiz-adv-x="562" 
d="M82 21v607q0 10 5.5 16t14.5 6h382q10 0 16 -6t6 -16v-33q0 -10 -6 -15.5t-16 -5.5h-317v-207h297q10 0 16 -6t6 -16v-32q0 -9 -6 -15t-16 -6h-297v-215h324q11 0 17 -6t6 -16v-34q0 -9 -6.5 -15t-16.5 -6h-389q-9 0 -14.5 6t-5.5 15zM236 711l-85 84q-10 10 -10 18
q0 11 13 11h24q15 0 26 -6l76 -53l77 53q9 6 25 6h24q13 0 13 -11q0 -8 -9 -18l-86 -84q-8 -10 -14.5 -12t-15.5 -2h-28q-9 0 -15 2t-15 12z" />
    <glyph glyph-name="ecaron" unicode="&#x11b;" horiz-adv-x="519" 
d="M47 211l-1 31l1 31q6 100 62.5 159.5t151.5 59.5q102 0 158.5 -65t56.5 -176v-17q0 -9 -6 -15t-16 -6h-322v-9q3 -60 37 -102.5t91 -42.5q44 0 71.5 17t41.5 35q8 12 12.5 14t15.5 2h41q9 0 15 -4.5t6 -11.5q0 -21 -25.5 -49.5t-71 -49.5t-105.5 -21q-95 0 -151.5 59
t-62.5 161zM391 276v3q0 65 -35 105.5t-95 40.5t-94.5 -40.5t-34.5 -105.5v-3h259zM217 567l-85 84q-10 10 -10 18q0 11 13 11h23q15 0 26 -6l77 -53l76 53q9 6 25 6h23q14 0 14 -11q0 -8 -10 -18l-85 -84q-9 -10 -15 -12t-15 -2h-26q-10 0 -16 2t-15 12z" />
    <glyph glyph-name="Gcircumflex" unicode="&#x11c;" horiz-adv-x="631" 
d="M58 239q-1 28 -1 87q0 60 1 87q3 114 70.5 180.5t188.5 66.5q82 0 138.5 -30t85 -71.5t30.5 -76.5v-2q0 -7 -6 -12t-13 -5h-52q-9 0 -13 3.5t-8 13.5q-15 44 -54.5 73.5t-107.5 29.5q-78 0 -122.5 -42.5t-47.5 -131.5q-1 -27 -1 -83q0 -55 1 -83q3 -90 47.5 -132.5
t122.5 -42.5q79 0 126.5 43t47.5 130v40h-143q-9 0 -15 6.5t-6 15.5v28q0 9 6 15.5t15 6.5h208q11 0 17 -6t6 -16v-89q0 -75 -31 -132t-90.5 -88t-140.5 -31q-121 0 -188 66.5t-71 181.5zM182 708q0 8 10 18l85 84q9 9 15 11.5t15 2.5h28q9 0 15.5 -2.5t14.5 -11.5l86 -84
q9 -10 9 -18q0 -11 -13 -11h-24q-16 0 -25 6l-77 53l-76 -53q-11 -6 -26 -6h-24q-13 0 -13 11z" />
    <glyph glyph-name="gcircumflex" unicode="&#x11d;" horiz-adv-x="553" 
d="M58 -61q0 8 6.5 14t14.5 6h41q8 0 13.5 -4t9.5 -15q26 -75 118 -75q70 0 103.5 30t33.5 105v64q-54 -69 -151 -69q-98 0 -147 63.5t-52 159.5l-1 26l1 25q3 96 52 159.5t147 63.5t152 -71v40q0 9 6.5 15.5t15.5 6.5h40q9 0 15 -6.5t6 -15.5v-451q0 -214 -216 -214
q-77 0 -123.5 26t-65.5 59.5t-19 57.5zM398 212q1 8 1 32t-1 32q-3 59 -36 101.5t-98 42.5q-67 0 -97 -42.5t-33 -109.5l-1 -24l1 -25q3 -67 33 -109t97 -42q65 0 98 42t36 102zM126 564q0 8 10 18l85 84q9 9 15 11.5t16 2.5h26q9 0 15 -2.5t15 -11.5l85 -84q10 -11 10 -18
q0 -11 -14 -11h-23q-16 0 -25 6l-76 53l-77 -53q-11 -6 -26 -6h-23q-13 0 -13 11z" />
    <glyph glyph-name="Gbreve" unicode="&#x11e;" horiz-adv-x="631" 
d="M58 239q-1 28 -1 87q0 60 1 87q3 114 70.5 180.5t188.5 66.5q82 0 138.5 -30t85 -71.5t30.5 -76.5v-2q0 -7 -6 -12t-13 -5h-52q-9 0 -13 3.5t-8 13.5q-15 44 -54.5 73.5t-107.5 29.5q-78 0 -122.5 -42.5t-47.5 -131.5q-1 -27 -1 -83q0 -55 1 -83q3 -90 47.5 -132.5
t122.5 -42.5q79 0 126.5 43t47.5 130v40h-143q-9 0 -15 6.5t-6 15.5v28q0 9 6 15.5t15 6.5h208q11 0 17 -6t6 -16v-89q0 -75 -31 -132t-90.5 -88t-140.5 -31q-121 0 -188 66.5t-71 181.5zM205 803q0 7 4.5 12t12.5 5h27q8 0 13 -5t5 -12q0 -26 12 -43.5t42 -17.5
q29 0 41.5 17.5t12.5 43.5q0 7 4.5 12t12.5 5h27q8 0 13 -5t5 -12q0 -51 -27 -83t-89 -32q-63 0 -89.5 32t-26.5 83z" />
    <glyph glyph-name="gbreve" unicode="&#x11f;" horiz-adv-x="553" 
d="M58 -61q0 8 6.5 14t14.5 6h41q8 0 13.5 -4t9.5 -15q26 -75 118 -75q70 0 103.5 30t33.5 105v64q-54 -69 -151 -69q-98 0 -147 63.5t-52 159.5l-1 26l1 25q3 96 52 159.5t147 63.5t152 -71v40q0 9 6.5 15.5t15.5 6.5h40q9 0 15 -6.5t6 -15.5v-451q0 -214 -216 -214
q-77 0 -123.5 26t-65.5 59.5t-19 57.5zM398 212q1 8 1 32t-1 32q-3 59 -36 101.5t-98 42.5q-67 0 -97 -42.5t-33 -109.5l-1 -24l1 -25q3 -67 33 -109t97 -42q65 0 98 42t36 102zM153 662q0 8 4.5 13t13.5 5h26q8 0 12.5 -5t4.5 -13q0 -59 50 -59q51 0 51 59q0 8 4.5 13
t12.5 5h27q9 0 13.5 -5t4.5 -13q0 -49 -26.5 -81.5t-86.5 -32.5q-58 0 -84.5 32.5t-26.5 81.5z" />
    <glyph glyph-name="Gdotaccent" unicode="&#x120;" horiz-adv-x="631" 
d="M58 239q-1 28 -1 87q0 60 1 87q3 114 70.5 180.5t188.5 66.5q82 0 138.5 -30t85 -71.5t30.5 -76.5v-2q0 -7 -6 -12t-13 -5h-52q-9 0 -13 3.5t-8 13.5q-15 44 -54.5 73.5t-107.5 29.5q-78 0 -122.5 -42.5t-47.5 -131.5q-1 -27 -1 -83q0 -55 1 -83q3 -90 47.5 -132.5
t122.5 -42.5q79 0 126.5 43t47.5 130v40h-143q-9 0 -15 6.5t-6 15.5v28q0 9 6 15.5t15 6.5h208q11 0 17 -6t6 -16v-89q0 -75 -31 -132t-90.5 -88t-140.5 -31q-121 0 -188 66.5t-71 181.5zM271 717v59q0 9 6 15t15 6h58q10 0 16 -6t6 -15v-59q0 -9 -6 -14.5t-16 -5.5h-58
q-9 0 -15 5.5t-6 14.5z" />
    <glyph glyph-name="gdotaccent" unicode="&#x121;" horiz-adv-x="553" 
d="M58 -61q0 8 6.5 14t14.5 6h41q8 0 13.5 -4t9.5 -15q26 -75 118 -75q70 0 103.5 30t33.5 105v64q-54 -69 -151 -69q-98 0 -147 63.5t-52 159.5l-1 26l1 25q3 96 52 159.5t147 63.5t152 -71v40q0 9 6.5 15.5t15.5 6.5h40q9 0 15 -6.5t6 -15.5v-451q0 -214 -216 -214
q-77 0 -123.5 26t-65.5 59.5t-19 57.5zM398 212q1 8 1 32t-1 32q-3 59 -36 101.5t-98 42.5q-67 0 -97 -42.5t-33 -109.5l-1 -24l1 -25q3 -67 33 -109t97 -42q65 0 98 42t36 102zM215 591v57q0 9 5.5 15t15.5 6h57q10 0 16 -6t6 -15v-57q0 -9 -6 -15.5t-16 -6.5h-57
q-10 0 -15.5 6.5t-5.5 15.5z" />
    <glyph glyph-name="Gcommaaccent" unicode="&#x122;" horiz-adv-x="631" 
d="M58 239q-1 28 -1 87q0 60 1 87q3 114 70.5 180.5t188.5 66.5q82 0 138.5 -30t85 -71.5t30.5 -76.5v-2q0 -7 -6 -12t-13 -5h-52q-9 0 -13 3.5t-8 13.5q-15 44 -54.5 73.5t-107.5 29.5q-78 0 -122.5 -42.5t-47.5 -131.5q-1 -27 -1 -83q0 -55 1 -83q3 -90 47.5 -132.5
t122.5 -42.5q79 0 126.5 43t47.5 130v40h-143q-9 0 -15 6.5t-6 15.5v28q0 9 6 15.5t15 6.5h208q11 0 17 -6t6 -16v-89q0 -75 -31 -132t-90.5 -88t-140.5 -31q-121 0 -188 66.5t-71 181.5zM257 -182l15 109q4 27 26 27h59q6 0 10.5 -5t4.5 -11q0 -7 -3 -15l-40 -103
q-5 -11 -10.5 -16.5t-16.5 -5.5h-32q-7 0 -11 6t-2 14z" />
    <glyph glyph-name="gcommaaccent" unicode="&#x123;" horiz-adv-x="553" 
d="M335 688l-16 -108q-4 -27 -26 -27h-57q-7 0 -11 4.5t-4 11.5t4 14l39 104q4 11 10 16t17 5h30q8 0 12 -5.5t2 -14.5zM58 -61q0 8 6.5 14t14.5 6h41q8 0 13.5 -4t9.5 -15q26 -75 118 -75q70 0 103.5 30t33.5 105v64q-54 -69 -151 -69q-98 0 -147 63.5t-52 159.5l-1 26
l1 25q3 96 52 159.5t147 63.5t152 -71v40q0 9 6.5 15.5t15.5 6.5h40q9 0 15 -6.5t6 -15.5v-451q0 -214 -216 -214q-77 0 -123.5 26t-65.5 59.5t-19 57.5zM398 212q1 8 1 32t-1 32q-3 59 -36 101.5t-98 42.5q-67 0 -97 -42.5t-33 -109.5l-1 -24l1 -25q3 -67 33 -109t97 -42
q65 0 98 42t36 102z" />
    <glyph glyph-name="Hcircumflex" unicode="&#x124;" horiz-adv-x="661" 
d="M82 21v607q0 10 5.5 16t14.5 6h45q10 0 16 -6t6 -16v-258h323v258q0 10 6 16t16 6h44q11 0 17 -6t6 -16v-607q0 -9 -6.5 -15t-16.5 -6h-44q-10 0 -16 6t-6 15v268h-323v-268q0 -9 -6.5 -15t-15.5 -6h-45q-9 0 -14.5 6t-5.5 15zM192 708q0 8 10 18l85 84q9 9 15 11.5
t15 2.5h28q9 0 15.5 -2.5t14.5 -11.5l86 -84q9 -10 9 -18q0 -11 -13 -11h-24q-16 0 -25 6l-77 53l-76 -53q-11 -6 -26 -6h-24q-13 0 -13 11z" />
    <glyph glyph-name="hcircumflex" unicode="&#x125;" horiz-adv-x="564" 
d="M71 21v617q0 10 6 16t15 6h43q10 0 15.5 -6t5.5 -16v-216q27 34 63.5 52t90.5 18q89 0 139 -57t50 -151v-263q0 -9 -6 -15t-15 -6h-44q-9 0 -15.5 6t-6.5 15v258q0 67 -32.5 104t-93.5 37q-59 0 -94.5 -37.5t-35.5 -103.5v-258q0 -9 -6 -15t-15 -6h-43q-9 0 -15 6t-6 15z
M146 708q0 8 10 18l85 84q9 9 15 11.5t16 2.5h26q9 0 15 -2.5t15 -11.5l85 -84q10 -11 10 -18q0 -11 -14 -11h-23q-16 0 -25 6l-76 53l-77 -53q-11 -6 -26 -6h-23q-13 0 -13 11z" />
    <glyph glyph-name="Hbar" unicode="&#x126;" horiz-adv-x="661" 
d="M643 520v-21q0 -9 -5.5 -15t-15.5 -6h-41v-457q0 -9 -6.5 -15t-16.5 -6h-44q-10 0 -16 6t-6 15v268h-323v-268q0 -9 -6.5 -15t-15.5 -6h-45q-9 0 -14.5 6t-5.5 15v457h-35q-9 0 -15 6t-6 15v21q0 10 6 16t15 6h35v86q0 10 5.5 16t14.5 6h45q10 0 16 -6t6 -16v-86h323v86
q0 10 6 16t16 6h44q11 0 17 -6t6 -16v-86h41q10 0 15.5 -6t5.5 -16zM492 370v108h-323v-108h323z" />
    <glyph glyph-name="hbar" unicode="&#x127;" horiz-adv-x="563" 
d="M70 21v505h-49q-9 0 -15 5.5t-6 14.5v20q0 9 6 14.5t15 5.5h49v52q0 10 6 16t15 6h44q9 0 15 -6t6 -16v-52h48q10 0 16 -5.5t6 -14.5v-20q0 -9 -6 -14.5t-16 -5.5h-48v-104q26 34 62.5 52t90.5 18q90 0 139.5 -57t49.5 -151v-263q0 -9 -6 -15t-15 -6h-44q-9 0 -15 6
t-6 15v258q0 67 -32.5 104t-93.5 37q-59 0 -94.5 -37.5t-35.5 -103.5v-258q0 -9 -6 -15t-15 -6h-44q-9 0 -15 6t-6 15z" />
    <glyph glyph-name="Itilde" unicode="&#x128;" horiz-adv-x="252" 
d="M82 21v608q0 9 5.5 15t14.5 6h47q10 0 15.5 -5.5t5.5 -15.5v-608q0 -9 -6 -15t-15 -6h-47q-9 0 -14.5 6t-5.5 15zM116 711l-17 8.5t-18 4.5q-7 0 -12 -4t-9 -10q-8 -13 -18 -13h-29q-6 0 -10.5 4.5t-4.5 10.5q0 30 22 57.5t57 27.5q16 0 29 -5t29 -14q8 -5 17.5 -9
t17.5 -4q9 0 13 3.5t9 10.5q4 8 8 10.5t10 2.5h29q7 0 11 -4.5t4 -9.5q0 -19 -10 -39t-28.5 -33.5t-40.5 -13.5q-17 0 -29 4.5t-30 14.5z" />
    <glyph glyph-name="itilde" unicode="&#x129;" horiz-adv-x="223" 
d="M70 21v441q0 9 6 15t15 6h41q9 0 15 -6t6 -15v-441q0 -9 -6 -15t-15 -6h-41q-9 0 -15 6t-6 15zM105 567q-8 4 -16.5 8.5t-16.5 4.5t-12.5 -4t-8.5 -10q-8 -13 -18 -13h-29q-6 0 -10.5 4.5t-4.5 10.5q0 30 21 55t55 25q17 0 28 -4.5t27 -13.5q2 -1 12.5 -7t21.5 -6
q8 0 12 3.5t9 11.5q5 7 8.5 10t10.5 3h27q8 0 12 -5t4 -10q0 -31 -21 -56.5t-56 -25.5q-17 0 -28 4.5t-27 14.5z" />
    <glyph glyph-name="Imacron" unicode="&#x12a;" horiz-adv-x="252" 
d="M82 21v608q0 9 5.5 15t14.5 6h47q10 0 15.5 -5.5t5.5 -15.5v-608q0 -9 -6 -15t-15 -6h-47q-9 0 -14.5 6t-5.5 15zM-1 717v34q0 9 5.5 14.5t15.5 5.5h212q10 0 15.5 -5.5t5.5 -14.5v-34q0 -9 -5.5 -14.5t-15.5 -5.5h-212q-10 0 -15.5 5.5t-5.5 14.5z" />
    <glyph glyph-name="imacron" unicode="&#x12b;" horiz-adv-x="223" 
d="M70 21v441q0 9 6 15t15 6h41q9 0 15 -6t6 -15v-441q0 -9 -6 -15t-15 -6h-41q-9 0 -15 6t-6 15zM-10 595v27q0 9 5.5 14.5t15.5 5.5h204q9 0 14.5 -5.5t5.5 -14.5v-27q0 -10 -5.5 -15.5t-14.5 -5.5h-204q-10 0 -15.5 5.5t-5.5 15.5z" />
    <glyph glyph-name="Ibreve" unicode="&#x12c;" horiz-adv-x="252" 
d="M82 21v608q0 9 5.5 15t14.5 6h47q10 0 15.5 -5.5t5.5 -15.5v-608q0 -9 -6 -15t-15 -6h-47q-9 0 -14.5 6t-5.5 15zM11 803q0 7 4.5 12t12.5 5h27q8 0 13 -5t5 -12q0 -26 12 -43.5t42 -17.5q29 0 41.5 17.5t12.5 43.5q0 7 4.5 12t12.5 5h27q8 0 13 -5t5 -12q0 -51 -27 -83
t-89 -32q-63 0 -89.5 32t-26.5 83z" />
    <glyph glyph-name="ibreve" unicode="&#x12d;" horiz-adv-x="223" 
d="M70 21v441q0 9 6 15t15 6h41q9 0 15 -6t6 -15v-441q0 -9 -6 -15t-15 -6h-41q-9 0 -15 6t-6 15zM0 662q0 8 4.5 13t13.5 5h26q8 0 12.5 -5t4.5 -13q0 -59 50 -59q51 0 51 59q0 8 4.5 13t12.5 5h27q9 0 13.5 -5t4.5 -13q0 -49 -26.5 -81.5t-86.5 -32.5q-58 0 -84.5 32.5
t-26.5 81.5z" />
    <glyph glyph-name="Iogonek" unicode="&#x12e;" horiz-adv-x="266" 
d="M17 -72q0 47 23 77t63 38l-4 6q-3 6 -3 12v568q0 9 5.5 15t14.5 6h47q10 0 15.5 -5.5t5.5 -15.5v-608q0 -9 -6 -15t-15 -6h-13q-30 0 -48.5 -20t-18.5 -52q0 -31 18.5 -50.5t48.5 -19.5h13q9 0 15 -5.5t6 -15.5v-21q0 -9 -6 -14.5t-15 -5.5h-17q-61 0 -95 36t-34 96z" />
    <glyph glyph-name="iogonek" unicode="&#x12f;" horiz-adv-x="239" 
d="M78 595v49q0 9 6 15.5t15 6.5h56q9 0 15.5 -6.5t6.5 -15.5v-49q0 -9 -6.5 -15t-15.5 -6h-56q-9 0 -15 6t-6 15zM12 -70q0 45 21 74t58 38l-1 3q-4 3 -4 9v408q0 9 6 15t15 6h41q10 0 15.5 -5.5t5.5 -15.5v-441q0 -9 -6 -15t-15 -6h-5q-31 0 -49 -19t-18 -51
q0 -31 18 -49.5t49 -18.5h13q9 0 15 -6t6 -16v-19q0 -10 -6 -15.5t-15 -5.5h-17q-59 0 -93 35.5t-34 94.5z" />
    <glyph glyph-name="Idotaccent" unicode="&#x130;" horiz-adv-x="252" 
d="M82 21v608q0 9 5.5 15t14.5 6h47q10 0 15.5 -5.5t5.5 -15.5v-608q0 -9 -6 -15t-15 -6h-47q-9 0 -14.5 6t-5.5 15zM76 717v59q0 9 6 15t15 6h58q10 0 16 -6t6 -15v-59q0 -9 -6 -14.5t-16 -5.5h-58q-9 0 -15 5.5t-6 14.5z" />
    <glyph glyph-name="dotlessi" unicode="&#x131;" horiz-adv-x="223" 
d="M70 21v441q0 9 6 15t15 6h41q9 0 15 -6t6 -15v-441q0 -9 -6 -15t-15 -6h-41q-9 0 -15 6t-6 15z" />
    <glyph glyph-name="IJ" unicode="&#x132;" horiz-adv-x="581" 
d="M82 21v608q0 9 5.5 15t14.5 6h47q10 0 15.5 -5.5t5.5 -15.5v-608q0 -9 -6 -15t-15 -6h-47q-9 0 -14.5 6t-5.5 15zM244 12v36q0 10 6 16.5t16 6.5q73 0 111.5 46.5t38.5 126.5v385q0 9 6 15t16 6h45q10 0 16 -6t6 -16v-390q0 -116 -62.5 -181.5t-176.5 -65.5q-10 0 -16 6
t-6 15z" />
    <glyph glyph-name="ij" unicode="&#x133;" horiz-adv-x="457" 
d="M62 595v49q0 9 6 15.5t16 6.5h54q10 0 16.5 -6.5t6.5 -15.5v-49q0 -9 -6.5 -15t-16.5 -6h-54q-10 0 -16 6t-6 15zM70 21v441q0 9 6 15t15 6h41q9 0 15 -6t6 -15v-441q0 -9 -6 -15t-15 -6h-41q-9 0 -15 6t-6 15zM294 595v49q0 9 6 15.5t15 6.5h58q9 0 15 -6.5t6 -15.5v-49
q0 -9 -6 -15t-15 -6h-58q-9 0 -15 6t-6 15zM192 -155v30q0 9 5.5 14.5t15.5 5.5h13q45 0 60.5 23.5t15.5 69.5v474q0 10 6 15.5t15 5.5h42q9 0 15.5 -6t6.5 -15v-475q0 -164 -157 -164h-17q-10 0 -15.5 6.5t-5.5 15.5z" />
    <glyph glyph-name="Jcircumflex" unicode="&#x134;" horiz-adv-x="587" 
d="M36 187q0 8 5.5 14t14.5 6h47q21 0 23 -21q6 -61 47 -89.5t102 -28.5q71 0 109.5 46.5t38.5 125.5v332h-332q-9 0 -15 6t-6 16v35q0 9 6 15t15 6h399q10 0 16 -6t6 -16v-390q0 -74 -28.5 -130t-82.5 -86.5t-127 -30.5q-101 0 -167.5 49.5t-70.5 146.5zM153 708q0 8 10 18
l85 84q9 9 15 11.5t15 2.5h28q9 0 15.5 -2.5t14.5 -11.5l86 -84q9 -10 9 -18q0 -11 -13 -11h-24q-16 0 -25 6l-77 53l-76 -53q-11 -6 -26 -6h-24q-13 0 -13 11z" />
    <glyph glyph-name="jcircumflex" unicode="&#x135;" horiz-adv-x="283" 
d="M11 -155v34q0 10 6 16t16 6h18q47 0 61.5 23.5t14.5 68.5v417h-86q-9 0 -15 6t-6 15v31q0 10 6 15.5t15 5.5h150q10 0 16 -6t6 -15v-469q0 -78 -37.5 -124t-119.5 -46h-23q-10 0 -16 6.5t-6 15.5zM-10 564q0 8 10 18l85 84q9 9 15 11.5t16 2.5h26q9 0 15 -2.5t15 -11.5
l85 -84q10 -11 10 -18q0 -11 -14 -11h-23q-16 0 -25 6l-76 53l-77 -53q-11 -6 -26 -6h-23q-13 0 -13 11z" />
    <glyph glyph-name="Kcommaaccent" unicode="&#x136;" horiz-adv-x="556" 
d="M82 21v607q0 10 5.5 16t14.5 6h44q10 0 16 -6t6 -16v-231l252 238q15 15 36 15h47q7 0 12.5 -5.5t5.5 -12.5q0 -8 -4 -12l-290 -281l309 -307q5 -6 5 -13q0 -8 -5.5 -13.5t-13.5 -5.5h-48q-13 0 -20.5 4t-15.5 11l-270 263v-257q0 -9 -6.5 -15t-15.5 -6h-44q-9 0 -14.5 6
t-5.5 15zM221 -182l15 109q4 27 26 27h59q6 0 10.5 -5t4.5 -11q0 -7 -3 -15l-40 -103q-5 -11 -10.5 -16.5t-16.5 -5.5h-32q-7 0 -11 6t-2 14z" />
    <glyph glyph-name="kcommaaccent" unicode="&#x137;" horiz-adv-x="477" 
d="M71 21v617q0 10 6 16t15 6h40q9 0 15 -6t6 -16v-324l186 153q14 11 19.5 13.5t17.5 2.5h47q8 0 13 -5t5 -14t-10 -18l-217 -178l240 -231q10 -10 10 -17q0 -9 -5 -14.5t-13 -5.5h-46q-14 0 -20 3t-17 13l-210 199v-194q0 -9 -6 -15t-15 -6h-40q-9 0 -15 6t-6 15z
M168 -182l17 109q4 27 26 27h57q6 0 10.5 -5t4.5 -11q0 -8 -4 -15l-39 -103q-5 -11 -10.5 -16.5t-16.5 -5.5h-31q-7 0 -11 6t-3 14z" />
    <glyph glyph-name="kgreenlandic" unicode="&#x138;" horiz-adv-x="478" 
d="M70 21v441q0 9 6 15t15 6h40q10 0 15.5 -5.5t5.5 -15.5v-172l195 177q13 11 18.5 13.5t18.5 2.5h41q9 0 14.5 -5t5.5 -14q0 -10 -11 -18l-221 -204l240 -205q11 -9 11 -17q0 -9 -5.5 -14.5t-13.5 -5.5h-46q-13 0 -19.5 3.5t-18.5 12.5l-209 177v-172q0 -9 -6 -15t-15 -6
h-40q-9 0 -15 6t-6 15z" />
    <glyph glyph-name="Lacute" unicode="&#x139;" horiz-adv-x="521" 
d="M82 21v608q0 9 5.5 15t14.5 6h47q9 0 14.5 -6t5.5 -15v-551h310q11 0 17 -6t6 -15v-36q0 -9 -6.5 -15t-16.5 -6h-377q-9 0 -14.5 6t-5.5 15zM86 712q0 7 5 12l68 83q10 11 16.5 14t18.5 3h66q17 0 17 -18q0 -6 -4 -11l-107 -88q-8 -7 -14.5 -8.5t-16.5 -1.5h-34
q-15 0 -15 15z" />
    <glyph glyph-name="lacute" unicode="&#x13a;" horiz-adv-x="224" 
d="M71 21v617q0 10 6 16t15 6h41q9 0 15 -6t6 -16v-617q0 -9 -6 -15t-15 -6h-41q-9 0 -15 6t-6 15zM81 712q0 7 5 12l69 83q9 11 15.5 14t18.5 3h60q18 0 18 -18q0 -6 -5 -11l-106 -88q-8 -7 -14.5 -8.5t-16.5 -1.5h-29q-15 0 -15 15z" />
    <glyph glyph-name="Lcommaaccent" unicode="&#x13b;" horiz-adv-x="521" 
d="M82 21v608q0 9 5.5 15t14.5 6h47q9 0 14.5 -6t5.5 -15v-551h310q11 0 17 -6t6 -15v-36q0 -9 -6.5 -15t-16.5 -6h-377q-9 0 -14.5 6t-5.5 15zM216 -182l15 109q4 27 26 27h59q6 0 10.5 -5t4.5 -11q0 -7 -3 -15l-40 -103q-5 -11 -10.5 -16.5t-16.5 -5.5h-32q-7 0 -11 6
t-2 14z" />
    <glyph glyph-name="lcommaaccent" unicode="&#x13c;" horiz-adv-x="224" 
d="M71 21v617q0 10 6 16t15 6h41q9 0 15 -6t6 -16v-617q0 -9 -6 -15t-15 -6h-41q-9 0 -15 6t-6 15zM42 -182l17 109q4 27 26 27h57q6 0 10.5 -5t4.5 -11q0 -8 -4 -15l-39 -103q-5 -11 -10.5 -16.5t-16.5 -5.5h-31q-7 0 -11 6t-3 14z" />
    <glyph glyph-name="Lcaron" unicode="&#x13d;" horiz-adv-x="521" 
d="M82 21v608q0 9 5.5 15t14.5 6h47q9 0 14.5 -6t5.5 -15v-551h310q11 0 17 -6t6 -15v-36q0 -9 -6.5 -15t-16.5 -6h-377q-9 0 -14.5 6t-5.5 15zM259 524l15 109q4 27 26 27h59q6 0 10.5 -5t4.5 -11q0 -7 -3 -15l-40 -103q-5 -11 -10.5 -16.5t-16.5 -5.5h-32q-7 0 -11 6
t-2 14z" />
    <glyph glyph-name="lcaron" unicode="&#x13e;" horiz-adv-x="267" 
d="M71 21v617q0 10 6 16t15 6h41q9 0 15 -6t6 -16v-617q0 -9 -6 -15t-15 -6h-41q-9 0 -15 6t-6 15zM204 524l17 109q4 27 26 27h57q6 0 10.5 -5t4.5 -11q0 -8 -4 -15l-39 -103q-5 -11 -10.5 -16.5t-16.5 -5.5h-31q-7 0 -11 6t-3 14z" />
    <glyph glyph-name="Ldot" unicode="&#x13f;" horiz-adv-x="521" 
d="M82 21v608q0 9 5.5 15t14.5 6h47q9 0 14.5 -6t5.5 -15v-551h310q11 0 17 -6t6 -15v-36q0 -9 -6.5 -15t-16.5 -6h-377q-9 0 -14.5 6t-5.5 15zM273 312v57q0 9 5.5 15t15.5 6h57q10 0 16 -6t6 -15v-57q0 -9 -6 -15.5t-16 -6.5h-57q-10 0 -15.5 6.5t-5.5 15.5z" />
    <glyph glyph-name="ldot" unicode="&#x140;" horiz-adv-x="277" 
d="M71 21v617q0 10 6 16t15 6h41q9 0 15 -6t6 -16v-617q0 -9 -6 -15t-15 -6h-41q-9 0 -15 6t-6 15zM200 307v57q0 9 5.5 15t15.5 6h57q10 0 16 -6t6 -15v-57q0 -9 -6 -15.5t-16 -6.5h-57q-10 0 -15.5 6.5t-5.5 15.5z" />
    <glyph glyph-name="Lslash" unicode="&#x141;" horiz-adv-x="529" 
d="M89 21v240l-48 -19q-8 -2 -11 -2q-9 0 -14 4.5t-5 12.5v32q0 10 4.5 14.5t16.5 9.5l57 22v294q0 9 5.5 15t15.5 6h46q9 0 15 -6t6 -15v-259l134 52q8 3 12 3q9 0 13.5 -4.5t4.5 -12.5v-32q0 -10 -4 -14.5t-16 -9.5l-144 -57v-217h311q9 0 15 -6t6 -15v-36q0 -9 -6 -15
t-15 -6h-378q-10 0 -15.5 6t-5.5 15z" />
    <glyph glyph-name="lslash" unicode="&#x142;" horiz-adv-x="254" 
d="M85 21v260l-33 -12q-7 -2 -12 -2q-8 0 -13 4t-5 12v32q0 10 4.5 14.5t16.5 9.5l42 17v282q0 10 6.5 16t15.5 6h41q10 0 15.5 -6t5.5 -16v-251l34 13q6 3 12 3q8 0 12.5 -4t4.5 -13v-31q0 -10 -4 -15t-16 -9l-43 -18v-292q0 -9 -6 -15t-15 -6h-41q-9 0 -15.5 6t-6.5 15z
" />
    <glyph glyph-name="Nacute" unicode="&#x143;" horiz-adv-x="644" 
d="M82 21v607q0 10 5.5 16t14.5 6h41q9 0 14 -3.5t9 -9.5l312 -479v470q0 10 6 16t15 6h42q10 0 16 -6t6 -16v-606q0 -9 -6 -15.5t-15 -6.5h-42q-16 0 -22 13l-312 475v-467q0 -9 -6 -15t-15 -6h-43q-9 0 -14.5 6t-5.5 15zM284 712q0 7 5 12l68 83q10 11 16.5 14t18.5 3h66
q17 0 17 -18q0 -6 -4 -11l-107 -88q-8 -7 -14.5 -8.5t-16.5 -1.5h-34q-15 0 -15 15z" />
    <glyph glyph-name="nacute" unicode="&#x144;" horiz-adv-x="561" 
d="M70 21v441q0 9 6 15t15 6h40q10 0 15.5 -5.5t5.5 -15.5v-41q28 34 65 52.5t91 18.5q90 0 139 -57t49 -151v-263q0 -9 -6 -15t-15 -6h-43q-9 0 -15 6t-6 15v258q0 67 -32.5 104t-93.5 37q-59 0 -94.5 -37.5t-35.5 -103.5v-258q0 -9 -6 -15t-15 -6h-43q-9 0 -15 6t-6 15z
M239 568q0 7 5 12l69 83q9 11 15.5 14t18.5 3h60q18 0 18 -18q0 -6 -5 -11l-106 -88q-8 -7 -14.5 -8.5t-16.5 -1.5h-29q-15 0 -15 15z" />
    <glyph glyph-name="Ncommaaccent" unicode="&#x145;" horiz-adv-x="644" 
d="M82 21v607q0 10 5.5 16t14.5 6h41q9 0 14 -3.5t9 -9.5l312 -479v470q0 10 6 16t15 6h42q10 0 16 -6t6 -16v-606q0 -9 -6 -15.5t-15 -6.5h-42q-16 0 -22 13l-312 475v-467q0 -9 -6 -15t-15 -6h-43q-9 0 -14.5 6t-5.5 15zM256 -182l15 109q4 27 26 27h59q6 0 10.5 -5
t4.5 -11q0 -7 -3 -15l-40 -103q-5 -11 -10.5 -16.5t-16.5 -5.5h-32q-7 0 -11 6t-2 14z" />
    <glyph glyph-name="ncommaaccent" unicode="&#x146;" horiz-adv-x="561" 
d="M70 21v441q0 9 6 15t15 6h40q10 0 15.5 -5.5t5.5 -15.5v-41q28 34 65 52.5t91 18.5q90 0 139 -57t49 -151v-263q0 -9 -6 -15t-15 -6h-43q-9 0 -15 6t-6 15v258q0 67 -32.5 104t-93.5 37q-59 0 -94.5 -37.5t-35.5 -103.5v-258q0 -9 -6 -15t-15 -6h-43q-9 0 -15 6t-6 15z
M218 -182l17 109q4 27 26 27h57q6 0 10.5 -5t4.5 -11q0 -8 -4 -15l-39 -103q-5 -11 -10.5 -16.5t-16.5 -5.5h-31q-7 0 -11 6t-3 14z" />
    <glyph glyph-name="Ncaron" unicode="&#x147;" horiz-adv-x="644" 
d="M82 21v607q0 10 5.5 16t14.5 6h41q9 0 14 -3.5t9 -9.5l312 -479v470q0 10 6 16t15 6h42q10 0 16 -6t6 -16v-606q0 -9 -6 -15.5t-15 -6.5h-42q-16 0 -22 13l-312 475v-467q0 -9 -6 -15t-15 -6h-43q-9 0 -14.5 6t-5.5 15zM278 711l-85 84q-10 10 -10 18q0 11 13 11h24
q15 0 26 -6l76 -53l77 53q9 6 25 6h24q13 0 13 -11q0 -8 -9 -18l-86 -84q-8 -10 -14.5 -12t-15.5 -2h-28q-9 0 -15 2t-15 12z" />
    <glyph glyph-name="ncaron" unicode="&#x148;" horiz-adv-x="561" 
d="M70 21v441q0 9 6 15t15 6h40q10 0 15.5 -5.5t5.5 -15.5v-41q28 34 65 52.5t91 18.5q90 0 139 -57t49 -151v-263q0 -9 -6 -15t-15 -6h-43q-9 0 -15 6t-6 15v258q0 67 -32.5 104t-93.5 37q-59 0 -94.5 -37.5t-35.5 -103.5v-258q0 -9 -6 -15t-15 -6h-43q-9 0 -15 6t-6 15z
M239 567l-85 84q-10 10 -10 18q0 11 13 11h23q15 0 26 -6l77 -53l76 53q9 6 25 6h23q14 0 14 -11q0 -8 -10 -18l-85 -84q-9 -10 -15 -12t-15 -2h-26q-10 0 -16 2t-15 12z" />
    <glyph glyph-name="napostrophe" unicode="&#x149;" horiz-adv-x="561" 
d="M70 21v441q0 9 6 15t15 6h40q10 0 15.5 -5.5t5.5 -15.5v-41q28 34 65 52.5t91 18.5q90 0 139 -57t49 -151v-263q0 -9 -6 -15t-15 -6h-43q-9 0 -15 6t-6 15v258q0 67 -32.5 104t-93.5 37q-59 0 -94.5 -37.5t-35.5 -103.5v-258q0 -9 -6 -15t-15 -6h-43q-9 0 -15 6t-6 15z
M81 562l17 109q4 27 26 27h57q6 0 10.5 -5t4.5 -11q0 -8 -4 -15l-39 -103q-5 -11 -10.5 -16.5t-16.5 -5.5h-31q-7 0 -11 6t-3 14z" />
    <glyph glyph-name="Eng" unicode="&#x14a;" horiz-adv-x="644" 
d="M369 -188v36q0 9 6 15t15 6h9q46 0 62.5 23.5t16.5 68.5v51l-312 476v-467q0 -9 -6 -15t-15 -6h-43q-9 0 -14.5 6t-5.5 15v607q0 10 5.5 16t14.5 6h41q9 0 14 -3.5t9 -9.5l312 -479v470q0 10 6 16t15 6h42q10 0 16 -6t6 -16v-668q0 -169 -167 -169h-6q-9 0 -15 5.5
t-6 15.5z" />
    <glyph glyph-name="eng" unicode="&#x14b;" horiz-adv-x="561" 
d="M301 -188v34q0 9 5.5 15t14.5 6h10q48 0 64 24t16 74v314q0 67 -32.5 104t-93.5 37q-59 0 -94.5 -37.5t-35.5 -103.5v-258q0 -9 -6 -15t-15 -6h-43q-9 0 -15 6t-6 15v441q0 9 6 15t15 6h40q10 0 15.5 -5.5t5.5 -15.5v-41q28 34 65 52.5t91 18.5q90 0 139 -57t49 -151
v-321q0 -172 -166 -172h-9q-9 0 -14.5 6t-5.5 15z" />
    <glyph glyph-name="Omacron" unicode="&#x14c;" horiz-adv-x="627" 
d="M58 246q-1 28 -1 79t1 78q3 127 71.5 192t184.5 65t184 -65t71 -192q2 -54 2 -78q0 -23 -2 -79q-3 -128 -68.5 -191.5t-186.5 -63.5t-187 63.5t-69 191.5zM481 251q2 56 2 74q0 21 -2 74q-3 93 -48 138.5t-119 45.5t-119 -45.5t-48 -138.5q-1 -26 -1 -74q0 -46 1 -74
q3 -93 47.5 -138t119.5 -45q74 0 119 45t48 138zM187 717v34q0 9 5.5 14.5t15.5 5.5h212q10 0 15.5 -5.5t5.5 -14.5v-34q0 -9 -5.5 -14.5t-15.5 -5.5h-212q-10 0 -15.5 5.5t-5.5 14.5z" />
    <glyph glyph-name="omacron" unicode="&#x14d;" horiz-adv-x="531" 
d="M49 202l-1 40l1 39q4 96 60 153.5t157 57.5q100 0 156 -57.5t60 -153.5q2 -20 2 -39q0 -20 -2 -40q-4 -96 -59 -153.5t-157 -57.5t-157.5 57.5t-59.5 153.5zM398 206q1 10 1 36t-1 35q-3 70 -38 108t-94 38q-60 0 -94.5 -38t-37.5 -108l-1 -35l1 -36q3 -70 37.5 -108
t94.5 -38q59 0 94 38t38 108zM144 595v27q0 9 5.5 14.5t15.5 5.5h204q9 0 14.5 -5.5t5.5 -14.5v-27q0 -10 -5.5 -15.5t-14.5 -5.5h-204q-10 0 -15.5 5.5t-5.5 15.5z" />
    <glyph glyph-name="Obreve" unicode="&#x14e;" horiz-adv-x="627" 
d="M58 246q-1 28 -1 79t1 78q3 127 71.5 192t184.5 65t184 -65t71 -192q2 -54 2 -78q0 -23 -2 -79q-3 -128 -68.5 -191.5t-186.5 -63.5t-187 63.5t-69 191.5zM481 251q2 56 2 74q0 21 -2 74q-3 93 -48 138.5t-119 45.5t-119 -45.5t-48 -138.5q-1 -26 -1 -74q0 -46 1 -74
q3 -93 47.5 -138t119.5 -45q74 0 119 45t48 138zM198 803q0 7 4.5 12t12.5 5h27q8 0 13 -5t5 -12q0 -26 12 -43.5t42 -17.5q29 0 41.5 17.5t12.5 43.5q0 7 4.5 12t12.5 5h27q8 0 13 -5t5 -12q0 -51 -27 -83t-89 -32q-63 0 -89.5 32t-26.5 83z" />
    <glyph glyph-name="obreve" unicode="&#x14f;" horiz-adv-x="531" 
d="M49 202l-1 40l1 39q4 96 60 153.5t157 57.5q100 0 156 -57.5t60 -153.5q2 -20 2 -39q0 -20 -2 -40q-4 -96 -59 -153.5t-157 -57.5t-157.5 57.5t-59.5 153.5zM398 206q1 10 1 36t-1 35q-3 70 -38 108t-94 38q-60 0 -94.5 -38t-37.5 -108l-1 -35l1 -36q3 -70 37.5 -108
t94.5 -38q59 0 94 38t38 108zM154 662q0 8 4.5 13t13.5 5h26q8 0 12.5 -5t4.5 -13q0 -59 50 -59q51 0 51 59q0 8 4.5 13t12.5 5h27q9 0 13.5 -5t4.5 -13q0 -49 -26.5 -81.5t-86.5 -32.5q-58 0 -84.5 32.5t-26.5 81.5z" />
    <glyph glyph-name="Ohungarumlaut" unicode="&#x150;" horiz-adv-x="627" 
d="M58 246q-1 28 -1 79t1 78q3 127 71.5 192t184.5 65t184 -65t71 -192q2 -54 2 -78q0 -23 -2 -79q-3 -128 -68.5 -191.5t-186.5 -63.5t-187 63.5t-69 191.5zM481 251q2 56 2 74q0 21 -2 74q-3 93 -48 138.5t-119 45.5t-119 -45.5t-48 -138.5q-1 -26 -1 -74q0 -46 1 -74
q3 -93 47.5 -138t119.5 -45q74 0 119 45t48 138zM205 712q0 4 5 14l36 80q5 10 12.5 14t21.5 4h55q9 0 14 -4.5t5 -13.5q0 -6 -6 -12l-72 -84q-11 -13 -29 -13h-27q-15 0 -15 15zM357 712q0 4 5 14l36 80q5 10 13 14t22 4h55q8 0 13 -4.5t5 -13.5q0 -6 -5 -12l-73 -84
q-11 -13 -28 -13h-28q-15 0 -15 15z" />
    <glyph glyph-name="ohungarumlaut" unicode="&#x151;" horiz-adv-x="531" 
d="M49 202l-1 40l1 39q4 96 60 153.5t157 57.5q100 0 156 -57.5t60 -153.5q2 -20 2 -39q0 -20 -2 -40q-4 -96 -59 -153.5t-157 -57.5t-157.5 57.5t-59.5 153.5zM398 206q1 10 1 36t-1 35q-3 70 -38 108t-94 38q-60 0 -94.5 -38t-37.5 -108l-1 -35l1 -36q3 -70 37.5 -108
t94.5 -38q59 0 94 38t38 108zM152 568q0 4 5 14l36 80q5 10 13 14t21 4h51q8 0 13 -4.5t5 -13.5q0 -6 -5 -12l-73 -84q-11 -13 -29 -13h-22q-15 0 -15 15zM303 568q0 4 4 14l37 80q4 10 12 14t22 4h50q9 0 14 -4.5t5 -13.5q0 -4 -6 -12l-73 -84q-11 -13 -28 -13h-22
q-15 0 -15 15z" />
    <glyph glyph-name="OE" unicode="&#x152;" horiz-adv-x="852" 
d="M59 253v73v73q3 126 65.5 188.5t202.5 62.5h448q10 0 16 -6t6 -16v-33q0 -10 -6 -15.5t-16 -5.5h-283v-207h262q11 0 17 -6t6 -16v-32q0 -9 -6 -15t-17 -6h-262v-215h290q10 0 16.5 -6t6.5 -16v-34q0 -9 -6.5 -15t-16.5 -6h-460q-93 0 -150.5 27t-83.5 82t-29 144z
M407 77v497h-75q-97 0 -139.5 -43t-44.5 -136l-1 -69l1 -70q2 -66 19.5 -104.5t56 -56.5t103.5 -18h80z" />
    <glyph glyph-name="oe" unicode="&#x153;" horiz-adv-x="870" 
d="M50 202q-1 10 -1 40q0 29 1 39q4 96 60 153.5t157 57.5q61 0 105.5 -24t70.5 -68q27 44 70.5 68t100.5 24q102 0 158.5 -65t56.5 -176v-17q0 -9 -6 -15t-16 -6h-322v-9q3 -60 37 -102.5t91 -42.5q42 0 68.5 17t40.5 35q8 12 12.5 14t15.5 2h42q8 0 13.5 -4.5t5.5 -11.5
q0 -21 -25 -49.5t-70 -49.5t-102 -21t-101 23.5t-70 67.5q-26 -44 -70 -67.5t-106 -23.5q-103 0 -158 57.5t-59 153.5zM744 276v3q0 65 -35 105.5t-95 40.5t-94.5 -40.5t-34.5 -105.5v-3h259zM399 206v36v35q-3 70 -38 108t-94 38q-60 0 -95 -38t-37 -108l-1 -35l1 -36
q2 -70 37 -108t95 -38q59 0 94 38t38 108z" />
    <glyph glyph-name="Racute" unicode="&#x154;" horiz-adv-x="608" 
d="M82 21v607q0 10 5.5 16t14.5 6h227q106 0 166 -49.5t60 -144.5q0 -70 -35.5 -116t-98.5 -63l143 -248q3 -6 3 -10q0 -8 -5.5 -13.5t-13.5 -5.5h-41q-14 0 -21.5 6.5t-14.5 18.5l-137 238h-165v-242q0 -9 -6.5 -15t-15.5 -6h-45q-9 0 -14.5 6t-5.5 15zM325 339
q140 0 140 118t-140 118h-156v-236h156zM247 712q0 7 5 12l68 83q10 11 16.5 14t18.5 3h66q17 0 17 -18q0 -6 -4 -11l-107 -88q-8 -7 -14.5 -8.5t-16.5 -1.5h-34q-15 0 -15 15z" />
    <glyph glyph-name="racute" unicode="&#x155;" horiz-adv-x="349" 
d="M70 21v440q0 9 6 15.5t15 6.5h39q10 0 16 -6t6 -16v-41q38 63 129 63h37q10 0 15.5 -5.5t5.5 -15.5v-35q0 -9 -5.5 -15t-15.5 -6h-53q-51 0 -80.5 -29.5t-29.5 -81.5v-274q0 -9 -6.5 -15t-15.5 -6h-42q-9 0 -15 6t-6 15zM152 568q0 7 5 12l69 83q9 11 15.5 14t18.5 3h60
q18 0 18 -18q0 -6 -5 -11l-106 -88q-8 -7 -14.5 -8.5t-16.5 -1.5h-29q-15 0 -15 15z" />
    <glyph glyph-name="Rcommaaccent" unicode="&#x156;" horiz-adv-x="608" 
d="M82 21v607q0 10 5.5 16t14.5 6h227q106 0 166 -49.5t60 -144.5q0 -70 -35.5 -116t-98.5 -63l143 -248q3 -6 3 -10q0 -8 -5.5 -13.5t-13.5 -5.5h-41q-14 0 -21.5 6.5t-14.5 18.5l-137 238h-165v-242q0 -9 -6.5 -15t-15.5 -6h-45q-9 0 -14.5 6t-5.5 15zM325 339
q140 0 140 118t-140 118h-156v-236h156zM238 -182l15 109q4 27 26 27h59q6 0 10.5 -5t4.5 -11q0 -7 -3 -15l-40 -103q-5 -11 -10.5 -16.5t-16.5 -5.5h-32q-7 0 -11 6t-2 14z" />
    <glyph glyph-name="rcommaaccent" unicode="&#x157;" horiz-adv-x="349" 
d="M70 21v440q0 9 6 15.5t15 6.5h39q10 0 16 -6t6 -16v-41q38 63 129 63h37q10 0 15.5 -5.5t5.5 -15.5v-35q0 -9 -5.5 -15t-15.5 -6h-53q-51 0 -80.5 -29.5t-29.5 -81.5v-274q0 -9 -6.5 -15t-15.5 -6h-42q-9 0 -15 6t-6 15zM37 -182l17 109q4 27 26 27h57q6 0 10.5 -5
t4.5 -11q0 -8 -4 -15l-39 -103q-5 -11 -10.5 -16.5t-16.5 -5.5h-31q-7 0 -11 6t-3 14z" />
    <glyph glyph-name="Rcaron" unicode="&#x158;" horiz-adv-x="608" 
d="M82 21v607q0 10 5.5 16t14.5 6h227q106 0 166 -49.5t60 -144.5q0 -70 -35.5 -116t-98.5 -63l143 -248q3 -6 3 -10q0 -8 -5.5 -13.5t-13.5 -5.5h-41q-14 0 -21.5 6.5t-14.5 18.5l-137 238h-165v-242q0 -9 -6.5 -15t-15.5 -6h-45q-9 0 -14.5 6t-5.5 15zM325 339
q140 0 140 118t-140 118h-156v-236h156zM241 711l-85 84q-10 10 -10 18q0 11 13 11h24q15 0 26 -6l76 -53l77 53q9 6 25 6h24q13 0 13 -11q0 -8 -9 -18l-86 -84q-8 -10 -14.5 -12t-15.5 -2h-28q-9 0 -15 2t-15 12z" />
    <glyph glyph-name="rcaron" unicode="&#x159;" horiz-adv-x="349" 
d="M70 21v440q0 9 6 15.5t15 6.5h39q10 0 16 -6t6 -16v-41q38 63 129 63h37q10 0 15.5 -5.5t5.5 -15.5v-35q0 -9 -5.5 -15t-15.5 -6h-53q-51 0 -80.5 -29.5t-29.5 -81.5v-274q0 -9 -6.5 -15t-15.5 -6h-42q-9 0 -15 6t-6 15zM144 567l-85 84q-10 10 -10 18q0 11 13 11h23
q15 0 26 -6l77 -53l76 53q9 6 25 6h23q14 0 14 -11q0 -8 -10 -18l-85 -84q-9 -10 -15 -12t-15 -2h-26q-10 0 -16 2t-15 12z" />
    <glyph glyph-name="Sacute" unicode="&#x15a;" horiz-adv-x="576" 
d="M40 164q0 7 5.5 12.5t13.5 5.5h46q17 0 23 -18q9 -40 48.5 -68t112.5 -28q79 0 118 28t39 77q0 31 -19 51.5t-56.5 36t-113.5 37.5q-71 21 -113.5 44t-63.5 57t-21 86q0 50 26.5 89.5t78 62.5t120.5 23q73 0 124.5 -26t78.5 -64.5t29 -77.5q0 -8 -6 -13.5t-14 -5.5h-46
q-8 0 -14.5 4.5t-9.5 13.5q-5 40 -44 66t-98 26q-63 0 -100 -24.5t-37 -72.5q0 -33 17 -53.5t53 -36t104 -36.5q79 -22 124.5 -44t67.5 -55t22 -85q0 -88 -66.5 -136.5t-179.5 -48.5q-76 0 -132.5 24t-85.5 63.5t-31 85.5zM251 712q0 7 5 12l68 83q10 11 16.5 14t18.5 3h66
q17 0 17 -18q0 -6 -4 -11l-107 -88q-8 -7 -14.5 -8.5t-16.5 -1.5h-34q-15 0 -15 15z" />
    <glyph glyph-name="sacute" unicode="&#x15b;" horiz-adv-x="472" 
d="M40 104q0 9 6.5 14.5t13.5 5.5h39q6 0 9 -2t9 -9q21 -26 47.5 -40.5t71.5 -14.5q50 0 80.5 18.5t30.5 53.5q0 23 -13 37t-43.5 25t-89.5 24q-81 18 -114.5 51.5t-33.5 86.5q0 34 20.5 66t61 52t95.5 20q59 0 100.5 -19.5t62 -45.5t20.5 -43q0 -9 -6 -14.5t-14 -5.5h-35
q-13 0 -19 10q-16 18 -26.5 28t-31 16.5t-51.5 6.5q-45 0 -69 -19t-24 -50q0 -20 10 -33.5t39 -25t85 -23.5q89 -19 125.5 -53t36.5 -88q0 -40 -23 -72.5t-68 -51t-107 -18.5q-64 0 -108 21t-65.5 47.5t-21.5 44.5zM187 568q0 7 5 12l69 83q9 11 15.5 14t18.5 3h60
q18 0 18 -18q0 -6 -5 -11l-106 -88q-8 -7 -14.5 -8.5t-16.5 -1.5h-29q-15 0 -15 15z" />
    <glyph glyph-name="Scircumflex" unicode="&#x15c;" horiz-adv-x="576" 
d="M40 164q0 7 5.5 12.5t13.5 5.5h46q17 0 23 -18q9 -40 48.5 -68t112.5 -28q79 0 118 28t39 77q0 31 -19 51.5t-56.5 36t-113.5 37.5q-71 21 -113.5 44t-63.5 57t-21 86q0 50 26.5 89.5t78 62.5t120.5 23q73 0 124.5 -26t78.5 -64.5t29 -77.5q0 -8 -6 -13.5t-14 -5.5h-46
q-8 0 -14.5 4.5t-9.5 13.5q-5 40 -44 66t-98 26q-63 0 -100 -24.5t-37 -72.5q0 -33 17 -53.5t53 -36t104 -36.5q79 -22 124.5 -44t67.5 -55t22 -85q0 -88 -66.5 -136.5t-179.5 -48.5q-76 0 -132.5 24t-85.5 63.5t-31 85.5zM150 708q0 8 10 18l85 84q9 9 15 11.5t15 2.5h28
q9 0 15.5 -2.5t14.5 -11.5l86 -84q9 -10 9 -18q0 -11 -13 -11h-24q-16 0 -25 6l-77 53l-76 -53q-11 -6 -26 -6h-24q-13 0 -13 11z" />
    <glyph glyph-name="scircumflex" unicode="&#x15d;" horiz-adv-x="472" 
d="M40 104q0 9 6.5 14.5t13.5 5.5h39q6 0 9 -2t9 -9q21 -26 47.5 -40.5t71.5 -14.5q50 0 80.5 18.5t30.5 53.5q0 23 -13 37t-43.5 25t-89.5 24q-81 18 -114.5 51.5t-33.5 86.5q0 34 20.5 66t61 52t95.5 20q59 0 100.5 -19.5t62 -45.5t20.5 -43q0 -9 -6 -14.5t-14 -5.5h-35
q-13 0 -19 10q-16 18 -26.5 28t-31 16.5t-51.5 6.5q-45 0 -69 -19t-24 -50q0 -20 10 -33.5t39 -25t85 -23.5q89 -19 125.5 -53t36.5 -88q0 -40 -23 -72.5t-68 -51t-107 -18.5q-64 0 -108 21t-65.5 47.5t-21.5 44.5zM97 564q0 8 10 18l85 84q9 9 15 11.5t16 2.5h26
q9 0 15 -2.5t15 -11.5l85 -84q10 -11 10 -18q0 -11 -14 -11h-23q-16 0 -25 6l-76 53l-77 -53q-11 -6 -26 -6h-23q-13 0 -13 11z" />
    <glyph glyph-name="Scedilla" unicode="&#x15e;" horiz-adv-x="576" 
d="M207 -164q0 4 4 7l14 13q4 4 8 4t13 -5.5t17.5 -9.5t22.5 -4q17 0 27.5 10t10.5 25t-10.5 24t-27.5 9q-10 0 -23.5 -4t-18.5 -4q-8 0 -13 5l-15 17q-3 4 -3 8q0 5 6 20l19 43q-61 8 -105.5 32.5t-68 61t-24.5 76.5q0 7 5.5 12.5t13.5 5.5h46q17 0 23 -18q9 -40 48.5 -68
t112.5 -28q79 0 118 28t39 77q0 31 -19 51.5t-56.5 36t-113.5 37.5q-71 21 -113.5 44t-63.5 57t-21 86q0 50 26.5 89.5t78 62.5t120.5 23q73 0 124.5 -26t78.5 -64.5t29 -77.5q0 -8 -6 -13.5t-14 -5.5h-46q-8 0 -14.5 4.5t-9.5 13.5q-5 40 -44 66t-98 26q-63 0 -100 -24.5
t-37 -72.5q0 -33 17 -53.5t53 -36t104 -36.5q79 -22 124.5 -44t67.5 -55t22 -85q0 -87 -66.5 -136t-178.5 -49l-21 -43q12 7 34 7q31 0 51 -21.5t20 -56.5t-22 -58t-64 -23q-32 0 -56.5 13.5t-24.5 26.5z" />
    <glyph glyph-name="scedilla" unicode="&#x15f;" horiz-adv-x="472" 
d="M154 -165q0 4 4 8l14 13q4 4 8 4t13.5 -5.5t17.5 -9.5t22 -4q16 0 26.5 10t10.5 25t-10.5 24t-26.5 9q-11 0 -24.5 -4t-18.5 -4q-7 0 -12 5l-15 17q-3 4 -3 8q0 5 6 20l20 44q-48 8 -81 28t-49 43t-16 38q0 9 6.5 14.5t13.5 5.5h38q6 0 9.5 -2t8.5 -9q24 -27 49.5 -41
t70.5 -14q50 0 80.5 18.5t30.5 53.5q0 23 -13 37t-43.5 25t-89.5 24q-81 18 -114.5 51.5t-33.5 86.5q0 34 20.5 66t61 52t95.5 20q59 0 100.5 -19.5t62 -45.5t20.5 -43q0 -9 -6 -14.5t-14 -5.5h-36q-12 0 -18 10q-16 18 -26.5 28t-31 16.5t-51.5 6.5q-45 0 -69 -19t-24 -50
q0 -20 10 -33.5t39 -25t85 -23.5q89 -19 125.5 -53t36.5 -88q0 -40 -23 -72t-67.5 -51t-106.5 -19l-20 -43q12 7 34 7q31 0 51 -21.5t20 -56.5t-22.5 -58t-63.5 -23q-32 0 -56.5 13t-24.5 26z" />
    <glyph glyph-name="Scaron" unicode="&#x160;" horiz-adv-x="576" 
d="M40 164q0 7 5.5 12.5t13.5 5.5h46q17 0 23 -18q9 -40 48.5 -68t112.5 -28q79 0 118 28t39 77q0 31 -19 51.5t-56.5 36t-113.5 37.5q-71 21 -113.5 44t-63.5 57t-21 86q0 50 26.5 89.5t78 62.5t120.5 23q73 0 124.5 -26t78.5 -64.5t29 -77.5q0 -8 -6 -13.5t-14 -5.5h-46
q-8 0 -14.5 4.5t-9.5 13.5q-5 40 -44 66t-98 26q-63 0 -100 -24.5t-37 -72.5q0 -33 17 -53.5t53 -36t104 -36.5q79 -22 124.5 -44t67.5 -55t22 -85q0 -88 -66.5 -136.5t-179.5 -48.5q-76 0 -132.5 24t-85.5 63.5t-31 85.5zM245 711l-85 84q-10 10 -10 18q0 11 13 11h24
q15 0 26 -6l76 -53l77 53q9 6 25 6h24q13 0 13 -11q0 -8 -9 -18l-86 -84q-8 -10 -14.5 -12t-15.5 -2h-28q-9 0 -15 2t-15 12z" />
    <glyph glyph-name="scaron" unicode="&#x161;" horiz-adv-x="472" 
d="M40 104q0 9 6.5 14.5t13.5 5.5h39q6 0 9 -2t9 -9q21 -26 47.5 -40.5t71.5 -14.5q50 0 80.5 18.5t30.5 53.5q0 23 -13 37t-43.5 25t-89.5 24q-81 18 -114.5 51.5t-33.5 86.5q0 34 20.5 66t61 52t95.5 20q59 0 100.5 -19.5t62 -45.5t20.5 -43q0 -9 -6 -14.5t-14 -5.5h-35
q-13 0 -19 10q-16 18 -26.5 28t-31 16.5t-51.5 6.5q-45 0 -69 -19t-24 -50q0 -20 10 -33.5t39 -25t85 -23.5q89 -19 125.5 -53t36.5 -88q0 -40 -23 -72.5t-68 -51t-107 -18.5q-64 0 -108 21t-65.5 47.5t-21.5 44.5zM192 567l-85 84q-10 10 -10 18q0 11 13 11h23q15 0 26 -6
l77 -53l76 53q9 6 25 6h23q14 0 14 -11q0 -8 -10 -18l-85 -84q-9 -10 -15 -12t-15 -2h-26q-10 0 -16 2t-15 12z" />
    <glyph glyph-name="Tcaron" unicode="&#x164;" horiz-adv-x="536" 
d="M224 21v549h-179q-10 0 -16 6t-6 16v36q0 10 6 16t16 6h446q10 0 15.5 -6t5.5 -16v-36q0 -10 -6 -16t-15 -6h-179v-549q0 -9 -6.5 -15t-15.5 -6h-45q-9 0 -15 6t-6 15zM224 711l-85 84q-10 10 -10 18q0 11 13 11h24q15 0 26 -6l76 -53l77 53q9 6 25 6h24q13 0 13 -11
q0 -8 -9 -18l-86 -84q-8 -10 -14.5 -12t-15.5 -2h-28q-9 0 -15 2t-15 12z" />
    <glyph glyph-name="tcaron" unicode="&#x165;" horiz-adv-x="333" 
d="M111 163v249h-73q-9 0 -14.5 5.5t-5.5 14.5v30q0 9 5.5 15t14.5 6h73v155q0 10 6 16t15 6h41q9 0 15 -6t6 -16v-155h115q10 0 16 -6t6 -15v-30q0 -9 -6 -14.5t-16 -5.5h-115v-243q0 -47 15.5 -71.5t52.5 -24.5h57q9 0 14.5 -6t5.5 -15v-31q0 -9 -5.5 -15t-14.5 -6h-64
q-144 0 -144 163zM273 586l17 109q4 27 26 27h57q6 0 10.5 -5t4.5 -11q0 -8 -4 -15l-39 -103q-5 -11 -10.5 -16.5t-16.5 -5.5h-31q-7 0 -11 6t-3 14z" />
    <glyph glyph-name="Tbar" unicode="&#x166;" horiz-adv-x="544" 
d="M229 21v290h-106q-10 0 -15.5 6t-5.5 16v22q0 10 5.5 16t15.5 6h106v193h-180q-9 0 -15 6t-6 16v36q0 10 6 16t15 6h445q10 0 16.5 -6t6.5 -16v-36q0 -10 -6.5 -16t-16.5 -6h-177v-193h104q10 0 16 -6t6 -16v-22q0 -10 -6 -16t-16 -6h-104v-290q0 -9 -6.5 -15t-16.5 -6
h-44q-9 0 -15 6t-6 15z" />
    <glyph glyph-name="tbar" unicode="&#x167;" horiz-adv-x="367" 
d="M115 163v114h-72q-10 0 -16 5.5t-6 14.5v20q0 9 6 14.5t16 5.5h72v85h-72q-10 0 -16 6t-6 15v19q0 10 6 15.5t16 5.5h72v155q0 10 6 16t16 6h40q9 0 15 -6t6 -16v-155h115q10 0 15.5 -5.5t5.5 -15.5v-19q0 -9 -6 -15t-15 -6h-115v-85h115q9 0 15 -5.5t6 -14.5v-20
q0 -9 -6 -14.5t-15 -5.5h-115v-108q0 -47 15.5 -71.5t53.5 -24.5h55q10 0 16 -6t6 -15v-31q0 -9 -6 -15t-16 -6h-63q-144 0 -144 163z" />
    <glyph glyph-name="Utilde" unicode="&#x168;" horiz-adv-x="650" 
d="M76 251v377q0 10 5.5 16t15.5 6h44q10 0 16.5 -6t6.5 -16v-379q0 -91 42 -135.5t120 -44.5q77 0 119.5 45t42.5 135v379q0 10 5.5 16t15.5 6h45q9 0 15 -6t6 -16v-377q0 -131 -64.5 -195.5t-184.5 -64.5t-185 64.5t-65 195.5zM315 711l-17 8.5t-18 4.5q-7 0 -12 -4
t-9 -10q-8 -13 -18 -13h-29q-6 0 -10.5 4.5t-4.5 10.5q0 30 22 57.5t57 27.5q16 0 29 -5t29 -14q8 -5 17.5 -9t17.5 -4q9 0 13 3.5t9 10.5q4 8 8 10.5t10 2.5h29q7 0 11 -4.5t4 -9.5q0 -19 -10 -39t-28.5 -33.5t-40.5 -13.5q-17 0 -29 4.5t-30 14.5z" />
    <glyph glyph-name="utilde" unicode="&#x169;" horiz-adv-x="557" 
d="M65 200v262q0 9 6 15t15 6h43q9 0 15 -6t6 -15v-258q0 -141 123 -141q60 0 94.5 37.5t34.5 103.5v258q0 9 6 15t16 6h42q10 0 16 -6t6 -15v-441q0 -9 -6 -15t-16 -6h-40q-9 0 -15 6t-6 15v42q-27 -36 -63 -54t-92 -18q-88 0 -136.5 57t-48.5 152zM269 567q-8 4 -16.5 8.5
t-16.5 4.5t-12.5 -4t-8.5 -10q-8 -13 -18 -13h-29q-6 0 -10.5 4.5t-4.5 10.5q0 30 21 55t55 25q17 0 28 -4.5t27 -13.5q2 -1 12.5 -7t21.5 -6q8 0 12 3.5t9 11.5q5 7 8.5 10t10.5 3h27q8 0 12 -5t4 -10q0 -31 -21 -56.5t-56 -25.5q-17 0 -28 4.5t-27 14.5z" />
    <glyph glyph-name="Umacron" unicode="&#x16a;" horiz-adv-x="650" 
d="M76 251v377q0 10 5.5 16t15.5 6h44q10 0 16.5 -6t6.5 -16v-379q0 -91 42 -135.5t120 -44.5q77 0 119.5 45t42.5 135v379q0 10 5.5 16t15.5 6h45q9 0 15 -6t6 -16v-377q0 -131 -64.5 -195.5t-184.5 -64.5t-185 64.5t-65 195.5zM199 717v34q0 9 5.5 14.5t15.5 5.5h212
q10 0 15.5 -5.5t5.5 -14.5v-34q0 -9 -5.5 -14.5t-15.5 -5.5h-212q-10 0 -15.5 5.5t-5.5 14.5z" />
    <glyph glyph-name="umacron" unicode="&#x16b;" horiz-adv-x="557" 
d="M65 200v262q0 9 6 15t15 6h43q9 0 15 -6t6 -15v-258q0 -141 123 -141q60 0 94.5 37.5t34.5 103.5v258q0 9 6 15t16 6h42q10 0 16 -6t6 -15v-441q0 -9 -6 -15t-16 -6h-40q-9 0 -15 6t-6 15v42q-27 -36 -63 -54t-92 -18q-88 0 -136.5 57t-48.5 152zM154 595v27
q0 9 5.5 14.5t15.5 5.5h204q9 0 14.5 -5.5t5.5 -14.5v-27q0 -10 -5.5 -15.5t-14.5 -5.5h-204q-10 0 -15.5 5.5t-5.5 15.5z" />
    <glyph glyph-name="Ubreve" unicode="&#x16c;" horiz-adv-x="650" 
d="M76 251v377q0 10 5.5 16t15.5 6h44q10 0 16.5 -6t6.5 -16v-379q0 -91 42 -135.5t120 -44.5q77 0 119.5 45t42.5 135v379q0 10 5.5 16t15.5 6h45q9 0 15 -6t6 -16v-377q0 -131 -64.5 -195.5t-184.5 -64.5t-185 64.5t-65 195.5zM210 803q0 7 4.5 12t12.5 5h27q8 0 13 -5
t5 -12q0 -26 12 -43.5t42 -17.5q29 0 41.5 17.5t12.5 43.5q0 7 4.5 12t12.5 5h27q8 0 13 -5t5 -12q0 -51 -27 -83t-89 -32q-63 0 -89.5 32t-26.5 83z" />
    <glyph glyph-name="ubreve" unicode="&#x16d;" horiz-adv-x="557" 
d="M65 200v262q0 9 6 15t15 6h43q9 0 15 -6t6 -15v-258q0 -141 123 -141q60 0 94.5 37.5t34.5 103.5v258q0 9 6 15t16 6h42q10 0 16 -6t6 -15v-441q0 -9 -6 -15t-16 -6h-40q-9 0 -15 6t-6 15v42q-27 -36 -63 -54t-92 -18q-88 0 -136.5 57t-48.5 152zM164 662q0 8 4.5 13
t13.5 5h26q8 0 12.5 -5t4.5 -13q0 -59 50 -59q51 0 51 59q0 8 4.5 13t12.5 5h27q9 0 13.5 -5t4.5 -13q0 -49 -26.5 -81.5t-86.5 -32.5q-58 0 -84.5 32.5t-26.5 81.5z" />
    <glyph glyph-name="Uring" unicode="&#x16e;" horiz-adv-x="650" 
d="M76 251v377q0 10 5.5 16t15.5 6h44q10 0 16.5 -6t6.5 -16v-379q0 -91 42 -135.5t120 -44.5q77 0 119.5 45t42.5 135v379q0 10 5.5 16t15.5 6h45q9 0 15 -6t6 -16v-377q0 -131 -64.5 -195.5t-184.5 -64.5t-185 64.5t-65 195.5zM249 760q0 32 22 52.5t55 20.5
q32 0 54.5 -20.5t22.5 -52.5q0 -31 -22.5 -52t-54.5 -21q-33 0 -55 21t-22 52zM354 760q0 12 -8 20t-20 8t-20 -8t-8 -20t8 -20t20 -8t20 8t8 20z" />
    <glyph glyph-name="uring" unicode="&#x16f;" horiz-adv-x="557" 
d="M65 200v262q0 9 6 15t15 6h43q9 0 15 -6t6 -15v-258q0 -141 123 -141q60 0 94.5 37.5t34.5 103.5v258q0 9 6 15t16 6h42q10 0 16 -6t6 -15v-441q0 -9 -6 -15t-16 -6h-40q-9 0 -15 6t-6 15v42q-27 -36 -63 -54t-92 -18q-88 0 -136.5 57t-48.5 152zM199 621q0 31 22.5 52
t54.5 21q33 0 55 -21t22 -52t-22 -52t-55 -21q-32 0 -54.5 21t-22.5 52zM304 621q0 12 -8 19.5t-20 7.5t-20 -7.5t-8 -19.5q0 -13 8 -20.5t20 -7.5t20 7.5t8 20.5z" />
    <glyph glyph-name="Uhungarumlaut" unicode="&#x170;" horiz-adv-x="650" 
d="M76 251v377q0 10 5.5 16t15.5 6h44q10 0 16.5 -6t6.5 -16v-379q0 -91 42 -135.5t120 -44.5q77 0 119.5 45t42.5 135v379q0 10 5.5 16t15.5 6h45q9 0 15 -6t6 -16v-377q0 -131 -64.5 -195.5t-184.5 -64.5t-185 64.5t-65 195.5zM217 712q0 4 5 14l36 80q5 10 12.5 14
t21.5 4h55q9 0 14 -4.5t5 -13.5q0 -6 -6 -12l-72 -84q-11 -13 -29 -13h-27q-15 0 -15 15zM369 712q0 4 5 14l36 80q5 10 13 14t22 4h55q8 0 13 -4.5t5 -13.5q0 -6 -5 -12l-73 -84q-11 -13 -28 -13h-28q-15 0 -15 15z" />
    <glyph glyph-name="uhungarumlaut" unicode="&#x171;" horiz-adv-x="557" 
d="M65 200v262q0 9 6 15t15 6h43q9 0 15 -6t6 -15v-258q0 -141 123 -141q60 0 94.5 37.5t34.5 103.5v258q0 9 6 15t16 6h42q10 0 16 -6t6 -15v-441q0 -9 -6 -15t-16 -6h-40q-9 0 -15 6t-6 15v42q-27 -36 -63 -54t-92 -18q-88 0 -136.5 57t-48.5 152zM156 568q0 4 5 14l36 80
q5 10 13 14t21 4h51q8 0 13 -4.5t5 -13.5q0 -6 -5 -12l-73 -84q-11 -13 -29 -13h-22q-15 0 -15 15zM307 568q0 4 4 14l37 80q4 10 12 14t22 4h50q9 0 14 -4.5t5 -13.5q0 -4 -6 -12l-73 -84q-11 -13 -28 -13h-22q-15 0 -15 15z" />
    <glyph glyph-name="Uogonek" unicode="&#x172;" horiz-adv-x="650" 
d="M258 -72q0 42 13 66q-94 13 -144.5 77t-50.5 180v377q0 10 5.5 16t15.5 6h44q10 0 16.5 -6t6.5 -16v-379q0 -91 42 -135.5t120 -44.5q77 0 119.5 45t42.5 135v379q0 10 5.5 16t15.5 6h45q9 0 15 -6t6 -16v-377q0 -114 -48.5 -177t-138.5 -79q-31 -6 -47.5 -21.5
t-16.5 -45.5q0 -31 18.5 -50t48.5 -19h13q9 0 15 -6t6 -16v-20q0 -10 -5.5 -15.5t-15.5 -5.5h-17q-60 0 -94.5 36t-34.5 96z" />
    <glyph glyph-name="uogonek" unicode="&#x173;" horiz-adv-x="557" 
d="M344 -77q0 35 19.5 63t44.5 41q-3 5 -3 10v26q-27 -36 -63 -54t-92 -18q-88 0 -136.5 57t-48.5 152v262q0 9 6 15t15 6h43q9 0 15 -6t6 -15v-258q0 -141 123 -141q60 0 94.5 37.5t34.5 103.5v258q0 9 6 15t16 6h42q10 0 16 -6t6 -15v-441q0 -14 -17 -21l-5 -2
q-29 -11 -42.5 -28.5t-13.5 -46.5q0 -32 13 -48t38 -16h5q10 0 16 -6t6 -16v-20q0 -9 -6 -15t-16 -6h-9q-50 0 -81.5 33.5t-31.5 93.5z" />
    <glyph glyph-name="Wcircumflex" unicode="&#x174;" horiz-adv-x="742" 
d="M163 24l-120 598l-2 10q0 7 5.5 12.5t12.5 5.5h46q19 0 22 -15l96 -485l103 334q6 22 29 22h32q23 0 30 -22l102 -334l96 485q3 15 23 15h45q7 0 12.5 -5.5t5.5 -12.5q0 -6 -1 -10l-120 -598q-5 -24 -29 -24h-34q-23 0 -30 23l-115 358l-117 -358q-6 -23 -29 -23h-35
q-23 0 -28 24zM232 708q0 8 10 18l85 84q9 9 15 11.5t15 2.5h28q9 0 15.5 -2.5t14.5 -11.5l86 -84q9 -10 9 -18q0 -11 -13 -11h-24q-16 0 -25 6l-77 53l-76 -53q-11 -6 -26 -6h-24q-13 0 -13 11z" />
    <glyph glyph-name="wcircumflex" unicode="&#x175;" horiz-adv-x="743" 
d="M168 23l-132 431l-2 10q0 8 6 13.5t14 5.5h38q9 0 15 -5t7 -10l105 -355l112 351q2 7 8.5 13t17.5 6h29q12 0 18.5 -6t7.5 -13l112 -351l105 355q1 5 7 10t15 5h38q9 0 14.5 -5.5t5.5 -13.5l-2 -10l-132 -431q-4 -12 -10.5 -17.5t-19.5 -5.5h-33q-24 0 -32 23l-108 337
l-109 -337q-8 -23 -32 -23h-33q-13 0 -19.5 5.5t-10.5 17.5zM233 564q0 8 10 18l85 84q9 9 15 11.5t16 2.5h26q9 0 15 -2.5t15 -11.5l85 -84q10 -11 10 -18q0 -11 -14 -11h-23q-16 0 -25 6l-76 53l-77 -53q-11 -6 -26 -6h-23q-13 0 -13 11z" />
    <glyph glyph-name="Ycircumflex" unicode="&#x176;" horiz-adv-x="599" 
d="M255 21v221l-223 378q-3 5 -3 12t5.5 12.5t12.5 5.5h45q17 0 24 -15l184 -304l183 304q9 15 24 15h45q7 0 13 -5.5t6 -12.5q0 -5 -3 -12l-224 -378v-221q0 -9 -6 -15t-17 -6h-44q-9 0 -15.5 6t-6.5 15zM161 708q0 8 10 18l85 84q9 9 15 11.5t15 2.5h28q9 0 15.5 -2.5
t14.5 -11.5l86 -84q9 -10 9 -18q0 -11 -13 -11h-24q-16 0 -25 6l-77 53l-76 -53q-11 -6 -26 -6h-24q-13 0 -13 11z" />
    <glyph glyph-name="ycircumflex" unicode="&#x177;" horiz-adv-x="510" 
d="M135 -158q0 3 4 17l73 170l-178 419q-5 11 -5 16q1 8 6.5 13.5t12.5 5.5h43q15 0 22 -15l143 -342l147 342q8 15 22 15h42q8 0 13.5 -5.5t5.5 -13.5q0 -6 -5 -16l-263 -610q-4 -7 -9.5 -11t-13.5 -4h-41q-8 0 -13.5 6t-5.5 13zM118 564q0 8 10 18l85 84q9 9 15 11.5
t16 2.5h26q9 0 15 -2.5t15 -11.5l85 -84q10 -11 10 -18q0 -11 -14 -11h-23q-16 0 -25 6l-76 53l-77 -53q-11 -6 -26 -6h-23q-13 0 -13 11z" />
    <glyph glyph-name="Ydieresis" unicode="&#x178;" horiz-adv-x="599" 
d="M255 21v221l-223 378q-3 5 -3 12t5.5 12.5t12.5 5.5h45q17 0 24 -15l184 -304l183 304q9 15 24 15h45q7 0 13 -5.5t6 -12.5q0 -5 -3 -12l-224 -378v-221q0 -9 -6 -15t-17 -6h-44q-9 0 -15.5 6t-6.5 15zM164 717v49q0 10 5.5 16t14.5 6h48q10 0 16 -6t6 -16v-49
q0 -9 -6 -14.5t-16 -5.5h-48q-9 0 -14.5 5.5t-5.5 14.5zM347 717v49q0 10 5.5 16t14.5 6h49q10 0 16 -6t6 -16v-49q0 -9 -6 -14.5t-16 -5.5h-49q-9 0 -14.5 5.5t-5.5 14.5z" />
    <glyph glyph-name="Zacute" unicode="&#x179;" horiz-adv-x="556" 
d="M38 22v37q0 16 6.5 25.5t7.5 10.5l348 477h-332q-9 0 -15.5 6t-6.5 16v34q0 10 6.5 16t15.5 6h418q10 0 16 -6t6 -16v-37q0 -17 -12 -33l-345 -480h345q10 0 16 -6t6 -15v-36q0 -9 -6.5 -15t-15.5 -6h-437q-9 0 -15 6t-6 16zM231 712q0 7 5 12l68 83q10 11 16.5 14
t18.5 3h66q17 0 17 -18q0 -6 -4 -11l-107 -88q-8 -7 -14.5 -8.5t-16.5 -1.5h-34q-15 0 -15 15z" />
    <glyph glyph-name="zacute" unicode="&#x17a;" horiz-adv-x="471" 
d="M38 21v31q0 7 4 15t9 15l259 330h-242q-9 0 -15 6t-6 15v29q0 9 6 15t15 6h329q9 0 15 -6t6 -15v-33q0 -10 -13 -29l-255 -328h265q10 0 16 -6t6 -16v-29q0 -9 -6 -15t-16 -6h-356q-9 0 -15 6t-6 15zM197 568q0 7 5 12l69 83q9 11 15.5 14t18.5 3h60q18 0 18 -18
q0 -6 -5 -11l-106 -88q-8 -7 -14.5 -8.5t-16.5 -1.5h-29q-15 0 -15 15z" />
    <glyph glyph-name="Zdotaccent" unicode="&#x17b;" horiz-adv-x="556" 
d="M38 22v37q0 16 6.5 25.5t7.5 10.5l348 477h-332q-9 0 -15.5 6t-6.5 16v34q0 10 6.5 16t15.5 6h418q10 0 16 -6t6 -16v-37q0 -17 -12 -33l-345 -480h345q10 0 16 -6t6 -15v-36q0 -9 -6.5 -15t-15.5 -6h-437q-9 0 -15 6t-6 16zM219 717v59q0 9 6 15t15 6h58q10 0 16 -6
t6 -15v-59q0 -9 -6 -14.5t-16 -5.5h-58q-9 0 -15 5.5t-6 14.5z" />
    <glyph glyph-name="zdotaccent" unicode="&#x17c;" horiz-adv-x="471" 
d="M38 21v31q0 7 4 15t9 15l259 330h-242q-9 0 -15 6t-6 15v29q0 9 6 15t15 6h329q9 0 15 -6t6 -15v-33q0 -10 -13 -29l-255 -328h265q10 0 16 -6t6 -16v-29q0 -9 -6 -15t-16 -6h-356q-9 0 -15 6t-6 15zM188 591v57q0 9 5.5 15t15.5 6h57q10 0 16 -6t6 -15v-57
q0 -9 -6 -15.5t-16 -6.5h-57q-10 0 -15.5 6.5t-5.5 15.5z" />
    <glyph glyph-name="Zcaron" unicode="&#x17d;" horiz-adv-x="556" 
d="M38 22v37q0 16 6.5 25.5t7.5 10.5l348 477h-332q-9 0 -15.5 6t-6.5 16v34q0 10 6.5 16t15.5 6h418q10 0 16 -6t6 -16v-37q0 -17 -12 -33l-345 -480h345q10 0 16 -6t6 -15v-36q0 -9 -6.5 -15t-15.5 -6h-437q-9 0 -15 6t-6 16zM225 711l-85 84q-10 10 -10 18q0 11 13 11h24
q15 0 26 -6l76 -53l77 53q9 6 25 6h24q13 0 13 -11q0 -8 -9 -18l-86 -84q-8 -10 -14.5 -12t-15.5 -2h-28q-9 0 -15 2t-15 12z" />
    <glyph glyph-name="zcaron" unicode="&#x17e;" horiz-adv-x="471" 
d="M38 21v31q0 7 4 15t9 15l259 330h-242q-9 0 -15 6t-6 15v29q0 9 6 15t15 6h329q9 0 15 -6t6 -15v-33q0 -10 -13 -29l-255 -328h265q10 0 16 -6t6 -16v-29q0 -9 -6 -15t-16 -6h-356q-9 0 -15 6t-6 15zM194 567l-85 84q-10 10 -10 18q0 11 13 11h23q15 0 26 -6l77 -53
l76 53q9 6 25 6h23q14 0 14 -11q0 -8 -10 -18l-85 -84q-9 -10 -15 -12t-15 -2h-26q-10 0 -16 2t-15 12z" />
    <glyph glyph-name="longs" unicode="&#x17f;" horiz-adv-x="270" 
d="M118 21v391h-80q-9 0 -14.5 5.5t-5.5 14.5v30q0 9 5.5 15t14.5 6h80v43q0 78 36.5 119.5t120.5 41.5h55q9 0 15 -6t6 -15v-30q0 -9 -6 -14.5t-15 -5.5h-53q-46 0 -61 -23.5t-15 -67.5v-504q0 -9 -6 -15t-16 -6h-40q-9 0 -15 6t-6 15z" />
    <glyph glyph-name="florin" unicode="&#x192;" horiz-adv-x="386" 
d="M18 -188v34q0 9 6 15t15 6h12q48 0 64 24t16 74v447h-79q-9 0 -15 5.5t-6 14.5v30q0 10 6 15.5t15 5.5h79v47q0 75 37 116t121 41h54q10 0 15.5 -5.5t5.5 -15.5v-30q0 -9 -6 -14.5t-15 -5.5h-52q-44 0 -60.5 -22.5t-16.5 -68.5v-42h120q10 0 15.5 -5.5t5.5 -15.5v-30
q0 -9 -6 -14.5t-15 -5.5h-120v-449q0 -83 -37.5 -127.5t-125.5 -44.5h-12q-9 0 -15 6t-6 15z" />
    <glyph glyph-name="AEacute" unicode="&#x1fc;" horiz-adv-x="868" 
d="M5 19q0 2 1 6t1 6q13 33 70 142.5t249 457.5q9 19 27 19h438q10 0 15.5 -6t5.5 -16v-33q0 -10 -6 -15.5t-15 -5.5h-313v-207h292q9 0 15.5 -6t6.5 -16v-32q0 -9 -6 -15t-16 -6h-292v-215h320q9 0 15 -6t6 -16v-34q0 -9 -6 -15t-15 -6h-385q-9 0 -15 6t-6 15v129h-226
q-72 -130 -73 -134q-8 -16 -23 -16h-47q-7 0 -12.5 5.5t-5.5 13.5zM201 227h191v342h-6zM396 712q0 7 5 12l68 83q10 11 16.5 14t18.5 3h66q17 0 17 -18q0 -6 -4 -11l-107 -88q-8 -7 -14.5 -8.5t-16.5 -1.5h-34q-15 0 -15 15z" />
    <glyph glyph-name="aeacute" unicode="&#x1fd;" horiz-adv-x="827" 
d="M374 568q0 7 5 12l69 83q9 11 15.5 14t18.5 3h60q18 0 18 -18q0 -6 -5 -11l-106 -88q-8 -7 -14.5 -8.5t-16.5 -1.5h-29q-15 0 -15 15zM36 131q0 62 50.5 102t136.5 52l139 20v25q0 95 -110 95q-43 0 -69.5 -17t-38.5 -40q-4 -9 -8 -12.5t-12 -3.5h-36q-8 0 -14 6t-6 15
q0 21 20.5 49.5t62 49t102.5 20.5q63 0 103 -20t58 -53q57 73 159 73q117 0 163.5 -72.5t46.5 -168.5v-17q0 -9 -6 -15t-15 -6h-314v-9q2 -74 38 -109.5t86 -35.5q34 0 63.5 13t48.5 39q7 11 12 13.5t17 2.5h38q8 0 13.5 -5t5.5 -13q0 -19 -23.5 -47.5t-68 -49.5t-106.5 -21
q-63 0 -106.5 25t-68.5 69q-57 -94 -189 -94q-50 0 -89.5 18.5t-61 50.5t-21.5 71zM699 276v4q0 66 -32 105.5t-94 39.5q-51 0 -87 -37t-38 -108v-4h251zM362 215v26l-108 -16q-67 -9 -101.5 -31.5t-34.5 -56.5q0 -38 31 -58t74 -20q61 0 100 39.5t39 116.5z" />
    <glyph glyph-name="Oslashacute" unicode="&#x1fe;" horiz-adv-x="648" 
d="M75 196l-35 -13q-7 -3 -11 -3q-19 0 -19 17v32q0 11 4.5 15.5t16.5 9.5l38 14q-1 17 -1 52q0 24 2 83q3 127 71.5 192t184.5 65q99 0 164 -50t83 -146l35 14q8 2 12 2q18 0 18 -16v-32q0 -10 -4 -15t-16 -9l-36 -14q1 -52 1 -74t-1 -74q-4 -128 -69.5 -191.5
t-186.5 -63.5q-221 0 -251 205zM490 432q-11 76 -54 113.5t-110 37.5q-74 0 -119 -45.5t-48 -138.5q-3 -58 -2 -96zM492 251q1 30 1 77v32l-333 -131q8 -82 51.5 -121.5t114.5 -39.5q74 0 119 45t47 138zM286 712q0 7 5 12l68 83q10 11 16.5 14t18.5 3h66q17 0 17 -18
q0 -6 -4 -11l-107 -88q-8 -7 -14.5 -8.5t-16.5 -1.5h-34q-15 0 -15 15z" />
    <glyph glyph-name="oslashacute" unicode="&#x1ff;" horiz-adv-x="563" 
d="M239 568q0 7 5 12l69 83q9 11 15.5 14t18.5 3h60q18 0 18 -18q0 -6 -5 -11l-106 -88q-8 -7 -14.5 -8.5t-16.5 -1.5h-29q-15 0 -15 15zM77 127l-34 -13q-7 -3 -12 -3q-9 0 -13.5 4.5t-4.5 12.5v25q0 11 4 16t16 9l33 12q-2 18 -2 52q0 26 1 39q3 90 56.5 150.5t159.5 60.5
q84 0 134 -38t70 -101l35 14q8 3 12 3q9 0 13.5 -4.5t4.5 -12.5v-26q0 -10 -4 -15t-16 -9l-32 -12q2 -28 2 -53l-1 -36q-3 -91 -56 -151t-162 -60q-83 0 -133 37.5t-71 98.5zM408 323q-11 51 -45 75.5t-82 24.5q-55 0 -91.5 -34.5t-39.5 -106.5v-27v-32zM413 203q1 6 1 26
q0 21 -1 29l-258 -100q12 -50 46 -74t80 -24q58 0 94 34.5t38 108.5z" />
    <glyph glyph-name="Scommaaccent" unicode="&#x218;" horiz-adv-x="576" 
d="M40 164q0 7 5.5 12.5t13.5 5.5h46q17 0 23 -18q9 -40 48.5 -68t112.5 -28q79 0 118 28t39 77q0 31 -19 51.5t-56.5 36t-113.5 37.5q-71 21 -113.5 44t-63.5 57t-21 86q0 50 26.5 89.5t78 62.5t120.5 23q73 0 124.5 -26t78.5 -64.5t29 -77.5q0 -8 -6 -13.5t-14 -5.5h-46
q-8 0 -14.5 4.5t-9.5 13.5q-5 40 -44 66t-98 26q-63 0 -100 -24.5t-37 -72.5q0 -33 17 -53.5t53 -36t104 -36.5q79 -22 124.5 -44t67.5 -55t22 -85q0 -88 -66.5 -136.5t-179.5 -48.5q-76 0 -132.5 24t-85.5 63.5t-31 85.5zM220 -182l15 109q4 27 26 27h59q6 0 10.5 -5
t4.5 -11q0 -7 -3 -15l-40 -103q-5 -11 -10.5 -16.5t-16.5 -5.5h-32q-7 0 -11 6t-2 14z" />
    <glyph glyph-name="scommaaccent" unicode="&#x219;" horiz-adv-x="472" 
d="M40 104q0 9 6.5 14.5t13.5 5.5h39q6 0 9 -2t9 -9q21 -26 47.5 -40.5t71.5 -14.5q50 0 80.5 18.5t30.5 53.5q0 23 -13 37t-43.5 25t-89.5 24q-81 18 -114.5 51.5t-33.5 86.5q0 34 20.5 66t61 52t95.5 20q59 0 100.5 -19.5t62 -45.5t20.5 -43q0 -9 -6 -14.5t-14 -5.5h-35
q-13 0 -19 10q-16 18 -26.5 28t-31 16.5t-51.5 6.5q-45 0 -69 -19t-24 -50q0 -20 10 -33.5t39 -25t85 -23.5q89 -19 125.5 -53t36.5 -88q0 -40 -23 -72.5t-68 -51t-107 -18.5q-64 0 -108 21t-65.5 47.5t-21.5 44.5zM168 -182l17 109q4 27 26 27h57q6 0 10.5 -5t4.5 -11
q0 -8 -4 -15l-39 -103q-5 -11 -10.5 -16.5t-16.5 -5.5h-31q-7 0 -11 6t-3 14z" />
    <glyph glyph-name="uni021A" unicode="&#x21a;" horiz-adv-x="536" 
d="M224 21v549h-179q-10 0 -16 6t-6 16v36q0 10 6 16t16 6h446q10 0 15.5 -6t5.5 -16v-36q0 -10 -6 -16t-15 -6h-179v-549q0 -9 -6.5 -15t-15.5 -6h-45q-9 0 -15 6t-6 15zM198 -182l15 109q4 27 26 27h59q6 0 10.5 -5t4.5 -11q0 -7 -3 -15l-40 -103q-5 -11 -10.5 -16.5
t-16.5 -5.5h-32q-7 0 -11 6t-2 14z" />
    <glyph glyph-name="uni021B" unicode="&#x21b;" horiz-adv-x="360" 
d="M111 163v249h-73q-9 0 -14.5 5.5t-5.5 14.5v30q0 9 5.5 15t14.5 6h73v155q0 10 6 16t15 6h41q9 0 15 -6t6 -16v-155h115q10 0 16 -6t6 -15v-30q0 -9 -6 -14.5t-16 -5.5h-115v-243q0 -47 15.5 -71.5t52.5 -24.5h57q9 0 14.5 -6t5.5 -15v-31q0 -9 -5.5 -15t-14.5 -6h-64
q-144 0 -144 163zM99 -182l17 109q4 27 26 27h57q6 0 10.5 -5t4.5 -11q0 -8 -4 -15l-39 -103q-5 -11 -10.5 -16.5t-16.5 -5.5h-31q-7 0 -11 6t-3 14z" />
    <glyph glyph-name="uni0237" unicode="&#x237;" horiz-adv-x="283" 
d="M11 -155v34q0 10 6 16t16 6h18q47 0 61.5 23.5t14.5 68.5v417h-86q-9 0 -15 6t-6 15v31q0 10 6 15.5t15 5.5h150q10 0 16 -6t6 -15v-469q0 -78 -37.5 -124t-119.5 -46h-23q-10 0 -16 6.5t-6 15.5z" />
    <glyph glyph-name="uni02BC" unicode="&#x2bc;" horiz-adv-x="114" 
d="M0 603l17 109q4 27 26 27h57q6 0 10.5 -5t4.5 -11q0 -8 -4 -15l-39 -103q-5 -11 -10.5 -16.5t-16.5 -5.5h-31q-7 0 -11 6t-3 14z" />
    <glyph glyph-name="circumflex" unicode="&#x2c6;" horiz-adv-x="400" 
d="M62 564q0 8 10 18l85 84q9 9 15 11.5t16 2.5h26q9 0 15 -2.5t15 -11.5l85 -84q10 -11 10 -18q0 -11 -14 -11h-23q-16 0 -25 6l-76 53l-77 -53q-11 -6 -26 -6h-23q-13 0 -13 11z" />
    <glyph glyph-name="caron" unicode="&#x2c7;" horiz-adv-x="400" 
d="M157 567l-85 84q-10 10 -10 18q0 11 13 11h23q15 0 26 -6l77 -53l76 53q9 6 25 6h23q14 0 14 -11q0 -8 -10 -18l-85 -84q-9 -10 -15 -12t-15 -2h-26q-10 0 -16 2t-15 12z" />
    <glyph glyph-name="breve" unicode="&#x2d8;" horiz-adv-x="356" 
d="M66 662q0 8 4.5 13t13.5 5h26q8 0 12.5 -5t4.5 -13q0 -59 50 -59q51 0 51 59q0 8 4.5 13t12.5 5h27q9 0 13.5 -5t4.5 -13q0 -49 -26.5 -81.5t-86.5 -32.5q-58 0 -84.5 32.5t-26.5 81.5z" />
    <glyph glyph-name="dotaccent" unicode="&#x2d9;" horiz-adv-x="223" 
d="M62 591v57q0 9 5.5 15t15.5 6h57q10 0 16 -6t6 -15v-57q0 -9 -6 -15.5t-16 -6.5h-57q-10 0 -15.5 6.5t-5.5 15.5z" />
    <glyph glyph-name="ring" unicode="&#x2da;" horiz-adv-x="279" 
d="M62 621q0 31 22.5 52t54.5 21q33 0 55 -21t22 -52t-22 -52t-55 -21q-32 0 -54.5 21t-22.5 52zM167 621q0 12 -8 19.5t-20 7.5t-20 -7.5t-8 -19.5q0 -13 8 -20.5t20 -7.5t20 7.5t8 20.5z" />
    <glyph glyph-name="ogonek" unicode="&#x2db;" horiz-adv-x="289" 
d="M60 -72q0 62 34.5 98.5t95.5 36.5h16q10 0 16 -6t6 -15v-21q0 -9 -6 -15t-16 -6h-13q-29 0 -48 -20t-19 -52q0 -31 19 -50t48 -19h13q10 0 16 -6t6 -16v-20q0 -9 -6 -15t-16 -6h-16q-61 0 -95.5 36t-34.5 96z" />
    <glyph glyph-name="tilde" unicode="&#x2dc;" horiz-adv-x="372" 
d="M178 567q-8 4 -16.5 8.5t-16.5 4.5t-12.5 -4t-8.5 -10q-8 -13 -18 -13h-29q-6 0 -10.5 4.5t-4.5 10.5q0 30 21 55t55 25q17 0 28 -4.5t27 -13.5q2 -1 12.5 -7t21.5 -6q8 0 12 3.5t9 11.5q5 7 8.5 10t10.5 3h27q8 0 12 -5t4 -10q0 -31 -21 -56.5t-56 -25.5q-17 0 -28 4.5
t-27 14.5z" />
    <glyph glyph-name="hungarumlaut" unicode="&#x2dd;" horiz-adv-x="418" 
d="M62 568q0 4 5 14l36 80q5 10 13 14t21 4h51q8 0 13 -4.5t5 -13.5q0 -6 -5 -12l-73 -84q-11 -13 -29 -13h-22q-15 0 -15 15zM213 568q0 4 4 14l37 80q4 10 12 14t22 4h50q9 0 14 -4.5t5 -13.5q0 -4 -6 -12l-73 -84q-11 -13 -28 -13h-22q-15 0 -15 15z" />
    <glyph glyph-name="gravecomb" unicode="&#x300;" 
d="M-137 563l-107 88q-5 5 -5 11q0 18 18 18h60q13 0 19.5 -3t14.5 -14l70 -83q5 -5 5 -12q0 -15 -15 -15h-30q-10 0 -16 1.5t-14 8.5z" />
    <glyph glyph-name="acutecomb" unicode="&#x301;" 
d="M-248 568q0 7 5 12l68 83q10 11 16.5 14t18.5 3h60q18 0 18 -18q0 -6 -5 -11l-107 -88q-7 -7 -13.5 -8.5t-16.5 -1.5h-29q-15 0 -15 15z" />
    <glyph glyph-name="uni0302" unicode="&#x302;" 
d="M-337 564q0 8 10 18l85 84q9 9 15 11.5t16 2.5h26q9 0 15 -2.5t15 -11.5l85 -84q10 -11 10 -18q0 -11 -14 -11h-23q-16 0 -25 6l-76 53l-77 -53q-11 -6 -26 -6h-23q-13 0 -13 11z" />
    <glyph glyph-name="tildecomb" unicode="&#x303;" 
d="M-193 567q-8 4 -16.5 8.5t-16.5 4.5t-12.5 -4t-8.5 -10q-8 -13 -18 -13h-29q-6 0 -10.5 4.5t-4.5 10.5q0 30 21 55t55 25q17 0 28 -4.5t27 -13.5q2 -1 12.5 -7t21.5 -6q8 0 12 3.5t9 11.5q5 7 8.5 10t10.5 3h27q8 0 12 -5t4 -10q0 -31 -21 -56.5t-56 -25.5q-17 0 -28 4.5
t-27 14.5z" />
    <glyph glyph-name="uni0304" unicode="&#x304;" 
d="M-307 595v27q0 9 5.5 14.5t14.5 5.5h204q10 0 15.5 -5.5t5.5 -14.5v-27q0 -10 -5.5 -15.5t-15.5 -5.5h-204q-9 0 -14.5 5.5t-5.5 15.5z" />
    <glyph glyph-name="uni0306" unicode="&#x306;" 
d="M-289 662q0 8 4.5 13t13.5 5h26q8 0 12.5 -5t4.5 -13q0 -59 50 -59q51 0 51 59q0 8 4.5 13t12.5 5h27q9 0 13.5 -5t4.5 -13q0 -49 -26.5 -81.5t-86.5 -32.5q-58 0 -84.5 32.5t-26.5 81.5z" />
    <glyph glyph-name="uni0307" unicode="&#x307;" 
d="M-160 591v57q0 9 5.5 15t15.5 6h57q10 0 16 -6t6 -15v-57q0 -9 -6 -15.5t-16 -6.5h-57q-10 0 -15.5 6.5t-5.5 15.5z" />
    <glyph glyph-name="uni0308" unicode="&#x308;" 
d="M-307 598v49q0 9 5.5 15t14.5 6h48q10 0 16 -6t6 -15v-49q0 -9 -6 -14.5t-16 -5.5h-48q-9 0 -14.5 5.5t-5.5 14.5zM-152 598v49q0 9 5.5 15t14.5 6h49q10 0 16 -6t6 -15v-49q0 -9 -6 -14.5t-16 -5.5h-49q-9 0 -14.5 5.5t-5.5 14.5z" />
    <glyph glyph-name="uni030A" unicode="&#x30a;" 
d="M-216 621q0 31 22.5 52t54.5 21q33 0 55 -21t22 -52t-22 -52t-55 -21q-32 0 -54.5 21t-22.5 52zM-111 621q0 12 -8 19.5t-20 7.5t-20 -7.5t-8 -19.5q0 -13 8 -20.5t20 -7.5t20 7.5t8 20.5z" />
    <glyph glyph-name="uni030B" unicode="&#x30b;" 
d="M-356 568q0 4 5 14l36 80q5 10 13 14t21 4h51q8 0 13 -4.5t5 -13.5q0 -6 -5 -12l-73 -84q-11 -13 -29 -13h-22q-15 0 -15 15zM-205 568q0 4 4 14l37 80q4 10 12 14t22 4h50q8 0 13.5 -4.5t5.5 -13.5q0 -4 -6 -12l-73 -84q-11 -13 -28 -13h-22q-15 0 -15 15z" />
    <glyph glyph-name="uni030C" unicode="&#x30c;" 
d="M-242 567l-85 84q-10 10 -10 18q0 11 13 11h23q15 0 26 -6l77 -53l76 53q9 6 25 6h23q14 0 14 -11q0 -8 -10 -18l-85 -84q-9 -10 -15 -12t-15 -2h-26q-10 0 -16 2t-15 12z" />
    <glyph glyph-name="uni0326" unicode="&#x326;" 
d="M-176 -182l17 109q4 27 26 27h57q6 0 10.5 -5t4.5 -11q0 -8 -4 -15l-39 -103q-5 -11 -10.5 -16.5t-16.5 -5.5h-31q-7 0 -11 6t-3 14z" />
    <glyph glyph-name="uni0327" unicode="&#x327;" 
d="M-229 -164q0 4 4 7l14 13q4 4 8 4t13.5 -5.5t17.5 -9.5t22 -4q17 0 27.5 10t10.5 25t-10.5 24t-27.5 9q-10 0 -23.5 -4t-18.5 -4q-8 0 -13 5l-15 17q-3 4 -3 8q0 5 6 20l33 74h56l-39 -77q13 7 34 7q32 0 51.5 -21.5t19.5 -56.5t-22 -58t-64 -23q-32 0 -56.5 13.5
t-24.5 26.5z" />
    <glyph glyph-name="uni0328" unicode="&#x328;" 
d="M-228 -72q0 62 34.5 98.5t95.5 36.5h16q10 0 16 -6t6 -15v-21q0 -9 -6 -15t-16 -6h-13q-29 0 -48 -20t-19 -52q0 -31 19 -50t48 -19h13q10 0 16 -6t6 -16v-20q0 -9 -6 -15t-16 -6h-16q-61 0 -95.5 36t-34.5 96z" />
    <glyph glyph-name="uni0335" unicode="&#x335;" 
d="M-451 267v21q0 9 6 15t15 6h241q10 0 16 -6t6 -15v-21q0 -10 -6 -16t-16 -6h-241q-9 0 -15 6t-6 16z" />
    <glyph glyph-name="uni0400" unicode="&#x400;" horiz-adv-x="562" 
d="M82 21v607q0 10 5.5 16t14.5 6h382q10 0 16 -6t6 -16v-33q0 -10 -6 -15.5t-16 -5.5h-317v-207h297q10 0 16 -6t6 -16v-32q0 -9 -6 -15t-16 -6h-297v-215h324q11 0 17 -6t6 -16v-34q0 -9 -6.5 -15t-16.5 -6h-389q-9 0 -14.5 6t-5.5 15zM265 707l-107 88q-4 5 -4 11
q0 18 17 18h66q12 0 18.5 -3t16.5 -14l68 -83q5 -5 5 -12q0 -15 -15 -15h-34q-10 0 -16.5 1.5t-14.5 8.5z" />
    <glyph glyph-name="uni0401" unicode="&#x401;" horiz-adv-x="562" 
d="M82 21v607q0 10 5.5 16t14.5 6h382q10 0 16 -6t6 -16v-33q0 -10 -6 -15.5t-16 -5.5h-317v-207h297q10 0 16 -6t6 -16v-32q0 -9 -6 -15t-16 -6h-297v-215h324q11 0 17 -6t6 -16v-34q0 -9 -6.5 -15t-16.5 -6h-389q-9 0 -14.5 6t-5.5 15zM177 765v49q0 9 5.5 15t14.5 6h48
q10 0 16 -6t6 -15v-49q0 -9 -6 -14.5t-16 -5.5h-48q-9 0 -14.5 5.5t-5.5 14.5zM332 765v49q0 9 5.5 15t14.5 6h49q10 0 16 -6t6 -15v-49q0 -9 -6 -14.5t-16 -5.5h-49q-9 0 -14.5 5.5t-5.5 14.5z" />
    <glyph glyph-name="uni0402" unicode="&#x402;" horiz-adv-x="660" 
d="M169 21v556h-124q-10 0 -16 5.5t-6 14.5v32q0 9 6 15t16 6h419q11 0 16.5 -5.5t5.5 -15.5v-32q0 -9 -6 -14.5t-16 -5.5h-208v-202q20 28 68 41.5t99 13.5q99 0 150 -49t51 -145v-33q0 -93 -57.5 -148t-174.5 -55h-6q-10 0 -16 6t-6 15v32q0 9 6 15t16 6h6q81 0 113 34
t32 95v26q0 61 -31.5 90t-98.5 29q-60 0 -105.5 -21.5t-45.5 -75.5v-230q0 -9 -6 -15t-15 -6h-44q-9 0 -15.5 6t-6.5 15z" />
    <glyph glyph-name="uni0403" unicode="&#x403;" horiz-adv-x="484" 
d="M82 21v607q0 10 5.5 16t14.5 6h357q10 0 15.5 -6t5.5 -16v-34q0 -10 -5.5 -16t-15.5 -6h-290v-551q0 -9 -6.5 -15t-15.5 -6h-45q-9 0 -14.5 6t-5.5 15zM259 712q0 7 5 12l68 83q10 11 16.5 14t18.5 3h66q17 0 17 -18q0 -6 -4 -11l-107 -88q-8 -7 -14.5 -8.5t-16.5 -1.5
h-34q-15 0 -15 15z" />
    <glyph glyph-name="uni0404" unicode="&#x404;" horiz-adv-x="593" 
d="M55 269l-1 55l1 57q4 144 71.5 211.5t179.5 67.5q101 0 165.5 -45t73.5 -119v-2q0 -7 -6 -12t-13 -5h-47q-9 0 -13.5 4t-8.5 14q-9 39 -47 63.5t-103 24.5q-79 0 -121 -49.5t-42 -151.5v-19h229q9 0 15 -6.5t6 -15.5v-30q0 -9 -6 -15.5t-15 -6.5h-229v-21
q0 -95 42.5 -148t120.5 -53q65 0 103 24t48 63q5 11 9 15.5t13 4.5h47q8 0 14 -5.5t5 -14.5q-5 -49 -37 -85.5t-84.5 -57t-118.5 -20.5q-113 0 -180 67t-71 211z" />
    <glyph glyph-name="uni0405" unicode="&#x405;" horiz-adv-x="576" 
d="M40 164q0 7 5.5 12.5t13.5 5.5h46q17 0 23 -18q9 -40 48.5 -68t112.5 -28q79 0 118 28t39 77q0 31 -19 51.5t-56.5 36t-113.5 37.5q-71 21 -113.5 44t-63.5 57t-21 86q0 50 26.5 89.5t78 62.5t120.5 23q73 0 124.5 -26t78.5 -64.5t29 -77.5q0 -8 -6 -13.5t-14 -5.5h-46
q-8 0 -14.5 4.5t-9.5 13.5q-5 40 -44 66t-98 26q-63 0 -100 -24.5t-37 -72.5q0 -33 17 -53.5t53 -36t104 -36.5q79 -22 124.5 -44t67.5 -55t22 -85q0 -88 -66.5 -136.5t-179.5 -48.5q-76 0 -132.5 24t-85.5 63.5t-31 85.5z" />
    <glyph glyph-name="uni0406" unicode="&#x406;" horiz-adv-x="252" 
d="M82 21v608q0 9 5.5 15t14.5 6h47q10 0 15.5 -5.5t5.5 -15.5v-608q0 -9 -6 -15t-15 -6h-47q-9 0 -14.5 6t-5.5 15z" />
    <glyph glyph-name="uni0407" unicode="&#x407;" horiz-adv-x="252" 
d="M82 21v608q0 9 5.5 15t14.5 6h47q10 0 15.5 -5.5t5.5 -15.5v-608q0 -9 -6 -15t-15 -6h-47q-9 0 -14.5 6t-5.5 15zM4 765v49q0 9 5.5 15t14.5 6h48q10 0 16 -6t6 -15v-49q0 -9 -6 -14.5t-16 -5.5h-48q-9 0 -14.5 5.5t-5.5 14.5zM159 765v49q0 9 5.5 15t14.5 6h49
q10 0 16 -6t6 -15v-49q0 -9 -6 -14.5t-16 -5.5h-49q-9 0 -14.5 5.5t-5.5 14.5z" />
    <glyph glyph-name="uni0408" unicode="&#x408;" horiz-adv-x="587" 
d="M36 187q0 8 5.5 14t14.5 6h47q21 0 23 -21q6 -61 47 -89.5t102 -28.5q71 0 109.5 46.5t38.5 125.5v332h-332q-9 0 -15 6t-6 16v35q0 9 6 15t15 6h399q10 0 16 -6t6 -16v-390q0 -74 -28.5 -130t-82.5 -86.5t-127 -30.5q-101 0 -167.5 49.5t-70.5 146.5z" />
    <glyph glyph-name="uni0409" unicode="&#x409;" horiz-adv-x="914" 
d="M21 23v38q0 9 5.5 15t14.5 7q60 8 91.5 89.5t31.5 255.5v201q0 10 6.5 15.5t15.5 5.5h341q9 0 15 -6t6 -15v-227h121q101 0 155.5 -51t54.5 -148q0 -53 -24 -99.5t-71 -75t-115 -28.5h-188q-9 0 -14.5 6t-5.5 15v548h-211v-152q0 -149 -21.5 -239t-66.5 -131.5
t-119 -45.5q-10 -1 -16 5.5t-6 16.5zM661 75q60 0 94.5 35.5t34.5 94.5q0 122 -129 122h-113v-252h113z" />
    <glyph glyph-name="uni040A" unicode="&#x40a;" horiz-adv-x="931" 
d="M82 21v607q0 10 5.5 16t14.5 6h45q10 0 16 -6t6 -16v-258h309v258q0 10 5.5 16t15.5 6h44q10 0 16 -6t6 -15v-227h121q101 0 155.5 -51t54.5 -148q0 -53 -23.5 -99.5t-71 -75t-115.5 -28.5h-187q-9 0 -15 6t-6 15v268h-309v-268q0 -9 -6.5 -15t-15.5 -6h-45q-9 0 -14.5 6
t-5.5 15zM678 75q61 0 94.5 35.5t33.5 94.5q0 122 -128 122h-113v-252h113z" />
    <glyph glyph-name="uni040B" unicode="&#x40b;" horiz-adv-x="676" 
d="M169 21v556h-124q-10 0 -16 5.5t-6 14.5v32q0 9 6 15t16 6h419q11 0 16.5 -5.5t5.5 -15.5v-32q0 -9 -6 -14.5t-16 -5.5h-208v-205q20 27 68.5 41t98.5 14q99 0 150 -49.5t51 -144.5v-212q0 -9 -6 -15t-15 -6h-44q-10 0 -16 6t-6 15v205q0 61 -31.5 90.5t-98.5 29.5
q-58 0 -104.5 -22t-46.5 -77v-226q0 -9 -6 -15t-15 -6h-44q-9 0 -15.5 6t-6.5 15z" />
    <glyph glyph-name="uni040C" unicode="&#x40c;" horiz-adv-x="592" 
d="M556 22q0 -9 -6.5 -15.5t-15.5 -6.5h-48q-16 0 -24 14l-180 275h-113v-268q0 -9 -6.5 -15t-15.5 -6h-45q-9 0 -14.5 6t-5.5 15v607q0 10 5.5 16t14.5 6h45q10 0 16 -6t6 -16v-258l107 -1l166 266q10 15 33 15h46q9 0 14 -5t5 -13q0 -5 -5 -12l-178 -285l197 -302
q2 -3 2 -11zM249 712q0 7 5 12l68 83q10 11 16.5 14t18.5 3h66q17 0 17 -18q0 -6 -4 -11l-107 -88q-8 -7 -14.5 -8.5t-16.5 -1.5h-34q-15 0 -15 15z" />
    <glyph glyph-name="uni040D" unicode="&#x40d;" horiz-adv-x="687" 
d="M82 22v606q0 10 5.5 16t15.5 6h45q9 0 15 -6t6 -16v-486l350 495q8 13 23 13h43q10 0 16 -6t6 -16v-607q0 -9 -6 -15t-16 -6h-44q-10 0 -16.5 6t-6.5 15v482l-349 -490q-7 -13 -22 -13h-45q-9 0 -14.5 6t-5.5 16zM306 707l-107 88q-4 5 -4 11q0 18 17 18h66q12 0 18.5 -3
t16.5 -14l68 -83q5 -5 5 -12q0 -15 -15 -15h-34q-10 0 -16.5 1.5t-14.5 8.5z" />
    <glyph glyph-name="uni040E" unicode="&#x40e;" horiz-adv-x="544" 
d="M544 632q0 -6 -2 -13l-190 -429q-32 -74 -57 -112.5t-59.5 -58t-88.5 -19.5h-37q-10 0 -15.5 6t-5.5 15v37q0 10 5.5 16t15.5 6h33q36 0 61 23t52 78l-241 440q-3 5 -3 10q0 8 6 13.5t14 5.5h49q13 0 22 -15l197 -357l156 357q6 15 23 15h47q7 0 12.5 -5.5t5.5 -12.5z
M136 803q0 7 5 12t13 5h30q8 0 12.5 -5t4.5 -12q0 -59 78 -59t78 59q0 7 4.5 12t12.5 5h30q8 0 13 -5t5 -12q0 -51 -32.5 -83.5t-110.5 -32.5q-77 0 -110 32.5t-33 83.5z" />
    <glyph glyph-name="uni040F" unicode="&#x40f;" horiz-adv-x="661" 
d="M287 -109v109h-185q-9 0 -14.5 6t-5.5 15v608q0 9 5.5 15t14.5 6h45q10 0 16 -6t6 -15v-548h323v548q0 9 6 15t16 6h44q11 0 17 -6t6 -15v-608q0 -9 -6.5 -15t-16.5 -6h-184v-109q0 -9 -6 -15t-16 -6h-45q-9 0 -14.5 6t-5.5 15z" />
    <glyph glyph-name="uni0410" unicode="&#x410;" horiz-adv-x="621" 
d="M19 19l1 10l231 601q7 20 30 20h59q22 0 30 -20l230 -601l2 -10q0 -8 -6 -13.5t-14 -5.5h-43q-9 0 -15.5 5t-7.5 11l-52 134h-308l-51 -134q-7 -16 -23 -16h-45q-7 0 -12.5 5.5t-5.5 13.5zM183 227h255l-128 333z" />
    <glyph glyph-name="uni0411" unicode="&#x411;" horiz-adv-x="594" 
d="M82 21v607q0 10 5.5 16t14.5 6h402q11 0 17 -6t6 -16v-34q0 -11 -6 -16.5t-17 -5.5h-335v-191h187q96 0 151 -50.5t55 -137.5q0 -48 -23 -92t-69.5 -72.5t-113.5 -28.5h-254q-9 0 -14.5 6t-5.5 15zM345 73q59 0 93.5 35t34.5 87t-32.5 83t-95.5 31h-176v-236h176z" />
    <glyph glyph-name="uni0412" unicode="&#x412;" horiz-adv-x="620" 
d="M82 21v607q0 10 5.5 16t14.5 6h254q98 0 148.5 -47t50.5 -124q0 -52 -24.5 -86.5t-56.5 -50.5q40 -20 67 -60.5t27 -93.5q0 -52 -24 -95t-70.5 -68t-110.5 -25h-261q-9 0 -14.5 6t-5.5 15zM342 374q60 0 91.5 27.5t31.5 76.5t-31 74t-92 25h-173v-203h173zM351 73
q60 0 93.5 32t33.5 83t-33.5 82.5t-93.5 31.5h-182v-229h182z" />
    <glyph glyph-name="uni0413" unicode="&#x413;" horiz-adv-x="484" 
d="M82 21v607q0 10 5.5 16t14.5 6h357q10 0 15.5 -6t5.5 -16v-34q0 -10 -5.5 -16t-15.5 -6h-290v-551q0 -9 -6.5 -15t-15.5 -6h-45q-9 0 -14.5 6t-5.5 15z" />
    <glyph glyph-name="uni0414" unicode="&#x414;" horiz-adv-x="654" 
d="M21 -108v167q0 10 6 16t15 6h20q45 0 67.5 84.5t22.5 262.5v201q0 9 6 15t16 6h359q10 0 16 -6t6 -16v-547h45q10 0 16 -6t6 -16v-167q0 -10 -6 -15.5t-16 -5.5h-44q-9 0 -15 5.5t-6 15.5v108h-426v-108q0 -9 -6 -15t-17 -6h-44q-9 0 -15 6t-6 15zM467 81v488h-228v-152
q0 -131 -15.5 -213t-46.5 -123h290z" />
    <glyph glyph-name="uni0415" unicode="&#x415;" horiz-adv-x="562" 
d="M82 21v607q0 10 5.5 16t14.5 6h382q10 0 16 -6t6 -16v-33q0 -10 -6 -15.5t-16 -5.5h-317v-207h297q10 0 16 -6t6 -16v-32q0 -9 -6 -15t-16 -6h-297v-215h324q11 0 17 -6t6 -16v-34q0 -9 -6.5 -15t-16.5 -6h-389q-9 0 -14.5 6t-5.5 15z" />
    <glyph glyph-name="uni0416" unicode="&#x416;" horiz-adv-x="917" 
d="M881 22q0 -9 -6 -15.5t-16 -6.5h-48q-9 0 -14 3.5t-10 10.5l-179 275h-106v-269q0 -9 -6 -14.5t-16 -5.5h-43q-10 0 -16 6t-6 15v268h-107l-178 -275q-5 -7 -10 -10.5t-14 -3.5h-48q-10 0 -16 6.5t-6 15.5q0 8 2 11l197 302l-178 285q-5 7 -5 12q0 18 20 18h44
q21 0 32 -15l166 -266l101 1v259q0 9 6 15t16 6h43q10 0 16 -6t6 -15v-259l99 -1l166 266q11 15 32 15h46q20 0 20 -18q0 -5 -5 -12l-178 -285l197 -302q2 -3 2 -11z" />
    <glyph glyph-name="uni0417" unicode="&#x417;" horiz-adv-x="574" 
d="M36 155v2q0 7 5.5 12t14.5 5h42q11 0 17.5 -4.5t9.5 -16.5q12 -40 50.5 -63t99.5 -23q67 0 113 32t46 85q0 55 -40 85.5t-109 30.5h-67q-9 0 -14.5 6t-5.5 16v30q0 10 5.5 16t14.5 6h63q61 0 96 26.5t35 80.5q0 46 -39 74t-95 28q-60 0 -98 -21t-47 -67q-5 -18 -22 -18
h-46q-8 0 -14.5 5.5t-5.5 13.5q7 74 67 119t167 45q70 0 120.5 -24.5t76 -64.5t25.5 -85q0 -46 -18 -83.5t-57 -60.5q49 -24 73 -65.5t24 -94.5q0 -57 -30 -100t-86.5 -67t-130.5 -24q-73 0 -125.5 21.5t-81 59t-33.5 83.5z" />
    <glyph glyph-name="uni0418" unicode="&#x418;" horiz-adv-x="687" 
d="M82 22v606q0 10 5.5 16t15.5 6h45q9 0 15 -6t6 -16v-486l350 495q8 13 23 13h43q10 0 16 -6t6 -16v-607q0 -9 -6 -15t-16 -6h-44q-10 0 -16.5 6t-6.5 15v482l-349 -490q-7 -13 -22 -13h-45q-9 0 -14.5 6t-5.5 16z" />
    <glyph glyph-name="uni0419" unicode="&#x419;" horiz-adv-x="687" 
d="M82 22v606q0 10 5.5 16t15.5 6h45q9 0 15 -6t6 -16v-486l350 495q8 13 23 13h43q10 0 16 -6t6 -16v-607q0 -9 -6 -15t-16 -6h-44q-10 0 -16.5 6t-6.5 15v482l-349 -490q-7 -13 -22 -13h-45q-9 0 -14.5 6t-5.5 16zM198 803q0 7 5 12t13 5h30q8 0 12.5 -5t4.5 -12
q0 -59 78 -59t78 59q0 7 4.5 12t12.5 5h30q8 0 13 -5t5 -12q0 -51 -32.5 -83.5t-110.5 -32.5q-77 0 -110 32.5t-33 83.5z" />
    <glyph glyph-name="uni041A" unicode="&#x41a;" horiz-adv-x="592" 
d="M556 22q0 -9 -6.5 -15.5t-15.5 -6.5h-48q-16 0 -24 14l-180 275h-113v-268q0 -9 -6.5 -15t-15.5 -6h-45q-9 0 -14.5 6t-5.5 15v607q0 10 5.5 16t14.5 6h45q10 0 16 -6t6 -16v-258l107 -1l166 266q10 15 33 15h46q9 0 14 -5t5 -13q0 -5 -5 -12l-178 -285l197 -302
q2 -3 2 -11z" />
    <glyph glyph-name="uni041B" unicode="&#x41b;" horiz-adv-x="652" 
d="M484 21v548h-234v-152q0 -149 -21.5 -238.5t-66.5 -131t-119 -46.5q-10 -1 -16 5.5t-6 16.5v38q0 9 5.5 15t14.5 7q60 8 91.5 89.5t31.5 255.5v201q0 10 6.5 15.5t15.5 5.5h363q10 0 16 -6t6 -16v-607q0 -9 -6.5 -15t-15.5 -6h-45q-9 0 -14.5 6t-5.5 15z" />
    <glyph glyph-name="uni041C" unicode="&#x41c;" horiz-adv-x="737" 
d="M82 21v607q0 10 5.5 16t15.5 6h44q17 0 23 -14l198 -380l200 380q7 14 22 14h44q10 0 15.5 -6t5.5 -16v-607q0 -9 -6 -15t-15 -6h-43q-9 0 -15 6t-6 15v462l-158 -307q-10 -20 -30 -20h-28q-20 0 -30 20l-158 307v-462q0 -9 -6 -15t-15 -6h-42q-9 0 -15 6t-6 15z" />
    <glyph glyph-name="uni041D" unicode="&#x41d;" horiz-adv-x="661" 
d="M82 21v607q0 10 5.5 16t14.5 6h45q10 0 16 -6t6 -16v-258h323v258q0 10 6 16t16 6h44q11 0 17 -6t6 -16v-607q0 -9 -6.5 -15t-16.5 -6h-44q-10 0 -16 6t-6 15v268h-323v-268q0 -9 -6.5 -15t-15.5 -6h-45q-9 0 -14.5 6t-5.5 15z" />
    <glyph glyph-name="uni041E" unicode="&#x41e;" horiz-adv-x="627" 
d="M58 246q-1 28 -1 79t1 78q3 127 71.5 192t184.5 65t184 -65t71 -192q2 -54 2 -78q0 -23 -2 -79q-3 -128 -68.5 -191.5t-186.5 -63.5t-187 63.5t-69 191.5zM481 251q2 56 2 74q0 21 -2 74q-3 93 -48 138.5t-119 45.5t-119 -45.5t-48 -138.5q-1 -26 -1 -74q0 -46 1 -74
q3 -93 47.5 -138t119.5 -45q74 0 119 45t48 138z" />
    <glyph glyph-name="uni041F" unicode="&#x41f;" horiz-adv-x="661" 
d="M82 21v607q0 10 5.5 16t14.5 6h456q11 0 17 -6t6 -16v-607q0 -9 -6.5 -15t-16.5 -6h-44q-10 0 -16 6t-6 15v548h-323v-548q0 -9 -6.5 -15t-15.5 -6h-45q-9 0 -14.5 6t-5.5 15z" />
    <glyph glyph-name="uni0420" unicode="&#x420;" horiz-adv-x="595" 
d="M82 21v607q0 10 5.5 16t14.5 6h235q105 0 165 -50.5t60 -147.5q0 -96 -60 -146.5t-165 -50.5h-167v-234q0 -9 -6 -15t-15 -6h-47q-9 0 -14.5 6t-5.5 15zM333 331q140 0 140 121q0 60 -35 91.5t-105 31.5h-163v-244h163z" />
    <glyph glyph-name="uni0421" unicode="&#x421;" horiz-adv-x="618" 
d="M57 242q-1 26 -1 82q0 58 1 84q4 117 68.5 184.5t188.5 67.5q83 0 140.5 -29.5t86.5 -77t32 -101.5q0 -8 -6 -13t-14 -5h-47q-9 0 -14.5 4.5t-8.5 15.5q-16 72 -57 100.5t-112 28.5q-162 0 -168 -180q-1 -25 -1 -77t1 -79q6 -179 168 -179q70 0 111.5 28.5t57.5 99.5
q3 11 8.5 15.5t14.5 4.5h47q8 0 14 -5t6 -13q-3 -54 -32 -101.5t-86.5 -76.5t-140.5 -29q-124 0 -188.5 67t-68.5 184z" />
    <glyph glyph-name="uni0422" unicode="&#x422;" horiz-adv-x="536" 
d="M224 21v549h-179q-10 0 -16 6t-6 16v36q0 10 6 16t16 6h446q10 0 15.5 -6t5.5 -16v-36q0 -10 -6 -16t-15 -6h-179v-549q0 -9 -6.5 -15t-15.5 -6h-45q-9 0 -15 6t-6 15z" />
    <glyph glyph-name="uni0423" unicode="&#x423;" horiz-adv-x="544" 
d="M544 632q0 -6 -2 -13l-190 -429q-32 -74 -57 -112.5t-59.5 -58t-88.5 -19.5h-37q-10 0 -15.5 6t-5.5 15v37q0 10 5.5 16t15.5 6h33q36 0 61 23t52 78l-241 440q-3 5 -3 10q0 8 6 13.5t14 5.5h49q13 0 22 -15l197 -357l156 357q6 15 23 15h47q7 0 12.5 -5.5t5.5 -12.5z
" />
    <glyph glyph-name="uni0424" unicode="&#x424;" horiz-adv-x="792" 
d="M352 -8v74q-137 0 -209.5 59t-84.5 181q-1 8 -1 27q0 26 1 38q6 118 83 179t211 61v64q0 10 6 16t15 6h45q10 0 15.5 -5.5t5.5 -16.5v-64q134 0 211.5 -61t83.5 -179q2 -24 2 -33q0 -8 -2 -32q-10 -122 -83 -181t-212 -59v-74q0 -11 -5.5 -16.5t-15.5 -5.5h-45
q-9 0 -15 6t-6 16zM352 534q-95 0 -146.5 -40.5t-58.5 -127.5q-1 -8 -1 -23q0 -21 1 -33q9 -168 205 -168v392zM646 310q1 11 1 33q0 16 -1 23q-10 87 -61 127.5t-146 40.5v-392q197 0 207 168z" />
    <glyph glyph-name="uni0425" unicode="&#x425;" horiz-adv-x="586" 
d="M23 19q0 6 4 12l213 300l-203 289q-4 5 -4 12t6 12.5t13 5.5h53q13 0 24 -15l166 -236l165 236q9 15 24 15h49q8 0 13.5 -5.5t5.5 -12.5t-4 -12l-201 -290l213 -299q4 -6 4 -12q0 -8 -6 -13.5t-14 -5.5h-53q-13 0 -24 15l-175 245l-175 -245q-10 -15 -24 -15h-51
q-8 0 -13.5 5.5t-5.5 13.5z" />
    <glyph glyph-name="uni0426" unicode="&#x426;" horiz-adv-x="680" 
d="M560 -109v109h-458q-9 0 -14.5 6t-5.5 16v607q0 9 5.5 15t14.5 6h45q10 0 16 -6t6 -15v-548h323v548q0 9 6 15t16 6h44q11 0 17 -6t6 -15v-548h45q9 0 15.5 -6t6.5 -16v-168q0 -10 -6 -15.5t-16 -5.5h-44q-10 0 -16 6t-6 15z" />
    <glyph glyph-name="uni0427" unicode="&#x427;" horiz-adv-x="606" 
d="M436 21v241q-20 -23 -67.5 -35t-97.5 -12q-219 0 -219 200v214q0 9 6 15t15 6h45q10 0 16 -6t6 -15v-208q0 -65 33.5 -95t112.5 -30q57 0 103.5 22t46.5 75v236q0 10 6 15.5t15 5.5h44q10 0 16 -5.5t6 -15.5v-608q0 -9 -6 -15t-16 -6h-44q-9 0 -15 6t-6 15z" />
    <glyph glyph-name="uni0428" unicode="&#x428;" horiz-adv-x="888" 
d="M82 21v608q0 9 5.5 15t14.5 6h45q10 0 16 -6t6 -15v-548h231v548q0 9 6 15t16 6h44q11 0 16.5 -5.5t5.5 -15.5v-548h232v548q0 10 6 15.5t15 5.5h44q10 0 16 -6t6 -15v-608q0 -9 -6.5 -15t-15.5 -6h-683q-9 0 -14.5 6t-5.5 15z" />
    <glyph glyph-name="uni0429" unicode="&#x429;" horiz-adv-x="907" 
d="M788 -109v109h-686q-9 0 -14.5 6t-5.5 15v608q0 9 5.5 15t14.5 6h45q10 0 16 -6t6 -15v-548h231v548q0 9 6 15t16 6h44q11 0 16.5 -5.5t5.5 -15.5v-548h232v548q0 10 6 15.5t15 5.5h44q10 0 16 -6t6 -15v-548h46q9 0 15.5 -6t6.5 -16v-168q0 -9 -6 -15t-16 -6h-45
q-9 0 -14.5 6t-5.5 15z" />
    <glyph glyph-name="uni042A" unicode="&#x42a;" horiz-adv-x="661" 
d="M192 21v553h-147q-10 0 -16 5.5t-6 15.5v33q0 10 6 16t16 6h213q10 0 16 -5.5t6 -15.5v-227h136q101 0 155.5 -51t54.5 -148q0 -53 -23 -99.5t-70.5 -75t-116.5 -28.5h-202q-10 0 -16 6t-6 15zM409 75q59 0 93.5 35.5t34.5 94.5q0 122 -128 122h-129v-252h129z" />
    <glyph glyph-name="uni042B" unicode="&#x42b;" horiz-adv-x="759" 
d="M82 21v608q0 9 5.5 15t14.5 6h45q10 0 16 -6t6 -15v-227h121q101 0 155.5 -51t54.5 -148q0 -53 -24 -99.5t-71 -75t-115 -28.5h-188q-9 0 -14.5 6t-5.5 15zM590 21v608q0 9 5.5 15t14.5 6h47q10 0 15.5 -5.5t5.5 -15.5v-608q0 -9 -6 -15t-15 -6h-47q-9 0 -14.5 6t-5.5 15
zM281 75q61 0 95.5 35.5t34.5 94.5q0 122 -130 122h-112v-252h112z" />
    <glyph glyph-name="uni042C" unicode="&#x42c;" horiz-adv-x="558" 
d="M82 21v608q0 9 5.5 15t14.5 6h45q10 0 16 -6t6 -15v-227h144q101 0 155.5 -51t54.5 -148q0 -53 -23.5 -99.5t-71 -75t-115.5 -28.5h-211q-9 0 -14.5 6t-5.5 15zM305 75q60 0 94.5 35.5t34.5 94.5q0 122 -129 122h-136v-252h136z" />
    <glyph glyph-name="uni042D" unicode="&#x42d;" horiz-adv-x="594" 
d="M46 154v2q0 8 6.5 13t13.5 5h46q10 0 14 -4.5t9 -15.5q10 -39 48 -63t102 -24q77 0 120.5 53.5t43.5 147.5v21h-229q-9 0 -15 6.5t-6 15.5v30q0 9 6 15.5t15 6.5h229v19q0 102 -42 151.5t-122 49.5q-64 0 -102 -24.5t-48 -63.5q-3 -10 -7.5 -14t-14.5 -4h-46
q-8 0 -14.5 5.5t-5.5 13.5q10 74 74.5 119t164.5 45q113 0 180 -67.5t71 -211.5q2 -43 2 -57t-2 -55q-4 -144 -71 -211t-180 -67q-66 0 -118.5 20.5t-84 57.5t-37.5 85z" />
    <glyph glyph-name="uni042E" unicode="&#x42e;" horiz-adv-x="880" 
d="M310 242q-2 34 -2 47h-139v-268q0 -9 -6.5 -15t-15.5 -6h-45q-9 0 -14.5 6t-5.5 15v608q0 9 5.5 15t14.5 6h45q10 0 16 -6t6 -15v-259h139q0 13 2 39q7 112 67.5 181.5t188.5 69.5t190 -71.5t66 -185.5q2 -54 2 -78q0 -23 -2 -79q-4 -116 -65.5 -185.5t-190.5 -69.5
q-128 0 -189 68.5t-67 182.5zM733 247q2 56 2 78q0 24 -2 78q-4 93 -48.5 136.5t-118.5 43.5q-75 0 -119.5 -43.5t-47.5 -136.5q-1 -27 -1 -78q0 -50 1 -78q3 -93 47.5 -136t119.5 -43t119 43t48 136z" />
    <glyph glyph-name="uni042F" unicode="&#x42f;" horiz-adv-x="611" 
d="M530 629v-608q0 -9 -6 -15t-15 -6h-45q-9 0 -15.5 6t-6.5 15v227h-129l-142 -223q-7 -13 -14.5 -19t-21.5 -6h-41q-8 0 -13.5 5.5t-5.5 13.5q0 4 3 10l145 227q-65 16 -100.5 65.5t-35.5 125.5q0 54 23.5 100.5t71 74.5t115.5 28h212q9 0 15 -6t6 -15zM442 575h-137
q-60 0 -94 -35.5t-34 -94.5q0 -121 128 -121h137v251z" />
    <glyph glyph-name="uni0430" unicode="&#x430;" horiz-adv-x="511" 
d="M35 131q0 61 50.5 100t136.5 52l139 20v27q0 95 -110 95q-43 0 -69 -17t-38 -40q-4 -9 -8 -12.5t-12 -3.5h-36q-8 0 -14 6t-6 15q0 21 20 49.5t61.5 49t102.5 20.5q104 0 149 -48t45 -121v-302q0 -9 -6 -15t-15 -6h-41q-10 0 -15.5 6t-5.5 15v41q-20 -30 -59 -50.5
t-101 -20.5q-45 0 -83.5 18.5t-61.5 50.5t-23 71zM361 215v26l-108 -16q-67 -9 -101.5 -31.5t-34.5 -56.5q0 -38 31 -58t74 -20q61 0 100 39.5t39 116.5z" />
    <glyph glyph-name="uni0431" unicode="&#x431;" horiz-adv-x="539" 
d="M491 223q0 -18 -1 -25q-4 -94 -60 -150.5t-157 -56.5q-104 0 -159 59t-59 163v111q1 133 35.5 199.5t98.5 95.5t207 67l25 6l4 1q7 0 12.5 -4.5t7.5 -12.5l7 -35l1 -6q0 -13 -15 -18q-11 -3 -49 -12q-106 -25 -152.5 -43.5t-72 -58.5t-27.5 -119q22 33 63 54.5t87 21.5
q94 0 146.5 -57t56.5 -150q1 -10 1 -30zM405 223q0 17 -1 25q-2 70 -35.5 107.5t-87.5 37.5q-61 0 -99 -37.5t-41 -107.5l-1 -25l1 -20q3 -70 38 -107.5t94 -37.5t94 37.5t37 107.5q1 6 1 20z" />
    <glyph glyph-name="uni0432" unicode="&#x432;" horiz-adv-x="519" 
d="M70 21v441q0 9 6 15t15 6h192q84 0 129 -35t45 -94q0 -40 -15 -62.5t-46 -37.5q33 -14 52 -46.5t19 -70.5q0 -66 -46.5 -101.5t-130.5 -35.5h-199q-9 0 -15 6t-6 15zM277 277q45 0 72 20t27 56q0 64 -99 64h-126v-140h126zM282 66q47 0 74.5 18t27.5 53q0 38 -25 55.5
t-77 17.5h-131v-144h131z" />
    <glyph glyph-name="uni0433" unicode="&#x433;" horiz-adv-x="399" 
d="M70 21v441q0 9 6 15t15 6h276q9 0 14.5 -6t5.5 -15v-30q0 -9 -5.5 -14.5t-14.5 -5.5h-214v-391q0 -9 -6 -15t-15 -6h-41q-9 0 -15 6t-6 15z" />
    <glyph glyph-name="uni0434" unicode="&#x434;" horiz-adv-x="555" 
d="M20 -81v132q0 9 6 15t15 6h5q39 0 58.5 65.5t19.5 205.5v119q0 9 6.5 15t15.5 6h293q11 0 16.5 -5.5t5.5 -15.5v-389h43q11 0 16.5 -5.5t5.5 -15.5v-133q0 -10 -5.5 -15.5t-16.5 -5.5h-40q-10 0 -15.5 6t-5.5 15v81h-340v-81q0 -9 -6 -15t-15 -6h-41q-9 0 -15 5.5
t-6 15.5zM377 73v339h-171v-78q0 -190 -54 -262z" />
    <glyph glyph-name="uni0435" unicode="&#x435;" horiz-adv-x="519" 
d="M47 211l-1 31l1 31q6 100 62.5 159.5t151.5 59.5q102 0 158.5 -65t56.5 -176v-17q0 -9 -6 -15t-16 -6h-322v-9q3 -60 37 -102.5t91 -42.5q44 0 71.5 17t41.5 35q8 12 12.5 14t15.5 2h41q9 0 15 -4.5t6 -11.5q0 -21 -25.5 -49.5t-71 -49.5t-105.5 -21q-95 0 -151.5 59
t-62.5 161zM391 276v3q0 65 -35 105.5t-95 40.5t-94.5 -40.5t-34.5 -105.5v-3h259z" />
    <glyph glyph-name="uni0436" unicode="&#x436;" horiz-adv-x="737" 
d="M715 15q0 -7 -5 -11t-13 -4h-53q-9 0 -14.5 3.5t-10.5 10.5l-136 197h-72v-190q0 -9 -6 -15t-16 -6h-40q-9 0 -15 6t-6 15v190h-73l-137 -197q-10 -14 -25 -14h-53q-8 0 -13.5 4t-5.5 11q0 5 5 12l159 226l-140 204q-4 7 -4 11q0 7 5 11t13 4h46q15 0 24 -14l126 -187h73
v180q0 10 6 15.5t15 5.5h40q10 0 16 -6t6 -15v-180h69l128 187q9 14 25 14h44q9 0 14.5 -4t5.5 -11q0 -4 -5 -11l-140 -204l159 -226q4 -6 4 -12z" />
    <glyph glyph-name="uni0437" unicode="&#x437;" horiz-adv-x="474" 
d="M40 124q0 9 5.5 14t13.5 5h40q10 0 15 -4t9 -15q10 -35 40 -50t80 -15q49 0 80 20t31 59q0 78 -90 78h-51q-10 0 -15.5 6t-5.5 15v23q0 9 5.5 15t15.5 6h45q80 0 80 64q0 33 -24.5 56t-77.5 23q-52 0 -75.5 -17.5t-33.5 -56.5q-4 -17 -23 -17h-39q-7 0 -13 5t-6 12
q1 39 22.5 71t64 51.5t103.5 19.5q64 0 105.5 -20.5t60 -51t18.5 -63.5q0 -38 -12.5 -61.5t-44.5 -39.5q40 -15 57.5 -46.5t17.5 -76.5q0 -69 -56 -105.5t-146 -36.5q-67 0 -111 21t-64 52t-21 60z" />
    <glyph glyph-name="uni0438" unicode="&#x438;" horiz-adv-x="564" 
d="M497 464v-443q0 -9 -6 -15t-15 -6h-41q-10 0 -16 6t-6 15v340l-260 -347q-10 -14 -24 -14h-40q-7 0 -13 6t-6 14v442q0 9 6 15t15 6h41q9 0 15 -6t6 -15v-340l260 347q11 14 25 14h39q7 0 13.5 -5.5t6.5 -13.5z" />
    <glyph glyph-name="uni0439" unicode="&#x439;" horiz-adv-x="564" 
d="M497 464v-443q0 -9 -6 -15t-15 -6h-41q-10 0 -16 6t-6 15v340l-260 -347q-10 -14 -24 -14h-40q-7 0 -13 6t-6 14v442q0 9 6 15t15 6h41q9 0 15 -6t6 -15v-340l260 347q11 14 25 14h39q7 0 13.5 -5.5t6.5 -13.5zM147 662q0 8 5 13t13 5h30q8 0 12.5 -5t4.5 -13
q0 -25 17 -41.5t57 -16.5q41 0 57.5 16.5t16.5 41.5q0 8 4.5 13t13.5 5h29q9 0 13.5 -5t4.5 -13q0 -50 -32.5 -82.5t-106.5 -32.5q-75 0 -107 32.5t-32 82.5z" />
    <glyph glyph-name="uni043A" unicode="&#x43a;" horiz-adv-x="495" 
d="M473 15q0 -15 -18 -15h-53q-14 0 -25 14l-136 195h-89v-188q0 -9 -6 -15t-15 -6h-40q-9 0 -15 6t-6 15v441q0 9 6 15t15 6h40q10 0 15.5 -5.5t5.5 -15.5v-180h87l127 187q9 14 24 14h46q8 0 13.5 -4t5.5 -11q0 -2 -2 -5t-2 -6l-140 -205l158 -225q4 -7 4 -12z" />
    <glyph glyph-name="uni043B" unicode="&#x43b;" horiz-adv-x="537" 
d="M23 22v33q0 8 5.5 13.5t14.5 6.5q44 1 66.5 64t22.5 204v119q0 9 6 15t15 6h292q10 0 15.5 -5.5t5.5 -15.5v-441q0 -9 -6 -15t-15 -6h-41q-9 0 -15 6t-6 15v391h-169v-78q0 -177 -41 -255.5t-127 -78.5q-10 0 -16.5 6.5t-6.5 15.5z" />
    <glyph glyph-name="uni043C" unicode="&#x43c;" horiz-adv-x="632" 
d="M561 465v-445q0 -9 -5.5 -14.5t-14.5 -5.5h-42q-9 0 -15 5.5t-6 14.5v312l-120 -230q-7 -13 -13 -19t-18 -6h-23q-12 0 -18 6t-13 19l-121 224v-306q0 -9 -5.5 -14.5t-14.5 -5.5h-42q-9 0 -14.5 5.5t-5.5 14.5v445q0 7 5.5 12.5t12.5 5.5h45q15 0 22 -15l160 -298
l161 298q7 15 22 15h45q7 0 12.5 -5.5t5.5 -12.5z" />
    <glyph glyph-name="uni043D" unicode="&#x43d;" horiz-adv-x="564" 
d="M70 21v441q0 9 6 15t15 6h41q9 0 15 -6t6 -15v-180h257v180q0 9 6 15t15 6h41q10 0 15.5 -5.5t5.5 -15.5v-441q0 -9 -6 -15t-15 -6h-41q-9 0 -15 6t-6 15v190h-257v-190q0 -9 -6 -15t-15 -6h-41q-9 0 -15 6t-6 15z" />
    <glyph glyph-name="uni043E" unicode="&#x43e;" horiz-adv-x="531" 
d="M49 202l-1 40l1 39q4 96 60 153.5t157 57.5q100 0 156 -57.5t60 -153.5q2 -20 2 -39q0 -20 -2 -40q-4 -96 -59 -153.5t-157 -57.5t-157.5 57.5t-59.5 153.5zM398 206q1 10 1 36t-1 35q-3 70 -38 108t-94 38q-60 0 -94.5 -38t-37.5 -108l-1 -35l1 -36q3 -70 37.5 -108
t94.5 -38q59 0 94 38t38 108z" />
    <glyph glyph-name="uni043F" unicode="&#x43f;" horiz-adv-x="549" 
d="M70 21v441q0 9 6 15t15 6h366q9 0 15 -6t6 -15v-441q0 -9 -6 -15t-15 -6h-41q-9 0 -15 6t-6 15v391h-242v-391q0 -9 -6 -15t-15 -6h-41q-9 0 -15 6t-6 15z" />
    <glyph glyph-name="uni0440" unicode="&#x440;" horiz-adv-x="552" 
d="M71 -155v617q0 10 6 15.5t15 5.5h39q10 0 15.5 -5.5t5.5 -15.5v-41q54 71 154 71q97 0 146 -61.5t52 -157.5v-31v-32q-3 -95 -52 -157t-146 -62q-100 0 -151 70v-216q0 -9 -6 -15.5t-15 -6.5h-42q-9 0 -15 6t-6 16zM419 215q1 9 1 27q0 178 -132 178q-65 0 -98 -43
t-35 -102q-1 -10 -1 -36t1 -36q2 -57 36 -98.5t97 -41.5q67 0 97.5 42t33.5 110z" />
    <glyph glyph-name="uni0441" unicode="&#x441;" horiz-adv-x="511" 
d="M49 204l-1 38l1 37q3 101 59 157t155 56q67 0 113 -23.5t68.5 -59t24.5 -70.5q1 -8 -6 -14.5t-15 -6.5h-41q-9 0 -14 4t-9 15q-17 46 -46.5 65t-73.5 19q-59 0 -93 -36.5t-37 -110.5l-1 -32l1 -33q3 -74 37 -110.5t93 -36.5q45 0 74 19t46 65q4 11 9 15t14 4h41
q8 0 15 -6.5t6 -14.5q-2 -34 -24.5 -69.5t-68.5 -59.5t-113 -24q-99 0 -155 56t-59 157z" />
    <glyph glyph-name="uni0442" unicode="&#x442;" horiz-adv-x="475" 
d="M196 21v391h-163q-9 0 -15 5.5t-6 14.5v30q0 9 6 15t15 6h408q10 0 15.5 -6t5.5 -15v-30q0 -9 -5.5 -14.5t-15.5 -5.5h-162v-391q0 -9 -6 -15t-16 -6h-40q-9 0 -15 6t-6 15z" />
    <glyph glyph-name="uni0443" unicode="&#x443;" horiz-adv-x="507" 
d="M482 464q0 -3 -5 -16l-177 -418l-8 -20q-25 -59 -45 -96.5t-50.5 -64t-71.5 -26.5h-35q-9 0 -15 6.5t-6 15.5v29q0 9 6 15t15 6h24q21 0 34 8.5t23.5 27t27.5 57.5l16 38l-182 422q-4 12 -4 16q0 8 5.5 13.5t13.5 5.5h41q15 0 22 -15l145 -344l144 344q7 15 24 15h39
q7 0 13 -5.5t6 -13.5z" />
    <glyph glyph-name="uni0444" unicode="&#x444;" horiz-adv-x="662" 
d="M290 -155v155q-117 0 -176.5 56.5t-64.5 153.5l-1 32l1 32q5 96 65 152.5t176 56.5v155q0 10 6 16t15 6h41q9 0 15 -6t6 -16v-155q117 0 176 -56.5t64 -152.5q2 -20 2 -32t-2 -32q-5 -97 -63.5 -153.5t-176.5 -56.5v-155q0 -9 -6 -15.5t-15 -6.5h-41q-9 0 -15 6t-6 16z
M290 413q-151 0 -158 -145l-1 -26l1 -26q5 -74 43.5 -110t114.5 -36v343zM530 216q1 9 1 26q0 16 -1 26q-7 145 -157 145v-343q76 0 114.5 36.5t42.5 109.5z" />
    <glyph glyph-name="uni0445" unicode="&#x445;" horiz-adv-x="499" 
d="M28 20q0 8 6 17l162 210l-151 200q-8 10 -8 17q0 8 6 13.5t14 5.5h44q14 0 24 -15l126 -162l125 162q6 8 11 11.5t13 3.5h43q8 0 13.5 -5.5t5.5 -13.5q0 -9 -7 -17l-153 -202l162 -208q6 -9 6 -17q0 -9 -5.5 -14.5t-13.5 -5.5h-46q-14 0 -24 14l-133 172l-133 -172
q-5 -7 -10.5 -10.5t-13.5 -3.5h-44q-8 0 -13.5 5.5t-5.5 14.5z" />
    <glyph glyph-name="uni0446" unicode="&#x446;" horiz-adv-x="572" 
d="M460 -97v97h-369q-9 0 -15 6t-6 15v441q0 9 6 15t15 6h41q9 0 15 -6t6 -15v-390h242v390q0 10 6 15.5t15 5.5h41q9 0 15 -6t6 -15v-390h44q9 0 15 -6t6 -15v-148q0 -9 -6 -15t-15 -6h-41q-9 0 -15 6t-6 15z" />
    <glyph glyph-name="uni0447" unicode="&#x447;" horiz-adv-x="509" 
d="M352 21v177q-48 -46 -142 -46q-171 0 -171 152v158q0 10 6 15.5t15 5.5h42q9 0 15.5 -6t6.5 -15v-153q0 -42 24 -61t77 -19q61 0 94 15t33 50v168q0 9 6 15t15 6h44q9 0 15 -6t6 -15v-441q0 -9 -6 -15t-15 -6h-44q-9 0 -15 6t-6 15z" />
    <glyph glyph-name="uni0448" unicode="&#x448;" horiz-adv-x="729" 
d="M70 21v441q0 9 6 15t15 6h39q10 0 15.5 -5.5t5.5 -15.5v-390h173v390q0 9 6 15t16 6h37q9 0 15 -6t6 -15v-390h173v390q0 9 6 15t15 6h39q11 0 16.5 -5.5t5.5 -15.5v-441q0 -9 -6 -15t-16 -6h-546q-9 0 -15 6t-6 15z" />
    <glyph glyph-name="uni0449" unicode="&#x449;" horiz-adv-x="753" 
d="M642 -97v97h-551q-9 0 -15 6t-6 15v441q0 9 6 15t15 6h39q10 0 15.5 -5.5t5.5 -15.5v-390h173v390q0 9 6 15t16 6h37q9 0 15 -6t6 -15v-390h173v390q0 9 6 15t15 6h39q11 0 16.5 -5.5t5.5 -15.5v-390h44q10 0 16 -6t6 -15v-148q0 -9 -6 -15t-16 -6h-41q-9 0 -14.5 6
t-5.5 15z" />
    <glyph glyph-name="uni044A" unicode="&#x44a;" horiz-adv-x="528" 
d="M150 21v391h-117q-9 0 -15 5.5t-6 14.5v30q0 9 6 15t15 6h180q9 0 15 -6t6 -15v-137h90q91 0 135.5 -43t44.5 -122q0 -82 -47 -121t-145 -39h-140q-9 0 -15.5 6t-6.5 15zM316 68q58 0 84 21t26 71q0 49 -26 73t-84 24h-83v-189h83z" />
    <glyph glyph-name="uni044B" unicode="&#x44b;" horiz-adv-x="653" 
d="M70 21v441q0 9 6 15t15 6h41q9 0 15 -6t6 -15v-137h98q91 0 136 -43.5t45 -121.5q0 -82 -48 -121t-145 -39h-148q-9 0 -15 6t-6 15zM499 21v441q0 9 6 15t15 6h41q9 0 15 -6t6 -15v-441q0 -9 -6 -15t-15 -6h-41q-9 0 -15 6t-6 15zM243 68q58 0 84 21t26 71q0 49 -26 73
t-84 24h-91v-189h91z" />
    <glyph glyph-name="uni044C" unicode="&#x44c;" horiz-adv-x="463" 
d="M70 21v441q0 9 6 15t15 6h41q9 0 15 -6t6 -15v-137h105q92 0 136.5 -43t44.5 -122q0 -82 -47 -121t-145 -39h-156q-9 0 -15 6t-6 15zM251 68q57 0 83 21t26 71q0 49 -26 73t-83 24h-99v-189h99z" />
    <glyph glyph-name="uni044D" unicode="&#x44d;" horiz-adv-x="513" 
d="M46 138v2q0 8 6 13t13 5h38q9 0 13.5 -4t8.5 -14q17 -43 47 -62t75 -19q60 0 94 36t36 109v5h-181q-9 0 -14.5 6t-5.5 14v25q0 9 5.5 14.5t14.5 5.5h181v6q-2 72 -36.5 108t-93.5 36q-45 0 -75 -19t-47 -62q-4 -10 -8.5 -14.5t-14.5 -4.5h-36q-8 0 -14 6t-6 15
q2 35 24 69t66.5 56t110.5 22q101 0 156.5 -55.5t59.5 -156.5q1 -10 1 -38t-1 -39q-4 -101 -59 -156.5t-157 -55.5q-67 0 -111.5 22t-66.5 56t-23 69z" />
    <glyph glyph-name="uni044E" unicode="&#x44e;" horiz-adv-x="736" 
d="M688 242q0 -20 -1 -40q-4 -96 -59.5 -153.5t-157.5 -57.5t-157.5 57.5t-58.5 153.5v9h-101v-190q0 -9 -6 -15t-15 -6h-41q-9 0 -15 6t-6 15v441q0 9 6 15t15 6h41q9 0 15 -6t6 -15v-180h101q3 95 59.5 152.5t156.5 57.5t156.5 -57.5t60.5 -153.5q1 -20 1 -39zM603 242
q0 26 -1 35q-3 70 -37.5 108t-94.5 38q-59 0 -94 -38t-38 -108l-1 -35l1 -36q3 -70 38 -108t94 -38q60 0 94.5 38t37.5 108q1 10 1 36z" />
    <glyph glyph-name="uni044F" unicode="&#x44f;" horiz-adv-x="504" 
d="M433 462v-441q0 -9 -6 -15t-15 -6h-42q-10 0 -16 6t-6 15v153h-100l-107 -160q-4 -6 -10.5 -10t-13.5 -4h-42q-7 0 -12.5 5.5t-5.5 13.5q0 9 6 17l104 153q-48 16 -72.5 53.5t-24.5 89.5q0 77 46 114t139 37h157q9 0 15 -6t6 -15zM349 415h-98q-54 0 -78 -19t-24 -64
q0 -41 23.5 -65.5t70.5 -24.5h106v173z" />
    <glyph glyph-name="uni0450" unicode="&#x450;" horiz-adv-x="519" 
d="M47 211l-1 31l1 31q6 100 62.5 159.5t151.5 59.5q102 0 158.5 -65t56.5 -176v-17q0 -9 -6 -15t-16 -6h-322v-9q3 -60 37 -102.5t91 -42.5q44 0 71.5 17t41.5 35q8 12 12.5 14t15.5 2h41q9 0 15 -4.5t6 -11.5q0 -21 -25.5 -49.5t-71 -49.5t-105.5 -21q-95 0 -151.5 59
t-62.5 161zM391 276v3q0 65 -35 105.5t-95 40.5t-94.5 -40.5t-34.5 -105.5v-3h259zM223 563l-107 88q-5 5 -5 11q0 18 18 18h60q13 0 19.5 -3t14.5 -14l70 -83q5 -5 5 -12q0 -15 -15 -15h-30q-10 0 -16 1.5t-14 8.5z" />
    <glyph glyph-name="uni0451" unicode="&#x451;" horiz-adv-x="519" 
d="M47 211l-1 31l1 31q6 100 62.5 159.5t151.5 59.5q102 0 158.5 -65t56.5 -176v-17q0 -9 -6 -15t-16 -6h-322v-9q3 -60 37 -102.5t91 -42.5q44 0 71.5 17t41.5 35q8 12 12.5 14t15.5 2h41q9 0 15 -4.5t6 -11.5q0 -21 -25.5 -49.5t-71 -49.5t-105.5 -21q-95 0 -151.5 59
t-62.5 161zM391 276v3q0 65 -35 105.5t-95 40.5t-94.5 -40.5t-34.5 -105.5v-3h259zM143 598v49q0 9 5.5 15t14.5 6h48q10 0 16 -6t6 -15v-49q0 -9 -6 -14.5t-16 -5.5h-48q-9 0 -14.5 5.5t-5.5 14.5zM298 598v49q0 9 5.5 15t14.5 6h49q10 0 16 -6t6 -15v-49q0 -9 -6 -14.5
t-16 -5.5h-49q-9 0 -14.5 5.5t-5.5 14.5z" />
    <glyph glyph-name="uni0452" unicode="&#x452;" horiz-adv-x="554" 
d="M242 -155v30q0 9 6 14.5t15 5.5h5q62 0 94 27.5t42 73.5t10 116v116q0 66 -32.5 103.5t-92.5 37.5t-95.5 -37.5t-35.5 -103.5v-207q0 -9 -5.5 -15t-15.5 -6h-43q-9 0 -15.5 6t-6.5 15v482h-49q-9 0 -14.5 5.5t-5.5 14.5v20q0 9 5.5 14.5t14.5 5.5h49v75q0 10 6.5 16
t15.5 6h43q10 0 15.5 -6t5.5 -16v-75h161q9 0 15 -5.5t6 -14.5v-20q0 -9 -6 -14.5t-15 -5.5h-161v-132q27 34 63.5 52t90.5 18q90 0 139.5 -57.5t49.5 -150.5v-122q0 -134 -52 -211t-176 -77h-10q-9 0 -15 6t-6 16z" />
    <glyph glyph-name="uni0453" unicode="&#x453;" horiz-adv-x="399" 
d="M70 21v441q0 9 6 15t15 6h276q9 0 14.5 -6t5.5 -15v-30q0 -9 -5.5 -14.5t-14.5 -5.5h-214v-391q0 -9 -6 -15t-15 -6h-41q-9 0 -15 6t-6 15zM205 568q0 7 5 12l68 83q10 11 16.5 14t18.5 3h60q18 0 18 -18q0 -6 -5 -11l-107 -88q-7 -7 -13.5 -8.5t-16.5 -1.5h-29
q-15 0 -15 15z" />
    <glyph glyph-name="uni0454" unicode="&#x454;" horiz-adv-x="513" 
d="M50 203l-1 39l1 38q4 101 59.5 156.5t157.5 55.5q64 0 108.5 -21.5t66.5 -55.5t25 -70v-2q0 -9 -5.5 -14t-13.5 -5h-37q-9 0 -13.5 4t-9.5 14q-17 44 -46.5 63t-74.5 19q-60 0 -95 -35.5t-36 -108.5v-6h182q8 0 13.5 -5.5t5.5 -14.5v-25q0 -8 -5.5 -14t-13.5 -6h-182v-6
q1 -73 36 -108.5t95 -35.5q45 0 74.5 19t46.5 63q5 10 8.5 13.5t13.5 3.5h38q8 0 14 -5.5t5 -14.5q-3 -37 -25 -70.5t-66 -55t-109 -21.5q-103 0 -158 55.5t-59 156.5z" />
    <glyph glyph-name="uni0455" unicode="&#x455;" horiz-adv-x="472" 
d="M40 104q0 9 6.5 14.5t13.5 5.5h39q6 0 9 -2t9 -9q21 -26 47.5 -40.5t71.5 -14.5q50 0 80.5 18.5t30.5 53.5q0 23 -13 37t-43.5 25t-89.5 24q-81 18 -114.5 51.5t-33.5 86.5q0 34 20.5 66t61 52t95.5 20q59 0 100.5 -19.5t62 -45.5t20.5 -43q0 -9 -6 -14.5t-14 -5.5h-35
q-13 0 -19 10q-16 18 -26.5 28t-31 16.5t-51.5 6.5q-45 0 -69 -19t-24 -50q0 -20 10 -33.5t39 -25t85 -23.5q89 -19 125.5 -53t36.5 -88q0 -40 -23 -72.5t-68 -51t-107 -18.5q-64 0 -108 21t-65.5 47.5t-21.5 44.5z" />
    <glyph glyph-name="uni0456" unicode="&#x456;" horiz-adv-x="223" 
d="M62 595v49q0 9 6 15.5t16 6.5h54q10 0 16.5 -6.5t6.5 -15.5v-49q0 -9 -6.5 -15t-16.5 -6h-54q-10 0 -16 6t-6 15zM70 21v441q0 9 6 15t15 6h41q9 0 15 -6t6 -15v-441q0 -9 -6 -15t-15 -6h-41q-9 0 -15 6t-6 15z" />
    <glyph glyph-name="uni0457" unicode="&#x457;" horiz-adv-x="223" 
d="M70 21v441q0 9 6 15t15 6h41q9 0 15 -6t6 -15v-441q0 -9 -6 -15t-15 -6h-41q-9 0 -15 6t-6 15zM-11 598v49q0 9 5.5 15t14.5 6h48q10 0 16 -6t6 -15v-49q0 -9 -6 -14.5t-16 -5.5h-48q-9 0 -14.5 5.5t-5.5 14.5zM144 598v49q0 9 5.5 15t14.5 6h49q10 0 16 -6t6 -15v-49
q0 -9 -6 -14.5t-16 -5.5h-49q-9 0 -14.5 5.5t-5.5 14.5z" />
    <glyph glyph-name="uni0458" unicode="&#x458;" horiz-adv-x="234" 
d="M71 595v49q0 9 6 15.5t15 6.5h58q9 0 15 -6.5t6 -15.5v-49q0 -9 -6 -15t-15 -6h-58q-9 0 -15 6t-6 15zM-31 -155v30q0 9 5.5 14.5t15.5 5.5h13q45 0 60.5 23.5t15.5 69.5v474q0 10 6 15.5t15 5.5h42q9 0 15.5 -6t6.5 -15v-475q0 -164 -157 -164h-17q-10 0 -15.5 6.5
t-5.5 15.5z" />
    <glyph glyph-name="uni0459" unicode="&#x459;" horiz-adv-x="722" 
d="M368 21v391h-148v-78q0 -119 -19 -191t-57 -105t-98 -37q-10 -1 -16.5 5.5t-6.5 16.5v33q0 8 5.5 13t14.5 7q48 8 72 67.5t24 199.5v119q0 9 6 15t16 6h269q9 0 15 -6t6 -15v-137h66q92 0 137 -43t45 -122q0 -82 -47.5 -121t-145.5 -39h-117q-9 0 -15 6t-6 15zM510 68
q58 0 84 21t26 71t-25.5 73.5t-84.5 23.5h-59v-189h59z" />
    <glyph glyph-name="uni045A" unicode="&#x45a;" horiz-adv-x="733" 
d="M70 21v441q0 9 6 15t15 6h41q9 0 15 -6t6 -15v-180h226v180q0 9 6 15t15 6h41q10 0 16 -6t6 -15v-137h66q92 0 136.5 -43t44.5 -122q0 -82 -47.5 -121t-145.5 -39h-117q-9 0 -15 6t-6 15v190h-226v-190q0 -9 -6 -15t-15 -6h-41q-9 0 -15 6t-6 15zM521 68q58 0 84 21
t26 71t-25.5 73.5t-84.5 23.5h-59v-189h59z" />
    <glyph glyph-name="uni045B" unicode="&#x45b;" horiz-adv-x="571" 
d="M73 21v482h-49q-9 0 -15 5.5t-6 14.5v20q0 9 6 14.5t15 5.5h49v75q0 10 6 16t16 6h42q11 0 16.5 -6t5.5 -16v-75h161q9 0 14.5 -5.5t5.5 -14.5v-20q0 -9 -5.5 -14.5t-14.5 -5.5h-161v-132q27 34 63.5 52t90.5 18q90 0 139.5 -57.5t49.5 -150.5v-212q0 -9 -6 -15t-16 -6
h-43q-10 0 -16 6t-6 15v207q0 66 -32.5 103.5t-93.5 37.5q-60 0 -95 -37.5t-35 -103.5v-207q0 -9 -6 -15t-16 -6h-42q-10 0 -16 6t-6 15z" />
    <glyph glyph-name="uni045C" unicode="&#x45c;" horiz-adv-x="495" 
d="M473 15q0 -15 -18 -15h-53q-14 0 -25 14l-136 195h-89v-188q0 -9 -6 -15t-15 -6h-40q-9 0 -15 6t-6 15v441q0 9 6 15t15 6h40q10 0 15.5 -5.5t5.5 -15.5v-180h87l127 187q9 14 24 14h46q8 0 13.5 -4t5.5 -11q0 -2 -2 -5t-2 -6l-140 -205l158 -225q4 -7 4 -12zM211 568
q0 7 5 12l68 83q10 11 16.5 14t18.5 3h60q18 0 18 -18q0 -6 -5 -11l-107 -88q-7 -7 -13.5 -8.5t-16.5 -1.5h-29q-15 0 -15 15z" />
    <glyph glyph-name="uni045D" unicode="&#x45d;" horiz-adv-x="564" 
d="M497 464v-443q0 -9 -6 -15t-15 -6h-41q-10 0 -16 6t-6 15v340l-260 -347q-10 -14 -24 -14h-40q-7 0 -13 6t-6 14v442q0 9 6 15t15 6h41q9 0 15 -6t6 -15v-340l260 347q11 14 25 14h39q7 0 13.5 -5.5t6.5 -13.5zM244 563l-107 88q-5 5 -5 11q0 18 18 18h60q13 0 19.5 -3
t14.5 -14l70 -83q5 -5 5 -12q0 -15 -15 -15h-30q-10 0 -16 1.5t-14 8.5z" />
    <glyph glyph-name="uni045E" unicode="&#x45e;" horiz-adv-x="507" 
d="M482 464q0 -3 -5 -16l-177 -418l-8 -20q-25 -59 -45 -96.5t-50.5 -64t-71.5 -26.5h-35q-9 0 -15 6.5t-6 15.5v29q0 9 6 15t15 6h24q21 0 34 8.5t23.5 27t27.5 57.5l16 38l-182 422q-4 12 -4 16q0 8 5.5 13.5t13.5 5.5h41q15 0 22 -15l145 -344l144 344q7 15 24 15h39
q7 0 13 -5.5t6 -13.5zM115 662q0 8 5 13t13 5h30q8 0 12.5 -5t4.5 -13q0 -25 17 -41.5t57 -16.5q41 0 57.5 16.5t16.5 41.5q0 8 4.5 13t13.5 5h29q9 0 13.5 -5t4.5 -13q0 -50 -32.5 -82.5t-106.5 -32.5q-75 0 -107 32.5t-32 82.5z" />
    <glyph glyph-name="uni045F" unicode="&#x45f;" horiz-adv-x="549" 
d="M232 -97v97h-141q-9 0 -15 6t-6 15v441q0 9 6 15t15 6h41q9 0 15 -6t6 -15v-390h242v390q0 10 6 15.5t15 5.5h41q9 0 15 -6t6 -15v-441q0 -9 -6 -15t-15 -6h-142v-97q0 -9 -6 -15t-15 -6h-41q-10 0 -15.5 6t-5.5 15z" />
    <glyph glyph-name="uni0462" unicode="&#x462;" horiz-adv-x="617" 
d="M581 203q0 -53 -23.5 -99.5t-71 -75t-115.5 -28.5h-210q-10 0 -16 6t-6 15v470h-94q-10 0 -16 6t-6 15v23q0 10 6 15.5t16 5.5h94v75q0 9 6 15t16 6h44q10 0 16 -6t6 -15v-75h178q10 0 15.5 -5.5t5.5 -15.5v-23q0 -9 -6 -15t-15 -6h-178v-89h144q101 0 155.5 -51
t54.5 -148zM492 205q0 122 -129 122h-136v-252h136q61 0 95 35.5t34 94.5z" />
    <glyph glyph-name="uni0463" unicode="&#x463;" horiz-adv-x="472" 
d="M449 160q0 -82 -48 -121t-145 -39h-141q-9 0 -14.5 6t-5.5 15v407h-52q-10 0 -16 6t-6 16v18q0 10 6 16t16 6h52v148q0 10 5.5 16t14.5 6h42q9 0 14.5 -6t5.5 -16v-148h130q9 0 14.5 -6t5.5 -16v-18q0 -10 -5.5 -16t-14.5 -6h-130v-103h91q92 0 136.5 -43t44.5 -122z
M370 160q0 49 -26 73t-84 24h-83v-189h83q58 0 84 21t26 71z" />
    <glyph glyph-name="uni046A" unicode="&#x46a;" horiz-adv-x="815" 
d="M36 23q0 4 2 10l79 212q23 63 60 88t97 26h42l-219 261q-4 4 -4 12q0 7 5.5 12.5t12.5 5.5h593q8 0 13.5 -5.5t5.5 -12.5t-4 -13l-223 -259h43q61 -2 98 -27t61 -88l79 -212q2 -8 2 -11q0 -9 -6.5 -15.5t-15.5 -6.5h-46q-16 0 -22 14l-73 202q-15 39 -34 53.5t-57 14.5
h-74v-263q0 -9 -6 -15t-15 -6h-44q-10 0 -16 6t-6 15v263h-73q-38 0 -57.5 -15t-33.5 -53l-75 -202q-3 -14 -21 -14h-46q-10 0 -16 7t-6 16zM407 364l177 212h-353z" />
    <glyph glyph-name="uni046B" unicode="&#x46b;" horiz-adv-x="697" 
d="M3 15q0 5 4 12l106 166q29 45 59.5 61t69.5 16h23l-144 180q-6 5 -6 14q0 8 5.5 13.5t14.5 5.5h425q9 0 14 -5t5 -14q0 -6 -5 -13l-142 -181h21q41 0 71.5 -15.5t57.5 -60.5l107 -167q5 -6 5 -12q0 -15 -19 -15h-52q-15 0 -25 14l-93 152q-15 26 -33.5 35.5t-46.5 9.5
h-36v-190q0 -9 -5.5 -15t-14.5 -6h-41q-9 0 -15 6t-6 15v190h-35q-29 0 -47 -9.5t-34 -35.5l-93 -152q-10 -14 -25 -14h-53q-17 0 -17 15zM348 270l117 149h-234z" />
    <glyph glyph-name="uni0472" unicode="&#x472;" horiz-adv-x="627" 
d="M571 325q0 -23 -2 -79q-3 -128 -68.5 -191.5t-186.5 -63.5t-187 63.5t-69 191.5q-1 28 -1 79t1 78q3 127 71.5 192t184.5 65t184 -65t71 -192q2 -54 2 -78zM147 399l-1 -38h336l-1 38q-3 93 -48 138.5t-119 45.5t-119 -45.5t-48 -138.5zM481 251q1 17 1 45h-336
q0 -28 1 -45q3 -93 47.5 -138t119.5 -45q74 0 119 45t48 138z" />
    <glyph glyph-name="uni0473" unicode="&#x473;" horiz-adv-x="531" 
d="M484 242q0 -20 -2 -40q-4 -96 -59 -153.5t-157 -57.5t-157.5 57.5t-59.5 153.5l-1 40l1 39q4 96 60 153.5t157 57.5q100 0 156 -57.5t60 -153.5q2 -20 2 -39zM134 280v-10h264v10q-3 70 -38 107.5t-94 37.5q-60 0 -94.5 -37.5t-37.5 -107.5zM398 203v10h-264v-10
q3 -70 37.5 -107.5t94.5 -37.5q59 0 94 37.5t38 107.5z" />
    <glyph glyph-name="uni0474" unicode="&#x474;" horiz-adv-x="612" 
d="M242 24l-209 598q-1 2 -1 8q0 8 5 14t13 6h45q17 0 25 -19l184 -530l120 383q28 94 65 134t96 40h12q15 0 15 -22v-39q0 -9 -5 -15t-12 -6h-7q-29 0 -47 -24.5t-39 -91.5l-137 -436q-8 -24 -33 -24h-57q-25 0 -33 24z" />
    <glyph glyph-name="uni0475" unicode="&#x475;" horiz-adv-x="521" 
d="M201 23l-170 431q-1 3 -1 10q0 8 5.5 13.5t12.5 5.5h43q15 0 22 -15l142 -370l99 275q22 59 49.5 84t80.5 26h13q9 0 15 -6t6 -15v-29q0 -9 -6 -15t-15 -6q-27 0 -43 -15t-29 -51l-119 -323q-9 -23 -35 -23h-36q-24 0 -34 23z" />
    <glyph glyph-name="uni0490" unicode="&#x490;" horiz-adv-x="484" 
d="M480 759v-165q0 -10 -5.5 -16t-15.5 -6h-290v-551q0 -9 -6.5 -15t-15.5 -6h-45q-9 0 -14.5 6t-5.5 15v607q0 10 5.5 16t14.5 6h291v109q0 9 6 15t15 6h45q10 0 15.5 -5.5t5.5 -15.5z" />
    <glyph glyph-name="uni0491" unicode="&#x491;" horiz-adv-x="399" 
d="M387 580v-148q0 -9 -5.5 -14.5t-14.5 -5.5h-214v-391q0 -9 -6 -15t-15 -6h-41q-9 0 -15 6t-6 15v441q0 9 6 15t15 6h214v97q0 9 6 15t15 6h41q9 0 14.5 -6t5.5 -15z" />
    <glyph glyph-name="uni0492" unicode="&#x492;" horiz-adv-x="499" 
d="M480 628v-34q0 -10 -5.5 -16t-15.5 -6h-292v-218h134q10 0 15.5 -5.5t5.5 -15.5v-22q0 -9 -6 -15t-15 -6h-134v-269q0 -9 -6 -15t-16 -6h-43q-9 0 -14.5 6t-5.5 15v269h-51q-10 0 -16 6t-6 15v22q0 10 6 15.5t16 5.5h51v274q0 10 5.5 16t14.5 6h357q10 0 15.5 -6t5.5 -16
z" />
    <glyph glyph-name="uni0493" unicode="&#x493;" horiz-adv-x="399" 
d="M387 462v-30q0 -9 -5.5 -14.5t-14.5 -5.5h-214v-142h111q9 0 15 -6t6 -15v-21q0 -10 -6 -16t-15 -6h-111v-185q0 -9 -6 -15t-15 -6h-41q-9 0 -15 6t-6 15v185h-48q-9 0 -15 6t-6 16v21q0 9 6 15t15 6h48v192q0 9 6 15t15 6h276q9 0 14.5 -6t5.5 -15z" />
    <glyph glyph-name="uni0494" unicode="&#x494;" horiz-adv-x="570" 
d="M535 218v-87q0 -94 -57.5 -148.5t-175.5 -54.5h-5q-9 0 -15 6t-6 15v32q0 10 6 16t15 6h5q81 0 113 34t32 94v80q0 63 -31 93t-99 30q-61 0 -104.5 -25.5t-43.5 -90.5v-197q0 -9 -6.5 -15t-15.5 -6h-45q-9 0 -14.5 6t-5.5 15v607q0 10 5.5 16t14.5 6h357q10 0 15.5 -6
t5.5 -16v-34q0 -10 -5.5 -16t-15.5 -6h-290v-218q50 58 164 58q99 0 150.5 -49.5t51.5 -144.5z" />
    <glyph glyph-name="uni0495" unicode="&#x495;" horiz-adv-x="470" 
d="M452 85v-20q0 -113 -52 -177.5t-175 -64.5h-8q-9 0 -15 6t-6 16v30q0 9 6 14.5t15 5.5h6q61 0 93.5 22t43 58t10.5 91v13q0 67 -31.5 104t-89.5 37q-99 0 -99 -58v-141q0 -9 -6 -15t-15 -6h-38q-9 0 -15 6t-6 15v441q0 9 6 15t15 6h276q9 0 14.5 -6t5.5 -15v-30
q0 -9 -5.5 -14.5t-14.5 -5.5h-217v-157q23 19 52 28.5t69 9.5q87 0 134 -58t47 -150z" />
    <glyph glyph-name="uni0496" unicode="&#x496;" horiz-adv-x="936" 
d="M924 59v-168q0 -10 -6 -15.5t-16 -5.5h-44q-9 0 -15 5.5t-6 15.5v109h-37l-1 2q-7 4 -12 12l-179 275h-106v-269q0 -9 -6 -14.5t-16 -5.5h-43q-10 0 -16 6t-6 15v268h-107l-178 -275q-5 -7 -10 -10.5t-14 -3.5h-48q-10 0 -16 6.5t-6 15.5q0 8 2 11l197 302l-178 285
q-5 7 -5 12q0 18 20 18h44q21 0 32 -15l166 -266l101 1v259q0 9 6 15t16 6h43q10 0 16 -6t6 -15v-259l99 -1l166 266q11 15 32 15h46q20 0 20 -18q0 -5 -5 -12l-178 -285l165 -254h55q10 0 16 -6t6 -16z" />
    <glyph glyph-name="uni0497" unicode="&#x497;" horiz-adv-x="757" 
d="M754 51v-148q0 -9 -6 -15t-15 -6h-41q-9 0 -15 6t-6 15v97h-35v1q-8 2 -17 13l-136 197h-72v-190q0 -9 -6 -15t-16 -6h-40q-9 0 -15 6t-6 15v190h-73l-137 -197q-10 -14 -25 -14h-53q-8 0 -13.5 4t-5.5 11q0 5 5 12l159 226l-140 204q-4 7 -4 11q0 7 5 11t13 4h46
q15 0 24 -14l126 -187h73v180q0 10 6 15.5t15 5.5h40q10 0 16 -6t6 -15v-180h69l128 187q9 14 25 14h44q9 0 14.5 -4t5.5 -11q0 -4 -5 -11l-140 -204l127 -181h54q9 0 15 -6t6 -15z" />
    <glyph glyph-name="uni0498" unicode="&#x498;" horiz-adv-x="574" 
d="M335 -5v-104q0 -10 -5.5 -15.5t-15.5 -5.5h-45q-9 0 -15 6t-6 15v101q-96 6 -151 51t-61 112v2q0 7 5.5 12t14.5 5h42q11 0 17.5 -4.5t9.5 -16.5q12 -40 50.5 -63t99.5 -23q67 0 113 32t46 85q0 55 -40 85.5t-109 30.5h-67q-9 0 -14.5 6t-5.5 16v30q0 10 5.5 16t14.5 6
h63q61 0 96 26.5t35 80.5q0 46 -39 74t-95 28q-60 0 -98 -21t-47 -67q-5 -18 -22 -18h-46q-8 0 -14.5 5.5t-5.5 13.5q7 74 67 119t167 45q70 0 120.5 -24.5t76 -64.5t25.5 -85q0 -46 -18 -83.5t-57 -60.5q49 -24 73 -65.5t24 -94.5q0 -73 -50 -123.5t-138 -63.5z" />
    <glyph glyph-name="uni0499" unicode="&#x499;" horiz-adv-x="474" 
d="M293 -6v-91q0 -9 -6 -15t-16 -6h-41q-9 0 -15 6t-6 15v89q-58 4 -95.5 25.5t-55 51t-18.5 55.5q0 9 5.5 14t13.5 5h40q10 0 15 -4t9 -15q10 -35 40 -50t80 -15q49 0 80 20t31 59q0 78 -90 78h-51q-10 0 -15.5 6t-5.5 15v23q0 9 5.5 15t15.5 6h45q80 0 80 64
q0 33 -24.5 56t-77.5 23q-52 0 -75.5 -17.5t-33.5 -56.5q-4 -17 -23 -17h-39q-7 0 -13 5t-6 12q1 39 22.5 71t64 51.5t103.5 19.5q64 0 105.5 -20.5t60 -51t18.5 -63.5q0 -38 -12.5 -61.5t-44.5 -39.5q40 -15 57.5 -46.5t17.5 -76.5q0 -57 -39 -92t-106 -47z" />
    <glyph glyph-name="uni049A" unicode="&#x49a;" horiz-adv-x="621" 
d="M610 59v-168q0 -10 -6 -15.5t-16 -5.5h-44q-9 0 -15 5.5t-6 15.5v109h-37q-16 0 -24 14l-180 275h-113v-268q0 -9 -6.5 -15t-15.5 -6h-45q-9 0 -14.5 6t-5.5 15v607q0 10 5.5 16t14.5 6h45q10 0 16 -6t6 -16v-258l107 -1l166 266q10 15 33 15h46q9 0 14 -5t5 -13
q0 -5 -5 -12l-178 -285l165 -254h66q10 0 16 -6t6 -16z" />
    <glyph glyph-name="uni049B" unicode="&#x49b;" horiz-adv-x="523" 
d="M520 51v-148q0 -9 -6 -15t-15 -6h-41q-9 0 -15 6t-6 15v97h-35q-14 0 -25 14l-136 195h-89v-188q0 -9 -6 -15t-15 -6h-40q-9 0 -15 6t-6 15v441q0 9 6 15t15 6h40q10 0 15.5 -5.5t5.5 -15.5v-180h87l127 187q9 14 24 14h46q8 0 13.5 -4t5.5 -11q0 -2 -2 -5t-2 -6
l-140 -205l126 -180h62q9 0 15 -6t6 -15z" />
    <glyph glyph-name="uni049C" unicode="&#x49c;" horiz-adv-x="605" 
d="M568 22q0 -9 -6 -15.5t-15 -6.5h-49q-16 0 -24 14l-183 280h-11v-89q0 -9 -6 -15t-16 -6h-5q-10 0 -15.5 6t-5.5 15v89h-63v-273q0 -9 -6.5 -15t-15.5 -6h-45q-9 0 -14.5 6t-5.5 15v607q0 10 5.5 16t14.5 6h45q10 0 16 -6t6 -16v-263h63v91q0 9 5.5 15.5t15.5 6.5h5
q10 0 16 -6.5t6 -15.5v-92h5l170 271q10 15 32 15h46q19 0 19 -18q0 -6 -4 -12l-179 -285l197 -302q2 -3 2 -11z" />
    <glyph glyph-name="uni049D" unicode="&#x49d;" horiz-adv-x="509" 
d="M487 15q0 -15 -18 -15h-53q-14 0 -25 14l-138 198h-5v-78q0 -10 -6 -16t-15 -6h-5q-9 0 -15 6t-6 16v78h-49v-191q0 -9 -6 -15t-15 -6h-40q-9 0 -15 6t-6 15v441q0 9 6 15t15 6h40q10 0 15.5 -5.5t5.5 -15.5v-182h49v70q0 10 6 16t15 6h5q9 0 15 -6t6 -16v-70h3l129 189
q9 14 24 14h46q8 0 13.5 -4t5.5 -11q0 -2 -2 -5t-3 -6l-139 -205l158 -225q4 -7 4 -12z" />
    <glyph glyph-name="uni04A0" unicode="&#x4a0;" horiz-adv-x="735" 
d="M698 22q0 -9 -6 -15.5t-15 -6.5h-49q-16 0 -24 14l-181 275h-112v-268q0 -9 -6 -15t-16 -6h-44q-9 0 -15 6t-6 15v549h-179q-10 0 -16 6t-6 16v36q0 10 6 16t16 6h244q10 0 16 -6t6 -16v-258l107 -1l167 266q10 15 32 15h46q19 0 19 -18q0 -6 -4 -12l-179 -285l197 -302
q2 -3 2 -11z" />
    <glyph glyph-name="uni04A1" unicode="&#x4a1;" horiz-adv-x="606" 
d="M584 15q0 -7 -5 -11t-13 -4h-53q-14 0 -25 14l-137 195h-88v-188q0 -9 -6 -15t-15 -6h-40q-10 0 -16 6t-6 15v391h-147q-9 0 -15 5.5t-6 14.5v30q0 9 6 15t15 6h209q10 0 15.5 -5.5t5.5 -15.5v-180h86l128 187q9 14 24 14h45q9 0 14.5 -4t5.5 -11q0 -4 -5 -11l-140 -205
l159 -225q4 -7 4 -12z" />
    <glyph glyph-name="uni04A2" unicode="&#x4a2;" horiz-adv-x="680" 
d="M648 59v-168q0 -10 -6.5 -15.5t-16.5 -5.5h-43q-10 0 -16 5.5t-6 15.5v109h-46q-10 0 -16 6t-6 15v268h-323v-268q0 -9 -6.5 -15t-15.5 -6h-45q-9 0 -14.5 6t-5.5 15v607q0 10 5.5 16t14.5 6h45q10 0 16 -6t6 -16v-258h323v258q0 10 6 16t16 6h44q11 0 17 -6t6 -16v-547
h44q10 0 16.5 -6t6.5 -16z" />
    <glyph glyph-name="uni04A3" unicode="&#x4a3;" horiz-adv-x="587" 
d="M558 51v-148q0 -9 -6 -15t-15 -6h-41q-9 0 -15 6t-6 15v97h-44q-9 0 -15 6t-6 15v190h-257v-190q0 -9 -6 -15t-15 -6h-41q-9 0 -15 6t-6 15v441q0 9 6 15t15 6h41q9 0 15 -6t6 -15v-180h257v180q0 9 6 15t15 6h41q10 0 15.5 -5.5t5.5 -15.5v-390h44q9 0 15 -6t6 -15z" />
    <glyph glyph-name="uni04A4" unicode="&#x4a4;" horiz-adv-x="857" 
d="M854 628v-34q0 -10 -6 -16t-17 -6h-250v-551q0 -9 -6.5 -15t-16.5 -6h-44q-10 0 -16 6t-6 15v268h-323v-268q0 -9 -6.5 -15t-15.5 -6h-45q-9 0 -14.5 6t-5.5 15v607q0 10 5.5 16t14.5 6h45q10 0 16 -6t6 -16v-258h323v258q0 10 6 16t16 6h317q11 0 17 -6t6 -16z" />
    <glyph glyph-name="uni04A5" unicode="&#x4a5;" horiz-adv-x="697" 
d="M687 462v-30q0 -9 -6.5 -14.5t-15.5 -5.5h-172v-391q0 -9 -6 -15t-15 -6h-41q-9 0 -15 6t-6 15v190h-257v-190q0 -9 -6 -15t-15 -6h-41q-9 0 -15 6t-6 15v441q0 9 6 15t15 6h41q9 0 15 -6t6 -15v-180h257v180q0 9 6 15t15 6h234q9 0 15.5 -6t6.5 -15z" />
    <glyph glyph-name="uni04AA" unicode="&#x4aa;" horiz-adv-x="618" 
d="M573 198q-3 -48 -27 -92.5t-71.5 -74.5t-115.5 -38v-102q0 -10 -6 -15.5t-16 -5.5h-44q-10 0 -16 6t-6 15v102q-103 11 -156.5 77t-57.5 172q-1 26 -1 82q0 58 1 84q4 117 68.5 184.5t188.5 67.5q83 0 140.5 -29.5t86.5 -77t32 -101.5q0 -8 -6 -13t-14 -5h-47
q-9 0 -14.5 4.5t-8.5 15.5q-16 72 -57 100.5t-112 28.5q-162 0 -168 -180q-1 -25 -1 -77t1 -79q6 -179 168 -179q70 0 111.5 28.5t57.5 99.5q3 11 8.5 15.5t14.5 4.5h47q8 0 14 -5t6 -13z" />
    <glyph glyph-name="uni04AB" unicode="&#x4ab;" horiz-adv-x="511" 
d="M469 144q-2 -31 -19.5 -62.5t-53.5 -56t-89 -32.5v-90q0 -9 -6 -15t-15 -6h-41q-9 0 -15 6t-6 15v90q-81 11 -126.5 66t-48.5 145l-1 38l1 37q3 101 59 157t155 56q67 0 113 -23.5t68.5 -59t24.5 -70.5q1 -8 -6 -14.5t-15 -6.5h-41q-9 0 -14 4t-9 15q-17 46 -46.5 65
t-73.5 19q-59 0 -93 -36.5t-37 -110.5l-1 -32l1 -33q3 -74 37 -110.5t93 -36.5q45 0 74 19t46 65q4 11 9 15t14 4h41q8 0 15 -6.5t6 -14.5z" />
    <glyph glyph-name="uni04AE" unicode="&#x4ae;" horiz-adv-x="582" 
d="M247 21v221l-224 378q-3 7 -3 12q0 7 6 12.5t13 5.5h45q14 0 24 -15l183 -304l184 304q8 15 24 15h44q8 0 13.5 -5.5t5.5 -12.5t-3 -12l-224 -378v-221q0 -9 -6.5 -15t-15.5 -6h-45q-9 0 -15 6t-6 15z" />
    <glyph glyph-name="uni04AF" unicode="&#x4af;" horiz-adv-x="492" 
d="M472 454l-184 -459v-150q0 -10 -5.5 -16t-15.5 -6h-42q-9 0 -15.5 6.5t-6.5 15.5v151l-182 458l-1 10q0 8 5.5 13.5t13.5 5.5h42q8 0 14 -4.5t8 -10.5l143 -370l143 370q8 15 23 15h42q8 0 14 -5.5t6 -13.5z" />
    <glyph glyph-name="uni04B0" unicode="&#x4b0;" horiz-adv-x="599" 
d="M559 620l-219 -370h20q6 0 9.5 -4t3.5 -9q0 -6 -3.5 -9.5t-9.5 -3.5h-25v-203q0 -9 -6.5 -15t-15.5 -6h-45q-9 0 -15 6t-6 15v203h-39q-5 0 -9 3.5t-4 9.5q0 5 4 9t9 4h34l-219 370q-3 7 -3 12q0 7 6 12.5t13 5.5h45q14 0 24 -15l183 -304l184 304q8 15 24 15h44
q8 0 13.5 -5.5t5.5 -12.5t-3 -12z" />
    <glyph glyph-name="uni04B1" unicode="&#x4b1;" horiz-adv-x="492" 
d="M472 454l-172 -428h66q9 0 15 -6t6 -15v-22q0 -9 -6 -15t-15 -6h-78v-117q0 -10 -5.5 -16t-15.5 -6h-42q-9 0 -15.5 6.5t-6.5 15.5v117h-79q-9 0 -15 6t-6 15v22q0 9 6 15t15 6h67l-170 428l-1 10q0 8 5.5 13.5t13.5 5.5h42q8 0 14 -4.5t8 -10.5l143 -370l143 370
q8 15 23 15h42q8 0 14 -5.5t6 -13.5z" />
    <glyph glyph-name="uni04B6" unicode="&#x4b6;" horiz-adv-x="623" 
d="M592 59v-168q0 -10 -6 -15.5t-17 -5.5h-43q-9 0 -15.5 5.5t-6.5 15.5v109h-47q-9 0 -15 6t-6 15v241q-20 -23 -67.5 -35t-97.5 -12q-219 0 -219 200v214q0 9 6 15t15 6h45q10 0 16 -6t6 -15v-208q0 -65 33.5 -95t112.5 -30q57 0 103.5 22t46.5 75v236q0 10 6 15.5t15 5.5
h44q10 0 16 -5.5t6 -15.5v-548h46q11 0 17 -6t6 -16z" />
    <glyph glyph-name="uni04B7" unicode="&#x4b7;" horiz-adv-x="530" 
d="M502 51v-148q0 -9 -6 -15t-16 -6h-41q-9 0 -15 6t-6 15v97h-45q-9 0 -15 6t-6 15v177q-48 -46 -142 -46q-171 0 -171 152v158q0 10 6 15.5t15 5.5h42q9 0 15.5 -6t6.5 -15v-153q0 -42 24 -61t77 -19q61 0 94 15t33 50v168q0 9 6 15t15 6h44q9 0 15 -6t6 -15v-390h42
q10 0 16 -6t6 -15z" />
    </font>
</defs>
</svg>
